<?xml version="1.0" encoding="UTF-8"?>
<!DOCTYPE svg PUBLIC "-//W3C//DTD SVG 1.1//EN" "http://www.w3.org/Graphics/SVG/1.1/DTD/svg11.dtd">
<svg xmlns="http://www.w3.org/2000/svg" version="1.1" width="1056px" height="528px" style="shape-rendering:geometricPrecision; text-rendering:geometricPrecision; image-rendering:optimizeQuality; fill-rule:evenodd; clip-rule:evenodd" xmlns:xlink="http://www.w3.org/1999/xlink">
<g><path style="opacity:0.997" fill="#bd0396" d="M 97.5,165.5 C 97.5,166.5 97.5,167.5 97.5,168.5C 98.8734,168.343 100.207,168.51 101.5,169C 102.765,170.981 102.765,172.981 101.5,175C 99.3377,174.618 97.5044,173.452 96,171.5C 94.6054,172.815 93.6054,172.481 93,170.5C 92.3076,171.025 91.8076,171.692 91.5,172.5C 92.6155,173.598 92.6155,174.765 91.5,176C 93.847,177.581 93.847,178.914 91.5,180C 92.5358,181.617 93.7025,181.784 95,180.5C 96.2022,182.677 96.7022,185.011 96.5,187.5C 92.7104,187.008 92.0437,187.841 94.5,190C 93.8333,190.667 93.1667,191.333 92.5,192C 93.9346,191.689 95.2679,191.855 96.5,192.5C 97.2868,191.758 97.9535,190.925 98.5,190C 97.5494,189.282 97.3828,188.449 98,187.5C 100.981,190.572 101.148,193.405 98.5,196C 98.7284,196.399 99.0618,196.565 99.5,196.5C 76.7241,203.095 66.0574,218.095 67.5,241.5C 71.4937,242.373 71.4937,243.54 67.5,245C 69.0846,245.085 70.4179,245.251 71.5,245.5C 70.3498,251.313 70.3498,257.48 71.5,264C 71.0946,264.945 70.428,265.612 69.5,266C 72.6887,266.981 73.022,268.314 70.5,270C 72.7898,270.79 73.1231,272.124 71.5,274C 71.7642,276.728 72.7642,279.061 74.5,281C 73.7471,282.487 72.9138,282.654 72,281.5C 70.1476,283.23 70.3143,284.396 72.5,285C 70.8614,288.673 71.5281,291.84 74.5,294.5C 66.7556,304.04 64.4223,314.707 67.5,326.5C 78.0076,327.167 88.6742,327.833 99.5,328.5C 98.7376,328.911 97.7376,329.077 96.5,329C 98.3513,330.684 100.018,332.517 101.5,334.5C 100.624,335.251 99.624,335.751 98.5,336C 100.036,337.599 100.536,339.433 100,341.5C 98.5347,339.214 97.7013,339.714 97.5,343C 97.6667,343.833 97.8333,344.667 98,345.5C 100.065,344.002 101.899,344.502 103.5,347C 103.167,347.5 102.833,348 102.5,348.5C 102.167,347.833 101.833,347.167 101.5,346.5C 99.058,347.384 98.2246,349.051 99,351.5C 100.516,348.949 101.349,349.282 101.5,352.5C 100.448,352.351 99.448,352.517 98.5,353C 98.6932,354.645 98.8598,356.479 99,358.5C 99.3333,357.833 99.6667,357.167 100,356.5C 101.036,358.299 101.203,359.966 100.5,361.5C 87.5,361.5 74.5,361.5 61.5,361.5C 61.0046,359.518 60.5046,357.518 60,355.5C 57.9361,356.591 55.7695,356.758 53.5,356C 54.1667,355.667 54.8333,355.333 55.5,355C 53.6858,354.08 52.6858,352.58 52.5,350.5C 52.5092,347.312 52.8425,344.146 53.5,341C 51.4873,339.209 51.4873,337.875 53.5,337C 53.1667,336 52.8333,335 52.5,334C 53.8333,333 55.1667,332 56.5,331C 55.0069,329.632 53.5069,329.465 52,330.5C 51.9444,327.733 51.7777,325.067 51.5,322.5C 52.0253,321.808 52.6919,321.308 53.5,321C 51.503,319.847 51.1696,318.347 52.5,316.5C 54.444,315.811 56.444,315.311 58.5,315C 57.9535,314.075 57.2868,313.242 56.5,312.5C 55.086,313.624 53.586,314.624 52,315.5C 51.7638,313.236 51.2638,311.069 50.5,309C 51.1269,303.82 51.1269,298.32 50.5,292.5C 51.675,292.719 52.675,292.386 53.5,291.5C 52.2839,290.904 50.9506,290.737 49.5,291C 50.3279,290.085 51.3279,289.419 52.5,289C 51.5,288.167 50.5,287.333 49.5,286.5C 50.8333,284.833 50.8333,283.167 49.5,281.5C 51.984,280.106 51.984,278.606 49.5,277C 49.6667,276.5 49.8333,276 50,275.5C 51.0495,276.517 52.2161,276.684 53.5,276C 51.9984,275.417 50.6651,274.584 49.5,273.5C 49.4678,270.921 50.8012,268.754 53.5,267C 51.1144,266.716 50.4477,265.716 51.5,264C 50.5,263.667 49.5,263.333 48.5,263C 49.7468,261.542 49.7468,260.042 48.5,258.5C 49.6651,257.416 50.9984,256.583 52.5,256C 51.4479,254.881 50.2812,254.381 49,254.5C 48.51,253.207 48.3433,251.873 48.5,250.5C 50.1092,250.906 51.4425,250.906 52.5,250.5C 51.9646,248.729 51.1313,248.396 50,249.5C 49.5,248.5 49,247.5 48.5,246.5C 48.9753,243.235 49.642,240.068 50.5,237C 49.1279,235.758 48.1279,234.258 47.5,232.5C 47.9737,229.255 47.9737,225.921 47.5,222.5C 48.5,222.5 49.5,222.5 50.5,222.5C 50.4386,220.408 49.4386,218.908 47.5,218C 48.1667,217.667 48.8333,217.333 49.5,217C 48.7433,215.488 47.7433,214.154 46.5,213C 48.0877,211.013 48.9211,208.846 49,206.5C 46.5723,208.974 46.0723,208.474 47.5,205C 45.1224,204.026 45.4557,203.359 48.5,203C 48.1667,202.667 47.8333,202.333 47.5,202C 48.8333,200.667 50.1667,199.333 51.5,198C 50.324,196.086 49.324,196.252 48.5,198.5C 47.2503,196.21 46.2503,194.043 45.5,192C 45.9903,190.018 46.9903,188.351 48.5,187C 47.3659,185.984 47.6992,185.317 49.5,185C 48.1667,184 46.8333,183 45.5,182C 46.1667,181.667 46.8333,181.333 47.5,181C 46.1669,179.16 46.3335,178.66 48,179.5C 51.0325,178.655 51.1991,177.322 48.5,175.5C 47.914,175.709 47.414,176.043 47,176.5C 46.0797,173.899 45.413,171.232 45,168.5C 43.9887,167.663 42.8221,167.33 41.5,167.5C 42.2625,166.732 43.2625,166.232 44.5,166C 62.1635,165.5 79.8302,165.333 97.5,165.5 Z"/></g>
<g><path style="opacity:1" fill="#c50593" d="M 97.5,165.5 C 113.833,165.5 130.167,165.5 146.5,165.5C 148.309,167.861 148.309,170.528 146.5,173.5C 147.154,175.115 147.654,176.782 148,178.5C 148.915,177.672 149.581,176.672 150,175.5C 150.956,176.579 151.789,177.745 152.5,179C 146.995,181.153 146.662,183.153 151.5,185C 153.285,186.593 153.452,188.093 152,189.5C 151.077,188.241 150.243,186.908 149.5,185.5C 149.167,185.667 148.833,185.833 148.5,186C 149.573,187.25 149.573,188.584 148.5,190C 149.482,190.381 150.148,191.214 150.5,192.5C 150.081,193.672 149.415,194.672 148.5,195.5C 150.27,196.82 150.603,198.32 149.5,200C 150.962,199.937 152.295,199.271 153.5,198C 152.446,196.612 152.28,195.112 153,193.5C 153.893,192.289 154.726,192.289 155.5,193.5C 154.833,194.167 154.167,194.833 153.5,195.5C 154.397,198.95 154.397,202.284 153.5,205.5C 153.062,206.506 152.396,206.506 151.5,205.5C 150.614,206.325 150.281,207.325 150.5,208.5C 149.5,208.5 148.5,208.5 147.5,208.5C 141.872,203.184 135.205,199.684 127.5,198C 118.218,196.684 108.884,196.184 99.5,196.5C 99.0618,196.565 98.7284,196.399 98.5,196C 101.148,193.405 100.981,190.572 98,187.5C 97.3828,188.449 97.5494,189.282 98.5,190C 97.9535,190.925 97.2868,191.758 96.5,192.5C 95.2679,191.855 93.9346,191.689 92.5,192C 93.1667,191.333 93.8333,190.667 94.5,190C 92.0437,187.841 92.7104,187.008 96.5,187.5C 96.7022,185.011 96.2022,182.677 95,180.5C 93.7025,181.784 92.5358,181.617 91.5,180C 93.847,178.914 93.847,177.581 91.5,176C 92.6155,174.765 92.6155,173.598 91.5,172.5C 91.8076,171.692 92.3076,171.025 93,170.5C 93.6054,172.481 94.6054,172.815 96,171.5C 97.5044,173.452 99.3377,174.618 101.5,175C 102.765,172.981 102.765,170.981 101.5,169C 100.207,168.51 98.8734,168.343 97.5,168.5C 97.5,167.5 97.5,166.5 97.5,165.5 Z"/></g>
<g><path style="opacity:0.999" fill="#ca0791" d="M 146.5,165.5 C 161.5,165.5 176.5,165.5 191.5,165.5C 189.716,167.41 188.716,169.744 188.5,172.5C 189.978,172.238 191.311,172.571 192.5,173.5C 191.408,174.831 190.074,175.664 188.5,176C 190.125,176.853 190.458,177.853 189.5,179C 190.264,181.069 190.764,183.236 191,185.5C 192.84,184.167 193.34,184.334 192.5,186C 193.167,186.667 193.833,187.333 194.5,188C 194.364,191.531 194.364,195.364 194.5,199.5C 184.985,199.173 175.652,199.506 166.5,200.5C 165.883,200.611 165.383,200.944 165,201.5C 164.333,209.5 164.333,217.5 165,225.5C 170.667,226.167 176.333,226.833 182,227.5C 182.17,260.738 182.67,293.905 183.5,327C 192.5,327.667 201.5,327.667 210.5,327C 211,326.5 211.5,326 212,325.5C 212.5,287.168 212.667,248.835 212.5,210.5C 213.491,216.979 213.824,223.646 213.5,230.5C 213.167,262.174 213.5,293.84 214.5,325.5C 216.836,327.073 216.836,328.406 214.5,329.5C 215.908,330.243 217.241,331.077 218.5,332C 217.833,332.333 217.167,332.667 216.5,333C 217.76,334.814 217.76,336.647 216.5,338.5C 215.914,338.291 215.414,337.957 215,337.5C 213.266,338.249 211.433,338.749 209.5,339C 210.071,340.205 210.738,341.372 211.5,342.5C 212.711,341.726 212.711,340.893 211.5,340C 213.387,340.423 215.387,340.256 217.5,339.5C 217.737,342.212 217.737,344.712 217.5,347C 219.891,347.691 219.891,348.691 217.5,350C 218.722,353.898 219.055,357.731 218.5,361.5C 196.833,361.5 175.167,361.5 153.5,361.5C 154.719,359.677 156.053,358.677 157.5,358.5C 153.864,357.064 153.697,355.397 157,353.5C 159.381,355.766 161.215,355.099 162.5,351.5C 161.311,350.571 159.978,350.238 158.5,350.5C 158.579,349.07 158.246,347.736 157.5,346.5C 156.726,345.289 155.893,345.289 155,346.5C 152.926,343.863 153.093,341.363 155.5,339C 153.037,334.821 153.371,330.821 156.5,327C 155.874,326.25 155.374,325.416 155,324.5C 154.329,325.252 153.496,325.586 152.5,325.5C 154.168,323.66 155.668,321.66 157,319.5C 157.5,312.508 157.666,305.508 157.5,298.5C 142.485,298.833 127.485,298.499 112.5,297.5C 124.058,288.448 134.892,278.448 145,267.5C 158.39,251.812 161.056,234.479 153,215.5C 151.334,213.004 149.5,210.671 147.5,208.5C 148.5,208.5 149.5,208.5 150.5,208.5C 150.281,207.325 150.614,206.325 151.5,205.5C 152.396,206.506 153.062,206.506 153.5,205.5C 154.397,202.284 154.397,198.95 153.5,195.5C 154.167,194.833 154.833,194.167 155.5,193.5C 154.726,192.289 153.893,192.289 153,193.5C 152.28,195.112 152.446,196.612 153.5,198C 152.295,199.271 150.962,199.937 149.5,200C 150.603,198.32 150.27,196.82 148.5,195.5C 149.415,194.672 150.081,193.672 150.5,192.5C 150.148,191.214 149.482,190.381 148.5,190C 149.573,188.584 149.573,187.25 148.5,186C 148.833,185.833 149.167,185.667 149.5,185.5C 150.243,186.908 151.077,188.241 152,189.5C 153.452,188.093 153.285,186.593 151.5,185C 146.662,183.153 146.995,181.153 152.5,179C 151.789,177.745 150.956,176.579 150,175.5C 149.581,176.672 148.915,177.672 148,178.5C 147.654,176.782 147.154,175.115 146.5,173.5C 148.309,170.528 148.309,167.861 146.5,165.5 Z"/></g>
<g><path style="opacity:1" fill="#d41990" d="M 191.5,165.5 C 195.5,165.5 199.5,165.5 203.5,165.5C 203.872,168.617 203.872,171.617 203.5,174.5C 204.376,175.251 205.376,175.751 206.5,176C 204.099,178.173 204.099,180.506 206.5,183C 205.552,183.483 204.552,183.649 203.5,183.5C 203.34,185.199 203.506,186.866 204,188.5C 204.317,186.699 204.984,186.366 206,187.5C 206.303,189.888 207.137,192.055 208.5,194C 207.207,194.49 205.873,194.657 204.5,194.5C 204.5,196.5 204.5,198.5 204.5,200.5C 191.833,200.5 179.167,200.5 166.5,200.5C 175.652,199.506 184.985,199.173 194.5,199.5C 194.364,195.364 194.364,191.531 194.5,188C 193.833,187.333 193.167,186.667 192.5,186C 193.34,184.334 192.84,184.167 191,185.5C 190.764,183.236 190.264,181.069 189.5,179C 190.458,177.853 190.125,176.853 188.5,176C 190.074,175.664 191.408,174.831 192.5,173.5C 191.311,172.571 189.978,172.238 188.5,172.5C 188.716,169.744 189.716,167.41 191.5,165.5 Z"/></g>
<g><path style="opacity:1" fill="#de0186" d="M 215.5,165.5 C 221.5,165.5 227.5,165.5 233.5,165.5C 233.617,167.484 232.95,169.15 231.5,170.5C 232.098,171.795 232.598,173.128 233,174.5C 233.333,174.167 233.667,173.833 234,173.5C 234.308,174.308 234.808,174.975 235.5,175.5C 236.404,178.938 237.737,182.105 239.5,185C 238.167,185.333 236.833,185.667 235.5,186C 237.878,186.974 237.544,187.641 234.5,188C 235.938,188.219 237.271,188.719 238.5,189.5C 237.019,190.48 235.685,191.647 234.5,193C 235.715,195.096 236.549,194.929 237,192.5C 238.772,193.99 238.939,195.657 237.5,197.5C 239.059,199.469 240.726,201.302 242.5,203C 241.051,204.117 239.384,204.784 237.5,205C 238.793,205.49 240.127,205.657 241.5,205.5C 241.773,207.451 241.107,208.951 239.5,210C 241.101,210.273 242.601,210.773 244,211.5C 245.793,215.337 247.126,219.004 248,222.5C 249.067,223.191 250.234,223.691 251.5,224C 248.906,226.848 249.573,228.848 253.5,230C 250.456,230.359 250.122,231.026 252.5,232C 251.829,232.986 251.829,234.153 252.5,235.5C 250.228,232.57 247.228,230.903 243.5,230.5C 238.349,229.673 233.016,229.173 227.5,229C 225.777,228.477 224.444,227.477 223.5,226C 224.424,224.189 225.257,224.355 226,226.5C 226.167,225.833 226.333,225.167 226.5,224.5C 225.053,223.859 223.72,222.359 222.5,220C 223.833,219.333 223.833,218.667 222.5,218C 224.891,217.309 224.891,216.309 222.5,215C 222.5,211.333 222.5,207.667 222.5,204C 219.123,202.351 218.79,200.351 221.5,198C 221.5,196.333 221.5,194.667 221.5,193C 220.816,191.307 219.816,189.807 218.5,188.5C 218.709,187.914 219.043,187.414 219.5,187C 218.529,185.796 217.529,185.296 216.5,185.5C 217.951,184.094 219.284,182.594 220.5,181C 219.464,179.383 218.297,179.216 217,180.5C 213.469,176.746 213.969,173.579 218.5,171C 216.84,169.512 215.84,167.679 215.5,165.5 Z"/></g>
<g><path style="opacity:1" fill="#e50681" d="M 233.5,165.5 C 239.167,165.5 244.833,165.5 250.5,165.5C 249.933,168.709 250.6,171.875 252.5,175C 252.108,176.011 251.441,176.511 250.5,176.5C 252.85,179.338 254.517,182.505 255.5,186C 254.655,187.558 255.321,188.558 257.5,189C 256.826,190.751 256.493,192.417 256.5,194C 258.125,194.853 258.458,195.853 257.5,197C 258.227,198.399 258.727,199.899 259,201.5C 259.654,200.304 260.154,200.304 260.5,201.5C 259.359,202.425 259.359,203.259 260.5,204C 259.672,204.915 258.672,205.581 257.5,206C 260.474,207.506 260.807,209.172 258.5,211C 259.715,213.096 260.549,212.929 261,210.5C 261.465,211.931 262.299,213.097 263.5,214C 262.239,217.446 263.572,219.446 267.5,220C 264.456,220.359 264.122,221.026 266.5,222C 266.167,222.333 265.833,222.667 265.5,223C 267.23,225.417 268.564,228.084 269.5,231C 269.241,232.261 268.574,233.261 267.5,234C 268.728,234.779 269.728,235.779 270.5,237C 269.795,238.422 269.461,239.755 269.5,241C 270.227,242.399 270.727,243.899 271,245.5C 271.333,245.167 271.667,244.833 272,244.5C 272.333,246.833 272.667,249.167 273,251.5C 273.333,251.167 273.667,250.833 274,250.5C 275.087,254.218 277.253,257.052 280.5,259C 279.833,259.333 279.167,259.667 278.5,260C 279.617,263.869 281.283,267.369 283.5,270.5C 281.405,278.027 278.738,285.36 275.5,292.5C 267.639,273.585 259.972,254.585 252.5,235.5C 251.829,234.153 251.829,232.986 252.5,232C 250.122,231.026 250.456,230.359 253.5,230C 249.573,228.848 248.906,226.848 251.5,224C 250.234,223.691 249.067,223.191 248,222.5C 247.126,219.004 245.793,215.337 244,211.5C 242.601,210.773 241.101,210.273 239.5,210C 241.107,208.951 241.773,207.451 241.5,205.5C 240.127,205.657 238.793,205.49 237.5,205C 239.384,204.784 241.051,204.117 242.5,203C 240.726,201.302 239.059,199.469 237.5,197.5C 238.939,195.657 238.772,193.99 237,192.5C 236.549,194.929 235.715,195.096 234.5,193C 235.685,191.647 237.019,190.48 238.5,189.5C 237.271,188.719 235.938,188.219 234.5,188C 237.544,187.641 237.878,186.974 235.5,186C 236.833,185.667 238.167,185.333 239.5,185C 237.737,182.105 236.404,178.938 235.5,175.5C 234.808,174.975 234.308,174.308 234,173.5C 233.667,173.833 233.333,174.167 233,174.5C 232.598,173.128 232.098,171.795 231.5,170.5C 232.95,169.15 233.617,167.484 233.5,165.5 Z"/></g>
<g><path style="opacity:1" fill="#e9057e" d="M 250.5,165.5 C 253.167,165.5 255.833,165.5 258.5,165.5C 258.082,166.222 257.416,166.722 256.5,167C 257.167,167.333 257.833,167.667 258.5,168C 256.815,171.569 257.482,174.569 260.5,177C 258.732,180.143 259.399,183.143 262.5,186C 261.366,187.016 261.699,187.683 263.5,188C 262.655,189.558 263.321,190.558 265.5,191C 263.109,192.309 263.109,193.309 265.5,194C 264.72,195.073 264.887,196.24 266,197.5C 266.837,195.993 268.004,195.493 269.5,196C 267.787,197.378 266.453,199.045 265.5,201C 267.851,206.202 270.351,211.369 273,216.5C 274.509,219.329 274.675,222.162 273.5,225C 275.125,225.853 275.458,226.853 274.5,228C 277.612,228.851 277.946,230.017 275.5,231.5C 277.347,237.488 280.014,242.488 283.5,246.5C 283.291,247.086 282.957,247.586 282.5,248C 285.249,249.346 285.583,250.68 283.5,252C 285.677,253.202 288.011,253.702 290.5,253.5C 288.344,259.319 286.01,264.985 283.5,270.5C 281.283,267.369 279.617,263.869 278.5,260C 279.167,259.667 279.833,259.333 280.5,259C 277.253,257.052 275.087,254.218 274,250.5C 273.667,250.833 273.333,251.167 273,251.5C 272.667,249.167 272.333,246.833 272,244.5C 271.667,244.833 271.333,245.167 271,245.5C 270.727,243.899 270.227,242.399 269.5,241C 269.461,239.755 269.795,238.422 270.5,237C 269.728,235.779 268.728,234.779 267.5,234C 268.574,233.261 269.241,232.261 269.5,231C 268.564,228.084 267.23,225.417 265.5,223C 265.833,222.667 266.167,222.333 266.5,222C 264.122,221.026 264.456,220.359 267.5,220C 263.572,219.446 262.239,217.446 263.5,214C 262.299,213.097 261.465,211.931 261,210.5C 260.549,212.929 259.715,213.096 258.5,211C 260.807,209.172 260.474,207.506 257.5,206C 258.672,205.581 259.672,204.915 260.5,204C 259.359,203.259 259.359,202.425 260.5,201.5C 260.154,200.304 259.654,200.304 259,201.5C 258.727,199.899 258.227,198.399 257.5,197C 258.458,195.853 258.125,194.853 256.5,194C 256.493,192.417 256.826,190.751 257.5,189C 255.321,188.558 254.655,187.558 255.5,186C 254.517,182.505 252.85,179.338 250.5,176.5C 251.441,176.511 252.108,176.011 252.5,175C 250.6,171.875 249.933,168.709 250.5,165.5 Z"/></g>
<g><path style="opacity:1" fill="#ec057b" d="M 258.5,165.5 C 262.5,165.5 266.5,165.5 270.5,165.5C 271.379,171.152 273.379,176.652 276.5,182C 275.542,183.147 275.875,184.147 277.5,185C 276.911,186.873 277.578,188.54 279.5,190C 279.043,190.414 278.709,190.914 278.5,191.5C 281.999,199.403 285.499,207.736 289,216.5C 291.899,222.411 295.065,228.078 298.5,233.5C 295.282,239.937 292.616,246.604 290.5,253.5C 288.011,253.702 285.677,253.202 283.5,252C 285.583,250.68 285.249,249.346 282.5,248C 282.957,247.586 283.291,247.086 283.5,246.5C 280.014,242.488 277.347,237.488 275.5,231.5C 277.946,230.017 277.612,228.851 274.5,228C 275.458,226.853 275.125,225.853 273.5,225C 274.675,222.162 274.509,219.329 273,216.5C 270.351,211.369 267.851,206.202 265.5,201C 266.453,199.045 267.787,197.378 269.5,196C 268.004,195.493 266.837,195.993 266,197.5C 264.887,196.24 264.72,195.073 265.5,194C 263.109,193.309 263.109,192.309 265.5,191C 263.321,190.558 262.655,189.558 263.5,188C 261.699,187.683 261.366,187.016 262.5,186C 259.399,183.143 258.732,180.143 260.5,177C 257.482,174.569 256.815,171.569 258.5,168C 257.833,167.667 257.167,167.333 256.5,167C 257.416,166.722 258.082,166.222 258.5,165.5 Z"/></g>
<g><path style="opacity:1" fill="#f01179" d="M 270.5,165.5 C 274.833,165.5 279.167,165.5 283.5,165.5C 284.966,169.604 286.299,173.771 287.5,178C 287.265,178.873 286.931,179.707 286.5,180.5C 287.247,180.736 288.08,181.07 289,181.5C 289.532,184.264 290.366,186.93 291.5,189.5C 290.673,191.941 290.673,194.107 291.5,196C 292.623,197.044 293.956,197.71 295.5,198C 294.692,198.308 294.025,198.808 293.5,199.5C 294.214,201.811 295.214,203.978 296.5,206C 294.314,206.604 294.148,207.77 296,209.5C 296.308,208.692 296.808,208.025 297.5,207.5C 298.635,208.103 299.635,208.436 300.5,208.5C 300.24,211.11 300.24,213.61 300.5,216C 302.633,219.025 303.466,222.192 303,225.5C 303.93,223.034 304.763,223.201 305.5,226C 305.241,227.261 304.574,228.261 303.5,229C 311.677,229.171 319.677,229.671 327.5,230.5C 319.493,230.334 311.493,230.5 303.5,231C 301.922,232.094 300.255,232.928 298.5,233.5C 295.065,228.078 291.899,222.411 289,216.5C 285.499,207.736 281.999,199.403 278.5,191.5C 278.709,190.914 279.043,190.414 279.5,190C 277.578,188.54 276.911,186.873 277.5,185C 275.875,184.147 275.542,183.147 276.5,182C 273.379,176.652 271.379,171.152 270.5,165.5 Z"/></g>
<g><path style="opacity:1" fill="#f61374" d="M 283.5,165.5 C 292.5,165.5 301.5,165.5 310.5,165.5C 310.586,166.496 310.252,167.329 309.5,168C 311.235,170.192 312.402,172.692 313,175.5C 313.718,174.549 314.551,174.383 315.5,175C 314.672,175.915 313.672,176.581 312.5,177C 313.126,177.75 313.626,178.584 314,179.5C 314.84,176.536 315.84,176.203 317,178.5C 317.667,180.167 317.667,181.833 317,183.5C 315.935,181.604 315.102,181.437 314.5,183C 314.759,184.261 315.426,185.261 316.5,186C 315.354,188.557 316.354,189.89 319.5,190C 318.833,190.333 318.167,190.667 317.5,191C 318.833,192.333 320.167,193.667 321.5,195C 320.486,198.116 321.152,200.95 323.5,203.5C 323.291,204.086 322.957,204.586 322.5,205C 324.108,205.469 325.775,206.135 327.5,207C 327.167,207.333 326.833,207.667 326.5,208C 327.308,208.308 327.975,208.808 328.5,209.5C 327.833,209.833 327.167,210.167 326.5,210.5C 327.685,211.853 329.019,213.02 330.5,214C 329.378,215.613 329.878,216.78 332,217.5C 332.632,222.828 335.132,227.662 339.5,232C 339.167,232.333 338.833,232.667 338.5,233C 339.308,233.308 339.975,233.808 340.5,234.5C 337.917,235.464 337.417,236.798 339,238.5C 339.308,237.692 339.808,237.025 340.5,236.5C 341.417,237.127 342.417,237.461 343.5,237.5C 332.742,246.339 326.075,257.672 323.5,271.5C 319.814,269.839 317.814,266.839 317.5,262.5C 320.696,253.418 324.196,244.418 328,235.5C 328.78,233.613 328.613,231.946 327.5,230.5C 319.677,229.671 311.677,229.171 303.5,229C 304.574,228.261 305.241,227.261 305.5,226C 304.763,223.201 303.93,223.034 303,225.5C 303.466,222.192 302.633,219.025 300.5,216C 300.24,213.61 300.24,211.11 300.5,208.5C 299.635,208.436 298.635,208.103 297.5,207.5C 296.808,208.025 296.308,208.692 296,209.5C 294.148,207.77 294.314,206.604 296.5,206C 295.214,203.978 294.214,201.811 293.5,199.5C 294.025,198.808 294.692,198.308 295.5,198C 293.956,197.71 292.623,197.044 291.5,196C 290.673,194.107 290.673,191.941 291.5,189.5C 290.366,186.93 289.532,184.264 289,181.5C 288.08,181.07 287.247,180.736 286.5,180.5C 286.931,179.707 287.265,178.873 287.5,178C 286.299,173.771 284.966,169.604 283.5,165.5 Z"/></g>
<g><path style="opacity:1" fill="#fc186d" d="M 310.5,165.5 C 317.167,165.5 323.833,165.5 330.5,165.5C 331.45,168.068 331.45,170.568 330.5,173C 332.743,173.607 334.41,174.94 335.5,177C 335.087,178.796 335.087,180.463 335.5,182C 336.126,182.75 336.626,183.584 337,184.5C 337.333,184.167 337.667,183.833 338,183.5C 338.005,186.229 339.171,188.229 341.5,189.5C 340.391,190.965 340.891,191.965 343,192.5C 343.212,195.44 344.712,197.274 347.5,198C 346.833,198.333 346.167,198.667 345.5,199C 346.624,199.249 347.624,199.749 348.5,200.5C 347.738,200.911 346.738,201.077 345.5,201C 346.55,204.622 347.55,208.122 348.5,211.5C 350.833,212.833 353.167,214.167 355.5,215.5C 354.598,222.281 357.598,226.281 364.5,227.5C 356.907,229.462 349.907,232.795 343.5,237.5C 342.417,237.461 341.417,237.127 340.5,236.5C 339.808,237.025 339.308,237.692 339,238.5C 337.417,236.798 337.917,235.464 340.5,234.5C 339.975,233.808 339.308,233.308 338.5,233C 338.833,232.667 339.167,232.333 339.5,232C 335.132,227.662 332.632,222.828 332,217.5C 329.878,216.78 329.378,215.613 330.5,214C 329.019,213.02 327.685,211.853 326.5,210.5C 327.167,210.167 327.833,209.833 328.5,209.5C 327.975,208.808 327.308,208.308 326.5,208C 326.833,207.667 327.167,207.333 327.5,207C 325.775,206.135 324.108,205.469 322.5,205C 322.957,204.586 323.291,204.086 323.5,203.5C 321.152,200.95 320.486,198.116 321.5,195C 320.167,193.667 318.833,192.333 317.5,191C 318.167,190.667 318.833,190.333 319.5,190C 316.354,189.89 315.354,188.557 316.5,186C 315.426,185.261 314.759,184.261 314.5,183C 315.102,181.437 315.935,181.604 317,183.5C 317.667,181.833 317.667,180.167 317,178.5C 315.84,176.203 314.84,176.536 314,179.5C 313.626,178.584 313.126,177.75 312.5,177C 313.672,176.581 314.672,175.915 315.5,175C 314.551,174.383 313.718,174.549 313,175.5C 312.402,172.692 311.235,170.192 309.5,168C 310.252,167.329 310.586,166.496 310.5,165.5 Z"/></g>
<g><path style="opacity:1" fill="#ff2368" d="M 330.5,165.5 C 337.833,165.5 345.167,165.5 352.5,165.5C 352.36,167.124 353.027,168.29 354.5,169C 352.068,170.087 352.402,170.587 355.5,170.5C 358.037,178.771 362.537,186.438 369,193.5C 369.617,194.449 369.451,195.282 368.5,196C 373.562,200.274 378.062,205.107 382,210.5C 386.151,216.136 391.151,221.803 397,227.5C 397.47,228.577 397.303,229.577 396.5,230.5C 386.019,227.857 375.353,226.857 364.5,227.5C 357.598,226.281 354.598,222.281 355.5,215.5C 353.167,214.167 350.833,212.833 348.5,211.5C 347.55,208.122 346.55,204.622 345.5,201C 346.738,201.077 347.738,200.911 348.5,200.5C 347.624,199.749 346.624,199.249 345.5,199C 346.167,198.667 346.833,198.333 347.5,198C 344.712,197.274 343.212,195.44 343,192.5C 340.891,191.965 340.391,190.965 341.5,189.5C 339.171,188.229 338.005,186.229 338,183.5C 337.667,183.833 337.333,184.167 337,184.5C 336.626,183.584 336.126,182.75 335.5,182C 335.087,180.463 335.087,178.796 335.5,177C 334.41,174.94 332.743,173.607 330.5,173C 331.45,170.568 331.45,168.068 330.5,165.5 Z"/></g>
<g><path style="opacity:1" fill="#ff2b66" d="M 352.5,165.5 C 356.5,165.5 360.5,165.5 364.5,165.5C 367.01,170.519 369.51,175.519 372,180.5C 373.333,182.5 375,184.167 377,185.5C 377.483,186.448 377.649,187.448 377.5,188.5C 373.901,188.262 373.567,189.262 376.5,191.5C 376.489,190.559 376.989,189.892 378,189.5C 379.701,190.524 381.201,191.858 382.5,193.5C 381.624,194.251 380.624,194.751 379.5,195C 381.333,196.167 382.833,197.667 384,199.5C 386.428,197.026 386.928,197.526 385.5,201C 388.403,201.569 390.403,203.235 391.5,206C 389.099,206.805 389.266,207.638 392,208.5C 394.032,206.095 395.532,206.595 396.5,210C 395.044,210.423 394.544,211.256 395,212.5C 396.693,213.184 398.193,214.184 399.5,215.5C 400.904,214.001 401.57,214.334 401.5,216.5C 400.696,218.136 399.696,219.636 398.5,221C 400.017,222.779 400.851,222.279 401,219.5C 401.333,221.167 401.667,222.833 402,224.5C 402.333,224.167 402.667,223.833 403,223.5C 403.667,224.833 404.667,225.833 406,226.5C 406.333,228.833 406.667,231.167 407,233.5C 408.049,228.438 409.549,228.271 411.5,233C 414.742,233.283 415.076,234.117 412.5,235.5C 413.641,236.425 413.641,237.259 412.5,238C 413.543,239.976 414.877,240.476 416.5,239.5C 418.568,241.945 420.735,244.278 423,246.5C 423.667,245.167 424.333,245.167 425,246.5C 425.333,247.5 425.667,248.5 426,249.5C 426.333,249.167 426.667,248.833 427,248.5C 427.71,249.973 428.876,250.64 430.5,250.5C 430.646,254.203 432.48,256.87 436,258.5C 436.5,251.174 436.666,243.841 436.5,236.5C 436.5,228.833 436.5,221.167 436.5,213.5C 436.183,209.298 436.517,205.298 437.5,201.5C 437.5,228.5 437.5,255.5 437.5,282.5C 436.155,279.643 433.822,277.977 430.5,277.5C 429.828,278.949 429.161,280.282 428.5,281.5C 428.719,257.593 418.052,240.593 396.5,230.5C 397.303,229.577 397.47,228.577 397,227.5C 391.151,221.803 386.151,216.136 382,210.5C 378.062,205.107 373.562,200.274 368.5,196C 369.451,195.282 369.617,194.449 369,193.5C 362.537,186.438 358.037,178.771 355.5,170.5C 352.402,170.587 352.068,170.087 354.5,169C 353.027,168.29 352.36,167.124 352.5,165.5 Z"/></g>
<g><path style="opacity:1" fill="#ff2961" d="M 364.5,165.5 C 367.167,165.5 369.833,165.5 372.5,165.5C 382.963,184.069 396.296,200.902 412.5,216C 419.718,222.998 427.718,229.831 436.5,236.5C 436.666,243.841 436.5,251.174 436,258.5C 432.48,256.87 430.646,254.203 430.5,250.5C 428.876,250.64 427.71,249.973 427,248.5C 426.667,248.833 426.333,249.167 426,249.5C 425.667,248.5 425.333,247.5 425,246.5C 424.333,245.167 423.667,245.167 423,246.5C 420.735,244.278 418.568,241.945 416.5,239.5C 414.877,240.476 413.543,239.976 412.5,238C 413.641,237.259 413.641,236.425 412.5,235.5C 415.076,234.117 414.742,233.283 411.5,233C 409.549,228.271 408.049,228.438 407,233.5C 406.667,231.167 406.333,228.833 406,226.5C 404.667,225.833 403.667,224.833 403,223.5C 402.667,223.833 402.333,224.167 402,224.5C 401.667,222.833 401.333,221.167 401,219.5C 400.851,222.279 400.017,222.779 398.5,221C 399.696,219.636 400.696,218.136 401.5,216.5C 401.57,214.334 400.904,214.001 399.5,215.5C 398.193,214.184 396.693,213.184 395,212.5C 394.544,211.256 395.044,210.423 396.5,210C 395.532,206.595 394.032,206.095 392,208.5C 389.266,207.638 389.099,206.805 391.5,206C 390.403,203.235 388.403,201.569 385.5,201C 386.928,197.526 386.428,197.026 384,199.5C 382.833,197.667 381.333,196.167 379.5,195C 380.624,194.751 381.624,194.251 382.5,193.5C 381.201,191.858 379.701,190.524 378,189.5C 376.989,189.892 376.489,190.559 376.5,191.5C 373.567,189.262 373.901,188.262 377.5,188.5C 377.649,187.448 377.483,186.448 377,185.5C 375,184.167 373.333,182.5 372,180.5C 369.51,175.519 367.01,170.519 364.5,165.5 Z"/></g>
<g><path style="opacity:1" fill="#ff2f5e" d="M 372.5,165.5 C 380.833,165.5 389.167,165.5 397.5,165.5C 399.248,166.789 399.581,168.289 398.5,170C 399.448,170.483 400.448,170.649 401.5,170.5C 401.343,171.873 401.51,173.207 402,174.5C 404.475,176.638 406.975,178.804 409.5,181C 408.833,181.333 408.167,181.667 407.5,182C 409.525,183.194 409.859,184.694 408.5,186.5C 412.4,187.744 413.067,186.91 410.5,184C 411.449,183.383 412.282,183.549 413,184.5C 413.598,187.308 414.765,189.808 416.5,192C 415.428,193.284 414.095,193.617 412.5,193C 413.893,194.171 414.727,195.671 415,197.5C 419.453,201.715 424.12,206.049 429,210.5C 429.333,209.833 429.667,209.167 430,208.5C 431.753,210.758 433.919,212.425 436.5,213.5C 436.5,221.167 436.5,228.833 436.5,236.5C 427.718,229.831 419.718,222.998 412.5,216C 396.296,200.902 382.963,184.069 372.5,165.5 Z"/></g>
<g><path style="opacity:1" fill="#ff355b" d="M 397.5,165.5 C 402.5,165.5 407.5,165.5 412.5,165.5C 422.533,177.004 433.2,187.838 444.5,198C 442.618,198.198 440.952,198.698 439.5,199.5C 438.5,199.833 437.833,200.5 437.5,201.5C 436.517,205.298 436.183,209.298 436.5,213.5C 433.919,212.425 431.753,210.758 430,208.5C 429.667,209.167 429.333,209.833 429,210.5C 424.12,206.049 419.453,201.715 415,197.5C 414.727,195.671 413.893,194.171 412.5,193C 414.095,193.617 415.428,193.284 416.5,192C 414.765,189.808 413.598,187.308 413,184.5C 412.282,183.549 411.449,183.383 410.5,184C 413.067,186.91 412.4,187.744 408.5,186.5C 409.859,184.694 409.525,183.194 407.5,182C 408.167,181.667 408.833,181.333 409.5,181C 406.975,178.804 404.475,176.638 402,174.5C 401.51,173.207 401.343,171.873 401.5,170.5C 400.448,170.649 399.448,170.483 398.5,170C 399.581,168.289 399.248,166.789 397.5,165.5 Z"/></g>
<g><path style="opacity:1" fill="#ff3c56" d="M 412.5,165.5 C 418.833,165.5 425.167,165.5 431.5,165.5C 469.185,203.644 513.685,226.311 565,233.5C 567.515,232.326 570.015,232.659 572.5,234.5C 575.329,233.499 578.329,233.499 581.5,234.5C 581.5,243.167 581.5,251.833 581.5,260.5C 579.848,261.807 578.182,261.807 576.5,260.5C 575.353,260.818 574.519,261.484 574,262.5C 571.776,260.946 569.276,259.946 566.5,259.5C 565.5,260.167 564.5,260.833 563.5,261.5C 562.064,259.178 560.23,258.511 558,259.5C 554.917,258.048 551.917,257.048 549,256.5C 547.044,256.784 544.877,256.784 542.5,256.5C 542.849,253.01 541.349,250.677 538,249.5C 537,251.167 536,252.833 535,254.5C 534.119,252.726 532.953,252.06 531.5,252.5C 536,251.731 536.5,250.064 533,247.5C 532.667,247.833 532.333,248.167 532,248.5C 528.767,246.273 525.6,246.273 522.5,248.5C 521.702,248.043 521.369,247.376 521.5,246.5C 524.787,242.041 528.287,237.708 532,233.5C 532.483,232.552 532.649,231.552 532.5,230.5C 521.5,230.5 510.5,230.5 499.5,230.5C 488.368,226.121 477.701,220.788 467.5,214.5C 467.818,209.968 467.485,205.634 466.5,201.5C 466.389,200.883 466.056,200.383 465.5,200C 456.84,199.5 448.173,199.334 439.5,199.5C 440.952,198.698 442.618,198.198 444.5,198C 433.2,187.838 422.533,177.004 412.5,165.5 Z"/></g>
<g><path style="opacity:1" fill="#ff4154" d="M 431.5,165.5 C 439.167,165.5 446.833,165.5 454.5,165.5C 457.463,169.074 460.963,172.074 465,174.5C 473.344,180.84 482.511,187.006 492.5,193C 506.724,199.513 520.891,206.013 535,212.5C 538.254,212.342 541.421,212.342 544.5,212.5C 544.413,215.598 544.913,215.932 546,213.5C 546.667,216.167 547.333,216.167 548,213.5C 548.667,214.167 549.333,214.833 550,215.5C 551.908,214.921 553.575,214.921 555,215.5C 556.092,218.986 557.925,219.319 560.5,216.5C 565.48,217.514 569.98,219.514 574,222.5C 576.5,222.457 579,222.123 581.5,221.5C 581.5,225.833 581.5,230.167 581.5,234.5C 578.329,233.499 575.329,233.499 572.5,234.5C 570.015,232.659 567.515,232.326 565,233.5C 513.685,226.311 469.185,203.644 431.5,165.5 Z"/></g>
<g><path style="opacity:1" fill="#ff4650" d="M 454.5,165.5 C 462.833,165.5 471.167,165.5 479.5,165.5C 479.937,167.074 480.937,168.241 482.5,169C 505.388,183.342 530.221,193.509 557,199.5C 558.107,199.415 559.107,199.081 560,198.5C 562.094,200.3 564.594,201.3 567.5,201.5C 568.442,201.392 569.275,201.059 570,200.5C 573.62,202.183 577.454,202.85 581.5,202.5C 581.5,208.833 581.5,215.167 581.5,221.5C 579,222.123 576.5,222.457 574,222.5C 569.98,219.514 565.48,217.514 560.5,216.5C 557.925,219.319 556.092,218.986 555,215.5C 553.575,214.921 551.908,214.921 550,215.5C 549.333,214.833 548.667,214.167 548,213.5C 547.333,216.167 546.667,216.167 546,213.5C 544.913,215.932 544.413,215.598 544.5,212.5C 541.421,212.342 538.254,212.342 535,212.5C 520.891,206.013 506.724,199.513 492.5,193C 482.511,187.006 473.344,180.84 465,174.5C 460.963,172.074 457.463,169.074 454.5,165.5 Z"/></g>
<g><path style="opacity:1" fill="#ff4d4c" d="M 479.5,165.5 C 498.167,165.5 516.833,165.5 535.5,165.5C 538.228,167.069 540.062,169.402 541,172.5C 541.333,172.167 541.667,171.833 542,171.5C 547.287,173.322 552.62,174.988 558,176.5C 558.333,176.167 558.667,175.833 559,175.5C 562.322,176.78 565.822,178.446 569.5,180.5C 571.121,179.295 572.454,179.461 573.5,181C 577.019,181.377 580.519,181.877 584,182.5C 586.093,181.027 587.759,181.36 589,183.5C 591.791,181.711 594.791,180.378 598,179.5C 600.728,179.014 603.395,179.68 606,181.5C 606.5,181 607,180.5 607.5,180C 611.421,179.797 615.255,179.297 619,178.5C 619.667,183.833 620.333,183.833 621,178.5C 622.628,179.097 624.295,178.763 626,177.5C 628.328,179.438 630.661,179.105 633,176.5C 634.889,177.089 636.889,177.423 639,177.5C 644.029,174.508 649.196,172.508 654.5,171.5C 655.478,171.977 656.311,172.643 657,173.5C 657.617,172.551 657.451,171.718 656.5,171C 659.949,170.138 663.283,168.972 666.5,167.5C 667.439,169.053 668.606,170.387 670,171.5C 674.563,170.134 678.729,168.134 682.5,165.5C 692.5,165.5 702.5,165.5 712.5,165.5C 710.712,168.117 708.378,170.284 705.5,172C 698.789,176.356 691.789,180.189 684.5,183.5C 683.833,183.167 683.167,182.833 682.5,182.5C 682.891,183.891 682.058,184.891 680,185.5C 679.667,184.5 679.333,183.5 679,182.5C 677.731,185.913 675.231,188.079 671.5,189C 665.137,191.566 658.637,193.732 652,195.5C 650.108,192.61 649.275,192.944 649.5,196.5C 646.624,196.927 643.791,197.594 641,198.5C 639.354,196.859 638.354,197.193 638,199.5C 637.667,198.833 637.333,198.167 637,197.5C 634.208,199.407 631.042,200.573 627.5,201C 622.519,201.748 617.519,202.248 612.5,202.5C 612.5,201.833 612.167,201.5 611.5,201.5C 611.389,200.883 611.056,200.383 610.5,200C 601.5,199.333 592.5,199.333 583.5,200C 582.944,200.383 582.611,200.883 582.5,201.5C 581.833,201.5 581.5,201.833 581.5,202.5C 577.454,202.85 573.62,202.183 570,200.5C 569.275,201.059 568.442,201.392 567.5,201.5C 564.594,201.3 562.094,200.3 560,198.5C 559.107,199.081 558.107,199.415 557,199.5C 530.221,193.509 505.388,183.342 482.5,169C 480.937,168.241 479.937,167.074 479.5,165.5 Z"/></g>
<g><path style="opacity:1" fill="#ff5249" d="M 535.5,165.5 C 584.5,165.5 633.5,165.5 682.5,165.5C 678.729,168.134 674.563,170.134 670,171.5C 668.606,170.387 667.439,169.053 666.5,167.5C 663.283,168.972 659.949,170.138 656.5,171C 657.451,171.718 657.617,172.551 657,173.5C 656.311,172.643 655.478,171.977 654.5,171.5C 649.196,172.508 644.029,174.508 639,177.5C 636.889,177.423 634.889,177.089 633,176.5C 630.661,179.105 628.328,179.438 626,177.5C 624.295,178.763 622.628,179.097 621,178.5C 620.333,183.833 619.667,183.833 619,178.5C 615.255,179.297 611.421,179.797 607.5,180C 607,180.5 606.5,181 606,181.5C 603.395,179.68 600.728,179.014 598,179.5C 594.791,180.378 591.791,181.711 589,183.5C 587.759,181.36 586.093,181.027 584,182.5C 580.519,181.877 577.019,181.377 573.5,181C 572.454,179.461 571.121,179.295 569.5,180.5C 565.822,178.446 562.322,176.78 559,175.5C 558.667,175.833 558.333,176.167 558,176.5C 552.62,174.988 547.287,173.322 542,171.5C 541.667,171.833 541.333,172.167 541,172.5C 540.062,169.402 538.228,167.069 535.5,165.5 Z"/></g>
<g><path style="opacity:1" fill="#ff464e" d="M 712.5,165.5 C 720.167,165.5 727.833,165.5 735.5,165.5C 718.214,181.492 698.547,193.992 676.5,203C 668.051,206.145 659.884,208.978 652,211.5C 639.046,214.426 625.879,216.759 612.5,218.5C 612.5,213.167 612.5,207.833 612.5,202.5C 617.519,202.248 622.519,201.748 627.5,201C 631.042,200.573 634.208,199.407 637,197.5C 637.333,198.167 637.667,198.833 638,199.5C 638.354,197.193 639.354,196.859 641,198.5C 643.791,197.594 646.624,196.927 649.5,196.5C 649.275,192.944 650.108,192.61 652,195.5C 658.637,193.732 665.137,191.566 671.5,189C 675.231,188.079 677.731,185.913 679,182.5C 679.333,183.5 679.667,184.5 680,185.5C 682.058,184.891 682.891,183.891 682.5,182.5C 683.167,182.833 683.833,183.167 684.5,183.5C 691.789,180.189 698.789,176.356 705.5,172C 708.378,170.284 710.712,168.117 712.5,165.5 Z"/></g>
<g><path style="opacity:1" fill="#ff4251" d="M 735.5,165.5 C 741.5,165.5 747.5,165.5 753.5,165.5C 752.167,166.933 750.667,168.267 749,169.5C 748.383,170.449 748.549,171.282 749.5,172C 747.321,172.442 746.655,173.442 747.5,175C 745.741,176.008 744.574,177.508 744,179.5C 743.667,179.167 743.333,178.833 743,178.5C 741.203,179.999 739.369,181.499 737.5,183C 737.833,183.333 738.167,183.667 738.5,184C 737.261,188.665 736.428,188.498 736,183.5C 733.369,185.365 731.869,187.532 731.5,190C 727.309,190.411 723.642,192.411 720.5,196C 711.431,201.329 702.597,206.829 694,212.5C 693.395,210.519 692.395,210.185 691,211.5C 690.751,210.376 690.251,209.376 689.5,208.5C 688.094,209.427 686.594,210.427 685,211.5C 684.508,212.549 684.674,213.549 685.5,214.5C 683.291,215.063 681.791,216.396 681,218.5C 680.667,218.167 680.333,217.833 680,217.5C 672.108,221.187 663.941,224.187 655.5,226.5C 657.184,227.15 658.517,228.15 659.5,229.5C 642.1,223.346 626.267,226.013 612,237.5C 611.5,225.505 611.333,213.505 611.5,201.5C 612.167,201.5 612.5,201.833 612.5,202.5C 612.5,207.833 612.5,213.167 612.5,218.5C 625.879,216.759 639.046,214.426 652,211.5C 659.884,208.978 668.051,206.145 676.5,203C 698.547,193.992 718.214,181.492 735.5,165.5 Z"/></g>
<g><path style="opacity:1" fill="#ff3d54" d="M 753.5,165.5 C 759.833,165.5 766.167,165.5 772.5,165.5C 762.717,177.057 752.051,187.723 740.5,197.5C 739.614,198.325 739.281,199.325 739.5,200.5C 737.692,200.491 736.025,200.991 734.5,202C 721.28,212.776 706.947,221.776 691.5,229C 697.681,229.172 703.681,229.672 709.5,230.5C 702.159,230.334 694.826,230.5 687.5,231C 686.978,231.561 686.645,232.228 686.5,233C 687.987,235.291 688.987,237.791 689.5,240.5C 689.286,242.144 689.62,243.644 690.5,245C 687.852,247.05 684.852,248.216 681.5,248.5C 676.013,240.012 668.679,233.678 659.5,229.5C 658.517,228.15 657.184,227.15 655.5,226.5C 663.941,224.187 672.108,221.187 680,217.5C 680.333,217.833 680.667,218.167 681,218.5C 681.791,216.396 683.291,215.063 685.5,214.5C 684.674,213.549 684.508,212.549 685,211.5C 686.594,210.427 688.094,209.427 689.5,208.5C 690.251,209.376 690.751,210.376 691,211.5C 692.395,210.185 693.395,210.519 694,212.5C 702.597,206.829 711.431,201.329 720.5,196C 723.642,192.411 727.309,190.411 731.5,190C 731.869,187.532 733.369,185.365 736,183.5C 736.428,188.498 737.261,188.665 738.5,184C 738.167,183.667 737.833,183.333 737.5,183C 739.369,181.499 741.203,179.999 743,178.5C 743.333,178.833 743.667,179.167 744,179.5C 744.574,177.508 745.741,176.008 747.5,175C 746.655,173.442 747.321,172.442 749.5,172C 748.549,171.282 748.383,170.449 749,169.5C 750.667,168.267 752.167,166.933 753.5,165.5 Z"/></g>
<g><path style="opacity:1" fill="#ff3554" d="M 772.5,165.5 C 779.167,165.5 785.833,165.5 792.5,165.5C 779.175,185.82 762.842,203.154 743.5,217.5C 742.914,217.291 742.414,216.957 742,216.5C 738.328,219.342 734.828,222.342 731.5,225.5C 731.709,226.086 732.043,226.586 732.5,227C 731.101,227.595 729.768,227.428 728.5,226.5C 724.826,229.643 721.16,231.976 717.5,233.5C 715.202,231.539 712.535,230.539 709.5,230.5C 703.681,229.672 697.681,229.172 691.5,229C 706.947,221.776 721.28,212.776 734.5,202C 736.025,200.991 737.692,200.491 739.5,200.5C 739.281,199.325 739.614,198.325 740.5,197.5C 752.051,187.723 762.717,177.057 772.5,165.5 Z"/></g>
<g><path style="opacity:1" fill="#ff2f57" d="M 792.5,165.5 C 797.167,165.5 801.833,165.5 806.5,165.5C 806.16,167.679 805.16,169.512 803.5,171C 784.559,200.947 759.892,225.947 729.5,246C 727.975,247.009 726.308,247.509 724.5,247.5C 722.558,242.697 720.224,238.03 717.5,233.5C 721.16,231.976 724.826,229.643 728.5,226.5C 729.768,227.428 731.101,227.595 732.5,227C 732.043,226.586 731.709,226.086 731.5,225.5C 734.828,222.342 738.328,219.342 742,216.5C 742.414,216.957 742.914,217.291 743.5,217.5C 762.842,203.154 779.175,185.82 792.5,165.5 Z"/></g>
<g><path style="opacity:1" fill="#ff285b" d="M 806.5,165.5 C 816.5,165.5 826.5,165.5 836.5,165.5C 835.209,166.473 835.209,167.473 836.5,168.5C 833.297,171.887 831.131,175.887 830,180.5C 825.85,185.202 822.85,190.202 821,195.5C 817.667,198.825 815.167,202.658 813.5,207C 806.968,215.64 800.301,223.473 793.5,230.5C 785.16,230.334 776.827,230.5 768.5,231C 767.315,232.353 765.981,233.52 764.5,234.5C 756.519,253.268 749.019,272.268 742,291.5C 735.872,276.951 730.039,262.284 724.5,247.5C 726.308,247.509 727.975,247.009 729.5,246C 759.892,225.947 784.559,200.947 803.5,171C 805.16,169.512 806.16,167.679 806.5,165.5 Z"/></g>
<g><path style="opacity:1" fill="#ff1d5d" d="M 836.5,165.5 C 841.167,165.5 845.833,165.5 850.5,165.5C 848.94,167.129 849.273,168.296 851.5,169C 850.747,170.487 849.914,170.654 849,169.5C 847.925,173.695 846.092,177.529 843.5,181C 845.797,182.16 845.464,183.16 842.5,184C 843.517,185.049 843.684,186.216 843,187.5C 842.667,186.833 842.333,186.167 842,185.5C 839.795,187.727 839.628,189.727 841.5,191.5C 839.41,193.277 837.41,195.11 835.5,197C 837.421,198.031 837.421,199.531 835.5,201.5C 833.998,202.083 832.665,202.916 831.5,204C 832.634,205.016 832.301,205.683 830.5,206C 832.902,207.471 832.736,208.971 830,210.5C 829.586,210.043 829.086,209.709 828.5,209.5C 825.705,211.515 825.039,214.015 826.5,217C 825.318,219.261 823.651,221.095 821.5,222.5C 820.808,221.975 820.308,221.308 820,220.5C 818.748,223.014 818.248,225.68 818.5,228.5C 815.955,228.151 813.955,228.984 812.5,231C 813.167,231.333 813.833,231.667 814.5,232C 811.528,233.759 808.861,235.926 806.5,238.5C 810.617,239.078 810.283,240.245 805.5,242C 806.28,243.073 806.113,244.24 805,245.5C 804.683,243.699 804.016,243.366 803,244.5C 800.74,243.327 798.574,241.994 796.5,240.5C 795.304,240.846 795.304,241.346 796.5,242C 795.234,242.309 794.067,242.809 793,243.5C 792.536,242.906 792.369,242.239 792.5,241.5C 793.061,238.538 794.061,235.705 795.5,233C 795.361,231.699 794.695,230.866 793.5,230.5C 800.301,223.473 806.968,215.64 813.5,207C 815.167,202.658 817.667,198.825 821,195.5C 822.85,190.202 825.85,185.202 830,180.5C 831.131,175.887 833.297,171.887 836.5,168.5C 835.209,167.473 835.209,166.473 836.5,165.5 Z"/></g>
<g><path style="opacity:1" fill="#ff1362" d="M 850.5,165.5 C 860.167,165.5 869.833,165.5 879.5,165.5C 877.788,168.26 877.122,171.093 877.5,174C 877.833,174.5 878.167,175 878.5,175.5C 881.529,170.2 882.029,170.534 880,176.5C 878.391,177.147 876.891,177.98 875.5,179C 875.815,181.098 875.815,183.098 875.5,185C 874.551,185.617 873.718,185.451 873,184.5C 872.833,185 872.667,185.5 872.5,186C 873.509,187.168 874.509,188.335 875.5,189.5C 872.778,196.096 871.945,195.762 873,188.5C 869.651,189.741 868.818,191.908 870.5,195C 867.695,197.599 865.361,200.599 863.5,204C 868.187,206.066 868.687,208.899 865,212.5C 864,211.5 863,210.5 862,209.5C 861.385,211.116 860.385,212.449 859,213.5C 858.333,214.167 858.333,214.833 859,215.5C 859.654,214.304 860.154,214.304 860.5,215.5C 858.009,216.541 858.009,217.374 860.5,218C 858.009,218.626 858.009,219.459 860.5,220.5C 857.233,220.338 854.899,222.005 853.5,225.5C 854.262,225.911 855.262,226.077 856.5,226C 855.531,227.758 854.364,228.258 853,227.5C 850.741,230.625 849.741,233.958 850,237.5C 849.667,237.833 849.333,238.167 849,238.5C 847.684,237.026 846.684,235.359 846,233.5C 844.543,235.658 842.71,237.491 840.5,239C 840.833,239.333 841.167,239.667 841.5,240C 839.115,242.793 837.281,245.959 836,249.5C 835.667,249.167 835.333,248.833 835,248.5C 834.167,250 833,251.167 831.5,252C 831.833,252.333 832.167,252.667 832.5,253C 830.321,253.442 829.655,254.442 830.5,256C 829.874,256.75 829.374,257.584 829,258.5C 828.667,258.167 828.333,257.833 828,257.5C 824.595,260.784 821.095,263.95 817.5,267C 820.167,267.667 820.167,268.333 817.5,269C 821.449,269.807 821.449,270.307 817.5,270.5C 817.649,271.552 817.483,272.552 817,273.5C 816,272.5 815,271.5 814,270.5C 811.515,273.007 812.015,274.507 815.5,275C 813.807,277.952 811.974,278.118 810,275.5C 808.833,276.667 807.667,277.833 806.5,279C 807.956,279.423 808.456,280.256 808,281.5C 806.927,280.72 805.76,280.887 804.5,282C 808.927,282 809.427,283.167 806,285.5C 805.667,284.833 805.333,284.167 805,283.5C 804.333,284.833 803.667,286.167 803,287.5C 801.333,287.167 799.667,286.833 798,286.5C 797.493,287.996 797.993,289.163 799.5,290C 797.541,292.963 795.041,294.129 792,293.5C 788.642,295.884 788.809,297.051 792.5,297C 792.167,296.667 791.833,296.333 791.5,296C 792.833,295.333 794.167,295.333 795.5,296C 793.487,299.069 790.82,300.735 787.5,301C 788.167,300.333 788.833,299.667 789.5,299C 787.308,297.641 785.641,295.808 784.5,293.5C 784.167,294.833 783.833,296.167 783.5,297.5C 781.694,298.859 780.194,298.525 779,296.5C 778.5,297.667 777.667,298.5 776.5,299C 777.458,300.147 777.125,301.147 775.5,302C 777.126,301.805 778.793,301.805 780.5,302C 778.776,302.448 778.109,303.282 778.5,304.5C 776.064,303.109 775.398,303.609 776.5,306C 774.635,308.365 772.968,308.532 771.5,306.5C 775.358,302.138 774.525,301.471 769,304.5C 769.135,302.575 769.302,300.575 769.5,298.5C 776.371,279.104 784.038,260.104 792.5,241.5C 792.369,242.239 792.536,242.906 793,243.5C 794.067,242.809 795.234,242.309 796.5,242C 795.304,241.346 795.304,240.846 796.5,240.5C 798.574,241.994 800.74,243.327 803,244.5C 804.016,243.366 804.683,243.699 805,245.5C 806.113,244.24 806.28,243.073 805.5,242C 810.283,240.245 810.617,239.078 806.5,238.5C 808.861,235.926 811.528,233.759 814.5,232C 813.833,231.667 813.167,231.333 812.5,231C 813.955,228.984 815.955,228.151 818.5,228.5C 818.248,225.68 818.748,223.014 820,220.5C 820.308,221.308 820.808,221.975 821.5,222.5C 823.651,221.095 825.318,219.261 826.5,217C 825.039,214.015 825.705,211.515 828.5,209.5C 829.086,209.709 829.586,210.043 830,210.5C 832.736,208.971 832.902,207.471 830.5,206C 832.301,205.683 832.634,205.016 831.5,204C 832.665,202.916 833.998,202.083 835.5,201.5C 837.421,199.531 837.421,198.031 835.5,197C 837.41,195.11 839.41,193.277 841.5,191.5C 839.628,189.727 839.795,187.727 842,185.5C 842.333,186.167 842.667,186.833 843,187.5C 843.684,186.216 843.517,185.049 842.5,184C 845.464,183.16 845.797,182.16 843.5,181C 846.092,177.529 847.925,173.695 849,169.5C 849.914,170.654 850.747,170.487 851.5,169C 849.273,168.296 848.94,167.129 850.5,165.5 Z"/></g>
<g><path style="opacity:0.946" fill="#ff0167" d="M 890.5,165.5 C 905.837,165.333 921.17,165.5 936.5,166C 943.614,168.882 946.947,174.215 946.5,182C 946.463,189.41 943.13,194.743 936.5,198C 923.167,198.333 909.833,198.667 896.5,199C 884.085,203.33 880.585,211.497 886,223.5C 887.873,225.709 890.04,227.542 892.5,229C 937.833,229.333 983.167,229.667 1028.5,230C 1034.28,231.13 1038.45,234.297 1041,239.5C 1041.86,245.585 1041.53,251.585 1040,257.5C 1037.18,260.825 1033.68,262.992 1029.5,264C 967.834,264.5 906.168,264.667 844.5,264.5C 865.216,234.029 880.549,201.029 890.5,165.5 Z"/></g>
<g><path style="opacity:0.985" fill="#b80097" d="M 41.5,167.5 C 42.8221,167.33 43.9887,167.663 45,168.5C 45.413,171.232 46.0797,173.899 47,176.5C 47.414,176.043 47.914,175.709 48.5,175.5C 51.1991,177.322 51.0325,178.655 48,179.5C 46.3335,178.66 46.1669,179.16 47.5,181C 46.8333,181.333 46.1667,181.667 45.5,182C 46.8333,183 48.1667,184 49.5,185C 47.6992,185.317 47.3659,185.984 48.5,187C 46.9903,188.351 45.9903,190.018 45.5,192C 46.2503,194.043 47.2503,196.21 48.5,198.5C 49.324,196.252 50.324,196.086 51.5,198C 50.1667,199.333 48.8333,200.667 47.5,202C 47.8333,202.333 48.1667,202.667 48.5,203C 45.4557,203.359 45.1224,204.026 47.5,205C 46.0723,208.474 46.5723,208.974 49,206.5C 48.9211,208.846 48.0877,211.013 46.5,213C 47.7433,214.154 48.7433,215.488 49.5,217C 48.8333,217.333 48.1667,217.667 47.5,218C 49.4386,218.908 50.4386,220.408 50.5,222.5C 49.5,222.5 48.5,222.5 47.5,222.5C 47.9737,225.921 47.9737,229.255 47.5,232.5C 48.1279,234.258 49.1279,235.758 50.5,237C 49.642,240.068 48.9753,243.235 48.5,246.5C 49,247.5 49.5,248.5 50,249.5C 51.1313,248.396 51.9646,248.729 52.5,250.5C 51.4425,250.906 50.1092,250.906 48.5,250.5C 48.3433,251.873 48.51,253.207 49,254.5C 50.2812,254.381 51.4479,254.881 52.5,256C 50.9984,256.583 49.6651,257.416 48.5,258.5C 49.7468,260.042 49.7468,261.542 48.5,263C 49.5,263.333 50.5,263.667 51.5,264C 50.4477,265.716 51.1144,266.716 53.5,267C 50.8012,268.754 49.4678,270.921 49.5,273.5C 50.6651,274.584 51.9984,275.417 53.5,276C 52.2161,276.684 51.0495,276.517 50,275.5C 49.8333,276 49.6667,276.5 49.5,277C 51.984,278.606 51.984,280.106 49.5,281.5C 50.8333,283.167 50.8333,284.833 49.5,286.5C 50.5,287.333 51.5,288.167 52.5,289C 51.3279,289.419 50.3279,290.085 49.5,291C 50.9506,290.737 52.2839,290.904 53.5,291.5C 52.675,292.386 51.675,292.719 50.5,292.5C 51.1269,298.32 51.1269,303.82 50.5,309C 51.2638,311.069 51.7638,313.236 52,315.5C 53.586,314.624 55.086,313.624 56.5,312.5C 57.2868,313.242 57.9535,314.075 58.5,315C 56.444,315.311 54.444,315.811 52.5,316.5C 51.1696,318.347 51.503,319.847 53.5,321C 52.6919,321.308 52.0253,321.808 51.5,322.5C 51.7777,325.067 51.9444,327.733 52,330.5C 53.5069,329.465 55.0069,329.632 56.5,331C 55.1667,332 53.8333,333 52.5,334C 52.8333,335 53.1667,336 53.5,337C 51.4873,337.875 51.4873,339.209 53.5,341C 52.8425,344.146 52.5092,347.312 52.5,350.5C 52.6858,352.58 53.6858,354.08 55.5,355C 54.8333,355.333 54.1667,355.667 53.5,356C 55.7695,356.758 57.9361,356.591 60,355.5C 60.5046,357.518 61.0046,359.518 61.5,361.5C 39.7568,363.234 25.2568,353.9 18,333.5C 17.3333,286.5 17.3333,239.5 18,192.5C 21.9205,180.415 29.7539,172.082 41.5,167.5 Z"/></g>
<g><path style="opacity:1" fill="#fefdfe" d="M 99.5,196.5 C 108.884,196.184 118.218,196.684 127.5,198C 135.205,199.684 141.872,203.184 147.5,208.5C 149.5,210.671 151.334,213.004 153,215.5C 161.056,234.479 158.39,251.812 145,267.5C 134.892,278.448 124.058,288.448 112.5,297.5C 127.485,298.499 142.485,298.833 157.5,298.5C 157.666,305.508 157.5,312.508 157,319.5C 155.668,321.66 154.168,323.66 152.5,325.5C 124.211,326.483 95.8775,326.817 67.5,326.5C 64.4223,314.707 66.7556,304.04 74.5,294.5C 89.4626,281.374 104.296,268.041 119,254.5C 121.723,251.443 124.056,248.11 126,244.5C 129.595,229.089 123.429,221.922 107.5,223C 100.351,226.83 96.3515,232.83 95.5,241C 86.1726,241.5 76.8393,241.666 67.5,241.5C 66.0574,218.095 76.7241,203.095 99.5,196.5 Z"/></g>
<g><path style="opacity:1" fill="#fefbfd" d="M 166.5,200.5 C 179.167,200.5 191.833,200.5 204.5,200.5C 208.269,202.937 210.936,206.271 212.5,210.5C 212.667,248.835 212.5,287.168 212,325.5C 211.5,326 211,326.5 210.5,327C 201.5,327.667 192.5,327.667 183.5,327C 182.67,293.905 182.17,260.738 182,227.5C 176.333,226.833 170.667,226.167 165,225.5C 164.333,217.5 164.333,209.5 165,201.5C 165.383,200.944 165.883,200.611 166.5,200.5 Z"/></g>
<g><path style="opacity:1" fill="#fffbfc" d="M 439.5,199.5 C 448.173,199.334 456.84,199.5 465.5,200C 466.056,200.383 466.389,200.883 466.5,201.5C 466.333,224.169 466.5,246.836 467,269.5C 467.717,268.956 468.217,268.289 468.5,267.5C 478.487,254.849 488.82,242.516 499.5,230.5C 510.5,230.5 521.5,230.5 532.5,230.5C 532.649,231.552 532.483,232.552 532,233.5C 528.287,237.708 524.787,242.041 521.5,246.5C 515.461,253.205 509.794,260.205 504.5,267.5C 501.49,270.336 498.824,273.502 496.5,277C 502.016,284.673 507.683,292.173 513.5,299.5C 519.142,307.482 524.808,315.482 530.5,323.5C 531.684,324.688 531.684,325.855 530.5,327C 519.735,327.952 509.068,327.619 498.5,326C 487.9,313.241 477.9,300.074 468.5,286.5C 468.44,285.957 468.107,285.624 467.5,285.5C 466.817,299.563 466.15,313.563 465.5,327.5C 463.167,327.5 460.833,327.5 458.5,327.5C 451.578,327.812 444.744,327.479 438,326.5C 437.5,311.837 437.333,297.17 437.5,282.5C 437.5,255.5 437.5,228.5 437.5,201.5C 437.833,200.5 438.5,199.833 439.5,199.5 Z"/></g>
<g><path style="opacity:1" fill="#fffcfc" d="M 611.5,201.5 C 611.333,213.505 611.5,225.505 612,237.5C 626.267,226.013 642.1,223.346 659.5,229.5C 668.679,233.678 676.013,240.012 681.5,248.5C 691.768,267.609 692.101,286.942 682.5,306.5C 668.713,326.936 649.713,334.102 625.5,328C 620.812,325.993 616.479,323.493 612.5,320.5C 612.44,319.957 612.107,319.624 611.5,319.5C 610.534,321.396 610.201,323.396 610.5,325.5C 610.389,326.117 610.056,326.617 609.5,327C 600.833,327.667 592.167,327.667 583.5,327C 582.944,326.617 582.611,326.117 582.5,325.5C 582.5,284.167 582.5,242.833 582.5,201.5C 582.611,200.883 582.944,200.383 583.5,200C 592.5,199.333 601.5,199.333 610.5,200C 611.056,200.383 611.389,200.883 611.5,201.5 Z"/></g>
<g><path style="opacity:0.997" fill="#d80a8b" d="M 203.5,165.5 C 207.5,165.5 211.5,165.5 215.5,165.5C 215.84,167.679 216.84,169.512 218.5,171C 213.969,173.579 213.469,176.746 217,180.5C 218.297,179.216 219.464,179.383 220.5,181C 219.284,182.594 217.951,184.094 216.5,185.5C 217.529,185.296 218.529,185.796 219.5,187C 219.043,187.414 218.709,187.914 218.5,188.5C 219.816,189.807 220.816,191.307 221.5,193C 221.5,194.667 221.5,196.333 221.5,198C 218.79,200.351 219.123,202.351 222.5,204C 222.5,207.667 222.5,211.333 222.5,215C 224.891,216.309 224.891,217.309 222.5,218C 223.833,218.667 223.833,219.333 222.5,220C 223.72,222.359 225.053,223.859 226.5,224.5C 226.333,225.167 226.167,225.833 226,226.5C 225.257,224.355 224.424,224.189 223.5,226C 224.444,227.477 225.777,228.477 227.5,229C 233.016,229.173 238.349,229.673 243.5,230.5C 236.159,230.334 228.826,230.5 221.5,231C 220.978,231.561 220.645,232.228 220.5,233C 232.667,264.167 244.833,295.333 257,326.5C 259.381,327.435 261.881,327.768 264.5,327.5C 264.586,328.496 264.252,329.329 263.5,330C 265.904,330.508 266.571,331.675 265.5,333.5C 266.817,336.983 269.151,339.483 272.5,341C 271.465,342.507 271.632,344.007 273,345.5C 273.654,344.304 274.154,344.304 274.5,345.5C 273.975,346.192 273.308,346.692 272.5,347C 273.308,347.308 273.975,347.808 274.5,348.5C 274.64,349.903 274.64,351.403 274.5,353C 276.675,355.546 278.342,358.379 279.5,361.5C 271.833,361.5 264.167,361.5 256.5,361.5C 256.369,360.761 256.536,360.094 257,359.5C 257.718,360.451 258.551,360.617 259.5,360C 257.854,358.445 257.521,356.779 258.5,355C 257.283,353.352 256.45,351.519 256,349.5C 254.16,350.833 253.66,350.666 254.5,349C 251.833,348 251.833,347 254.5,346C 252.5,345.667 250.5,345.333 248.5,345C 249.978,343.807 251.312,343.307 252.5,343.5C 251.372,342.738 250.205,342.071 249,341.5C 248.544,340.256 249.044,339.423 250.5,339C 248.083,335.471 245.75,331.971 243.5,328.5C 244.326,327.549 244.492,326.549 244,325.5C 239.554,323.084 239.72,322.084 244.5,322.5C 243.286,320.579 241.786,318.912 240,317.5C 239.667,317.833 239.333,318.167 239,318.5C 238.293,316.919 237.46,315.419 236.5,314C 236.466,308.864 236.466,303.697 236.5,298.5C 234.657,298.245 232.657,298.078 230.5,298C 231.167,297.667 231.833,297.333 232.5,297C 231.5,296 230.5,295 229.5,294C 230.5,293.167 231.5,292.333 232.5,291.5C 232.291,290.914 231.957,290.414 231.5,290C 232.744,289.544 233.577,290.044 234,291.5C 235.728,289.806 235.228,288.639 232.5,288C 233.654,287.086 233.487,286.253 232,285.5C 231.717,288.742 230.883,289.076 229.5,286.5C 228.201,287.09 227.368,288.09 227,289.5C 226.833,289 226.667,288.5 226.5,288C 227.424,286.85 227.424,285.85 226.5,285C 227.549,284.508 228.549,284.674 229.5,285.5C 230.696,285.154 230.696,284.654 229.5,284C 230.5,283.667 231.5,283.333 232.5,283C 231.167,281.667 229.833,280.333 228.5,279C 228.833,278.667 229.167,278.333 229.5,278C 228.049,278.263 226.716,278.096 225.5,277.5C 226.025,276.808 226.692,276.308 227.5,276C 226.624,274.414 225.624,272.914 224.5,271.5C 225.167,270.833 225.833,270.167 226.5,269.5C 226.154,268.304 225.654,268.304 225,269.5C 223.5,266.867 223.333,264.2 224.5,261.5C 222.729,260.012 221.396,258.179 220.5,256C 221.167,255.667 221.833,255.333 222.5,255C 221.272,252.86 219.605,251.193 217.5,250C 218.167,249.333 218.833,248.667 219.5,248C 215.873,245.888 215.873,244.221 219.5,243C 217.695,242.028 216.028,240.861 214.5,239.5C 214.709,238.914 215.043,238.414 215.5,238C 214.877,235.393 214.21,232.893 213.5,230.5C 213.824,223.646 213.491,216.979 212.5,210.5C 210.936,206.271 208.269,202.937 204.5,200.5C 204.5,198.5 204.5,196.5 204.5,194.5C 205.873,194.657 207.207,194.49 208.5,194C 207.137,192.055 206.303,189.888 206,187.5C 204.984,186.366 204.317,186.699 204,188.5C 203.506,186.866 203.34,185.199 203.5,183.5C 204.552,183.649 205.552,183.483 206.5,183C 204.099,180.506 204.099,178.173 206.5,176C 205.376,175.751 204.376,175.251 203.5,174.5C 203.872,171.617 203.872,168.617 203.5,165.5 Z"/></g>
<g><path style="opacity:1" fill="#ff365c" d="M 467.5,214.5 C 477.701,220.788 488.368,226.121 499.5,230.5C 488.82,242.516 478.487,254.849 468.5,267.5C 467.503,250.008 467.17,232.341 467.5,214.5 Z"/></g>
<g><path style="opacity:1" fill="#fffcfd" d="M 364.5,227.5 C 375.353,226.857 386.019,227.857 396.5,230.5C 418.052,240.593 428.719,257.593 428.5,281.5C 428.256,284.263 426.923,286.429 424.5,288C 400.836,288.5 377.169,288.667 353.5,288.5C 355.576,296.41 360.576,301.577 368.5,304C 377.922,306.081 386.255,304.081 393.5,298C 403.494,297.5 413.494,297.334 423.5,297.5C 423.66,299.199 423.494,300.866 423,302.5C 418.726,309.938 413.226,316.272 406.5,321.5C 400.233,325.145 393.567,327.812 386.5,329.5C 373.145,331.762 360.479,329.762 348.5,323.5C 330.565,310.959 322.232,293.626 323.5,271.5C 326.075,257.672 332.742,246.339 343.5,237.5C 349.907,232.795 356.907,229.462 364.5,227.5 Z"/></g>
<g><path style="opacity:1" fill="#ff6181" d="M 466.5,201.5 C 467.485,205.634 467.818,209.968 467.5,214.5C 467.17,232.341 467.503,250.008 468.5,267.5C 468.217,268.289 467.717,268.956 467,269.5C 466.5,246.836 466.333,224.169 466.5,201.5 Z"/></g>
<g><path style="opacity:0.998" fill="#d1008c" d="M 213.5,230.5 C 214.21,232.893 214.877,235.393 215.5,238C 215.043,238.414 214.709,238.914 214.5,239.5C 216.028,240.861 217.695,242.028 219.5,243C 215.873,244.221 215.873,245.888 219.5,248C 218.833,248.667 218.167,249.333 217.5,250C 219.605,251.193 221.272,252.86 222.5,255C 221.833,255.333 221.167,255.667 220.5,256C 221.396,258.179 222.729,260.012 224.5,261.5C 223.333,264.2 223.5,266.867 225,269.5C 225.654,268.304 226.154,268.304 226.5,269.5C 225.833,270.167 225.167,270.833 224.5,271.5C 225.624,272.914 226.624,274.414 227.5,276C 226.692,276.308 226.025,276.808 225.5,277.5C 226.716,278.096 228.049,278.263 229.5,278C 229.167,278.333 228.833,278.667 228.5,279C 229.833,280.333 231.167,281.667 232.5,283C 231.5,283.333 230.5,283.667 229.5,284C 230.696,284.654 230.696,285.154 229.5,285.5C 228.549,284.674 227.549,284.508 226.5,285C 227.424,285.85 227.424,286.85 226.5,288C 226.667,288.5 226.833,289 227,289.5C 227.368,288.09 228.201,287.09 229.5,286.5C 230.883,289.076 231.717,288.742 232,285.5C 233.487,286.253 233.654,287.086 232.5,288C 235.228,288.639 235.728,289.806 234,291.5C 233.577,290.044 232.744,289.544 231.5,290C 231.957,290.414 232.291,290.914 232.5,291.5C 231.5,292.333 230.5,293.167 229.5,294C 230.5,295 231.5,296 232.5,297C 231.833,297.333 231.167,297.667 230.5,298C 232.657,298.078 234.657,298.245 236.5,298.5C 236.466,303.697 236.466,308.864 236.5,314C 237.46,315.419 238.293,316.919 239,318.5C 239.333,318.167 239.667,317.833 240,317.5C 241.786,318.912 243.286,320.579 244.5,322.5C 239.72,322.084 239.554,323.084 244,325.5C 244.492,326.549 244.326,327.549 243.5,328.5C 245.75,331.971 248.083,335.471 250.5,339C 249.044,339.423 248.544,340.256 249,341.5C 250.205,342.071 251.372,342.738 252.5,343.5C 251.312,343.307 249.978,343.807 248.5,345C 250.5,345.333 252.5,345.667 254.5,346C 251.833,347 251.833,348 254.5,349C 253.66,350.666 254.16,350.833 256,349.5C 256.45,351.519 257.283,353.352 258.5,355C 257.521,356.779 257.854,358.445 259.5,360C 258.551,360.617 257.718,360.451 257,359.5C 256.536,360.094 256.369,360.761 256.5,361.5C 243.833,361.5 231.167,361.5 218.5,361.5C 219.055,357.731 218.722,353.898 217.5,350C 219.891,348.691 219.891,347.691 217.5,347C 217.737,344.712 217.737,342.212 217.5,339.5C 215.387,340.256 213.387,340.423 211.5,340C 212.711,340.893 212.711,341.726 211.5,342.5C 210.738,341.372 210.071,340.205 209.5,339C 211.433,338.749 213.266,338.249 215,337.5C 215.414,337.957 215.914,338.291 216.5,338.5C 217.76,336.647 217.76,334.814 216.5,333C 217.167,332.667 217.833,332.333 218.5,332C 217.241,331.077 215.908,330.243 214.5,329.5C 216.836,328.406 216.836,327.073 214.5,325.5C 213.5,293.84 213.167,262.174 213.5,230.5 Z"/></g>
<g><path style="opacity:1" fill="#fffcfd" d="M 243.5,230.5 C 247.228,230.903 250.228,232.57 252.5,235.5C 259.972,254.585 267.639,273.585 275.5,292.5C 278.738,285.36 281.405,278.027 283.5,270.5C 286.01,264.985 288.344,259.319 290.5,253.5C 292.616,246.604 295.282,239.937 298.5,233.5C 300.255,232.928 301.922,232.094 303.5,231C 311.493,230.5 319.493,230.334 327.5,230.5C 328.613,231.946 328.78,233.613 328,235.5C 324.196,244.418 320.696,253.418 317.5,262.5C 313.981,269.549 310.981,276.882 308.5,284.5C 305.263,290.864 302.597,297.53 300.5,304.5C 296.871,311.526 293.704,318.86 291,326.5C 288.619,327.435 286.119,327.768 283.5,327.5C 277.167,327.5 270.833,327.5 264.5,327.5C 261.881,327.768 259.381,327.435 257,326.5C 244.833,295.333 232.667,264.167 220.5,233C 220.645,232.228 220.978,231.561 221.5,231C 228.826,230.5 236.159,230.334 243.5,230.5 Z"/></g>
<g><path style="opacity:0.999" fill="#fffcfd" d="M 709.5,230.5 C 712.535,230.539 715.202,231.539 717.5,233.5C 720.224,238.03 722.558,242.697 724.5,247.5C 730.039,262.284 735.872,276.951 742,291.5C 749.019,272.268 756.519,253.268 764.5,234.5C 765.981,233.52 767.315,232.353 768.5,231C 776.827,230.5 785.16,230.334 793.5,230.5C 794.695,230.866 795.361,231.699 795.5,233C 794.061,235.705 793.061,238.538 792.5,241.5C 784.038,260.104 776.371,279.104 769.5,298.5C 762.129,315.597 755.129,332.931 748.5,350.5C 746.656,354.01 744.989,357.677 743.5,361.5C 734.167,361.5 724.833,361.5 715.5,361.5C 714.489,359.598 714.322,357.598 715,355.5C 718.362,347.275 721.862,339.109 725.5,331C 724.961,328.518 723.961,326.352 722.5,324.5C 719.686,315.555 716.353,306.888 712.5,298.5C 705.204,278.932 697.538,259.599 689.5,240.5C 688.987,237.791 687.987,235.291 686.5,233C 686.645,232.228 686.978,231.561 687.5,231C 694.826,230.5 702.159,230.334 709.5,230.5 Z"/></g>
<g><path style="opacity:1" fill="#c10995" d="M 74.5,294.5 C 71.5281,291.84 70.8614,288.673 72.5,285C 70.3143,284.396 70.1476,283.23 72,281.5C 72.9138,282.654 73.7471,282.487 74.5,281C 72.7642,279.061 71.7642,276.728 71.5,274C 73.1231,272.124 72.7898,270.79 70.5,270C 73.022,268.314 72.6887,266.981 69.5,266C 70.428,265.612 71.0946,264.945 71.5,264C 70.3498,257.48 70.3498,251.313 71.5,245.5C 70.4179,245.251 69.0846,245.085 67.5,245C 71.4937,243.54 71.4937,242.373 67.5,241.5C 76.8393,241.666 86.1726,241.5 95.5,241C 96.3515,232.83 100.351,226.83 107.5,223C 123.429,221.922 129.595,229.089 126,244.5C 124.056,248.11 121.723,251.443 119,254.5C 104.296,268.041 89.4626,281.374 74.5,294.5 Z"/></g>
<g><path style="opacity:1" fill="#fe186d" d="M 358.5,259.5 C 360.629,257.05 363.296,255.383 366.5,254.5C 371.508,253.408 376.508,253.408 381.5,254.5C 381.167,255.167 380.833,255.833 380.5,256.5C 383.974,257.099 386.974,258.432 389.5,260.5C 388.167,262.833 388.167,265.167 389.5,267.5C 379.161,267.666 368.828,267.5 358.5,267C 357.351,264.541 357.351,262.041 358.5,259.5 Z"/></g>
<g><path style="opacity:1" fill="#ff3276" d="M 358.5,259.5 C 357.351,262.041 357.351,264.541 358.5,267C 368.828,267.5 379.161,267.666 389.5,267.5C 388.167,265.167 388.167,262.833 389.5,260.5C 386.974,258.432 383.974,257.099 380.5,256.5C 380.833,255.833 381.167,255.167 381.5,254.5C 376.508,253.408 371.508,253.408 366.5,254.5C 377.331,250.445 386.997,252.445 395.5,260.5C 397.086,262.67 398.42,265.004 399.5,267.5C 384.181,268.499 368.848,268.833 353.5,268.5C 353.928,264.756 355.595,261.756 358.5,259.5 Z"/></g>
<g><path style="opacity:1" fill="#ff315a" d="M 521.5,246.5 C 521.369,247.376 521.702,248.043 522.5,248.5C 525.6,246.273 528.767,246.273 532,248.5C 532.333,248.167 532.667,247.833 533,247.5C 536.5,250.064 536,251.731 531.5,252.5C 532.953,252.06 534.119,252.726 535,254.5C 536,252.833 537,251.167 538,249.5C 541.349,250.677 542.849,253.01 542.5,256.5C 544.877,256.784 547.044,256.784 549,256.5C 551.917,257.048 554.917,258.048 558,259.5C 560.23,258.511 562.064,259.178 563.5,261.5C 564.5,260.833 565.5,260.167 566.5,259.5C 569.276,259.946 571.776,260.946 574,262.5C 574.519,261.484 575.353,260.818 576.5,260.5C 578.182,261.807 579.848,261.807 581.5,260.5C 581.5,269.5 581.5,278.5 581.5,287.5C 579.533,287.261 577.699,287.594 576,288.5C 571.602,287.136 567.102,286.136 562.5,285.5C 558.991,286.707 555.491,286.374 552,284.5C 550.234,285.502 548.567,285.168 547,283.5C 544.065,283.393 541.065,283.393 538,283.5C 532.659,281.405 527.159,279.571 521.5,278C 519.236,277.764 517.069,277.264 515,276.5C 514.667,276.833 514.333,277.167 514,277.5C 512.412,275.192 510.412,274.525 508,275.5C 507.833,275.167 507.667,274.833 507.5,274.5C 509.078,273.702 510.744,273.202 512.5,273C 509.904,271.864 507.237,271.031 504.5,270.5C 504.5,269.5 504.5,268.5 504.5,267.5C 509.794,260.205 515.461,253.205 521.5,246.5 Z"/></g>
<g><path style="opacity:1" fill="#ff345a" d="M 659.5,281.5 C 659.657,280.127 659.49,278.793 659,277.5C 649.338,280.166 639.672,282.833 630,285.5C 629.439,284.978 628.772,284.645 628,284.5C 622.855,285.331 617.688,285.998 612.5,286.5C 608.123,271.214 613.123,260.047 627.5,253C 643.506,250.249 654.339,256.416 660,271.5C 660.808,275.027 660.641,278.36 659.5,281.5 Z"/></g>
<g><path style="opacity:0.999" fill="#f00d7c" d="M 317.5,262.5 C 317.814,266.839 319.814,269.839 323.5,271.5C 322.232,293.626 330.565,310.959 348.5,323.5C 347.624,323.369 346.957,323.702 346.5,324.5C 350.415,327.734 353.082,331.734 354.5,336.5C 355.833,337.167 357.167,337.833 358.5,338.5C 360.004,341.159 361.671,343.659 363.5,346C 362.376,346.249 361.376,346.749 360.5,347.5C 363.365,349.431 366.032,351.598 368.5,354C 368.043,354.414 367.709,354.914 367.5,355.5C 368.5,356.333 369.5,357.167 370.5,358C 369.027,358.71 368.36,359.876 368.5,361.5C 359.167,361.5 349.833,361.5 340.5,361.5C 341.197,359.929 341.53,358.429 341.5,357C 338.833,356.333 338.833,355.667 341.5,355C 339.175,353.119 339.175,351.452 341.5,350C 340.536,348.036 339.203,346.37 337.5,345C 336.852,343.56 336.519,342.06 336.5,340.5C 335.5,340.5 334.5,340.5 333.5,340.5C 333.322,337.784 332.822,335.117 332,332.5C 330.701,332.966 329.201,332.966 327.5,332.5C 327.762,331.022 327.429,329.689 326.5,328.5C 325.575,327.359 324.741,327.359 324,328.5C 322.643,326.345 322.476,324.178 323.5,322C 323.062,320.08 322.395,318.246 321.5,316.5C 320.914,316.709 320.414,317.043 320,317.5C 320.145,314.077 318.645,312.077 315.5,311.5C 315.579,310.07 315.246,308.736 314.5,307.5C 315.631,306.396 316.465,306.729 317,308.5C 317.167,307.5 317.333,306.5 317.5,305.5C 315.756,302.573 313.756,299.739 311.5,297C 312.956,296.577 313.456,295.744 313,294.5C 311.951,295.517 310.784,295.684 309.5,295C 310.167,293.667 311.167,292.667 312.5,292C 311.167,291.333 311.167,290.667 312.5,290C 311.672,289.085 310.672,288.419 309.5,288C 310.833,286.16 310.666,285.66 309,286.5C 308.536,285.906 308.369,285.239 308.5,284.5C 310.981,276.882 313.981,269.549 317.5,262.5 Z"/></g>
<g><path style="opacity:0.99" fill="#ff0d65" d="M 879.5,165.5 C 883.167,165.5 886.833,165.5 890.5,165.5C 880.549,201.029 865.216,234.029 844.5,264.5C 830.856,261.807 822.19,266.973 818.5,280C 819.319,283.987 820.986,287.487 823.5,290.5C 802.497,314.827 778.497,335.661 751.5,353C 750.552,353.483 749.552,353.649 748.5,353.5C 748.5,352.5 748.5,351.5 748.5,350.5C 755.129,332.931 762.129,315.597 769.5,298.5C 769.302,300.575 769.135,302.575 769,304.5C 774.525,301.471 775.358,302.138 771.5,306.5C 772.968,308.532 774.635,308.365 776.5,306C 775.398,303.609 776.064,303.109 778.5,304.5C 778.109,303.282 778.776,302.448 780.5,302C 778.793,301.805 777.126,301.805 775.5,302C 777.125,301.147 777.458,300.147 776.5,299C 777.667,298.5 778.5,297.667 779,296.5C 780.194,298.525 781.694,298.859 783.5,297.5C 783.833,296.167 784.167,294.833 784.5,293.5C 785.641,295.808 787.308,297.641 789.5,299C 788.833,299.667 788.167,300.333 787.5,301C 790.82,300.735 793.487,299.069 795.5,296C 794.167,295.333 792.833,295.333 791.5,296C 791.833,296.333 792.167,296.667 792.5,297C 788.809,297.051 788.642,295.884 792,293.5C 795.041,294.129 797.541,292.963 799.5,290C 797.993,289.163 797.493,287.996 798,286.5C 799.667,286.833 801.333,287.167 803,287.5C 803.667,286.167 804.333,284.833 805,283.5C 805.333,284.167 805.667,284.833 806,285.5C 809.427,283.167 808.927,282 804.5,282C 805.76,280.887 806.927,280.72 808,281.5C 808.456,280.256 807.956,279.423 806.5,279C 807.667,277.833 808.833,276.667 810,275.5C 811.974,278.118 813.807,277.952 815.5,275C 812.015,274.507 811.515,273.007 814,270.5C 815,271.5 816,272.5 817,273.5C 817.483,272.552 817.649,271.552 817.5,270.5C 821.449,270.307 821.449,269.807 817.5,269C 820.167,268.333 820.167,267.667 817.5,267C 821.095,263.95 824.595,260.784 828,257.5C 828.333,257.833 828.667,258.167 829,258.5C 829.374,257.584 829.874,256.75 830.5,256C 829.655,254.442 830.321,253.442 832.5,253C 832.167,252.667 831.833,252.333 831.5,252C 833,251.167 834.167,250 835,248.5C 835.333,248.833 835.667,249.167 836,249.5C 837.281,245.959 839.115,242.793 841.5,240C 841.167,239.667 840.833,239.333 840.5,239C 842.71,237.491 844.543,235.658 846,233.5C 846.684,235.359 847.684,237.026 849,238.5C 849.333,238.167 849.667,237.833 850,237.5C 849.741,233.958 850.741,230.625 853,227.5C 854.364,228.258 855.531,227.758 856.5,226C 855.262,226.077 854.262,225.911 853.5,225.5C 854.899,222.005 857.233,220.338 860.5,220.5C 858.009,219.459 858.009,218.626 860.5,218C 858.009,217.374 858.009,216.541 860.5,215.5C 860.154,214.304 859.654,214.304 859,215.5C 858.333,214.833 858.333,214.167 859,213.5C 860.385,212.449 861.385,211.116 862,209.5C 863,210.5 864,211.5 865,212.5C 868.687,208.899 868.187,206.066 863.5,204C 865.361,200.599 867.695,197.599 870.5,195C 868.818,191.908 869.651,189.741 873,188.5C 871.945,195.762 872.778,196.096 875.5,189.5C 874.509,188.335 873.509,187.168 872.5,186C 872.667,185.5 872.833,185 873,184.5C 873.718,185.451 874.551,185.617 875.5,185C 875.815,183.098 875.815,181.098 875.5,179C 876.891,177.98 878.391,177.147 880,176.5C 882.029,170.534 881.529,170.2 878.5,175.5C 878.167,175 877.833,174.5 877.5,174C 877.122,171.093 877.788,168.26 879.5,165.5 Z"/></g>
<g><path style="opacity:1" fill="#ff2d5d" d="M 659.5,281.5 C 656.434,298.705 646.101,306.205 628.5,304C 620.489,300.494 615.156,294.661 612.5,286.5C 617.688,285.998 622.855,285.331 628,284.5C 628.772,284.645 629.439,284.978 630,285.5C 639.672,282.833 649.338,280.166 659,277.5C 659.49,278.793 659.657,280.127 659.5,281.5 Z"/></g>
<g><path style="opacity:1" fill="#ff3060" d="M 582.5,201.5 C 582.5,242.833 582.5,284.167 582.5,325.5C 581.675,321.353 581.175,317.019 581,312.5C 580.282,313.451 579.449,313.617 578.5,313C 576.346,311.68 574.846,309.847 574,307.5C 573.274,310.285 571.774,310.952 569.5,309.5C 564.999,297.755 556.999,294.588 545.5,300C 543.598,301.73 541.931,303.563 540.5,305.5C 539.188,305.176 538.355,304.509 538,303.5C 535.795,303.088 533.462,303.088 531,303.5C 526.547,301.993 522.047,300.326 517.5,298.5C 516.117,301.076 515.283,300.742 515,297.5C 514.722,298.416 514.222,299.082 513.5,299.5C 507.683,292.173 502.016,284.673 496.5,277C 498.824,273.502 501.49,270.336 504.5,267.5C 504.5,268.5 504.5,269.5 504.5,270.5C 507.237,271.031 509.904,271.864 512.5,273C 510.744,273.202 509.078,273.702 507.5,274.5C 507.667,274.833 507.833,275.167 508,275.5C 510.412,274.525 512.412,275.192 514,277.5C 514.333,277.167 514.667,276.833 515,276.5C 517.069,277.264 519.236,277.764 521.5,278C 527.159,279.571 532.659,281.405 538,283.5C 541.065,283.393 544.065,283.393 547,283.5C 548.567,285.168 550.234,285.502 552,284.5C 555.491,286.374 558.991,286.707 562.5,285.5C 567.102,286.136 571.602,287.136 576,288.5C 577.699,287.594 579.533,287.261 581.5,287.5C 581.5,278.5 581.5,269.5 581.5,260.5C 581.5,251.833 581.5,243.167 581.5,234.5C 581.5,230.167 581.5,225.833 581.5,221.5C 581.5,215.167 581.5,208.833 581.5,202.5C 581.5,201.833 581.833,201.5 582.5,201.5 Z"/></g>
<g><path style="opacity:1" fill="#ff2e60" d="M 689.5,240.5 C 697.538,259.599 705.204,278.932 712.5,298.5C 711.21,297.942 710.377,296.942 710,295.5C 706.705,297.457 703.205,298.957 699.5,300C 698.531,301.758 697.364,302.258 696,301.5C 695.085,302.328 694.419,303.328 694,304.5C 693.667,303.833 693.333,303.167 693,302.5C 691.184,304.441 689.184,305.108 687,304.5C 685.67,305.582 684.17,306.249 682.5,306.5C 692.101,286.942 691.768,267.609 681.5,248.5C 684.852,248.216 687.852,247.05 690.5,245C 689.62,243.644 689.286,242.144 689.5,240.5 Z"/></g>
<g><path style="opacity:0.997" fill="#eb057e" d="M 308.5,284.5 C 308.369,285.239 308.536,285.906 309,286.5C 310.666,285.66 310.833,286.16 309.5,288C 310.672,288.419 311.672,289.085 312.5,290C 311.167,290.667 311.167,291.333 312.5,292C 311.167,292.667 310.167,293.667 309.5,295C 310.784,295.684 311.951,295.517 313,294.5C 313.456,295.744 312.956,296.577 311.5,297C 313.756,299.739 315.756,302.573 317.5,305.5C 317.333,306.5 317.167,307.5 317,308.5C 316.465,306.729 315.631,306.396 314.5,307.5C 315.246,308.736 315.579,310.07 315.5,311.5C 318.645,312.077 320.145,314.077 320,317.5C 320.414,317.043 320.914,316.709 321.5,316.5C 322.395,318.246 323.062,320.08 323.5,322C 322.476,324.178 322.643,326.345 324,328.5C 324.741,327.359 325.575,327.359 326.5,328.5C 327.429,329.689 327.762,331.022 327.5,332.5C 329.201,332.966 330.701,332.966 332,332.5C 332.822,335.117 333.322,337.784 333.5,340.5C 334.5,340.5 335.5,340.5 336.5,340.5C 336.519,342.06 336.852,343.56 337.5,345C 339.203,346.37 340.536,348.036 341.5,350C 339.175,351.452 339.175,353.119 341.5,355C 338.833,355.667 338.833,356.333 341.5,357C 341.53,358.429 341.197,359.929 340.5,361.5C 333.833,361.5 327.167,361.5 320.5,361.5C 320.953,360.542 321.619,359.708 322.5,359C 319.872,356.939 319.205,354.439 320.5,351.5C 317.794,349.129 315.461,346.463 313.5,343.5C 313.709,342.914 314.043,342.414 314.5,342C 313.167,340 311.5,338.333 309.5,337C 310.449,336.383 311.282,336.549 312,337.5C 312.016,333.717 310.183,331.217 306.5,330C 306.957,329.586 307.291,329.086 307.5,328.5C 305.419,325.476 304.753,322.31 305.5,319C 304.331,316.993 303.665,314.827 303.5,312.5C 301.774,312.815 300.107,312.981 298.5,313C 301.786,310.868 302.453,308.035 300.5,304.5C 302.597,297.53 305.263,290.864 308.5,284.5 Z"/></g>
<g><path style="opacity:0.988" fill="#ff0169" d="M 823.5,290.5 C 826.194,292.514 829.194,294.014 832.5,295C 856.697,295.181 880.864,295.681 905,296.5C 912.805,301.194 916.471,308.194 916,317.5C 917.927,322.428 921.427,325.594 926.5,327C 939.167,327.333 951.833,327.667 964.5,328C 973.871,329.711 978.538,335.377 978.5,345C 978.458,352.421 975.125,357.755 968.5,361C 893.501,361.5 818.501,361.667 743.5,361.5C 744.989,357.677 746.656,354.01 748.5,350.5C 748.5,351.5 748.5,352.5 748.5,353.5C 749.552,353.649 750.552,353.483 751.5,353C 778.497,335.661 802.497,314.827 823.5,290.5 Z"/></g>
<g><path style="opacity:1" fill="#ff1e62" d="M 712.5,298.5 C 716.353,306.888 719.686,315.555 722.5,324.5C 722.489,326.017 721.823,327.184 720.5,328C 721.738,327.923 722.738,328.089 723.5,328.5C 721.922,329.298 720.256,329.798 718.5,330C 719.257,331.512 720.257,332.846 721.5,334C 720.464,335.617 719.297,335.784 718,334.5C 717.28,336.112 717.446,337.612 718.5,339C 715.833,339.667 715.833,340.333 718.5,341C 717.584,341.374 716.75,341.874 716,342.5C 715.258,339.909 714.758,337.576 714.5,335.5C 712.742,336.128 711.242,337.128 710,338.5C 709.667,338.167 709.333,337.833 709,337.5C 709.466,341.636 707.966,342.303 704.5,339.5C 702.998,340.083 701.665,340.916 700.5,342C 701.654,342.914 701.487,343.747 700,344.5C 697.508,341.809 695.675,342.309 694.5,346C 692.888,346.72 691.388,346.554 690,345.5C 689.667,346.167 689.333,346.833 689,347.5C 687.796,346.529 687.296,345.529 687.5,344.5C 686.614,345.325 686.281,346.325 686.5,347.5C 682.945,347.731 681.445,346.398 682,343.5C 681.25,344.126 680.416,344.626 679.5,345C 680.28,346.073 680.113,347.24 679,348.5C 678.667,347.5 678.333,346.5 678,345.5C 676.251,346.299 674.918,345.632 674,343.5C 672.581,344.46 671.081,345.293 669.5,346C 670.696,346.654 670.696,347.154 669.5,347.5C 668.575,346.359 667.741,346.359 667,347.5C 665.076,344.321 662.91,343.987 660.5,346.5C 662.078,347.298 663.744,347.798 665.5,348C 663.359,349.259 661.026,349.259 658.5,348C 659.451,347.282 659.617,346.449 659,345.5C 656.26,346.144 653.76,347.311 651.5,349C 652.167,349.667 652.833,350.333 653.5,351C 651.316,351.867 649.149,352.701 647,353.5C 644.759,353.32 644.259,352.487 645.5,351C 643.105,348.855 640.938,349.022 639,351.5C 635.84,349.75 636.006,348.083 639.5,346.5C 635.73,342.527 632.896,342.527 631,346.5C 628.911,346.255 626.911,346.255 625,346.5C 624.667,345.833 624.333,345.167 624,344.5C 621.964,345.102 620.13,346.102 618.5,347.5C 618.167,346.833 617.833,346.167 617.5,345.5C 616.167,346.833 614.833,346.833 613.5,345.5C 612.719,346.737 611.719,347.737 610.5,348.5C 609.459,346.009 608.626,346.009 608,348.5C 606.488,346.043 605.154,346.043 604,348.5C 603.396,346.314 602.23,346.148 600.5,348C 601.167,348.333 601.833,348.667 602.5,349C 598.451,349.113 594.785,350.28 591.5,352.5C 590.833,352.167 590.167,351.833 589.5,351.5C 590.274,350.289 591.107,350.289 592,351.5C 592.75,350.874 593.584,350.374 594.5,350C 593.001,348.203 591.501,346.369 590,344.5C 589.5,345 589,345.5 588.5,346C 590.255,346.72 591.089,347.887 591,349.5C 589.028,348.695 587.528,347.361 586.5,345.5C 586.5,347.167 586.5,348.833 586.5,350.5C 585.277,351.614 583.944,351.781 582.5,351C 583.308,350.692 583.975,350.192 584.5,349.5C 581.846,345.854 580.013,346.521 579,351.5C 577.582,348.999 576.582,349.332 576,352.5C 575.28,350.888 575.446,349.388 576.5,348C 575.551,347.383 574.718,347.549 574,348.5C 572.56,344.99 570.227,343.323 567,343.5C 566.293,341.919 565.46,340.419 564.5,339C 564.833,338.667 565.167,338.333 565.5,338C 561.252,336.767 557.252,334.933 553.5,332.5C 552.158,333.902 551.324,333.569 551,331.5C 550.667,333.5 550.333,335.5 550,337.5C 548.853,336.542 547.853,336.875 547,338.5C 545.733,336.093 545.233,333.76 545.5,331.5C 544.522,331.977 543.689,332.643 543,333.5C 541.333,331.833 539.667,330.167 538,328.5C 537.311,329.357 536.478,330.023 535.5,330.5C 535.693,329.312 535.193,327.978 534,326.5C 533.851,329.279 533.017,329.779 531.5,328C 533.043,325.955 532.71,324.455 530.5,323.5C 524.808,315.482 519.142,307.482 513.5,299.5C 514.222,299.082 514.722,298.416 515,297.5C 515.283,300.742 516.117,301.076 517.5,298.5C 522.047,300.326 526.547,301.993 531,303.5C 533.462,303.088 535.795,303.088 538,303.5C 538.355,304.509 539.188,305.176 540.5,305.5C 537.639,317.802 542.306,325.135 554.5,327.5C 564.67,325.835 569.67,319.835 569.5,309.5C 571.774,310.952 573.274,310.285 574,307.5C 574.846,309.847 576.346,311.68 578.5,313C 579.449,313.617 580.282,313.451 581,312.5C 581.175,317.019 581.675,321.353 582.5,325.5C 582.611,326.117 582.944,326.617 583.5,327C 592.167,327.667 600.833,327.667 609.5,327C 610.056,326.617 610.389,326.117 610.5,325.5C 611.167,323.833 611.833,322.167 612.5,320.5C 616.479,323.493 620.812,325.993 625.5,328C 649.713,334.102 668.713,326.936 682.5,306.5C 684.17,306.249 685.67,305.582 687,304.5C 689.184,305.108 691.184,304.441 693,302.5C 693.333,303.167 693.667,303.833 694,304.5C 694.419,303.328 695.085,302.328 696,301.5C 697.364,302.258 698.531,301.758 699.5,300C 703.205,298.957 706.705,297.457 710,295.5C 710.377,296.942 711.21,297.942 712.5,298.5 Z"/></g>
<g><path style="opacity:1" fill="#fffafb" d="M 569.5,309.5 C 569.67,319.835 564.67,325.835 554.5,327.5C 542.306,325.135 537.639,317.802 540.5,305.5C 541.931,303.563 543.598,301.73 545.5,300C 556.999,294.588 564.999,297.755 569.5,309.5 Z"/></g>
<g><path style="opacity:0.997" fill="#fe1c6f" d="M 437.5,282.5 C 437.333,297.17 437.5,311.837 438,326.5C 444.744,327.479 451.578,327.812 458.5,327.5C 457.602,328.158 456.602,328.824 455.5,329.5C 456.5,330.5 457.5,331.5 458.5,332.5C 459.086,332.291 459.586,331.957 460,331.5C 460.923,332.759 461.757,334.092 462.5,335.5C 465.276,335.946 467.776,336.946 470,338.5C 470.333,338.167 470.667,337.833 471,337.5C 472.505,339.298 472.672,341.132 471.5,343C 473.629,344.974 475.962,346.641 478.5,348C 474.869,348.206 474.535,349.373 477.5,351.5C 481.779,353.153 486.112,354.653 490.5,356C 492.236,358.376 494.903,360.209 498.5,361.5C 478.833,361.5 459.167,361.5 439.5,361.5C 438.01,360.021 436.343,359.188 434.5,359C 433.3,357.297 433.633,355.797 435.5,354.5C 434.678,351.208 432.844,349.875 430,350.5C 428.667,349.167 427.333,347.833 426,346.5C 425.667,346.833 425.333,347.167 425,347.5C 423.649,345.981 422.149,344.648 420.5,343.5C 421.668,342.094 421.335,340.928 419.5,340C 415.22,338.033 411.22,335.7 407.5,333C 408.833,332.667 410.167,332.333 411.5,332C 409.752,331.92 408.085,331.087 406.5,329.5C 406.895,326.697 406.895,324.03 406.5,321.5C 413.226,316.272 418.726,309.938 423,302.5C 423.494,300.866 423.66,299.199 423.5,297.5C 413.494,297.334 403.494,297.5 393.5,298C 386.255,304.081 377.922,306.081 368.5,304C 360.576,301.577 355.576,296.41 353.5,288.5C 377.169,288.667 400.836,288.5 424.5,288C 426.923,286.429 428.256,284.263 428.5,281.5C 429.161,280.282 429.828,278.949 430.5,277.5C 433.822,277.977 436.155,279.643 437.5,282.5 Z"/></g>
<g><path style="opacity:1" fill="#ff5088" d="M 468.5,286.5 C 468.161,300.364 467.161,314.031 465.5,327.5C 466.15,313.563 466.817,299.563 467.5,285.5C 468.107,285.624 468.44,285.957 468.5,286.5 Z"/></g>
<g><path style="opacity:0.995" fill="#ff1666" d="M 468.5,286.5 C 477.9,300.074 487.9,313.241 498.5,326C 509.068,327.619 519.735,327.952 530.5,327C 531.684,325.855 531.684,324.688 530.5,323.5C 532.71,324.455 533.043,325.955 531.5,328C 533.017,329.779 533.851,329.279 534,326.5C 535.193,327.978 535.693,329.312 535.5,330.5C 536.478,330.023 537.311,329.357 538,328.5C 539.667,330.167 541.333,331.833 543,333.5C 543.689,332.643 544.522,331.977 545.5,331.5C 545.233,333.76 545.733,336.093 547,338.5C 547.853,336.875 548.853,336.542 550,337.5C 550.333,335.5 550.667,333.5 551,331.5C 551.324,333.569 552.158,333.902 553.5,332.5C 557.252,334.933 561.252,336.767 565.5,338C 565.167,338.333 564.833,338.667 564.5,339C 565.46,340.419 566.293,341.919 567,343.5C 570.227,343.323 572.56,344.99 574,348.5C 574.718,347.549 575.551,347.383 576.5,348C 575.446,349.388 575.28,350.888 576,352.5C 576.582,349.332 577.582,348.999 579,351.5C 580.013,346.521 581.846,345.854 584.5,349.5C 583.975,350.192 583.308,350.692 582.5,351C 583.944,351.781 585.277,351.614 586.5,350.5C 586.5,348.833 586.5,347.167 586.5,345.5C 587.528,347.361 589.028,348.695 591,349.5C 591.089,347.887 590.255,346.72 588.5,346C 589,345.5 589.5,345 590,344.5C 591.501,346.369 593.001,348.203 594.5,350C 593.584,350.374 592.75,350.874 592,351.5C 591.107,350.289 590.274,350.289 589.5,351.5C 590.167,351.833 590.833,352.167 591.5,352.5C 594.785,350.28 598.451,349.113 602.5,349C 601.833,348.667 601.167,348.333 600.5,348C 602.23,346.148 603.396,346.314 604,348.5C 605.154,346.043 606.488,346.043 608,348.5C 608.626,346.009 609.459,346.009 610.5,348.5C 611.719,347.737 612.719,346.737 613.5,345.5C 614.833,346.833 616.167,346.833 617.5,345.5C 617.833,346.167 618.167,346.833 618.5,347.5C 620.13,346.102 621.964,345.102 624,344.5C 624.333,345.167 624.667,345.833 625,346.5C 626.911,346.255 628.911,346.255 631,346.5C 632.896,342.527 635.73,342.527 639.5,346.5C 636.006,348.083 635.84,349.75 639,351.5C 640.938,349.022 643.105,348.855 645.5,351C 644.259,352.487 644.759,353.32 647,353.5C 649.149,352.701 651.316,351.867 653.5,351C 652.833,350.333 652.167,349.667 651.5,349C 653.76,347.311 656.26,346.144 659,345.5C 659.617,346.449 659.451,347.282 658.5,348C 661.026,349.259 663.359,349.259 665.5,348C 663.744,347.798 662.078,347.298 660.5,346.5C 662.91,343.987 665.076,344.321 667,347.5C 667.741,346.359 668.575,346.359 669.5,347.5C 670.696,347.154 670.696,346.654 669.5,346C 671.081,345.293 672.581,344.46 674,343.5C 674.918,345.632 676.251,346.299 678,345.5C 678.333,346.5 678.667,347.5 679,348.5C 680.113,347.24 680.28,346.073 679.5,345C 680.416,344.626 681.25,344.126 682,343.5C 681.445,346.398 682.945,347.731 686.5,347.5C 686.281,346.325 686.614,345.325 687.5,344.5C 687.296,345.529 687.796,346.529 689,347.5C 689.333,346.833 689.667,346.167 690,345.5C 691.388,346.554 692.888,346.72 694.5,346C 695.675,342.309 697.508,341.809 700,344.5C 701.487,343.747 701.654,342.914 700.5,342C 701.665,340.916 702.998,340.083 704.5,339.5C 707.966,342.303 709.466,341.636 709,337.5C 709.333,337.833 709.667,338.167 710,338.5C 711.242,337.128 712.742,336.128 714.5,335.5C 714.758,337.576 715.258,339.909 716,342.5C 716.75,341.874 717.584,341.374 718.5,341C 715.833,340.333 715.833,339.667 718.5,339C 717.446,337.612 717.28,336.112 718,334.5C 719.297,335.784 720.464,335.617 721.5,334C 720.257,332.846 719.257,331.512 718.5,330C 720.256,329.798 721.922,329.298 723.5,328.5C 722.738,328.089 721.738,327.923 720.5,328C 721.823,327.184 722.489,326.017 722.5,324.5C 723.961,326.352 724.961,328.518 725.5,331C 721.862,339.109 718.362,347.275 715,355.5C 714.322,357.598 714.489,359.598 715.5,361.5C 643.167,361.5 570.833,361.5 498.5,361.5C 494.903,360.209 492.236,358.376 490.5,356C 486.112,354.653 481.779,353.153 477.5,351.5C 474.535,349.373 474.869,348.206 478.5,348C 475.962,346.641 473.629,344.974 471.5,343C 472.672,341.132 472.505,339.298 471,337.5C 470.667,337.833 470.333,338.167 470,338.5C 467.776,336.946 465.276,335.946 462.5,335.5C 461.757,334.092 460.923,332.759 460,331.5C 459.586,331.957 459.086,332.291 458.5,332.5C 457.5,331.5 456.5,330.5 455.5,329.5C 456.602,328.824 457.602,328.158 458.5,327.5C 460.833,327.5 463.167,327.5 465.5,327.5C 467.161,314.031 468.161,300.364 468.5,286.5 Z"/></g>
<g><path style="opacity:1" fill="#ff81a4" d="M 612.5,320.5 C 611.833,322.167 611.167,323.833 610.5,325.5C 610.201,323.396 610.534,321.396 611.5,319.5C 612.107,319.624 612.44,319.957 612.5,320.5 Z"/></g>
<g><path style="opacity:0.995" fill="#c50994" d="M 153.5,361.5 C 135.833,361.5 118.167,361.5 100.5,361.5C 101.203,359.966 101.036,358.299 100,356.5C 99.6667,357.167 99.3333,357.833 99,358.5C 98.8598,356.479 98.6932,354.645 98.5,353C 99.448,352.517 100.448,352.351 101.5,352.5C 101.349,349.282 100.516,348.949 99,351.5C 98.2246,349.051 99.058,347.384 101.5,346.5C 101.833,347.167 102.167,347.833 102.5,348.5C 102.833,348 103.167,347.5 103.5,347C 101.899,344.502 100.065,344.002 98,345.5C 97.8333,344.667 97.6667,343.833 97.5,343C 97.7013,339.714 98.5347,339.214 100,341.5C 100.536,339.433 100.036,337.599 98.5,336C 99.624,335.751 100.624,335.251 101.5,334.5C 100.018,332.517 98.3513,330.684 96.5,329C 97.7376,329.077 98.7376,328.911 99.5,328.5C 88.6742,327.833 78.0076,327.167 67.5,326.5C 95.8775,326.817 124.211,326.483 152.5,325.5C 153.496,325.586 154.329,325.252 155,324.5C 155.374,325.416 155.874,326.25 156.5,327C 153.371,330.821 153.037,334.821 155.5,339C 153.093,341.363 152.926,343.863 155,346.5C 155.893,345.289 156.726,345.289 157.5,346.5C 158.246,347.736 158.579,349.07 158.5,350.5C 159.978,350.238 161.311,350.571 162.5,351.5C 161.215,355.099 159.381,355.766 157,353.5C 153.697,355.397 153.864,357.064 157.5,358.5C 156.053,358.677 154.719,359.677 153.5,361.5 Z"/></g>
<g><path style="opacity:0.995" fill="#e40484" d="M 300.5,304.5 C 302.453,308.035 301.786,310.868 298.5,313C 300.107,312.981 301.774,312.815 303.5,312.5C 303.665,314.827 304.331,316.993 305.5,319C 304.753,322.31 305.419,325.476 307.5,328.5C 307.291,329.086 306.957,329.586 306.5,330C 310.183,331.217 312.016,333.717 312,337.5C 311.282,336.549 310.449,336.383 309.5,337C 311.5,338.333 313.167,340 314.5,342C 314.043,342.414 313.709,342.914 313.5,343.5C 315.461,346.463 317.794,349.129 320.5,351.5C 319.205,354.439 319.872,356.939 322.5,359C 321.619,359.708 320.953,360.542 320.5,361.5C 313.5,361.5 306.5,361.5 299.5,361.5C 300.158,358.193 300.158,355.36 299.5,353C 298.167,352 296.833,351 295.5,350C 295.833,349.667 296.167,349.333 296.5,349C 293.866,346.536 291.532,343.869 289.5,341C 290.167,340.667 290.833,340.333 291.5,340C 288.354,339.89 287.354,338.557 288.5,336C 285.078,334.266 283.411,331.433 283.5,327.5C 286.119,327.768 288.619,327.435 291,326.5C 293.704,318.86 296.871,311.526 300.5,304.5 Z"/></g>
<g><path style="opacity:0.997" fill="#fd0c73" d="M 406.5,321.5 C 406.895,324.03 406.895,326.697 406.5,329.5C 408.085,331.087 409.752,331.92 411.5,332C 410.167,332.333 408.833,332.667 407.5,333C 411.22,335.7 415.22,338.033 419.5,340C 421.335,340.928 421.668,342.094 420.5,343.5C 422.149,344.648 423.649,345.981 425,347.5C 425.333,347.167 425.667,346.833 426,346.5C 427.333,347.833 428.667,349.167 430,350.5C 432.844,349.875 434.678,351.208 435.5,354.5C 433.633,355.797 433.3,357.297 434.5,359C 436.343,359.188 438.01,360.021 439.5,361.5C 426.5,361.5 413.5,361.5 400.5,361.5C 400.918,360.778 401.584,360.278 402.5,360C 400.956,359.71 399.623,359.044 398.5,358C 398.833,357.667 399.167,357.333 399.5,357C 398.484,355.323 397.484,353.657 396.5,352C 393.801,350.483 391.801,348.316 390.5,345.5C 389.24,343.647 389.24,341.814 390.5,340C 387.972,338.684 387.972,337.517 390.5,336.5C 389.413,335.895 388.246,336.228 387,337.5C 386.907,334.993 386.074,332.826 384.5,331C 385.416,330.722 386.082,330.222 386.5,329.5C 393.567,327.812 400.233,325.145 406.5,321.5 Z"/></g>
<g><path style="opacity:0.995" fill="#dd0086" d="M 264.5,327.5 C 270.833,327.5 277.167,327.5 283.5,327.5C 283.411,331.433 285.078,334.266 288.5,336C 287.354,338.557 288.354,339.89 291.5,340C 290.833,340.333 290.167,340.667 289.5,341C 291.532,343.869 293.866,346.536 296.5,349C 296.167,349.333 295.833,349.667 295.5,350C 296.833,351 298.167,352 299.5,353C 300.158,355.36 300.158,358.193 299.5,361.5C 292.833,361.5 286.167,361.5 279.5,361.5C 278.342,358.379 276.675,355.546 274.5,353C 274.64,351.403 274.64,349.903 274.5,348.5C 273.975,347.808 273.308,347.308 272.5,347C 273.308,346.692 273.975,346.192 274.5,345.5C 274.154,344.304 273.654,344.304 273,345.5C 271.632,344.007 271.465,342.507 272.5,341C 269.151,339.483 266.817,336.983 265.5,333.5C 266.571,331.675 265.904,330.508 263.5,330C 264.252,329.329 264.586,328.496 264.5,327.5 Z"/></g>
<g><path style="opacity:0.997" fill="#f70777" d="M 348.5,323.5 C 360.479,329.762 373.145,331.762 386.5,329.5C 386.082,330.222 385.416,330.722 384.5,331C 386.074,332.826 386.907,334.993 387,337.5C 388.246,336.228 389.413,335.895 390.5,336.5C 387.972,337.517 387.972,338.684 390.5,340C 389.24,341.814 389.24,343.647 390.5,345.5C 391.801,348.316 393.801,350.483 396.5,352C 397.484,353.657 398.484,355.323 399.5,357C 399.167,357.333 398.833,357.667 398.5,358C 399.623,359.044 400.956,359.71 402.5,360C 401.584,360.278 400.918,360.778 400.5,361.5C 389.833,361.5 379.167,361.5 368.5,361.5C 368.36,359.876 369.027,358.71 370.5,358C 369.5,357.167 368.5,356.333 367.5,355.5C 367.709,354.914 368.043,354.414 368.5,354C 366.032,351.598 363.365,349.431 360.5,347.5C 361.376,346.749 362.376,346.249 363.5,346C 361.671,343.659 360.004,341.159 358.5,338.5C 357.167,337.833 355.833,337.167 354.5,336.5C 353.082,331.734 350.415,327.734 346.5,324.5C 346.957,323.702 347.624,323.369 348.5,323.5 Z"/></g>
</svg>
