<?xml version="1.0" standalone="no"?>
<!DOCTYPE svg PUBLIC "-//W3C//DTD SVG 20010904//EN"
 "http://www.w3.org/TR/2001/REC-SVG-20010904/DTD/svg10.dtd">
<svg version="1.0" xmlns="http://www.w3.org/2000/svg"
 width="1000.000000pt" height="333.000000pt" viewBox="0 0 1000.000000 333.000000"
 preserveAspectRatio="xMidYMid meet">

<g transform="translate(0.000000,333.000000) scale(0.100000,-0.100000)"
fill="#000000" stroke="none">
<path d="M4885 3075 c-60 -96 -154 -244 -207 -327 -53 -84 -123 -195 -155
-246 -32 -51 -69 -111 -83 -132 -144 -228 -356 -565 -358 -572 -2 -4 75 -8
172 -8 l175 0 54 83 c62 95 226 356 245 389 7 13 35 57 62 98 27 41 83 130
126 198 62 97 80 120 90 110 10 -11 248 -367 507 -759 l77 -117 78 25 c42 14
105 27 140 30 36 4 62 10 62 17 0 6 -19 40 -42 76 -22 36 -55 88 -73 115 -17
28 -81 128 -141 222 -148 235 -158 251 -194 308 -17 28 -43 69 -58 92 -140
221 -188 296 -262 410 -47 72 -89 138 -95 147 -8 13 -32 -19 -120 -159z"/>
<path d="M5776 1761 c-46 -37 -52 -38 -59 -9 -6 20 -8 19 -37 -18 -42 -53 -40
-51 -51 -31 -15 26 -24 21 -44 -23 -18 -40 -29 -48 -40 -30 -15 24 -33 8 -39
-35 -7 -43 -18 -56 -31 -35 -3 6 -12 10 -19 10 -9 0 -13 -15 -13 -47 1 -47 0
-48 -27 -45 -24 3 -27 0 -21 -15 3 -10 9 -33 12 -51 6 -32 5 -33 -21 -26 -31
7 -31 7 -10 -34 l15 -32 180 0 179 0 0 100 c0 121 -1 120 134 120 87 0 96 -2
110 -22 9 -12 16 -33 16 -45 0 -22 3 -23 101 -23 98 0 100 0 97 -22 -3 -22 -8
-23 -100 -26 l-98 -3 0 -104 0 -105 88 0 c94 0 116 -7 110 -36 -3 -17 -15 -19
-101 -22 -95 -3 -97 -3 -97 -27 0 -41 -34 -55 -135 -55 -57 0 -97 5 -108 13
-13 9 -17 32 -19 105 l-3 92 -188 3 c-103 1 -187 -1 -187 -4 0 -3 9 -14 20
-24 11 -10 20 -22 20 -26 0 -4 -9 -11 -20 -14 -27 -9 -25 -16 15 -45 37 -27
44 -40 21 -40 -34 0 -24 -21 18 -42 48 -23 56 -35 31 -44 -26 -10 -16 -21 30
-34 50 -14 65 -27 41 -36 -30 -12 -16 -22 39 -29 52 -6 67 -16 45 -30 -23 -14
-7 -20 46 -16 54 3 57 2 51 -19 -6 -24 -1 -24 78 -4 25 6 28 5 22 -15 -6 -26
3 -26 53 -1 48 25 50 25 50 0 0 -27 9 -25 53 11 21 17 39 30 41 28 2 -2 7 -12
13 -22 9 -17 12 -16 35 12 15 17 28 36 31 43 4 9 11 6 24 -10 l19 -23 23 45
c24 49 35 56 45 30 9 -24 22 -9 35 41 10 40 14 44 31 35 29 -15 30 -14 30 40
0 47 11 63 25 40 8 -14 25 -3 20 13 -2 7 -6 27 -9 45 -5 29 -3 32 19 32 30 0
30 1 5 50 -19 37 -14 60 9 45 23 -14 17 15 -9 46 -36 42 -37 49 -5 49 34 0 31
10 -15 45 -38 30 -38 30 -17 46 20 17 20 17 -21 38 -46 23 -51 35 -24 50 15 8
14 11 -11 20 -15 6 -39 14 -52 17 -26 6 -32 18 -15 29 21 13 8 25 -27 26 -48
1 -81 13 -65 23 23 14 12 28 -20 26 -68 -4 -76 -1 -71 21 5 18 2 19 -23 13
-16 -4 -39 -11 -51 -15 -25 -9 -36 1 -27 25 8 20 6 20 -44 -4 -52 -25 -60 -25
-64 1 -3 20 -5 20 -42 -10z"/>
<path d="M3815 1730 c-38 -5 -85 -12 -102 -15 l-33 -6 0 -104 c0 -58 1 -105 3
-105 1 0 34 7 72 15 83 17 194 19 249 4 75 -21 111 -82 82 -140 -9 -18 -16
-34 -16 -36 0 -1 80 -3 179 -3 l179 0 15 33 c52 113 8 241 -105 298 -103 53
-351 81 -523 59z"/>
<path d="M4675 1725 c-55 -7 -101 -14 -102 -14 -2 -1 -3 -49 -3 -107 0 -105 0
-106 23 -100 121 33 290 33 342 1 17 -10 36 -25 43 -34 17 -21 15 -82 -4 -109
l-15 -22 179 0 180 0 18 28 c12 17 20 51 22 93 8 130 -64 206 -237 250 -99 26
-310 32 -446 14z"/>
<path d="M3920 1250 c-41 -22 -117 -56 -167 -77 l-93 -38 0 -118 0 -117 403 2
402 3 0 95 0 95 -200 5 c-221 6 -214 0 -77 61 75 34 184 108 176 120 -3 5 -87
9 -187 8 l-182 -1 -75 -38z"/>
<path d="M4820 1252 c-41 -20 -98 -46 -125 -58 -160 -67 -147 -51 -143 -194
l3 -95 403 -3 402 -2 0 100 0 100 -202 0 c-111 0 -198 4 -192 8 5 5 41 21 79
36 73 29 206 112 213 134 3 9 -37 12 -180 11 l-183 0 -75 -37z"/>
<path d="M6341 969 c-30 -33 -78 -77 -108 -96 -29 -20 -53 -39 -53 -42 1 -3
30 -51 65 -106 158 -246 187 -298 173 -307 -21 -14 -67 -38 -73 -38 -3 0 -5 9
-5 20 0 25 -11 25 -52 0 -41 -25 -48 -25 -48 0 0 25 -11 25 -52 0 -41 -25 -48
-25 -48 0 0 25 -11 25 -52 0 -41 -25 -48 -25 -48 0 0 25 -11 25 -52 0 -41 -25
-48 -25 -48 0 0 25 -11 25 -52 0 -41 -25 -48 -25 -48 0 0 25 -11 25 -52 0 -41
-25 -48 -25 -48 0 0 25 -11 25 -52 0 -41 -25 -48 -25 -48 0 0 25 -10 25 -54
-1 -36 -21 -62 -18 -52 7 8 20 -15 17 -44 -6 -32 -25 -50 -25 -50 0 0 25 -17
25 -55 0 -39 -26 -59 -26 -52 0 6 25 -4 25 -45 0 -41 -25 -48 -25 -48 0 0 26
-12 25 -60 -5 -33 -21 -41 -23 -46 -11 -3 8 -3 20 1 26 10 17 -18 11 -50 -10
-39 -26 -58 -26 -50 0 8 26 -11 26 -50 0 -39 -26 -58 -26 -50 0 8 26 -11 26
-50 0 -39 -26 -58 -26 -50 0 8 25 -6 25 -47 0 -43 -26 -62 -26 -55 0 7 25 -10
25 -48 0 -39 -26 -58 -26 -50 0 8 25 -6 25 -47 0 -43 -26 -62 -26 -55 0 7 25
-10 25 -48 0 -38 -25 -55 -25 -55 0 0 25 -7 25 -45 0 -38 -25 -55 -25 -55 0 0
25 -7 25 -45 0 -38 -25 -55 -25 -55 0 0 25 -11 25 -43 0 -14 -11 -32 -20 -41
-20 -9 0 -16 8 -16 20 0 25 -7 25 -45 0 -38 -25 -55 -25 -55 0 0 25 -7 25 -45
0 -38 -25 -55 -25 -55 0 0 25 -7 25 -45 0 -38 -25 -55 -25 -55 0 0 25 -7 25
-45 0 -38 -25 -55 -25 -55 0 0 25 -7 25 -45 0 -38 -25 -55 -25 -55 0 0 25 -5
25 -47 -1 -19 -12 -36 -20 -38 -17 -2 2 24 47 58 100 34 53 87 136 117 184 30
49 65 103 78 121 12 19 22 36 22 38 0 3 -80 5 -178 5 l-177 0 -90 -143 c-49
-78 -130 -207 -180 -287 -50 -80 -115 -180 -143 -224 -29 -43 -51 -80 -49 -82
2 -2 902 -3 2000 -2 l1996 3 -51 80 c-28 44 -79 123 -113 175 -83 129 -98 152
-110 173 -12 21 -137 218 -210 332 -29 44 -65 101 -81 127 -16 26 -31 47 -34
47 -3 0 -29 -27 -59 -60z"/>
<path d="M3944 781 c-2 -2 -4 -76 -4 -163 l0 -158 143 1 c82 0 157 5 177 12
67 23 79 100 20 136 l-30 18 25 11 c27 12 40 49 31 85 -11 43 -41 52 -204 57
-85 3 -156 3 -158 1z m207 -71 c40 -22 17 -50 -42 -50 -26 0 -29 4 -29 30 0
26 4 30 26 30 14 0 34 -5 45 -10z m13 -143 c14 -22 -6 -37 -51 -37 -30 0 -33
3 -33 31 0 29 2 30 36 27 22 -2 41 -10 48 -21z"/>
<path d="M4465 774 c-105 -39 -143 -147 -85 -241 37 -61 154 -94 256 -73 48
10 67 21 102 55 40 40 42 45 42 101 0 74 -23 115 -82 145 -55 28 -174 35 -233
13z m145 -84 c29 -29 28 -106 -2 -137 -45 -48 -98 -14 -98 65 0 82 52 120 100
72z"/>
<path d="M4893 783 c-9 -3 -13 -34 -13 -107 0 -111 -11 -136 -58 -136 -19 0
-22 -6 -22 -39 0 -39 1 -40 43 -46 66 -9 128 10 148 47 7 13 16 61 19 108 l5
85 30 0 30 0 3 -117 3 -118 75 0 74 0 -2 163 -3 162 -160 1 c-88 1 -166 -1
-172 -3z"/>
<path d="M5295 781 c-6 -6 -9 -72 -7 -165 l3 -156 132 0 c73 0 148 5 168 10
54 15 84 53 84 105 0 76 -57 115 -169 115 l-65 0 -3 48 -3 47 -65 3 c-36 1
-70 -2 -75 -7z m225 -187 c28 -28 -32 -71 -77 -56 -14 4 -18 64 -6 76 10 10
65 -3 83 -20z"/>
<path d="M5690 740 l0 -50 60 0 59 0 3 -112 3 -113 72 -3 72 -3 3 113 3 113
64 5 64 5 0 36 c0 19 -3 41 -7 47 -5 9 -64 12 -202 12 l-194 0 0 -50z"/>
</g>
</svg>
