<?xml version="1.0" encoding="utf-8"?>
<!-- Generator: Adobe Illustrator 28.0.0, SVG Export Plug-In . SVG Version: 6.00 Build 0)  -->
<svg version="1.1" id="Слой_1" xmlns="http://www.w3.org/2000/svg" xmlns:xlink="http://www.w3.org/1999/xlink" x="0px" y="0px"
	 viewBox="0 0 1000 176.0963287" enable-background="new 0 0 1000 176.0963287" xml:space="preserve">
<path fill="#FF5200" d="M262.9921265,60.5960197c17.3228455,0,23.6220398,11.0236244,24.4094543,14.1732292h15.7480164
	c-1.5747986-6.2992096-9.448822-28.3464546-40.1574707-28.3464546c-23.6220551,0-41.7322845,18.8976402-41.7322845,44.0944862
	s18.1102295,43.3070908,42.5196991,43.3070908c29.9212341,0,38.5826721-22.0472488,39.3700562-27.5590591h-14.9606323
	c-1.5747986,2.3622055-7.8739929,13.3858261-24.4094238,13.3858261c-15.7480469,0-26.7716675-12.5984268-26.7716675-29.1338577
	S248.0314941,60.5960197,262.9921265,60.5960197z M336.220459,111.7771225V48.784996h-14.9606018v83.4645615h14.9606018
	l48.8189087-63.7795181v63.7795181H400V48.784996h-14.9606323L336.220459,111.7771225z M414.1732178,62.170826h33.8582764
	v70.0787354h14.9606323V62.170826h33.8582764V48.784996h-82.6771851V62.170826z M525.9842529,111.7771225V48.784996h-14.9606323
	v83.4645615h14.9606323l48.8189087-63.7795181v63.7795181h14.9606323V48.784996h-14.9606323L525.9842529,111.7771225z
	 M622.0472412,95.2416916c-2.3621826,18.8976364-4.7244263,24.4094467-15.7480469,24.4094467h-2.3621826v13.3858337h4.7244263
	c17.3228149,0,24.4094238-11.8110275,26.7716064-37.0078812l3.1496582-33.8582649h34.6456299v70.0787354h14.9606323V48.784996
	h-62.2047119L622.0472412,95.2416916z M727.559082,111.7771225V48.784996h-14.9606323v83.4645615h14.9606323l48.8188477-63.7795181
	v63.7795181h14.9606323V48.784996h-14.9606323L727.559082,111.7771225z M877.9527588,82.6432648h-46.4567261V48.784996h-15.7479858
	v83.4645615h15.7479858V96.8164902h46.4567261v35.4330673h15.7480469V48.784996h-15.7480469V82.6432648z M948.8189087,88.9424744
	l48.8189087-40.1574783h-21.2598877l-44.0944824,36.2204742V48.784996h-14.9606323v83.4645615h14.9606323V93.6668854
	l46.4567261,38.5826721H1000L948.8189087,88.9424744z M136.2204742,158.2338104l-91.3385849,17.3228455
	C21.2598419,179.4936523,0,161.3834229,0,137.7613831V37.7613754C0,14.139329,21.2598419-3.9709077,44.8818893,0.7535017
	l91.3385849,16.5354328c13.3858185,3.1496067,23.6220398,14.9606304,23.6220398,28.3464565v84.2519684
	C159.842514,144.0605927,149.6062927,155.8716125,136.2204742,158.2338104"/>
<path fill="#FFFFFF" d="M49.6063004,122.8007431V55.8716125c0-3.1496086,2.3622017-5.5118103,5.5118103-4.724411
	l66.9291306,9.4488182V45.6353912L58.2677155,36.186573c-12.598423-2.3622055-23.6220474,7.8740158-23.6220474,20.4724388
	v66.1417313c0,12.5984268,11.0236244,22.0472488,23.6220474,19.6850357l63.7795258-9.4488068v-14.9606323l-66.9291306,9.4488144
	C51.968502,128.312561,49.6063004,125.9503555,49.6063004,122.8007431"/>
</svg>
