<?xml version="1.0" encoding="utf-8"?>
<!-- Generator: Adobe Illustrator 28.0.0, SVG Export Plug-In . SVG Version: 6.00 Build 0)  -->
<svg version="1.1" id="Слой_1" xmlns="http://www.w3.org/2000/svg" xmlns:xlink="http://www.w3.org/1999/xlink" x="0px" y="0px"
	 viewBox="0 0 1000 166.7684479" enable-background="new 0 0 1000 166.7684479" xml:space="preserve">
<path fill="#E31235" d="M30.2444019,147.3256531c26.5228291,0,40.4694595-26.71035,52.6423264-62.8532181h1.9616318
	c-4.9039536,31.2248917-3.3454056,62.8532181,25.9314575,62.8532181c26.3214569,0,38.8975677-26.9120712,49.8881989-62.8532181
	h1.9615631c-5.1060181,30.64711-3.7350616,62.8532181,26.3214417,62.8532181c26.3206177,0,41.0471497-26.32061,46.7429047-62.665184
	h-18.4590302c-2.1641235,8.0478973-5.9000244,15.9077454-12.7658691,15.9077454
	c-14.3359375,0-6.4760895-23.9693069-0.2008667-54.0121498l9.0419312-43.6134872h-44.1907654
	c0,0-23.3787079,97.6256409-41.8403091,97.6256409c-13.5564575,0-6.8786545-26.7103424-1.1820526-54.4155731l8.8547287-43.2100639
	H90.7600861c-8.2495193,32.4074669-25.7297516,97.6256409-42.0410042,97.6256409
	c-5.3073692,0-6.6777153-3.3452988-6.6777153-7.6581421c0-2.7547073,0.7793159-5.6966019,1.77351-8.2496033H3.3455732
	C1.1823699,93.2998047,0,101.5494156,0,110.0007248C0,131.2161865,7.8600764,147.3256531,30.2444019,147.3256531z
	 M260.0683594,147.3256531c11.5940552,0,20.8257446-9.0419159,20.8257446-20.6240082s-9.2316895-20.6240082-20.8257446-20.6240082
	c-11.5957489,0-20.8274231,9.0282288-20.8274231,20.6240082
	C239.2409363,138.2965546,248.4726105,147.3256531,260.0683594,147.3256531z M379.6875916,100.380188
	c0,9.8222427-7.2675476,14.1487579-15.3162842,14.1487579h-28.2838745V85.8562012h28.4855652
	c9.0410461,0,15.1274109,5.4948959,15.1274109,14.5376663L379.6875916,100.380188z M336.074585,32.8107185h25.9334717
	c7.4692383,0,13.3538818,4.1248016,13.3538818,12.7641411c0,8.6393509-6.8795166,12.7641525-13.3538818,12.7641525H336.074585
	V32.797039V32.8107185z M390.8799133,70.3245239c10.6017761-4.1256561,21.2163391-13.557312,21.2163391-31.4274597
	c0-22.7871742-17.0898132-35.9410706-43.4112549-35.9410706h-68.7524109v141.4140778h69.5310364
	c26.7103271,0,46.9454651-12.9658508,46.9454651-39.2873077c0-18.4607544-11.0034485-30.6471252-25.5419617-35.1616516v0.3897324
	L390.8799133,70.3245239z M963.2733765,73.857872c0,20.0333939-12.9744263,38.1044006-36.5385742,38.1044006
	c-23.564209,0-37.5129395-17.6812515-37.5129395-38.4941483c0-20.8120346,12.9658203-38.1044044,36.5300293-38.1044044
	C949.324585,35.3637199,963.2733765,53.0449753,963.2733765,73.857872z M852.4892578,73.6561508
	c0,42.6189575,32.2197266,73.6566849,73.8609619,73.6566849C967.9827881,147.3128357,1000,115.885376,1000,73.6561508
	S967.7947998,0,926.1535645,0c-41.6326294,0-73.6515503,31.4269466-73.6515503,73.6561508H852.4892578z M666.2800293,37.3115845
	v72.6754608h-42.8214722c6.0871582-13.1538849,9.0410156-38.4941406,9.0410156-71.1027985v-1.5726585h33.7932739H666.2800293z
	 M702.4212036,109.9870453V2.9425764H598.5071411v10.8025188c0,48.5170059-2.3512573,85.2513123-13.3538818,96.2556305h-14.7265015
	v56.7677231h36.1419678v-22.3983765h80.3344116v22.3983765h36.1420288v-56.7677231h-20.6239624V109.9870453z
	 M773.9146118,109.9870453V89.1613388h59.3198853V56.7535362h-59.3198853V37.3115845h64.8139038V2.9425764H737.770874v141.4274902
	h103.1225586v-34.3693466h-66.9788208V109.9870453z M520.9273682,2.9425764l-51.6600037,80.3341293V2.9425764h-36.1436768
	v141.4274902h36.1436768l51.6600037-80.3344574v80.3344574h36.1437378V2.9425764H520.9273682z"/>
</svg>
