<?xml version="1.0" encoding="UTF-8"?>
<!DOCTYPE svg PUBLIC "-//W3C//DTD SVG 1.1//EN" "http://www.w3.org/Graphics/SVG/1.1/DTD/svg11.dtd">
<svg xmlns="http://www.w3.org/2000/svg" version="1.1" width="373px" height="186px" style="shape-rendering:geometricPrecision; text-rendering:geometricPrecision; image-rendering:optimizeQuality; fill-rule:evenodd; clip-rule:evenodd" xmlns:xlink="http://www.w3.org/1999/xlink">
<g><path style="opacity:1" fill="#ff1c2c" d="M 18.5,21.5 C 29.1719,21.3335 39.8385,21.5002 50.5,22C 64.7883,25.6188 74.7883,34.1188 80.5,47.5C 80.4095,50.1522 81.0762,52.4855 82.5,54.5C 85.9371,72.9671 79.9371,87.6337 64.5,98.5C 62.8333,98.5 61.1667,98.5 59.5,98.5C 59.5,99.5 59.5,100.5 59.5,101.5C 58.2921,102.234 56.9587,102.567 55.5,102.5C 53.5759,102.711 53.2426,103.377 54.5,104.5C 58.7607,110.693 62.7607,117.026 66.5,123.5C 66.427,125.027 67.0937,126.027 68.5,126.5C 68.427,128.027 69.0937,129.027 70.5,129.5C 70.427,131.027 71.0937,132.027 72.5,132.5C 72.427,134.027 73.0937,135.027 74.5,135.5C 76.7349,138.291 78.7349,141.291 80.5,144.5C 60.1937,146.488 39.527,147.155 18.5,146.5C 18.5,104.833 18.5,63.1667 18.5,21.5 Z"/></g>
<g><path style="opacity:1" fill="#ff858c" d="M 89.5,22.5 C 81.6484,22.1746 73.9818,22.508 66.5,23.5C 65.2438,23.5386 64.2438,23.0386 63.5,22C 72.3433,21.1764 81.0099,21.3431 89.5,22.5 Z"/></g>
<g><path style="opacity:1" fill="#ff222e" d="M 89.5,22.5 C 91.9496,22.298 94.283,22.6314 96.5,23.5C 97.8837,26.2478 99.8837,26.9145 102.5,25.5C 104.579,25.9707 106.579,26.6373 108.5,27.5C 108.821,29.0481 109.821,29.7148 111.5,29.5C 136.865,45.5785 147.031,68.5785 142,98.5C 139.6,108.632 135.1,117.632 128.5,125.5C 124.167,125.167 122.167,127.167 122.5,131.5C 112.797,140.015 101.463,145.349 88.5,147.5C 85.6771,144.525 83.3437,141.192 81.5,137.5C 82.5889,135.149 81.9222,133.149 79.5,131.5C 78.5832,130.873 77.5832,130.539 76.5,130.5C 71.0527,122.447 65.7193,114.28 60.5,106C 83.3011,93.5679 91.8011,74.7346 86,49.5C 82.3262,38.6666 75.8262,30 66.5,23.5C 73.9818,22.508 81.6484,22.1746 89.5,22.5 Z"/></g>
<g><path style="opacity:1" fill="#ff766e" d="M 96.5,23.5 C 98.7857,23.595 100.786,24.2616 102.5,25.5C 99.8837,26.9145 97.8837,26.2478 96.5,23.5 Z"/></g>
<g><path style="opacity:0.82" fill="#ff928d" d="M 108.5,27.5 C 109.71,27.9321 110.71,28.5987 111.5,29.5C 109.821,29.7148 108.821,29.0481 108.5,27.5 Z"/></g>
<g><path style="opacity:0.559" fill="#6e6c6b" d="M 152.5,29.5 C 165.327,28.3398 178.327,28.1731 191.5,29C 192.737,29.2321 193.737,29.7321 194.5,30.5C 193.178,30.33 192.011,30.6634 191,31.5C 178.415,29.5307 165.582,28.864 152.5,29.5 Z"/></g>
<g><path style="opacity:0.999" fill="#282724" d="M 325.5,43.5 C 322.103,42.8018 318.603,42.1352 315,41.5C 312.921,44.4832 312.087,47.8166 312.5,51.5C 314.5,51.5 316.5,51.5 318.5,51.5C 329.033,53.0174 338.2,57.3508 346,64.5C 352.862,81.5697 347.362,92.403 329.5,97C 317.182,99.2043 305.848,97.0377 295.5,90.5C 295.178,84.642 295.511,78.9753 296.5,73.5C 305.056,78.964 314.389,81.464 324.5,81C 329.979,80.0476 331.313,77.3809 328.5,73C 318.08,70.6544 308.413,66.6544 299.5,61C 291.409,48.7342 293.409,38.4009 305.5,30C 318.689,26.0445 331.523,26.8779 344,32.5C 344.83,38.1959 344.663,43.8625 343.5,49.5C 337.666,46.8888 331.666,44.8888 325.5,43.5 Z"/></g>
<g><path style="opacity:1" fill="#232220" d="M 152.5,29.5 C 165.582,28.864 178.415,29.5307 191,31.5C 192.011,30.6634 193.178,30.33 194.5,30.5C 206.578,34.9825 211.078,43.6492 208,56.5C 205.894,62.2716 202.061,66.4383 196.5,69C 203.133,77.1202 209.133,85.6202 214.5,94.5C 208.355,95.4902 202.022,95.8235 195.5,95.5C 189.03,87.5191 182.697,79.3524 176.5,71C 174.527,70.5045 172.527,70.3379 170.5,70.5C 169.507,78.6499 169.174,86.9832 169.5,95.5C 163.833,95.5 158.167,95.5 152.5,95.5C 152.5,73.5 152.5,51.5 152.5,29.5 Z M 170.5,43.5 C 176.262,43.1493 181.928,43.6493 187.5,45C 191.676,48.9465 191.343,52.4465 186.5,55.5C 181.167,55.5 175.833,55.5 170.5,55.5C 170.5,51.5 170.5,47.5 170.5,43.5 Z"/></g>
<g><path style="opacity:0.671" fill="#605e5f" d="M 257.5,29.5 C 246.167,29.5 234.833,29.5 223.5,29.5C 223.5,51.5 223.5,73.5 223.5,95.5C 234.5,95.5 245.5,95.5 256.5,95.5C 245.346,96.4948 234.012,96.8281 222.5,96.5C 222.5,73.8333 222.5,51.1667 222.5,28.5C 234.345,28.1717 246.012,28.5051 257.5,29.5 Z"/></g>
<g><path style="opacity:0.999" fill="#232220" d="M 257.5,29.5 C 257.833,29.5 258.167,29.5 258.5,29.5C 260.29,30.7608 261.957,32.2608 263.5,34C 261.057,36.4804 260.39,39.3138 261.5,42.5C 259.067,44.0538 256.4,44.7204 253.5,44.5C 249.167,44.5 244.833,44.5 240.5,44.5C 240.5,56.5 240.5,68.5 240.5,80.5C 250.632,82.1405 259.298,79.4738 266.5,72.5C 267.117,72.3893 267.617,72.056 268,71.5C 267.835,74.0744 268.835,76.4077 271,78.5C 274.423,80.1465 277.256,81.8132 279.5,83.5C 273.677,90.9126 266.01,94.9126 256.5,95.5C 245.5,95.5 234.5,95.5 223.5,95.5C 223.5,73.5 223.5,51.5 223.5,29.5C 234.833,29.5 246.167,29.5 257.5,29.5 Z"/></g>
<g><path style="opacity:0.998" fill="#292825" d="M 258.5,29.5 C 282.544,35.9076 291.377,51.2409 285,75.5C 283.694,78.6207 281.86,81.2874 279.5,83.5C 277.256,81.8132 274.423,80.1465 271,78.5C 268.835,76.4077 267.835,74.0744 268,71.5C 267.617,72.056 267.117,72.3893 266.5,72.5C 271.69,58.4593 267.357,49.126 253.5,44.5C 256.4,44.7204 259.067,44.0538 261.5,42.5C 260.39,39.3138 261.057,36.4804 263.5,34C 261.957,32.2608 260.29,30.7608 258.5,29.5 Z"/></g>
<g><path style="opacity:0.955" fill="#4b4a49" d="M 325.5,43.5 C 321.454,43.1499 317.62,43.8166 314,45.5C 313.753,48.7594 315.253,50.7594 318.5,51.5C 316.5,51.5 314.5,51.5 312.5,51.5C 312.087,47.8166 312.921,44.4832 315,41.5C 318.603,42.1352 322.103,42.8018 325.5,43.5 Z"/></g>
<g><path style="opacity:0.835" fill="#ff7c78" d="M 80.5,47.5 C 81.9238,49.5145 82.5905,51.8478 82.5,54.5C 81.0762,52.4855 80.4095,50.1522 80.5,47.5 Z"/></g>
<g><path style="opacity:0.188" fill="#b2b2b2" d="M 170.5,43.5 C 170.5,47.5 170.5,51.5 170.5,55.5C 175.833,55.5 181.167,55.5 186.5,55.5C 181.025,56.4889 175.358,56.8222 169.5,56.5C 169.182,51.9677 169.515,47.6344 170.5,43.5 Z"/></g>
<g><path style="opacity:0.29" fill="#b0b0ad" d="M 296.5,73.5 C 295.511,78.9753 295.178,84.642 295.5,90.5C 294.183,84.6544 294.183,78.6544 295.5,72.5C 296.107,72.6236 296.44,72.9569 296.5,73.5 Z"/></g>
<g><path style="opacity:0.447" fill="#8a8a8a" d="M 170.5,70.5 C 170.5,79.1667 170.5,87.8333 170.5,96.5C 164.31,96.8229 158.31,96.4896 152.5,95.5C 158.167,95.5 163.833,95.5 169.5,95.5C 169.174,86.9832 169.507,78.6499 170.5,70.5 Z"/></g>
<g><path style="opacity:0.447" fill="#898989" d="M 214.5,94.5 C 215.289,94.7828 215.956,95.2828 216.5,96C 209.321,96.8213 202.321,96.6546 195.5,95.5C 202.022,95.8235 208.355,95.4902 214.5,94.5 Z"/></g>
<g><path style="opacity:1" fill="#ff7f75" d="M 64.5,98.5 C 63.0351,99.7368 61.3684,100.737 59.5,101.5C 59.5,100.5 59.5,99.5 59.5,98.5C 61.1667,98.5 62.8333,98.5 64.5,98.5 Z"/></g>
<g><path style="opacity:0.125" fill="#ffc7c9" d="M 55.5,102.5 C 55.1667,103.167 54.8333,103.833 54.5,104.5C 53.2426,103.377 53.5759,102.711 55.5,102.5 Z"/></g>
<g><path style="opacity:0.99" fill="#323232" d="M 225.5,151.5 C 224.5,151.5 223.5,151.5 222.5,151.5C 222.66,149.801 222.494,148.134 222,146.5C 221.283,147.044 220.783,147.711 220.5,148.5C 212.202,155.235 204.702,154.235 198,145.5C 193.389,134.421 196.223,125.921 206.5,120C 212.322,118.497 217.155,119.997 221,124.5C 221.49,123.207 221.657,121.873 221.5,120.5C 223.167,120.5 224.833,120.5 226.5,120.5C 226.828,131.014 226.494,141.347 225.5,151.5 Z M 207.5,124.5 C 220.122,125.052 224.289,131.385 220,143.5C 211.801,150.994 205.467,149.66 201,139.5C 199.908,133.022 202.075,128.022 207.5,124.5 Z"/></g>
<g><path style="opacity:0.992" fill="#282828" d="M 244.5,119.5 C 258.255,119.758 264.422,126.758 263,140.5C 261.174,148.158 256.341,152.491 248.5,153.5C 244.539,152.769 241.039,151.103 238,148.5C 237.501,153.489 237.334,158.489 237.5,163.5C 236.167,163.5 234.833,163.5 233.5,163.5C 233.5,149.167 233.5,134.833 233.5,120.5C 234.833,120.5 236.167,120.5 237.5,120.5C 237.343,121.873 237.51,123.207 238,124.5C 239.965,122.45 242.132,120.783 244.5,119.5 Z M 244.5,124.5 C 257.837,125.496 261.671,132.162 256,144.5C 247.815,150.742 241.815,149.076 238,139.5C 236.908,133.022 239.075,128.022 244.5,124.5 Z"/></g>
<g><path style="opacity:0.993" fill="#2d2d2d" d="M 323.5,136.5 C 315.167,136.5 306.833,136.5 298.5,136.5C 298.232,138.099 298.566,139.432 299.5,140.5C 305.679,150.785 312.512,151.118 320,141.5C 321.395,141.78 322.562,142.447 323.5,143.5C 318.459,152.76 311.126,155.26 301.5,151C 293.175,142.583 292.342,133.416 299,123.5C 312.241,115.973 320.741,119.64 324.5,134.5C 324.457,135.416 324.124,136.083 323.5,136.5 Z M 305.5,124.5 C 312.175,123.358 316.842,125.858 319.5,132C 312.833,132.667 306.167,132.667 299.5,132C 300.69,128.75 302.69,126.25 305.5,124.5 Z"/></g>
<g><path style="opacity:0.78" fill="#494949" d="M 338.5,124.5 C 340.698,123.835 343.031,123.168 345.5,122.5C 339.537,121.504 333.537,121.171 327.5,121.5C 327.5,122.5 327.5,123.5 327.5,124.5C 326.566,123.432 326.232,122.099 326.5,120.5C 333.167,120.5 339.833,120.5 346.5,120.5C 346.5,121.833 346.5,123.167 346.5,124.5C 343.833,124.5 341.167,124.5 338.5,124.5 Z"/></g>
<g><path style="opacity:0.987" fill="#323232" d="M 191.5,149.5 C 190.789,151.842 189.456,152.175 187.5,150.5C 185.623,144.034 183.456,137.701 181,131.5C 177.484,138.531 173.984,145.531 170.5,152.5C 166.563,145.626 162.897,138.626 159.5,131.5C 157.029,138.044 154.862,144.711 153,151.5C 151.644,152.38 150.144,152.714 148.5,152.5C 150.836,141.493 154.169,130.826 158.5,120.5C 162.828,127.822 166.661,135.489 170,143.5C 173.757,136.319 177.257,128.986 180.5,121.5C 181.325,120.614 182.325,120.281 183.5,120.5C 186.167,130.167 188.833,139.833 191.5,149.5 Z"/></g>
<g><path style="opacity:0.989" fill="#232323" d="M 291.5,150.5 C 290.081,151.451 288.415,151.784 286.5,151.5C 282.522,147.187 278.522,142.854 274.5,138.5C 273.507,143.12 273.173,147.786 273.5,152.5C 272.167,152.5 270.833,152.5 269.5,152.5C 269.5,141.833 269.5,131.167 269.5,120.5C 270.833,120.5 272.167,120.5 273.5,120.5C 273.334,124.514 273.501,128.514 274,132.5C 277.833,128.667 281.667,124.833 285.5,121C 287.5,120.333 289.5,120.333 291.5,121C 286.833,125.667 282.167,130.333 277.5,135C 282.744,139.739 287.41,144.905 291.5,150.5 Z"/></g>
<g><path style="opacity:0.991" fill="#060606" d="M 338.5,124.5 C 338.5,133.5 338.5,142.5 338.5,151.5C 337.5,151.5 336.5,151.5 335.5,151.5C 335.827,142.318 335.493,133.318 334.5,124.5C 332.167,124.5 329.833,124.5 327.5,124.5C 327.5,123.5 327.5,122.5 327.5,121.5C 333.537,121.171 339.537,121.504 345.5,122.5C 343.031,123.168 340.698,123.835 338.5,124.5 Z"/></g>
<g><path style="opacity:0.654" fill="#595959" d="M 334.5,124.5 C 335.493,133.318 335.827,142.318 335.5,151.5C 336.5,151.5 337.5,151.5 338.5,151.5C 337.432,152.434 336.099,152.768 334.5,152.5C 334.5,143.167 334.5,133.833 334.5,124.5 Z"/></g>
<g><path style="opacity:0.514" fill="#ff8f8e" d="M 66.5,123.5 C 67.9063,123.973 68.573,124.973 68.5,126.5C 67.0937,126.027 66.427,125.027 66.5,123.5 Z"/></g>
<g><path style="opacity:1" fill="#ff6b61" d="M 128.5,125.5 C 126.833,127.833 124.833,129.833 122.5,131.5C 122.167,127.167 124.167,125.167 128.5,125.5 Z"/></g>
<g><path style="opacity:0.494" fill="#ff9192" d="M 68.5,126.5 C 69.9063,126.973 70.573,127.973 70.5,129.5C 69.0937,129.027 68.427,128.027 68.5,126.5 Z"/></g>
<g><path style="opacity:0.478" fill="#ff9394" d="M 70.5,129.5 C 71.9063,129.973 72.573,130.973 72.5,132.5C 71.0937,132.027 70.427,131.027 70.5,129.5 Z"/></g>
<g><path style="opacity:0.95" fill="#ff6861" d="M 76.5,130.5 C 77.5832,130.539 78.5832,130.873 79.5,131.5C 81.9222,133.149 82.5889,135.149 81.5,137.5C 79.6002,135.381 77.9336,133.047 76.5,130.5 Z"/></g>
<g><path style="opacity:0.478" fill="#ff9595" d="M 72.5,132.5 C 73.9063,132.973 74.573,133.973 74.5,135.5C 73.0937,135.027 72.427,134.027 72.5,132.5 Z"/></g>
<g><path style="opacity:0.024" fill="#e8e8e8" d="M 323.5,136.5 C 315.684,137.492 307.684,137.826 299.5,137.5C 299.5,138.5 299.5,139.5 299.5,140.5C 298.566,139.432 298.232,138.099 298.5,136.5C 306.833,136.5 315.167,136.5 323.5,136.5 Z"/></g>
<g><path style="opacity:0.734" fill="#ff4653" d="M 18.5,21.5 C 18.5,63.1667 18.5,104.833 18.5,146.5C 39.527,147.155 60.1937,146.488 80.5,144.5C 81.2674,145.172 81.9341,146.005 82.5,147C 60.8359,147.5 39.1692,147.667 17.5,147.5C 17.168,105.33 17.5013,63.33 18.5,21.5 Z"/></g>
<g><path style="opacity:0.277" fill="#b7b7b7" d="M 191.5,149.5 C 192.404,150.209 192.737,151.209 192.5,152.5C 190.219,152.923 188.552,152.256 187.5,150.5C 189.456,152.175 190.789,151.842 191.5,149.5 Z"/></g>
<g><path style="opacity:0.275" fill="#9e9e9e" d="M 225.5,151.5 C 224.432,152.434 223.099,152.768 221.5,152.5C 221.768,150.901 221.434,149.568 220.5,148.5C 220.783,147.711 221.283,147.044 222,146.5C 222.494,148.134 222.66,149.801 222.5,151.5C 223.5,151.5 224.5,151.5 225.5,151.5 Z"/></g>
<g><path style="opacity:0.276" fill="#b8b8b8" d="M 291.5,150.5 C 292.043,150.56 292.376,150.893 292.5,151.5C 290.364,152.793 288.364,152.793 286.5,151.5C 288.415,151.784 290.081,151.451 291.5,150.5 Z"/></g>
</svg>
