<?xml version="1.0" encoding="UTF-8"?> <svg xmlns="http://www.w3.org/2000/svg" width="4244" height="979" viewBox="0 0 4244 979" fill="none"> <g clip-path="url(#clip0_1168_7185)"> <rect x="996" y="744" width="3169" height="193" fill="white"></rect> <path d="M3336.43 651.899C3363.95 659.766 3399.32 663.697 3429.78 663.697C3460.24 663.697 3492.67 659.766 3523.13 651.899C3579.14 633.214 3616.48 613.55 3651.86 566.351C3690.18 516.205 3700.99 471.959 3702.95 409.03C3700.99 365.766 3697.06 331.352 3677.4 293.004C3650.87 241.874 3622.38 212.376 3575.21 187.794C3528.05 162.229 3478.91 154.363 3429.78 154.363C3379.67 154.363 3331.52 162.229 3284.35 187.794C3237.19 213.359 3208.69 241.874 3182.16 293.004C3162.51 331.352 3157.6 365.766 3156.61 409.03C3158.58 471.959 3171.35 518.174 3207.71 566.351C3244.07 615.515 3280.42 633.214 3336.43 651.899ZM3354.12 347.084C3361.98 334.302 3373.77 324.469 3387.53 318.569C3400.3 312.67 3416.03 308.736 3429.78 308.736C3443.54 308.736 3458.28 311.686 3472.03 318.569C3485.79 325.452 3497.59 335.285 3505.44 347.084C3516.25 365.766 3522.15 388.381 3522.15 410.013C3522.15 439.51 3513.31 461.144 3493.65 484.743C3481.86 494.575 3473.02 500.472 3464.18 503.424C3453.37 507.355 3441.57 508.338 3429.78 508.338C3417.99 508.338 3406.2 507.355 3395.39 502.442C3385.56 498.506 3376.72 492.61 3365.91 483.761C3346.26 459.179 3337.42 438.528 3337.42 409.03C3337.42 388.381 3343.31 365.766 3354.12 347.084Z" fill="#E4002B"></path> <path d="M2228.04 651.899C2255.55 659.766 2290.93 663.697 2321.39 663.697C2351.85 663.697 2384.28 659.766 2414.74 651.899C2470.75 633.214 2508.09 613.55 2543.46 566.351C2581.79 516.205 2592.59 471.959 2594.56 409.03C2592.59 365.766 2588.66 331.352 2569.01 293.004C2542.48 241.874 2513.98 212.376 2466.82 187.794C2419.65 162.229 2370.52 154.363 2321.39 154.363C2271.28 154.363 2223.13 162.229 2175.96 187.794C2128.79 213.359 2100.3 241.874 2073.77 293.004C2054.11 331.352 2049.2 365.766 2048.22 409.03C2050.18 471.959 2062.96 518.174 2099.32 566.351C2135.67 615.515 2172.03 633.214 2228.04 651.899ZM2245.73 347.084C2253.59 334.302 2265.38 324.469 2279.14 318.569C2291.91 312.67 2307.63 308.736 2321.39 308.736C2335.15 308.736 2349.89 311.686 2362.66 318.569C2376.42 325.452 2388.21 335.285 2396.07 347.084C2406.88 365.766 2412.77 388.381 2412.77 410.013C2412.77 439.51 2403.93 461.144 2384.28 484.743C2372.48 494.575 2363.64 500.472 2354.8 503.424C2343.99 507.355 2332.2 508.338 2320.41 508.338C2308.62 508.338 2296.82 507.355 2286.01 502.442C2276.19 498.506 2267.34 492.61 2256.54 483.761C2236.88 459.179 2228.04 438.528 2228.04 409.03C2229.02 388.381 2234.92 365.766 2245.73 347.084Z" fill="#E4002B"></path> <path d="M1523.49 396.26L1595.22 649.944H1737.7L1809.43 396.26L1830.07 649.944H2014.8L1947.98 162.242H1739.67L1666.96 440.507L1593.25 162.242H1383.96L1318.12 649.944H1501.87L1523.49 396.26Z" fill="#E4002B"></path> <path d="M4073.42 163.221L3941.74 405.105V163.221H3761.92V649.938H3931.92L4063.59 415.921V649.938H4243.4V163.221H4073.42Z" fill="#E4002B"></path> <path d="M2972.87 648.961C2986.63 647.978 2999.4 646.008 3012.18 641.095C3037.72 633.228 3058.36 619.461 3077.03 600.78C3099.63 577.18 3106.51 547.685 3107.49 514.253C3108.48 498.521 3105.53 483.77 3099.63 468.038C3093.74 452.305 3083.91 435.589 3070.15 422.808C3057.38 410.026 3041.66 399.21 3024.95 395.277L3002.35 389.377V388.394C3019.06 381.511 3030.85 376.595 3045.59 365.779C3060.33 354.963 3069.17 344.147 3078.01 324.481C3084.89 304.816 3085.87 290.067 3084.89 270.402C3083.91 264.502 3082.92 257.619 3080.96 251.719C3070.15 220.255 3058.36 204.523 3030.85 183.874C3006.28 171.091 2985.65 166.175 2959.11 163.225L2935.53 162.242H2673.17V649.944H2948.31C2957.15 649.944 2965.01 649.944 2972.87 648.961ZM2858.89 279.251H2876.58C2880.5 279.251 2884.43 279.251 2888.37 280.234C2893.28 281.217 2900.16 283.184 2905.07 286.134C2915.88 292.033 2919.81 302.849 2919.81 313.665C2919.81 324.481 2916.86 331.364 2910.97 336.281C2905.07 342.18 2897.21 345.13 2889.35 347.097C2885.42 348.08 2881.49 348.08 2877.56 348.08H2859.87V279.251H2858.89ZM2923.74 516.219C2918.83 525.068 2906.05 530.969 2896.23 531.952C2891.32 532.935 2886.4 532.934 2881.49 532.934H2858.89V460.171H2881.49C2886.4 460.171 2888.37 460.171 2896.23 461.154C2904.09 462.141 2912.93 466.072 2918.83 470.99C2925.71 477.87 2929.64 486.719 2929.64 496.555C2929.64 502.452 2927.67 511.301 2923.74 516.219Z" fill="#E4002B"></path> <path d="M4161.85 0H3863.13V108.16H4102.89L4161.85 0Z" fill="#E4002B"></path> <path d="M918.196 651.899C945.707 659.766 981.081 663.697 1011.55 663.697C1042.99 663.697 1074.43 659.766 1104.89 651.899C1160.9 633.214 1198.24 613.55 1233.62 566.351C1271.94 516.205 1282.75 471.959 1284.71 409.03C1282.75 365.766 1278.82 331.352 1259.17 293.004C1232.63 241.874 1204.14 212.376 1156.97 187.794C1109.8 162.229 1060.68 154.363 1011.55 154.363C961.432 154.363 913.283 162.229 866.114 187.794C818.949 213.359 790.453 241.874 763.921 293.004C744.268 331.352 739.355 365.766 738.375 409.03C740.339 471.959 753.115 518.174 789.468 566.351C825.826 615.515 862.184 633.214 918.196 651.899ZM935.881 347.084C943.743 334.302 955.534 324.469 969.29 318.569C982.066 312.67 997.786 308.736 1011.55 308.736C1025.3 308.736 1040.04 311.686 1053.8 318.569C1067.55 325.452 1079.34 335.285 1087.21 347.084C1098.01 365.766 1103.91 388.381 1103.91 410.013C1103.91 439.51 1095.07 461.144 1075.42 484.743C1063.62 494.575 1054.78 500.472 1045.93 503.424C1035.13 507.355 1023.34 508.338 1011.55 508.338C999.75 508.338 987.959 507.355 977.152 502.442C967.325 498.506 958.483 492.61 947.672 483.761C928.023 459.179 919.176 438.528 919.176 409.03C919.176 388.381 925.074 365.766 935.881 347.084Z" fill="#E4002B"></path> <path d="M272.616 0L0.428467 975.401H797.336L525.149 0H272.616ZM305.042 705.003L397.409 307.763L493.708 705.003H305.042Z" fill="#E4002B"></path> <path d="M1578.52 862.323C1578.52 855.443 1574.59 850.525 1565.75 850.525H1548.06V875.107H1565.75C1573.61 874.125 1578.52 869.207 1578.52 862.323Z" fill="#E4002B"></path> <path d="M3254.88 805.296H3231.3V811.197C3231.3 822.011 3230.31 833.813 3228.35 844.628C3226.38 856.425 3223.44 866.257 3218.52 874.124H3254.88V805.296Z" fill="#E4002B"></path> <path d="M1757.36 827.909L1752.45 807.258C1750.48 816.107 1749.5 822.991 1747.54 827.909L1740.66 851.504H1764.24L1757.36 827.909Z" fill="#E4002B"></path> <path d="M3452.39 875.107C3461.23 875.107 3469.09 872.158 3474.99 865.275C3480.89 858.391 3483.83 849.542 3483.83 839.71C3483.83 829.878 3480.89 822.011 3474.99 815.128C3469.09 808.248 3461.23 805.296 3452.39 805.296C3443.55 805.296 3435.68 808.248 3429.79 815.128C3423.89 822.011 3420.94 829.878 3420.94 839.71C3420.94 849.542 3423.89 858.391 3429.79 865.275C3435.68 871.175 3443.55 875.107 3452.39 875.107Z" fill="#E4002B"></path> <path d="M3893.59 827.909L3888.67 807.258C3886.71 816.107 3885.73 822.991 3883.76 827.909L3876.88 851.504H3900.46L3893.59 827.909Z" fill="#E4002B"></path> <path d="M1573.61 816.111C1573.61 810.21 1569.68 806.279 1562.8 806.279H1548.06V826.926H1562.8C1570.66 826.926 1573.61 822.012 1573.61 816.111Z" fill="#E4002B"></path> <path d="M884.799 975.397H4242.43V704.017H809.138L884.799 975.397ZM3872.96 780.711H3903.42L3943.71 899.686H3914.23L3907.36 875.104H3870.01L3863.14 899.686H3833.66L3872.96 780.711ZM3622.39 780.711H3653.84L3671.52 830.858L3677.42 850.522C3679.38 842.655 3681.35 835.772 3683.32 830.858L3701 780.711H3732.45L3742.27 899.686H3712.79L3708.86 846.591C3707.88 841.672 3708.86 833.806 3708.86 829.875V826.922C3705.92 834.789 3703.95 841.672 3701.99 846.591L3689.21 881.004H3664.64L3651.87 846.591L3645 826.922C3645.98 833.806 3645.98 840.69 3645 846.591L3641.06 899.686H3611.59L3622.39 780.711ZM3408.18 796.444C3419.97 784.642 3434.71 778.741 3452.4 778.741C3470.09 778.741 3484.83 784.642 3496.62 796.444C3508.41 808.241 3514.3 822.991 3514.3 839.707C3514.3 857.405 3508.41 872.155 3496.62 883.953C3484.83 895.75 3470.09 901.651 3452.4 901.651C3434.71 901.651 3419.97 895.75 3408.18 883.953C3396.39 872.155 3390.49 857.405 3390.49 839.707C3390.49 822.009 3396.39 807.258 3408.18 796.444ZM3175.3 875.104H3188.07C3197.9 857.405 3202.81 835.772 3202.81 809.224V780.711H3283.39V875.104H3297.14V923.285H3271.6V899.686H3202.81V923.285H3176.28V875.104H3175.3ZM2866.75 818.073C2866.75 800.375 2875.6 788.577 2888.37 782.676C2893.28 780.711 2901.15 779.728 2911.95 779.728H2953.22V898.703H2923.74V858.388H2912.94L2890.34 898.703H2857.91L2880.51 860.354L2885.43 853.47C2872.65 846.591 2866.75 834.789 2866.75 818.073ZM2657.46 874.121C2662.37 873.138 2666.3 871.168 2670.23 868.22C2677.11 862.319 2682.02 846.591 2682.02 819.056V779.728H2761.61V898.703H2732.14V804.306H2708.55V819.056C2708.55 847.573 2704.62 868.22 2695.78 881.004C2686.94 893.785 2674.16 899.686 2657.46 899.686V874.121ZM2443.24 875.104H2456.02C2465.84 857.405 2470.76 835.772 2470.76 809.224V780.711H2551.33V875.104H2565.09V923.285H2539.54V899.686H2470.76V923.285H2444.22V875.104H2443.24ZM2191.69 780.711H2221.17V899.686H2191.69V780.711ZM2091.46 780.711H2120.94V817.09H2139.61C2151.4 817.09 2160.25 821.022 2167.12 828.888C2174 836.754 2177.94 846.591 2177.94 858.388C2177.94 870.186 2174 880.022 2167.12 887.884C2160.25 895.75 2150.42 899.686 2139.61 899.686H2091.46V780.711ZM1903.78 780.711H1952.91C1964.7 780.711 1973.55 784.642 1980.42 792.508C1987.3 800.375 1991.24 810.207 1991.24 822.009C1991.24 833.806 1987.3 843.638 1980.42 851.504C1973.55 859.371 1963.72 863.306 1952.91 863.306H1932.28V899.686H1902.8V780.711H1903.78ZM1736.73 780.711H1767.2L1807.49 899.686H1778.01L1771.13 875.104H1733.79L1726.91 899.686H1697.43L1736.73 780.711ZM1519.57 780.711H1562.81C1587.38 780.711 1603.1 791.526 1603.1 812.172C1603.1 822.009 1598.18 831.84 1589.34 837.737C1602.12 841.672 1608.01 852.487 1608.01 864.289C1608.01 876.086 1604.08 884.936 1595.24 890.836C1586.39 896.737 1575.59 899.686 1562.81 899.686H1519.57V780.711ZM1310.28 796.444C1322.07 784.642 1336.81 778.741 1354.49 778.741C1372.18 778.741 1386.92 784.642 1398.71 796.444C1410.5 808.241 1416.4 822.991 1416.4 839.707C1416.4 857.405 1410.5 872.155 1398.71 883.953C1386.92 895.75 1372.18 901.651 1354.49 901.651C1336.81 901.651 1322.07 895.75 1310.28 883.953C1298.49 872.155 1292.59 857.405 1292.59 839.707C1292.59 822.009 1298.49 807.258 1310.28 796.444ZM1102.94 780.711H1204.15V805.293H1167.79V899.686H1138.32V805.293H1101.96V780.711H1102.94Z" fill="#E4002B"></path> <path d="M2148.45 858.392C2148.45 848.56 2143.54 841.677 2133.71 841.677H2120.94V874.125H2133.71C2143.54 874.125 2148.45 868.224 2148.45 858.392Z" fill="#E4002B"></path> <path d="M2910.96 834.796H2923.73V805.296H2913.91C2907.03 805.296 2903.09 806.279 2900.15 808.244C2897.2 810.214 2896.22 814.145 2896.22 819.063C2896.22 829.878 2901.13 834.796 2910.96 834.796Z" fill="#E4002B"></path> <path d="M2521.84 805.296H2498.26V811.197C2498.26 822.011 2497.28 833.813 2495.31 844.628C2493.35 856.425 2490.4 866.257 2485.49 874.124H2521.84V805.296Z" fill="#E4002B"></path> <path d="M1355.46 875.107C1364.31 875.107 1372.17 872.158 1378.07 865.275C1383.96 858.391 1386.91 849.542 1386.91 839.71C1386.91 829.878 1383.96 822.011 1378.07 815.128C1372.17 808.248 1364.31 805.296 1355.46 805.296C1346.62 805.296 1338.76 808.248 1332.87 815.128C1326.97 822.011 1324.02 829.878 1324.02 839.71C1324.02 849.542 1326.97 858.391 1332.87 865.275C1338.76 871.175 1346.62 875.107 1355.46 875.107Z" fill="#E4002B"></path> <path d="M1962.72 821.029C1962.72 811.197 1957.81 805.296 1947.98 805.296H1933.24V837.744H1947.98C1956.83 837.744 1962.72 830.861 1962.72 821.029Z" fill="#E4002B"></path> </g> <defs> <clipPath id="clip0_1168_7185"> <rect width="4242.98" height="978.516" fill="white" transform="translate(0.428467)"></rect> </clipPath> </defs> </svg> 