<?xml version="1.0" encoding="UTF-8"?>
<!DOCTYPE svg PUBLIC "-//W3C//DTD SVG 1.1//EN" "http://www.w3.org/Graphics/SVG/1.1/DTD/svg11.dtd">
<svg xmlns="http://www.w3.org/2000/svg" version="1.1" width="1280px" height="640px" style="shape-rendering:geometricPrecision; text-rendering:geometricPrecision; image-rendering:optimizeQuality; fill-rule:evenodd; clip-rule:evenodd" xmlns:xlink="http://www.w3.org/1999/xlink">
<g><path style="opacity:1" fill="#fe0f23" d="M 129.5,218.5 C 131.179,218.892 132.846,219.392 134.5,220C 149.43,230.046 164.263,240.213 179,250.5C 179.667,251.5 179.667,252.5 179,253.5C 133.168,285.499 86.6676,316.499 39.5,346.5C 38.8333,346.167 38.1667,345.833 37.5,345.5C 36.8443,334.878 36.5109,324.211 36.5,313.5C 36.3656,302.099 36.8656,290.765 38,279.5C 61.5,263.333 85,247.167 108.5,231C 115.436,226.529 122.436,222.363 129.5,218.5 Z"/></g>
<g><path style="opacity:0.071" fill="#2e4c87" d="M 285.5,231.5 C 321.167,231.5 356.833,231.5 392.5,231.5C 357.182,233.494 321.516,234.16 285.5,233.5C 285.5,232.833 285.5,232.167 285.5,231.5 Z"/></g>
<g><path style="opacity:1" fill="#052b6c" d="M 392.5,231.5 C 395.278,231.022 397.278,232.022 398.5,234.5C 397.553,244.097 397.219,253.597 397.5,263C 371.169,263.5 344.835,263.667 318.5,263.5C 318.5,274.5 318.5,285.5 318.5,296.5C 319.5,296.5 320.5,296.5 321.5,296.5C 332.167,297.833 342.833,297.833 353.5,296.5C 388.414,297.748 406.748,315.748 408.5,350.5C 408.16,377.995 394.827,395.495 368.5,403C 364.848,403.499 361.182,403.665 357.5,403.5C 333.672,402.502 309.672,402.169 285.5,402.5C 285.5,400.5 285.5,398.5 285.5,396.5C 287.042,397.301 288.708,397.634 290.5,397.5C 290.832,342.997 290.499,288.664 289.5,234.5C 288.833,234.5 288.167,234.5 287.5,234.5C 286.833,234.5 286.167,234.5 285.5,234.5C 285.5,234.167 285.5,233.833 285.5,233.5C 321.516,234.16 357.182,233.494 392.5,231.5 Z M 318.5,327.5 C 332.208,327.138 345.874,327.638 359.5,329C 368.813,333.122 373.479,340.289 373.5,350.5C 373.617,361.78 368.284,368.947 357.5,372C 344.504,372.5 331.504,372.667 318.5,372.5C 318.5,357.5 318.5,342.5 318.5,327.5 Z"/></g>
<g><path style="opacity:1" fill="#082a75" d="M 285.5,234.5 C 286.167,234.5 286.833,234.5 287.5,234.5C 288.167,450.5 288.833,450.5 289.5,234.5C 290.499,288.664 290.832,342.997 290.5,397.5C 288.708,397.634 287.042,397.301 285.5,396.5C 285.5,342.5 285.5,288.5 285.5,234.5 Z"/></g>
<g><path style="opacity:1" fill="#002d66" d="M 287.5,234.5 C 288.167,234.5 288.833,234.5 289.5,234.5C 288.833,450.5 288.167,450.5 287.5,234.5 Z"/></g>
<g><path style="opacity:1" fill="#052b6c" d="M 173.5,346.5 C 173.631,345.761 173.464,345.094 173,344.5C 161.85,353.364 150.016,360.864 137.5,367C 137.833,367.333 138.167,367.667 138.5,368C 133.672,371.581 128.672,374.915 123.5,378C 124.094,378.464 124.761,378.631 125.5,378.5C 114.41,385.737 103.41,393.237 92.5,401C 90.0912,402.707 87.4245,403.54 84.5,403.5C 69.6723,402.669 54.6723,402.169 39.5,402C 38.1833,389.709 38.1833,377.376 39.5,365C 44.3796,360.391 50.0463,357.058 56.5,355C 57.2958,351.93 59.2958,350.263 62.5,350C 86.4443,332.444 111.444,315.444 137.5,299C 136.584,298.722 135.918,298.222 135.5,297.5C 153.483,286.173 171.149,274.339 188.5,262C 190,261.5 191.5,261 193,260.5C 203.453,265.616 213.119,271.95 222,279.5C 223.121,285.061 223.621,290.727 223.5,296.5C 223.621,302.273 223.121,307.939 222,313.5C 206.064,324.881 189.898,335.881 173.5,346.5 Z"/></g>
<g><path style="opacity:0.141" fill="#12346a" d="M 505.5,286.5 C 499.497,285.002 493.497,283.168 487.5,281C 488.167,280.667 488.833,280.333 489.5,280C 486.845,279.436 484.179,278.936 481.5,278.5C 469.747,277.445 458.08,277.445 446.5,278.5C 462.902,275.53 479.235,276.03 495.5,280C 499.453,281.46 502.786,283.626 505.5,286.5 Z"/></g>
<g><path style="opacity:0.696" fill="#214076" d="M 1163.5,277.5 C 1164.57,278.434 1165.9,278.768 1167.5,278.5C 1167.21,282.437 1167.54,286.27 1168.5,290C 1168.17,290.167 1167.83,290.333 1167.5,290.5C 1166.51,286.893 1166.18,283.226 1166.5,279.5C 1158.17,279.5 1149.83,279.5 1141.5,279.5C 1140.5,279.5 1139.5,279.5 1138.5,279.5C 1137.83,279.5 1137.5,279.833 1137.5,280.5C 1137.17,280.5 1136.83,280.5 1136.5,280.5C 1136.5,279.5 1136.5,278.5 1136.5,277.5C 1145.5,277.5 1154.5,277.5 1163.5,277.5 Z"/></g>
<g><path style="opacity:1" fill="#052b6b" d="M 505.5,286.5 C 510.431,288.93 514.265,292.596 517,297.5C 520.314,304.123 521.814,311.123 521.5,318.5C 520.502,346.328 520.169,374.328 520.5,402.5C 510.319,402.173 500.319,402.506 490.5,403.5C 489.683,401.031 489.183,398.365 489,395.5C 483.584,400.758 477.084,403.924 469.5,405C 456.879,406.94 444.879,405.107 433.5,399.5C 418.143,386.841 413.476,370.841 419.5,351.5C 420.675,351.719 421.675,351.386 422.5,350.5C 424.531,347.922 426.364,345.256 428,342.5C 431.469,339.705 434.969,336.871 438.5,334C 454.638,330.578 470.971,329.578 487.5,331C 490.007,331.093 492.174,331.926 494,333.5C 494.494,331.866 494.66,330.199 494.5,328.5C 493.5,328.5 492.5,328.5 491.5,328.5C 491.666,323.489 491.499,318.489 491,313.5C 489.644,312.62 488.144,312.286 486.5,312.5C 485.344,309.848 483.344,308.014 480.5,307C 466.353,301.72 453.853,304.22 443,314.5C 435.478,308.312 428.645,301.478 422.5,294C 428.834,286.15 436.834,280.983 446.5,278.5C 458.08,277.445 469.747,277.445 481.5,278.5C 484.179,278.936 486.845,279.436 489.5,280C 488.833,280.333 488.167,280.667 487.5,281C 493.497,283.168 499.497,285.002 505.5,286.5 Z M 487.5,368.5 C 485.685,372.479 482.685,375.312 478.5,377C 474.822,377.418 471.155,377.918 467.5,378.5C 458.811,379.612 452.645,376.278 449,368.5C 448.032,364.104 448.865,360.104 451.5,356.5C 454.456,353.404 458.123,351.904 462.5,352C 471.16,351.5 479.827,351.334 488.5,351.5C 488.74,357.227 488.407,362.894 487.5,368.5 Z"/></g>
<g><path style="opacity:0.813" fill="#204076" d="M 561.5,282.5 C 559.952,282.179 559.285,281.179 559.5,279.5C 548.828,279.333 538.161,279.5 527.5,280C 526.944,280.383 526.611,280.883 526.5,281.5C 525.209,280.458 525.209,279.292 526.5,278C 537.5,277.333 548.5,277.333 559.5,278C 560.267,279.47 560.933,280.97 561.5,282.5 Z"/></g>
<g><path style="opacity:1" fill="#062b6b" d="M 890.5,349.5 C 863.825,349.167 837.158,349.5 810.5,350.5C 810.855,351.522 811.522,352.189 812.5,352.5C 812.946,364.775 818.946,372.942 830.5,377C 839.498,378.355 848.165,377.355 856.5,374C 860.105,371.617 863.605,369.117 867,366.5C 873.971,372.304 880.471,378.637 886.5,385.5C 873.664,399.455 857.664,406.455 838.5,406.5C 806.928,406.409 787.762,391.076 781,360.5C 778.044,342.01 779.711,324.01 786,306.5C 795.829,286.546 811.996,276.546 834.5,276.5C 862.765,276.55 880.598,290.216 888,317.5C 889.977,328.077 890.81,338.744 890.5,349.5 Z M 857.5,326.5 C 850.364,327.831 842.864,328.497 835,328.5C 827.326,328.5 819.826,328.166 812.5,327.5C 814.672,309.489 824.672,301.989 842.5,305C 851.971,308.982 856.971,316.149 857.5,326.5 Z"/></g>
<g><path style="opacity:0.886" fill="#2d4d81" d="M 1125.5,277.5 C 1092.18,279.493 1058.52,280.16 1024.5,279.5C 1024.17,279.5 1023.83,279.5 1023.5,279.5C 1022.39,279.557 1021.39,279.89 1020.5,280.5C 1020.5,279.5 1020.5,278.5 1020.5,277.5C 1055.5,277.5 1090.5,277.5 1125.5,277.5 Z"/></g>
<g><path style="opacity:1" fill="#062b6b" d="M 1168.5,396.5 C 1167.5,413.325 1167.17,430.325 1167.5,447.5C 1165.17,447.5 1162.83,447.5 1160.5,447.5C 1154.65,446.833 1148.65,446.167 1142.5,445.5C 1148.5,444.833 1154.5,444.167 1160.5,443.5C 1154.2,442.504 1147.87,442.17 1141.5,442.5C 1141.5,388.167 1141.5,333.833 1141.5,279.5C 1149.83,279.5 1158.17,279.5 1166.5,279.5C 1166.18,283.226 1166.51,286.893 1167.5,290.5C 1167.83,290.333 1168.17,290.167 1168.5,290C 1167.54,286.27 1167.21,282.437 1167.5,278.5C 1165.9,278.768 1164.57,278.434 1163.5,277.5C 1165.17,277.5 1166.83,277.5 1168.5,277.5C 1168.33,280.85 1168.5,284.183 1169,287.5C 1176.91,279.387 1186.57,275.721 1198,276.5C 1222.33,276.488 1236.66,288.488 1241,312.5C 1243.24,334.619 1242.57,356.619 1239,378.5C 1232.03,397.182 1218.37,406.515 1198,406.5C 1186.62,406.417 1176.95,402.417 1169,394.5C 1168.54,395.094 1168.37,395.761 1168.5,396.5 Z M 1197.5,375.5 C 1192.17,375.5 1186.83,375.5 1181.5,375.5C 1180,373.821 1178.17,372.488 1176,371.5C 1171.98,365.113 1169.65,358.113 1169,350.5C 1166.86,336.699 1169.03,323.699 1175.5,311.5C 1179.34,307.579 1184.01,305.913 1189.5,306.5C 1199.79,306.397 1205.96,311.397 1208,321.5C 1209.97,334.169 1209.97,346.836 1208,359.5C 1207.21,362.851 1206.04,366.018 1204.5,369C 1202.29,371.378 1199.96,373.544 1197.5,375.5 Z"/></g>
<g><path style="opacity:1" fill="#062b6b" d="M 643.5,279.5 C 624.66,330.218 605.826,380.884 587,431.5C 578.901,445.718 566.568,452.051 550,450.5C 546.582,450.481 543.249,450.147 540,449.5C 539.333,440.167 539.333,430.833 540,421.5C 545.92,420.889 551.753,419.722 557.5,418C 560.409,414.626 562.576,410.793 564,406.5C 564.876,402.415 566.042,398.415 567.5,394.5C 553.974,356.694 540.307,319.028 526.5,281.5C 526.611,280.883 526.944,280.383 527.5,280C 538.161,279.5 548.828,279.333 559.5,279.5C 559.285,281.179 559.952,282.179 561.5,282.5C 569.009,305.871 576.842,329.205 585,352.5C 591.034,333.328 597.201,314.328 603.5,295.5C 603.682,297.591 603.348,299.591 602.5,301.5C 602.846,302.696 603.346,302.696 604,301.5C 605.926,296.634 607.593,291.634 609,286.5C 609.497,284.19 609.663,281.857 609.5,279.5C 621.043,279.445 632.376,279.445 643.5,279.5 Z"/></g>
<g><path style="opacity:1" fill="#052b6c" d="M 685.5,278.5 C 686.167,278.5 686.5,278.833 686.5,279.5C 685.167,293.985 684.501,308.818 684.5,324C 684.904,341.982 684.904,359.815 684.5,377.5C 698.171,377.667 711.837,377.5 725.5,377C 726.337,375.989 726.67,374.822 726.5,373.5C 726.5,342.167 726.5,310.833 726.5,279.5C 736.5,279.5 746.5,279.5 756.5,279.5C 756.168,311.338 756.502,343.004 757.5,374.5C 762.651,375.327 767.984,375.827 773.5,376C 774.252,376.671 774.586,377.504 774.5,378.5C 773.167,378.5 771.833,378.5 770.5,378.5C 770.5,396.5 770.5,414.5 770.5,432.5C 771.5,432.5 772.5,432.5 773.5,432.5C 773.5,433.5 773.5,434.5 773.5,435.5C 763.251,435.819 753.084,435.486 743,434.5C 743.754,424.165 743.587,413.832 742.5,403.5C 714.241,402.501 685.241,402.167 655.5,402.5C 655.36,400.876 656.027,399.71 657.5,399C 655.509,359.387 654.843,319.553 655.5,279.5C 665.552,279.784 675.552,279.45 685.5,278.5 Z"/></g>
<g><path style="opacity:1" fill="#052c6c" d="M 940.5,324.5 C 940.389,325.117 940.056,325.617 939.5,326C 946,326.167 952.5,326.333 959,326.5C 966.267,326.632 973.434,326.132 980.5,325C 978.526,310.076 977.859,294.909 978.5,279.5C 988.167,279.5 997.833,279.5 1007.5,279.5C 1008.17,320.736 1008.84,362.069 1009.5,403.5C 998.723,403.582 987.723,403.582 976.5,403.5C 976.5,387.167 976.5,370.833 976.5,354.5C 963.833,354.5 951.167,354.5 938.5,354.5C 938.83,371.009 938.496,387.342 937.5,403.5C 927.681,402.506 917.681,402.173 907.5,402.5C 907.667,361.499 907.5,320.499 907,279.5C 906.5,320.832 906.333,362.165 906.5,403.5C 905.501,361.67 905.168,319.67 905.5,277.5C 916.5,277.5 927.5,277.5 938.5,277.5C 937.849,293.536 938.516,309.202 940.5,324.5 Z"/></g>
<g><path style="opacity:1" fill="#01286e" d="M 1023.5,279.5 C 1023.67,287.84 1023.5,296.173 1023,304.5C 1022.58,305.756 1021.75,306.423 1020.5,306.5C 1020.5,297.833 1020.5,289.167 1020.5,280.5C 1021.39,279.89 1022.39,279.557 1023.5,279.5 Z"/></g>
<g><path style="opacity:1" fill="#062c6d" d="M 1125.5,277.5 C 1126.83,287.235 1126.83,297.069 1125.5,307C 1113.84,307.5 1102.17,307.667 1090.5,307.5C 1090.83,339.671 1090.5,371.671 1089.5,403.5C 1078.83,402.167 1068.17,402.167 1057.5,403.5C 1056.51,396.018 1056.17,388.352 1056.5,380.5C 1057.33,385.651 1057.83,390.984 1058,396.5C 1058.5,366.168 1058.67,335.835 1058.5,305.5C 1047.17,305.5 1035.83,305.5 1024.5,305.5C 1024.5,296.833 1024.5,288.167 1024.5,279.5C 1058.52,280.16 1092.18,279.493 1125.5,277.5 Z"/></g>
<g><path style="opacity:1" fill="#042b74" d="M 1138.5,279.5 C 1139.5,279.5 1140.5,279.5 1141.5,279.5C 1141.5,333.833 1141.5,388.167 1141.5,442.5C 1147.87,442.17 1154.2,442.504 1160.5,443.5C 1154.5,444.167 1148.5,444.833 1142.5,445.5C 1148.65,446.167 1154.65,446.833 1160.5,447.5C 1153.17,447.5 1145.83,447.5 1138.5,447.5C 1138.5,391.5 1138.5,335.5 1138.5,279.5 Z"/></g>
<g><path style="opacity:0.567" fill="#001c5f" d="M 726.5,279.5 C 726.5,310.833 726.5,342.167 726.5,373.5C 725.833,373.833 725.167,374.167 724.5,374.5C 724.5,343.167 724.5,311.833 724.5,280.5C 725.167,280.167 725.833,279.833 726.5,279.5 Z"/></g>
<g><path style="opacity:0.275" fill="#012d73" d="M 1136.5,280.5 C 1136.83,280.5 1137.17,280.5 1137.5,280.5C 1137.17,337.238 1137.5,393.905 1138.5,450.5C 1136.5,394.176 1135.84,337.51 1136.5,280.5 Z"/></g>
<g><path style="opacity:0.507" fill="#0a3069" d="M 686.5,279.5 C 686.5,311.5 686.5,343.5 686.5,375.5C 699.344,375.829 712.011,375.495 724.5,374.5C 725.167,374.167 725.833,373.833 726.5,373.5C 726.67,374.822 726.337,375.989 725.5,377C 711.837,377.5 698.171,377.667 684.5,377.5C 684.904,359.815 684.904,341.982 684.5,324C 684.501,308.818 685.167,293.985 686.5,279.5 Z"/></g>
<g><path style="opacity:0.235" fill="#17346b" d="M 643.5,279.5 C 632.376,279.445 621.043,279.445 609.5,279.5C 609.663,281.857 609.497,284.19 609,286.5C 607.593,291.634 605.926,296.634 604,301.5C 603.346,302.696 602.846,302.696 602.5,301.5C 603.348,299.591 603.682,297.591 603.5,295.5C 605.064,289.502 607.064,283.669 609.5,278C 615.167,277.833 620.833,277.667 626.5,277.5C 632.542,277.504 638.208,278.171 643.5,279.5 Z"/></g>
<g><path style="opacity:0.453" fill="#284977" d="M 353.5,296.5 C 342.833,297.833 332.167,297.833 321.5,296.5C 332.172,295.32 342.839,295.32 353.5,296.5 Z"/></g>
<g><path style="opacity:0.823" fill="#0a346c" d="M 685.5,278.5 C 675.552,279.45 665.552,279.784 655.5,279.5C 654.843,319.553 655.509,359.387 657.5,399C 656.027,399.71 655.36,400.876 655.5,402.5C 654.5,402.5 653.5,402.5 652.5,402.5C 652.333,361.165 652.5,319.832 653,278.5C 663.931,277.171 674.765,277.171 685.5,278.5 Z"/></g>
<g><path style="opacity:0.09" fill="#21407b" d="M 1010.5,279.5 C 1009.35,278.375 1008.35,278.375 1007.5,279.5C 997.833,279.5 988.167,279.5 978.5,279.5C 977.859,294.909 978.526,310.076 980.5,325C 973.434,326.132 966.267,326.632 959,326.5C 952.5,326.333 946,326.167 939.5,326C 940.056,325.617 940.389,325.117 940.5,324.5C 952.5,324.5 964.5,324.5 976.5,324.5C 976.5,308.833 976.5,293.167 976.5,277.5C 988.216,276.856 999.549,277.522 1010.5,279.5 Z"/></g>
<g><path style="opacity:0.035" fill="#0d3a71" d="M 757.5,374.5 C 756.502,343.004 756.168,311.338 756.5,279.5C 746.5,279.5 736.5,279.5 726.5,279.5C 725.833,279.833 725.167,280.167 724.5,280.5C 724.5,279.5 724.5,278.5 724.5,277.5C 735.5,277.5 746.5,277.5 757.5,277.5C 757.5,309.833 757.5,342.167 757.5,374.5 Z"/></g>
<g><path style="opacity:0.891" fill="#1e446a" d="M 1007.5,279.5 C 1008.35,278.375 1009.35,278.375 1010.5,279.5C 1010.83,321.003 1010.5,362.337 1009.5,403.5C 1008.84,362.069 1008.17,320.736 1007.5,279.5 Z"/></g>
<g><path style="opacity:0.801" fill="#1e376e" d="M 1023.5,279.5 C 1023.83,279.5 1024.17,279.5 1024.5,279.5C 1024.5,288.167 1024.5,296.833 1024.5,305.5C 1035.83,305.5 1047.17,305.5 1058.5,305.5C 1058.67,335.835 1058.5,366.168 1058,396.5C 1057.83,390.984 1057.33,385.651 1056.5,380.5C 1056.5,356.167 1056.5,331.833 1056.5,307.5C 1044.32,307.828 1032.32,307.495 1020.5,306.5C 1021.75,306.423 1022.58,305.756 1023,304.5C 1023.5,296.173 1023.67,287.84 1023.5,279.5 Z"/></g>
<g><path style="opacity:0.945" fill="#04275a" d="M 1138.5,279.5 C 1138.5,335.5 1138.5,391.5 1138.5,447.5C 1145.83,447.5 1153.17,447.5 1160.5,447.5C 1162.83,447.5 1165.17,447.5 1167.5,447.5C 1167.17,430.325 1167.5,413.325 1168.5,396.5C 1168.5,414.5 1168.5,432.5 1168.5,450.5C 1158.5,450.5 1148.5,450.5 1138.5,450.5C 1137.5,393.905 1137.17,337.238 1137.5,280.5C 1137.5,279.833 1137.83,279.5 1138.5,279.5 Z"/></g>
<g><path style="opacity:0.147" fill="#0a295e" d="M 486.5,312.5 C 488.144,312.286 489.644,312.62 491,313.5C 491.499,318.489 491.666,323.489 491.5,328.5C 492.5,328.5 493.5,328.5 494.5,328.5C 494.66,330.199 494.494,331.866 494,333.5C 492.174,331.926 490.007,331.093 487.5,331C 470.971,329.578 454.638,330.578 438.5,334C 434.969,336.871 431.469,339.705 428,342.5C 426.364,345.256 424.531,347.922 422.5,350.5C 421.675,351.386 420.675,351.719 419.5,351.5C 425.75,337.987 436.417,330.487 451.5,329C 463.829,328.5 476.162,328.333 488.5,328.5C 488.666,323.821 488.499,319.155 488,314.5C 487.283,313.956 486.783,313.289 486.5,312.5 Z"/></g>
<g><path style="opacity:1" fill="#07265b" d="M 812.5,327.5 C 819.826,328.166 827.326,328.5 835,328.5C 842.864,328.497 850.364,327.831 857.5,326.5C 858.117,326.389 858.617,326.056 859,325.5C 859.494,327.134 859.66,328.801 859.5,330.5C 843.151,330.317 826.818,330.65 810.5,331.5C 810.338,329.473 810.505,327.473 811,325.5C 811.278,326.416 811.778,327.082 812.5,327.5 Z"/></g>
<g><path style="opacity:0.747" fill="#071e59" d="M 135.5,297.5 C 135.918,298.222 136.584,298.722 137.5,299C 111.444,315.444 86.4443,332.444 62.5,350C 59.2958,350.263 57.2958,351.93 56.5,355C 50.0463,357.058 44.3796,360.391 39.5,365C 38.1833,377.376 38.1833,389.709 39.5,402C 54.6723,402.169 69.6723,402.669 84.5,403.5C 68.8192,403.833 53.1525,403.499 37.5,402.5C 36.853,396.381 36.5196,390.214 36.5,384C 36.3913,377.091 36.8913,370.257 38,363.5C 70.4567,341.361 102.957,319.361 135.5,297.5 Z"/></g>
<g><path style="opacity:1" fill="#052b6c" d="M 220.5,403.5 C 185.5,402.167 150.5,402.167 115.5,403.5C 114.624,403.631 113.957,403.298 113.5,402.5C 114.305,400.528 115.639,399.028 117.5,398C 151.839,375.498 186.172,352.998 220.5,330.5C 221.647,330.818 222.481,331.484 223,332.5C 223.667,355.5 223.667,378.5 223,401.5C 222.583,402.756 221.75,403.423 220.5,403.5 Z"/></g>
<g><path style="opacity:0.847" fill="#011c4e" d="M 937.5,403.5 C 927.142,403.524 916.809,403.524 906.5,403.5C 906.333,362.165 906.5,320.832 907,279.5C 907.5,320.499 907.667,361.499 907.5,402.5C 917.681,402.173 927.681,402.506 937.5,403.5 Z"/></g>
<g><path style="opacity:0.532" fill="#06275c" d="M 487.5,368.5 C 488.407,362.894 488.74,357.227 488.5,351.5C 479.827,351.334 471.16,351.5 462.5,352C 458.123,351.904 454.456,353.404 451.5,356.5C 450.782,354.863 450.616,353.197 451,351.5C 454.153,352.232 457.32,351.899 460.5,350.5C 470.35,349.798 480.183,349.131 490,348.5C 491.171,349.34 492.338,350.173 493.5,351C 491.235,356.821 490.235,362.987 490.5,369.5C 489.209,369.737 488.209,369.404 487.5,368.5 Z"/></g>
<g><path style="opacity:0.658" fill="#002154" d="M 890.5,349.5 C 864.683,351.164 838.683,352.164 812.5,352.5C 811.522,352.189 810.855,351.522 810.5,350.5C 837.158,349.5 863.825,349.167 890.5,349.5 Z"/></g>
<g><path style="opacity:0.345" fill="#011a59" d="M 173.5,346.5 C 157.795,357.526 141.795,368.192 125.5,378.5C 124.761,378.631 124.094,378.464 123.5,378C 128.672,374.915 133.672,371.581 138.5,368C 138.167,367.667 137.833,367.333 137.5,367C 150.016,360.864 161.85,353.364 173,344.5C 173.464,345.094 173.631,345.761 173.5,346.5 Z"/></g>
<g><path style="opacity:0.141" fill="#223f6d" d="M 1181.5,375.5 C 1186.83,375.5 1192.17,375.5 1197.5,375.5C 1198.04,375.56 1198.38,375.893 1198.5,376.5C 1192.59,377.941 1186.93,377.608 1181.5,375.5 Z"/></g>
<g><path style="opacity:1" fill="#152972" d="M 770.5,378.5 C 768.841,396.148 767.841,414.148 767.5,432.5C 766.5,414.179 766.167,395.845 766.5,377.5C 768.099,377.232 769.432,377.566 770.5,378.5 Z"/></g>
<g><path style="opacity:1" fill="#062b71" d="M 770.5,378.5 C 771.833,378.5 773.167,378.5 774.5,378.5C 773.514,396.423 773.181,414.423 773.5,432.5C 772.5,432.5 771.5,432.5 770.5,432.5C 770.5,414.5 770.5,396.5 770.5,378.5 Z"/></g>
<g><path style="opacity:0.715" fill="#081c51" d="M 521.5,318.5 C 521.175,346.544 521.509,374.544 522.5,402.5C 522.113,403.72 521.28,404.387 520,404.5C 509.997,403.533 500.164,403.2 490.5,403.5C 500.319,402.506 510.319,402.173 520.5,402.5C 520.169,374.328 520.502,346.328 521.5,318.5 Z"/></g>
<g><path style="opacity:0.779" fill="#000c42" d="M 115.5,403.5 C 150.5,402.167 185.5,402.167 220.5,403.5C 185.503,404.595 150.503,404.595 115.5,403.5 Z"/></g>
<g><path style="opacity:0.782" fill="#001852" d="M 285.5,231.5 C 285.5,232.167 285.5,232.833 285.5,233.5C 285.5,233.833 285.5,234.167 285.5,234.5C 285.5,288.5 285.5,342.5 285.5,396.5C 285.5,398.5 285.5,400.5 285.5,402.5C 309.672,402.169 333.672,402.502 357.5,403.5C 332.854,404.373 308.187,404.373 283.5,403.5C 283.333,346.499 283.5,289.499 284,232.5C 284.383,231.944 284.883,231.611 285.5,231.5 Z"/></g>
<g><path style="opacity:0.786" fill="#000c45" d="M 652.5,402.5 C 653.5,402.5 654.5,402.5 655.5,402.5C 685.241,402.167 714.241,402.501 742.5,403.5C 713.129,404.344 683.796,404.677 654.5,404.5C 653.478,404.145 652.811,403.478 652.5,402.5 Z"/></g>
<g><path style="opacity:0.765" fill="#000842" d="M 1057.5,403.5 C 1068.17,402.167 1078.83,402.167 1089.5,403.5C 1078.83,403.5 1068.17,403.5 1057.5,403.5 Z"/></g>
</svg>
