<?xml version="1.0" encoding="UTF-8"?>
<!DOCTYPE svg PUBLIC "-//W3C//DTD SVG 1.1//EN" "http://www.w3.org/Graphics/SVG/1.1/DTD/svg11.dtd">
<svg xmlns="http://www.w3.org/2000/svg" version="1.1" width="1280px" height="640px" style="shape-rendering:geometricPrecision; text-rendering:geometricPrecision; image-rendering:optimizeQuality; fill-rule:evenodd; clip-rule:evenodd" xmlns:xlink="http://www.w3.org/1999/xlink">
<g><path style="opacity:0.997" fill="#272624" d="M 779.5,80.5 C 783.182,80.3347 786.848,80.5014 790.5,81C 791.332,87.8335 795.165,91.0002 802,90.5C 809.387,91.2264 813.22,87.8931 813.5,80.5C 817.5,80.5 821.5,80.5 825.5,80.5C 822.615,99.8589 811.615,107.026 792.5,102C 789.751,100.877 787.251,99.3773 785,97.5C 784.163,95.1558 782.829,93.1558 781,91.5C 779.632,87.7752 779.132,84.1085 779.5,80.5 Z"/></g>
<g><path style="opacity:0.086" fill="#444441" d="M 472.5,110.5 C 471.883,110.611 471.383,110.944 471,111.5C 458.572,106.395 445.739,105.228 432.5,108C 427.994,109.172 423.827,111.005 420,113.5C 419.53,112.423 419.697,111.423 420.5,110.5C 435.013,103.971 450.013,102.805 465.5,107C 468.069,107.898 470.402,109.065 472.5,110.5 Z"/></g>
<g><path style="opacity:0.18" fill="#4d4d4c" d="M 102.5,109.5 C 74.9073,108.509 47.2407,108.176 19.5,108.5C 19.8214,114.026 19.4881,119.36 18.5,124.5C 18.2916,118.625 18.2916,112.625 18.5,106.5C 46.5,106.5 74.5,106.5 102.5,106.5C 102.5,107.5 102.5,108.5 102.5,109.5 Z"/></g>
<g><path style="opacity:0.999" fill="#262522" d="M 1092.5,120.5 C 1099.05,128.266 1103.21,137.266 1105,147.5C 1108.1,166.206 1104.26,183.206 1093.5,198.5C 1082.78,209.491 1069.61,214.824 1054,214.5C 1022.68,213.177 1005.68,196.844 1003,165.5C 1002,151.332 1004.83,137.998 1011.5,125.5C 1011.96,124.702 1012.62,124.369 1013.5,124.5C 1030.59,106.862 1050.93,102.029 1074.5,110C 1080.86,112.843 1086.52,116.677 1091.5,121.5C 1092.11,121.376 1092.44,121.043 1092.5,120.5 Z M 1051.5,124.5 C 1069,124.498 1078.83,133.165 1081,150.5C 1081.99,159.631 1081.33,168.631 1079,177.5C 1072.52,190.609 1062.02,195.776 1047.5,193C 1036.96,190.126 1030.46,183.292 1028,172.5C 1026.02,161.645 1026.68,150.978 1030,140.5C 1031.3,136.726 1033.47,133.559 1036.5,131C 1041.15,127.771 1046.15,125.604 1051.5,124.5 Z"/></g>
<g><path style="opacity:0.467" fill="#3f3e3b" d="M 1092.5,120.5 C 1092.44,121.043 1092.11,121.376 1091.5,121.5C 1086.52,116.677 1080.86,112.843 1074.5,110C 1050.93,102.029 1030.59,106.862 1013.5,124.5C 1017.45,116.393 1023.78,110.893 1032.5,108C 1051.07,101.895 1068.74,103.728 1085.5,113.5C 1087.88,115.881 1090.21,118.215 1092.5,120.5 Z"/></g>
<g><path style="opacity:1" fill="#262522" d="M 175.5,107.5 C 193.25,113.611 204.083,125.945 208,144.5C 208.667,154.5 208.667,164.5 208,174.5C 199.594,204.476 179.761,217.642 148.5,214C 130.948,211.788 118.448,202.622 111,186.5C 103.353,167.485 103.853,148.818 112.5,130.5C 113.496,130.586 114.329,130.252 115,129.5C 127.006,110.811 144.173,103.311 166.5,107C 169.573,108.065 172.573,108.232 175.5,107.5 Z M 154.5,124.5 C 173.131,124.632 183.298,133.965 185,152.5C 186.335,163.492 184.335,173.826 179,183.5C 171.596,192.405 162.096,195.571 150.5,193C 137.222,188.32 130.388,178.82 130,164.5C 127.99,150.318 132.156,138.485 142.5,129C 146.496,127.18 150.496,125.68 154.5,124.5 Z"/></g>
<g><path style="opacity:0.702" fill="#4a4a48" d="M 303.5,129.5 C 300.192,123.997 296.192,118.83 291.5,114C 289.112,112.139 286.446,110.806 283.5,110C 263.465,108.228 243.465,108.062 223.5,109.5C 223.5,108.5 223.5,107.5 223.5,106.5C 243.879,106.06 264.212,106.56 284.5,108C 294.588,111.917 300.921,119.084 303.5,129.5 Z"/></g>
<g><path style="opacity:0.718" fill="#525251" d="M 325.5,106.5 C 348.006,106.169 370.34,106.503 392.5,107.5C 369.67,108.663 346.67,108.83 323.5,108C 324.416,107.722 325.082,107.222 325.5,106.5 Z"/></g>
<g><path style="opacity:0.999" fill="#272623" d="M 472.5,110.5 C 487.859,118.393 496.359,131.059 498,148.5C 500.182,163.917 497.849,178.584 491,192.5C 480.402,207.721 465.736,215.054 447,214.5C 413.248,212.242 396.082,194.075 395.5,160C 394.744,141.644 401.077,126.31 414.5,114C 416.664,112.978 418.664,111.811 420.5,110.5C 419.697,111.423 419.53,112.423 420,113.5C 423.827,111.005 427.994,109.172 432.5,108C 445.739,105.228 458.572,106.395 471,111.5C 471.383,110.944 471.883,110.611 472.5,110.5 Z M 444.5,124.5 C 461.989,124.49 471.822,133.156 474,150.5C 475.43,161.211 474.097,171.544 470,181.5C 462.797,191.771 452.963,195.605 440.5,193C 429.934,190.1 423.434,183.266 421,172.5C 418.303,159.603 419.803,147.27 425.5,135.5C 430.576,129.468 436.91,125.801 444.5,124.5 Z"/></g>
<g><path style="opacity:0.715" fill="#515150" d="M 586.5,112.5 C 586.631,113.376 586.298,114.043 585.5,114.5C 581.354,111.395 576.687,109.561 571.5,109C 551.628,108.532 531.961,108.366 512.5,108.5C 512.611,107.883 512.944,107.383 513.5,107C 533.5,106.333 553.5,106.333 573.5,107C 578.335,107.774 582.668,109.608 586.5,112.5 Z"/></g>
<g><path style="opacity:0.704" fill="#515151" d="M 985.5,107.5 C 961.264,108.176 936.931,108.843 912.5,109.5C 912.5,108.5 912.5,107.5 912.5,106.5C 937.006,106.169 961.339,106.502 985.5,107.5 Z"/></g>
<g><path style="opacity:0.68" fill="#4c4d4b" d="M 1222.5,109.5 C 1211.3,108.197 1200.14,108.197 1189,109.5C 1188.54,108.906 1188.37,108.239 1188.5,107.5C 1199.33,106.341 1210.33,106.174 1221.5,107C 1222.25,107.671 1222.59,108.504 1222.5,109.5 Z"/></g>
<g><path style="opacity:1" fill="#262623" d="M 102.5,109.5 C 102.5,115.167 102.5,120.833 102.5,126.5C 92.5,126.5 82.5,126.5 72.5,126.5C 72.5,155.167 72.5,183.833 72.5,212.5C 64.5803,212.815 56.747,212.482 49,211.5C 48.5,183.169 48.3334,154.835 48.5,126.5C 38.1107,127.141 28.1107,126.474 18.5,124.5C 19.4881,119.36 19.8214,114.026 19.5,108.5C 47.2407,108.176 74.9073,108.509 102.5,109.5 Z"/></g>
<g><path style="opacity:1" fill="#272623" d="M 303.5,129.5 C 307.429,143.117 304.429,155.117 294.5,165.5C 290.495,168.342 286.161,170.509 281.5,172C 269.858,173.105 258.192,173.605 246.5,173.5C 246.5,186.5 246.5,199.5 246.5,212.5C 238.833,212.5 231.167,212.5 223.5,212.5C 223.5,178.167 223.5,143.833 223.5,109.5C 243.465,108.062 263.465,108.228 283.5,110C 286.446,110.806 289.112,112.139 291.5,114C 296.192,118.83 300.192,123.997 303.5,129.5 Z M 246.5,126.5 C 254.507,126.334 262.507,126.5 270.5,127C 282.123,132.197 284.123,139.864 276.5,150C 273.382,151.727 270.049,152.561 266.5,152.5C 260.089,153.267 253.756,153.6 247.5,153.5C 246.502,144.525 246.168,135.525 246.5,126.5 Z"/></g>
<g><path style="opacity:1" fill="#272623" d="M 512.5,108.5 C 531.961,108.366 551.628,108.532 571.5,109C 576.687,109.561 581.354,111.395 585.5,114.5C 586.298,114.043 586.631,113.376 586.5,112.5C 597.256,122.776 599.423,134.776 593,148.5C 590.651,151.017 588.151,153.35 585.5,155.5C 599.309,163.132 604.475,174.799 601,190.5C 597.052,203.118 588.552,210.285 575.5,212C 554.503,212.5 533.503,212.667 512.5,212.5C 512.5,177.833 512.5,143.167 512.5,108.5 Z M 535.5,126.5 C 546.172,126.333 556.839,126.5 567.5,127C 571.756,128.754 573.756,131.92 573.5,136.5C 573.81,140.694 572.143,143.861 568.5,146C 557.58,148.548 546.58,149.048 535.5,147.5C 535.5,140.5 535.5,133.5 535.5,126.5 Z M 561.5,192.5 C 552.833,192.5 544.167,192.5 535.5,192.5C 535.334,184.493 535.5,176.493 536,168.5C 547.45,167.344 558.95,167.511 570.5,169C 577.992,173.477 579.825,179.643 576,187.5C 572.124,191.844 567.291,193.511 561.5,192.5 Z"/></g>
<g><path style="opacity:0.999" fill="#272623" d="M 1188.5,107.5 C 1188.37,108.239 1188.54,108.906 1189,109.5C 1200.14,108.197 1211.3,108.197 1222.5,109.5C 1221.17,143.137 1221.17,176.804 1222.5,210.5C 1222.29,211.086 1221.96,211.586 1221.5,212C 1214.17,212.5 1206.84,212.666 1199.5,212.5C 1199.67,190.164 1199.5,167.831 1199,145.5C 1193.02,167.419 1187.35,189.419 1182,211.5C 1174.56,212.813 1167.06,212.813 1159.5,211.5C 1153.4,187.178 1147.23,162.844 1141,138.5C 1140.5,163.164 1140.33,187.831 1140.5,212.5C 1133.5,212.5 1126.5,212.5 1119.5,212.5C 1119.5,177.167 1119.5,141.833 1119.5,106.5C 1130.83,106.5 1142.17,106.5 1153.5,106.5C 1158.69,128.971 1164.53,151.304 1171,173.5C 1176.37,151.254 1182.2,129.254 1188.5,107.5 Z"/></g>
<g><path style="opacity:1" fill="#272623" d="M 325.5,106.5 C 325.082,107.222 324.416,107.722 323.5,108C 346.67,108.83 369.67,108.663 392.5,107.5C 393.826,113.568 393.826,119.734 392.5,126C 376.503,126.5 360.503,126.667 344.5,126.5C 344.5,155.167 344.5,183.833 344.5,212.5C 336.5,212.5 328.5,212.5 320.5,212.5C 320.333,177.498 320.5,142.498 321,107.5C 322.356,106.62 323.856,106.286 325.5,106.5 Z"/></g>
<g><path style="opacity:1" fill="#272624" d="M 618.5,106.5 C 626.167,106.5 633.833,106.5 641.5,106.5C 641.5,120.5 641.5,134.5 641.5,148.5C 655.171,148.333 668.837,148.5 682.5,149C 698.255,153.835 706.589,164.501 707.5,181C 706.324,197.716 697.658,208.049 681.5,212C 660.26,212.826 639.094,212.66 618,211.5C 618.483,176.435 618.65,141.435 618.5,106.5 Z M 668.5,192.5 C 660.833,192.5 653.167,192.5 645.5,192.5C 644.167,192.5 642.833,192.5 641.5,192.5C 641.5,184.5 641.5,176.5 641.5,168.5C 652.505,168.333 663.505,168.5 674.5,169C 682.436,172.527 684.602,178.361 681,186.5C 677.787,190.524 673.62,192.524 668.5,192.5 Z"/></g>
<g><path style="opacity:1" fill="#282724" d="M 717.5,106.5 C 724.863,106.169 732.197,106.503 739.5,107.5C 739.833,108.167 740.167,108.833 740.5,109.5C 739.173,142.814 739.173,176.148 740.5,209.5C 740.392,210.442 740.059,211.275 739.5,212C 731.841,212.5 724.174,212.666 716.5,212.5C 716.174,177.094 716.507,141.76 717.5,106.5 Z"/></g>
<g><path style="opacity:0.999" fill="#262522" d="M 781.5,109.5 C 781.333,130.169 781.5,150.836 782,171.5C 794.867,150.416 807.7,129.416 820.5,108.5C 827.833,108.5 835.167,108.5 842.5,108.5C 841.84,142.85 842.507,176.85 844.5,210.5C 837.576,212.463 830.243,213.13 822.5,212.5C 822.413,190.474 822.58,168.474 823,146.5C 809.914,168.587 796.414,190.42 782.5,212C 776.175,212.5 769.842,212.666 763.5,212.5C 761.529,177.987 760.863,143.32 761.5,108.5C 768.255,108.207 774.922,108.54 781.5,109.5 Z"/></g>
<g><path style="opacity:1" fill="#262522" d="M 985.5,107.5 C 985.652,135.011 985.819,162.678 986,190.5C 988.456,192.321 991.289,192.988 994.5,192.5C 994.5,206.833 994.5,221.167 994.5,235.5C 988.242,235.81 982.076,235.476 976,234.5C 975.5,227.174 975.334,219.841 975.5,212.5C 954.5,212.5 933.5,212.5 912.5,212.5C 912.814,220.087 912.481,227.587 911.5,235C 905.251,235.809 899.084,235.642 893,234.5C 892.333,220.833 892.333,207.167 893,193.5C 896.129,192.87 899.296,192.204 902.5,191.5C 906.058,183.497 908.558,175.164 910,166.5C 911.714,147.537 912.547,128.537 912.5,109.5C 936.931,108.843 961.264,108.176 985.5,107.5 Z M 961.5,192.5 C 949.833,192.5 938.167,192.5 926.5,192.5C 930.081,182.502 932.248,172.168 933,161.5C 933.434,149.826 933.934,138.16 934.5,126.5C 944.167,126.5 953.833,126.5 963.5,126.5C 964.156,148.859 963.489,170.859 961.5,192.5 Z"/></g>
<g><path style="opacity:0.744" fill="#393432" d="M 781.5,109.5 C 774.922,108.54 768.255,108.207 761.5,108.5C 760.863,143.32 761.529,177.987 763.5,212.5C 762.167,212.5 760.833,212.5 759.5,212.5C 759.5,177.167 759.5,141.833 759.5,106.5C 766.508,106.334 773.508,106.5 780.5,107C 781.252,107.671 781.586,108.504 781.5,109.5 Z"/></g>
<g><path style="opacity:0.961" fill="#3b3b38" d="M 175.5,107.5 C 172.573,108.232 169.573,108.065 166.5,107C 144.173,103.311 127.006,110.811 115,129.5C 114.329,130.252 113.496,130.586 112.5,130.5C 121.752,112.36 136.752,103.694 157.5,104.5C 163.87,104.103 169.87,105.103 175.5,107.5 Z"/></g>
<g><path style="opacity:0.659" fill="#3f3d3b" d="M 844.5,210.5 C 842.507,176.85 841.84,142.85 842.5,108.5C 835.167,108.5 827.833,108.5 820.5,108.5C 820.611,107.883 820.944,107.383 821.5,107C 829.159,106.5 836.826,106.334 844.5,106.5C 844.5,141.167 844.5,175.833 844.5,210.5 Z"/></g>
<g><path style="opacity:0.188" fill="#494844" d="M 246.5,126.5 C 246.168,135.525 246.502,144.525 247.5,153.5C 253.756,153.6 260.089,153.267 266.5,152.5C 267.952,153.302 269.618,153.802 271.5,154C 262.559,155.346 253.559,155.846 244.5,155.5C 244.168,145.478 244.501,135.478 245.5,125.5C 246.107,125.624 246.44,125.957 246.5,126.5 Z"/></g>
<g><path style="opacity:0.429" fill="#4a4a49" d="M 535.5,192.5 C 544.167,192.5 552.833,192.5 561.5,192.5C 562.952,193.302 564.618,193.802 566.5,194C 555.833,194.667 545.167,194.667 534.5,194C 535.056,193.617 535.389,193.117 535.5,192.5 Z"/></g>
<g><path style="opacity:0.427" fill="#484847" d="M 645.5,192.5 C 653.167,192.5 660.833,192.5 668.5,192.5C 668.918,193.222 669.584,193.722 670.5,194C 660.167,194.667 649.833,194.667 639.5,194C 641.708,193.809 643.708,193.309 645.5,192.5 Z"/></g>
<g><path style="opacity:0.42" fill="#4a4947" d="M 926.5,192.5 C 938.167,192.5 949.833,192.5 961.5,192.5C 962.263,193.268 963.263,193.768 964.5,194C 951.167,194.667 937.833,194.667 924.5,194C 925.416,193.722 926.082,193.222 926.5,192.5 Z"/></g>
<g><path style="opacity:0.997" fill="#262623" d="M 870.5,277.5 C 930.648,273.148 975.148,297.148 1004,349.5C 1015.63,375.352 1019.3,402.352 1015,430.5C 1002.08,485.424 968.244,519.924 913.5,534C 845.621,543.061 796.787,516.895 767,455.5C 746.883,396.36 760.05,346.193 806.5,305C 825.359,290.102 846.692,280.935 870.5,277.5 Z M 885.5,286.5 C 936.376,288.844 973.543,312.51 997,357.5C 1016.62,409.231 1007.28,454.898 969,494.5C 930.674,526.639 887.841,534.139 840.5,517C 786.828,490.177 762.995,446.677 769,386.5C 779.527,337.626 808.694,305.793 856.5,291C 866.221,288.914 875.888,287.414 885.5,286.5 Z"/></g>
<g><path style="opacity:1" fill="#01983e" d="M 1130.5,278.5 C 1157.36,275.176 1182.36,280.342 1205.5,294C 1224.63,307.403 1236.97,325.57 1242.5,348.5C 1242.18,349.647 1241.52,350.481 1240.5,351C 1225.74,354.969 1210.91,358.469 1196,361.5C 1194.83,361.167 1193.67,360.833 1192.5,360.5C 1185.64,335.871 1169.31,322.871 1143.5,321.5C 1112.48,323.68 1093.65,340.013 1087,370.5C 1082.92,396.086 1083.92,421.42 1090,446.5C 1100.49,474.435 1120.66,486.935 1150.5,484C 1170.1,480.077 1183.27,468.577 1190,449.5C 1191.51,443.943 1193.51,438.609 1196,433.5C 1211.69,438.883 1227.53,443.883 1243.5,448.5C 1233.68,493.151 1206.35,519.651 1161.5,528C 1113.98,534.145 1076.81,517.645 1050,478.5C 1040.93,462.347 1035.27,445.013 1033,426.5C 1029.93,398.744 1032.93,371.744 1042,345.5C 1058.8,306.353 1088.3,284.02 1130.5,278.5 Z"/></g>
<g><path style="opacity:1" fill="#00983d" d="M 152.5,283.5 C 180.128,287.299 198.628,302.299 208,328.5C 213.428,357.253 203.928,379.42 179.5,395C 214.892,411.061 227.725,438.228 218,476.5C 208.219,502.944 189.385,518.444 161.5,523C 134.179,524.052 106.846,524.552 79.5,524.5C 58.8222,524.5 38.4889,523.833 18.5,522.5C 19.4993,443.002 19.8326,363.335 19.5,283.5C 64.5401,283.13 109.54,283.63 154.5,285C 153.584,284.722 152.918,284.222 152.5,283.5 Z M 133.5,377.5 C 113.833,377.5 94.1667,377.5 74.5,377.5C 72.8333,377.5 71.1667,377.5 69.5,377.5C 68.2084,360.148 68.2084,342.814 69.5,325.5C 90.1586,324.334 110.825,324.167 131.5,325C 153.3,325.758 162.467,336.924 159,358.5C 154.162,369.828 145.662,376.161 133.5,377.5 Z M 161.5,471.5 C 154.785,478.429 146.452,481.596 136.5,481C 114.169,481.5 91.8358,481.667 69.5,481.5C 68.5731,461.187 68.2398,440.853 68.5,420.5C 72.722,420.737 76.8886,420.404 81,419.5C 98.802,420.314 116.635,420.814 134.5,421C 162.838,423.171 173.338,438.004 166,465.5C 164.668,467.66 163.168,469.66 161.5,471.5 Z"/></g>
<g><path style="opacity:1" fill="#00983d" d="M 261.5,281.5 C 276.745,281.176 291.911,281.509 307,282.5C 307.333,334.5 307.667,386.5 308,438.5C 339.716,386.468 371.383,334.468 403,282.5C 419.667,281.167 436.333,281.167 453,282.5C 453.5,363.166 453.667,443.833 453.5,524.5C 437.589,524.825 421.756,524.491 406,523.5C 406.63,472.521 406.63,421.521 406,370.5C 374.528,421.955 342.695,473.121 310.5,524C 293.837,524.5 277.17,524.667 260.5,524.5C 260.17,443.429 260.503,362.429 261.5,281.5 Z"/></g>
<g><path style="opacity:1" fill="#00983d" d="M 663.5,281.5 C 663.611,282.117 663.944,282.617 664.5,283C 687.164,283.5 709.831,283.667 732.5,283.5C 733.162,363.546 732.495,443.38 730.5,523C 731.056,523.383 731.389,523.883 731.5,524.5C 716.588,524.824 701.755,524.491 687,523.5C 686.5,502.836 686.333,482.169 686.5,461.5C 687.332,481.663 687.832,501.996 688,522.5C 688.667,459.833 688.667,397.167 688,334.5C 687.727,336.101 687.227,337.601 686.5,339C 687.832,369.264 687.832,399.431 686.5,429.5C 686.667,402.165 686.5,374.831 686,347.5C 671.014,406.446 656.18,465.446 641.5,524.5C 625.167,524.5 608.833,524.5 592.5,524.5C 577.878,464.987 562.878,405.654 547.5,346.5C 548.657,342.758 548.323,339.091 546.5,335.5C 545.5,397.83 545.167,460.163 545.5,522.5C 543.821,522.285 542.821,522.952 542.5,524.5C 528.5,524.5 514.5,524.5 500.5,524.5C 500.333,443.833 500.5,363.166 501,282.5C 525.47,281.17 549.97,281.17 574.5,282.5C 588.491,335.443 602.825,388.109 617.5,440.5C 631.826,388.012 645.659,335.346 659,282.5C 660.356,281.62 661.856,281.286 663.5,281.5 Z"/></g>
<g><path style="opacity:1" fill="#02983f" d="M 919.5,375.5 C 921.535,377.392 923.035,379.725 924,382.5C 924.333,382.167 924.667,381.833 925,381.5C 927.124,382.622 928.957,384.122 930.5,386C 917.171,386.5 903.837,386.667 890.5,386.5C 890.334,391.511 890.501,396.511 891,401.5C 891.176,397.312 891.676,393.312 892.5,389.5C 892.5,394.167 892.5,398.833 892.5,403.5C 889.223,403.784 886.057,403.451 883,402.5C 883.108,397.72 882.275,393.386 880.5,389.5C 881.718,388.839 883.051,388.172 884.5,387.5C 871.179,386.667 857.846,386.167 844.5,386C 849.333,381.833 854.167,377.667 859,373.5C 859.692,372.563 859.525,371.897 858.5,371.5C 859.936,370.571 861.269,369.405 862.5,368C 857.321,367.946 852.321,367.279 847.5,366C 855.167,357 863.5,348.667 872.5,341C 868.5,340.667 864.5,340.333 860.5,340C 860.043,339.586 859.709,339.086 859.5,338.5C 867.971,327.216 877.138,316.549 887,306.5C 889.616,308.112 891.95,310.112 894,312.5C 900.646,320.647 907.479,328.647 914.5,336.5C 915.711,337.72 915.711,338.887 914.5,340C 910.5,340.333 906.5,340.667 902.5,341C 910.279,348.779 918.113,356.613 926,364.5C 926.483,365.448 926.649,366.448 926.5,367.5C 921.821,367.334 917.155,367.501 912.5,368C 915.117,370.442 917.45,372.942 919.5,375.5 Z"/></g>
<g><path style="opacity:0.554" fill="#20a856" d="M 152.5,283.5 C 152.918,284.222 153.584,284.722 154.5,285C 109.54,283.63 64.5401,283.13 19.5,283.5C 19.8326,363.335 19.4993,443.002 18.5,522.5C 17.9033,522.265 17.5699,521.765 17.5,521C 18.329,441.528 18.829,362.028 19,282.5C 57.7622,281.337 96.5955,281.17 135.5,282C 141.171,282.531 146.838,283.031 152.5,283.5 Z"/></g>
<g><path style="opacity:0.678" fill="#17a654" d="M 663.5,281.5 C 686.502,281.333 709.502,281.5 732.5,282C 733,282.5 733.5,283 734,283.5C 733.181,360.938 733.348,438.105 734.5,515C 734.333,517.833 734.167,520.667 734,523.5C 733.329,524.252 732.496,524.586 731.5,524.5C 731.389,523.883 731.056,523.383 730.5,523C 732.495,443.38 733.162,363.546 732.5,283.5C 709.831,283.667 687.164,283.5 664.5,283C 663.944,282.617 663.611,282.117 663.5,281.5 Z"/></g>
<g><path style="opacity:0.582" fill="#2caa66" d="M 74.5,377.5 C 94.1667,377.5 113.833,377.5 133.5,377.5C 132.688,378.594 129.688,379.094 124.5,379C 105.5,379.667 86.5,379.667 67.5,379C 70.0356,378.814 72.369,378.314 74.5,377.5 Z"/></g>
<g><path style="opacity:0.174" fill="#048f40" d="M 547.5,346.5 C 547.5,405.833 547.5,465.167 547.5,524.5C 545.833,524.5 544.167,524.5 542.5,524.5C 542.821,522.952 543.821,522.285 545.5,522.5C 545.167,460.163 545.5,397.83 546.5,335.5C 548.323,339.091 548.657,342.758 547.5,346.5 Z"/></g>
<g><path style="opacity:0.595" fill="#08a659" d="M 686.5,461.5 C 686.5,450.833 686.5,440.167 686.5,429.5C 687.832,399.431 687.832,369.264 686.5,339C 687.227,337.601 687.727,336.101 688,334.5C 688.667,397.167 688.667,459.833 688,522.5C 687.832,501.996 687.332,481.663 686.5,461.5 Z"/></g>
<g><path style="opacity:0.388" fill="#04a65b" d="M 858.5,371.5 C 859.525,371.897 859.692,372.563 859,373.5C 854.167,377.667 849.333,381.833 844.5,386C 857.846,386.167 871.179,386.667 884.5,387.5C 883.051,388.172 881.718,388.839 880.5,389.5C 867.496,389.667 854.496,389.5 841.5,389C 840.483,387.951 840.316,386.784 841,385.5C 846.997,381 852.83,376.333 858.5,371.5 Z"/></g>
<g><path style="opacity:0.482" fill="#03a45a" d="M 919.5,375.5 C 924.073,378.059 928.406,381.059 932.5,384.5C 934.27,385.82 934.603,387.32 933.5,389C 919.837,389.5 906.171,389.667 892.5,389.5C 891.676,393.312 891.176,397.312 891,401.5C 890.501,396.511 890.334,391.511 890.5,386.5C 903.837,386.667 917.171,386.5 930.5,386C 928.957,384.122 927.124,382.622 925,381.5C 924.667,381.833 924.333,382.167 924,382.5C 923.035,379.725 921.535,377.392 919.5,375.5 Z"/></g>
<g><path style="opacity:0.444" fill="#41413c" d="M 909.5,402.5 C 936.502,402.333 963.502,402.5 990.5,403C 991.733,404.667 993.067,406.167 994.5,407.5C 992.495,408.124 990.828,407.29 989.5,405C 963.5,404.667 937.5,404.333 911.5,404C 910.584,403.722 909.918,403.222 909.5,402.5 Z"/></g>
<g><path style="opacity:0.742" fill="#43423e" d="M 866.5,404.5 C 838.789,404.184 811.122,404.517 783.5,405.5C 783.953,404.542 784.619,403.708 785.5,403C 812.167,402.333 838.833,402.333 865.5,403C 866.056,403.383 866.389,403.883 866.5,404.5 Z"/></g>
<g><path style="opacity:1" fill="#262522" d="M 909.5,402.5 C 909.918,403.222 910.584,403.722 911.5,404C 937.5,404.333 963.5,404.667 989.5,405C 990.828,407.29 992.495,408.124 994.5,407.5C 995.793,409.296 997.293,410.963 999,412.5C 999.667,413.5 999.667,414.5 999,415.5C 995.353,418.313 991.853,421.313 988.5,424.5C 991.695,429.096 993.695,434.096 994.5,439.5C 990.393,440.647 986.393,441.98 982.5,443.5C 984.326,448.81 985.826,454.143 987,459.5C 981.98,461.003 976.813,461.67 971.5,461.5C 971.666,467.176 971.499,472.843 971,478.5C 965.928,479.471 960.762,479.805 955.5,479.5C 955.407,484.575 954.741,489.575 953.5,494.5C 948.92,493.353 944.42,492.02 940,490.5C 938.008,495.642 936.175,500.809 934.5,506C 933.167,506.667 931.833,506.667 930.5,506C 927.539,504.121 924.373,502.621 921,501.5C 917.285,505.875 913.618,510.208 910,514.5C 906.333,511.833 902.667,509.167 899,506.5C 895.333,509.833 891.667,513.167 888,516.5C 884.041,513.216 880.041,509.882 876,506.5C 872.089,509.078 868.256,511.744 864.5,514.5C 861.117,510.29 857.951,505.957 855,501.5C 850.099,503.259 845.265,504.759 840.5,506C 839.352,501.535 838.352,497.035 837.5,492.5C 832.102,493.516 826.769,494.85 821.5,496.5C 820.505,491.208 820.172,485.875 820.5,480.5C 815.229,480.561 810.229,480.227 805.5,479.5C 804.31,473.827 804.31,468.16 805.5,462.5C 800.784,461.992 796.118,461.158 791.5,460C 790.978,459.439 790.645,458.772 790.5,458C 791.729,453.935 793.062,449.935 794.5,446C 790.109,443.942 785.609,442.108 781,440.5C 780.333,439.167 780.333,437.833 781,436.5C 783.377,432.912 785.877,429.412 788.5,426C 783.475,421.975 779.142,417.309 775.5,412C 777.69,409.316 780.357,407.149 783.5,405.5C 811.122,404.517 838.789,404.184 866.5,404.5C 869,420.747 878.333,426.914 894.5,423C 903.21,418.802 908.21,411.969 909.5,402.5 Z"/></g>
<g><path style="opacity:0.847" fill="#29aa61" d="M 69.5,481.5 C 91.8358,481.667 114.169,481.5 136.5,481C 146.452,481.596 154.785,478.429 161.5,471.5C 165.326,470.973 165.326,472.139 161.5,475C 157.069,478.481 152.069,480.814 146.5,482C 120.184,483.736 93.851,483.903 67.5,482.5C 68.2003,482.213 68.8669,481.88 69.5,481.5 Z"/></g>
</svg>
