<?xml version="1.0" encoding="UTF-8"?>
<!DOCTYPE svg PUBLIC "-//W3C//DTD SVG 1.1//EN" "http://www.w3.org/Graphics/SVG/1.1/DTD/svg11.dtd">
<svg xmlns="http://www.w3.org/2000/svg" version="1.1" width="3423px" height="1711px" style="shape-rendering:geometricPrecision; text-rendering:geometricPrecision; image-rendering:optimizeQuality; fill-rule:evenodd; clip-rule:evenodd" xmlns:xlink="http://www.w3.org/1999/xlink">
<g><path style="opacity:0.977" fill="#fffefe" d="M 164.5,150.5 C 1192.83,150.333 2221.17,150.5 3249.5,151C 3305.51,154.7 3344.68,182.2 3367,233.5C 3371.19,244.473 3373.86,255.807 3375,267.5C 3375.67,665.833 3375.67,1064.17 3375,1462.5C 3367.86,1514.29 3340.36,1550.46 3292.5,1571C 3280.53,1575.33 3268.19,1577.99 3255.5,1579C 2222.83,1579.67 1190.17,1579.67 157.5,1579C 105.451,1572.94 68.6175,1546.1 47,1498.5C 42.0859,1485.6 39.0859,1472.26 38,1458.5C 37.3333,1063.17 37.3333,667.833 38,272.5C 43.1261,220.382 69.2927,183.215 116.5,161C 132.088,154.985 148.088,151.485 164.5,150.5 Z"/></g>
<g><path style="opacity:1" fill="#f50b0f" d="M 154.5,167.5 C 1187.83,167.333 2221.17,167.5 3254.5,168C 3297.54,173.043 3327.37,195.543 3344,235.5C 3346.64,243.341 3348.64,251.341 3350,259.5C 3350.67,655.833 3350.67,1052.17 3350,1448.5C 3343.85,1498.65 3316.35,1530.15 3267.5,1543C 3262.88,1543.96 3258.21,1544.62 3253.5,1545C 2221.17,1545.67 1188.83,1545.67 156.5,1545C 102.467,1535.63 71.3006,1503.8 63,1449.5C 62.3333,1055.17 62.3333,660.833 63,266.5C 69.8502,211.488 100.35,178.488 154.5,167.5 Z"/></g>
<g><path style="opacity:1" fill="#fffefe" d="M 229.5,321.5 C 288.501,321.333 347.501,321.5 406.5,322C 448.768,322.204 487.435,333.871 522.5,357C 559.067,386.967 578.567,425.8 581,473.5C 584.247,529.848 562.081,572.681 514.5,602C 583.876,616.25 623.71,658.416 634,728.5C 641.186,828.623 596.353,891.456 499.5,917C 485.612,919.746 471.612,921.746 457.5,923C 381.501,923.5 305.501,923.667 229.5,923.5C 229.5,722.833 229.5,522.167 229.5,321.5 Z"/></g>
<g><path style="opacity:1" fill="#f50b0f" d="M 346.5,417.5 C 367.571,416.895 388.571,417.728 409.5,420C 454.608,430.682 474.775,459.182 470,505.5C 466.899,532.923 452.732,552.09 427.5,563C 419.083,566.271 410.416,568.604 401.5,570C 383.201,571.386 364.867,571.886 346.5,571.5C 346.5,520.167 346.5,468.833 346.5,417.5 Z"/></g>
<g><path style="opacity:1" fill="#fffefe" d="M 891.5,520.5 C 929.571,517.572 966.571,522.405 1002.5,535C 1008.77,537.644 1014.94,540.477 1021,543.5C 1021.67,579.5 1021.67,615.5 1021,651.5C 984.737,620.471 943.237,610.638 896.5,622C 855.741,635.431 831.241,663.264 823,705.5C 816.071,748.004 828.238,783.838 859.5,813C 898.549,841.264 940.549,846.264 985.5,828C 998.621,822.029 1010.45,814.196 1021,804.5C 1021.83,840.505 1021.67,876.505 1020.5,912.5C 948.304,946.005 876.97,944.172 806.5,907C 741.19,866.244 708.19,807.077 707.5,729.5C 707.649,651.011 740.316,590.511 805.5,548C 832.371,532.875 861.038,523.708 891.5,520.5 Z"/></g>
<g><path style="opacity:1" fill="#fffefe" d="M 1490.5,746.5 C 1393.17,746.5 1295.83,746.5 1198.5,746.5C 1198.19,750.371 1198.52,754.038 1199.5,757.5C 1203.53,810.698 1231.87,841.198 1284.5,849C 1320.23,852.428 1350.4,841.261 1375,815.5C 1379.22,810.276 1383.06,804.776 1386.5,799C 1389.17,798.333 1391.83,798.333 1394.5,799C 1425.95,803.846 1457.28,809.18 1488.5,815C 1454.34,890.452 1395.68,930.785 1312.5,936C 1271.85,938.734 1232.85,932.068 1195.5,916C 1121.19,876.243 1084.19,813.91 1084.5,729C 1083.45,664.769 1106.11,610.769 1152.5,567C 1184.85,539.981 1222.19,524.648 1264.5,521C 1302.16,517.432 1338.83,521.765 1374.5,534C 1431.56,558.551 1467.72,601.051 1483,661.5C 1489.6,689.461 1492.1,717.794 1490.5,746.5 Z"/></g>
<g><path style="opacity:1" fill="#f51512" d="M 1284.5,597.5 C 1319.26,595.795 1347.76,608.129 1370,634.5C 1379.11,647.055 1384.61,661.055 1386.5,676.5C 1325.17,676.5 1263.83,676.5 1202.5,676.5C 1208.21,642.91 1226.54,619.077 1257.5,605C 1266.42,601.691 1275.42,599.191 1284.5,597.5 Z"/></g>
<g><path style="opacity:1" fill="#fffefe" d="M 2940.5,646.5 C 3035.7,641.34 3107.53,679.34 3156,760.5C 3186.66,821.816 3189.66,884.483 3165,948.5C 3128.29,1028.17 3066.12,1072.67 2978.5,1082C 2902.54,1085.09 2840.37,1057.59 2792,999.5C 2746.36,937.669 2734.36,869.669 2756,795.5C 2788.55,709.829 2850.05,660.163 2940.5,646.5 Z"/></g>
<g><path style="opacity:1" fill="#f50d0f" d="M 346.5,661.5 C 372.52,661.159 398.52,661.659 424.5,663C 447.579,664.026 468.579,671.026 487.5,684C 510.858,704.908 519.025,730.741 512,761.5C 505.444,789.721 488.611,808.888 461.5,819C 448.811,823.088 435.811,825.755 422.5,827C 397.169,827.5 371.836,827.667 346.5,827.5C 346.5,772.167 346.5,716.833 346.5,661.5 Z"/></g>
<g><path style="opacity:1" fill="#fd5b3d" d="M 1490.5,746.5 C 1393.67,747.499 1296.67,747.833 1199.5,747.5C 1199.5,750.833 1199.5,754.167 1199.5,757.5C 1198.52,754.038 1198.19,750.371 1198.5,746.5C 1295.83,746.5 1393.17,746.5 1490.5,746.5 Z"/></g>
<g><path style="opacity:1" fill="#f50f10" d="M 2886.5,893.5 C 2886.44,892.957 2886.11,892.624 2885.5,892.5C 2884.5,919.158 2884.17,945.825 2884.5,972.5C 2873.17,972.5 2861.83,972.5 2850.5,972.5C 2850.5,909.833 2850.5,847.167 2850.5,784.5C 2861.83,784.5 2873.17,784.5 2884.5,784.5C 2884.17,789.544 2884.51,794.544 2885.5,799.5C 2886.11,799.376 2886.44,799.043 2886.5,798.5C 2899.77,783.173 2916.44,777.673 2936.5,782C 2961.53,787.36 2977.03,802.527 2983,827.5C 2987.13,847.184 2984.46,865.85 2975,883.5C 2959.43,905.361 2938.26,914.195 2911.5,910C 2901.13,907.447 2892.8,901.947 2886.5,893.5 Z"/></g>
<g><path style="opacity:1" fill="#fd5a3c" d="M 3035.5,785.5 C 3022.32,785.171 3009.32,785.505 2996.5,786.5C 2995.96,786.44 2995.62,786.107 2995.5,785.5C 3008.99,784.175 3022.33,784.175 3035.5,785.5 Z"/></g>
<g><path style="opacity:1" fill="#ff967a" d="M 2884.5,784.5 C 2885.17,789.167 2885.83,793.833 2886.5,798.5C 2886.44,799.043 2886.11,799.376 2885.5,799.5C 2884.51,794.544 2884.17,789.544 2884.5,784.5 Z"/></g>
<g><path style="opacity:1" fill="#f51010" d="M 2996.5,786.5 C 3009.32,785.505 3022.32,785.171 3035.5,785.5C 3048.23,807.944 3060.73,830.611 3073,853.5C 3084.42,830.987 3095.59,808.321 3106.5,785.5C 3119.48,784.501 3132.48,784.168 3145.5,784.5C 3113.45,846.926 3081.12,909.259 3048.5,971.5C 3035.18,972.666 3021.85,972.833 3008.5,972C 3023.63,944.246 3038.63,916.413 3053.5,888.5C 3034.44,854.466 3015.44,820.466 2996.5,786.5 Z"/></g>
<g><path style="opacity:1" fill="#fffdfc" d="M 2908.5,811.5 C 2928.36,809.661 2941.53,817.995 2948,836.5C 2951.61,862.873 2940.28,877.539 2914,880.5C 2898.24,878.8 2887.91,870.466 2883,855.5C 2878.92,833.302 2887.42,818.635 2908.5,811.5 Z"/></g>
<g><path style="opacity:1" fill="#f51311" d="M 2793.5,866.5 C 2812.37,865.872 2821.21,874.872 2820,893.5C 2815.51,907.338 2806.01,912.838 2791.5,910C 2777.31,903.088 2773.14,892.255 2779,877.5C 2782.51,872.003 2787.35,868.337 2793.5,866.5 Z"/></g>
<g><path style="opacity:1" fill="#fe9679" d="M 2886.5,893.5 C 2885.83,919.833 2885.17,946.167 2884.5,972.5C 2884.17,945.825 2884.5,919.158 2885.5,892.5C 2886.11,892.624 2886.44,892.957 2886.5,893.5 Z"/></g>
<g><path style="opacity:1" fill="#fffefd" d="M 890.5,1104.5 C 890.83,1123.01 890.497,1141.34 889.5,1159.5C 870.147,1144.49 848.48,1139.99 824.5,1146C 797.676,1157.13 785.176,1177.29 787,1206.5C 791.515,1236.35 808.682,1253.52 838.5,1258C 858.578,1259.75 876.078,1253.92 891,1240.5C 891.667,1259.17 891.667,1277.83 891,1296.5C 848.903,1316.1 808.403,1313.27 769.5,1288C 741.278,1265.55 727.278,1236.22 727.5,1200C 729.151,1149 753.817,1114.67 801.5,1097C 832.131,1089.08 861.797,1091.58 890.5,1104.5 Z"/></g>
<g><path style="opacity:1" fill="#fffefe" d="M 1169.5,1279.5 C 1169.22,1278.71 1168.72,1278.04 1168,1277.5C 1167.5,1322.17 1167.33,1366.83 1167.5,1411.5C 1148.5,1411.5 1129.5,1411.5 1110.5,1411.5C 1110.5,1307.5 1110.5,1203.5 1110.5,1099.5C 1129.5,1099.5 1148.5,1099.5 1167.5,1099.5C 1167.33,1107.84 1167.5,1116.17 1168,1124.5C 1187.88,1099.75 1213.72,1089.25 1245.5,1093C 1293.15,1100.64 1321.98,1128.14 1332,1175.5C 1337.54,1206.22 1332.87,1235.22 1318,1262.5C 1293.36,1298.51 1259.19,1313.68 1215.5,1308C 1196.76,1303.81 1181.43,1294.31 1169.5,1279.5 Z"/></g>
<g><path style="opacity:1" fill="#fffefd" d="M 1994.5,1092.5 C 2019.37,1090.23 2043.04,1094.4 2065.5,1105C 2093.03,1122.21 2108.87,1147.04 2113,1179.5C 2114.23,1189.8 2114.73,1200.13 2114.5,1210.5C 2063.83,1210.5 2013.17,1210.5 1962.5,1210.5C 1962.07,1238.21 1975.07,1255.71 2001.5,1263C 2026.24,1267.12 2045.58,1258.95 2059.5,1238.5C 2060.67,1238.17 2061.83,1237.83 2063,1237.5C 2079.91,1239.96 2096.74,1242.79 2113.5,1246C 2096.31,1284.44 2066.65,1305.44 2024.5,1309C 1976.84,1313.42 1940.34,1295.58 1915,1255.5C 1900.37,1223.52 1898.7,1190.85 1910,1157.5C 1926,1120.08 1954.17,1098.41 1994.5,1092.5 Z"/></g>
<g><path style="opacity:1" fill="#fffefd" d="M 1646.5,1093.5 C 1660.85,1093.17 1675.18,1093.5 1689.5,1094.5C 1708,1134.83 1726.5,1175.17 1745,1215.5C 1763.61,1175.29 1781.94,1134.95 1800,1094.5C 1814.42,1093.51 1828.92,1093.18 1843.5,1093.5C 1855.94,1163.16 1868.28,1232.82 1880.5,1302.5C 1861.17,1302.5 1841.83,1302.5 1822.5,1302.5C 1817.25,1266.14 1811.75,1229.81 1806,1193.5C 1788.52,1231.14 1771.02,1268.8 1753.5,1306.5C 1747.61,1307.81 1741.78,1307.81 1736,1306.5C 1718.92,1268.68 1701.59,1231.02 1684,1193.5C 1678.09,1229.78 1672.59,1266.11 1667.5,1302.5C 1648.17,1302.5 1628.83,1302.5 1609.5,1302.5C 1621.51,1232.76 1633.84,1163.1 1646.5,1093.5 Z"/></g>
<g><path style="opacity:1" fill="#fffefe" d="M 376.5,1099.5 C 395.5,1099.5 414.5,1099.5 433.5,1099.5C 433.5,1167.17 433.5,1234.83 433.5,1302.5C 414.5,1302.5 395.5,1302.5 376.5,1302.5C 376.667,1261.17 376.5,1219.83 376,1178.5C 345.045,1219.58 314.212,1260.74 283.5,1302C 264.17,1302.5 244.836,1302.67 225.5,1302.5C 225.5,1234.83 225.5,1167.17 225.5,1099.5C 244.5,1099.5 263.5,1099.5 282.5,1099.5C 282.333,1140.83 282.5,1182.17 283,1223.5C 314.414,1182.27 345.581,1140.93 376.5,1099.5 Z"/></g>
<g><path style="opacity:1" fill="#ffc4b1" d="M 376.5,1099.5 C 395.659,1098.5 414.993,1098.17 434.5,1098.5C 434.833,1166.67 434.499,1234.67 433.5,1302.5C 433.5,1234.83 433.5,1167.17 433.5,1099.5C 414.5,1099.5 395.5,1099.5 376.5,1099.5 Z"/></g>
<g><path style="opacity:1" fill="#fffefe" d="M 488.5,1099.5 C 507.5,1099.5 526.5,1099.5 545.5,1099.5C 545.169,1123.34 545.502,1147.01 546.5,1170.5C 572.833,1170.5 599.167,1170.5 625.5,1170.5C 626.498,1147.01 626.831,1123.34 626.5,1099.5C 645.5,1099.5 664.5,1099.5 683.5,1099.5C 683.5,1167.17 683.5,1234.83 683.5,1302.5C 664.167,1302.5 644.833,1302.5 625.5,1302.5C 625.5,1274.83 625.5,1247.17 625.5,1219.5C 599.167,1219.5 572.833,1219.5 546.5,1219.5C 546.5,1247.17 546.5,1274.83 546.5,1302.5C 527.167,1302.5 507.833,1302.5 488.5,1302.5C 488.5,1234.83 488.5,1167.17 488.5,1099.5 Z"/></g>
<g><path style="opacity:1" fill="#ffbda8" d="M 488.5,1099.5 C 507.659,1098.5 526.993,1098.17 546.5,1098.5C 546.5,1122.5 546.5,1146.5 546.5,1170.5C 545.502,1147.01 545.169,1123.34 545.5,1099.5C 526.5,1099.5 507.5,1099.5 488.5,1099.5 Z"/></g>
<g><path style="opacity:1" fill="#ffbda8" d="M 683.5,1099.5 C 664.5,1099.5 645.5,1099.5 626.5,1099.5C 626.831,1123.34 626.498,1147.01 625.5,1170.5C 625.5,1146.5 625.5,1122.5 625.5,1098.5C 645.007,1098.17 664.341,1098.5 683.5,1099.5 Z"/></g>
<g><path style="opacity:1" fill="#ffb199" d="M 1023.5,1148.5 C 1041.99,1147.5 1060.66,1147.17 1079.5,1147.5C 1079.5,1131.5 1079.5,1115.5 1079.5,1099.5C 1023.17,1099.5 966.833,1099.5 910.5,1099.5C 910.5,1115.5 910.5,1131.5 910.5,1147.5C 929.341,1147.17 948.007,1147.5 966.5,1148.5C 947.5,1148.5 928.5,1148.5 909.5,1148.5C 909.5,1131.83 909.5,1115.17 909.5,1098.5C 966.5,1098.5 1023.5,1098.5 1080.5,1098.5C 1080.5,1115.17 1080.5,1131.83 1080.5,1148.5C 1061.5,1148.5 1042.5,1148.5 1023.5,1148.5 Z"/></g>
<g><path style="opacity:1" fill="#fefffe" d="M 1023.5,1148.5 C 1023.5,1199.83 1023.5,1251.17 1023.5,1302.5C 1004.5,1302.5 985.5,1302.5 966.5,1302.5C 966.5,1251.17 966.5,1199.83 966.5,1148.5C 948.007,1147.5 929.341,1147.17 910.5,1147.5C 910.5,1131.5 910.5,1115.5 910.5,1099.5C 966.833,1099.5 1023.17,1099.5 1079.5,1099.5C 1079.5,1115.5 1079.5,1131.5 1079.5,1147.5C 1060.66,1147.17 1041.99,1147.5 1023.5,1148.5 Z"/></g>
<g><path style="opacity:1" fill="#fffefd" d="M 1438.5,1411.5 C 1416.99,1411.83 1395.66,1411.5 1374.5,1410.5C 1399.27,1364.46 1423.94,1318.29 1448.5,1272C 1415.83,1214.49 1383.83,1156.65 1352.5,1098.5C 1374.5,1098.33 1396.5,1098.5 1418.5,1099C 1439.36,1137.22 1460.36,1175.38 1481.5,1213.5C 1500.57,1175.87 1519.23,1138.03 1537.5,1100C 1559.17,1099.17 1580.84,1099.33 1602.5,1100.5C 1548.06,1204.39 1493.39,1308.05 1438.5,1411.5 Z"/></g>
<g><path style="opacity:1" fill="#fffefe" d="M 2158.5,1099.5 C 2177.5,1099.5 2196.5,1099.5 2215.5,1099.5C 2215.17,1123.34 2215.5,1147.01 2216.5,1170.5C 2242.83,1170.5 2269.17,1170.5 2295.5,1170.5C 2296.5,1147.01 2296.83,1123.34 2296.5,1099.5C 2315.5,1099.5 2334.5,1099.5 2353.5,1099.5C 2353.5,1167.17 2353.5,1234.83 2353.5,1302.5C 2334.17,1302.5 2314.83,1302.5 2295.5,1302.5C 2295.5,1274.83 2295.5,1247.17 2295.5,1219.5C 2269.17,1219.5 2242.83,1219.5 2216.5,1219.5C 2216.5,1247.17 2216.5,1274.83 2216.5,1302.5C 2197.17,1302.5 2177.83,1302.5 2158.5,1302.5C 2158.5,1234.83 2158.5,1167.17 2158.5,1099.5 Z"/></g>
<g><path style="opacity:1" fill="#ffbda8" d="M 2158.5,1099.5 C 2177.66,1098.5 2196.99,1098.17 2216.5,1098.5C 2216.5,1122.5 2216.5,1146.5 2216.5,1170.5C 2215.5,1147.01 2215.17,1123.34 2215.5,1099.5C 2196.5,1099.5 2177.5,1099.5 2158.5,1099.5 Z"/></g>
<g><path style="opacity:1" fill="#ffbda8" d="M 2353.5,1099.5 C 2334.5,1099.5 2315.5,1099.5 2296.5,1099.5C 2296.83,1123.34 2296.5,1147.01 2295.5,1170.5C 2295.5,1146.5 2295.5,1122.5 2295.5,1098.5C 2315.01,1098.17 2334.34,1098.5 2353.5,1099.5 Z"/></g>
<g><path style="opacity:1" fill="#fffefd" d="M 2383.5,1099.5 C 2440.17,1099.5 2496.83,1099.5 2553.5,1099.5C 2553.5,1115.5 2553.5,1131.5 2553.5,1147.5C 2534.83,1147.5 2516.17,1147.5 2497.5,1147.5C 2497.5,1199.17 2497.5,1250.83 2497.5,1302.5C 2478.17,1302.5 2458.83,1302.5 2439.5,1302.5C 2439.5,1250.83 2439.5,1199.17 2439.5,1147.5C 2420.83,1147.5 2402.17,1147.5 2383.5,1147.5C 2383.5,1131.5 2383.5,1115.5 2383.5,1099.5 Z"/></g>
<g><path style="opacity:1" fill="#fffefe" d="M 2583.5,1099.5 C 2602.5,1099.5 2621.5,1099.5 2640.5,1099.5C 2640.17,1123.67 2640.5,1147.67 2641.5,1171.5C 2662.2,1171.09 2682.87,1171.59 2703.5,1173C 2742.96,1182.17 2760.13,1207 2755,1247.5C 2750.58,1275.53 2734.75,1293.36 2707.5,1301C 2666.2,1302.46 2624.86,1302.96 2583.5,1302.5C 2583.5,1234.83 2583.5,1167.17 2583.5,1099.5 Z"/></g>
<g><path style="opacity:1" fill="#ffbda8" d="M 2583.5,1099.5 C 2602.66,1098.5 2621.99,1098.17 2641.5,1098.5C 2641.5,1122.83 2641.5,1147.17 2641.5,1171.5C 2640.5,1147.67 2640.17,1123.67 2640.5,1099.5C 2621.5,1099.5 2602.5,1099.5 2583.5,1099.5 Z"/></g>
<g><path style="opacity:1" fill="#fefffe" d="M 2777.5,1099.5 C 2796.5,1099.5 2815.5,1099.5 2834.5,1099.5C 2834.5,1167.17 2834.5,1234.83 2834.5,1302.5C 2815.5,1302.5 2796.5,1302.5 2777.5,1302.5C 2777.5,1234.83 2777.5,1167.17 2777.5,1099.5 Z"/></g>
<g><path style="opacity:1" fill="#ffcebd" d="M 890.5,1104.5 C 891.662,1123.33 891.829,1142.33 891,1161.5C 890.283,1160.96 889.783,1160.29 889.5,1159.5C 890.497,1141.34 890.83,1123.01 890.5,1104.5 Z"/></g>
<g><path style="opacity:1" fill="#f50f10" d="M 2059.5,1171.5 C 2028.18,1173.49 1996.52,1174.16 1964.5,1173.5C 1969.86,1147.48 1985.86,1134.14 2012.5,1133.5C 2037.74,1134.41 2053.4,1147.08 2059.5,1171.5 Z"/></g>
<g><path style="opacity:1" fill="#f50e10" d="M 1210.5,1143.5 C 1245.85,1141.71 1267.02,1158.04 1274,1192.5C 1276.48,1228.33 1260.31,1250.16 1225.5,1258C 1191.33,1259.67 1170.49,1243.83 1163,1210.5C 1159.48,1184.35 1168.64,1164.18 1190.5,1150C 1197,1146.89 1203.67,1144.72 1210.5,1143.5 Z"/></g>
<g><path style="opacity:1" fill="#ffcdbc" d="M 2059.5,1171.5 C 2060.4,1172.21 2060.74,1173.21 2060.5,1174.5C 2028.33,1174.83 1996.33,1174.5 1964.5,1173.5C 1996.52,1174.16 2028.18,1173.49 2059.5,1171.5 Z"/></g>
<g><path style="opacity:1" fill="#f51411" d="M 2641.5,1216.5 C 2653.17,1216.33 2664.84,1216.5 2676.5,1217C 2695.77,1221.03 2700.93,1231.87 2692,1249.5C 2687.57,1253.46 2682.41,1255.96 2676.5,1257C 2664.84,1257.5 2653.17,1257.67 2641.5,1257.5C 2641.5,1243.83 2641.5,1230.17 2641.5,1216.5 Z"/></g>
<g><path style="opacity:1" fill="#fd5b3d" d="M 1169.5,1279.5 C 1168.83,1323.5 1168.17,1367.5 1167.5,1411.5C 1167.33,1366.83 1167.5,1322.17 1168,1277.5C 1168.72,1278.04 1169.22,1278.71 1169.5,1279.5 Z"/></g>
<g><path style="opacity:1" fill="#fd5b3d" d="M 1374.5,1410.5 C 1395.66,1411.5 1416.99,1411.83 1438.5,1411.5C 1417,1412.83 1395.33,1412.83 1373.5,1411.5C 1373.62,1410.89 1373.96,1410.56 1374.5,1410.5 Z"/></g>
</svg>
