<svg viewBox="0 0 241 38" fill="none" xmlns="http://www.w3.org/2000/svg">
    <g clip-path="url(#clip0)">
        <path d="M17.9174 30.6561C14.0731 30.6561 10.6504 29.233 8.64854 26.8254C8.47847 26.6221 8.52453 26.3118 8.73712 26.1513L10.6291 24.7353C10.8205 24.5927 11.0933 24.6105 11.2527 24.7888C12.6346 26.3725 15.1395 27.3426 17.9174 27.3426C20.6916 27.3426 23.2002 26.3725 24.582 24.7888C24.7379 24.6069 25.0142 24.5927 25.2056 24.7353L27.0976 26.1513C27.3102 26.3118 27.3563 26.6221 27.1862 26.8254C25.1843 29.233 21.7617 30.6561 17.9174 30.6561Z" fill="#EB5A0F"/>
        <path d="M23.4198 16.5461C23.7422 16.5461 24.0079 16.8136 24.0079 17.1382V21.2042C24.0079 21.5288 23.7422 21.7963 23.4198 21.7963H21.3577C21.0353 21.7963 20.7695 21.5288 20.7695 21.2042V17.1382C20.7695 16.8136 21.0353 16.5461 21.3577 16.5461H23.4198Z" fill="#EB5A0F"/>
        <path d="M13.9911 16.5461C14.3135 16.5461 14.5792 16.8136 14.5792 17.1382V21.2042C14.5792 21.5288 14.3135 21.7963 13.9911 21.7963H11.929C11.6066 21.7963 11.3408 21.5288 11.3408 21.2042V17.1382C11.3408 16.8136 11.6066 16.5461 11.929 16.5461H13.9911Z" fill="#EB5A0F"/>
        <path d="M34.9282 14.3125L19.0762 0.498529C18.3073 -0.172017 17.1487 -0.16845 16.3834 0.512796L0.889325 14.3232C0.357856 14.7976 0 15.6108 0 16.3455V35.8698C0 37.0433 0.903497 37.9992 2.0125 37.9992H33.8191C34.9282 37.9992 35.8352 37.0433 35.8352 35.8698V16.3455C35.8352 15.6037 35.4738 14.7869 34.9282 14.3125ZM32.6641 16.6844V34.65H3.17464V16.6737L17.7475 3.68719L32.6641 16.6844Z" fill="#EB5A0F"/>
        <path d="M67.9357 26.936V34.2371C67.9357 34.4297 67.7798 34.5867 67.5885 34.5867H63.932C63.7406 34.5867 63.5847 34.4297 63.5847 34.2371V31.3445C63.5847 31.1519 63.4288 30.995 63.2375 30.995H51.0244C50.833 30.995 50.6771 31.1519 50.6771 31.3445V34.2371C50.6771 34.4297 50.5212 34.5867 50.3299 34.5867H46.6734C46.4821 34.5867 46.3262 34.4297 46.3262 34.2371V26.936C46.3262 26.7434 46.4821 26.5865 46.6734 26.5865H47.9241C48.0056 26.5865 48.0836 26.558 48.1438 26.508C49.8941 25.0492 50.2272 22.3742 51.2795 9.35915C51.2936 9.17725 51.446 9.03815 51.6231 9.03815H65.4909C65.6823 9.03815 65.8382 9.19508 65.8382 9.38769V26.2405C65.8382 26.4331 65.9941 26.5901 66.1854 26.5901H67.5849C67.7798 26.5865 67.9357 26.7434 67.9357 26.936ZM53.2742 26.5865H60.775C60.9664 26.5865 61.1223 26.4296 61.1223 26.2369V13.7962C61.1223 13.6036 60.9664 13.4466 60.775 13.4466H55.7048C55.5206 13.4466 55.3718 13.5929 55.3611 13.7783C54.9076 21.2685 54.3584 24.475 53.1325 26.3225C53.051 26.4331 53.1361 26.5865 53.2742 26.5865Z" fill="#EB5A0F"/>
        <path d="M69.2363 22.5561C69.2363 17.4164 73.1196 13.6071 78.3315 13.6071C83.5187 13.6071 87.4268 17.4235 87.4268 22.5561C87.4268 27.6636 83.5187 31.505 78.3315 31.505C73.1196 31.505 69.2363 27.6636 69.2363 22.5561ZM82.8171 22.5561C82.8171 19.8132 80.957 17.9122 78.3315 17.9122C75.7061 17.9122 73.8459 19.8097 73.8459 22.5561C73.8459 25.2989 75.7061 27.1999 78.3315 27.1999C80.957 27.1999 82.8171 25.2989 82.8171 22.5561Z" fill="#EB5A0F"/>
        <path d="M106.726 22.9199C106.726 28.0702 103.204 31.4693 97.8187 31.4693C92.0575 31.4693 88.7695 27.7278 88.7695 21.1936C88.7695 13.6963 91.8946 9.51609 98.7115 7.81832L103.892 6.5236C104.111 6.4701 104.32 6.63417 104.32 6.86244V10.6432C104.32 10.8037 104.21 10.9428 104.058 10.982L98.7222 12.3124C96.1499 12.9473 94.6157 14.0565 93.985 15.7864C93.9283 15.9398 94.1019 16.086 94.2401 15.9968C95.5794 15.1337 96.9896 14.7521 98.506 14.7521C103.463 14.7521 106.726 18.0299 106.726 22.9199ZM102.113 22.8949C102.113 20.3946 100.295 18.5435 97.8187 18.5435C95.3385 18.5435 93.5173 20.3875 93.5173 22.8949C93.5173 25.3952 95.3349 27.2392 97.8187 27.2392C100.295 27.2428 102.113 25.3952 102.113 22.8949Z" fill="#EB5A0F"/>
        <path d="M117.631 13.5786C122.698 13.5786 126.447 17.395 126.447 22.5276C126.447 27.6565 122.698 31.5015 117.631 31.5015C116.005 31.5015 114.521 31.052 113.27 30.2531C113.153 30.1782 113.004 30.2602 113.004 30.3958V36.313C113.004 36.5056 112.848 36.6625 112.657 36.6625H108.798C108.607 36.6625 108.451 36.5056 108.451 36.313V14.4061C108.451 14.2135 108.607 14.0566 108.798 14.0566H111.25C111.381 14.0566 111.498 14.1315 111.558 14.2456L112.14 15.3976C112.189 15.4975 112.317 15.5225 112.405 15.4511C113.812 14.267 115.615 13.5786 117.631 13.5786ZM121.844 22.524C121.844 19.8632 119.906 17.8801 117.263 17.8801C114.62 17.8801 112.678 19.8668 112.678 22.524C112.678 25.1776 114.62 27.1679 117.263 27.1679C119.906 27.1679 121.844 25.1848 121.844 22.524Z" fill="#EB5A0F"/>
        <path d="M127.782 22.5168C127.782 17.3771 131.665 13.5679 136.877 13.5679C142.065 13.5679 145.973 17.3843 145.973 22.5168C145.973 27.6244 142.065 31.4658 136.877 31.4658C131.669 31.4658 127.782 27.6244 127.782 22.5168ZM141.363 22.5168C141.363 19.774 139.503 17.8729 136.877 17.8729C134.256 17.8729 132.392 19.7704 132.392 22.5168C132.392 25.2596 134.252 27.1607 136.877 27.1607C139.503 27.1571 141.363 25.2596 141.363 22.5168Z" fill="#EB5A0F"/>
        <path d="M184.796 18.1262H180.005C179.814 18.1262 179.658 18.2831 179.658 18.4757V30.5991C179.658 30.7917 179.502 30.9486 179.311 30.9486H175.541C175.35 30.9486 175.194 30.7917 175.194 30.5991V18.4722C175.194 18.2796 175.038 18.1226 174.847 18.1226H170.056C169.865 18.1226 169.709 17.9657 169.709 17.7731V14.3526C169.709 14.16 169.865 14.0031 170.056 14.0031H184.788C184.98 14.0031 185.136 14.16 185.136 14.3526V17.7731C185.139 17.9693 184.987 18.1262 184.796 18.1262Z" fill="#EB5A0F"/>
        <path d="M196.048 13.5786C201.115 13.5786 204.864 17.395 204.864 22.5276C204.864 27.6565 201.115 31.5015 196.048 31.5015C194.422 31.5015 192.938 31.052 191.687 30.2531C191.57 30.1782 191.421 30.2602 191.421 30.3958V36.313C191.421 36.5056 191.265 36.6625 191.074 36.6625H187.215C187.024 36.6625 186.868 36.5056 186.868 36.313V14.4061C186.868 14.2135 187.024 14.0566 187.215 14.0566H189.667C189.798 14.0566 189.915 14.1315 189.975 14.2456L190.557 15.3976C190.606 15.4975 190.734 15.5225 190.819 15.4511C192.225 14.267 194.029 13.5786 196.048 13.5786ZM200.258 22.524C200.258 19.8632 198.32 17.8801 195.676 17.8801C193.033 17.8801 191.092 19.8668 191.092 22.524C191.092 25.1776 193.033 27.1679 195.676 27.1679C198.32 27.1679 200.258 25.1848 200.258 22.524Z" fill="#EB5A0F"/>
        <path d="M206.277 22.5276C206.277 17.3879 210.161 13.5786 215.373 13.5786C220.56 13.5786 224.468 17.395 224.468 22.5276C224.468 27.6351 220.56 31.4765 215.373 31.4765C210.161 31.4729 206.277 27.6351 206.277 22.5276ZM219.855 22.5276C219.855 19.7847 217.994 17.8837 215.369 17.8837C212.747 17.8837 210.883 19.7812 210.883 22.5276C210.883 25.2704 212.744 27.1714 215.369 27.1714C217.994 27.1679 219.855 25.2704 219.855 22.5276Z" fill="#EB5A0F"/>
        <path d="M240.999 14.4061V30.649C240.999 30.8416 240.844 30.9985 240.652 30.9985H236.95C236.758 30.9985 236.602 30.8416 236.602 30.649V22.4812C236.602 22.3207 236.404 22.2458 236.298 22.367L228.893 30.8773C228.825 30.9522 228.733 30.995 228.634 30.995H226.544C226.352 30.995 226.196 30.838 226.196 30.6454V14.4061C226.196 14.2135 226.352 14.0565 226.544 14.0565H230.25C230.441 14.0565 230.597 14.2135 230.597 14.4061V22.4705C230.597 22.631 230.792 22.7059 230.898 22.5846L238.335 14.1707C238.402 14.0958 238.495 14.053 238.594 14.053H240.649C240.844 14.0565 240.999 14.2135 240.999 14.4061Z" fill="#EB5A0F"/>
        <path d="M168.114 24.8495L164.418 23.4942C164.252 23.4335 164.071 23.512 163.99 23.6689C162.962 25.6984 161.021 26.9254 158.615 26.9254C154.923 26.9254 152.134 23.9828 152.134 20.0344C152.134 16.086 154.923 13.09 158.615 13.09C160.843 13.09 162.693 14.1564 163.791 15.9362C163.876 16.0753 164.046 16.1431 164.202 16.086L167.937 14.7628C168.132 14.695 168.227 14.4632 168.132 14.2777C166.342 10.7716 162.813 8.5531 158.611 8.5531C152.205 8.5531 147.348 13.4966 147.348 20.0309C147.348 26.5152 152.205 31.4587 158.611 31.4587C162.969 31.4587 166.566 29.0904 168.309 25.3239C168.401 25.142 168.305 24.9208 168.114 24.8495Z" fill="#EB5A0F"/>
        <path d="M239.43 8.80633L237.626 7.14423C237.495 7.0194 237.325 7.04436 237.191 7.16563C236.663 7.63287 235.596 8.43539 234.317 8.43539C234.296 8.43539 234.275 8.43539 234.25 8.43539C234.229 8.43539 234.207 8.43539 234.183 8.43539C232.903 8.43539 231.837 7.63287 231.309 7.16563C231.174 7.04793 231.001 7.0194 230.873 7.14423L229.07 8.80633C228.925 8.94543 228.893 9.20937 229.02 9.36987C229.803 10.3436 231.522 12.0057 234.246 12.0057C234.246 12.0057 234.246 12.0057 234.25 12.0057C234.25 12.0057 234.25 12.0057 234.253 12.0057C236.978 12.0057 238.697 10.34 239.48 9.36987C239.607 9.20937 239.575 8.94543 239.43 8.80633Z" fill="#EB5A0F"/>
    </g>
    <defs>
        <clipPath id="clip0">
            <rect width="241" height="38" fill="white"/>
        </clipPath>
    </defs>
</svg>
