<?xml version="1.0" encoding="UTF-8"?>
<!DOCTYPE svg PUBLIC "-//W3C//DTD SVG 1.1//EN" "http://www.w3.org/Graphics/SVG/1.1/DTD/svg11.dtd">
<svg xmlns="http://www.w3.org/2000/svg" version="1.1" width="2222px" height="927px" style="shape-rendering:geometricPrecision; text-rendering:geometricPrecision; image-rendering:optimizeQuality; fill-rule:evenodd; clip-rule:evenodd" xmlns:xlink="http://www.w3.org/1999/xlink">
<g><path style="opacity:1" fill="#fafbfa" d="M 855.5,331.5 C 874.149,342.221 893.816,350.721 914.5,357C 950.467,366.606 986.467,376.106 1022.5,385.5C 1022.5,386.5 1022.5,387.5 1022.5,388.5C 1021.81,393.26 1020.81,397.926 1019.5,402.5C 1017.11,403.313 1014.78,403.646 1012.5,403.5C 952.443,390.755 892.443,377.755 832.5,364.5C 838.08,388.596 852.08,406.096 874.5,417C 888.994,423.746 903.994,429.08 919.5,433C 949.341,439.194 979.008,446.027 1008.5,453.5C 1008.14,459.946 1007.14,466.279 1005.5,472.5C 1004.83,472.5 1004.5,472.833 1004.5,473.5C 952.508,462.035 900.508,450.702 848.5,439.5C 852.719,460.217 864.053,475.717 882.5,486C 895.033,492.388 908.033,497.721 921.5,502C 941.028,507.569 960.695,512.402 980.5,516.5C 984.551,518.609 988.884,520.276 993.5,521.5C 993.833,522.333 994.167,523.167 994.5,524C 993.175,529.789 992.175,535.623 991.5,541.5C 971.838,537.611 952.172,533.611 932.5,529.5C 909.815,524.495 887.148,519.495 864.5,514.5C 867.089,531.177 874.089,545.677 885.5,558C 898.469,567.049 912.803,572.882 928.5,575.5C 945.993,579.54 963.326,584.207 980.5,589.5C 979.5,595.5 978.5,601.5 977.5,607.5C 976.833,608.5 976.167,609.5 975.5,610.5C 943.748,603.82 912.081,596.82 880.5,589.5C 881.716,602.983 885.883,615.65 893,627.5C 899.308,634.741 907.141,639.574 916.5,642C 932.02,645.602 947.354,649.769 962.5,654.5C 963.287,656.104 964.62,656.771 966.5,656.5C 965.381,663.217 964.047,669.883 962.5,676.5C 941.635,672.827 920.969,668.327 900.5,663C 898.5,662.333 896.5,662.333 894.5,663C 896.532,673.493 898.699,683.993 901,694.5C 902.742,702.495 907.242,708.328 914.5,712C 925.821,715.607 937.154,719.107 948.5,722.5C 947.395,724.3 948.061,725.467 950.5,726C 949.276,728.39 948.776,730.89 949,733.5C 950.087,731.068 950.587,731.402 950.5,734.5C 949.727,738.14 949.06,741.807 948.5,745.5C 948.167,745.5 947.833,745.5 947.5,745.5C 935.33,742.598 922.997,739.931 910.5,737.5C 912.009,746.725 914.009,755.725 916.5,764.5C 916.5,766.5 916.5,768.5 916.5,770.5C 915.791,771.404 914.791,771.737 913.5,771.5C 913.5,769.833 913.5,768.167 913.5,766.5C 911.409,766.318 909.409,766.652 907.5,767.5C 906.253,769.006 906.253,770.506 907.5,772C 907,772.167 906.5,772.333 906,772.5C 904.75,770.294 902.916,768.961 900.5,768.5C 900.664,765.813 900.497,763.146 900,760.5C 899.328,756.779 898.161,753.445 896.5,750.5C 895.294,745.139 893.961,739.806 892.5,734.5C 891.021,728.248 890.021,721.915 889.5,715.5C 890.552,715.649 891.552,715.483 892.5,715C 889.396,709.628 886.73,704.128 884.5,698.5C 884.47,694.382 883.803,690.382 882.5,686.5C 879.5,671.832 876.5,657.165 873.5,642.5C 873.791,641.351 874.624,640.684 876,640.5C 878.059,641.618 880.226,642.285 882.5,642.5C 881.617,638.418 879.451,635.084 876,632.5C 870.65,622.183 866.817,611.516 864.5,600.5C 863.833,596.5 863.167,592.5 862.5,588.5C 862.821,587.183 863.154,585.849 863.5,584.5C 861.857,579.98 860.857,575.313 860.5,570.5C 863.667,571.028 866.834,571.695 870,572.5C 871.894,572.42 873.727,572.087 875.5,571.5C 876.645,570.224 876.645,568.891 875.5,567.5C 873.488,565.659 871.155,564.659 868.5,564.5C 861.6,555.464 856.267,545.464 852.5,534.5C 851.545,532.254 850.878,529.921 850.5,527.5C 850.673,521.064 850.006,514.731 848.5,508.5C 853.232,507.535 858.565,506.535 864.5,505.5C 865.309,503.929 865.643,502.262 865.5,500.5C 866.5,500.5 867.5,500.5 868.5,500.5C 868.5,499.5 868.5,498.5 868.5,497.5C 863.751,493.932 859.084,490.099 854.5,486C 850.969,481.311 847.303,476.811 843.5,472.5C 841.993,468.155 839.827,464.155 837,460.5C 836.495,458.482 835.995,456.482 835.5,454.5C 835.206,450.9 834.54,447.4 833.5,444C 836.335,439.816 837.002,435.316 835.5,430.5C 834.682,433.107 834.182,435.774 834,438.5C 833.692,437.692 833.192,437.025 832.5,436.5C 833.13,431.715 832.463,427.048 830.5,422.5C 832.737,421.551 835.071,420.884 837.5,420.5C 838.167,420.5 838.833,420.5 839.5,420.5C 843.81,422.318 848.143,424.318 852.5,426.5C 852.289,421.08 849.789,417.08 845,414.5C 845.418,408.77 842.584,405.77 836.5,405.5C 835.167,403.5 833.833,401.5 832.5,399.5C 831.675,398.614 830.675,398.281 829.5,398.5C 829.167,398.5 828.833,398.5 828.5,398.5C 825.497,393.159 822.497,387.825 819.5,382.5C 817.167,371.834 814.833,361.167 812.5,350.5C 812.5,348.5 812.5,346.5 812.5,344.5C 820.516,346.133 828.516,347.466 836.5,348.5C 841.737,349.797 847.07,350.464 852.5,350.5C 852.5,350.833 852.5,351.167 852.5,351.5C 852.5,353.167 852.5,354.833 852.5,356.5C 856.347,356.619 860.014,355.953 863.5,354.5C 863.5,353.167 863.5,351.833 863.5,350.5C 861.396,350.799 859.396,350.466 857.5,349.5C 856.253,347.958 856.253,346.458 857.5,345C 855.866,344.506 854.199,344.34 852.5,344.5C 852.335,340.818 852.501,337.152 853,333.5C 853.708,332.619 854.542,331.953 855.5,331.5 Z"/></g>
<g><path style="opacity:1" fill="#fefefe" d="M 216.5,361.5 C 221.808,384.317 226.808,407.317 231.5,430.5C 236.376,454.46 241.042,478.46 245.5,502.5C 248.167,502.5 250.833,502.5 253.5,502.5C 254.833,493.5 256.167,484.5 257.5,475.5C 259.009,469.325 260.342,462.991 261.5,456.5C 265.604,432.875 269.604,409.209 273.5,385.5C 274.945,379.617 276.279,373.617 277.5,367.5C 277.357,365.738 277.691,364.071 278.5,362.5C 320.495,361.5 362.495,361.167 404.5,361.5C 404.668,367.034 405.335,372.367 406.5,377.5C 410.526,413.047 415.193,448.381 420.5,483.5C 420.849,492.576 421.849,501.576 423.5,510.5C 426.906,538.533 430.573,566.533 434.5,594.5C 435.042,604.088 436.376,613.422 438.5,622.5C 439.841,637.894 441.674,653.227 444,668.5C 444.5,685.163 444.667,701.83 444.5,718.5C 408.5,718.5 372.5,718.5 336.5,718.5C 335.535,661.506 334.868,604.506 334.5,547.5C 331.167,547.5 327.833,547.5 324.5,547.5C 319.887,577.789 315.554,608.122 311.5,638.5C 307.478,662.981 303.812,687.647 300.5,712.5C 299.539,714.265 299.205,716.265 299.5,718.5C 268.167,718.5 236.833,718.5 205.5,718.5C 201.834,697.168 198.167,675.835 194.5,654.5C 188.256,618.888 182.256,583.221 176.5,547.5C 173.5,547.5 170.5,547.5 167.5,547.5C 167.991,604.502 168.657,661.502 169.5,718.5C 133.167,718.5 96.8333,718.5 60.5,718.5C 59.9998,702.498 59.8331,686.498 60,670.5C 62.0395,646.438 64.5395,622.438 67.5,598.5C 67.7092,592.072 68.3759,585.739 69.5,579.5C 74.0307,535.193 78.364,490.859 82.5,446.5C 83.8063,441.384 84.473,436.051 84.5,430.5C 86.2105,426.119 86.8772,421.453 86.5,416.5C 87.8734,398.473 89.5401,380.473 91.5,362.5C 133.094,361.506 174.761,361.173 216.5,361.5 Z"/></g>
<g><path style="opacity:1" fill="#fefefe" d="M 728.5,361.5 C 728.5,362.833 728.5,364.167 728.5,365.5C 729.194,379.163 729.361,392.83 729,406.5C 723.802,418.263 719.302,430.263 715.5,442.5C 713.903,444.848 712.903,447.514 712.5,450.5C 675.5,450.5 638.5,450.5 601.5,450.5C 601.183,454.702 601.517,458.702 602.5,462.5C 602.5,471.833 602.5,481.167 602.5,490.5C 637.833,490.5 673.167,490.5 708.5,490.5C 709.833,490.5 711.167,490.5 712.5,490.5C 712.5,491.833 712.5,493.167 712.5,494.5C 713.347,523.158 713.681,551.824 713.5,580.5C 711.833,580.5 710.167,580.5 708.5,580.5C 673.833,580.5 639.167,580.5 604.5,580.5C 604.5,596.833 604.5,613.167 604.5,629.5C 647.167,629.5 689.833,629.5 732.5,629.5C 732.819,659.167 733.152,688.834 733.5,718.5C 653.833,718.5 574.167,718.5 494.5,718.5C 492.636,599.502 490.969,480.502 489.5,361.5C 569.167,361.5 648.833,361.5 728.5,361.5 Z"/></g>
<g><path style="opacity:1" fill="#fefefe" d="M 1251.5,361.5 C 1251.18,367.69 1251.51,373.69 1252.5,379.5C 1253.23,398.014 1251.9,416.348 1248.5,434.5C 1244.66,461.105 1241.32,487.771 1238.5,514.5C 1237.54,516.265 1237.21,518.265 1237.5,520.5C 1240.71,520.81 1243.71,520.477 1246.5,519.5C 1253.64,501.415 1260.97,483.415 1268.5,465.5C 1274.03,452.251 1279.36,438.918 1284.5,425.5C 1288.02,416.81 1291.85,408.143 1296,399.5C 1296.5,389.839 1296.67,380.172 1296.5,370.5C 1296.5,367.5 1296.5,364.5 1296.5,361.5C 1333.83,361.5 1371.17,361.5 1408.5,361.5C 1409.53,455.666 1410.87,549.666 1412.5,643.5C 1412.5,668.5 1412.5,693.5 1412.5,718.5C 1375.5,718.5 1338.5,718.5 1301.5,718.5C 1301.17,702.5 1300.83,686.5 1300.5,670.5C 1306.02,634.374 1311.02,598.041 1315.5,561.5C 1316.04,561.44 1316.38,561.107 1316.5,560.5C 1313.02,559.194 1309.69,559.194 1306.5,560.5C 1300.32,576.219 1293.99,591.886 1287.5,607.5C 1280.89,623.06 1274.55,638.726 1268.5,654.5C 1256.96,674.183 1252.96,695.517 1256.5,718.5C 1219.5,718.5 1182.5,718.5 1145.5,718.5C 1145.83,710.316 1145.49,702.316 1144.5,694.5C 1143.39,596.669 1142.06,499.002 1140.5,401.5C 1140.5,393.5 1140.5,385.5 1140.5,377.5C 1140.5,372.167 1140.5,366.833 1140.5,361.5C 1177.5,361.5 1214.5,361.5 1251.5,361.5 Z"/></g>
<g><path style="opacity:1" fill="#fefefe" d="M 1457.5,361.5 C 1525.17,361.333 1592.83,361.5 1660.5,362C 1662.81,362.662 1665.15,363.162 1667.5,363.5C 1677.26,367.253 1684.92,373.587 1690.5,382.5C 1693.02,387.214 1694.85,392.214 1696,397.5C 1696.99,429.83 1697.32,462.163 1697,494.5C 1696.29,498.989 1695.13,503.322 1693.5,507.5C 1684.48,523.135 1670.81,530.801 1652.5,530.5C 1652.5,533.833 1652.5,537.167 1652.5,540.5C 1677.83,541.343 1693.33,554.009 1699,578.5C 1699.49,604.167 1699.99,629.834 1700.5,655.5C 1700.59,665.875 1700.09,676.208 1699,686.5C 1693.59,706.071 1680.76,716.738 1660.5,718.5C 1594.5,718.5 1528.5,718.5 1462.5,718.5C 1462.83,704.99 1462.5,691.656 1461.5,678.5C 1461.5,662.167 1461.5,645.833 1461.5,629.5C 1503.83,629.5 1546.17,629.5 1588.5,629.5C 1588.82,623.31 1588.49,617.31 1587.5,611.5C 1587.5,604.5 1587.5,597.5 1587.5,590.5C 1587.5,587.167 1587.5,583.833 1587.5,580.5C 1565.34,579.503 1543.01,579.169 1520.5,579.5C 1520.83,566.989 1520.5,554.655 1519.5,542.5C 1519.5,534.5 1519.5,526.5 1519.5,518.5C 1519.5,509.5 1519.5,500.5 1519.5,491.5C 1541.83,491.5 1564.17,491.5 1586.5,491.5C 1586.83,477.656 1586.5,463.99 1585.5,450.5C 1548.83,450.5 1512.17,450.5 1475.5,450.5C 1469.95,435.693 1464.12,421.026 1458,406.5C 1457.5,391.504 1457.33,376.504 1457.5,361.5 Z"/></g>
<g><path style="opacity:1" fill="#fefefe" d="M 1862.5,361.5 C 1862.5,368.5 1862.5,375.5 1862.5,382.5C 1862.97,412.498 1863.3,442.498 1863.5,472.5C 1900.83,472.333 1938.17,472.5 1975.5,473C 1980.55,474.014 1985.55,475.181 1990.5,476.5C 1998.69,480.679 2005.35,486.679 2010.5,494.5C 2013.17,499.51 2015,504.844 2016,510.5C 2016.84,560.167 2017.68,609.833 2018.5,659.5C 2020.61,675.865 2017.28,690.865 2008.5,704.5C 1999.96,713.018 1989.63,717.685 1977.5,718.5C 1903.5,718.5 1829.5,718.5 1755.5,718.5C 1755.83,704.99 1755.5,691.656 1754.5,678.5C 1753.36,572.831 1752.03,467.164 1750.5,361.5C 1787.83,361.5 1825.17,361.5 1862.5,361.5 Z"/></g>
<g><path style="opacity:1" fill="#fefefe" d="M 2045.5,361.5 C 2082.91,361.173 2120.24,361.507 2157.5,362.5C 2159.07,481.164 2160.4,599.83 2161.5,718.5C 2124.5,718.5 2087.5,718.5 2050.5,718.5C 2050.83,710.316 2050.49,702.316 2049.5,694.5C 2048.08,583.501 2046.74,472.501 2045.5,361.5 Z"/></g>
<g><path style="opacity:1" fill="#f7faf9" d="M 692.5,69.5 C 769.167,69.5 845.833,69.5 922.5,69.5C 922.5,87.1667 922.5,104.833 922.5,122.5C 927.167,122.5 931.833,122.5 936.5,122.5C 937.497,105.341 937.83,88.008 937.5,70.5C 1014.5,70.5 1091.5,70.5 1168.5,70.5C 1182.48,70.4911 1193.81,75.8244 1202.5,86.5C 1203.4,90.102 1204.9,93.4354 1207,96.5C 1208.21,106.752 1207.21,116.752 1204,126.5C 1200.14,132.889 1196.31,139.222 1192.5,145.5C 1189.61,148.271 1186.94,151.271 1184.5,154.5C 1179.97,158.977 1175.3,163.477 1170.5,168C 1167.25,169.274 1164.91,171.44 1163.5,174.5C 1162.45,174.351 1161.45,174.517 1160.5,175C 1136.07,192.256 1109.07,203.256 1079.5,208C 1077.09,209.465 1076.09,211.632 1076.5,214.5C 1070.95,238.3 1065.95,262.3 1061.5,286.5C 1060.45,290.52 1059.45,294.687 1058.5,299C 1058.83,299.833 1059.17,300.667 1059.5,301.5C 1068.11,304.659 1076.78,307.826 1085.5,311C 1087.39,313.19 1089.56,315.023 1092,316.5C 1093.27,319.391 1094.77,322.058 1096.5,324.5C 1098.22,334.237 1095.89,342.737 1089.5,350C 1086.5,351.667 1083.5,353.333 1080.5,355C 1079.22,355.684 1078.05,355.517 1077,354.5C 1075.13,355.743 1072.96,356.41 1070.5,356.5C 1062.83,354.831 1055.16,353.331 1047.5,352C 1045.81,356.658 1044.81,361.491 1044.5,366.5C 1040.64,369.224 1039.64,372.891 1041.5,377.5C 1046.79,378.862 1052.12,379.862 1057.5,380.5C 1072.22,381.999 1080.55,389.999 1082.5,404.5C 1082.66,406.857 1082.5,409.19 1082,411.5C 1079.76,418.704 1075.26,423.704 1068.5,426.5C 1065.05,426.108 1061.89,426.775 1059,428.5C 1057.94,428.37 1057.11,427.87 1056.5,427C 1051.18,426.501 1045.84,426.334 1040.5,426.5C 1037.52,426.037 1034.52,425.704 1031.5,425.5C 1030.87,431.28 1030.04,436.946 1029,442.5C 1033.83,445.166 1039,446.5 1044.5,446.5C 1044.5,447.833 1045.17,448.5 1046.5,448.5C 1050.68,450.137 1055.01,451.637 1059.5,453C 1063.4,455.4 1066.4,458.566 1068.5,462.5C 1069.85,469.271 1070.52,475.938 1070.5,482.5C 1068.98,486.684 1066.65,490.351 1063.5,493.5C 1062.1,494.1 1061.1,495.1 1060.5,496.5C 1056.01,498.029 1051.35,498.696 1046.5,498.5C 1036.84,497.279 1027.17,495.946 1017.5,494.5C 1016.5,494.5 1015.5,494.5 1014.5,494.5C 1014.65,500.469 1013.99,506.302 1012.5,512C 1015.68,512.339 1018.35,513.672 1020.5,516C 1023.48,516.498 1026.48,516.665 1029.5,516.5C 1036.3,518.154 1042.96,520.321 1049.5,523C 1051.09,523.949 1052.43,525.115 1053.5,526.5C 1053.37,528.655 1053.87,530.655 1055,532.5C 1058.92,535.069 1060.42,538.736 1059.5,543.5C 1058.67,548.649 1057.34,553.649 1055.5,558.5C 1054.92,560.411 1053.92,562.078 1052.5,563.5C 1049.09,565.473 1045.43,566.973 1041.5,568C 1031.72,567.974 1022.05,566.807 1012.5,564.5C 1009.81,562.404 1006.81,562.07 1003.5,563.5C 1002.13,567.907 1001.13,572.407 1000.5,577C 1000.75,578.326 1001.42,579.326 1002.5,580C 1005.78,581.143 1009.11,581.977 1012.5,582.5C 1017.55,585.013 1022.88,587.013 1028.5,588.5C 1031.49,591.124 1034.83,593.458 1038.5,595.5C 1040.05,596.452 1041.71,596.785 1043.5,596.5C 1046.32,597.992 1047.99,600.326 1048.5,603.5C 1049.37,609.789 1049.71,616.122 1049.5,622.5C 1046.89,627.109 1043.56,631.109 1039.5,634.5C 1035.4,636.021 1031.23,637.354 1027,638.5C 1017.59,637.319 1008.42,635.319 999.5,632.5C 995.627,630.57 991.294,629.903 986.5,630.5C 986.167,635.833 985.833,641.167 985.5,646.5C 988.986,647.953 992.653,648.619 996.5,648.5C 1003.73,650.947 1011.07,653.114 1018.5,655C 1023.68,656.662 1028.35,659.162 1032.5,662.5C 1033.74,665.738 1035.74,668.404 1038.5,670.5C 1043.82,683.797 1040.49,694.464 1028.5,702.5C 1019.5,705.167 1010.5,705.167 1001.5,702.5C 999.833,702.5 998.167,702.5 996.5,702.5C 996.5,702.167 996.5,701.833 996.5,701.5C 996.5,700.5 996.5,699.5 996.5,698.5C 993.167,698.5 989.833,698.5 986.5,698.5C 982.5,698.167 978.5,697.833 974.5,697.5C 973.502,702.476 973.002,707.476 973,712.5C 974.584,713.861 976.418,714.528 978.5,714.5C 982.233,716.411 986.233,717.744 990.5,718.5C 998.55,721.795 1006.88,724.628 1015.5,727C 1020.78,729.94 1025.11,733.774 1028.5,738.5C 1033.39,752.338 1029.72,763.005 1017.5,770.5C 1005.08,771.427 992.743,770.761 980.5,768.5C 977.14,768.384 973.807,768.051 970.5,767.5C 967.713,766.523 964.713,766.19 961.5,766.5C 960.542,768.302 959.875,770.302 959.5,772.5C 958.25,772.577 957.417,773.244 957,774.5C 957.116,779.63 955.782,784.297 953,788.5C 951.515,797.106 950.682,805.773 950.5,814.5C 949.735,817.096 949.401,819.763 949.5,822.5C 945.777,835.478 943.11,848.811 941.5,862.5C 941.167,862.5 940.833,862.5 940.5,862.5C 938.882,865.556 937.382,868.89 936,872.5C 935.017,881.259 933.85,889.926 932.5,898.5C 932.744,902.856 931.744,906.856 929.5,910.5C 927.406,902.603 925.739,894.603 924.5,886.5C 924.856,878.24 923.189,870.573 919.5,863.5C 919.074,859.573 918.074,855.907 916.5,852.5C 915.717,845.135 914.717,837.801 913.5,830.5C 914.376,830.631 915.043,830.298 915.5,829.5C 914.58,827.214 914.58,824.881 915.5,822.5C 914.5,822.5 913.5,822.5 912.5,822.5C 910.761,809.401 908.595,796.401 906,783.5C 904.615,779.396 902.782,775.729 900.5,772.5C 900.5,771.167 900.5,769.833 900.5,768.5C 902.916,768.961 904.75,770.294 906,772.5C 906.5,772.333 907,772.167 907.5,772C 906.253,770.506 906.253,769.006 907.5,767.5C 909.409,766.652 911.409,766.318 913.5,766.5C 913.5,768.167 913.5,769.833 913.5,771.5C 914.791,771.737 915.791,771.404 916.5,770.5C 917.945,773.937 918.945,777.603 919.5,781.5C 922.781,797.846 926.281,814.18 930,830.5C 936.694,802.332 942.528,773.999 947.5,745.5C 947.833,745.5 948.167,745.5 948.5,745.5C 967.523,749.393 986.523,753.393 1005.5,757.5C 1010.92,757.246 1013.92,754.413 1014.5,749C 1013.92,746.501 1012.58,744.501 1010.5,743C 991.223,736.521 971.889,730.354 952.5,724.5C 952.247,728.04 951.581,731.373 950.5,734.5C 950.587,731.402 950.087,731.068 949,733.5C 948.776,730.89 949.276,728.39 950.5,726C 948.061,725.467 947.395,724.3 948.5,722.5C 950.416,724.116 951.916,723.782 953,721.5C 956.486,706.882 959.653,692.215 962.5,677.5C 980.252,680.688 997.919,684.354 1015.5,688.5C 1023.18,687.794 1025.85,683.794 1023.5,676.5C 1021.97,675.139 1020.3,673.972 1018.5,673C 1001.18,667.393 983.846,661.893 966.5,656.5C 964.62,656.771 963.287,656.104 962.5,654.5C 964.117,655.038 965.784,655.371 967.5,655.5C 969.959,641.457 972.626,627.457 975.5,613.5C 976.467,612.194 977.801,611.527 979.5,611.5C 994.868,614.622 1010.2,617.955 1025.5,621.5C 1034.83,619.644 1036.83,614.811 1031.5,607C 1015.12,601.595 998.785,596.095 982.5,590.5C 982.167,589.5 981.833,588.5 981.5,587.5C 983.991,572.709 986.991,558.043 990.5,543.5C 991.167,543.167 991.833,542.833 992.5,542.5C 1006.75,545.884 1021.09,548.884 1035.5,551.5C 1037.56,551.428 1039.56,551.095 1041.5,550.5C 1046.84,545.674 1046.51,541.174 1040.5,537C 1025.63,532.565 1010.97,527.565 996.5,522C 995.667,519.919 995.667,517.752 996.5,515.5C 999.763,501.631 1002.43,487.631 1004.5,473.5C 1004.5,472.833 1004.83,472.5 1005.5,472.5C 1018.55,477.017 1032.05,480.35 1046,482.5C 1047.89,482.42 1049.73,482.087 1051.5,481.5C 1057.93,474.005 1056.26,468.839 1046.5,466C 1034.01,462.673 1021.85,458.506 1010,453.5C 1012.42,438.323 1015.25,423.156 1018.5,408C 1018.17,407.167 1017.83,406.333 1017.5,405.5C 1015.66,404.972 1014,404.306 1012.5,403.5C 1014.78,403.646 1017.11,403.313 1019.5,402.5C 1019.5,403.5 1019.5,404.5 1019.5,405.5C 1032.26,408.433 1045.09,411.1 1058,413.5C 1060.82,413.02 1063.15,411.687 1065,409.5C 1066.72,404.269 1065.22,400.435 1060.5,398C 1048.45,394.262 1036.45,390.429 1024.5,386.5C 1023.82,387.243 1023.15,387.909 1022.5,388.5C 1022.5,387.5 1022.5,386.5 1022.5,385.5C 1026.93,368.089 1030.93,350.422 1034.5,332.5C 1034.18,331.353 1033.52,330.519 1032.5,330C 959.53,311.23 886.697,292.064 814,272.5C 814.038,277.325 815.038,281.991 817,286.5C 825.785,305.107 838.618,320.107 855.5,331.5C 854.542,331.953 853.708,332.619 853,333.5C 852.501,337.152 852.335,340.818 852.5,344.5C 854.199,344.34 855.866,344.506 857.5,345C 856.253,346.458 856.253,347.958 857.5,349.5C 859.396,350.466 861.396,350.799 863.5,350.5C 863.5,351.833 863.5,353.167 863.5,354.5C 860.014,355.953 856.347,356.619 852.5,356.5C 852.5,354.833 852.5,353.167 852.5,351.5C 854.512,352.014 856.512,352.18 858.5,352C 856.593,350.878 854.593,350.045 852.5,349.5C 841.322,341.838 830.822,333.171 821,323.5C 815.802,316.398 810.635,309.398 805.5,302.5C 802.781,295.086 800.114,287.752 797.5,280.5C 795.888,270.558 793.888,260.725 791.5,251C 793.134,250.506 794.801,250.34 796.5,250.5C 798.916,251.968 801.583,252.635 804.5,252.5C 826.436,259.233 848.769,265.233 871.5,270.5C 878.061,272.641 884.728,274.141 891.5,275C 885.469,273.161 879.469,271.327 873.5,269.5C 853.012,261.447 832.346,253.781 811.5,246.5C 803.877,243.405 796.211,240.738 788.5,238.5C 788.795,236.265 788.461,234.265 787.5,232.5C 786.468,224.673 784.802,217.007 782.5,209.5C 779.4,207.867 776.067,206.867 772.5,206.5C 766.258,204.848 759.925,203.514 753.5,202.5C 752.5,201.833 751.5,201.167 750.5,200.5C 749.993,199.141 748.993,198.141 747.5,197.5C 743.536,196.223 739.536,195.223 735.5,194.5C 731.53,194.016 727.864,192.683 724.5,190.5C 717.228,186.443 709.894,182.276 702.5,178C 694.558,171.204 686.558,164.704 678.5,158.5C 675.147,154.808 672.147,150.808 669.5,146.5C 667.563,143.172 666.063,139.505 665,135.5C 663.989,134.663 662.822,134.33 661.5,134.5C 659.638,132.109 658.304,129.442 657.5,126.5C 657.664,123.813 657.497,121.146 657,118.5C 656.692,117.692 656.192,117.025 655.5,116.5C 654.503,109.197 654.169,101.863 654.5,94.5C 658.045,84.2897 664.712,76.9564 674.5,72.5C 675.167,72.5 675.833,72.5 676.5,72.5C 681.676,70.7315 687.01,69.7315 692.5,69.5 Z"/></g>
</svg>
