<?xml version="1.0" encoding="UTF-8" standalone="no"?>
<!-- Generator: Adobe Illustrator 25.0.0, SVG Export Plug-In . SVG Version: 6.00 Build 0)  -->

<svg
   version="1.1"
   x="0px"
   y="0px"
   viewBox="0 0 745.17998 164.46999"
   xml:space="preserve"
   id="svg211"
   sodipodi:docname="Logo-ok.svg"
   width="745.17999"
   height="164.47"
   inkscape:version="1.1 (c4e8f9e, 2021-05-24)"
   xmlns:inkscape="http://www.inkscape.org/namespaces/inkscape"
   xmlns:sodipodi="http://sodipodi.sourceforge.net/DTD/sodipodi-0.dtd"
   xmlns="http://www.w3.org/2000/svg"
   xmlns:svg="http://www.w3.org/2000/svg"><defs
   id="defs215" /><sodipodi:namedview
   id="namedview213"
   pagecolor="#ffffff"
   bordercolor="#666666"
   borderopacity="1.0"
   inkscape:pageshadow="2"
   inkscape:pageopacity="0.0"
   inkscape:pagecheckerboard="0"
   showgrid="false"
   inkscape:zoom="1.3053962"
   inkscape:cx="352.76646"
   inkscape:cy="111.46041"
   inkscape:window-width="1312"
   inkscape:window-height="1081"
   inkscape:window-x="0"
   inkscape:window-y="25"
   inkscape:window-maximized="0"
   inkscape:current-layer="svg211"
   fit-margin-top="0"
   fit-margin-left="0"
   fit-margin-right="0"
   fit-margin-bottom="0" />
<style
   type="text/css"
   id="style129">
	.st0{fill:#E30613;}
	.st1{fill:none;}
	.st2{display:none;}
	.st3{display:inline;fill:none;}
	.st4{display:inline;}
	.st5{fill:#E30613;stroke:#E30613;stroke-miterlimit:10;}
	.st6{font-family:'HeeboCyrillic';}
	.st7{font-size:42px;}
	.st8{letter-spacing:-4;}
	.st9{font-family:'Arial-Black';}
	.st10{font-size:90px;}
	.st11{fill:#FFFFFF;}
</style>
<g
   id="Красный_квадрат"
   transform="translate(-63.720001,-40.810001)">
	<rect
   x="660.41998"
   y="45.990002"
   class="st0"
   width="143.75999"
   height="154.59"
   id="rect131" />
</g>
<g
   id="Контур"
   transform="translate(-63.720001,-40.810001)">
	<rect
   x="63.720001"
   y="40.810001"
   class="st1"
   width="745.17999"
   height="164.47"
   id="rect134" />
</g>
<g
   id="Текст"
   class="st2"
   transform="translate(-63.720001,-40.810001)">
	<rect
   x="157.84"
   y="60.060001"
   class="st3"
   width="487.76001"
   height="88.940002"
   id="rect137" />
	<text
   transform="translate(157.8366,91.5625)"
   class="st4"
   id="text147"><tspan
     x="0"
     y="0"
     class="st5 st6 st7"
     id="tspan139">ФАСАДНЫЕ</tspan><tspan
     x="233.89999"
     y="0"
     class="st5 st6 st7"
     id="tspan141"> </tspan><tspan
     x="244.72"
     y="0"
     class="st5 st6 st7 st8"
     id="tspan143"> </tspan><tspan
     x="250.91"
     y="0"
     class="st5 st6 st7"
     id="tspan145">СИСТЕМЫ</tspan></text>
	<rect
   x="23.42"
   y="114.24"
   class="st3"
   width="748.71002"
   height="108.24"
   id="rect149" />
	<text
   transform="matrix(1,0,0,1.06,64.9783,200.5798)"
   class="st4"
   id="text155"><tspan
     x="0"
     y="0"
     class="st0 st9 st10"
     id="tspan151">THERMOMA</tspan><tspan
     x="595.59003"
     y="0"
     class="st11 st9 st10"
     id="tspan153">X</tspan></text>
</g>
<g
   id="Текст_в_кривых"
   transform="translate(-63.720001,-40.810001)">
	<g
   id="g188">
		<path
   class="st5"
   d="m 176.05,64.7 h 0.64 c 2.26,0.01 4.31,0.54 6.17,1.58 1.86,1.04 3.31,2.47 4.34,4.3 1.03,1.83 1.55,3.87 1.55,6.12 0,2.27 -0.52,4.33 -1.56,6.17 -1.04,1.84 -2.47,3.28 -4.31,4.32 -1.84,1.04 -3.87,1.56 -6.11,1.59 h -0.72 v 4.02 h -3.81 v -4.02 h -0.57 c -2.28,0 -4.36,-0.52 -6.22,-1.56 -1.86,-1.04 -3.32,-2.47 -4.35,-4.31 -1.03,-1.84 -1.55,-3.89 -1.55,-6.17 0,-2.28 0.52,-4.34 1.55,-6.17 1.03,-1.83 2.48,-3.27 4.35,-4.31 1.87,-1.04 3.94,-1.56 6.22,-1.56 h 0.57 v -4.22 h 3.81 z m -4.39,3.09 c -2.57,0 -4.6,0.79 -6.1,2.37 -1.5,1.58 -2.25,3.77 -2.25,6.57 0,2.82 0.75,5.01 2.24,6.57 1.49,1.56 3.54,2.35 6.15,2.35 h 0.53 V 67.79 Z m 4.39,0 v 17.86 h 0.57 c 2.61,0 4.65,-0.8 6.12,-2.41 1.47,-1.61 2.2,-3.79 2.2,-6.55 0,-2.73 -0.73,-4.9 -2.2,-6.5 -1.47,-1.6 -3.54,-2.4 -6.2,-2.4 z"
   id="path158" />
		<path
   class="st5"
   d="m 209.9,83.75 h -12.51 l -2.81,7.81 h -4.06 l 11.4,-29.86 h 3.45 l 11.42,29.86 h -4.04 z m -11.32,-3.22 h 10.15 l -5.09,-13.97 z"
   id="path160" />
		<path
   class="st5"
   d="m 242.25,82.09 c -0.37,3.16 -1.53,5.6 -3.5,7.31 -1.97,1.71 -4.57,2.57 -7.82,2.57 -3.53,0 -6.35,-1.26 -8.48,-3.79 -2.13,-2.53 -3.19,-5.91 -3.19,-10.15 v -2.87 c 0,-2.78 0.5,-5.22 1.49,-7.32 0.99,-2.1 2.4,-3.72 4.21,-4.85 1.82,-1.13 3.92,-1.69 6.32,-1.69 3.17,0 5.71,0.89 7.63,2.66 1.91,1.77 3.03,4.22 3.34,7.35 h -3.96 c -0.34,-2.39 -1.08,-4.11 -2.23,-5.18 -1.14,-1.07 -2.74,-1.6 -4.79,-1.6 -2.52,0 -4.49,0.93 -5.92,2.79 -1.43,1.86 -2.14,4.51 -2.14,7.94 v 2.89 c 0,3.24 0.68,5.82 2.03,7.74 1.35,1.92 3.25,2.87 5.68,2.87 2.19,0 3.87,-0.5 5.03,-1.49 1.16,-0.99 1.94,-2.72 2.33,-5.18 z"
   id="path162" />
		<path
   class="st5"
   d="m 263.82,83.75 h -12.51 l -2.81,7.81 h -4.06 l 11.4,-29.86 h 3.45 l 11.42,29.86 h -4.04 z M 252.5,80.53 h 10.15 l -5.09,-13.97 z"
   id="path164" />
		<path
   class="st5"
   d="m 301.69,98.88 h -3.92 v -7.32 h -21.43 v 7.34 h -3.94 l -0.02,-10.56 h 2.44 c 1.29,-1.45 2.31,-3.39 3.07,-5.83 0.76,-2.44 1.23,-5.12 1.43,-8.03 l 0.66,-12.78 h 17.86 v 26.64 h 3.9 z M 279.32,88.34 h 14.56 V 64.92 h -10.11 l -0.43,8.79 c -0.18,3.43 -0.63,6.36 -1.36,8.79 -0.73,2.43 -1.62,4.36 -2.66,5.84 z"
   id="path166" />
		<path
   class="st5"
   d="m 329.06,91.56 h -3.96 v -13.8 h -15.05 v 13.8 h -3.94 V 61.7 h 3.94 V 74.54 H 325.1 V 61.7 h 3.96 z"
   id="path168" />
		<path
   class="st5"
   d="m 339.88,73.88 h 7.42 c 3.12,0.04 5.55,0.84 7.3,2.4 1.75,1.56 2.62,3.68 2.62,6.36 0,2.69 -0.88,4.84 -2.65,6.44 -1.77,1.6 -4.17,2.43 -7.22,2.48 H 335.93 V 61.7 h 3.94 v 12.18 z m 0,3.22 v 11.24 h 7.2 c 1.96,0 3.48,-0.52 4.56,-1.56 1.09,-1.04 1.63,-2.44 1.63,-4.19 0,-1.68 -0.52,-3.01 -1.57,-3.99 -1.05,-0.98 -2.53,-1.47 -4.46,-1.5 z m 24.9,14.46 h -3.94 V 61.7 h 3.94 z"
   id="path170" />
		<path
   class="st5"
   d="m 388.67,77.76 h -12.94 v 10.58 h 15.03 v 3.22 H 371.79 V 61.7 h 18.76 v 3.22 h -14.83 v 9.62 h 12.94 v 3.22 z"
   id="path172" />
		<path
   class="st5"
   d="m 434.34,82.09 c -0.37,3.16 -1.54,5.6 -3.5,7.31 -1.96,1.72 -4.57,2.57 -7.82,2.57 -3.53,0 -6.35,-1.26 -8.48,-3.79 -2.13,-2.53 -3.19,-5.91 -3.19,-10.15 v -2.87 c 0,-2.78 0.5,-5.22 1.49,-7.32 0.99,-2.1 2.4,-3.72 4.21,-4.85 1.82,-1.13 3.92,-1.69 6.32,-1.69 3.17,0 5.71,0.89 7.63,2.66 1.91,1.77 3.03,4.22 3.34,7.35 h -3.96 c -0.34,-2.39 -1.08,-4.11 -2.22,-5.18 -1.14,-1.07 -2.74,-1.6 -4.79,-1.6 -2.52,0 -4.49,0.93 -5.92,2.79 -1.43,1.86 -2.14,4.51 -2.14,7.94 v 2.89 c 0,3.24 0.68,5.82 2.03,7.74 1.35,1.92 3.25,2.87 5.68,2.87 2.19,0 3.87,-0.5 5.04,-1.49 1.17,-0.99 1.94,-2.72 2.33,-5.18 z"
   id="path174" />
		<path
   class="st5"
   d="m 458.96,61.7 h 3.94 v 29.86 h -3.94 V 68.55 l -14.7,23.01 H 440.3 V 61.7 h 3.96 v 23.01 z"
   id="path176" />
		<path
   class="st5"
   d="m 492.46,82.09 c -0.37,3.16 -1.54,5.6 -3.5,7.31 -1.96,1.72 -4.57,2.57 -7.82,2.57 -3.53,0 -6.35,-1.26 -8.48,-3.79 -2.13,-2.53 -3.19,-5.91 -3.19,-10.15 v -2.87 c 0,-2.78 0.5,-5.22 1.49,-7.32 0.99,-2.11 2.4,-3.72 4.21,-4.85 1.82,-1.13 3.92,-1.69 6.32,-1.69 3.17,0 5.71,0.89 7.63,2.66 1.91,1.77 3.03,4.22 3.34,7.35 h -3.96 c -0.34,-2.39 -1.08,-4.11 -2.23,-5.18 -1.14,-1.07 -2.74,-1.6 -4.79,-1.6 -2.52,0 -4.49,0.93 -5.92,2.79 -1.43,1.86 -2.14,4.51 -2.14,7.94 v 2.89 c 0,3.24 0.68,5.82 2.03,7.74 1.35,1.92 3.25,2.87 5.68,2.87 2.19,0 3.87,-0.5 5.04,-1.49 1.17,-0.99 1.94,-2.72 2.33,-5.18 z"
   id="path178" />
		<path
   class="st5"
   d="m 518.29,64.92 h -9.6 v 26.64 h -3.92 V 64.92 h -9.58 V 61.7 h 23.09 v 3.22 z"
   id="path180" />
		<path
   class="st5"
   d="m 540.02,77.76 h -12.94 v 10.58 h 15.03 v 3.22 H 523.14 V 61.7 h 18.76 v 3.22 h -14.83 v 9.62 h 12.94 v 3.22 z"
   id="path182" />
		<path
   class="st5"
   d="m 552.52,61.7 9.76,24.36 9.76,-24.36 h 5.11 v 29.86 h -3.94 V 79.93 l 0.37,-12.55 -9.8,24.18 h -3.01 l -9.78,-24.12 0.39,12.49 v 11.63 h -3.94 V 61.7 Z"
   id="path184" />
		<path
   class="st5"
   d="m 588.64,73.88 h 7.42 c 3.12,0.04 5.55,0.84 7.3,2.4 1.75,1.56 2.62,3.68 2.62,6.36 0,2.69 -0.88,4.84 -2.65,6.44 -1.77,1.6 -4.17,2.43 -7.22,2.48 H 584.7 V 61.7 h 3.94 z m 0,3.22 v 11.24 h 7.2 c 1.96,0 3.48,-0.52 4.56,-1.56 1.09,-1.04 1.63,-2.44 1.63,-4.19 0,-1.68 -0.52,-3.01 -1.57,-3.99 -1.04,-0.97 -2.53,-1.47 -4.46,-1.5 z m 24.9,14.46 H 609.6 V 61.7 h 3.94 z"
   id="path186" />
	</g>
	<g
   id="g208">
		<path
   class="st0"
   d="m 67.04,132.29 h 60.51 v 16.86 h -20.3 v 51.43 h -19.9 v -51.43 h -20.3 v -16.86 z"
   id="path190" />
		<path
   class="st0"
   d="m 137.37,132.29 h 19.91 v 23.9 h 21.75 v -23.9 h 20 v 68.29 h -20 v -27.62 h -21.75 v 27.62 h -19.91 z"
   id="path192" />
		<path
   class="st0"
   d="m 212.93,132.29 h 53.35 v 14.58 h -33.4 v 10.85 h 30.98 v 13.93 h -30.98 v 13.46 h 34.37 v 15.47 h -54.32 z"
   id="path194" />
		<path
   class="st0"
   d="m 278.96,200.58 v -68.29 h 33.18 c 6.15,0 10.85,0.56 14.11,1.68 3.26,1.12 5.87,3.19 7.87,6.22 1.99,3.03 2.99,6.72 2.99,11.06 0,3.79 -0.76,7.06 -2.29,9.81 -1.52,2.75 -3.62,4.98 -6.29,6.68 -1.7,1.09 -4.03,1.99 -6.99,2.7 2.37,0.84 4.1,1.68 5.18,2.52 0.73,0.56 1.79,1.76 3.18,3.59 1.39,1.83 2.32,3.25 2.79,4.24 l 9.64,19.79 H 319.84 L 309.2,179.71 c -1.35,-2.7 -2.55,-4.46 -3.6,-5.26 -1.44,-1.06 -3.06,-1.58 -4.88,-1.58 h -1.76 v 27.72 h -20 z m 19.99,-40.62 h 8.39 c 0.91,0 2.67,-0.31 5.27,-0.93 1.32,-0.28 2.4,-0.99 3.23,-2.14 0.83,-1.15 1.25,-2.47 1.25,-3.96 0,-2.2 -0.66,-3.9 -1.98,-5.08 -1.32,-1.18 -3.79,-1.77 -7.43,-1.77 h -8.75 v 13.88 z"
   id="path196" />
		<path
   class="st0"
   d="m 349.2,132.29 h 26.18 l 10.1,41.55 10.02,-41.55 h 26.17 v 68.29 h -16.3 V 148.5 l -12.56,52.08 H 378.05 L 365.5,148.5 v 52.08 h -16.3 z"
   id="path198" />
		<path
   class="st0"
   d="m 432.58,166.48 c 0,-11.15 2.93,-19.83 8.79,-26.04 5.86,-6.21 14.02,-9.32 24.48,-9.32 10.72,0 18.98,3.05 24.79,9.15 5.8,6.1 8.7,14.65 8.7,25.64 0,7.98 -1.27,14.53 -3.8,19.63 -2.54,5.11 -6.2,9.08 -10.99,11.92 -4.79,2.84 -10.76,4.26 -17.91,4.26 -7.27,0 -13.28,-1.23 -18.04,-3.68 -4.76,-2.45 -8.62,-6.33 -11.58,-11.65 -2.96,-5.28 -4.44,-11.93 -4.44,-19.91 z m 19.9,0.09 c 0,6.89 1.21,11.85 3.62,14.86 2.42,3.01 5.71,4.52 9.87,4.52 4.28,0 7.59,-1.47 9.93,-4.43 2.34,-2.95 3.52,-8.24 3.52,-15.88 0,-6.43 -1.22,-11.12 -3.67,-14.09 -2.45,-2.97 -5.76,-4.45 -9.95,-4.45 -4.01,0 -7.24,1.51 -9.67,4.52 -2.43,3.01 -3.65,8 -3.65,14.95 z"
   id="path200" />
		<path
   class="st0"
   d="m 510.55,132.29 h 26.18 l 10.1,41.55 10.02,-41.55 h 26.17 v 68.29 h -16.3 V 148.5 l -12.56,52.08 H 539.4 L 526.86,148.5 v 52.08 h -16.3 v -68.29 z"
   id="path202" />
		<path
   class="st0"
   d="m 636.05,189.31 h -22.6 l -3.14,11.27 h -20.33 l 24.21,-68.29 h 21.71 l 24.21,68.29 h -20.85 z m -4.13,-14.77 -7.11,-24.55 -7.04,24.55 z"
   id="path204" />
		<path
   class="st11"
   d="m 662.77,132.29 h 21.93 l 11.4,21.01 11.1,-21.01 h 21.71 l -20.05,33.07 21.94,35.22 h -22.37 l -12.72,-21.94 -12.72,21.94 h -22.24 l 22.22,-35.59 z"
   id="path206" />
	</g>
</g>
</svg>
