<?xml version="1.0" encoding="UTF-8" standalone="no"?>
<svg
   xmlns:dc="http://purl.org/dc/elements/1.1/"
   xmlns:cc="http://creativecommons.org/ns#"
   xmlns:rdf="http://www.w3.org/1999/02/22-rdf-syntax-ns#"
   xmlns:svg="http://www.w3.org/2000/svg"
   xmlns="http://www.w3.org/2000/svg"
   viewBox="0 0 512.64001 170.88"
   height="170.88"
   width="512.64001"
   xml:space="preserve"
   id="svg2"
   version="1.1"><metadata
     id="metadata8"><rdf:RDF><cc:Work
         rdf:about=""><dc:format>image/svg+xml</dc:format><dc:type
           rdf:resource="http://purl.org/dc/dcmitype/StillImage" /></cc:Work></rdf:RDF></metadata><defs
     id="defs6"><clipPath
       id="clipPath18"
       clipPathUnits="userSpaceOnUse"><path
         id="path16"
         d="M 0,128.16 H 384.48 V 0 H 0 Z" /></clipPath></defs><g
     transform="matrix(1.3333333,0,0,-1.3333333,0,170.88)"
     id="g10"><g
       id="g12"><g
         clip-path="url(#clipPath18)"
         id="g14"><g
           transform="translate(115.478,56.0628)"
           id="g20"><path
             id="path22"
             style="fill:#313d91;fill-opacity:1;fill-rule:nonzero;stroke:none"
             d="M 0,0 C -1.296,1.204 -6.992,1.194 -7.367,1.194 -12.763,1.202 -18.159,1.2 -23.83,1.2 c 0,-1.637 -0.124,-5.937 -2.025,-9.629 -2.292,-4.451 -5.57,-6.138 -9.76,-7.285 -4.668,-1.276 -9.006,-1.757 -13.876,-1.034 -6.997,1.037 -12.604,4.19 -15.683,10.692 -3.552,7.5 -4.028,15.51 -1.53,23.328 2.687,8.411 9.491,12.232 17.802,13.632 6.568,1.106 12.613,0 17.507,-4.898 1.562,-1.563 2.618,-4.17 4.427,-4.8 1.963,-0.685 4.48,0.072 6.786,0.359 6.246,0.776 12.546,1.86 18.919,2.644 -0.211,0.986 -0.941,4.064 -1.18,4.881 0.978,0.565 2.31,1.057 4.101,1.314 5.775,0.828 9.181,-2.031 11.825,-3.234 -1.443,3.515 -6.179,6.372 -9.217,7.663 -4.572,1.947 -14.653,2.506 -15.673,2.877 -0.817,0.297 -1.654,0.73 -1.767,1.439 -0.2,1.253 1.405,3.371 4.998,5.068 5.275,2.491 9.373,0.762 12.254,0.391 -2.415,2.933 -7.782,4.269 -11.066,4.61 -6.391,0.665 -10.196,-0.83 -16.506,-2.954 -1.482,-0.273 -3.069,-1.038 -4.489,-0.566 -1.337,0.445 -0.593,3.744 1.881,6.682 3.757,4.463 8.203,4.598 10.977,5.461 -3.417,1.66 -8.853,0.639 -11.98,-0.419 -5.576,-1.886 -8.16,-4.266 -12.328,-8.198 -0.031,-0.007 -2.384,-1.882 -3.777,-2.201 -1.596,-0.364 -2.899,-0.149 -3.335,1.245 -0.368,1.179 -0.129,2.85 0.543,4.934 1.789,5.552 5.854,7.359 8.095,9.207 -3.792,0.245 -8.437,-2.757 -10.931,-4.92 -2.776,-2.406 -4.459,-4.677 -5.908,-7.313 -0.842,-1.223 -1.698,-2.433 -2.658,-3.557 -0.779,-0.911 -2.186,-1.729 -3.547,-1.472 -1.244,0.235 -1.69,1.378 -2.039,2.392 -0.072,0.553 -0.106,1.165 -0.093,1.838 0.177,1.829 0.74,3.666 1.284,5.44 0.084,0.275 0.367,0.862 0.486,1.127 1.589,2.856 2.902,3.69 3.992,5.138 -3.743,-0.648 -7.559,-4.651 -9.479,-7.337 -2.147,-3.002 -3.004,-5.694 -4.047,-8.533 -0.766,-2.084 -1.73,-4.108 -2.878,-5.991 -0.476,-0.782 -1.788,-1.695 -2.92,-1.205 -1.208,0.522 -1.917,2.545 -2.305,5.173 -0.854,5.771 1.992,9.19 3.183,11.839 -3.508,-1.459 -6.345,-6.207 -7.624,-9.25 -2.596,-6.173 -2.133,-10.338 -1.941,-17.508 0.007,-0.267 0.016,-0.731 -0.031,-0.99 -0.134,-0.735 -1.341,-2.641 -5.533,1.79 -4.008,4.239 -3.697,8.646 -4.261,11.495 -2.014,-3.22 -1.577,-8.733 -0.858,-11.956 1.154,-5.171 3.297,-8.139 5.781,-12.311 0.788,-1.324 1.465,-3.251 0.144,-3.998 -1.167,-0.661 -3.302,-0.16 -5.937,1.137 -5.234,2.577 -6.431,6.86 -7.934,9.346 -0.792,-3.716 1.503,-8.748 3.281,-11.53 3.115,-4.877 7.001,-6.157 10.66,-10.361 0.692,-0.795 1.29,-2.843 0.266,-3.752 -1.031,-0.915 -3.986,-0.354 -5.098,-0.225 -5.795,0.67 -8.361,4.303 -10.612,6.14 0.501,-3.767 4.353,-7.736 6.962,-9.759 4.037,-3.134 7.877,-3.378 11.877,-5.655 4.705,-2.679 0.068,-5.424 -3.466,-5.481 -5.833,-0.095 -9.227,2.33 -11.867,3.542 1.432,-3.519 6.157,-6.393 9.19,-7.696 6.081,-2.614 10.156,-1.03 17.033,-2.455 1.649,-0.342 2.954,-2.127 0.811,-4.558 -0.271,-0.308 -1.294,-1.062 -1.28,-1.088 -0.353,-0.259 -0.742,-0.519 -1.17,-0.775 -5.005,-2.997 -9.253,-1.677 -12.156,-1.591 2.69,-2.682 8.162,-3.486 11.464,-3.503 5.251,-0.028 8.642,1.209 13.021,3.153 0.012,0.004 0.025,0.008 0.037,0.011 1.781,0.487 3.493,1.396 5.292,1.59 1.158,0.126 2.987,-0.066 3.228,-1.115 0.269,-1.17 -0.684,-2.557 -2.015,-4.119 -3.783,-4.442 -8.23,-4.55 -11.008,-5.397 3.407,-1.68 8.848,-0.691 11.982,0.35 5.868,1.946 9.077,5.002 13.285,8.975 0.713,0.673 2.453,0.531 3.096,-0.575 0.677,-1.164 0.603,-3.312 -0.461,-6.192 -2.021,-5.472 -6.158,-7.106 -8.474,-8.859 3.777,-0.403 8.544,2.401 11.128,4.456 3.782,3.009 5.36,6.042 7.648,9.623 0.756,1.181 1.946,2.505 3.185,3.095 1.513,0.72 2.983,0.634 3.557,-0.073 0.791,-0.979 0.673,-2.865 0.297,-5.133 -0.955,-5.755 -4.711,-8.138 -6.655,-10.295 3.785,0.315 7.94,3.965 10.09,6.471 3.042,3.544 4.369,6.614 5.576,10.484 0.119,0.269 0.237,0.538 0.355,0.809 1.185,2.733 5.301,4.74 7.049,2.34 0.304,-0.418 0.613,-1.211 0.788,-1.789 1.692,-5.583 -0.62,-9.383 -1.409,-12.179 3.256,1.959 5.364,7.072 6.182,10.271 0.867,3.385 1.298,6.203 1.265,9.046 -0.036,3.033 0.029,7.233 0.831,8.17 0.446,-0.074 1.929,-0.318 3.928,-2.236 4.21,-4.038 4.22,-8.402 4.956,-11.212 1.814,3.338 1.147,8.847 0.125,11.986 C 7.56,-10.455 4.3,-3.997 0,0" /></g><g
           transform="translate(205.692,77.5022)"
           id="g24"><path
             id="path26"
             style="fill:#313d91;fill-opacity:1;fill-rule:nonzero;stroke:none"
             d="M 0,0 H 10.646 C 10.169,-3.631 9.713,-6.959 9.3,-10.293 8.811,-14.245 8.514,-18.227 7.856,-22.15 6.537,-30.043 2.27,-34.547 -5.861,-35.594 c -5.271,-0.678 -10.493,-0.704 -15.737,0.915 -5.498,1.698 -7.855,5.188 -7.078,11.337 0.904,7.152 1.626,13.152 2.592,20.296 0.304,2.254 1.921,3.237 3.701,3.244 2.924,0.012 7.86,-0.058 7.86,-0.058 0,0 -0.755,-8.02 -1.191,-11.869 -0.489,-4.33 -1.128,-8.642 -1.582,-12.975 -0.38,-3.626 1.378,-6.006 5.306,-6.143 3.961,-0.136 6.854,1.48 7.439,4.564 0.838,4.419 1.612,8.848 2.378,13.281 C -1.422,-8.646 -0.714,-4.282 0,0" /></g><g
           transform="translate(299.607,64.0413)"
           id="g28"><path
             id="path30"
             style="fill:#313d91;fill-opacity:1;fill-rule:nonzero;stroke:none"
             d="m 0,0 c -0.344,-4.512 -0.888,-8.221 -3.011,-13.355 -1.183,-2.862 -2.809,-4.061 -9.015,-3.954 -6.451,0.112 -7.547,2.835 -7.465,5.236 0.161,4.703 0.972,11.626 1.834,15.409 0.965,4.243 3.825,5.789 7.461,6.019 C -0.585,9.965 0.559,7.314 0,0 m 9.85,5.533 c -0.586,5.838 -6.75,7.561 -15.124,7.868 -19.4,0.71 -21.107,-5.704 -22.522,-9.626 -1.772,-4.913 -1.96,-10.117 -1.527,-15.381 0.355,-4.332 2.182,-7.533 6.288,-9.115 2.406,-0.927 6.61,-1.673 10.234,-1.76 11.131,-0.272 15.641,1.761 19.087,7.523 4.117,6.885 4.149,14.667 3.564,20.491" /></g><g
           transform="translate(171.166,69.5183)"
           id="g32"><path
             id="path34"
             style="fill:#313d91;fill-opacity:1;fill-rule:nonzero;stroke:none"
             d="m 0,0 c -3.649,-0.044 -7.362,-0.9 -9.014,2.034 -0.92,1.634 -4.528,1.419 -6.494,1.441 -4.131,0.046 -6.692,-1.115 -8.818,-4.23 -3.339,-4.89 -4.487,-10.408 -3.569,-16.002 0.949,-5.788 8.222,-8.016 13.218,-4.386 1.775,1.289 2.632,2.147 4.761,2.179 2.412,0.036 4.499,-0.055 7.035,-0.055 -1.54,-4.337 -4.696,-6.499 -8.402,-7.609 -7.068,-2.119 -15.585,-2.409 -21.654,1.469 -4.065,2.598 -5.881,4.601 -6.607,9.221 -0.978,6.22 2.703,16.794 7.409,20.748 4.201,3.529 8.736,3.471 13.166,3.515 4.678,0.046 8.178,-0.066 13.207,-1.582 C -1.652,5.503 -0.34,1.61 -0.054,0" /></g><g
           transform="translate(331.218,73.4837)"
           id="g36"><path
             id="path38"
             style="fill:#313d91;fill-opacity:1;fill-rule:nonzero;stroke:none"
             d="m 0,0 c -0.454,-2.976 -1.941,-15.081 -2.367,-16.569 -0.37,-1.292 -1.042,-2.64 -1.957,-3.609 -3.405,-3.61 -10.363,-7.923 -10.363,-7.923 0,0 2.679,20.859 4.08,31.003 0.083,0.595 0.488,1.525 1.617,1.525 7.749,-10e-4 15.501,-0.356 23.229,-0.889 3.681,-0.254 5.944,-1.648 7.823,-4.309 2.817,-3.991 1.258,-9.464 -2.59,-11.757 -5.331,-3.177 -17.809,-3.134 -17.809,-3.134 0,0 0.883,3.475 3.927,4.106 1.737,0.36 2.828,0.514 4.526,1.052 1.872,0.591 2.934,2.051 3.136,3.977 0.212,2.013 -0.554,3.708 -2.273,4.834 C 7.739,0.431 1.725,-0.027 0,0" /></g><g
           transform="translate(268.006,77.5374)"
           id="g40"><path
             id="path42"
             style="fill:#313d91;fill-opacity:1;fill-rule:nonzero;stroke:none"
             d="m 0,0 c -0.245,-2.385 -2.546,-3.628 -4.753,-3.623 -4.418,0.012 -12.513,0.003 -12.513,0.003 0,0 -0.981,-5.347 -1.329,-8.112 -0.828,-6.581 -1.538,-13.178 -2.354,-19.761 -0.182,-1.455 -0.658,-2.291 -2.666,-2.32 -2.239,-0.033 -3.406,-0.033 -5.625,0.054 -1.158,0.046 -2.703,0.224 -2.448,2.016 1.4,9.855 2.503,19.454 3.731,29.335 0.167,1.348 0.402,2.449 2.234,2.436 C -17.206,-0.035 -8.69,0 0,0" /></g><g
           transform="translate(222.86,65.8133)"
           id="g44"><path
             id="path46"
             style="fill:#c62b4b;fill-opacity:1;fill-rule:nonzero;stroke:none"
             d="m 0,0 c 0.64,3.802 1.283,6.603 1.685,9.86 0.174,1.407 0.601,1.897 2.047,1.902 2.942,0.011 5.799,-0.003 9.219,-0.003 C 8.489,7.561 4.402,4.196 0,0.053" /></g><g
           transform="translate(316.615,42.3548)"
           id="g48"><path
             id="path50"
             style="fill:#c62b4b;fill-opacity:1;fill-rule:nonzero;stroke:none"
             d="M 0,0 C 4.228,2.666 7.953,5.015 11.969,7.545 11.749,5.095 11.56,2.975 11.35,0.627 7.785,0.431 4.187,0.231 0,0" /></g><g
           transform="translate(364.987,91.6458)"
           id="g52"><path
             id="path54"
             style="fill:#313d91;fill-opacity:1;fill-rule:nonzero;stroke:none"
             d="M 0,0 H 2.678 C 3.247,0 3.693,0.06 4.014,0.177 4.335,0.294 4.58,0.483 4.746,0.742 4.913,1.001 4.997,1.283 4.997,1.587 4.997,2.033 4.834,2.398 4.513,2.685 4.189,2.973 3.677,3.116 2.98,3.116 H 0 Z M -1.246,-5.261 V 4.155 H 2.929 C 3.768,4.155 4.406,4.072 4.843,3.903 5.278,3.732 5.63,3.435 5.891,3.006 6.151,2.578 6.281,2.105 6.281,1.587 6.281,0.919 6.065,0.355 5.633,-0.102 5.2,-0.562 4.532,-0.852 3.629,-0.976 3.957,-1.135 4.208,-1.291 4.381,-1.444 4.744,-1.779 5.089,-2.197 5.414,-2.698 L 7.052,-5.261 H 5.484 l -1.245,1.958 c -0.364,0.567 -0.663,0.998 -0.9,1.299 -0.235,0.299 -0.445,0.509 -0.632,0.629 -0.187,0.121 -0.375,0.203 -0.568,0.251 -0.142,0.029 -0.373,0.045 -0.694,0.045 H 0 v -4.182 z" /></g><g
           transform="translate(367.311,83.9358)"
           id="g56"><path
             id="path58"
             style="fill:#313d91;fill-opacity:1;fill-rule:evenodd;stroke:none"
             d="m 0,0 c -3.837,0 -6.967,3.127 -6.967,6.965 0,3.837 3.13,6.968 6.967,6.968 3.839,0 6.968,-3.131 6.968,-6.968 C 6.968,3.127 3.839,0 0,0 m 0,15.127 c -4.495,0 -8.161,-3.667 -8.161,-8.162 0,-4.495 3.666,-8.161 8.161,-8.161 4.495,0 8.161,3.666 8.161,8.161 0,4.495 -3.666,8.162 -8.161,8.162" /></g></g></g></g></svg>