<svg xmlns="http://www.w3.org/2000/svg" width="902.853" height="230.787" viewBox="0 0 677.14 173.09"><g data-name="Layer 1"><clipPath id="a"><path transform="matrix(1 0 0 -1 0 173.09)" d="M0 173.09h677.14V0H0z"/></clipPath><g clip-path="url(#a)"><path d="M461.818 40.01c11.983 6.357 24.34 12.35 36.02 19.008-1.265 3.403-3.05 6.291-4.335 9.675-7.728-.182-17.557.383-23.682-.335-.278 3.055-.91 5.761-1 9.005 7.869.906 19.032-.17 24.347.667-1.4 3.492-3.205 6.575-5.002 9.672h-20.68c-2.543 14.354-4.694 29.101-6.67 44.028-1.867-4.43-3.014-9.197-4.335-14.01-1.251-4.559-3.741-9.62-4.003-14.342-.242-4.392 1.535-10.298 2.334-15.676 2.215-14.91 4.766-33.623 7.006-47.693M602.566 58.35c2.755 4.476 5.979 8.476 8.673 13.008 4.989-3.568 8.258-8.861 13.008-12.672 5.148.258 9.285-.498 14.34-.335-5.956 7.61-12.936 14.192-19.01 21.68 4.513 7.272 8.835 14.735 13.675 21.68-4.448.776-10.34.113-15.345.332-2.883-4.452-5.586-9.087-8.338-13.671-5.2 3.914-8.804 9.426-13.675 13.67h-13.675c-.453-1.03.984-1.901 1.67-2.664 5.474-6.1 12.363-13.193 18.01-19.347-4.395-7.274-9.417-13.927-13.675-21.345 5.136.243 9.41-.371 14.342-.335M242.023 73.363c-3.059-.153-7.367.093-11.342 0-1.286-.46-.048-2.927-1.334-4.006-7.371-.533-18.332-3.138-21.013 3.67-.776 1.974-.623 5.389-.999 8.339-1.019 8.009-2.114 11.13 6.671 11.34 7.869.186 15.714 1.355 14.673-7.002-3.351-.843-9.61.099-12.008-.671-.213-2.882.703-4.634.67-7.335h24.346c-2.026 10.799.062 23.18-10.339 24.68-3.92.566-9.592 0-14.677 0-11.91 0-22.076 1.597-22.676-9.671-.172-3.166.951-8.01 1.667-13.008 1.761-12.331 2.907-21.33 16.342-21.013 7.745.182 18.591-.948 25.348.332 5.404 1.028 6.941 7.728 4.671 14.345M280.043 80.698c3.405-2.17 3.214-10.09-.332-11.673-5.2-2.314-11.538 1.044-17.01-.332-.939 3.84-1.345 8.216-1.67 12.672 6.234-1.382 14.623 2.136 19.012-.667m8.005 4.67c4.971 1.647 3.885 8.022 3.337 14.01-4.351.987-8.31 2.362-13.008 3.001.063-2.956 1.19-5.702.666-8.006-1.377-6.049-12.281-2.289-19.012-3.336-1.298 2.257-.969 6.145-1.668 9.005-4.125.654-7.672 1.89-12.007 2.337 1.988-14.582 3.745-29.386 6.006-43.693 9.599.893 27.828-1.18 37.021 0 9.685 1.245 8.029 24.95-1.334 26.682M354.421 58.686c-1.404 3.153-2.835 6.282-4.338 9.34-11.233.217-23.337-.438-34.017.332-.9 2.324-.543 5.905-1.335 8.338h32.351a94.22 94.22 0 0 1-3.667 8.005c-9.608.2-21.728-.418-29.686.332-.706 2.519-.776 5.673-1.334 8.34h28.351c.574.83-.875 2.73-1.67 4.336-.775 1.57-1.474 3.598-2.665 4.334-11.347.783-25.896.109-36.689.336-.438-6.365 1.363-13.835 2.334-21.013 1.002-7.387 1.624-14.863 3.003-21.681-.033-.473-.058-.945.332-1zM387.44 58.686c4.396 14.84 9.863 28.607 14.007 43.693-3.317-.246-9.822.428-13.675-.336-3.278-10.061-6.432-20.247-9.337-30.685-7.36 9.54-12.771 21.03-19.679 31.02-2.656-.507-8.187-.29-12.34-.335-.116-1.902 1.411-3.418 2.336-5.001 7.125-12.185 15.371-26.22 23.011-38.356zM397.112 58.686h54.032c-.253 3.748-1.643 6.362-2.002 10.007-5.12-.073-11.62.102-15.676 0-1.93 11.185-2.716 23.516-5.001 34.353h-9.672c-1.794-10.658-2.564-22.341-3.671-33.69-3.847-.21-9.806-.44-15.01-.331-.756-3.687-2.336-6.557-3-10.34M517.516 58.686c-1.458 11.657-4.06 22.179-5.669 33.686 7.62-.607 16.223-.23 24.346-.332-.648 3.463-1.289 6.936-2.333 10.003h-35.688c1.967-13.71 4.69-29.548 7.671-43.357z" fill="#4a4a4b" fill-rule="evenodd"/><path d="M576.885 59.018c2.216 2.458 3.64 5.7 5.002 9.008-8.79-.233-16.787.332-25.348.332-.58 2.423-.65 5.35-.999 8.006 6.85.446 19.245.325 28.684.332 1.557 2.218 2.224 5.333 3.668 7.673-10.467.983-22.317.584-33.686.664-.626 2.49-.533 5.694-1.003 8.34 9.787.444 21.094-.475 31.685-.334.83 1.558-2.03 2.937-3.332 4.334-1.539 1.647-2.714 3.729-4.339 4.67h-37.02c2.527-14.482 4.89-29.13 8.004-43.025z" fill="#4a4a4b" fill-rule="evenodd"/><path d="M651.803 50.623h-2.997v7.689h-1.475v-7.69h-3.039v-1.301h7.511zM660.358 49.32h1.78v8.993h-1.387v-5.344c0-.434.044-1.085.13-1.954h-.044a8.676 8.676 0 0 1-.52 1.565l-2.216 5.733h-1.044L654.8 52.58a17.265 17.265 0 0 1-.478-1.565h-.041c.054.668.086 1.319.086 1.954v5.344h-1.348V49.32h1.78l2.434 6.08c.028.147.115.393.262.738.025.147.054.249.086.307.143-.406.274-.754.389-1.044z" fill="#4a4a4b"/><path d="M132.265 31.441c8.794-.676 15.856 2.444 20.285 7.048-6.089-.663-20.244-2.145-19.623 4.7.201 2.144 3.218 3.338 5.323 3.69 5.841.965 11.738.845 17.293 3.02 5.337 2.083 8.822 5.216 11.97 8.051-4.653-1.665-14.715-6.629-20.282-1.676.268 3.194 1.441 5.474 1.658 8.722-11.849 1.131-23.123 2.84-34.578 4.364-2.567-2.658-3.55-5.494-5.984-7.719-11.54-10.556-32.364-5.187-39.908 4.364-4.367 5.533-5.74 14.72-5.314 22.483.944 17.277 10.913 28.184 28.592 28.184 12.744 0 23.262-3.274 26.272-14.427-4.992-.78-11.416-.112-16.962-.333V79.09h24.277c8.065 0 17.106-1.438 24.274 0 2.977.596 7.93 4.193 10.64 6.713 4.935 4.594 8.633 9.82 8.311 19.462-.948.51-2.667-1.787-3.988-3.019-3.872-3.6-8.335-8.846-14.63-10.065-.175 3.898 3.69 6.106 5.987 9.06 4.487 5.792 9.101 18.318 2.324 26.844-1.462-6.24-3.212-12.197-7.982-15.1-.006 14.324-3.704 27.79-13.3 33.56-.48-4.603 3.29-14.195-1.327-17.116-4.578 2.503-5.829 8.146-8.315 12.417-3.659 6.276-7.67 12.15-14.963 15.098-.025-5.502 9.184-13.968 4.657-20.467-8.147 2.212-10.157 11.351-16.297 16.443-3.738 3.1-8.37 5.831-15.626 5.03-.513-1.012 2.072-1.915 3.32-3.023 2.452-2.158 9.52-9.09 8.65-13.755-.226-1.203-1.399-2.467-2.328-2.684-4.133-.97-8.467 5.746-11.636 8.057-6.704 4.871-15.9 7.941-26.274 3.69 6.18-4.507 16.343-4.989 19.954-12.085-5.15-2.312-10.092 1.315-15.295 2.684-9.345 2.467-22.168 2.796-25.939-6.374 4.537-.645 17.674 2.087 17.293-5.7-1.644-2.322-6.402-1.186-8.979-1.345-11.336-.696-21.476-4.639-24.94-13.426 6.44.69 14.723 3.65 20.948 1.344-.319-3.927-5.08-3.946-7.648-5.03-8.199-3.474-17.367-8.224-18.62-19.13 1.242-.438 2.73 1.097 3.991 2.012 3.728 2.702 8.46 6.162 15.294 6.041 2.42-7.382-7.493-9.3-11.303-13.423-4.9-5.302-7.348-12.025-5.654-21.474 5.284 5.402 8.406 12.99 15.962 16.105 5.06-4.039-.814-8.593-3.327-12.749-4.106-6.802-6.797-17.516.332-24.836 1.776 7.496 2.252 16.296 10.311 17.451.646-3.87-.549-8.103-.334-12.419.49-9.9 3.776-18.946 12.304-21.138-.147 2.452-5.074 17.771.331 18.454 4.558.584 6.184-10.397 8.315-14.425 3.712-7.016 8.398-11.656 15.63-13.086-2.1 3.511-7.412 8.92-6.32 15.434.264 1.575 1.385 3.141 2.658 3.353 3.717.63 7.562-7.757 9.975-10.737C86.905 19.342 91.25 15.66 100.675 15c.632 1.34-1.47 2.767-2.659 4.027-2.87 3.04-10.537 9.335-5.983 14.763 9.805-3.484 16.974-14.984 30.255-14.095 3.244.218 5.222 1.394 7.647 3.022-3.354 1.621-7.278 2.58-10.637 4.36z" fill="#ef4336" fill-rule="evenodd"/></g></g></svg>