<svg xmlns="http://www.w3.org/2000/svg" width="166" height="75.5pt" viewBox="0 0 124.5 75.5"><g data-name="Слой 1"><clipPath id="a"><path transform="matrix(1 0 0 -1 0 75.5)" d="M0 75.5h124.5V0H0z"/></clipPath><g clip-path="url(#a)"><path d="m16.288 25.772-4.16-22.498H3.803v32.01h6.402V15.209h.23l3.291 20.075h5.121l3.293-20.075h.23v20.075h6.4V3.274H20.45zm15.868 9.512h6.264l.594-8.507h3.018l.594 8.507h6.265l-3.338-32.01H35.494zm7.087-12.027 1.097-16.05h.366l1.097 16.05zm13.032 1.463v4.848c0 2.24.274 5.716 4.756 5.716h5.304c4.48 0 4.755-3.476 4.755-5.716v-5.991c0-2.24-.914-3.293-2.377-4.482L60.094 15.3c-1.006-.822-1.418-1.006-1.418-2.834V7.847c0-.823.641-1.052 1.007-1.052.594 0 1.005.503 1.005 1.052v5.35h6.402V8.991c0-2.241-.275-5.717-4.755-5.717h-5.304c-4.482 0-4.756 3.476-4.756 5.717v6.08c0 1.693.366 3.019 1.966 4.208l4.756 3.612c.96.731 1.691 1.326 1.691 2.836v4.983c0 .549-.41 1.052-1.005 1.052-.366 0-1.007-.229-1.007-1.052v-5.99zm22.04 10.564h6.402V6.795h3.841V3.274H70.474v3.521h3.841zm13.627 0h13.261v-3.522h-6.859V20.239h6.584v-3.522h-6.584V6.795h6.584V3.274H87.942zm32.283 0L117.07 22.8c2.286-.915 2.331-3.018 2.331-3.887V8.991c0-2.241-.274-5.717-4.756-5.717h-10.059v32.01h6.402V23.439h.458l2.194 11.845zm-9.237-15.365V6.795h.823c.685 0 1.19.594 1.19 1.601v9.922c0 1.006-.505 1.601-1.19 1.601z" fill="#015e86"/><path d="M3.805 71.156V61.36h3.7c.65 0 1.146.033 1.49.093.481.08.885.234 1.211.457a2.4 2.4 0 0 1 .786.944c.2.404.297.848.297 1.333 0 .83-.265 1.535-.797 2.11-.528.576-1.488.864-2.874.864H5.104v3.995zm1.3-5.144h2.531c.84 0 1.432-.155 1.785-.467.352-.313.527-.75.527-1.319 0-.407-.103-.759-.31-1.05a1.458 1.458 0 0 0-.819-.58c-.219-.057-.622-.086-1.208-.086H5.104zm5.737 5.144L14.6 61.36h1.425l3.988 9.796h-1.476l-1.133-2.968H13.28l-1.062 2.968zm2.818-4.022h3.338l-1.02-2.716a34.881 34.881 0 0 1-.704-2.046 13.725 13.725 0 0 1-.54 1.887zm7.601-5.774h1.3v9.796h-1.3zm3.567 9.796V61.36h1.332l5.14 7.69v-7.69h1.245v9.796h-1.332l-5.139-7.689v7.69zm12.385 0V62.51h-3.229v-1.15h7.758v1.15h-3.23v8.646zm11.936 0v-4.15l-3.776-5.646h1.56l1.936 2.964c.361.55.695 1.1 1.001 1.65.3-.514.662-1.089 1.083-1.727l1.898-2.887h1.511l-3.912 5.646v4.15zm5.968-4.768c0-1.624.438-2.896 1.311-3.815.873-.918 2-1.377 3.382-1.377.905 0 1.72.217 2.446.647a4.229 4.229 0 0 1 1.66 1.806c.381.772.573 1.647.573 2.625 0 .992-.2 1.881-.603 2.664-.4.783-.968 1.377-1.703 1.778a4.868 4.868 0 0 1-2.38.604c-.924 0-1.747-.223-2.475-.668a4.295 4.295 0 0 1-1.65-1.822 5.513 5.513 0 0 1-.56-2.442m1.34.023c0 1.18.317 2.107.95 2.784.634.678 1.43 1.017 2.388 1.017.976 0 1.776-.342 2.408-1.026.63-.684.944-1.655.944-2.914 0-.796-.135-1.49-.404-2.085a3.107 3.107 0 0 0-1.18-1.379 3.219 3.219 0 0 0-1.748-.49c-.916 0-1.705.315-2.366.944-.662.63-.992 1.68-.992 3.15m16.114-5.052h1.3v5.658c0 .985-.112 1.766-.333 2.346-.223.577-.625 1.048-1.204 1.411-.58.362-1.34.545-2.285.545-.915 0-1.665-.157-2.246-.474a2.699 2.699 0 0 1-1.247-1.373c-.249-.599-.374-1.418-.374-2.455V61.36h1.3v5.656c0 .85.08 1.48.237 1.88.157.404.427.717.812.933.382.22.853.328 1.406.328.95 0 1.626-.216 2.03-.647.403-.434.604-1.263.604-2.494zm3.491 9.796V61.36h4.342c.874 0 1.536.09 1.99.265a2.18 2.18 0 0 1 1.088.93c.271.444.405.937.405 1.476 0 .695-.226 1.281-.674 1.758-.449.476-1.143.777-2.082.907.344.164.604.328.782.488.38.347.737.782 1.072 1.304l1.694 2.668h-1.619l-1.295-2.039a17.92 17.92 0 0 0-.933-1.352c-.246-.312-.465-.528-.659-.654a1.98 1.98 0 0 0-.59-.26 4.103 4.103 0 0 0-.72-.046h-1.5v4.351zm1.3-5.473h2.782c.593 0 1.053-.06 1.386-.184.333-.12.587-.317.757-.589a1.59 1.59 0 0 0 .26-.878c0-.463-.167-.846-.5-1.144-.337-.298-.866-.447-1.589-.447h-3.096zm12.3 5.473V61.36h1.3v8.647h4.814v1.15zm7.882-9.796h1.3v9.796h-1.3zm3.651 9.796V61.36h6.608v1.15h-5.309v3.051h4.597v1.15h-4.597v4.445zm8.316 0V61.36h7.073v1.15h-5.774v3.01h5.405v1.15h-5.405v3.337h6.006v1.15zm9.59-2.435-.369-5.19v-2.17h1.491v2.17l-.342 5.19zm-.315 1.066h1.382v1.37h-1.382z" fill="#2d2a26"/><path d="M52.982 40.8a7.066 7.066 0 1 0 0 14.131 7.066 7.066 0 0 0 0-14.13" fill="#7f858c" fill-rule="evenodd"/><path d="M52.982 42.801a5.064 5.064 0 1 0 0 10.129 5.064 5.064 0 0 0 0-10.129" fill="#d8262f" fill-rule="evenodd"/><path d="M50.607 52.336a5.064 5.064 0 0 0 6.254-7.733 5.252 5.252 0 0 1-6.254 7.733" fill="#feffff" fill-rule="evenodd"/><path d="M55.067 43.25a5.037 5.037 0 0 0-6.603 2.039c-1.368 2.369-.568 5.519 1.853 6.917.364.21.742.369 1.127.48a5.52 5.52 0 0 1-.322-.17c-2.42-1.398-3.146-4.677-1.853-6.917s3.612-2.981 5.798-2.349" fill="#2d2a26" fill-rule="evenodd"/><path d="M24.723 40.8a7.065 7.065 0 1 0 0 14.13 7.065 7.065 0 0 0 0-14.13" fill="#7f858c" fill-rule="evenodd"/><path d="M24.723 42.801a5.064 5.064 0 1 0 0 10.129 5.064 5.064 0 0 0 0-10.129" fill="#d8262f" fill-rule="evenodd"/><path d="M24.723 42.801a5.064 5.064 0 1 0 0 10.129 5.064 5.064 0 0 0 0-10.129" fill="#fdb81c" fill-rule="evenodd"/><path d="M22.341 52.335a5.063 5.063 0 0 0 6.254-7.733 5.252 5.252 0 0 1-6.254 7.733" fill="#feffff" fill-rule="evenodd"/><path d="M26.709 43.206c-2.368-1.15-5.28-.259-6.616 2.058-1.654 2.863-.156 6.488 2.98 7.397a5.512 5.512 0 0 1-.322-.17c-2.421-1.4-3.146-4.678-1.854-6.918 1.295-2.24 3.626-2.998 5.812-2.367" fill="#2d2a26" fill-rule="evenodd"/><path d="M38.852 40.8a7.066 7.066 0 1 0 .002 14.131 7.066 7.066 0 0 0-.002-14.13" fill="#7f858c" fill-rule="evenodd"/><path d="M38.852 42.801a5.064 5.064 0 1 0 .001 10.129 5.064 5.064 0 0 0 0-10.129" fill="#00833f" fill-rule="evenodd"/><path d="M36.471 52.335a5.063 5.063 0 0 0 6.254-7.733 5.252 5.252 0 0 1-6.254 7.733" fill="#feffff" fill-rule="evenodd"/><path d="M40.814 43.225a5.064 5.064 0 1 0-3.616 9.421 5.063 5.063 0 0 1 3.616-9.421" fill="#2d2a26" fill-rule="evenodd"/><path d="M10.594 40.8a7.065 7.065 0 1 0 0 14.13 7.065 7.065 0 0 0 0-14.13" fill="#8e8e8d" fill-rule="evenodd"/><path d="M10.594 40.8a7.065 7.065 0 1 0 0 14.13 7.065 7.065 0 0 0 0-14.13" fill="#7f858c" fill-rule="evenodd"/><path d="M10.594 42.801a5.064 5.064 0 1 0 0 10.129 5.064 5.064 0 0 0 0-10.129" fill="#015e86" fill-rule="evenodd"/><path d="M8.212 52.335a5.063 5.063 0 0 0 6.254-7.733 5.252 5.252 0 0 1-6.254 7.733" fill="#feffff" fill-rule="evenodd"/><path d="M12.555 43.225a5.064 5.064 0 1 0-3.616 9.421 5.063 5.063 0 0 1 3.616-9.421" fill="#2d2a26" fill-rule="evenodd"/><path d="M74.913 45.746h-3.038a3.519 3.519 0 0 0-1.285-1.098c-.498-.245-1.061-.367-1.695-.367-.513 0-.997.095-1.456.288a3.637 3.637 0 0 0-1.221.838 4.04 4.04 0 0 0-.875 1.327 4.067 4.067 0 0 0-.31 1.55c0 1.163.375 2.14 1.123 2.926.747.79 1.66 1.182 2.742 1.182.622 0 1.182-.115 1.68-.348a3.002 3.002 0 0 0 1.208-1.01h3.038c-.593 1.296-1.385 2.27-2.371 2.92-.99.651-2.17.976-3.54.976a6.291 6.291 0 0 1-2.64-.552c-.803-.366-1.526-.907-2.167-1.629a6.169 6.169 0 0 1-1.227-2.045 7.099 7.099 0 0 1-.42-2.454c0-.884.17-1.724.507-2.516a6.79 6.79 0 0 1 1.483-2.168 6.427 6.427 0 0 1 2.05-1.373 6.293 6.293 0 0 1 2.432-.468c1.39 0 2.575.331 3.56.996.987.66 1.793 1.67 2.422 3.025m3.556 2.47c0 .544.089 1.053.27 1.523.18.474.447.903.8 1.293.392.422.835.75 1.329.98.495.23 1.007.345 1.537.345 1.11 0 2.043-.396 2.797-1.186.753-.79 1.128-1.778 1.128-2.956 0-1.082-.378-2.004-1.138-2.769-.76-.766-1.67-1.147-2.736-1.147-1.11 0-2.052.381-2.827 1.143-.774.76-1.16 1.686-1.16 2.773m-2.61.086c0-.698.093-1.355.28-1.974.186-.62.462-1.2.828-1.739a6.515 6.515 0 0 1 2.365-2.118 6.583 6.583 0 0 1 3.106-.745c.843 0 1.656.165 2.439.49a6.479 6.479 0 0 1 2.099 1.405 6.563 6.563 0 0 1 1.447 2.135c.33.791.498 1.623.498 2.495a6.95 6.95 0 0 1-.467 2.555 6.261 6.261 0 0 1-1.373 2.118 6.3 6.3 0 0 1-2.136 1.488 6.411 6.411 0 0 1-2.542.52c-.948 0-1.821-.17-2.618-.507a6.17 6.17 0 0 1-2.12-1.5 6.445 6.445 0 0 1-1.347-2.115 6.816 6.816 0 0 1-.458-2.508m21.068 6.378h-6.45V41.976h2.466v10.47h3.984zm2.829-6.464c0 .545.09 1.054.27 1.524.179.474.448.903.802 1.293.39.422.834.75 1.328.98.494.23 1.007.345 1.537.345 1.11 0 2.042-.396 2.797-1.186.752-.79 1.128-1.778 1.128-2.956 0-1.082-.38-2.004-1.138-2.769-.76-.766-1.671-1.147-2.736-1.147-1.112 0-2.052.381-2.827 1.143-.774.76-1.161 1.686-1.161 2.773m-2.61.086c0-.698.094-1.355.282-1.974.184-.62.46-1.2.827-1.739a6.515 6.515 0 0 1 2.365-2.118c.946-.497 1.983-.745 3.106-.745a6.3 6.3 0 0 1 2.438.49 6.494 6.494 0 0 1 2.1 1.405 6.595 6.595 0 0 1 1.447 2.135 6.42 6.42 0 0 1 .498 2.495c0 .906-.156 1.757-.47 2.555a6.214 6.214 0 0 1-1.371 2.118 6.287 6.287 0 0 1-2.135 1.488 6.41 6.41 0 0 1-2.544.52c-.946 0-1.818-.17-2.617-.507a6.157 6.157 0 0 1-2.12-1.5 6.429 6.429 0 0 1-1.346-2.115 6.817 6.817 0 0 1-.46-2.508m17.103-.143h.552c1.005 0 1.77-.182 2.292-.545.52-.364.784-.894.784-1.593 0-.673-.218-1.17-.656-1.492-.437-.319-1.12-.48-2.045-.48h-.927zm0 6.521h-2.483V41.976h3.017c.958 0 1.673.033 2.14.102.47.064.87.175 1.203.327.722.336 1.272.807 1.65 1.411.378.605.566 1.313.566 2.13 0 .983-.271 1.816-.813 2.498-.54.684-1.275 1.116-2.206 1.304l3.176 4.931h-2.965l-3.285-5.895z" fill="#2d2a26"/></g></g></svg>