<?xml version="1.0" encoding="UTF-8" standalone="no"?>
<svg
   xmlns:dc="http://purl.org/dc/elements/1.1/"
   xmlns:cc="http://creativecommons.org/ns#"
   xmlns:rdf="http://www.w3.org/1999/02/22-rdf-syntax-ns#"
   xmlns:svg="http://www.w3.org/2000/svg"
   xmlns="http://www.w3.org/2000/svg"
   viewBox="0 0 203.39999 141"
   height="141"
   width="203.39999"
   xml:space="preserve"
   id="svg2"
   version="1.1"><metadata
     id="metadata8"><rdf:RDF><cc:Work
         rdf:about=""><dc:format>image/svg+xml</dc:format><dc:type
           rdf:resource="http://purl.org/dc/dcmitype/StillImage" /></cc:Work></rdf:RDF></metadata><defs
     id="defs6"><clipPath
       id="clipPath20"
       clipPathUnits="userSpaceOnUse"><path
         id="path18"
         d="M 0,105.75 H 152.55 V 0 H 0 Z" /></clipPath></defs><g
     transform="matrix(1.3333333,0,0,-1.3333333,0,141)"
     id="g10"><path
       id="path12"
       style="fill:#ffffff;fill-opacity:1;fill-rule:nonzero;stroke:none"
       d="M 143.1,11.469 H 9.45 V 94.282 H 143.1 Z" /><g
       id="g14"><g
         clip-path="url(#clipPath20)"
         id="g16"><g
           transform="translate(30.5485,63.8976)"
           id="g22"><path
             id="path24"
             style="fill:#15618b;fill-opacity:1;fill-rule:nonzero;stroke:none"
             d="m 0,0 -4.161,22.498 h -8.322 v -32.01 h 6.401 v 20.075 h 0.229 L -2.56,-9.512 H 2.56 L 5.853,10.563 H 6.082 V -9.512 h 6.401 v 32.01 H 4.161 Z m 15.868,-9.512 h 6.264 l 0.594,8.507 h 3.018 l 0.594,-8.507 h 6.265 l -3.338,32.01 H 19.206 Z m 7.087,12.027 1.097,16.05 h 0.366 L 25.515,2.515 Z M 35.987,1.052 v -4.848 c 0,-2.24 0.274,-5.716 4.756,-5.716 h 5.304 c 4.481,0 4.755,3.476 4.755,5.716 v 5.991 c 0,2.24 -0.914,3.293 -2.377,4.482 l -4.619,3.795 c -1.006,0.822 -1.417,1.006 -1.417,2.834 v 4.619 c 0,0.823 0.64,1.052 1.006,1.052 0.594,0 1.005,-0.503 1.005,-1.052 v -5.35 h 6.402 v 4.206 c 0,2.241 -0.274,5.717 -4.755,5.717 h -5.304 c -4.482,0 -4.756,-3.476 -4.756,-5.717 V 10.7 c 0,-1.692 0.366,-3.018 1.966,-4.207 L 42.709,2.881 C 43.669,2.15 44.4,1.555 44.4,0.045 v -4.983 c 0,-0.549 -0.411,-1.052 -1.005,-1.052 -0.366,0 -1.006,0.229 -1.006,1.052 v 5.99 z m 22.04,-10.564 h 6.402 v 28.489 h 3.841 v 3.521 H 54.186 v -3.521 h 3.841 z m 13.627,0 H 84.915 V -5.99 H 78.056 V 5.533 h 6.584 v 3.522 h -6.584 v 9.922 h 6.584 v 3.521 H 71.654 Z m 32.283,0 -3.155,12.484 c 2.286,0.915 2.331,3.018 2.331,3.887 v 9.922 c 0,2.241 -0.274,5.717 -4.755,5.717 H 88.299 V -9.512 H 94.7 V 2.332 h 0.458 L 97.352,-9.512 Z M 94.7,5.853 v 13.124 h 0.823 c 0.686,0 1.189,-0.594 1.189,-1.601 V 7.453 c 0,-1.005 -0.503,-1.6 -1.189,-1.6 z" /></g><g
           transform="translate(18.0658,18.5131)"
           id="g26"><path
             id="path28"
             style="fill:#231f20;fill-opacity:1;fill-rule:nonzero;stroke:none"
             d="M 0,0 V 9.796 H 3.699 C 4.349,9.796 4.846,9.764 5.19,9.703 5.671,9.623 6.075,9.47 6.401,9.246 6.727,9.021 6.989,8.706 7.187,8.302 7.386,7.899 7.484,7.454 7.484,6.969 7.484,6.139 7.219,5.434 6.687,4.859 6.159,4.283 5.199,3.995 3.813,3.995 H 1.299 L 1.299,0 Z M 1.299,5.144 H 3.83 c 0.84,0 1.433,0.155 1.786,0.468 0.352,0.312 0.526,0.75 0.526,1.318 0,0.408 -0.102,0.759 -0.31,1.051 C 5.625,8.273 5.352,8.467 5.014,8.56 4.795,8.617 4.392,8.647 3.805,8.647 H 1.299 Z M 7.037,0 10.795,9.796 H 12.22 L 16.208,0 H 14.732 L 13.599,2.968 H 9.474 L 8.412,0 Z m 2.818,4.023 h 3.338 L 12.172,6.738 C 11.864,7.564 11.632,8.245 11.469,8.784 11.335,8.145 11.155,7.517 10.929,6.898 Z m 7.601,5.773 h 1.299 V 0 H 17.456 Z M 21.023,0 v 9.796 h 1.333 L 27.495,2.107 V 9.796 H 28.74 V 0 h -1.332 l -5.14,7.689 V 0 Z m 12.385,0 v 8.647 h -3.229 v 1.149 h 7.757 V 8.647 H 34.707 V 0 Z m 11.936,0 v 4.15 l -3.776,5.646 h 1.56 l 1.936,-2.964 c 0.361,-0.55 0.695,-1.099 1.001,-1.649 0.299,0.513 0.662,1.088 1.083,1.726 l 1.898,2.887 h 1.511 L 46.645,4.15 V 0 Z m 5.967,4.768 c 0,1.624 0.439,2.896 1.311,3.815 0.874,0.919 2.001,1.377 3.383,1.377 0.905,0 1.719,-0.217 2.446,-0.647 C 59.176,8.882 59.73,8.28 60.111,7.507 60.492,6.736 60.684,5.86 60.684,4.882 60.684,3.89 60.483,3.001 60.081,2.218 59.68,1.435 59.113,0.842 58.378,0.44 c -0.736,-0.404 -1.53,-0.604 -2.38,-0.604 -0.924,0 -1.747,0.223 -2.474,0.668 -0.725,0.444 -1.277,1.051 -1.652,1.822 -0.374,0.769 -0.561,1.583 -0.561,2.442 m 1.342,-0.023 c 0,-1.179 0.317,-2.107 0.95,-2.784 0.634,-0.678 1.43,-1.017 2.388,-1.017 0.976,0 1.776,0.342 2.408,1.026 0.629,0.684 0.944,1.656 0.944,2.914 0,0.796 -0.135,1.492 -0.404,2.085 -0.269,0.592 -0.663,1.053 -1.181,1.379 -0.52,0.326 -1.101,0.49 -1.747,0.49 -0.916,0 -1.705,-0.314 -2.366,-0.944 C 52.983,7.265 52.653,6.215 52.653,4.745 m 16.114,5.051 h 1.299 V 4.139 C 70.066,3.154 69.955,2.372 69.734,1.793 69.511,1.216 69.109,0.744 68.53,0.381 67.949,0.019 67.189,-0.164 66.245,-0.164 65.33,-0.164 64.58,-0.007 63.999,0.31 63.415,0.627 63,1.083 62.752,1.683 c -0.249,0.6 -0.374,1.418 -0.374,2.456 v 5.657 h 1.299 V 4.14 c 0,-0.849 0.08,-1.479 0.238,-1.88 0.157,-0.404 0.427,-0.717 0.811,-0.933 0.383,-0.218 0.854,-0.328 1.407,-0.328 0.949,0 1.626,0.217 2.03,0.648 0.404,0.433 0.604,1.263 0.604,2.493 z M 72.258,0 V 9.796 H 76.6 c 0.873,0 1.536,-0.089 1.99,-0.265 0.454,-0.175 0.817,-0.485 1.088,-0.93 0.271,-0.444 0.406,-0.937 0.406,-1.475 0,-0.696 -0.226,-1.282 -0.675,-1.758 C 78.96,4.891 78.266,4.59 77.327,4.46 77.671,4.296 77.931,4.132 78.109,3.972 78.488,3.626 78.846,3.19 79.181,2.668 L 80.875,0 h -1.619 l -1.295,2.039 c -0.376,0.59 -0.689,1.04 -0.933,1.352 -0.246,0.312 -0.465,0.528 -0.659,0.654 -0.191,0.123 -0.39,0.21 -0.59,0.26 -0.146,0.029 -0.386,0.046 -0.721,0.046 H 73.557 V 0 Z m 1.299,5.473 h 2.783 c 0.593,0 1.053,0.061 1.385,0.184 0.334,0.121 0.587,0.317 0.758,0.589 0.173,0.269 0.26,0.561 0.26,0.878 0,0.463 -0.167,0.846 -0.501,1.144 -0.336,0.299 -0.865,0.447 -1.588,0.447 H 73.557 Z M 85.857,0 v 9.796 h 1.3 V 1.15 h 4.815 V 0 Z m 7.883,9.796 h 1.299 V 0 H 93.74 Z M 97.391,0 v 9.796 h 6.608 V 8.647 H 98.69 V 5.596 h 4.597 V 4.447 H 98.69 V 0 Z m 8.316,0 v 9.796 h 7.073 V 8.647 h -5.774 v -3.01 h 5.404 V 4.488 h -5.404 V 1.15 h 6.006 V 0 Z m 9.59,2.435 -0.369,5.19 v 2.171 h 1.491 V 7.625 l -0.342,-5.19 z m -0.315,-1.066 h 1.382 V 0 h -1.382 z" /></g><g
           transform="translate(67.2427,48.8693)"
           id="g30"><path
             id="path32"
             style="fill:#6f7479;fill-opacity:1;fill-rule:evenodd;stroke:none"
             d="m 0,0 c -3.902,0 -7.065,-3.163 -7.065,-7.065 0,-3.901 3.163,-7.064 7.065,-7.064 3.902,0 7.065,3.163 7.065,7.064 C 7.065,-3.163 3.902,0 0,0" /></g><g
           transform="translate(67.2427,46.868)"
           id="g34"><path
             id="path36"
             style="fill:#dd2537;fill-opacity:1;fill-rule:evenodd;stroke:none"
             d="m 0,0 c -2.796,0 -5.064,-2.267 -5.064,-5.064 0,-2.796 2.268,-5.064 5.064,-5.064 2.796,0 5.064,2.268 5.064,5.064 C 5.064,-2.267 2.796,0 0,0" /></g><g
           transform="translate(64.8675,37.3333)"
           id="g38"><path
             id="path40"
             style="fill:#ffffff;fill-opacity:1;fill-rule:evenodd;stroke:none"
             d="m 0,0 c 0.71,-0.379 1.521,-0.594 2.381,-0.594 2.797,0 5.064,2.267 5.064,5.064 0,1.243 -0.448,2.381 -1.191,3.263 C 6.766,6.922 7.063,5.962 7.063,4.931 7.063,2.031 4.711,-0.321 1.811,-0.321 1.175,-0.321 0.565,-0.208 0,0" /></g><g
           transform="translate(69.3279,46.4193)"
           id="g42"><path
             id="path44"
             style="fill:#231f20;fill-opacity:1;fill-rule:evenodd;stroke:none"
             d="m 0,0 c -2.368,1.152 -5.235,0.33 -6.603,-2.039 -1.368,-2.369 -0.568,-5.519 1.853,-6.917 0.364,-0.209 0.742,-0.368 1.127,-0.48 -0.108,0.053 -0.215,0.109 -0.321,0.17 -2.422,1.399 -3.147,4.677 -1.854,6.917 C -4.505,-0.109 -2.186,0.632 0,0" /></g><g
           transform="translate(38.9838,48.8693)"
           id="g46"><path
             id="path48"
             style="fill:#6f7479;fill-opacity:1;fill-rule:evenodd;stroke:none"
             d="m 0,0 c -3.902,0 -7.065,-3.163 -7.065,-7.065 0,-3.901 3.163,-7.064 7.065,-7.064 3.902,0 7.065,3.163 7.065,7.064 C 7.065,-3.163 3.902,0 0,0" /></g><g
           transform="translate(38.9838,46.868)"
           id="g50"><path
             id="path52"
             style="fill:#f9aa24;fill-opacity:1;fill-rule:evenodd;stroke:none"
             d="m 0,0 c -2.796,0 -5.064,-2.267 -5.064,-5.064 0,-2.796 2.268,-5.064 5.064,-5.064 2.796,0 5.064,2.268 5.064,5.064 C 5.064,-2.267 2.796,0 0,0" /></g><g
           transform="translate(36.6021,37.3346)"
           id="g54"><path
             id="path56"
             style="fill:#ffffff;fill-opacity:1;fill-rule:evenodd;stroke:none"
             d="m 0,0 c 0.71,-0.379 1.521,-0.594 2.381,-0.594 2.797,0 5.064,2.267 5.064,5.064 0,1.243 -0.448,2.381 -1.191,3.263 C 6.766,6.922 7.063,5.962 7.063,4.931 7.063,2.031 4.711,-0.321 1.811,-0.321 1.175,-0.321 0.565,-0.208 0,0" /></g><g
           transform="translate(40.969,46.4628)"
           id="g58"><path
             id="path60"
             style="fill:#231f20;fill-opacity:1;fill-rule:evenodd;stroke:none"
             d="m 0,0 c -2.368,1.152 -5.279,0.259 -6.616,-2.057 -1.653,-2.864 -0.156,-6.489 2.98,-7.398 -0.108,0.053 -0.215,0.11 -0.321,0.171 -2.422,1.399 -3.147,4.677 -1.853,6.917 C -4.517,-0.126 -2.186,0.632 0,0" /></g><g
           transform="translate(53.1133,48.8693)"
           id="g62"><path
             id="path64"
             style="fill:#6f7479;fill-opacity:1;fill-rule:evenodd;stroke:none"
             d="m 0,0 c -3.902,0 -7.065,-3.163 -7.065,-7.065 0,-3.901 3.163,-7.064 7.065,-7.064 3.902,0 7.065,3.163 7.065,7.064 C 7.065,-3.163 3.902,0 0,0" /></g><g
           transform="translate(53.1133,46.868)"
           id="g66"><path
             id="path68"
             style="fill:#178b48;fill-opacity:1;fill-rule:evenodd;stroke:none"
             d="m 0,0 c -2.796,0 -5.064,-2.267 -5.064,-5.064 0,-2.796 2.268,-5.064 5.064,-5.064 2.796,0 5.064,2.268 5.064,5.064 C 5.064,-2.267 2.796,0 0,0" /></g><g
           transform="translate(50.732,37.3346)"
           id="g70"><path
             id="path72"
             style="fill:#ffffff;fill-opacity:1;fill-rule:evenodd;stroke:none"
             d="m 0,0 c 0.71,-0.379 1.52,-0.594 2.381,-0.594 2.797,0 5.064,2.267 5.064,5.064 0,1.243 -0.449,2.381 -1.191,3.263 C 6.766,6.922 7.062,5.962 7.062,4.931 7.062,2.031 4.711,-0.321 1.811,-0.321 1.175,-0.321 0.565,-0.208 0,0" /></g><g
           transform="translate(55.0745,46.4445)"
           id="g74"><path
             id="path76"
             style="fill:#231f20;fill-opacity:1;fill-rule:evenodd;stroke:none"
             d="m 0,0 c -2.368,1.152 -5.259,0.292 -6.596,-2.023 -1.398,-2.423 -0.568,-5.519 1.854,-6.918 0.363,-0.209 0.741,-0.368 1.126,-0.481 -0.108,0.053 -0.215,0.11 -0.321,0.171 -2.422,1.399 -3.252,4.495 -1.854,6.917 C -4.602,-0.275 -2.186,0.633 0,0" /></g><g
           transform="translate(24.8544,48.8693)"
           id="g78"><path
             id="path80"
             style="fill:#6f7479;fill-opacity:1;fill-rule:evenodd;stroke:none"
             d="m 0,0 c -3.902,0 -7.065,-3.163 -7.065,-7.065 0,-3.901 3.163,-7.064 7.065,-7.064 3.902,0 7.065,3.163 7.065,7.064 C 7.065,-3.163 3.902,0 0,0" /></g><g
           transform="translate(24.8544,46.868)"
           id="g82"><path
             id="path84"
             style="fill:#15618b;fill-opacity:1;fill-rule:evenodd;stroke:none"
             d="m 0,0 c -2.796,0 -5.064,-2.267 -5.064,-5.064 0,-2.796 2.268,-5.064 5.064,-5.064 2.796,0 5.064,2.268 5.064,5.064 C 5.064,-2.267 2.796,0 0,0" /></g><g
           transform="translate(22.4727,37.3346)"
           id="g86"><path
             id="path88"
             style="fill:#ffffff;fill-opacity:1;fill-rule:evenodd;stroke:none"
             d="m 0,0 c 0.71,-0.379 1.521,-0.594 2.381,-0.594 2.797,0 5.064,2.267 5.064,5.064 0,1.243 -0.448,2.381 -1.191,3.263 C 6.766,6.922 7.063,5.962 7.063,4.931 7.063,2.031 4.711,-0.321 1.811,-0.321 1.175,-0.321 0.565,-0.208 0,0" /></g><g
           transform="translate(26.8157,46.4445)"
           id="g90"><path
             id="path92"
             style="fill:#231f20;fill-opacity:1;fill-rule:evenodd;stroke:none"
             d="m 0,0 c -2.368,1.152 -5.259,0.292 -6.596,-2.023 -1.398,-2.423 -0.568,-5.519 1.854,-6.918 0.363,-0.209 0.741,-0.368 1.126,-0.481 -0.108,0.053 -0.215,0.11 -0.32,0.171 -2.423,1.399 -3.253,4.495 -1.855,6.917 C -4.602,-0.275 -2.186,0.633 0,0" /></g><g
           transform="translate(89.1731,43.9236)"
           id="g94"><path
             id="path96"
             style="fill:#231f20;fill-opacity:1;fill-rule:nonzero;stroke:none"
             d="M 0,0 H -3.038 C -3.398,0.488 -3.826,0.854 -4.323,1.098 -4.821,1.343 -5.384,1.465 -6.018,1.465 -6.531,1.465 -7.015,1.37 -7.474,1.176 -7.933,0.985 -8.34,0.705 -8.695,0.339 -9.073,-0.045 -9.365,-0.488 -9.57,-0.989 -9.776,-1.492 -9.88,-2.01 -9.88,-2.537 c 0,-1.164 0.375,-2.141 1.123,-2.928 0.747,-0.789 1.661,-1.181 2.742,-1.181 0.622,0 1.182,0.115 1.68,0.348 0.497,0.232 0.899,0.569 1.208,1.01 h 3.038 C -0.682,-6.584 -1.474,-7.558 -2.46,-8.207 -3.448,-8.86 -4.63,-9.184 -6,-9.184 c -0.953,0 -1.835,0.185 -2.639,0.551 -0.804,0.367 -1.527,0.908 -2.167,1.629 -0.539,0.599 -0.951,1.28 -1.228,2.046 -0.279,0.765 -0.419,1.581 -0.419,2.454 0,0.884 0.17,1.724 0.506,2.516 0.336,0.795 0.831,1.515 1.483,2.167 0.617,0.605 1.302,1.064 2.051,1.374 0.754,0.312 1.564,0.467 2.431,0.467 1.39,0 2.575,-0.33 3.561,-0.995 C -1.435,2.365 -0.629,1.355 0,0 m 3.556,-2.469 c 0,-0.545 0.089,-1.054 0.271,-1.524 0.179,-0.474 0.446,-0.903 0.8,-1.293 0.391,-0.423 0.834,-0.75 1.328,-0.979 0.496,-0.23 1.008,-0.346 1.538,-0.346 1.11,0 2.043,0.396 2.796,1.186 0.753,0.791 1.128,1.777 1.128,2.956 0,1.081 -0.378,2.004 -1.138,2.769 C 9.52,1.066 8.609,1.447 7.543,1.447 6.433,1.447 5.491,1.066 4.717,0.304 3.943,-0.456 3.556,-1.382 3.556,-2.469 M 0.947,-2.555 c 0,0.697 0.092,1.354 0.28,1.974 0.185,0.619 0.462,1.2 0.828,1.739 0.628,0.914 1.417,1.621 2.364,2.118 0.947,0.497 1.983,0.744 3.106,0.744 0.843,0 1.656,-0.164 2.439,-0.489 0.783,-0.324 1.483,-0.794 2.099,-1.405 0.635,-0.632 1.117,-1.346 1.447,-2.135 0.332,-0.792 0.498,-1.623 0.498,-2.495 0,-0.906 -0.155,-1.757 -0.467,-2.555 -0.31,-0.796 -0.769,-1.501 -1.373,-2.118 -0.611,-0.646 -1.322,-1.143 -2.136,-1.488 -0.81,-0.346 -1.659,-0.519 -2.542,-0.519 -0.948,0 -1.821,0.169 -2.618,0.506 -0.795,0.337 -1.501,0.837 -2.12,1.501 -0.593,0.626 -1.043,1.331 -1.347,2.114 -0.306,0.781 -0.458,1.617 -0.458,2.508 M 22.015,-8.934 H 15.566 V 3.77 h 2.465 V -6.7 h 3.984 z m 2.829,6.465 c 0,-0.545 0.09,-1.054 0.272,-1.524 0.178,-0.474 0.446,-0.903 0.8,-1.293 0.39,-0.423 0.834,-0.75 1.328,-0.979 0.494,-0.23 1.007,-0.346 1.537,-0.346 1.111,0 2.042,0.396 2.797,1.186 0.752,0.791 1.128,1.777 1.128,2.956 0,1.081 -0.378,2.004 -1.138,2.769 -0.759,0.766 -1.671,1.147 -2.736,1.147 -1.111,0 -2.052,-0.381 -2.827,-1.143 -0.774,-0.76 -1.161,-1.686 -1.161,-2.773 m -2.609,-0.086 c 0,0.697 0.093,1.354 0.281,1.974 0.184,0.619 0.461,1.2 0.827,1.739 0.629,0.914 1.418,1.621 2.365,2.118 0.946,0.497 1.983,0.744 3.106,0.744 0.843,0 1.655,-0.164 2.439,-0.489 0.782,-0.324 1.482,-0.794 2.099,-1.405 0.635,-0.632 1.117,-1.346 1.447,-2.135 0.33,-0.792 0.498,-1.623 0.498,-2.495 0,-0.906 -0.156,-1.757 -0.469,-2.555 -0.309,-0.796 -0.767,-1.501 -1.372,-2.118 -0.61,-0.646 -1.322,-1.143 -2.135,-1.488 -0.81,-0.346 -1.658,-0.519 -2.543,-0.519 -0.947,0 -1.819,0.169 -2.618,0.506 -0.795,0.337 -1.5,0.837 -2.119,1.501 -0.594,0.626 -1.043,1.331 -1.347,2.114 -0.306,0.781 -0.459,1.617 -0.459,2.508 m 17.102,0.143 h 0.552 c 1.005,0 1.771,0.182 2.292,0.544 0.521,0.365 0.784,0.895 0.784,1.594 0,0.673 -0.218,1.17 -0.656,1.492 -0.437,0.318 -1.119,0.479 -2.045,0.479 h -0.927 z m 0,-6.522 H 36.854 V 3.77 h 3.017 c 0.958,0 1.673,-0.033 2.14,-0.102 0.471,-0.065 0.87,-0.175 1.203,-0.327 0.721,-0.336 1.272,-0.807 1.65,-1.411 0.378,-0.605 0.566,-1.314 0.566,-2.13 0,-0.983 -0.271,-1.816 -0.813,-2.499 -0.539,-0.683 -1.275,-1.115 -2.206,-1.303 l 3.177,-4.932 h -2.966 l -3.285,5.896 z" /></g></g></g></g></svg>