<?xml version="1.0" encoding="UTF-8" standalone="no"?>
<svg
   xmlns:dc="http://purl.org/dc/elements/1.1/"
   xmlns:cc="http://creativecommons.org/ns#"
   xmlns:rdf="http://www.w3.org/1999/02/22-rdf-syntax-ns#"
   xmlns:svg="http://www.w3.org/2000/svg"
   xmlns="http://www.w3.org/2000/svg"
   viewBox="0 0 511.556 256.35468"
   height="256.35468"
   width="511.556"
   xml:space="preserve"
   id="svg2"
   version="1.1"><metadata
     id="metadata8"><rdf:RDF><cc:Work
         rdf:about=""><dc:format>image/svg+xml</dc:format><dc:type
           rdf:resource="http://purl.org/dc/dcmitype/StillImage" /></cc:Work></rdf:RDF></metadata><defs
     id="defs6"><clipPath
       id="clipPath18"
       clipPathUnits="userSpaceOnUse"><path
         id="path16"
         d="M 0,192.266 H 383.667 V 0 H 0 Z" /></clipPath></defs><g
     transform="matrix(1.3333333,0,0,-1.3333333,0,256.35467)"
     id="g10"><g
       id="g12"><g
         clip-path="url(#clipPath18)"
         id="g14"><g
           transform="translate(256.647,29.9751)"
           id="g20"><path
             id="path22"
             style="fill:#fabc26;fill-opacity:1;fill-rule:evenodd;stroke:none"
             d="M 0,0 H 12.656 V 7.67 H 6.326 C 6.102,7.67 5.844,7.634 5.615,7.614 5.199,7.568 4.773,7.472 4.373,7.355 3.855,7.213 3.353,6.985 2.876,6.731 2.349,6.437 1.887,6.052 1.476,5.6 1.015,5.073 0.675,4.433 0.416,3.774 0.096,2.932 0,1.978 0,1.08 Z m -69.577,3.221 c 0,0.675 -0.091,1.349 -0.329,1.978 -0.214,0.558 -0.508,1.06 -0.919,1.481 -0.405,0.427 -0.887,0.731 -1.425,0.954 -0.599,0.238 -1.223,0.345 -1.862,0.345 h -5.296 c -0.644,0 -1.283,-0.101 -1.882,-0.345 -0.537,-0.223 -1.019,-0.532 -1.43,-0.954 -0.416,-0.421 -0.715,-0.923 -0.923,-1.481 -0.239,-0.629 -0.33,-1.303 -0.33,-1.978 v -4.286 c 0,-0.68 0.091,-1.35 0.33,-1.979 0.208,-0.558 0.507,-1.06 0.923,-1.486 0.411,-0.421 0.893,-0.736 1.43,-0.954 0.599,-0.248 1.238,-0.345 1.882,-0.345 h 5.266 c 0.644,0 1.278,0.097 1.882,0.345 0.538,0.218 1.019,0.533 1.425,0.954 0.411,0.426 0.71,0.928 0.929,1.486 0.238,0.629 0.329,1.299 0.329,1.979 z M -204.845,0 h 12.657 v 7.67 h -6.331 c -0.223,0 -0.482,-0.036 -0.705,-0.056 -0.426,-0.046 -0.842,-0.142 -1.253,-0.259 -0.512,-0.142 -1.015,-0.37 -1.491,-0.624 -0.528,-0.294 -0.995,-0.679 -1.4,-1.131 -0.467,-0.527 -0.802,-1.167 -1.056,-1.826 -0.324,-0.842 -0.421,-1.796 -0.421,-2.694 z M 101.53,-3.348 v -7.371 h -5.033 v 7.371 h -1.019 c -0.548,0 -1.106,0.071 -1.649,0.183 -0.603,0.126 -1.182,0.329 -1.74,0.598 -0.588,0.284 -1.141,0.634 -1.653,1.045 -0.548,0.441 -1.015,0.969 -1.416,1.557 -0.426,0.645 -0.74,1.355 -0.969,2.1 -0.263,0.858 -0.365,1.761 -0.365,2.653 v 8.081 h 5.002 V 4.788 c 0,-0.415 0.056,-0.831 0.203,-1.227 0.127,-0.335 0.314,-0.634 0.558,-0.888 0.238,-0.264 0.537,-0.446 0.857,-0.568 0.386,-0.152 0.796,-0.213 1.202,-0.213 h 7.006 c 0.355,0.066 0.715,0.142 1.065,0.233 0.314,0.082 0.609,0.214 0.877,0.416 0.269,0.203 0.477,0.498 0.629,0.802 0.203,0.421 0.254,0.979 0.254,1.445 v 8.081 h 4.997 V 4.788 c 0,-0.897 -0.097,-1.806 -0.366,-2.663 -0.223,-0.745 -0.537,-1.445 -0.958,-2.084 -0.391,-0.594 -0.868,-1.127 -1.416,-1.563 -0.512,-0.411 -1.065,-0.761 -1.648,-1.04 -0.558,-0.274 -1.136,-0.477 -1.74,-0.603 -0.543,-0.112 -1.091,-0.183 -1.644,-0.183 z M 78.317,7.67 V -10.719 H 73.315 V 7.67 h -7.117 v 5.199 H 85.409 V 7.67 Z m -30.319,0 V 3.693 h 8.735 v -5.235 h -8.735 v -2.897 c 0,-0.289 0.045,-0.609 0.248,-0.816 0.203,-0.213 0.533,-0.259 0.797,-0.259 h 14.619 v -5.205 h -14.65 c -0.644,0 -1.304,0.127 -1.927,0.32 -0.721,0.218 -1.38,0.583 -1.964,1.075 -0.644,0.533 -1.136,1.203 -1.511,1.953 -0.457,0.898 -0.614,1.923 -0.614,2.932 v 14.691 c 0,0.345 0.061,0.695 0.193,1.03 0.132,0.309 0.304,0.593 0.527,0.831 0.234,0.239 0.497,0.427 0.812,0.569 0.309,0.126 0.644,0.187 0.989,0.187 H 63.662 V 7.67 Z m -22.65,0 V 3.693 h 8.416 v -5.235 h -8.416 v -9.177 h -5.002 v 20.971 c 0,0.35 0.066,0.695 0.193,1.024 0.132,0.31 0.3,0.589 0.528,0.832 0.228,0.244 0.502,0.432 0.811,0.574 0.315,0.126 0.65,0.187 0.985,0.187 H 41.018 V 7.67 Z M 12.656,-5.21 H 0 v -5.509 H -5.007 V 1.08 c 0,1.624 0.264,3.227 0.858,4.733 0.552,1.41 1.344,2.678 2.374,3.749 1.039,1.065 2.252,1.877 3.591,2.44 1.441,0.608 2.962,0.867 4.51,0.867 h 8.816 c 0.33,0 0.659,-0.061 0.979,-0.193 0.304,-0.136 0.568,-0.324 0.801,-0.563 0.234,-0.238 0.416,-0.527 0.533,-0.831 0.137,-0.33 0.203,-0.675 0.203,-1.03 v -20.971 h -5.002 z m -20.169,1.664 c 0,-0.786 -0.086,-1.588 -0.319,-2.334 -0.198,-0.659 -0.467,-1.283 -0.837,-1.851 -0.345,-0.533 -0.756,-0.999 -1.248,-1.39 -0.446,-0.355 -0.928,-0.67 -1.446,-0.913 -0.487,-0.228 -0.999,-0.406 -1.517,-0.527 -0.486,-0.097 -0.973,-0.158 -1.455,-0.158 h -15.634 v 5.205 h 15.634 c 0.502,0 0.994,0.117 1.344,0.512 0.365,0.401 0.477,0.918 0.477,1.456 0,0.289 -0.031,0.573 -0.122,0.832 -0.086,0.238 -0.208,0.446 -0.37,0.634 -0.158,0.172 -0.345,0.304 -0.548,0.391 -0.254,0.106 -0.518,0.147 -0.781,0.147 h -8.999 c -0.741,0 -1.492,0.147 -2.202,0.375 -0.817,0.264 -1.552,0.68 -2.217,1.233 -0.73,0.609 -1.283,1.375 -1.714,2.242 -0.507,1.03 -0.68,2.201 -0.68,3.358 0,1.152 0.173,2.323 0.68,3.358 0.431,0.858 0.989,1.618 1.714,2.227 0.665,0.553 1.4,0.979 2.217,1.248 0.71,0.228 1.461,0.37 2.202,0.37 H -9.476 V 7.67 h -13.858 c -0.508,0 -0.979,-0.122 -1.334,-0.518 -0.361,-0.416 -0.477,-0.938 -0.477,-1.486 0,-0.533 0.111,-1.07 0.477,-1.466 0.35,-0.386 0.832,-0.507 1.334,-0.507 h 9.039 c 0.482,-0.01 0.969,-0.076 1.436,-0.188 0.527,-0.122 1.04,-0.309 1.522,-0.548 0.517,-0.258 0.999,-0.573 1.445,-0.943 0.477,-0.396 0.883,-0.858 1.228,-1.38 0.375,-0.568 0.649,-1.192 0.847,-1.846 0.223,-0.751 0.304,-1.553 0.304,-2.334 M -56.804,7.67 V 3.693 h 7.655 v -5.235 h -7.655 v -9.177 h -5.001 v 20.971 c 0,0.35 0.066,0.695 0.197,1.024 0.122,0.31 0.295,0.589 0.523,0.832 0.228,0.244 0.502,0.432 0.812,0.574 0.309,0.126 0.649,0.187 0.984,0.187 h 18.155 V 7.67 Z m -7.771,-8.735 c 0,-1.38 -0.218,-2.724 -0.715,-3.998 -0.467,-1.182 -1.132,-2.252 -1.999,-3.16 -0.872,-0.903 -1.892,-1.593 -3.033,-2.075 -1.208,-0.507 -2.491,-0.74 -3.79,-0.74 h -5.296 c -1.308,0 -2.587,0.233 -3.799,0.74 -1.146,0.482 -2.166,1.172 -3.039,2.075 -0.872,0.913 -1.531,1.973 -2.003,3.155 -0.508,1.279 -0.726,2.623 -0.726,4.003 v 4.286 c 0,1.37 0.218,2.714 0.726,3.992 0.472,1.182 1.131,2.252 2.014,3.155 0.867,0.898 1.887,1.588 3.028,2.07 1.207,0.523 2.491,0.756 3.799,0.756 h 5.296 c 1.304,0 2.582,-0.233 3.79,-0.756 1.136,-0.487 2.155,-1.172 3.028,-2.07 0.878,-0.903 1.537,-1.973 2.004,-3.155 0.497,-1.278 0.715,-2.622 0.715,-3.992 z m -54.831,5.316 v -14.97 h -5.001 v 21.29 c 0,0.528 0.152,1.02 0.436,1.451 0.284,0.426 0.644,0.746 1.106,0.964 0.467,0.198 0.954,0.248 1.451,0.152 0.507,-0.102 0.938,-0.35 1.303,-0.736 L -106.764,-2.1 v 14.969 h 5.001 V -8.416 c 0,-0.36 -0.066,-0.715 -0.203,-1.04 -0.127,-0.309 -0.309,-0.588 -0.532,-0.827 -0.234,-0.243 -0.508,-0.426 -0.797,-0.547 -0.314,-0.142 -0.644,-0.208 -0.979,-0.208 -0.319,0 -0.624,0.061 -0.918,0.177 -0.33,0.122 -0.619,0.335 -0.867,0.599 z m -8.476,-14.97 h -5.007 v 23.593 h 5.007 z m -13.016,5.205 v 3.972 h -10.405 v 5.235 h 12.89 c 0.345,0 0.685,-0.066 0.999,-0.208 0.305,-0.137 0.574,-0.33 0.802,-0.568 0.218,-0.244 0.396,-0.518 0.533,-0.832 0.121,-0.32 0.187,-0.66 0.187,-1.005 v -9.181 c 0,-0.355 -0.066,-0.7 -0.198,-1.045 -0.121,-0.305 -0.304,-0.588 -0.527,-0.822 -0.233,-0.243 -0.502,-0.426 -0.802,-0.558 -0.314,-0.137 -0.649,-0.193 -0.994,-0.193 h -14.102 c -0.431,0 -0.857,0.051 -1.273,0.142 -0.462,0.097 -0.918,0.254 -1.349,0.457 -0.452,0.213 -0.878,0.477 -1.274,0.791 -0.426,0.34 -0.791,0.751 -1.101,1.208 -0.334,0.492 -0.578,1.045 -0.755,1.623 -0.203,0.664 -0.284,1.364 -0.284,2.059 V 6.589 c 0,0.447 0.055,0.893 0.142,1.329 0.096,0.482 0.238,0.949 0.431,1.4 0.203,0.482 0.466,0.924 0.776,1.334 0.335,0.442 0.725,0.817 1.167,1.142 0.471,0.345 0.994,0.599 1.547,0.786 0.634,0.208 1.309,0.289 1.973,0.289 h 16.436 V 7.67 h -16.436 c -0.269,0 -0.583,-0.046 -0.791,-0.269 -0.208,-0.203 -0.249,-0.558 -0.249,-0.842 V -4.439 c 0,-0.289 0.051,-0.598 0.259,-0.811 0.203,-0.208 0.502,-0.264 0.781,-0.264 z m -26.647,2.257 8.299,-7.462 h -7.711 l -8.152,7.341 v 5.214 h 6.209 c 0.396,0.036 0.797,0.122 1.162,0.279 0.33,0.137 0.629,0.325 0.883,0.578 0.248,0.244 0.426,0.533 0.553,0.863 0.152,0.375 0.202,0.791 0.202,1.202 v 2.567 c 0,0.066 -0.005,0.223 -0.03,0.279 -0.005,0.01 -0.01,0.03 -0.01,0.03 -0.005,0.005 -0.025,0.025 -0.036,0.025 -0.066,0.006 -0.137,0.011 -0.203,0.011 h -12.362 v -18.389 h -4.996 v 20.971 c 0,0.35 0.061,0.695 0.193,1.024 0.121,0.31 0.299,0.589 0.517,0.832 0.233,0.244 0.507,0.432 0.822,0.574 0.309,0.126 0.639,0.187 0.979,0.187 h 14.847 c 0.843,0 1.7,-0.137 2.461,-0.548 0.634,-0.35 1.192,-0.806 1.638,-1.39 0.406,-0.542 0.721,-1.141 0.908,-1.795 0.168,-0.579 0.279,-1.177 0.279,-1.786 V 4.758 c 0,-0.903 -0.101,-1.806 -0.365,-2.663 -0.223,-0.741 -0.533,-1.451 -0.964,-2.09 -0.396,-0.589 -0.872,-1.116 -1.415,-1.552 -0.512,-0.416 -1.06,-0.771 -1.649,-1.05 -0.558,-0.264 -1.141,-0.472 -1.74,-0.599 -0.111,-0.02 -0.213,-0.046 -0.319,-0.061 m -24.643,-1.953 h -12.657 v -5.509 h -5.001 V 1.08 c 0,1.624 0.258,3.227 0.852,4.733 0.548,1.41 1.339,2.678 2.379,3.749 1.035,1.065 2.242,1.877 3.592,2.44 1.44,0.608 2.957,0.867 4.504,0.867 h 8.816 c 0.33,0 0.66,-0.061 0.979,-0.193 0.3,-0.136 0.569,-0.324 0.802,-0.563 0.233,-0.238 0.416,-0.527 0.538,-0.831 0.131,-0.33 0.197,-0.675 0.197,-1.03 v -20.971 h -5.001 z m -25.729,6.285 -5.91,-10.83 c -0.218,-0.416 -0.527,-0.736 -0.943,-0.964 -0.386,-0.213 -0.802,-0.319 -1.233,-0.319 -0.431,0 -0.842,0.106 -1.217,0.319 -0.396,0.228 -0.7,0.553 -0.913,0.954 l -5.945,10.845 v -11.799 h -4.997 v 21.29 c 0,0.589 0.162,1.126 0.507,1.593 0.34,0.467 0.797,0.786 1.355,0.944 0.258,0.066 0.527,0.091 0.801,0.071 0.259,-0.021 0.518,-0.077 0.761,-0.178 0.259,-0.106 0.487,-0.243 0.68,-0.421 0.213,-0.183 0.395,-0.411 0.532,-0.664 l 8.436,-15.259 8.431,15.269 c 0.289,0.497 0.705,0.862 1.223,1.075 0.517,0.218 1.065,0.249 1.618,0.101 0.543,-0.157 0.984,-0.471 1.319,-0.933 0.35,-0.467 0.522,-1.009 0.522,-1.598 v -21.29 h -5.027 z" /></g><g
           transform="translate(277.2974,85.4029)"
           id="g24"><path
             id="path26"
             style="fill:#50bbed;fill-opacity:1;fill-rule:evenodd;stroke:none"
             d="m 0,0 h -52.857 l -17.587,-15.02 h 84.825 v 34.971 h -31.75 v 4.93 h 16.73 l 15.02,15.025 H -31.755 V 4.931 L 0,4.931 Z m -112.629,0 h -20.98 v 39.906 h -15.122 l -10.779,-14.852 -10.78,14.852 h -15.121 V -15 l 15.02,15 v 20.143 l 10.881,-14.994 10.881,14.994 V 0 l 15.02,-15 v -0.02 h 38.567 z" /></g><g
           transform="translate(182.478,144.3768)"
           id="g28"><path
             id="path30"
             style="fill:#fabc26;fill-opacity:1;fill-rule:evenodd;stroke:none"
             d="m 0,0 h -5.037 v -27.322 l 16.08,-16.085 0.015,7.112 L 0,-25.242 Z" /></g><g
           transform="translate(217.523,113.1834)"
           id="g32"><path
             id="path34"
             style="fill:#50bbed;fill-opacity:1;fill-rule:evenodd;stroke:none"
             d="M 0,0 -22.964,-22.02 -45.811,0 V 35.884 H 0 Z m -68.902,58.975 v -70.52 l 45.938,-39.232 46.055,39.232 v 70.52 z" /></g></g></g></g></svg>