<?xml version="1.0" encoding="UTF-8" standalone="no"?>
<svg
   xmlns:dc="http://purl.org/dc/elements/1.1/"
   xmlns:cc="http://creativecommons.org/ns#"
   xmlns:rdf="http://www.w3.org/1999/02/22-rdf-syntax-ns#"
   xmlns:svg="http://www.w3.org/2000/svg"
   xmlns="http://www.w3.org/2000/svg"
   viewBox="0 0 369.37332 117.9968"
   height="117.9968"
   width="369.37332"
   xml:space="preserve"
   id="svg2"
   version="1.1"><metadata
     id="metadata8"><rdf:RDF><cc:Work
         rdf:about=""><dc:format>image/svg+xml</dc:format><dc:type
           rdf:resource="http://purl.org/dc/dcmitype/StillImage" /></cc:Work></rdf:RDF></metadata><defs
     id="defs6"><clipPath
       id="clipPath18"
       clipPathUnits="userSpaceOnUse"><path
         id="path16"
         d="M 0,88.498 H 277.03 V 0 H 0 Z" /></clipPath></defs><g
     transform="matrix(1.3333333,0,0,-1.3333333,0,117.9968)"
     id="g10"><g
       id="g12"><g
         clip-path="url(#clipPath18)"
         id="g14"><g
           transform="translate(93.1361,80.7482)"
           id="g20"><path
             id="path22"
             style="fill:#231f20;fill-opacity:1;fill-rule:nonzero;stroke:none"
             d="m 0,0 c -10.497,-11.259 -20.994,-22.519 -31.734,-34.04 5.819,-2.757 11.22,-5.316 16.62,-7.874 0.278,-0.14 0.321,-0.409 -0.087,-0.617 -20.869,-10.054 -41.738,-20.109 -62.608,-30.163 -0.477,-0.227 -0.742,0.159 -0.427,0.481 10.428,11.229 20.855,22.457 31.595,34.022 -5.677,2.689 -11.084,5.25 -16.49,7.811 -0.344,0.211 -0.457,0.519 -0.054,0.722 C -42.26,-19.579 -21.334,-9.5 -0.409,0.579 0.11,0.85 0.439,0.434 0,0" /></g><g
           transform="translate(63.8571,22.8552)"
           id="g24"><path
             id="path26"
             style="fill:#231f20;fill-opacity:1;fill-rule:nonzero;stroke:none"
             d="m 0,0 c 0.328,0.759 3.805,2.188 5.843,3.193 2.193,1.082 4.422,2.095 6.595,3.216 1.416,0.73 2.497,0.773 3.749,-0.51 6.247,-6.398 12.6,-12.691 18.88,-19.056 0.495,-0.502 1.344,-1.229 1.075,-1.91 -0.272,-0.686 -1.4,-0.652 -2.103,-0.658 -6,-0.054 -12.002,-0.071 -18.002,0.008 -0.892,0.012 -2.035,0.325 -2.625,0.927 C 9.033,-10.328 4.762,-5.76 0.47,-1.214 0.214,-0.943 -0.234,-0.542 0,0" /></g><g
           transform="translate(7.1517,79.5779)"
           id="g28"><path
             id="path30"
             style="fill:#231f20;fill-opacity:1;fill-rule:nonzero;stroke:none"
             d="m 0,0 c 0.272,0.444 1.442,0.337 2.109,0.339 5.941,0.018 11.882,-0.02 17.822,0.03 1.536,0.013 2.692,-0.462 3.738,-1.609 3.431,-3.764 6.953,-7.444 10.41,-11.185 1.419,-1.537 1.33,-1.787 -0.605,-2.714 -3.661,-1.754 -7.325,-3.5 -10.974,-5.281 -1.156,-0.564 -2.067,-0.63 -3.099,0.416 C 13.068,-13.585 6.669,-7.231 0.3,-0.847 0.177,-0.725 -0.204,-0.334 0,0" /></g><g
           transform="translate(133.752,49.3332)"
           id="g32"><path
             id="path34"
             style="fill:#231f20;fill-opacity:1;fill-rule:nonzero;stroke:none"
             d="m 0,0 c -2.002,-1.334 -5.718,-1.81 -8.674,-1.81 h -6.67 l 2.859,13.725 h 7.148 c 2.096,0 4.955,-0.381 6.385,-1.429 C 2.193,9.627 3.147,7.911 3.147,5.72 3.147,3.527 1.905,1.24 0,0 m -5.527,-27.354 c -1.715,-1.048 -4.195,-2.096 -9.532,-2.096 h -6.194 l 3.241,15.631 h 6.385 c 2.859,0 6.384,-0.191 8.292,-1.906 0.951,-0.859 1.812,-2.289 1.812,-4.766 0,-4.098 -2.193,-5.814 -4.004,-6.863 M 20.586,9.245 c 0,12.582 -11.054,15.441 -20.395,15.441 H -27.45 l -11.523,-54.136 12.447,-12.582 h 12.421 c 3.716,0 14.105,0.382 21.444,5.052 6.863,4.384 8.674,10.771 8.674,16.298 0,4.193 -1.239,6.768 -3.525,8.864 -1.145,1.049 -3.911,3.336 -9.341,4.004 v 0.189 c 6.385,0.859 17.439,4.67 17.439,16.87" /></g><g
           transform="translate(176.7896,34.1787)"
           id="g36"><path
             id="path38"
             style="fill:#231f20;fill-opacity:1;fill-rule:nonzero;stroke:none"
             d="m 0,0 14.105,26.116 h 0.191 L 16.679,0 Z M 28.116,39.84 H 6.385 l -39.459,-66.717 h 18.015 l 8.293,14.202 h 24.969 l 1.908,-14.202 h 19.442 z" /></g><g
           transform="translate(232.3836,60.8667)"
           id="g40"><path
             id="path42"
             style="fill:#231f20;fill-opacity:1;fill-rule:nonzero;stroke:none"
             d="m 0,0 h -16.489 l 2.86,13.152 H 37.554 L 34.695,0 H 18.015 L 6.672,-53.565 h -18.015 z" /></g></g></g></g></svg>