<?xml version="1.0" encoding="UTF-8" standalone="no"?>
<svg
   xmlns:dc="http://purl.org/dc/elements/1.1/"
   xmlns:cc="http://creativecommons.org/ns#"
   xmlns:rdf="http://www.w3.org/1999/02/22-rdf-syntax-ns#"
   xmlns:svg="http://www.w3.org/2000/svg"
   xmlns="http://www.w3.org/2000/svg"
   viewBox="0 0 125.63147 59.527599"
   height="59.527599"
   width="125.63147"
   xml:space="preserve"
   id="svg2"
   version="1.1"><metadata
     id="metadata8"><rdf:RDF><cc:Work
         rdf:about=""><dc:format>image/svg+xml</dc:format><dc:type
           rdf:resource="http://purl.org/dc/dcmitype/StillImage" /></cc:Work></rdf:RDF></metadata><defs
     id="defs6"><clipPath
       id="clipPath18"
       clipPathUnits="userSpaceOnUse"><path
         id="path16"
         d="M 0,44.646 H 94.224 V 0 H 0 Z" /></clipPath></defs><g
     transform="matrix(1.3333333,0,0,-1.3333333,0,59.5276)"
     id="g10"><g
       id="g12"><g
         clip-path="url(#clipPath18)"
         id="g14"><g
           transform="translate(87.0603,40.0797)"
           id="g20"><path
             id="path22"
             style="fill:none;stroke:#f6bf00;stroke-width:0.5;stroke-linecap:butt;stroke-linejoin:miter;stroke-miterlimit:10;stroke-dasharray:none;stroke-opacity:1"
             d="m 0,0 c 1.604,0 2.91,-1.309 2.91,-2.913 0,-1.605 -1.306,-2.913 -2.91,-2.913 -1.604,0 -2.913,1.308 -2.913,2.913 C -2.913,-1.309 -1.604,0 0,0 Z" /></g><path
           id="path24"
           style="fill:#f6bf00;fill-opacity:1;fill-rule:evenodd;stroke:none"
           d="m 9.903,9.813 h 72.24 V 9.332 H 9.903 Z" /><path
           id="path26"
           style="fill:#f6bf00;fill-opacity:1;fill-rule:nonzero;stroke:none"
           d="m 9.903,9.813 h 72.24 V 9.332 H 9.903 Z" /><g
           transform="translate(9.9714,4.2457)"
           id="g28"><path
             id="path30"
             style="fill:#f6bf00;fill-opacity:1;fill-rule:evenodd;stroke:none"
             d="M 0,0 V 2.897 H 2.523 V 2.391 H 0.581 V 1.629 H 1.632 V 1.101 H 0.581 L 0.581,0 Z M 3.244,2.897 H 3.825 V 0 H 3.244 Z M 5.095,0 V 2.897 H 5.491 L 7.248,1.19 C 7.308,1.134 7.36,1.081 7.406,1.029 7.452,0.979 7.494,0.929 7.532,0.875 7.522,1.038 7.516,1.153 7.513,1.221 7.509,1.287 7.507,1.341 7.507,1.377 v 1.52 H 8.029 V 0 H 7.632 L 5.8,1.791 C 5.756,1.837 5.718,1.878 5.685,1.915 5.652,1.95 5.621,1.988 5.593,2.025 5.6,1.938 5.606,1.853 5.611,1.772 5.615,1.694 5.616,1.625 5.616,1.566 V 0 Z m 6.301,2.38 H 9.831 V 0.546 h 1.565 V 1.168 L 11.977,1.029 V 0.685 c 0,-0.264 -0.042,-0.444 -0.129,-0.54 C 11.762,0.049 11.599,0 11.358,0 H 9.869 C 9.626,0 9.463,0.049 9.377,0.145 9.292,0.241 9.251,0.421 9.251,0.685 v 1.528 c 0,0.263 0.041,0.443 0.126,0.541 0.086,0.096 0.249,0.143 0.492,0.143 h 1.489 c 0.241,0 0.404,-0.047 0.49,-0.143 0.087,-0.098 0.129,-0.278 0.129,-0.541 V 1.938 L 11.396,1.832 Z M 13.173,0 v 2.897 h 0.581 V 1.774 h 1.813 v 1.123 h 0.585 V 0 H 15.567 V 1.247 H 13.754 V 0 Z M 19.3,2.897 h 0.581 V 0 H 19.3 Z M 21.15,0 v 2.897 h 0.397 L 23.305,1.19 c 0.059,-0.056 0.112,-0.109 0.157,-0.161 0.046,-0.05 0.087,-0.1 0.126,-0.154 -0.009,0.163 -0.016,0.278 -0.02,0.346 -0.002,0.066 -0.004,0.12 -0.004,0.156 v 1.52 h 0.521 V 0 H 23.689 L 21.856,1.791 C 21.813,1.837 21.773,1.878 21.741,1.915 21.708,1.95 21.676,1.988 21.649,2.025 21.656,1.938 21.663,1.853 21.666,1.772 21.67,1.694 21.672,1.625 21.672,1.566 V 0 Z m 4.789,0.546 h 0.751 c 0.399,0 0.682,0.072 0.849,0.217 0.167,0.145 0.251,0.383 0.251,0.715 0,0.296 -0.069,0.52 -0.208,0.673 C 27.443,2.304 27.239,2.38 26.968,2.38 H 25.939 Z M 25.357,0 v 2.897 h 1.606 c 0.458,0 0.811,-0.122 1.058,-0.372 C 28.266,2.278 28.39,1.924 28.39,1.468 28.39,1.196 28.341,0.953 28.245,0.737 28.149,0.521 28.014,0.349 27.839,0.226 27.731,0.146 27.596,0.089 27.435,0.054 27.273,0.019 27.066,0 26.814,0 Z m 4.678,2.897 V 0.546 h 1.654 v 2.351 h 0.579 V 0.685 c 0,-0.264 -0.043,-0.444 -0.127,-0.54 C 32.055,0.049 31.892,0 31.649,0 h -1.576 c -0.242,0 -0.405,0.049 -0.49,0.145 -0.086,0.096 -0.129,0.276 -0.129,0.54 V 2.897 Z M 35.708,2.391 H 34.074 V 1.77 h 1.555 c 0.244,0 0.41,-0.049 0.496,-0.145 0.085,-0.099 0.127,-0.278 0.127,-0.542 V 0.685 C 36.252,0.423 36.21,0.243 36.125,0.146 36.039,0.05 35.873,0 35.629,0 h -1.541 c -0.244,0 -0.409,0.05 -0.494,0.146 -0.087,0.097 -0.129,0.277 -0.129,0.539 v 0.081 l 0.513,0.123 V 0.546 h 1.762 v 0.661 h -1.555 c -0.243,0 -0.406,0.048 -0.491,0.145 -0.085,0.097 -0.128,0.277 -0.128,0.541 v 0.32 c 0,0.263 0.043,0.443 0.128,0.541 0.085,0.096 0.248,0.143 0.491,0.143 h 1.416 c 0.234,0 0.396,-0.045 0.484,-0.138 0.09,-0.094 0.135,-0.258 0.135,-0.496 V 2.203 L 35.708,2.062 Z M 38.618,2.38 V 0 h -0.58 V 2.38 H 36.893 V 2.897 H 39.77 V 2.38 Z m 3.738,0.016 H 41.05 V 1.592 h 1.306 c 0.101,0 0.17,0.015 0.206,0.05 0.038,0.033 0.056,0.092 0.056,0.178 v 0.35 c 0,0.084 -0.018,0.143 -0.056,0.176 -0.036,0.034 -0.105,0.05 -0.206,0.05 M 40.479,0 v 2.897 h 2.134 c 0.199,0 0.343,-0.043 0.432,-0.13 0.088,-0.089 0.131,-0.234 0.131,-0.43 V 1.655 C 43.176,1.459 43.133,1.318 43.045,1.229 42.956,1.139 42.812,1.096 42.613,1.096 H 42.288 L 43.439,0 H 42.606 L 41.601,1.096 H 41.05 V 0 Z m 3.877,2.897 h 0.58 V 0 h -0.58 z m 2.496,-1.74 h 1.091 L 47.406,2.335 Z M 45.734,0 47.146,2.897 h 0.559 L 49.137,0 H 48.484 L 48.186,0.634 H 46.602 L 46.314,0 Z m 4.204,0 v 2.897 h 0.583 V 0.546 h 1.871 V 0 Z m 6.337,2.38 V 0 h -0.58 V 2.38 H 54.55 v 0.517 h 2.876 V 2.38 Z m 1.809,-0.167 c 0,0.263 0.044,0.443 0.128,0.541 0.085,0.096 0.249,0.143 0.491,0.143 h 1.835 c 0.244,0 0.407,-0.047 0.493,-0.143 0.084,-0.098 0.127,-0.278 0.127,-0.541 V 0.685 c 0,-0.264 -0.043,-0.444 -0.127,-0.54 C 60.945,0.049 60.782,0 60.538,0 h -1.835 c -0.242,0 -0.406,0.049 -0.491,0.145 -0.084,0.096 -0.128,0.276 -0.128,0.54 z m 0.582,-1.667 h 1.913 V 2.38 h -1.913 z m 3.662,1.667 c 0,0.263 0.043,0.443 0.127,0.541 0.087,0.096 0.249,0.143 0.494,0.143 h 1.835 c 0.242,0 0.405,-0.047 0.491,-0.143 0.084,-0.098 0.127,-0.278 0.127,-0.541 V 0.685 c 0,-0.264 -0.043,-0.444 -0.127,-0.54 C 65.189,0.049 65.026,0 64.784,0 h -1.835 c -0.245,0 -0.407,0.049 -0.494,0.145 -0.084,0.096 -0.127,0.276 -0.127,0.54 z m 0.583,-1.667 h 1.914 V 2.38 H 62.911 Z M 66.625,0 v 2.897 h 0.582 V 0.546 h 1.872 V 0 Z m 5.466,2.391 H 70.458 V 1.77 h 1.556 c 0.244,0 0.41,-0.049 0.494,-0.145 0.086,-0.099 0.131,-0.278 0.131,-0.542 V 0.685 C 72.639,0.423 72.594,0.243 72.508,0.146 72.424,0.05 72.258,0 72.014,0 H 70.472 C 70.229,0 70.063,0.05 69.978,0.146 69.891,0.243 69.85,0.423 69.85,0.685 v 0.081 l 0.512,0.123 V 0.546 h 1.762 v 0.661 h -1.556 c -0.242,0 -0.405,0.048 -0.49,0.145 -0.084,0.097 -0.128,0.277 -0.128,0.541 v 0.32 c 0,0.263 0.044,0.443 0.128,0.541 0.085,0.096 0.248,0.143 0.49,0.143 h 1.417 c 0.235,0 0.398,-0.045 0.486,-0.138 0.089,-0.094 0.133,-0.258 0.133,-0.496 V 2.203 L 72.091,2.062 Z" /></g><g
           transform="translate(44.5266,26.7291)"
           id="g32"><path
             id="path34"
             style="fill:#f6bf00;fill-opacity:1;fill-rule:evenodd;stroke:none"
             d="m 0,0 h -1.2 c -2.143,0 -0.682,-2.207 -3.798,-2.207 h -0.908 v 6.49 h 3.829 c 3.148,0 2.402,-3.051 3.928,-3.051 H 3.473 V 7.92 C 1.656,7.172 0.325,7.172 -2.011,7.172 h -13.761 v -1.59 c 0,-2.142 2.11,0 2.11,-3.277 v -13.08 c 0,-3.277 -2.11,-1.135 -2.11,-3.277 v -1.593 h 12.138 v 1.559 c 0,0.747 -0.098,1.04 -0.908,1.169 -1.137,0.163 -1.364,0.551 -1.364,2.499 v 5.226 H -4.9 c 2.726,0 1.59,-2.207 3.538,-2.207 l 1.362,0 z m 6.361,-10.775 c 0,-3.277 -2.044,-1.135 -2.044,-3.277 v -1.593 h 11.847 v 1.593 c 0,2.142 -2.045,0 -2.045,3.277 v 13.08 c 0,3.277 2.045,1.135 2.045,3.277 v 1.59 H 4.317 v -1.59 c 0,-2.142 2.044,0 2.044,-3.277 z m 27.1,-4.87 v 1.593 c 0,2.206 -2.241,0 -2.241,3.081 V 4.283 h 0.845 c 1.299,0 1.851,-0.292 2.306,-1.654 l 0.065,-0.195 c 0.451,-1.135 0.581,-1.493 1.459,-1.493 h 1.591 V 7.92 C 35.927,7.4 33.981,7.172 33.169,7.172 H 21.518 c -0.39,0 -1.103,0.065 -1.883,0.194 C 18.857,7.463 17.981,7.658 17.2,7.92 V 0.941 h 1.591 c 0.877,0 1.006,0.358 1.461,1.493 l 0.065,0.195 c 0.454,1.362 1.007,1.654 2.306,1.654 h 0.842 v -15.254 c 0,-3.081 -2.239,-0.875 -2.239,-3.081 v -1.593 z" /></g><g
           transform="translate(85.5691,35.3834)"
           id="g36"><path
             id="path38"
             style="fill:#f6bf00;fill-opacity:1;fill-rule:nonzero;stroke:none"
             d="M 0,0 V 3.771 H 1.671 C 2.006,3.771 2.262,3.737 2.437,3.67 2.611,3.602 2.753,3.482 2.855,3.313 2.961,3.14 3.014,2.949 3.014,2.742 3.014,2.475 2.927,2.25 2.755,2.066 2.581,1.883 2.312,1.767 1.951,1.717 2.085,1.653 2.184,1.591 2.252,1.528 2.398,1.396 2.535,1.227 2.666,1.027 L 3.322,0 H 2.695 L 2.194,0.785 C 2.049,1.01 1.932,1.186 1.836,1.305 1.743,1.425 1.656,1.508 1.582,1.557 1.508,1.604 1.434,1.638 1.354,1.656 1.298,1.668 1.204,1.675 1.077,1.675 H 0.497 V 0 Z m 0.497,2.106 h 1.075 c 0.226,0 0.405,0.024 0.534,0.073 C 2.235,2.225 2.331,2.3 2.398,2.404 2.465,2.508 2.499,2.62 2.499,2.742 2.499,2.921 2.435,3.067 2.306,3.182 2.176,3.296 1.973,3.354 1.689,3.354 H 0.497 Z" /></g><g
           transform="translate(16.9353,36.9654)"
           id="g40"><path
             id="path42"
             style="fill:#f6bf00;fill-opacity:1;fill-rule:evenodd;stroke:none"
             d="m 0,0 6.342,-3.661 6.341,-3.661 v -7.322 -7.322 L 6.342,-25.629 0,-29.29 l -6.341,3.661 -6.341,3.663 v 7.322 7.322 l 6.341,3.661 z m 3.188,-6.389 -13.028,-12.723 -0.536,0.309 8.771,15.184 z m -6.149,-16.699 13.039,12.719 0.53,-0.306 -8.772,-15.183 z" /></g></g></g></g></svg>