<?xml version="1.0" encoding="UTF-8"?>
<!DOCTYPE svg PUBLIC "-//W3C//DTD SVG 1.1//EN" "http://www.w3.org/Graphics/SVG/1.1/DTD/svg11.dtd">
<svg xmlns="http://www.w3.org/2000/svg" version="1.1" width="1274px" height="638px" style="shape-rendering:geometricPrecision; text-rendering:geometricPrecision; image-rendering:optimizeQuality; fill-rule:evenodd; clip-rule:evenodd" xmlns:xlink="http://www.w3.org/1999/xlink">
<g><path style="opacity:1" fill="#202020" d="M 488.5,38.5 C 484.665,39.0035 484.665,40.0035 488.5,41.5C 488.291,42.086 487.957,42.586 487.5,43C 489,43.8333 490.167,45 491,46.5C 492,49.8333 493,53.1667 494,56.5C 494.667,231.167 494.667,405.833 494,580.5C 492.29,590.379 487.623,598.379 480,604.5C 475.397,607.88 469.897,610.546 463.5,612.5C 449.675,612.622 435.675,612.456 421.5,612C 412.426,611.704 403.426,610.871 394.5,609.5C 393.667,527.835 393.167,446.169 393,364.5C 392.833,446.334 392.333,528.001 391.5,609.5C 391.5,527.833 391.5,446.167 391.5,364.5C 340.499,364.667 289.499,364.5 238.5,364C 222.297,360.464 212.464,350.631 209,334.5C 208.333,323.833 208.333,313.167 209,302.5C 212.343,287.16 221.509,277.326 236.5,273C 288.166,272.5 339.832,272.333 391.5,272.5C 391.5,218.833 391.5,165.167 391.5,111.5C 392.333,165.665 392.833,219.998 393,274.5C 393.831,219.596 393.664,164.763 392.5,110C 343.89,116.8 300.224,134.966 261.5,164.5C 261.863,165.183 262.196,165.85 262.5,166.5C 218.326,199.847 191.826,243.847 183,298.5C 178.595,353.289 194.595,400.956 231,441.5C 248.023,460.206 267.356,475.873 289,488.5C 289.5,521.165 289.667,553.832 289.5,586.5C 213.656,559.834 154.156,512.5 111,444.5C 64.1448,358.173 65.1448,272.506 114,187.5C 149.345,133.148 196.178,91.9817 254.5,64C 322.624,32.0269 394.29,18.6936 469.5,24C 477.342,26.9139 483.675,31.7472 488.5,38.5 Z M 327.5,288.5 C 345.23,287.063 357.063,294.73 363,311.5C 364.901,322.025 362.401,331.359 355.5,339.5C 358.309,343.477 361.309,347.31 364.5,351C 360.833,351.667 357.167,351.667 353.5,351C 351.935,348.433 349.768,346.6 347,345.5C 326.965,352.479 312.299,346.479 303,327.5C 300.101,307.259 308.267,294.259 327.5,288.5 Z M 260.5,289.5 C 263.898,289.18 267.232,289.513 270.5,290.5C 278.458,308.873 286.125,327.373 293.5,346C 290.167,346.667 286.833,346.667 283.5,346C 281.833,342.333 280.167,338.667 278.5,335C 269.814,334.168 261.147,334.335 252.5,335.5C 250.26,338.88 248.593,342.546 247.5,346.5C 244.572,347.484 241.572,347.817 238.5,347.5C 238.34,345.801 238.506,344.134 239,342.5C 246.025,324.685 253.192,307.018 260.5,289.5 Z M 376.5,289.5 C 379.5,289.5 382.5,289.5 385.5,289.5C 385.163,304.867 385.663,320.2 387,335.5C 390.952,339.499 395.618,340.499 401,338.5C 402.689,337.142 404.022,335.475 405,333.5C 405.5,318.837 405.667,304.17 405.5,289.5C 408.833,289.5 412.167,289.5 415.5,289.5C 415.904,305.543 415.404,321.543 414,337.5C 406.181,348.996 396.015,351.496 383.5,345C 381.291,343.127 379.458,340.96 378,338.5C 376.56,322.224 376.06,305.89 376.5,289.5 Z M 448.5,289.5 C 452.5,289.5 456.5,289.5 460.5,289.5C 467.094,308.871 474.427,328.038 482.5,347C 481.667,347.167 480.833,347.333 480,347.5C 477.79,346.434 475.623,346.268 473.5,347C 471.223,343.114 469.223,339.114 467.5,335C 458.833,334.333 450.167,334.333 441.5,335C 439.704,338.76 438.038,342.593 436.5,346.5C 433.628,347.783 430.795,347.783 428,346.5C 427.333,345.167 427.333,343.833 428,342.5C 435.905,325.291 442.738,307.624 448.5,289.5 Z"/></g>
<g><path style="opacity:1" fill="#005eae" d="M 506.5,26.5 C 503.903,26.7208 503.903,27.2208 506.5,28C 517.902,29.6714 529.236,31.6714 540.5,34C 543.028,36.0574 546.028,37.0574 549.5,37C 549.167,37.3333 548.833,37.6667 548.5,38C 556.27,38.1823 563.77,39.6823 571,42.5C 572.07,42.472 572.903,42.1386 573.5,41.5C 576.973,41.5758 580.306,42.2424 583.5,43.5C 583.423,44.7498 582.756,45.5831 581.5,46C 592.392,48.7882 603.059,52.4549 613.5,57C 614.973,57.7096 615.64,58.8762 615.5,60.5C 618.604,59.9711 620.937,60.9711 622.5,63.5C 628.384,65.6915 634.217,68.0248 640,70.5C 641.376,70.3158 642.209,69.6491 642.5,68.5C 707.182,101.682 756.015,150.682 789,215.5C 826.38,306.49 816.38,391.824 759,471.5C 756.667,473.833 754.333,476.167 752,478.5C 728.04,455.373 704.54,431.706 681.5,407.5C 717.128,339.229 712.961,273.562 669,210.5C 634.279,166.852 590.112,137.019 536.5,121C 528.535,119.209 520.702,117.042 513,114.5C 512.846,93.1455 512.179,71.8122 511,50.5C 508.354,41.7075 504.854,33.3741 500.5,25.5C 502.735,25.2053 504.735,25.5386 506.5,26.5 Z"/></g>
<g><path style="opacity:0.196" fill="#0a71a4" d="M 506.5,26.5 C 522.633,28.5431 538.633,31.3764 554.5,35C 561.128,36.7283 567.461,38.895 573.5,41.5C 572.903,42.1386 572.07,42.472 571,42.5C 563.77,39.6823 556.27,38.1823 548.5,38C 548.833,37.6667 549.167,37.3333 549.5,37C 546.028,37.0574 543.028,36.0574 540.5,34C 529.236,31.6714 517.902,29.6714 506.5,28C 503.903,27.2208 503.903,26.7208 506.5,26.5 Z"/></g>
<g><path style="opacity:0.282" fill="#0768a0" d="M 583.5,43.5 C 603.784,50.4802 623.451,58.8135 642.5,68.5C 642.209,69.6491 641.376,70.3158 640,70.5C 634.217,68.0248 628.384,65.6915 622.5,63.5C 620.937,60.9711 618.604,59.9711 615.5,60.5C 615.64,58.8762 614.973,57.7096 613.5,57C 603.059,52.4549 592.392,48.7882 581.5,46C 582.756,45.5831 583.423,44.7498 583.5,43.5 Z"/></g>
<g><path style="opacity:0.409" fill="#080808" d="M 391.5,111.5 C 343.96,119.557 300.96,137.89 262.5,166.5C 262.196,165.85 261.863,165.183 261.5,164.5C 300.224,134.966 343.89,116.8 392.5,110C 393.664,164.763 393.831,219.596 393,274.5C 392.833,219.998 392.333,165.665 391.5,111.5 Z"/></g>
<g><path style="opacity:0.099" fill="#3b3b3b" d="M 1196.5,257.5 C 1195.78,257.918 1195.28,258.584 1195,259.5C 1194.32,258.216 1194.48,257.049 1195.5,256C 1170.5,255.5 1145.5,255.333 1120.5,255.5C 1120.61,254.883 1120.94,254.383 1121.5,254C 1145.83,253.333 1170.17,253.333 1194.5,254C 1195.97,254.71 1196.64,255.876 1196.5,257.5 Z"/></g>
<g><path style="opacity:0.993" fill="#202020" d="M 848.5,253.5 C 857.085,253.183 865.585,253.517 874,254.5C 874.5,289.832 874.667,325.165 874.5,360.5C 887.167,360.5 899.833,360.5 912.5,360.5C 912.817,369.085 912.483,377.585 911.5,386C 890.169,386.5 868.836,386.667 847.5,386.5C 847.172,342.095 847.506,297.761 848.5,253.5 Z"/></g>
<g><path style="opacity:0.997" fill="#212121" d="M 1120.5,255.5 C 1145.5,255.333 1170.5,255.5 1195.5,256C 1194.48,257.049 1194.32,258.216 1195,259.5C 1195.28,258.584 1195.78,257.918 1196.5,257.5C 1196.5,265.167 1196.5,272.833 1196.5,280.5C 1180.5,280.5 1164.5,280.5 1148.5,280.5C 1148.5,287.5 1148.5,294.5 1148.5,301.5C 1164.5,301.5 1180.5,301.5 1196.5,301.5C 1196.5,310.167 1196.5,318.833 1196.5,327.5C 1180.5,327.5 1164.5,327.5 1148.5,327.5C 1148.5,338.167 1148.5,348.833 1148.5,359.5C 1164.41,359.175 1180.24,359.509 1196,360.5C 1196.82,369.079 1196.65,377.579 1195.5,386C 1170.59,386.827 1145.76,386.661 1121,385.5C 1120.5,342.168 1120.33,298.835 1120.5,255.5 Z"/></g>
<g><path style="opacity:1" fill="#212222" d="M 928.5,253.5 C 937.418,253.183 946.251,253.516 955,254.5C 955.83,298.404 955.663,342.238 954.5,386C 950.167,386.167 945.833,386.333 941.5,386.5C 936.746,386.466 932.246,385.799 928,384.5C 928.061,340.771 928.228,297.105 928.5,253.5 Z"/></g>
<g><path style="opacity:1" fill="#202020" d="M 983.5,253.5 C 991.507,253.334 999.507,253.5 1007.5,254C 1026.69,281.202 1045.52,308.702 1064,336.5C 1065.37,309.456 1065.71,282.122 1065,254.5C 1074,253.167 1083,253.167 1092,254.5C 1092.67,298.167 1092.67,341.833 1092,385.5C 1083.58,386.649 1075.08,386.816 1066.5,386C 1047.54,358.577 1028.71,331.077 1010,303.5C 1009.5,331.165 1009.33,358.831 1009.5,386.5C 1000.5,386.5 991.5,386.5 982.5,386.5C 982.828,343.124 982.495,299.791 981.5,256.5C 982.193,255.482 982.859,254.482 983.5,253.5 Z"/></g>
<g><path style="opacity:0.982" fill="#1f1f1f" d="M 327.5,297.5 C 346.339,296.822 354.839,305.822 353,324.5C 352.222,327.184 350.889,329.517 349,331.5C 346.791,329.627 344.958,327.46 343.5,325C 339.833,324.333 336.167,324.333 332.5,325C 346.001,338.176 343.335,342.509 324.5,338C 312.844,332.246 309.011,323.079 313,310.5C 316.168,304.158 321.001,299.825 327.5,297.5 Z"/></g>
<g><path style="opacity:0.991" fill="#1f1f1f" d="M 453.5,303.5 C 454.496,303.414 455.329,303.748 456,304.5C 458.664,310.984 461.164,317.484 463.5,324C 463.355,324.772 463.022,325.439 462.5,326C 457.812,325.607 453.146,325.774 448.5,326.5C 447,326.547 446,325.881 445.5,324.5C 448.173,317.476 450.84,310.476 453.5,303.5 Z"/></g>
<g><path style="opacity:1" fill="#1e1e1e" d="M 264.5,303.5 C 266.411,303.574 267.578,304.574 268,306.5C 270.479,313.11 272.645,319.777 274.5,326.5C 268.782,325.259 262.782,325.259 256.5,326.5C 258.848,318.786 261.515,311.119 264.5,303.5 Z"/></g>
<g><path style="opacity:0.919" fill="#121212" d="M 488.5,38.5 C 492.609,44.0728 495.109,50.4061 496,57.5C 496.992,233.529 496.659,409.529 495,585.5C 490.024,600.474 479.857,609.974 464.5,614C 440.782,614.97 417.115,614.303 393.5,612C 392.244,611.583 391.577,610.75 391.5,609.5C 392.333,528.001 392.833,446.334 393,364.5C 393.167,446.169 393.667,527.835 394.5,609.5C 403.426,610.871 412.426,611.704 421.5,612C 435.675,612.456 449.675,612.622 463.5,612.5C 469.897,610.546 475.397,607.88 480,604.5C 487.623,598.379 492.29,590.379 494,580.5C 494.667,405.833 494.667,231.167 494,56.5C 493,53.1667 492,49.8333 491,46.5C 490.167,45 489,43.8333 487.5,43C 487.957,42.586 488.291,42.086 488.5,41.5C 484.665,40.0035 484.665,39.0035 488.5,38.5 Z"/></g>
<g><path style="opacity:1" fill="#005dae" d="M 621.5,395.5 C 629.976,395.698 637.642,398.198 644.5,403C 694.585,453.419 744.752,503.919 795,554.5C 801.052,566.564 800.386,578.23 793,589.5C 786.272,596.473 779.439,603.306 772.5,610C 759.101,617.764 746.434,616.764 734.5,607C 685.64,558.14 636.806,509.306 588,460.5C 577.346,445.038 578.346,430.372 591,416.5C 597.257,409.24 604.424,403.074 612.5,398C 615.742,397.594 618.742,396.761 621.5,395.5 Z"/></g>
<g><path style="opacity:1" fill="#005dae" d="M 570.5,596.5 C 567.15,596.335 563.817,596.502 560.5,597C 546.392,600.895 532.058,603.395 517.5,604.5C 517.5,603.167 517.5,601.833 517.5,600.5C 513.833,600.5 510.167,600.5 506.5,600.5C 507.986,596.188 509.486,591.855 511,587.5C 511.333,583.833 511.667,580.167 512,576.5C 512.331,558.122 512.497,539.788 512.5,521.5C 539.889,515.427 566.056,506.094 591,493.5C 593.091,494.256 594.924,495.423 596.5,497C 617.223,517.388 637.556,538.055 657.5,559C 630.334,575.455 601.334,587.955 570.5,596.5 Z"/></g>
<g><path style="opacity:0.604" fill="#045596" d="M 570.5,596.5 C 548.685,603.2 526.352,608.2 503.5,611.5C 502,611.547 501,610.881 500.5,609.5C 501.78,605.917 503.78,602.917 506.5,600.5C 510.167,600.5 513.833,600.5 517.5,600.5C 517.5,601.833 517.5,603.167 517.5,604.5C 532.058,603.395 546.392,600.895 560.5,597C 563.817,596.502 567.15,596.335 570.5,596.5 Z"/></g>
</svg>
