<?xml version="1.0" encoding="UTF-8"?>
<!DOCTYPE svg PUBLIC "-//W3C//DTD SVG 1.1//EN" "http://www.w3.org/Graphics/SVG/1.1/DTD/svg11.dtd">
<svg xmlns="http://www.w3.org/2000/svg" version="1.1" width="2820px" height="1410px" style="shape-rendering:geometricPrecision; text-rendering:geometricPrecision; image-rendering:optimizeQuality; fill-rule:evenodd; clip-rule:evenodd" xmlns:xlink="http://www.w3.org/1999/xlink">
<g><path style="opacity:0.986" fill="#000d8d" d="M 2092.5,317.5 C 2252.5,317.333 2412.5,317.5 2572.5,318C 2583.29,337.754 2593.96,357.587 2604.5,377.5C 2514.17,378.833 2423.83,378.833 2333.5,377.5C 2339.3,367.203 2345.3,357.036 2351.5,347C 2265.17,346.5 2178.83,346.333 2092.5,346.5C 2092.5,336.833 2092.5,327.167 2092.5,317.5 Z"/></g>
<g><path style="opacity:0.99" fill="#000d8d" d="M 2091.5,396.5 C 2265.83,396.167 2440.17,396.5 2614.5,397.5C 2626.42,417.002 2638.09,436.668 2649.5,456.5C 2531.5,457.667 2413.5,457.833 2295.5,457C 2300.96,447.247 2306.29,437.413 2311.5,427.5C 2238.17,426.5 2164.84,426.167 2091.5,426.5C 2091.5,416.5 2091.5,406.5 2091.5,396.5 Z"/></g>
<g><path style="opacity:0.989" fill="#000d8d" d="M 194.5,420.5 C 247.589,417.203 298.923,425.036 348.5,444C 419.381,475.224 465.881,528.057 488,602.5C 496.509,631.222 501.009,660.556 501.5,690.5C 389.498,690.833 277.498,690.5 165.5,689.5C 173.833,675.5 182.167,661.5 190.5,647.5C 253.163,646.5 315.83,646.167 378.5,646.5C 370.451,594.264 341.784,558.431 292.5,539C 255.809,525.719 218.476,523.386 180.5,532C 146.504,542.653 118.837,562.153 97.5,590.5C 77.0972,558.705 56.9306,526.705 37,494.5C 35.6986,492.635 35.3653,490.635 36,488.5C 53.4707,470.042 73.9707,455.876 97.5,446C 128.674,432.625 161.008,424.125 194.5,420.5 Z"/></g>
<g><path style="opacity:0.992" fill="#000d8d" d="M 553.5,427.5 C 704.167,427.333 854.834,427.5 1005.5,428C 1013.71,442.249 1022.04,456.416 1030.5,470.5C 863.168,471.667 695.834,471.833 528.5,471C 536.972,456.554 545.305,442.054 553.5,427.5 Z"/></g>
<g><path style="opacity:0.992" fill="#000d8d" d="M 1116.5,427.5 C 1173.84,427.167 1231.17,427.5 1288.5,428.5C 1327.44,549.827 1365.28,671.493 1402,793.5C 1438.91,671.201 1476.74,549.201 1515.5,427.5C 1572.83,427.5 1630.17,427.5 1687.5,427.5C 1687.5,611.5 1687.5,795.5 1687.5,979.5C 1645.17,979.5 1602.83,979.5 1560.5,979.5C 1561.22,865.498 1561.72,751.498 1562,637.5C 1530.05,728.843 1497.22,819.843 1463.5,910.5C 1422.6,911.83 1381.77,911.83 1341,910.5C 1307.21,819.806 1274.21,728.806 1242,637.5C 1242.28,751.499 1242.78,865.499 1243.5,979.5C 1201.17,979.5 1158.83,979.5 1116.5,979.5C 1116.5,795.5 1116.5,611.5 1116.5,427.5 Z"/></g>
<g><path style="opacity:0.978" fill="#000d8d" d="M 2091.5,474.5 C 2280.17,474.333 2468.83,474.5 2657.5,475C 2668.87,495.58 2680.87,515.746 2693.5,535.5C 2544.83,536.833 2396.17,536.833 2247.5,535.5C 2252.5,526.167 2257.5,516.833 2262.5,507.5C 2205.5,506.5 2148.5,506.167 2091.5,506.5C 2091.5,495.833 2091.5,485.167 2091.5,474.5 Z"/></g>
<g><path style="opacity:0.993" fill="#000d8d" d="M 528.5,492.5 C 695.667,491.167 863,491.167 1030.5,492.5C 1022.42,506.333 1014.08,520 1005.5,533.5C 952.171,534.5 898.837,534.833 845.5,534.5C 845.5,682.833 845.5,831.167 845.5,979.5C 801.833,979.5 758.167,979.5 714.5,979.5C 714.5,831.167 714.5,682.833 714.5,534.5C 660.832,534.667 607.166,534.5 553.5,534C 545.518,519.854 537.185,506.021 528.5,492.5 Z"/></g>
<g><path style="opacity:0.991" fill="#000d8d" d="M 1856.5,554.5 C 2138.83,554.167 2421.17,554.5 2703.5,555.5C 2715.42,575.002 2727.09,594.668 2738.5,614.5C 2648.5,615.833 2558.5,615.833 2468.5,614.5C 2473.58,604.01 2478.91,593.677 2484.5,583.5C 2275.17,582.5 2065.83,582.167 1856.5,582.5C 1856.5,573.167 1856.5,563.833 1856.5,554.5 Z"/></g>
<g><path style="opacity:0.979" fill="#000d8d" d="M 1856.5,633.5 C 2154.5,633.167 2452.5,633.5 2750.5,634.5C 2760.67,652.167 2770.83,669.833 2781,687.5C 2782.41,689.65 2783.24,691.984 2783.5,694.5C 2668.5,694.5 2553.5,694.5 2438.5,694.5C 2443.02,683.792 2448.35,673.459 2454.5,663.5C 2255.17,662.5 2055.83,662.167 1856.5,662.5C 1856.5,652.833 1856.5,643.167 1856.5,633.5 Z"/></g>
<g><path style="opacity:0.99" fill="#000d8d" d="M 165.5,710.5 C 277.5,710.5 389.5,710.5 501.5,710.5C 500.934,779.717 479.1,841.05 436,894.5C 399.021,934.918 353.521,960.751 299.5,972C 227.029,988.886 157.029,981.886 89.5,951C 69.7989,941.568 52.2989,929.068 37,913.5C 36.3623,912.391 35.8623,911.225 35.5,910C 55.617,876.266 76.117,842.766 97,809.5C 127.915,850.212 169.081,871.878 220.5,874.5C 261.361,874.877 298.361,863.377 331.5,840C 358.76,817.988 374.427,789.488 378.5,754.5C 315.83,754.833 253.163,754.5 190.5,753.5C 181.891,739.276 173.558,724.942 165.5,710.5 Z"/></g>
<g><path style="opacity:0.97" fill="#000d8d" d="M 2437.5,715.5 C 2552.67,714.5 2668,714.167 2783.5,714.5C 2773.05,734.724 2762.05,754.724 2750.5,774.5C 2452.5,775.5 2154.5,775.833 1856.5,775.5C 1856.5,765.5 1856.5,755.5 1856.5,745.5C 2055.5,745.833 2254.5,745.5 2453.5,744.5C 2448.39,734.61 2443.06,724.944 2437.5,715.5 Z"/></g>
<g><path style="opacity:0.991" fill="#000d8d" d="M 2468.5,793.5 C 2558.5,793.167 2648.5,793.5 2738.5,794.5C 2726.58,814.002 2714.91,833.668 2703.5,853.5C 2421.17,854.5 2138.83,854.833 1856.5,854.5C 1856.5,845.167 1856.5,835.833 1856.5,826.5C 2065.83,826.833 2275.17,826.5 2484.5,825.5C 2479.14,814.78 2473.81,804.114 2468.5,793.5 Z"/></g>
<g><path style="opacity:0.974" fill="#000d8d" d="M 2250.5,872.5 C 2399.17,872.333 2547.83,872.5 2696.5,873C 2684.29,893.25 2671.96,913.417 2659.5,933.5C 2470.5,934.5 2281.5,934.833 2092.5,934.5C 2092.5,923.5 2092.5,912.5 2092.5,901.5C 2150.17,901.667 2207.83,901.5 2265.5,901C 2259.79,891.814 2254.79,882.314 2250.5,872.5 Z"/></g>
<g><path style="opacity:0.974" fill="#000d8d" d="M 1346.5,931.5 C 1383.51,931.167 1420.51,931.5 1457.5,932.5C 1452.42,948.06 1447.76,963.727 1443.5,979.5C 1416.16,979.833 1388.83,979.5 1361.5,978.5C 1356.65,962.773 1351.65,947.107 1346.5,931.5 Z"/></g>
<g><path style="opacity:0.993" fill="#000d8d" d="M 2298.5,951.5 C 2416.5,951.167 2534.5,951.5 2652.5,952.5C 2640.58,972.002 2628.91,991.668 2617.5,1011.5C 2442.5,1012.5 2267.5,1012.83 2092.5,1012.5C 2092.5,1002.5 2092.5,992.5 2092.5,982.5C 2166.5,982.833 2240.5,982.5 2314.5,981.5C 2308.71,971.717 2303.37,961.717 2298.5,951.5 Z"/></g>
<g><path style="opacity:0.989" fill="#000d8d" d="M 2336.5,1030.5 C 2426.83,1030.33 2517.17,1030.5 2607.5,1031C 2597.09,1051.16 2586.42,1071.16 2575.5,1091C 2414.5,1091.5 2253.5,1091.67 2092.5,1091.5C 2092.5,1081.83 2092.5,1072.17 2092.5,1062.5C 2179.83,1062.67 2267.17,1062.5 2354.5,1062C 2347.84,1051.85 2341.84,1041.35 2336.5,1030.5 Z"/></g>
</svg>
