<?xml version="1.0" encoding="UTF-8"?>
<!DOCTYPE svg PUBLIC "-//W3C//DTD SVG 1.1//EN" "http://www.w3.org/Graphics/SVG/1.1/DTD/svg11.dtd">
<svg xmlns="http://www.w3.org/2000/svg" version="1.1" width="1280px" height="720px" style="shape-rendering:geometricPrecision; text-rendering:geometricPrecision; image-rendering:optimizeQuality; fill-rule:evenodd; clip-rule:evenodd" xmlns:xlink="http://www.w3.org/1999/xlink">
<g><path style="opacity:0.327" fill="#db252d" d="M 414.5,242.5 C 414.158,243.338 413.492,243.672 412.5,243.5C 409.833,243.5 407.167,243.5 404.5,243.5C 400.5,242.833 396.5,242.167 392.5,241.5C 399.89,240.148 407.223,240.481 414.5,242.5 Z"/></g>
<g><path style="opacity:1" fill="#0e0903" d="M 113.5,483.5 C 112.21,482.065 110.544,481.065 108.5,480.5C 108.709,479.914 109.043,479.414 109.5,479C 112.817,478.502 116.15,478.335 119.5,478.5C 119.5,477.167 119.5,475.833 119.5,474.5C 117.833,474.5 116.167,474.5 114.5,474.5C 114.5,471.833 114.5,469.167 114.5,466.5C 112.409,466.318 110.409,466.652 108.5,467.5C 107.534,465.604 107.201,463.604 107.5,461.5C 104.833,461.5 102.167,461.5 99.5,461.5C 99.5,462.5 99.5,463.5 99.5,464.5C 97.8333,464.5 96.1667,464.5 94.5,464.5C 94.5,462.5 94.5,460.5 94.5,458.5C 91.6915,458.307 89.0248,457.64 86.5,456.5C 86.5,455.5 86.5,454.5 86.5,453.5C 80.3281,453.876 74.3281,453.209 68.5,451.5C 68.8134,448.753 68.48,446.086 67.5,443.5C 66.6143,444.325 66.281,445.325 66.5,446.5C 65.5,446.5 64.5,446.5 63.5,446.5C 63.5,445.5 63.5,444.5 63.5,443.5C 62.5,443.5 61.5,443.5 60.5,443.5C 59.36,440.975 58.6933,438.308 58.5,435.5C 56.8333,435.5 55.1667,435.5 53.5,435.5C 53.4802,433.857 54.1468,432.524 55.5,431.5C 53.9547,430.548 52.288,430.215 50.5,430.5C 49.8333,427.167 49.1667,423.833 48.5,420.5C 47.5,420.5 46.5,420.5 45.5,420.5C 45.5,419.5 45.5,418.5 45.5,417.5C 43.8333,417.5 42.1667,417.5 40.5,417.5C 43.0124,412.848 43.0124,408.181 40.5,403.5C 41.1667,402.167 41.8333,400.833 42.5,399.5C 41.4529,397.944 40.7863,396.277 40.5,394.5C 35.6061,393.189 30.6061,392.523 25.5,392.5C 26.1667,390.5 26.8333,388.5 27.5,386.5C 31.5,385.833 31.5,385.167 27.5,384.5C 27.5,382.833 27.5,381.167 27.5,379.5C 26.5,379.5 25.5,379.5 24.5,379.5C 24.5,378.5 24.5,377.5 24.5,376.5C 25.5,376.5 26.5,376.5 27.5,376.5C 27.5,375.5 27.5,374.5 27.5,373.5C 29.6056,373.321 31.2723,372.321 32.5,370.5C 30.9547,369.548 29.288,369.215 27.5,369.5C 26.2441,363.218 25.2441,356.885 24.5,350.5C 28.5,349.833 28.5,349.167 24.5,348.5C 24.5,346.833 24.5,345.167 24.5,343.5C 25.5,343.5 26.5,343.5 27.5,343.5C 27.5,342.5 27.5,341.5 27.5,340.5C 26.5,340.5 25.5,340.5 24.5,340.5C 24.6695,338.088 24.0028,335.921 22.5,334C 23.5157,331.824 25.1824,330.657 27.5,330.5C 27.9601,327.043 29.9601,325.377 33.5,325.5C 33.2148,327.288 33.5481,328.955 34.5,330.5C 35.3857,329.675 35.719,328.675 35.5,327.5C 36.5,327.5 37.5,327.5 38.5,327.5C 38.281,328.675 38.6143,329.675 39.5,330.5C 40.6345,327.833 41.6345,325.167 42.5,322.5C 43.5,322.5 44.5,322.5 45.5,322.5C 45.5,319.167 45.5,315.833 45.5,312.5C 44.5,312.5 43.5,312.5 42.5,312.5C 42.5,310.833 42.5,309.167 42.5,307.5C 43.5,307.5 44.5,307.5 45.5,307.5C 45.5,304.833 45.5,302.167 45.5,299.5C 46.5,299.5 47.5,299.5 48.5,299.5C 48.788,296.603 49.4546,293.77 50.5,291C 50.1667,289.833 49.8333,288.667 49.5,287.5C 48.4763,288.853 47.143,289.52 45.5,289.5C 45.5,288.5 45.5,287.5 45.5,286.5C 49.5,285.833 49.5,285.167 45.5,284.5C 45.3359,281.813 45.5026,279.146 46,276.5C 46.3333,276.833 46.6667,277.167 47,277.5C 48.3988,276.773 49.8988,276.273 51.5,276C 50.6634,274.989 50.33,273.822 50.5,272.5C 49.5,272.5 48.5,272.5 47.5,272.5C 72.2063,248.857 101.873,238.69 136.5,242C 186.429,250.252 219.596,278.418 236,326.5C 249.597,378.977 236.43,423.144 196.5,459C 172.101,478.311 144.434,486.478 113.5,483.5 Z M 165.5,329.5 C 165.675,331.621 165.341,333.621 164.5,335.5C 162.871,345.763 157.538,353.43 148.5,358.5C 152.27,361.289 156.27,363.789 160.5,366C 167.563,372.648 170.229,380.815 168.5,390.5C 165.88,410.477 154.547,421.477 134.5,423.5C 120.833,423.5 107.167,423.5 93.5,423.5C 93.5,383.167 93.5,342.833 93.5,302.5C 95.1667,302.5 96.8333,302.5 98.5,302.5C 110.478,301.442 122.478,301.275 134.5,302C 151.95,303.289 162.283,312.456 165.5,329.5 Z"/></g>
<g><path style="opacity:0.999" fill="#0b0703" d="M 780.5,416.5 C 779.659,414.621 779.325,412.621 779.5,410.5C 776.735,412.24 773.735,413.573 770.5,414.5C 769.167,414.167 767.833,413.833 766.5,413.5C 765.053,411.597 763.386,409.93 761.5,408.5C 763.045,407.548 764.712,407.215 766.5,407.5C 766.5,405.833 766.5,404.167 766.5,402.5C 768.167,402.5 769.833,402.5 771.5,402.5C 772.272,398.036 773.605,393.702 775.5,389.5C 776.524,388.147 777.857,387.48 779.5,387.5C 779.5,384.5 779.5,381.5 779.5,378.5C 778.5,378.5 777.5,378.5 776.5,378.5C 776.5,377.167 776.5,375.833 776.5,374.5C 777.5,374.5 778.5,374.5 779.5,374.5C 779.5,372.5 779.5,370.5 779.5,368.5C 775.5,367.833 775.5,367.167 779.5,366.5C 779.5,364.5 779.5,362.5 779.5,360.5C 775.665,359.996 775.665,358.996 779.5,357.5C 778.675,356.614 777.675,356.281 776.5,356.5C 776.5,355.5 776.5,354.5 776.5,353.5C 777.5,353.5 778.5,353.5 779.5,353.5C 779.073,350.212 779.74,347.212 781.5,344.5C 779.896,342.821 779.229,340.821 779.5,338.5C 777.833,338.5 776.167,338.5 774.5,338.5C 773.038,334.398 771.705,330.065 770.5,325.5C 769.377,327.289 768.044,327.622 766.5,326.5C 767.311,325.784 767.978,324.95 768.5,324C 766.744,320.384 766.077,316.551 766.5,312.5C 765.5,312.5 764.5,312.5 763.5,312.5C 762.189,307.606 761.523,302.606 761.5,297.5C 759.801,297.66 758.134,297.494 756.5,297C 754.322,294.323 751.989,291.823 749.5,289.5C 748.548,291.045 748.215,292.712 748.5,294.5C 746.857,294.52 745.524,293.853 744.5,292.5C 741.74,289.194 739.74,285.527 738.5,281.5C 737.5,281.5 736.5,281.5 735.5,281.5C 734.833,285.5 734.167,285.5 733.5,281.5C 727.533,280.862 724.866,277.529 725.5,271.5C 721.47,270.494 719.803,267.827 720.5,263.5C 718.5,263.5 716.5,263.5 714.5,263.5C 714.5,261.833 714.5,260.167 714.5,258.5C 710.5,258.5 706.5,258.5 702.5,258.5C 702.5,259.5 702.5,260.5 702.5,261.5C 700.801,261.66 699.134,261.494 697.5,261C 694.358,255.228 692.691,255.394 692.5,261.5C 691.5,261.5 690.5,261.5 689.5,261.5C 689.181,257.7 688.181,257.534 686.5,261C 684.866,261.494 683.199,261.66 681.5,261.5C 681.5,260.5 681.5,259.5 681.5,258.5C 677.566,258.021 673.899,258.688 670.5,260.5C 669.476,259.147 668.143,258.48 666.5,258.5C 666.5,259.5 666.5,260.5 666.5,261.5C 665.5,261.5 664.5,261.5 663.5,261.5C 663.719,260.325 663.386,259.325 662.5,258.5C 661.548,260.045 661.215,261.712 661.5,263.5C 656.989,263.891 652.655,263.225 648.5,261.5C 646.944,262.547 645.277,263.214 643.5,263.5C 643.5,264.5 643.5,265.5 643.5,266.5C 642.5,266.5 641.5,266.5 640.5,266.5C 640.5,265.5 640.5,264.5 640.5,263.5C 638.179,263.771 636.179,263.104 634.5,261.5C 633.548,263.045 633.215,264.712 633.5,266.5C 632.325,266.281 631.325,266.614 630.5,267.5C 633.03,268.132 635.363,269.132 637.5,270.5C 636.147,271.524 635.48,272.857 635.5,274.5C 631.161,275.334 626.828,276.334 622.5,277.5C 621.147,278.524 620.48,279.857 620.5,281.5C 619.5,281.5 618.5,281.5 617.5,281.5C 617.5,282.5 617.5,283.5 617.5,284.5C 615.833,284.5 614.167,284.5 612.5,284.5C 612.5,286.167 612.5,287.833 612.5,289.5C 608.678,290.18 607.011,292.513 607.5,296.5C 606.5,296.5 605.5,296.5 604.5,296.5C 604.307,299.308 603.64,301.975 602.5,304.5C 601.5,304.5 600.5,304.5 599.5,304.5C 599.5,305.5 599.5,306.5 599.5,307.5C 598.5,307.5 597.5,307.5 596.5,307.5C 594.916,315.553 592.583,323.22 589.5,330.5C 588.5,330.5 587.5,330.5 586.5,330.5C 585.833,333.833 585.167,337.167 584.5,340.5C 583.5,340.5 582.5,340.5 581.5,340.5C 581.5,344.833 581.5,349.167 581.5,353.5C 580.5,353.5 579.5,353.5 578.5,353.5C 578.334,358.511 578.501,363.511 579,368.5C 583.601,370.004 583.434,371.338 578.5,372.5C 580.183,373.853 581.516,375.52 582.5,377.5C 581.583,380.758 581.249,384.091 581.5,387.5C 582.5,387.5 583.5,387.5 584.5,387.5C 584.5,392.5 584.5,397.5 584.5,402.5C 587.308,402.693 589.975,403.36 592.5,404.5C 593.64,407.025 594.307,409.692 594.5,412.5C 596.167,412.5 597.833,412.5 599.5,412.5C 599.5,414.167 599.5,415.833 599.5,417.5C 596.043,417.667 595.71,418.667 598.5,420.5C 599.452,422.045 599.785,423.712 599.5,425.5C 600.5,425.5 601.5,425.5 602.5,425.5C 602.5,427.167 602.5,428.833 602.5,430.5C 604.167,430.5 605.833,430.5 607.5,430.5C 607.5,431.5 607.5,432.5 607.5,433.5C 613.535,433.908 619.535,434.574 625.5,435.5C 625.5,438.167 625.5,440.833 625.5,443.5C 626.5,443.5 627.5,443.5 628.5,443.5C 628.281,442.325 628.614,441.325 629.5,440.5C 629.87,444.642 631.87,447.642 635.5,449.5C 634.675,450.386 633.675,450.719 632.5,450.5C 632.5,451.5 632.5,452.5 632.5,453.5C 633.5,453.5 634.5,453.5 635.5,453.5C 635.833,456.5 637.5,458.167 640.5,458.5C 640.5,459.5 640.5,460.5 640.5,461.5C 645.833,461.5 651.167,461.5 656.5,461.5C 657.167,457.5 657.833,457.5 658.5,461.5C 659.5,461.5 660.5,461.5 661.5,461.5C 661.281,460.325 661.614,459.325 662.5,458.5C 662.632,462.357 664.466,465.024 668,466.5C 669.092,465.704 670.259,465.037 671.5,464.5C 675.674,468.045 680.341,469.045 685.5,467.5C 687.623,469.31 689.957,470.643 692.5,471.5C 693.64,468.975 694.307,466.308 694.5,463.5C 696.143,463.52 697.476,462.853 698.5,461.5C 700.337,465.277 702.004,465.277 703.5,461.5C 706.493,465.608 710.493,467.941 715.5,468.5C 715.5,469.5 715.5,470.5 715.5,471.5C 711.533,471.266 708.2,472.6 705.5,475.5C 705.709,476.086 706.043,476.586 706.5,477C 708.866,477.44 711.199,477.94 713.5,478.5C 662.455,492.789 619.955,479.789 586,439.5C 556.13,396.394 552.463,351.061 575,303.5C 608.114,249.204 655.281,231.037 716.5,249C 760.451,268.688 785.618,302.521 792,350.5C 793.68,367.842 792.013,384.842 787,401.5C 785.338,406.813 783.172,411.813 780.5,416.5 Z"/></g>
<g><path style="opacity:0.647" fill="#d91515" d="M 392.5,241.5 C 396.5,242.167 400.5,242.833 404.5,243.5C 390.551,242.742 377.051,244.742 364,249.5C 363.235,249.43 362.735,249.097 362.5,248.5C 371.801,243.745 381.801,241.412 392.5,241.5 Z"/></g>
<g><path style="opacity:1" fill="#dd120d" d="M 404.5,243.5 C 407.167,243.5 409.833,243.5 412.5,243.5C 420.62,244.596 428.62,246.596 436.5,249.5C 435.622,252.056 434.289,254.39 432.5,256.5C 433.325,257.386 434.325,257.719 435.5,257.5C 435.5,258.5 435.5,259.5 435.5,260.5C 442.022,261.676 448.022,264.176 453.5,268C 456.309,268.312 458.976,267.812 461.5,266.5C 461.5,269.833 461.5,273.167 461.5,276.5C 464.187,276.336 466.854,276.503 469.5,277C 468.552,277.483 467.552,277.649 466.5,277.5C 466.192,279.924 466.526,282.257 467.5,284.5C 468.167,283.5 468.833,282.5 469.5,281.5C 470.645,282.776 470.645,284.109 469.5,285.5C 471.104,287.179 471.771,289.179 471.5,291.5C 474.833,291.5 478.167,291.5 481.5,291.5C 481.388,296.801 484.054,299.468 489.5,299.5C 489.5,300.5 489.5,301.5 489.5,302.5C 491.288,302.215 492.955,302.548 494.5,303.5C 492.528,307.899 491.528,312.566 491.5,317.5C 493.5,317.5 495.5,317.5 497.5,317.5C 497.5,322.5 497.5,327.5 497.5,332.5C 499.167,332.5 500.833,332.5 502.5,332.5C 502.5,334.5 502.5,336.5 502.5,338.5C 500.857,338.48 499.524,339.147 498.5,340.5C 497.52,343.086 497.187,345.753 497.5,348.5C 499.167,348.5 500.833,348.5 502.5,348.5C 502.833,345.5 504.5,343.833 507.5,343.5C 507.5,345.167 507.5,346.833 507.5,348.5C 509.833,348.5 512.167,348.5 514.5,348.5C 515.167,347.5 515.833,346.5 516.5,345.5C 520.695,394.904 503.361,434.404 464.5,464C 459.611,467.061 454.611,469.895 449.5,472.5C 449.196,471.85 448.863,471.183 448.5,470.5C 454.727,468.731 459.394,465.064 462.5,459.5C 464.353,458.699 466.019,458.365 467.5,458.5C 466.034,456.343 464.2,456.01 462,457.5C 460.71,455.041 459.21,452.708 457.5,450.5C 456.534,452.396 456.201,454.396 456.5,456.5C 453.167,456.5 449.833,456.5 446.5,456.5C 446.5,458.167 446.5,459.833 446.5,461.5C 442.833,461.5 439.167,461.5 435.5,461.5C 435.5,463.167 435.5,464.833 435.5,466.5C 430.5,466.5 425.5,466.5 420.5,466.5C 420.5,468.167 420.5,469.833 420.5,471.5C 418.833,471.5 417.167,471.5 415.5,471.5C 415.784,473.877 415.784,476.044 415.5,478C 410.235,477.319 404.902,476.819 399.5,476.5C 399.5,477.833 399.5,479.167 399.5,480.5C 397.833,480.5 396.167,480.5 394.5,480.5C 393.594,477.564 392.928,474.564 392.5,471.5C 389.833,471.5 387.167,471.5 384.5,471.5C 384.5,469.833 384.5,468.167 384.5,466.5C 379.167,466.5 373.833,466.5 368.5,466.5C 368.785,464.712 368.452,463.045 367.5,461.5C 366.614,462.325 366.281,463.325 366.5,464.5C 364.8,464.626 363.3,465.293 362,466.5C 359.421,464.341 356.587,464.008 353.5,465.5C 353.5,464.167 353.5,462.833 353.5,461.5C 352.5,461.5 351.5,461.5 350.5,461.5C 350.5,459.833 350.5,458.167 350.5,456.5C 348.833,456.5 347.167,456.5 345.5,456.5C 345.52,454.857 344.853,453.524 343.5,452.5C 339.085,451.728 334.752,451.395 330.5,451.5C 331.167,450.833 331.833,450.167 332.5,449.5C 330.53,447.184 328.196,445.351 325.5,444C 327.81,443.503 330.143,443.337 332.5,443.5C 332.5,440.833 332.5,438.167 332.5,435.5C 330.833,435.5 329.167,435.5 327.5,435.5C 327.5,433.833 327.5,432.167 327.5,430.5C 324.167,430.5 320.833,430.5 317.5,430.5C 317.665,433.85 317.498,437.183 317,440.5C 315.594,441.668 314.428,441.335 313.5,439.5C 312.52,436.914 312.187,434.247 312.5,431.5C 310.473,431.662 308.473,431.495 306.5,431C 307.406,429.301 307.739,427.467 307.5,425.5C 310.833,425.5 314.167,425.5 317.5,425.5C 317.5,423.833 317.5,422.167 317.5,420.5C 315.833,420.5 314.167,420.5 312.5,420.5C 312.5,416.833 312.5,413.167 312.5,409.5C 310.833,409.5 309.167,409.5 307.5,409.5C 307.5,407.833 307.5,406.167 307.5,404.5C 305.833,404.5 304.167,404.5 302.5,404.5C 302.5,406.167 302.5,407.833 302.5,409.5C 299.308,409.405 296.308,410.071 293.5,411.5C 284.969,388.367 282.635,364.7 286.5,340.5C 286.413,343.598 286.913,343.932 288,341.5C 288.934,335.99 290.434,330.657 292.5,325.5C 292.03,324.537 291.363,324.537 290.5,325.5C 291.297,320.424 292.964,315.758 295.5,311.5C 295.351,312.552 295.517,313.552 296,314.5C 298.897,308.373 302.064,302.373 305.5,296.5C 305.376,295.893 305.043,295.56 304.5,295.5C 310.339,284.99 318.006,275.99 327.5,268.5C 327.369,269.376 327.702,270.043 328.5,270.5C 337.319,262.582 347.319,256.415 358.5,252C 357.584,251.722 356.918,251.222 356.5,250.5C 358.102,248.926 360.102,248.259 362.5,248.5C 362.735,249.097 363.235,249.43 364,249.5C 377.051,244.742 390.551,242.742 404.5,243.5 Z M 436.5,321.5 C 437.704,326.856 437.704,332.189 436.5,337.5C 435.527,342.454 433.694,347.121 431,351.5C 420.303,365.022 409.469,378.355 398.5,391.5C 397.026,392.436 396.026,393.77 395.5,395.5C 393.461,396.911 392.461,398.911 392.5,401.5C 407.5,401.5 422.5,401.5 437.5,401.5C 437.5,407.5 437.5,413.5 437.5,419.5C 435.833,419.5 434.167,419.5 432.5,419.5C 424.167,419.5 415.833,419.5 407.5,419.5C 400.167,419.5 392.833,419.5 385.5,419.5C 378.833,419.5 372.167,419.5 365.5,419.5C 365.5,413.5 365.5,407.5 365.5,401.5C 381.788,381.374 398.288,361.374 415,341.5C 418.456,334.229 418.29,327.229 414.5,320.5C 412.022,315.713 408.022,313.379 402.5,313.5C 396.996,313.358 392.496,315.358 389,319.5C 388.517,320.448 388.351,321.448 388.5,322.5C 386.912,324.113 385.912,326.113 385.5,328.5C 379.926,330.453 373.926,331.12 367.5,330.5C 366.351,330.209 365.684,329.376 365.5,328C 366.857,315.936 372.524,306.603 382.5,300C 386.053,297.879 389.72,296.379 393.5,295.5C 413.153,292.409 427.32,299.742 436,317.5C 436.49,318.793 436.657,320.127 436.5,321.5 Z"/></g>
<g><path style="opacity:0.6" fill="#db1116" d="M 414.5,242.5 C 434.85,244.887 453.183,252.054 469.5,264C 470.252,264.671 470.586,265.504 470.5,266.5C 471.463,267.363 471.463,268.03 470.5,268.5C 460.853,260.313 449.52,253.98 436.5,249.5C 428.62,246.596 420.62,244.596 412.5,243.5C 413.492,243.672 414.158,243.338 414.5,242.5 Z"/></g>
<g><path style="opacity:1" fill="#0e0904" d="M 780.5,416.5 C 780.34,418.153 779.674,419.486 778.5,420.5C 777.24,420.201 776.073,420.201 775,420.5C 774.506,422.134 774.34,423.801 774.5,425.5C 772.833,425.5 771.167,425.5 769.5,425.5C 769.5,424.5 769.5,423.5 769.5,422.5C 768.325,422.719 767.325,422.386 766.5,421.5C 767.853,420.476 768.52,419.143 768.5,417.5C 767.167,417.5 765.833,417.5 764.5,417.5C 763.613,421.878 762.613,426.211 761.5,430.5C 759.857,430.48 758.524,431.147 757.5,432.5C 754.788,430.74 751.788,430.073 748.5,430.5C 748.5,432.167 748.5,433.833 748.5,435.5C 746.833,435.5 745.167,435.5 743.5,435.5C 743.167,438.5 741.5,440.167 738.5,440.5C 738.5,441.5 738.5,442.5 738.5,443.5C 737.5,443.5 736.5,443.5 735.5,443.5C 735.5,444.5 735.5,445.5 735.5,446.5C 730.5,446.167 728.167,448.5 728.5,453.5C 727.5,453.5 726.5,453.5 725.5,453.5C 725.5,455.167 725.5,456.833 725.5,458.5C 723.857,458.52 722.524,457.853 721.5,456.5C 720.548,458.045 720.215,459.712 720.5,461.5C 716.5,462.167 716.5,462.833 720.5,463.5C 720.5,464.5 720.5,465.5 720.5,466.5C 719.5,466.5 718.5,466.5 717.5,466.5C 717.5,467.5 717.5,468.5 717.5,469.5C 720.548,469.494 721.048,470.494 719,472.5C 717.927,471.72 716.76,471.887 715.5,473C 716.338,474.155 717.338,475.322 718.5,476.5C 716.833,477.167 715.167,477.833 713.5,478.5C 711.199,477.94 708.866,477.44 706.5,477C 706.043,476.586 705.709,476.086 705.5,475.5C 708.2,472.6 711.533,471.266 715.5,471.5C 715.5,470.5 715.5,469.5 715.5,468.5C 710.493,467.941 706.493,465.608 703.5,461.5C 702.004,465.277 700.337,465.277 698.5,461.5C 697.476,462.853 696.143,463.52 694.5,463.5C 694.307,466.308 693.64,468.975 692.5,471.5C 689.957,470.643 687.623,469.31 685.5,467.5C 680.341,469.045 675.674,468.045 671.5,464.5C 670.259,465.037 669.092,465.704 668,466.5C 664.466,465.024 662.632,462.357 662.5,458.5C 661.614,459.325 661.281,460.325 661.5,461.5C 660.5,461.5 659.5,461.5 658.5,461.5C 657.833,457.5 657.167,457.5 656.5,461.5C 651.167,461.5 645.833,461.5 640.5,461.5C 640.5,460.5 640.5,459.5 640.5,458.5C 637.5,458.167 635.833,456.5 635.5,453.5C 634.5,453.5 633.5,453.5 632.5,453.5C 632.5,452.5 632.5,451.5 632.5,450.5C 633.675,450.719 634.675,450.386 635.5,449.5C 631.87,447.642 629.87,444.642 629.5,440.5C 628.614,441.325 628.281,442.325 628.5,443.5C 627.5,443.5 626.5,443.5 625.5,443.5C 625.5,440.833 625.5,438.167 625.5,435.5C 619.535,434.574 613.535,433.908 607.5,433.5C 607.5,432.5 607.5,431.5 607.5,430.5C 605.833,430.5 604.167,430.5 602.5,430.5C 602.5,428.833 602.5,427.167 602.5,425.5C 601.5,425.5 600.5,425.5 599.5,425.5C 599.785,423.712 599.452,422.045 598.5,420.5C 595.71,418.667 596.043,417.667 599.5,417.5C 599.5,415.833 599.5,414.167 599.5,412.5C 597.833,412.5 596.167,412.5 594.5,412.5C 594.307,409.692 593.64,407.025 592.5,404.5C 589.975,403.36 587.308,402.693 584.5,402.5C 584.5,397.5 584.5,392.5 584.5,387.5C 583.5,387.5 582.5,387.5 581.5,387.5C 581.249,384.091 581.583,380.758 582.5,377.5C 581.516,375.52 580.183,373.853 578.5,372.5C 583.434,371.338 583.601,370.004 579,368.5C 578.501,363.511 578.334,358.511 578.5,353.5C 579.5,353.5 580.5,353.5 581.5,353.5C 581.5,349.167 581.5,344.833 581.5,340.5C 582.5,340.5 583.5,340.5 584.5,340.5C 585.167,337.167 585.833,333.833 586.5,330.5C 587.5,330.5 588.5,330.5 589.5,330.5C 592.583,323.22 594.916,315.553 596.5,307.5C 597.5,307.5 598.5,307.5 599.5,307.5C 599.5,306.5 599.5,305.5 599.5,304.5C 600.5,304.5 601.5,304.5 602.5,304.5C 603.64,301.975 604.307,299.308 604.5,296.5C 605.5,296.5 606.5,296.5 607.5,296.5C 607.011,292.513 608.678,290.18 612.5,289.5C 612.5,287.833 612.5,286.167 612.5,284.5C 614.167,284.5 615.833,284.5 617.5,284.5C 617.5,283.5 617.5,282.5 617.5,281.5C 618.5,281.5 619.5,281.5 620.5,281.5C 620.48,279.857 621.147,278.524 622.5,277.5C 626.828,276.334 631.161,275.334 635.5,274.5C 635.48,272.857 636.147,271.524 637.5,270.5C 635.363,269.132 633.03,268.132 630.5,267.5C 631.325,266.614 632.325,266.281 633.5,266.5C 633.215,264.712 633.548,263.045 634.5,261.5C 636.179,263.104 638.179,263.771 640.5,263.5C 640.5,264.5 640.5,265.5 640.5,266.5C 641.5,266.5 642.5,266.5 643.5,266.5C 643.5,265.5 643.5,264.5 643.5,263.5C 645.277,263.214 646.944,262.547 648.5,261.5C 652.655,263.225 656.989,263.891 661.5,263.5C 661.215,261.712 661.548,260.045 662.5,258.5C 663.386,259.325 663.719,260.325 663.5,261.5C 664.5,261.5 665.5,261.5 666.5,261.5C 666.5,260.5 666.5,259.5 666.5,258.5C 668.143,258.48 669.476,259.147 670.5,260.5C 673.899,258.688 677.566,258.021 681.5,258.5C 681.5,259.5 681.5,260.5 681.5,261.5C 683.199,261.66 684.866,261.494 686.5,261C 688.181,257.534 689.181,257.7 689.5,261.5C 690.5,261.5 691.5,261.5 692.5,261.5C 692.691,255.394 694.358,255.228 697.5,261C 699.134,261.494 700.801,261.66 702.5,261.5C 702.5,260.5 702.5,259.5 702.5,258.5C 706.5,258.5 710.5,258.5 714.5,258.5C 714.5,260.167 714.5,261.833 714.5,263.5C 716.5,263.5 718.5,263.5 720.5,263.5C 719.803,267.827 721.47,270.494 725.5,271.5C 724.866,277.529 727.533,280.862 733.5,281.5C 734.167,285.5 734.833,285.5 735.5,281.5C 736.5,281.5 737.5,281.5 738.5,281.5C 739.74,285.527 741.74,289.194 744.5,292.5C 745.524,293.853 746.857,294.52 748.5,294.5C 748.215,292.712 748.548,291.045 749.5,289.5C 751.989,291.823 754.322,294.323 756.5,297C 758.134,297.494 759.801,297.66 761.5,297.5C 761.523,302.606 762.189,307.606 763.5,312.5C 764.5,312.5 765.5,312.5 766.5,312.5C 766.077,316.551 766.744,320.384 768.5,324C 767.978,324.95 767.311,325.784 766.5,326.5C 768.044,327.622 769.377,327.289 770.5,325.5C 771.705,330.065 773.038,334.398 774.5,338.5C 776.167,338.5 777.833,338.5 779.5,338.5C 779.229,340.821 779.896,342.821 781.5,344.5C 779.74,347.212 779.073,350.212 779.5,353.5C 778.5,353.5 777.5,353.5 776.5,353.5C 776.5,354.5 776.5,355.5 776.5,356.5C 777.675,356.281 778.675,356.614 779.5,357.5C 775.665,358.996 775.665,359.996 779.5,360.5C 779.5,362.5 779.5,364.5 779.5,366.5C 775.5,367.167 775.5,367.833 779.5,368.5C 779.5,370.5 779.5,372.5 779.5,374.5C 778.5,374.5 777.5,374.5 776.5,374.5C 776.5,375.833 776.5,377.167 776.5,378.5C 777.5,378.5 778.5,378.5 779.5,378.5C 779.5,381.5 779.5,384.5 779.5,387.5C 777.857,387.48 776.524,388.147 775.5,389.5C 773.605,393.702 772.272,398.036 771.5,402.5C 769.833,402.5 768.167,402.5 766.5,402.5C 766.5,404.167 766.5,405.833 766.5,407.5C 764.712,407.215 763.045,407.548 761.5,408.5C 763.386,409.93 765.053,411.597 766.5,413.5C 767.833,413.833 769.167,414.167 770.5,414.5C 773.735,413.573 776.735,412.24 779.5,410.5C 779.325,412.621 779.659,414.621 780.5,416.5 Z M 685.5,423.5 C 672.167,423.5 658.833,423.5 645.5,423.5C 645.5,383.167 645.5,342.833 645.5,302.5C 661.187,301.076 676.854,301.243 692.5,303C 713.408,310.318 720.242,324.484 713,345.5C 709.737,351.219 705.237,355.719 699.5,359C 717.012,366.526 723.512,379.692 719,398.5C 713.032,413.74 701.866,422.073 685.5,423.5 Z"/></g>
<g><path style="opacity:0.49" fill="#d91218" d="M 356.5,250.5 C 356.918,251.222 357.584,251.722 358.5,252C 347.319,256.415 337.319,262.582 328.5,270.5C 327.702,270.043 327.369,269.376 327.5,268.5C 335.989,260.748 345.655,254.748 356.5,250.5 Z"/></g>
<g><path style="opacity:1" fill="#e1150f" d="M 436.5,249.5 C 449.52,253.98 460.853,260.313 470.5,268.5C 471.463,268.03 471.463,267.363 470.5,266.5C 487.845,279.182 500.512,295.515 508.5,315.5C 507.711,315.783 507.044,316.283 506.5,317C 510.225,327.28 512.892,337.78 514.5,348.5C 512.167,348.5 509.833,348.5 507.5,348.5C 507.5,346.833 507.5,345.167 507.5,343.5C 504.5,343.833 502.833,345.5 502.5,348.5C 500.833,348.5 499.167,348.5 497.5,348.5C 497.187,345.753 497.52,343.086 498.5,340.5C 499.524,339.147 500.857,338.48 502.5,338.5C 502.5,336.5 502.5,334.5 502.5,332.5C 500.833,332.5 499.167,332.5 497.5,332.5C 497.5,327.5 497.5,322.5 497.5,317.5C 495.5,317.5 493.5,317.5 491.5,317.5C 491.528,312.566 492.528,307.899 494.5,303.5C 492.955,302.548 491.288,302.215 489.5,302.5C 489.5,301.5 489.5,300.5 489.5,299.5C 484.054,299.468 481.388,296.801 481.5,291.5C 478.167,291.5 474.833,291.5 471.5,291.5C 471.771,289.179 471.104,287.179 469.5,285.5C 470.645,284.109 470.645,282.776 469.5,281.5C 468.833,282.5 468.167,283.5 467.5,284.5C 466.526,282.257 466.192,279.924 466.5,277.5C 467.552,277.649 468.552,277.483 469.5,277C 466.854,276.503 464.187,276.336 461.5,276.5C 461.5,273.167 461.5,269.833 461.5,266.5C 458.976,267.812 456.309,268.312 453.5,268C 448.022,264.176 442.022,261.676 435.5,260.5C 435.5,259.5 435.5,258.5 435.5,257.5C 434.325,257.719 433.325,257.386 432.5,256.5C 434.289,254.39 435.622,252.056 436.5,249.5 Z"/></g>
<g><path style="opacity:0.999" fill="#0c0703" d="M 168.5,390.5 C 170.229,380.815 167.563,372.648 160.5,366C 156.27,363.789 152.27,361.289 148.5,358.5C 157.538,353.43 162.871,345.763 164.5,335.5C 165.268,336.263 165.768,337.263 166,338.5C 167.104,330.6 166.937,327.6 165.5,329.5C 162.283,312.456 151.95,303.289 134.5,302C 122.478,301.275 110.478,301.442 98.5,302.5C 99.6085,301.71 100.942,301.21 102.5,301C 102.167,300.667 101.833,300.333 101.5,300C 112.833,299.333 124.167,299.333 135.5,300C 138.903,300.1 142.07,300.934 145,302.5C 145.617,301.551 145.451,300.718 144.5,300C 145.793,299.51 147.127,299.343 148.5,299.5C 148.5,298.5 148.5,297.5 148.5,296.5C 144.077,296.31 139.744,295.643 135.5,294.5C 135.649,295.552 135.483,296.552 135,297.5C 131.217,296.992 127.55,295.992 124,294.5C 113.468,297.182 102.968,296.848 92.5,293.5C 94.0453,292.548 95.712,292.215 97.5,292.5C 97.5,291.5 97.5,290.5 97.5,289.5C 96.325,289.719 95.325,289.386 94.5,288.5C 96.0453,287.548 97.712,287.215 99.5,287.5C 99.5,286.5 99.5,285.5 99.5,284.5C 100.5,284.5 101.5,284.5 102.5,284.5C 103.167,280.5 103.833,280.5 104.5,284.5C 113.458,286.415 122.625,288.082 132,289.5C 132.95,288.978 133.784,288.311 134.5,287.5C 136.167,290.167 137.833,290.167 139.5,287.5C 143.974,289.039 148.641,290.039 153.5,290.5C 152.624,291.251 151.624,291.751 150.5,292C 155.887,292.645 161.22,293.478 166.5,294.5C 166.693,297.308 167.36,299.975 168.5,302.5C 171.24,302.737 172.907,304.237 173.5,307C 172.105,309.679 171.439,312.512 171.5,315.5C 172.5,315.5 173.5,315.5 174.5,315.5C 174.215,313.712 174.548,312.045 175.5,310.5C 177.179,312.104 179.179,312.771 181.5,312.5C 181.359,318.583 182.025,324.583 183.5,330.5C 182.816,333.861 182.15,337.195 181.5,340.5C 180.5,340.5 179.5,340.5 178.5,340.5C 178.5,344.167 178.5,347.833 178.5,351.5C 180.288,351.215 181.955,351.548 183.5,352.5C 182.285,355.71 180.785,358.71 179,361.5C 178.506,363.134 178.34,364.801 178.5,366.5C 179.5,366.5 180.5,366.5 181.5,366.5C 181.281,365.325 181.614,364.325 182.5,363.5C 182.833,364.833 183.167,366.167 183.5,367.5C 182.979,369.924 182.312,372.257 181.5,374.5C 182.5,374.5 183.5,374.5 184.5,374.5C 184.281,373.325 184.614,372.325 185.5,371.5C 186.487,374.768 186.82,378.102 186.5,381.5C 185.5,381.5 184.5,381.5 183.5,381.5C 183.5,382.5 183.5,383.5 183.5,384.5C 187.5,385.167 187.5,385.833 183.5,386.5C 183.5,387.5 183.5,388.5 183.5,389.5C 187.3,389.819 187.466,390.819 184,392.5C 183.595,398.26 182.762,403.926 181.5,409.5C 180.5,409.5 179.5,409.5 178.5,409.5C 177.82,413.322 175.487,414.989 171.5,414.5C 171.823,418.226 171.489,421.893 170.5,425.5C 169.614,424.675 169.281,423.675 169.5,422.5C 168.5,422.5 167.5,422.5 166.5,422.5C 166.48,424.143 167.147,425.476 168.5,426.5C 165.914,427.48 163.247,427.813 160.5,427.5C 160.5,429.167 160.5,430.833 160.5,432.5C 159.022,432.762 157.689,432.429 156.5,431.5C 157.853,430.476 158.52,429.143 158.5,427.5C 157.5,427.5 156.5,427.5 155.5,427.5C 155.5,428.5 155.5,429.5 155.5,430.5C 154.167,430.5 152.833,430.5 151.5,430.5C 151.248,427.756 151.915,425.256 153.5,423C 153.241,421.739 152.574,420.739 151.5,420C 152.966,419.365 154.3,418.531 155.5,417.5C 156.451,418.326 157.451,418.492 158.5,418C 157.289,417.107 157.289,416.274 158.5,415.5C 159.451,416.326 160.451,416.492 161.5,416C 161.167,415 160.833,414 160.5,413C 161.744,412.544 162.577,413.044 163,414.5C 163.71,413.027 164.876,412.36 166.5,412.5C 166.272,414.355 166.939,415.188 168.5,415C 169.651,412.536 170.651,410.036 171.5,407.5C 172.5,407.5 173.5,407.5 174.5,407.5C 174.5,406.5 174.5,405.5 174.5,404.5C 173.167,404.5 171.833,404.5 170.5,404.5C 169.727,397.856 169.561,391.189 170,384.5C 169.809,386.708 169.309,388.708 168.5,390.5 Z"/></g>
<g><path style="opacity:1" fill="#e11111" d="M 436.5,321.5 C 436.657,320.127 436.49,318.793 436,317.5C 427.32,299.742 413.153,292.409 393.5,295.5C 392.127,295.657 390.793,295.49 389.5,295C 395.989,293.037 402.656,292.037 409.5,292C 407.866,291.506 406.199,291.34 404.5,291.5C 404.5,289.833 404.5,288.167 404.5,286.5C 406.288,286.785 407.955,286.452 409.5,285.5C 410.833,284.5 410.833,283.5 409.5,282.5C 411.396,281.534 413.396,281.201 415.5,281.5C 415.5,283.167 415.5,284.833 415.5,286.5C 422.167,286.5 428.833,286.5 435.5,286.5C 435.5,288.167 435.5,289.833 435.5,291.5C 437.167,291.5 438.833,291.5 440.5,291.5C 440.5,295.167 440.5,298.833 440.5,302.5C 442.167,302.5 443.833,302.5 445.5,302.5C 445.5,305.833 445.5,309.167 445.5,312.5C 442.143,312.106 439.81,313.439 438.5,316.5C 440.76,318.407 440.927,320.407 439,322.5C 438.667,321.5 438.333,320.5 438,319.5C 437.722,320.416 437.222,321.082 436.5,321.5 Z"/></g>
<g><path style="opacity:0.998" fill="#0b0703" d="M 676.5,281.5 C 677.5,281.5 678.5,281.5 679.5,281.5C 679.5,282.5 679.5,283.5 679.5,284.5C 683.884,284.174 688.217,284.508 692.5,285.5C 700.146,287.96 707.813,290.293 715.5,292.5C 715.281,291.325 715.614,290.325 716.5,289.5C 717.487,292.768 717.82,296.102 717.5,299.5C 719.143,299.52 720.476,298.853 721.5,297.5C 722.452,299.045 722.785,300.712 722.5,302.5C 726.882,303.198 727.882,305.198 725.5,308.5C 726.955,310.22 727.788,312.22 728,314.5C 729.813,315.609 730.646,314.942 730.5,312.5C 732.288,312.215 733.955,312.548 735.5,313.5C 731.807,315.42 731.807,316.753 735.5,317.5C 735.5,319.167 735.5,320.833 735.5,322.5C 736.5,322.5 737.5,322.5 738.5,322.5C 738.5,323.5 738.5,324.5 738.5,325.5C 734.5,326.167 734.5,326.833 738.5,327.5C 738.48,329.143 739.147,330.476 740.5,331.5C 737.833,334.167 737.833,336.833 740.5,339.5C 739.147,340.524 738.48,341.857 738.5,343.5C 735.538,343.796 733.871,345.462 733.5,348.5C 734.664,351.067 735.33,353.734 735.5,356.5C 737.606,356.679 739.272,357.679 740.5,359.5C 738.955,360.452 737.288,360.785 735.5,360.5C 735.84,363.144 735.173,365.477 733.5,367.5C 735.045,368.452 736.712,368.785 738.5,368.5C 738.342,371.361 739.008,374.028 740.5,376.5C 739.373,379.377 738.706,382.377 738.5,385.5C 738.984,389.562 739.651,393.562 740.5,397.5C 744.5,398.167 744.5,398.833 740.5,399.5C 740.813,402.247 740.48,404.914 739.5,407.5C 738.476,408.853 737.143,409.52 735.5,409.5C 735.669,411.912 735.003,414.079 733.5,416C 736.323,417.841 736.156,419.341 733,420.5C 731.851,423.779 731.018,427.113 730.5,430.5C 727.342,431.876 724.009,432.542 720.5,432.5C 720.5,433.5 720.5,434.5 720.5,435.5C 719.5,435.5 718.5,435.5 717.5,435.5C 717.5,437.167 717.5,438.833 717.5,440.5C 715.833,440.5 714.167,440.5 712.5,440.5C 712.333,437.043 711.333,436.71 709.5,439.5C 707.955,440.452 706.288,440.785 704.5,440.5C 703.833,444.5 703.167,444.5 702.5,440.5C 697.456,440.827 692.456,440.494 687.5,439.5C 685.667,436.71 684.667,437.043 684.5,440.5C 677.468,440.83 670.468,440.497 663.5,439.5C 662.975,438.808 662.308,438.308 661.5,438C 658.854,437.503 656.187,437.336 653.5,437.5C 653.5,438.5 653.5,439.5 653.5,440.5C 651.833,440.5 650.167,440.5 648.5,440.5C 648.5,439.5 648.5,438.5 648.5,437.5C 646.833,437.5 645.167,437.5 643.5,437.5C 643.989,433.513 642.322,431.18 638.5,430.5C 638.384,427.14 638.051,423.807 637.5,420.5C 635.179,420.229 633.179,420.896 631.5,422.5C 631.167,420.833 630.833,419.167 630.5,417.5C 632.547,410.463 634.214,403.297 635.5,396C 632.567,392.327 632.901,389.16 636.5,386.5C 637.833,381.5 637.833,376.5 636.5,371.5C 635.646,370.052 634.646,368.719 633.5,367.5C 637.866,362.489 638.533,356.989 635.5,351C 637.187,348.79 638.187,346.29 638.5,343.5C 637.635,337.532 637.302,331.532 637.5,325.5C 638.5,325.5 639.5,325.5 640.5,325.5C 639.833,323.5 639.167,321.5 638.5,319.5C 637.325,319.719 636.325,319.386 635.5,318.5C 637.196,316.475 638.863,314.475 640.5,312.5C 637.857,309.776 636.857,306.442 637.5,302.5C 638.978,302.762 640.311,302.429 641.5,301.5C 640.371,299.471 640.871,299.137 643,300.5C 655.091,299.677 667.258,299.177 679.5,299C 674.534,298.854 669.7,298.021 665,296.5C 662.901,297.287 660.734,297.62 658.5,297.5C 658.5,296.5 658.5,295.5 658.5,294.5C 652.609,294.395 652.275,293.395 657.5,291.5C 658.429,290.311 658.762,288.978 658.5,287.5C 664.691,287.317 670.691,286.317 676.5,284.5C 676.5,283.5 676.5,282.5 676.5,281.5 Z M 685.5,423.5 C 672.167,423.5 658.833,423.5 645.5,423.5C 645.5,383.167 645.5,342.833 645.5,302.5C 661.187,301.076 676.854,301.243 692.5,303C 713.408,310.318 720.242,324.484 713,345.5C 709.737,351.219 705.237,355.719 699.5,359C 717.012,366.526 723.512,379.692 719,398.5C 713.032,413.74 701.866,422.073 685.5,423.5 Z"/></g>
<g><path style="opacity:1" fill="#100d03" d="M 633.5,284.5 C 635.256,285.552 635.923,287.219 635.5,289.5C 634.5,289.5 633.5,289.5 632.5,289.5C 632.833,294.5 630.5,296.833 625.5,296.5C 625.5,298.167 625.5,299.833 625.5,301.5C 624.5,301.5 623.5,301.5 622.5,301.5C 622.5,302.833 622.5,304.167 622.5,305.5C 623.5,305.5 624.5,305.5 625.5,305.5C 625.788,308.397 626.455,311.23 627.5,314C 627.007,316.059 626.34,318.059 625.5,320C 625.844,321.365 626.511,322.532 627.5,323.5C 626.147,324.524 625.48,325.857 625.5,327.5C 623.833,327.5 622.167,327.5 620.5,327.5C 620.5,326.5 620.5,325.5 620.5,324.5C 619.5,324.5 618.5,324.5 617.5,324.5C 617.719,325.675 617.386,326.675 616.5,327.5C 615.548,325.955 615.215,324.288 615.5,322.5C 612.753,322.813 610.086,322.48 607.5,321.5C 608.325,320.614 609.325,320.281 610.5,320.5C 610.5,319.5 610.5,318.5 610.5,317.5C 612.167,317.5 613.833,317.5 615.5,317.5C 615.5,315.833 615.5,314.167 615.5,312.5C 617.167,312.5 618.833,312.5 620.5,312.5C 620.5,308.167 620.5,303.833 620.5,299.5C 619.5,299.5 618.5,299.5 617.5,299.5C 617.5,297.833 617.5,296.167 617.5,294.5C 619.143,294.52 620.476,293.853 621.5,292.5C 622.216,293.311 623.05,293.978 624,294.5C 625.3,293.293 626.8,292.626 628.5,292.5C 628.833,289.5 630.5,287.833 633.5,287.5C 633.5,286.5 633.5,285.5 633.5,284.5 Z"/></g>
<g><path style="opacity:0.498" fill="#d71219" d="M 304.5,295.5 C 305.043,295.56 305.376,295.893 305.5,296.5C 302.064,302.373 298.897,308.373 296,314.5C 295.517,313.552 295.351,312.552 295.5,311.5C 297.476,305.543 300.476,300.21 304.5,295.5 Z"/></g>
<g><path style="opacity:0.49" fill="#db1c23" d="M 414.5,320.5 C 414.631,321.239 414.464,321.906 414,322.5C 408.539,315.073 401.706,313.573 393.5,318C 391.877,320.08 390.377,322.246 389,324.5C 388.536,323.906 388.369,323.239 388.5,322.5C 388.351,321.448 388.517,320.448 389,319.5C 392.496,315.358 396.996,313.358 402.5,313.5C 408.022,313.379 412.022,315.713 414.5,320.5 Z"/></g>
<g><path style="opacity:1" fill="#da110c" d="M 463.5,309.5 C 465.167,309.5 466.833,309.5 468.5,309.5C 468.5,310.5 468.5,311.5 468.5,312.5C 472.833,311.167 477.167,311.167 481.5,312.5C 481.5,311.5 481.5,310.5 481.5,309.5C 482.5,309.5 483.5,309.5 484.5,309.5C 484.187,312.247 484.52,314.914 485.5,317.5C 488.072,323.893 490.072,330.393 491.5,337C 491.416,340.605 490.416,341.105 488.5,338.5C 487.476,339.853 486.143,340.52 484.5,340.5C 484.646,342.942 483.813,343.609 482,342.5C 481.502,339.518 481.335,336.518 481.5,333.5C 478.167,333.5 474.833,333.5 471.5,333.5C 471.5,334.833 471.5,336.167 471.5,337.5C 473.167,337.5 474.833,337.5 476.5,337.5C 476.5,339.5 476.5,341.5 476.5,343.5C 470.5,343.5 464.5,343.5 458.5,343.5C 458.52,341.857 457.853,340.524 456.5,339.5C 458.173,337.477 458.84,335.144 458.5,332.5C 462.5,331.833 462.5,331.167 458.5,330.5C 457.758,328.406 457.091,326.239 456.5,324C 457.091,321.761 457.758,319.594 458.5,317.5C 459.5,317.5 460.5,317.5 461.5,317.5C 462.64,314.975 463.307,312.308 463.5,309.5 Z"/></g>
<g><path style="opacity:1" fill="#0c0803" d="M 138.5,321.5 C 141.139,323.309 143.306,325.642 145,328.5C 148.608,340.838 144.442,349.005 132.5,353C 125.842,353.5 119.175,353.666 112.5,353.5C 112.5,344.167 112.5,334.833 112.5,325.5C 113.329,333.657 113.829,341.99 114,350.5C 114.5,340.506 114.666,330.506 114.5,320.5C 122.587,319.892 130.42,320.892 138,323.5C 138.464,322.906 138.631,322.239 138.5,321.5 Z"/></g>
<g><path style="opacity:0.997" fill="#1e1a15" d="M 666.5,319.5 C 674.329,319.026 681.995,319.692 689.5,321.5C 689.304,323.646 688.304,323.812 686.5,322C 679.425,322.133 672.758,321.3 666.5,319.5 Z"/></g>
<g><path style="opacity:1" fill="#0a0603" d="M 666.5,319.5 C 672.758,321.3 679.425,322.133 686.5,322C 688.304,323.812 689.304,323.646 689.5,321.5C 697.51,327.273 699.676,334.94 696,344.5C 693.011,348.491 689.178,351.324 684.5,353C 677.842,353.5 671.175,353.666 664.5,353.5C 663.856,341.784 664.522,330.451 666.5,319.5 Z"/></g>
<g><path style="opacity:0.996" fill="#0a0603" d="M 874.5,383.5 C 874.389,384.117 874.056,384.617 873.5,385C 881.067,385.987 888.067,384.487 894.5,380.5C 895.649,382.925 896.316,382.925 896.5,380.5C 898.882,384.096 900.882,387.929 902.5,392C 902.059,394.413 900.726,396.247 898.5,397.5C 877.882,407.048 859.382,404.048 843,388.5C 830.055,367.55 832.221,348.384 849.5,331C 865.231,320.996 881.564,319.996 898.5,328C 900.847,329.191 901.68,331.024 901,333.5C 897.725,337.486 895.225,341.819 893.5,346.5C 889.422,345.298 885.422,343.798 881.5,342C 860.769,341.268 852.602,351.101 857,371.5C 860.702,378.602 866.535,382.602 874.5,383.5 Z"/></g>
<g><path style="opacity:0.745" fill="#1b1813" d="M 1172.5,323.5 C 1173.95,324.302 1175.62,324.802 1177.5,325C 1163.84,325.5 1150.17,325.667 1136.5,325.5C 1136.61,324.883 1136.94,324.383 1137.5,324C 1149.16,323.5 1160.83,323.333 1172.5,323.5 Z"/></g>
<g><path style="opacity:0.918" fill="#24201b" d="M 138.5,321.5 C 138.631,322.239 138.464,322.906 138,323.5C 130.42,320.892 122.587,319.892 114.5,320.5C 114.666,330.506 114.5,340.506 114,350.5C 113.829,341.99 113.329,333.657 112.5,325.5C 112.318,323.409 112.652,321.409 113.5,319.5C 122.041,317.958 130.374,318.625 138.5,321.5 Z"/></g>
<g><path style="opacity:0.997" fill="#090502" d="M 944.5,323.5 C 935.342,324.33 926.009,324.83 916.5,325C 922.833,325.167 929.167,325.333 935.5,325.5C 942.204,325.496 948.537,324.83 954.5,323.5C 957.898,323.18 961.232,323.513 964.5,324.5C 965.214,330.314 965.214,335.98 964.5,341.5C 954.188,342.499 943.855,342.832 933.5,342.5C 933.5,345.5 933.5,348.5 933.5,351.5C 934.833,351.5 936.167,351.5 937.5,351.5C 936.048,352.302 934.382,352.802 932.5,353C 937,353.167 941.5,353.333 946,353.5C 950.886,353.493 955.386,352.826 959.5,351.5C 960.222,351.918 960.722,352.584 961,353.5C 961.807,359.416 961.641,365.25 960.5,371C 951.506,371.5 942.506,371.666 933.5,371.5C 933.5,374.5 933.5,377.5 933.5,380.5C 936.385,380.194 939.052,380.527 941.5,381.5C 938.482,381.335 935.482,381.502 932.5,382C 942.455,383.498 952.455,383.831 962.5,383C 963.416,382.722 964.082,382.222 964.5,381.5C 965.826,387.568 965.826,393.734 964.5,400C 947.837,400.5 931.17,400.667 914.5,400.5C 914.5,374.833 914.5,349.167 914.5,323.5C 924.5,323.5 934.5,323.5 944.5,323.5 Z"/></g>
<g><path style="opacity:0.718" fill="#1b1713" d="M 944.5,323.5 C 947.833,323.5 951.167,323.5 954.5,323.5C 948.537,324.83 942.204,325.496 935.5,325.5C 929.167,325.333 922.833,325.167 916.5,325C 926.009,324.83 935.342,324.33 944.5,323.5 Z"/></g>
<g><path style="opacity:0.997" fill="#0a0603" d="M 1062.5,323.5 C 1062.83,323.5 1063.17,323.5 1063.5,323.5C 1072.14,324.832 1081.14,325.498 1090.5,325.5C 1099.86,325.498 1108.86,324.832 1117.5,323.5C 1120.83,323.5 1124.17,323.5 1127.5,323.5C 1127.5,329.833 1127.5,336.167 1127.5,342.5C 1119.83,342.5 1112.17,342.5 1104.5,342.5C 1104.44,341.957 1104.11,341.624 1103.5,341.5C 1102.33,356.489 1102.17,371.489 1103,386.5C 1103.28,385.584 1103.78,384.918 1104.5,384.5C 1104.8,389.762 1104.47,394.928 1103.5,400C 1097.47,400.83 1091.47,400.664 1085.5,399.5C 1085.57,380.899 1085.4,362.232 1085,343.5C 1077.25,342.683 1069.41,342.183 1061.5,342C 1060.94,341.617 1060.61,341.117 1060.5,340.5C 1062.45,335.265 1063.12,329.598 1062.5,323.5 Z"/></g>
<g><path style="opacity:0.713" fill="#201c18" d="M 1063.5,323.5 C 1081.5,323.5 1099.5,323.5 1117.5,323.5C 1108.86,324.832 1099.86,325.498 1090.5,325.5C 1081.14,325.498 1072.14,324.832 1063.5,323.5 Z"/></g>
<g><path style="opacity:0.999" fill="#0a0603" d="M 1250.5,328.5 C 1258.7,333.219 1262.7,340.386 1262.5,350C 1262.43,359.483 1258.43,366.817 1250.5,372C 1255.22,378.604 1260.05,385.104 1265,391.5C 1267.06,394.286 1268.56,397.286 1269.5,400.5C 1261.47,400.831 1253.47,400.498 1245.5,399.5C 1240.08,392.086 1235.08,384.419 1230.5,376.5C 1231.74,376.19 1231.74,375.69 1230.5,375C 1227.52,374.502 1224.52,374.335 1221.5,374.5C 1221.17,382.684 1221.51,390.684 1222.5,398.5C 1222.5,398.833 1222.5,399.167 1222.5,399.5C 1216.9,397.678 1211.23,397.344 1205.5,398.5C 1206.41,374.181 1206.74,349.847 1206.5,325.5C 1217.51,325.333 1228.51,325.5 1239.5,326C 1243.21,326.737 1246.87,327.571 1250.5,328.5 Z M 1223.5,341.5 C 1228.74,341.023 1233.74,341.856 1238.5,344C 1242.24,347.694 1242.41,351.527 1239,355.5C 1233.99,357.362 1228.83,358.195 1223.5,358C 1222.19,352.5 1222.19,347 1223.5,341.5 Z"/></g>
<g><path style="opacity:0.813" fill="#1f1c17" d="M 164.5,335.5 C 165.341,333.621 165.675,331.621 165.5,329.5C 166.937,327.6 167.104,330.6 166,338.5C 165.768,337.263 165.268,336.263 164.5,335.5 Z"/></g>
<g><path style="opacity:0.384" fill="#e01c1f" d="M 286.5,340.5 C 287.31,335.235 288.644,330.235 290.5,325.5C 291.363,324.537 292.03,324.537 292.5,325.5C 290.434,330.657 288.934,335.99 288,341.5C 286.913,343.932 286.413,343.598 286.5,340.5 Z"/></g>
<g><path style="opacity:1" fill="#0a0603" d="M 997.5,364.5 C 997.5,362.167 997.5,359.833 997.5,357.5C 996.683,359.969 996.183,362.635 996,365.5C 995.5,375.828 995.334,386.161 995.5,396.5C 991.788,396.039 988.121,395.373 984.5,394.5C 984.5,372.167 984.5,349.833 984.5,327.5C 989.271,327.106 993.938,327.106 998.5,327.5C 1009.79,340.629 1021.29,353.629 1033,366.5C 1033.33,352.5 1033.67,338.5 1034,324.5C 1039.45,323.194 1044.95,323.194 1050.5,324.5C 1050.52,349.655 1050.52,374.988 1050.5,400.5C 1045.49,400.666 1040.49,400.499 1035.5,400C 1023.02,386.514 1010.85,372.681 999,358.5C 998.809,360.708 998.309,362.708 997.5,364.5 Z"/></g>
<g><path style="opacity:0.989" fill="#0a0603" d="M 1172.5,323.5 C 1177.54,323.173 1182.54,323.506 1187.5,324.5C 1188.62,330.114 1188.79,335.78 1188,341.5C 1177.58,342.487 1167.08,342.82 1156.5,342.5C 1156.5,345.5 1156.5,348.5 1156.5,351.5C 1157.5,351.5 1158.5,351.5 1159.5,351.5C 1158.05,352.302 1156.38,352.802 1154.5,353C 1161.16,353.5 1167.83,353.666 1174.5,353.5C 1177.17,353.5 1179.83,353.5 1182.5,353.5C 1182.33,358.844 1182.5,364.177 1183,369.5C 1183.17,364.316 1183.67,359.316 1184.5,354.5C 1184.5,360.167 1184.5,365.833 1184.5,371.5C 1175.17,371.5 1165.83,371.5 1156.5,371.5C 1156.25,374.939 1156.59,378.272 1157.5,381.5C 1154.4,381.413 1154.07,381.913 1156.5,383C 1166.83,383.5 1177.16,383.666 1187.5,383.5C 1187.26,384.791 1187.6,385.791 1188.5,386.5C 1188.5,389.833 1188.5,393.167 1188.5,396.5C 1187.73,397.263 1187.23,398.263 1187,399.5C 1174.25,398.511 1161.41,398.178 1148.5,398.5C 1148.5,397.167 1148.5,395.833 1148.5,394.5C 1145.83,394.5 1143.17,394.5 1140.5,394.5C 1140.76,388.836 1141.76,383.336 1143.5,378C 1140.89,373.934 1140.22,369.601 1141.5,365C 1139.58,361.418 1138.41,357.585 1138,353.5C 1137.83,367.006 1137.33,380.34 1136.5,393.5C 1136.5,370.833 1136.5,348.167 1136.5,325.5C 1150.17,325.667 1163.84,325.5 1177.5,325C 1175.62,324.802 1173.95,324.302 1172.5,323.5 Z"/></g>
<g><path style="opacity:0.114" fill="#e32e2d" d="M 385.5,328.5 C 386.586,328.62 387.253,329.287 387.5,330.5C 387.457,331.416 387.124,332.083 386.5,332.5C 385.833,332.5 385.167,332.5 384.5,332.5C 379.025,331.511 373.358,331.178 367.5,331.5C 367.5,331.167 367.5,330.833 367.5,330.5C 373.926,331.12 379.926,330.453 385.5,328.5 Z"/></g>
<g><path style="opacity:0.782" fill="#e64a4a" d="M 367.5,331.5 C 373.358,331.178 379.025,331.511 384.5,332.5C 375.814,332.753 370.147,332.419 367.5,331.5 Z"/></g>
<g><path style="opacity:1" fill="#0c0703" d="M 47.5,272.5 C 48.5,272.5 49.5,272.5 50.5,272.5C 50.33,273.822 50.6634,274.989 51.5,276C 49.8988,276.273 48.3988,276.773 47,277.5C 46.6667,277.167 46.3333,276.833 46,276.5C 45.5026,279.146 45.3359,281.813 45.5,284.5C 49.5,285.167 49.5,285.833 45.5,286.5C 45.5,287.5 45.5,288.5 45.5,289.5C 47.143,289.52 48.4763,288.853 49.5,287.5C 49.8333,288.667 50.1667,289.833 50.5,291C 49.4546,293.77 48.788,296.603 48.5,299.5C 47.5,299.5 46.5,299.5 45.5,299.5C 45.5,302.167 45.5,304.833 45.5,307.5C 44.5,307.5 43.5,307.5 42.5,307.5C 42.5,309.167 42.5,310.833 42.5,312.5C 43.5,312.5 44.5,312.5 45.5,312.5C 45.5,315.833 45.5,319.167 45.5,322.5C 44.5,322.5 43.5,322.5 42.5,322.5C 41.6345,325.167 40.6345,327.833 39.5,330.5C 38.6143,329.675 38.281,328.675 38.5,327.5C 37.5,327.5 36.5,327.5 35.5,327.5C 35.719,328.675 35.3857,329.675 34.5,330.5C 33.5481,328.955 33.2148,327.288 33.5,325.5C 29.9601,325.377 27.9601,327.043 27.5,330.5C 25.1824,330.657 23.5157,331.824 22.5,334C 24.0028,335.921 24.6695,338.088 24.5,340.5C 25.5,340.5 26.5,340.5 27.5,340.5C 27.5,341.5 27.5,342.5 27.5,343.5C 26.5,343.5 25.5,343.5 24.5,343.5C 24.5,345.167 24.5,346.833 24.5,348.5C 28.5,349.167 28.5,349.833 24.5,350.5C 25.2441,356.885 26.2441,363.218 27.5,369.5C 29.288,369.215 30.9547,369.548 32.5,370.5C 31.2723,372.321 29.6056,373.321 27.5,373.5C 27.5,374.5 27.5,375.5 27.5,376.5C 26.5,376.5 25.5,376.5 24.5,376.5C 24.5,377.5 24.5,378.5 24.5,379.5C 25.5,379.5 26.5,379.5 27.5,379.5C 27.5,381.167 27.5,382.833 27.5,384.5C 31.5,385.167 31.5,385.833 27.5,386.5C 26.8333,388.5 26.1667,390.5 25.5,392.5C 30.6061,392.523 35.6061,393.189 40.5,394.5C 40.7863,396.277 41.4529,397.944 42.5,399.5C 41.8333,400.833 41.1667,402.167 40.5,403.5C 43.0124,408.181 43.0124,412.848 40.5,417.5C 42.1667,417.5 43.8333,417.5 45.5,417.5C 45.5,418.5 45.5,419.5 45.5,420.5C 46.5,420.5 47.5,420.5 48.5,420.5C 49.1667,423.833 49.8333,427.167 50.5,430.5C 52.288,430.215 53.9547,430.548 55.5,431.5C 54.1468,432.524 53.4802,433.857 53.5,435.5C 55.1667,435.5 56.8333,435.5 58.5,435.5C 58.6933,438.308 59.36,440.975 60.5,443.5C 61.5,443.5 62.5,443.5 63.5,443.5C 63.5,444.5 63.5,445.5 63.5,446.5C 64.5,446.5 65.5,446.5 66.5,446.5C 66.281,445.325 66.6143,444.325 67.5,443.5C 68.48,446.086 68.8134,448.753 68.5,451.5C 74.3281,453.209 80.3281,453.876 86.5,453.5C 86.5,454.5 86.5,455.5 86.5,456.5C 89.0248,457.64 91.6915,458.307 94.5,458.5C 94.5,460.5 94.5,462.5 94.5,464.5C 96.1667,464.5 97.8333,464.5 99.5,464.5C 99.5,463.5 99.5,462.5 99.5,461.5C 102.167,461.5 104.833,461.5 107.5,461.5C 107.201,463.604 107.534,465.604 108.5,467.5C 110.409,466.652 112.409,466.318 114.5,466.5C 114.5,469.167 114.5,471.833 114.5,474.5C 116.167,474.5 117.833,474.5 119.5,474.5C 119.5,475.833 119.5,477.167 119.5,478.5C 116.15,478.335 112.817,478.502 109.5,479C 109.043,479.414 108.709,479.914 108.5,480.5C 110.544,481.065 112.21,482.065 113.5,483.5C 64.6093,475.773 31.4426,448.773 14,402.5C 1.44962,358.445 9.11629,318.445 37,282.5C 40.3042,278.816 43.8042,275.482 47.5,272.5 Z"/></g>
<g><path style="opacity:1" fill="#dc1516" d="M 508.5,315.5 C 512.175,325.207 514.842,335.207 516.5,345.5C 515.833,346.5 515.167,347.5 514.5,348.5C 512.892,337.78 510.225,327.28 506.5,317C 507.044,316.283 507.711,315.783 508.5,315.5 Z"/></g>
<g><path style="opacity:0.686" fill="#221e19" d="M 1062.5,323.5 C 1063.12,329.598 1062.45,335.265 1060.5,340.5C 1060.33,335.156 1060.5,329.823 1061,324.5C 1061.38,323.944 1061.88,323.611 1062.5,323.5 Z"/></g>
<g><path style="opacity:1" fill="#100c03" d="M 600.5,338.5 C 603.572,338.187 606.405,338.854 609,340.5C 609.95,339.978 610.784,339.311 611.5,338.5C 615.5,342.5 615.5,346.5 611.5,350.5C 608.788,348.74 605.788,348.073 602.5,348.5C 602.714,350.144 602.38,351.644 601.5,353C 602.624,353.249 603.624,353.749 604.5,354.5C 603.147,355.524 602.48,356.857 602.5,358.5C 605.025,357.36 607.692,356.693 610.5,356.5C 610.833,353.5 612.5,351.833 615.5,351.5C 616.366,348.833 617.366,346.167 618.5,343.5C 619.421,345.756 621.088,346.756 623.5,346.5C 624.004,342.665 625.004,342.665 626.5,346.5C 626.833,350.667 627.167,354.833 627.5,359C 626.428,369.147 625.761,379.314 625.5,389.5C 624.5,389.5 623.5,389.5 622.5,389.5C 622.5,390.5 622.5,391.5 622.5,392.5C 623.675,392.281 624.675,392.614 625.5,393.5C 622.837,395.166 620.504,397.166 618.5,399.5C 617.548,397.955 617.215,396.288 617.5,394.5C 618.5,394.5 619.5,394.5 620.5,394.5C 620.5,392.833 620.5,391.167 620.5,389.5C 619.5,389.5 618.5,389.5 617.5,389.5C 616.952,382.486 616.285,375.486 615.5,368.5C 612.975,367.36 610.308,366.693 607.5,366.5C 607.5,367.5 607.5,368.5 607.5,369.5C 609.167,369.5 610.833,369.5 612.5,369.5C 612.808,371.924 612.474,374.257 611.5,376.5C 610.614,375.675 610.281,374.675 610.5,373.5C 608.833,373.5 607.167,373.5 605.5,373.5C 605.5,369.167 605.5,364.833 605.5,360.5C 603.5,360.5 601.5,360.5 599.5,360.5C 599.5,361.5 599.5,362.5 599.5,363.5C 597.833,363.5 596.167,363.5 594.5,363.5C 594.214,361.723 593.547,360.056 592.5,358.5C 593.362,356.913 594.029,355.246 594.5,353.5C 593.108,350.297 592.441,346.964 592.5,343.5C 593.833,343.5 595.167,343.5 596.5,343.5C 596.5,344.5 596.5,345.5 596.5,346.5C 597.822,346.67 598.989,346.337 600,345.5C 600.497,343.19 600.663,340.857 600.5,338.5 Z"/></g>
<g><path style="opacity:1" fill="#090903" d="M 998.5,327.5 C 993.938,327.106 989.271,327.106 984.5,327.5C 984.5,349.833 984.5,372.167 984.5,394.5C 988.121,395.373 991.788,396.039 995.5,396.5C 993.739,398.357 991.406,399.357 988.5,399.5C 986.547,398.844 984.547,398.511 982.5,398.5C 982.667,384.496 982.5,370.496 982,356.5C 981.722,355.584 981.222,354.918 980.5,354.5C 980.5,344.167 980.5,333.833 980.5,323.5C 985.511,323.334 990.511,323.501 995.5,324C 996.71,325.039 997.71,326.206 998.5,327.5 Z"/></g>
<g><path style="opacity:1" fill="#171412" d="M 1250.5,328.5 C 1246.87,327.571 1243.21,326.737 1239.5,326C 1228.51,325.5 1217.51,325.333 1206.5,325.5C 1206.74,349.847 1206.41,374.181 1205.5,398.5C 1211.23,397.344 1216.9,397.678 1222.5,399.5C 1216.36,400.49 1210.02,400.823 1203.5,400.5C 1203.5,374.833 1203.5,349.167 1203.5,323.5C 1215.17,323.333 1226.84,323.5 1238.5,324C 1242.93,324.732 1246.93,326.232 1250.5,328.5 Z"/></g>
<g><path style="opacity:1" fill="#d9140e" d="M 476.5,348.5 C 479.833,348.5 483.167,348.5 486.5,348.5C 486.26,351.579 486.593,354.579 487.5,357.5C 489.045,358.452 490.712,358.785 492.5,358.5C 492.5,360.5 492.5,362.5 492.5,364.5C 490.94,364.481 489.44,364.148 488,363.5C 486.829,364.34 485.662,365.173 484.5,366C 481.774,366.182 479.107,366.682 476.5,367.5C 477.242,368.287 478.075,368.953 479,369.5C 479.909,372.513 480.742,375.513 481.5,378.5C 479.833,378.5 478.167,378.5 476.5,378.5C 476.838,374.849 475.172,373.183 471.5,373.5C 471.5,366.167 471.5,358.833 471.5,351.5C 473.167,351.5 474.833,351.5 476.5,351.5C 476.5,350.5 476.5,349.5 476.5,348.5 Z"/></g>
<g><path style="opacity:0.744" fill="#2b2b22" d="M 937.5,351.5 C 944.833,351.5 952.167,351.5 959.5,351.5C 955.386,352.826 950.886,353.493 946,353.5C 941.5,353.333 937,353.167 932.5,353C 934.382,352.802 936.048,352.302 937.5,351.5 Z"/></g>
<g><path style="opacity:0.726" fill="#34352c" d="M 1159.5,351.5 C 1164.17,351.5 1168.83,351.5 1173.5,351.5C 1173.83,352.167 1174.17,352.833 1174.5,353.5C 1167.83,353.666 1161.16,353.5 1154.5,353C 1156.38,352.802 1158.05,352.302 1159.5,351.5 Z"/></g>
<g><path style="opacity:0.757" fill="#393635" d="M 1173.5,351.5 C 1176.85,351.335 1180.18,351.502 1183.5,352C 1184.25,352.671 1184.59,353.504 1184.5,354.5C 1183.67,359.316 1183.17,364.316 1183,369.5C 1182.5,364.177 1182.33,358.844 1182.5,353.5C 1179.83,353.5 1177.17,353.5 1174.5,353.5C 1174.17,352.833 1173.83,352.167 1173.5,351.5 Z"/></g>
<g><path style="opacity:0.518" fill="#dd171d" d="M 436.5,337.5 C 437.586,337.62 438.253,338.287 438.5,339.5C 437.498,343.666 435.831,347.499 433.5,351C 434.167,351.667 434.833,352.333 435.5,353C 433.139,354.669 430.806,356.335 428.5,358C 419.546,369.1 409.713,380.934 399,393.5C 398.536,392.906 398.369,392.239 398.5,391.5C 409.469,378.355 420.303,365.022 431,351.5C 433.694,347.121 435.527,342.454 436.5,337.5 Z"/></g>
<g><path style="opacity:0.624" fill="#1b1715" d="M 1104.5,342.5 C 1104.5,356.5 1104.5,370.5 1104.5,384.5C 1103.78,384.918 1103.28,385.584 1103,386.5C 1102.17,371.489 1102.33,356.489 1103.5,341.5C 1104.11,341.624 1104.44,341.957 1104.5,342.5 Z"/></g>
<g><path style="opacity:1" fill="#e1150f" d="M 414.5,320.5 C 418.29,327.229 418.456,334.229 415,341.5C 398.288,361.374 381.788,381.374 365.5,401.5C 364.451,403.386 364.118,406.72 364.5,411.5C 363.835,409.302 363.168,406.969 362.5,404.5C 361.541,408.796 360.875,413.129 360.5,417.5C 358.167,417.5 355.833,417.5 353.5,417.5C 353.649,418.552 353.483,419.552 353,420.5C 352.667,420.167 352.333,419.833 352,419.5C 351.151,414.414 350.984,409.414 351.5,404.5C 350.325,404.719 349.325,404.386 348.5,403.5C 349.246,402.264 349.579,400.93 349.5,399.5C 350.833,399.5 352.167,399.5 353.5,399.5C 353.5,396.167 353.5,392.833 353.5,389.5C 355.167,389.5 356.833,389.5 358.5,389.5C 358.335,386.15 358.502,382.817 359,379.5C 360.768,376.92 362.268,374.253 363.5,371.5C 365.367,371.045 367.2,370.378 369,369.5C 372.986,372.406 375.486,371.406 376.5,366.5C 377.5,366.5 378.5,366.5 379.5,366.5C 379.215,364.712 379.548,363.045 380.5,361.5C 382.167,364.167 383.833,364.167 385.5,361.5C 386.736,362.246 388.07,362.579 389.5,362.5C 389.5,359.5 389.5,356.5 389.5,353.5C 390.5,353.5 391.5,353.5 392.5,353.5C 392.5,351.833 392.5,350.167 392.5,348.5C 391.5,348.5 390.5,348.5 389.5,348.5C 389.5,345.167 389.5,341.833 389.5,338.5C 382.779,337.797 376.112,337.797 369.5,338.5C 369.5,337.5 369.5,336.5 369.5,335.5C 375.315,334.62 380.982,333.62 386.5,332.5C 387.124,332.083 387.457,331.416 387.5,330.5C 387.253,329.287 386.586,328.62 385.5,328.5C 385.912,326.113 386.912,324.113 388.5,322.5C 388.369,323.239 388.536,323.906 389,324.5C 390.377,322.246 391.877,320.08 393.5,318C 401.706,313.573 408.539,315.073 414,322.5C 414.464,321.906 414.631,321.239 414.5,320.5 Z"/></g>
<g><path style="opacity:1" fill="#0f0c09" d="M 1188.5,396.5 C 1189.68,397.688 1189.68,398.855 1188.5,400C 1171.17,400.5 1153.84,400.667 1136.5,400.5C 1136.5,398.167 1136.5,395.833 1136.5,393.5C 1137.33,380.34 1137.83,367.006 1138,353.5C 1138.41,357.585 1139.58,361.418 1141.5,365C 1140.22,369.601 1140.89,373.934 1143.5,378C 1141.76,383.336 1140.76,388.836 1140.5,394.5C 1143.17,394.5 1145.83,394.5 1148.5,394.5C 1148.5,395.833 1148.5,397.167 1148.5,398.5C 1161.41,398.178 1174.25,398.511 1187,399.5C 1187.23,398.263 1187.73,397.263 1188.5,396.5 Z"/></g>
<g><path style="opacity:0.169" fill="#2b2520" d="M 140.5,372.5 C 140.265,373.097 139.765,373.43 139,373.5C 137.5,373 136,372.5 134.5,372C 127.174,371.5 119.841,371.334 112.5,371.5C 112.611,370.883 112.944,370.383 113.5,370C 122.821,368.906 131.821,369.74 140.5,372.5 Z"/></g>
<g><path style="opacity:0.329" fill="#26201c" d="M 689.5,371.5 C 689.265,372.097 688.765,372.43 688,372.5C 680.357,371.88 672.857,371.213 665.5,370.5C 673.468,369.052 681.468,369.386 689.5,371.5 Z"/></g>
<g><path style="opacity:1" fill="#0c0803" d="M 112.5,371.5 C 119.841,371.334 127.174,371.5 134.5,372C 136,372.5 137.5,373 139,373.5C 139.765,373.43 140.265,373.097 140.5,372.5C 146.898,375.267 150.231,380.267 150.5,387.5C 150.173,395.311 146.506,400.811 139.5,404C 131.895,405.311 124.228,405.811 116.5,405.5C 114.809,394.64 113.975,383.64 114,372.5C 113.79,374.058 113.29,375.391 112.5,376.5C 112.5,374.833 112.5,373.167 112.5,371.5 Z"/></g>
<g><path style="opacity:0.569" fill="#15110d" d="M 980.5,354.5 C 981.222,354.918 981.722,355.584 982,356.5C 982.5,370.496 982.667,384.496 982.5,398.5C 984.547,398.511 986.547,398.844 988.5,399.5C 991.406,399.357 993.739,398.357 995.5,396.5C 995.334,386.161 995.5,375.828 996,365.5C 996.183,362.635 996.683,359.969 997.5,357.5C 997.5,359.833 997.5,362.167 997.5,364.5C 998.051,376.191 998.217,387.858 998,399.5C 992.259,400.475 986.425,400.808 980.5,400.5C 980.5,385.167 980.5,369.833 980.5,354.5 Z"/></g>
<g><path style="opacity:1" fill="#0c0804" d="M 665.5,370.5 C 672.857,371.213 680.357,371.88 688,372.5C 688.765,372.43 689.265,372.097 689.5,371.5C 697.596,373.614 701.596,378.947 701.5,387.5C 701.571,395.579 697.905,401.079 690.5,404C 682.221,405.497 673.888,405.831 665.5,405C 664.376,404.161 663.709,402.994 663.5,401.5C 664.096,391.011 664.763,380.677 665.5,370.5 Z"/></g>
<g><path style="opacity:0.631" fill="#161512" d="M 1230.5,376.5 C 1227.88,376.232 1225.38,376.565 1223,377.5C 1222.5,384.492 1222.33,391.492 1222.5,398.5C 1221.51,390.684 1221.17,382.684 1221.5,374.5C 1224.52,374.335 1227.52,374.502 1230.5,375C 1231.74,375.69 1231.74,376.19 1230.5,376.5 Z"/></g>
<g><path style="opacity:0.923" fill="#16160f" d="M 964.5,381.5 C 964.082,382.222 963.416,382.722 962.5,383C 952.455,383.831 942.455,383.498 932.5,382C 935.482,381.502 938.482,381.335 941.5,381.5C 949.377,381.338 957.043,381.338 964.5,381.5 Z"/></g>
<g><path style="opacity:0.918" fill="#1e1e18" d="M 1157.5,381.5 C 1167.85,381.168 1178.19,381.501 1188.5,382.5C 1189.36,383.726 1189.36,385.06 1188.5,386.5C 1187.6,385.791 1187.26,384.791 1187.5,383.5C 1177.16,383.666 1166.83,383.5 1156.5,383C 1154.07,381.913 1154.4,381.413 1157.5,381.5 Z"/></g>
<g><path style="opacity:0.352" fill="#1a1814" d="M 116.5,405.5 C 115.178,405.67 114.011,405.337 113,404.5C 112.5,395.173 112.334,385.839 112.5,376.5C 113.29,375.391 113.79,374.058 114,372.5C 113.975,383.64 114.809,394.64 116.5,405.5 Z"/></g>
<g><path style="opacity:0.273" fill="#1f1c17" d="M 896.5,380.5 C 896.316,382.925 895.649,382.925 894.5,380.5C 888.067,384.487 881.067,385.987 873.5,385C 874.056,384.617 874.389,384.117 874.5,383.5C 882.336,384.827 889.169,382.827 895,377.5C 896.039,378.244 896.539,379.244 896.5,380.5 Z"/></g>
<g><path style="opacity:1" fill="#d8140e" d="M 322.5,394.5 C 324.167,394.5 325.833,394.5 327.5,394.5C 327.5,396.167 327.5,397.833 327.5,399.5C 330.898,399.18 334.232,399.513 337.5,400.5C 338.246,401.736 338.579,403.07 338.5,404.5C 340.167,404.5 341.833,404.5 343.5,404.5C 343.5,406.167 343.5,407.833 343.5,409.5C 339.486,409.334 335.486,409.501 331.5,410C 329.311,410.677 328.978,411.844 330.5,413.5C 330.167,414.5 329.5,415.167 328.5,415.5C 326.591,414.652 324.591,414.318 322.5,414.5C 322.383,410.751 321.716,407.084 320.5,403.5C 321.426,400.53 322.092,397.53 322.5,394.5 Z"/></g>
<g><path style="opacity:0.197" fill="#e91c24" d="M 395.5,395.5 C 397.49,395.993 397.49,397.16 395.5,399C 410.006,399.169 424.339,399.669 438.5,400.5C 438.5,407.167 438.5,413.833 438.5,420.5C 436.265,420.795 434.265,420.461 432.5,419.5C 434.167,419.5 435.833,419.5 437.5,419.5C 437.5,413.5 437.5,407.5 437.5,401.5C 422.5,401.5 407.5,401.5 392.5,401.5C 392.461,398.911 393.461,396.911 395.5,395.5 Z"/></g>
<g><path style="opacity:0.617" fill="#dc1f1f" d="M 365.5,401.5 C 365.5,407.5 365.5,413.5 365.5,419.5C 372.167,419.5 378.833,419.5 385.5,419.5C 378.833,420.167 372.167,420.833 365.5,421.5C 364.521,418.375 364.187,415.042 364.5,411.5C 364.118,406.72 364.451,403.386 365.5,401.5 Z"/></g>
<g><path style="opacity:1" fill="#0a0603" d="M 778.5,420.5 C 765.003,446.189 745.003,464.856 718.5,476.5C 717.338,475.322 716.338,474.155 715.5,473C 716.76,471.887 717.927,471.72 719,472.5C 721.048,470.494 720.548,469.494 717.5,469.5C 717.5,468.5 717.5,467.5 717.5,466.5C 718.5,466.5 719.5,466.5 720.5,466.5C 720.5,465.5 720.5,464.5 720.5,463.5C 716.5,462.833 716.5,462.167 720.5,461.5C 720.215,459.712 720.548,458.045 721.5,456.5C 722.524,457.853 723.857,458.52 725.5,458.5C 725.5,456.833 725.5,455.167 725.5,453.5C 726.5,453.5 727.5,453.5 728.5,453.5C 728.167,448.5 730.5,446.167 735.5,446.5C 735.5,445.5 735.5,444.5 735.5,443.5C 736.5,443.5 737.5,443.5 738.5,443.5C 738.5,442.5 738.5,441.5 738.5,440.5C 741.5,440.167 743.167,438.5 743.5,435.5C 745.167,435.5 746.833,435.5 748.5,435.5C 748.5,433.833 748.5,432.167 748.5,430.5C 751.788,430.073 754.788,430.74 757.5,432.5C 758.524,431.147 759.857,430.48 761.5,430.5C 762.613,426.211 763.613,421.878 764.5,417.5C 765.833,417.5 767.167,417.5 768.5,417.5C 768.52,419.143 767.853,420.476 766.5,421.5C 767.325,422.386 768.325,422.719 769.5,422.5C 769.5,423.5 769.5,424.5 769.5,425.5C 771.167,425.5 772.833,425.5 774.5,425.5C 774.34,423.801 774.506,422.134 775,420.5C 776.073,420.201 777.24,420.201 778.5,420.5 Z"/></g>
<g><path style="opacity:0.178" fill="#dd252c" d="M 385.5,419.5 C 392.833,419.5 400.167,419.5 407.5,419.5C 411.833,420.167 416.167,420.833 420.5,421.5C 402.167,421.5 383.833,421.5 365.5,421.5C 372.167,420.833 378.833,420.167 385.5,419.5 Z"/></g>
<g><path style="opacity:0.847" fill="#de1c21" d="M 438.5,400.5 C 439.491,407.313 439.825,414.313 439.5,421.5C 433.167,421.5 426.833,421.5 420.5,421.5C 416.167,420.833 411.833,420.167 407.5,419.5C 415.833,419.5 424.167,419.5 432.5,419.5C 434.265,420.461 436.265,420.795 438.5,420.5C 438.5,413.833 438.5,407.167 438.5,400.5 Z"/></g>
<g><path style="opacity:0.832" fill="#34332e" d="M 93.5,423.5 C 107.167,423.5 120.833,423.5 134.5,423.5C 134.389,424.117 134.056,424.617 133.5,425C 119.821,425.833 106.154,425.666 92.5,424.5C 92.6236,423.893 92.9569,423.56 93.5,423.5 Z"/></g>
<g><path style="opacity:0.88" fill="#2e2d2b" d="M 645.5,423.5 C 658.833,423.5 672.167,423.5 685.5,423.5C 679.034,424.83 672.201,425.497 665,425.5C 658.167,425.167 651.333,424.833 644.5,424.5C 644.624,423.893 644.957,423.56 645.5,423.5 Z"/></g>
<g><path style="opacity:1" fill="#e0100f" d="M 449.5,472.5 C 397.982,494.279 352.815,484.946 314,444.5C 305.647,434.465 298.814,423.465 293.5,411.5C 296.308,410.071 299.308,409.405 302.5,409.5C 302.5,407.833 302.5,406.167 302.5,404.5C 304.167,404.5 305.833,404.5 307.5,404.5C 307.5,406.167 307.5,407.833 307.5,409.5C 309.167,409.5 310.833,409.5 312.5,409.5C 312.5,413.167 312.5,416.833 312.5,420.5C 314.167,420.5 315.833,420.5 317.5,420.5C 317.5,422.167 317.5,423.833 317.5,425.5C 314.167,425.5 310.833,425.5 307.5,425.5C 307.739,427.467 307.406,429.301 306.5,431C 308.473,431.495 310.473,431.662 312.5,431.5C 312.187,434.247 312.52,436.914 313.5,439.5C 314.428,441.335 315.594,441.668 317,440.5C 317.498,437.183 317.665,433.85 317.5,430.5C 320.833,430.5 324.167,430.5 327.5,430.5C 327.5,432.167 327.5,433.833 327.5,435.5C 329.167,435.5 330.833,435.5 332.5,435.5C 332.5,438.167 332.5,440.833 332.5,443.5C 330.143,443.337 327.81,443.503 325.5,444C 328.196,445.351 330.53,447.184 332.5,449.5C 331.833,450.167 331.167,450.833 330.5,451.5C 334.752,451.395 339.085,451.728 343.5,452.5C 344.853,453.524 345.52,454.857 345.5,456.5C 347.167,456.5 348.833,456.5 350.5,456.5C 350.5,458.167 350.5,459.833 350.5,461.5C 351.5,461.5 352.5,461.5 353.5,461.5C 353.5,462.833 353.5,464.167 353.5,465.5C 356.587,464.008 359.421,464.341 362,466.5C 363.3,465.293 364.8,464.626 366.5,464.5C 366.281,463.325 366.614,462.325 367.5,461.5C 368.452,463.045 368.785,464.712 368.5,466.5C 373.833,466.5 379.167,466.5 384.5,466.5C 384.5,468.167 384.5,469.833 384.5,471.5C 387.167,471.5 389.833,471.5 392.5,471.5C 392.928,474.564 393.594,477.564 394.5,480.5C 396.167,480.5 397.833,480.5 399.5,480.5C 399.5,479.167 399.5,477.833 399.5,476.5C 404.902,476.819 410.235,477.319 415.5,478C 415.784,476.044 415.784,473.877 415.5,471.5C 417.167,471.5 418.833,471.5 420.5,471.5C 420.5,469.833 420.5,468.167 420.5,466.5C 425.5,466.5 430.5,466.5 435.5,466.5C 435.5,464.833 435.5,463.167 435.5,461.5C 439.167,461.5 442.833,461.5 446.5,461.5C 446.5,459.833 446.5,458.167 446.5,456.5C 449.833,456.5 453.167,456.5 456.5,456.5C 456.201,454.396 456.534,452.396 457.5,450.5C 459.21,452.708 460.71,455.041 462,457.5C 464.2,456.01 466.034,456.343 467.5,458.5C 466.019,458.365 464.353,458.699 462.5,459.5C 459.394,465.064 454.727,468.731 448.5,470.5C 448.863,471.183 449.196,471.85 449.5,472.5 Z"/></g>
</svg>
