<?xml version="1.0" encoding="UTF-8"?>
<!DOCTYPE svg PUBLIC "-//W3C//DTD SVG 1.1//EN" "http://www.w3.org/Graphics/SVG/1.1/DTD/svg11.dtd">
<svg xmlns="http://www.w3.org/2000/svg" version="1.1" width="892px" height="446px" style="shape-rendering:geometricPrecision; text-rendering:geometricPrecision; image-rendering:optimizeQuality; fill-rule:evenodd; clip-rule:evenodd" xmlns:xlink="http://www.w3.org/1999/xlink">
<g><path style="opacity:0.312" fill="#403733" d="M 439.5,135.5 C 439.918,136.222 440.584,136.722 441.5,137C 374.665,137.832 307.999,137.665 241.5,136.5C 307.496,135.669 373.496,135.335 439.5,135.5 Z"/></g>
<g><path style="opacity:1" fill="#130a06" d="M 439.5,135.5 C 455.805,137.471 465.805,146.471 469.5,162.5C 470.833,162.5 472.167,162.5 473.5,162.5C 496.833,163.167 520.167,163.833 543.5,164.5C 511.662,164.168 479.996,164.502 448.5,165.5C 448.167,165.5 447.833,165.5 447.5,165.5C 446.957,165.44 446.624,165.107 446.5,164.5C 449.102,163.868 451.436,162.868 453.5,161.5C 454.497,161.53 455.164,161.03 455.5,160C 453.421,154.921 449.754,151.588 444.5,150C 413.168,149.5 381.835,149.333 350.5,149.5C 350.461,148.417 350.127,147.417 349.5,146.5C 351.005,145.158 351.672,143.492 351.5,141.5C 346.167,141.5 340.833,141.5 335.5,141.5C 335.5,142.833 335.5,144.167 335.5,145.5C 336.873,145.343 338.207,145.51 339.5,146C 337.122,146.974 337.456,147.641 340.5,148C 337.258,148.283 336.924,149.117 339.5,150.5C 338.353,174.845 338.187,199.178 339,223.5C 338.329,222.748 337.496,222.414 336.5,222.5C 336.5,198.167 336.5,173.833 336.5,149.5C 302.498,149.333 268.498,149.5 234.5,150C 230.315,151.688 227.315,154.521 225.5,158.5C 225.461,157.417 225.127,156.417 224.5,155.5C 225.861,153.972 227.028,152.305 228,150.5C 228.333,150.833 228.667,151.167 229,151.5C 230.935,149.898 233.101,148.731 235.5,148C 236.833,147.333 236.833,146.667 235.5,146C 242.004,147.405 248.671,147.738 255.5,147C 250.803,146.72 246.137,146.22 241.5,145.5C 238.516,144.127 236.516,142.46 235.5,140.5C 235.061,142.03 233.728,143.03 231.5,143.5C 231.762,142.022 231.429,140.689 230.5,139.5C 229.304,139.846 229.304,140.346 230.5,141C 229.451,141.492 228.451,141.326 227.5,140.5C 227.891,141.891 227.058,142.891 225,143.5C 224.283,142.956 223.783,142.289 223.5,141.5C 228.601,137.102 234.601,135.435 241.5,136.5C 307.999,137.665 374.665,137.832 441.5,137C 440.584,136.722 439.918,136.222 439.5,135.5 Z"/></g>
<g><path style="opacity:1" fill="#130a07" d="M 202.5,171.5 C 201.304,173.981 199.804,173.981 198,171.5C 198.085,174.848 196.585,177.015 193.5,178C 194.362,180.734 195.195,180.901 196,178.5C 196.333,179.167 196.667,179.833 197,180.5C 198.049,179.483 199.216,179.316 200.5,180C 195.531,181.621 195.364,183.788 200,186.5C 200.333,185.833 200.667,185.167 201,184.5C 201.667,186.833 201.667,189.167 201,191.5C 199.801,187.814 199.467,188.147 200,192.5C 200.92,192.93 201.753,193.264 202.5,193.5C 201.067,195.809 201.734,197.309 204.5,198C 204.088,199.564 203.755,201.064 203.5,202.5C 195.07,185.136 186.737,167.636 178.5,150C 164.171,149.5 149.837,149.333 135.5,149.5C 126.569,169.261 117.235,188.928 107.5,208.5C 106.903,208.265 106.57,207.765 106.5,207C 107.127,204.865 107.627,202.698 108,200.5C 108.914,201.654 109.747,201.487 110.5,200C 110.694,198.237 110.694,196.403 110.5,194.5C 111.325,193.614 112.325,193.281 113.5,193.5C 115.951,189.05 117.451,184.05 118,178.5C 118.333,179.5 118.667,180.5 119,181.5C 119.667,178.833 120.333,176.167 121,173.5C 121.984,175.795 122.817,175.461 123.5,172.5C 123.291,171.914 122.957,171.414 122.5,171C 123.687,169.981 124.687,168.814 125.5,167.5C 125.154,166.304 124.654,166.304 124,167.5C 122.317,160.066 119.817,159.732 116.5,166.5C 117.167,166.833 117.833,167.167 118.5,167.5C 115.47,170.108 114.803,173.274 116.5,177C 116.15,178.257 115.483,178.591 114.5,178C 115.28,176.927 115.113,175.76 114,174.5C 112.05,178.538 110.883,182.872 110.5,187.5C 109.808,186.975 109.308,186.308 109,185.5C 108.833,186 108.667,186.5 108.5,187C 109.573,188.416 109.573,189.75 108.5,191C 109.167,191.333 109.833,191.667 110.5,192C 109.671,193.816 108.837,195.649 108,197.5C 107.405,196.101 107.572,194.768 108.5,193.5C 105.866,190.593 104.366,190.926 104,194.5C 104.889,193.112 105.389,193.278 105.5,195C 103.688,197.6 102.355,200.433 101.5,203.5C 100.726,204.711 99.8928,204.711 99,203.5C 98.2797,205.112 98.4464,206.612 99.5,208C 98.6383,210.734 97.805,210.901 97,208.5C 95.7844,210.962 95.1177,213.629 95,216.5C 94.586,216.043 94.086,215.709 93.5,215.5C 92.3777,216.63 91.0443,217.297 89.5,217.5C 101.626,190.582 114.292,163.915 127.5,137.5C 147.158,136.334 166.825,136.167 186.5,137C 192.231,148.296 197.564,159.796 202.5,171.5 Z"/></g>
<g><path style="opacity:1" fill="#1a0b07" d="M 350.5,149.5 C 350.5,173.5 350.5,197.5 350.5,221.5C 349.668,201.671 349.168,181.671 349,161.5C 348.5,177.497 348.333,193.497 348.5,209.5C 347.5,209.5 346.5,209.5 345.5,209.5C 345.705,215.878 345.372,222.211 344.5,228.5C 342.143,228.663 339.81,228.497 337.5,228C 338.833,227.667 340.167,227.333 341.5,227C 339.527,226.505 337.527,226.338 335.5,226.5C 335.5,227.5 335.5,228.5 335.5,229.5C 325.64,230.105 315.973,229.438 306.5,227.5C 305.167,228.833 303.833,230.167 302.5,231.5C 300.116,227.757 296.782,225.757 292.5,225.5C 292.5,221.5 292.5,217.5 292.5,213.5C 292.5,212.167 292.5,210.833 292.5,209.5C 294.833,209.5 297.167,209.5 299.5,209.5C 299.081,214.931 299.081,220.264 299.5,225.5C 311.838,225.667 324.171,225.5 336.5,225C 335.944,224.617 335.611,224.117 335.5,223.5C 336.167,223.5 336.5,223.167 336.5,222.5C 337.496,222.414 338.329,222.748 339,223.5C 338.187,199.178 338.353,174.845 339.5,150.5C 336.924,149.117 337.258,148.283 340.5,148C 337.456,147.641 337.122,146.974 339.5,146C 338.207,145.51 336.873,145.343 335.5,145.5C 335.5,144.167 335.5,142.833 335.5,141.5C 340.833,141.5 346.167,141.5 351.5,141.5C 351.672,143.492 351.005,145.158 349.5,146.5C 350.127,147.417 350.461,148.417 350.5,149.5 Z"/></g>
<g><path style="opacity:0.259" fill="#3c4f52" d="M 108.5,163.5 C 86.1642,163.333 63.8308,163.5 41.5,164C 63.3372,164.168 85.0039,164.668 106.5,165.5C 84.8333,165.5 63.1667,165.5 41.5,165.5C 36.7417,167.923 33.4084,171.589 31.5,176.5C 31.5654,176.062 31.3988,175.728 31,175.5C 30.7216,176.416 30.2216,177.082 29.5,177.5C 30.3886,170.555 34.0553,165.721 40.5,163C 63.3371,162.17 86.0037,162.337 108.5,163.5 Z"/></g>
<g><path style="opacity:0.351" fill="#354542" d="M 674.5,163.5 C 707.998,162.336 741.664,162.169 775.5,163C 777.491,163.374 779.158,164.207 780.5,165.5C 778.602,164.904 776.935,164.904 775.5,165.5C 773.167,165.5 770.833,165.5 768.5,165.5C 768.5,165.167 768.5,164.833 768.5,164.5C 741.186,163.495 709.852,163.161 674.5,163.5 Z"/></g>
<g><path style="opacity:0.326" fill="#3a4548" d="M 806.5,163.5 C 817.995,162.833 829.662,162.5 841.5,162.5C 853.52,162.501 865.186,163.168 876.5,164.5C 853.242,163.511 829.908,163.177 806.5,163.5 Z"/></g>
<g><path style="opacity:0.958" fill="#03140f" d="M 647.5,165.5 C 621.833,164.167 596.167,164.167 570.5,165.5C 569.508,165.672 568.842,165.338 568.5,164.5C 582.309,163.869 596.143,163.536 610,163.5C 622.852,163.501 635.352,164.168 647.5,165.5 Z"/></g>
<g><path style="opacity:0.961" fill="#041710" d="M 674.5,163.5 C 709.852,163.161 741.186,163.495 768.5,164.5C 737.833,164.5 707.167,164.5 676.5,164.5C 676.5,165.5 676.5,166.5 676.5,167.5C 675.833,166.833 675.167,166.167 674.5,165.5C 673.167,164.833 673.167,164.167 674.5,163.5 Z"/></g>
<g><path style="opacity:1" fill="#c6eefc" d="M 41.5,166.5 C 41.5,166.167 41.5,165.833 41.5,165.5C 63.1667,165.5 84.8333,165.5 106.5,165.5C 106.5,165.833 106.5,166.167 106.5,166.5C 105.833,167.167 105.167,167.833 104.5,168.5C 83.8599,166.511 62.8599,165.845 41.5,166.5 Z"/></g>
<g><path style="opacity:1" fill="#accad3" d="M 543.5,164.5 C 547.226,164.177 550.893,164.511 554.5,165.5C 554.137,166.183 553.804,166.85 553.5,167.5C 553.167,167.5 552.833,167.5 552.5,167.5C 518.337,166.502 484.004,166.168 449.5,166.5C 448.833,166.5 448.5,166.167 448.5,165.5C 479.996,164.502 511.662,164.168 543.5,164.5 Z"/></g>
<g><path style="opacity:1" fill="#a9c6d1" d="M 647.5,165.5 C 648.71,165.932 649.71,166.599 650.5,167.5C 624.853,166.38 599.186,166.213 573.5,167C 568.278,168.122 563.612,170.289 559.5,173.5C 560.475,171.807 561.808,170.307 563.5,169C 565.994,167.968 568.328,166.802 570.5,165.5C 596.167,164.167 621.833,164.167 647.5,165.5 Z"/></g>
<g><path style="opacity:1" fill="#8fb1c9" d="M 41.5,165.5 C 41.5,165.833 41.5,166.167 41.5,166.5C 41.5,166.833 41.5,167.167 41.5,167.5C 39.5956,167.738 38.2623,168.738 37.5,170.5C 35.5259,172.428 34.0259,174.761 33,177.5C 32.5003,185.493 32.3336,193.493 32.5,201.5C 32.5,202.167 32.5,202.833 32.5,203.5C 31.5056,213.987 31.1722,224.654 31.5,235.5C 30.1974,215.973 30.1974,196.307 31.5,176.5C 33.4084,171.589 36.7417,167.923 41.5,165.5 Z"/></g>
<g><path style="opacity:1" fill="#033f5a" d="M 41.5,167.5 C 41.5,167.167 41.5,166.833 41.5,166.5C 62.8599,165.845 83.8599,166.511 104.5,168.5C 104.167,168.5 103.833,168.5 103.5,168.5C 102.081,167.549 100.415,167.216 98.5,167.5C 97.5,167.5 96.5,167.5 95.5,167.5C 77.5,167.5 59.5,167.5 41.5,167.5 Z"/></g>
<g><path style="opacity:1" fill="#0a3f5b" d="M 449.5,167.5 C 449.5,167.167 449.5,166.833 449.5,166.5C 484.004,166.168 518.337,166.502 552.5,167.5C 551.728,168.694 550.728,169.694 549.5,170.5C 549.5,169.5 549.5,168.5 549.5,167.5C 547.5,167.5 545.5,167.5 543.5,167.5C 512.167,167.5 480.833,167.5 449.5,167.5 Z"/></g>
<g><path style="opacity:1" fill="#a1c9de" d="M 768.5,165.5 C 770.833,165.5 773.167,165.5 775.5,165.5C 785.327,169.539 790.327,177.039 790.5,188C 789.46,199.203 783.46,205.703 772.5,207.5C 773.5,206.833 774.5,206.167 775.5,205.5C 786.683,201.414 790.85,193.414 788,181.5C 787.246,178.316 785.746,175.649 783.5,173.5C 781.462,169.483 778.129,167.483 773.5,167.5C 773.167,167.5 772.833,167.5 772.5,167.5C 741.338,166.502 710.004,166.168 678.5,166.5C 707.76,165.501 737.76,165.167 768.5,165.5 Z"/></g>
<g><path style="opacity:1" fill="#170e0a" d="M 335.5,223.5 C 335.611,224.117 335.944,224.617 336.5,225C 324.171,225.5 311.838,225.667 299.5,225.5C 299.081,220.264 299.081,214.931 299.5,209.5C 297.167,209.5 294.833,209.5 292.5,209.5C 292.5,210.833 292.5,212.167 292.5,213.5C 291.672,219.319 291.172,225.319 291,231.5C 290.617,230.944 290.117,230.611 289.5,230.5C 289.928,226.516 290.261,222.516 290.5,218.5C 290.637,214.553 289.97,210.886 288.5,207.5C 288.918,206.778 289.584,206.278 290.5,206C 289.667,205.167 288.833,204.333 288,203.5C 281.614,205.018 275.114,206.185 268.5,207C 268.555,215.957 268.555,225.124 268.5,234.5C 240.149,234.574 211.816,233.907 183.5,232.5C 186.107,231.682 188.774,231.182 191.5,231C 188.242,230.788 185.076,230.288 182,229.5C 181.667,229.833 181.333,230.167 181,230.5C 180.409,229.517 180.743,228.85 182,228.5C 190.464,229.623 198.964,229.79 207.5,229C 186.167,228.333 186.167,227.667 207.5,227C 202.167,226.667 196.833,226.333 191.5,226C 204.474,224.034 217.14,224.701 229.5,228C 226.059,228.836 225.892,229.669 229,230.5C 235.143,229.772 241.309,229.272 247.5,229C 226.167,228.333 226.167,227.667 247.5,227C 241.5,226.667 235.5,226.333 229.5,226C 226.598,225.081 226.265,224.248 228.5,223.5C 238.167,223.5 247.833,223.5 257.5,223.5C 257.333,205.497 257.5,187.497 258,169.5C 258.5,167.667 259.667,166.5 261.5,166C 275.167,165.333 288.833,165.333 302.5,166C 303.811,170.469 303.811,174.969 302.5,179.5C 291.849,180.332 281.182,180.832 270.5,181C 267.743,185.179 264.743,189.179 261.5,193C 275.167,193.333 288.833,193.667 302.5,194C 303.788,201.451 303.788,208.951 302.5,216.5C 302.94,218.765 303.606,220.932 304.5,223C 314.828,223.5 325.161,223.666 335.5,223.5 Z"/></g>
<g><path style="opacity:1" fill="#140c08" d="M 413.5,165.5 C 418.297,165.121 422.964,165.621 427.5,167C 430.575,171.954 429.908,176.287 425.5,180C 415.5,180.333 405.5,180.667 395.5,181C 392.438,184.969 389.771,189.136 387.5,193.5C 386.521,192.235 385.521,190.901 384.5,189.5C 384.4,182.197 384.733,174.864 385.5,167.5C 394.985,166.942 404.318,166.276 413.5,165.5 Z"/></g>
<g><path style="opacity:1" fill="#002d98" d="M 95.5,167.5 C 96.5,167.5 97.5,167.5 98.5,167.5C 99.3543,169.035 99.3543,170.368 98.5,171.5C 81.4869,171.833 64.4869,171.499 47.5,170.5C 63.8544,170.158 79.8544,169.158 95.5,167.5 Z"/></g>
<g><path style="opacity:1" fill="#002e96" d="M 511.5,169.5 C 522.833,169.5 534.167,169.5 545.5,169.5C 545.762,170.978 545.429,172.311 544.5,173.5C 531.011,171.542 517.344,170.876 503.5,171.5C 490.15,171.833 476.817,171.499 463.5,170.5C 479.486,169.501 495.486,169.167 511.5,169.5 Z"/></g>
<g><path style="opacity:1" fill="#002e96" d="M 575.5,175.5 C 573.5,174.833 571.5,174.167 569.5,173.5C 569.539,172.417 569.873,171.417 570.5,170.5C 583.833,170.167 597.167,169.833 610.5,169.5C 624.899,169.358 639.232,169.858 653.5,171C 627.502,171.5 601.502,171.667 575.5,171.5C 575.5,172.833 575.5,174.167 575.5,175.5 Z"/></g>
<g><path style="opacity:1" fill="#003890" d="M 41.5,167.5 C 59.5,167.5 77.5,167.5 95.5,167.5C 79.8544,169.158 63.8544,170.158 47.5,170.5C 64.4869,171.499 81.4869,171.833 98.5,171.5C 80.852,173.159 62.852,174.159 44.5,174.5C 44.1667,175.167 43.8333,175.833 43.5,176.5C 45.1045,178.179 45.7711,180.179 45.5,182.5C 43.6309,183.165 41.6309,183.831 39.5,184.5C 38.5934,187.421 38.2601,190.421 38.5,193.5C 37.1667,193.5 35.8333,193.5 34.5,193.5C 34.5,191.833 34.5,190.167 34.5,188.5C 34.1908,183.733 34.6908,179.066 36,174.5C 36.7504,173.874 37.5838,173.374 38.5,173C 38.1164,172.049 37.7831,171.216 37.5,170.5C 38.2623,168.738 39.5956,167.738 41.5,167.5 Z"/></g>
<g><path style="opacity:1" fill="#003389" d="M 449.5,167.5 C 480.833,167.5 512.167,167.5 543.5,167.5C 532.833,168.167 522.167,168.833 511.5,169.5C 495.486,169.167 479.486,169.501 463.5,170.5C 476.817,171.499 490.15,171.833 503.5,171.5C 505.969,172.317 508.635,172.817 511.5,173C 491.769,172.851 472.269,173.685 453,175.5C 452.612,174.572 451.945,173.905 451,173.5C 450.877,175.618 450.043,177.618 448.5,179.5C 447.52,176.914 447.187,174.247 447.5,171.5C 447.66,169.847 448.326,168.514 449.5,167.5 Z"/></g>
<g><path style="opacity:1" fill="#013b8a" d="M 543.5,167.5 C 545.5,167.5 547.5,167.5 549.5,167.5C 549.5,168.5 549.5,169.5 549.5,170.5C 548.374,174.086 546.707,177.419 544.5,180.5C 535.19,181.498 525.857,181.832 516.5,181.5C 516.167,181.5 515.833,181.5 515.5,181.5C 514.521,184.625 514.187,187.958 514.5,191.5C 514.167,191.5 513.833,191.5 513.5,191.5C 513.5,188.833 513.5,186.167 513.5,183.5C 513.5,182.167 513.5,180.833 513.5,179.5C 523.5,179.5 533.5,179.5 543.5,179.5C 543.5,178.167 543.5,176.833 543.5,175.5C 518.824,175.167 494.158,175.5 469.5,176.5C 469.192,177.308 468.692,177.975 468,178.5C 466.506,177.253 465.006,177.253 463.5,178.5C 468.802,179.329 474.136,179.829 479.5,180C 480.056,180.383 480.389,180.883 480.5,181.5C 467.816,181.832 455.149,181.499 442.5,180.5C 443.941,177.276 445.608,174.276 447.5,171.5C 447.187,174.247 447.52,176.914 448.5,179.5C 450.043,177.618 450.877,175.618 451,173.5C 451.945,173.905 452.612,174.572 453,175.5C 472.269,173.685 491.769,172.851 511.5,173C 508.635,172.817 505.969,172.317 503.5,171.5C 517.344,170.876 531.011,171.542 544.5,173.5C 545.429,172.311 545.762,170.978 545.5,169.5C 534.167,169.5 522.833,169.5 511.5,169.5C 522.167,168.833 532.833,168.167 543.5,167.5 Z"/></g>
<g><path style="opacity:1" fill="#043882" d="M 650.5,167.5 C 653.263,169.08 655.93,170.913 658.5,173C 659.883,174.271 660.883,175.771 661.5,177.5C 659.408,177.439 657.908,176.439 657,174.5C 652.347,175.051 648.514,176.051 645.5,177.5C 644.167,177.333 642.833,177.167 641.5,177C 642.167,176.667 642.833,176.333 643.5,176C 620.836,175.5 598.169,175.333 575.5,175.5C 575.5,174.167 575.5,172.833 575.5,171.5C 601.502,171.667 627.502,171.5 653.5,171C 639.232,169.858 624.899,169.358 610.5,169.5C 597.167,169.833 583.833,170.167 570.5,170.5C 569.873,171.417 569.539,172.417 569.5,173.5C 566.178,173.845 562.845,174.179 559.5,174.5C 559.5,174.167 559.5,173.833 559.5,173.5C 563.612,170.289 568.278,168.122 573.5,167C 599.186,166.213 624.853,166.38 650.5,167.5 Z"/></g>
<g><path style="opacity:1" fill="#044981" d="M 37.5,170.5 C 37.7831,171.216 38.1164,172.049 38.5,173C 37.5838,173.374 36.7504,173.874 36,174.5C 34.6908,179.066 34.1908,183.733 34.5,188.5C 33.5151,192.634 33.1818,196.968 33.5,201.5C 33.1667,201.5 32.8333,201.5 32.5,201.5C 32.3336,193.493 32.5003,185.493 33,177.5C 34.0259,174.761 35.5259,172.428 37.5,170.5 Z"/></g>
<g><path style="opacity:1" fill="#202b34" d="M 453.5,161.5 C 451.436,162.868 449.102,163.868 446.5,164.5C 446.624,165.107 446.957,165.44 447.5,165.5C 445.16,171.511 442.827,177.511 440.5,183.5C 439.081,184.451 437.415,184.784 435.5,184.5C 438.547,177.405 441.88,170.405 445.5,163.5C 447.851,161.771 450.518,161.104 453.5,161.5 Z"/></g>
<g><path style="opacity:1" fill="#003e9d" d="M 513.5,183.5 C 511.656,182.085 510.989,180.419 511.5,178.5C 503.528,177.502 495.528,177.169 487.5,177.5C 487.5,178.833 487.5,180.167 487.5,181.5C 492.707,180.94 493.707,182.607 490.5,186.5C 486.215,188.003 484.381,186.337 485,181.5C 484.536,182.094 484.369,182.761 484.5,183.5C 483.5,183.5 482.5,183.5 481.5,183.5C 481.672,182.508 481.338,181.842 480.5,181.5C 480.389,180.883 480.056,180.383 479.5,180C 474.136,179.829 468.802,179.329 463.5,178.5C 465.006,177.253 466.506,177.253 468,178.5C 468.692,177.975 469.192,177.308 469.5,176.5C 494.158,175.5 518.824,175.167 543.5,175.5C 543.5,176.833 543.5,178.167 543.5,179.5C 533.5,179.5 523.5,179.5 513.5,179.5C 513.5,180.833 513.5,182.167 513.5,183.5 Z"/></g>
<g><path style="opacity:0.224" fill="#2e3e51" d="M 568.5,164.5 C 568.842,165.338 569.508,165.672 570.5,165.5C 568.328,166.802 565.994,167.968 563.5,169C 561.808,170.307 560.475,171.807 559.5,173.5C 558.167,174.5 556.833,175.5 555.5,176.5C 554.811,175.226 553.977,175.226 553,176.5C 550.903,181.016 548.737,185.35 546.5,189.5C 547.038,187.883 547.371,186.216 547.5,184.5C 548.833,184.167 548.833,183.833 547.5,183.5C 549.328,179.173 551.661,175.173 554.5,171.5C 554.435,171.938 554.601,172.272 555,172.5C 558.857,168.658 563.357,165.992 568.5,164.5 Z"/></g>
<g><path style="opacity:1" fill="#1f333e" d="M 653.5,234.5 C 652.662,234.158 652.328,233.492 652.5,232.5C 655.541,230.638 658.208,228.305 660.5,225.5C 661.338,225.158 661.672,224.492 661.5,223.5C 672.331,208.817 673.164,193.484 664,177.5C 660.627,172.572 656.127,169.238 650.5,167.5C 649.71,166.599 648.71,165.932 647.5,165.5C 635.352,164.168 622.852,163.501 610,163.5C 596.143,163.536 582.309,163.869 568.5,164.5C 568.918,163.778 569.584,163.278 570.5,163C 596.5,162.333 622.5,162.333 648.5,163C 660.899,167.735 668.733,176.569 672,189.5C 675.161,208.492 668.994,223.492 653.5,234.5 Z"/></g>
<g><path style="opacity:1" fill="#004090" d="M 98.5,167.5 C 100.415,167.216 102.081,167.549 103.5,168.5C 102.23,172.638 100.563,176.638 98.5,180.5C 88.1881,181.499 77.8548,181.832 67.5,181.5C 66.1667,181.5 65.5,182.167 65.5,183.5C 58.7756,183.756 52.109,183.423 45.5,182.5C 45.7711,180.179 45.1045,178.179 43.5,176.5C 43.8333,175.833 44.1667,175.167 44.5,174.5C 62.852,174.159 80.852,173.159 98.5,171.5C 99.3543,170.368 99.3543,169.035 98.5,167.5 Z"/></g>
<g><path style="opacity:1" fill="#180d09" d="M 225.5,158.5 C 224.537,177.8 224.204,197.133 224.5,216.5C 223.952,218.532 222.619,219.532 220.5,219.5C 220.649,220.552 220.483,221.552 220,222.5C 218.591,218.684 216.924,215.017 215,211.5C 215.305,213.443 215.305,215.443 215,217.5C 214.641,214.456 213.974,214.122 213,216.5C 211.871,214.859 210.371,213.859 208.5,213.5C 206.559,209.952 204.893,206.286 203.5,202.5C 203.755,201.064 204.088,199.564 204.5,198C 201.734,197.309 201.067,195.809 202.5,193.5C 201.753,193.264 200.92,192.93 200,192.5C 199.467,188.147 199.801,187.814 201,191.5C 201.667,189.167 201.667,186.833 201,184.5C 200.667,185.167 200.333,185.833 200,186.5C 195.364,183.788 195.531,181.621 200.5,180C 199.216,179.316 198.049,179.483 197,180.5C 196.667,179.833 196.333,179.167 196,178.5C 195.195,180.901 194.362,180.734 193.5,178C 196.585,177.015 198.085,174.848 198,171.5C 199.804,173.981 201.304,173.981 202.5,171.5C 205.232,176.844 208.066,182.178 211,187.5C 211.1,177.108 211.767,166.775 213,156.5C 214.555,150.028 218.055,145.028 223.5,141.5C 223.783,142.289 224.283,142.956 225,143.5C 227.058,142.891 227.891,141.891 227.5,140.5C 228.451,141.326 229.451,141.492 230.5,141C 229.304,140.346 229.304,139.846 230.5,139.5C 231.429,140.689 231.762,142.022 231.5,143.5C 233.728,143.03 235.061,142.03 235.5,140.5C 236.516,142.46 238.516,144.127 241.5,145.5C 246.137,146.22 250.803,146.72 255.5,147C 248.671,147.738 242.004,147.405 235.5,146C 236.833,146.667 236.833,147.333 235.5,148C 233.101,148.731 230.935,149.898 229,151.5C 228.667,151.167 228.333,150.833 228,150.5C 227.028,152.305 225.861,153.972 224.5,155.5C 225.127,156.417 225.461,157.417 225.5,158.5 Z"/></g>
<g><path style="opacity:1" fill="#a7c0d7" d="M 559.5,173.5 C 559.5,173.833 559.5,174.167 559.5,174.5C 559.5,174.833 559.5,175.167 559.5,175.5C 557.833,176.833 556.167,178.167 554.5,179.5C 554.557,178.391 554.89,177.391 555.5,176.5C 556.833,175.5 558.167,174.5 559.5,173.5 Z"/></g>
<g><path style="opacity:1" fill="#00409c" d="M 569.5,173.5 C 571.5,174.167 573.5,174.833 575.5,175.5C 598.169,175.333 620.836,175.5 643.5,176C 642.833,176.333 642.167,176.667 641.5,177C 642.833,177.167 644.167,177.333 645.5,177.5C 648.514,176.051 652.347,175.051 657,174.5C 657.908,176.439 659.408,177.439 661.5,177.5C 662.974,178.436 663.974,179.77 664.5,181.5C 663.782,185.242 661.782,188.242 658.5,190.5C 657.675,191.386 656.675,191.719 655.5,191.5C 655.5,189.5 655.5,187.5 655.5,185.5C 656.5,185.5 657.5,185.5 658.5,185.5C 658.425,182.794 658.092,180.127 657.5,177.5C 655.5,177.5 653.5,177.5 651.5,177.5C 651.854,179.541 651.854,181.374 651.5,183C 646.139,183.609 640.805,183.442 635.5,182.5C 635.307,178.551 634.807,178.551 634,182.5C 633.667,181.5 633.333,180.5 633,179.5C 632.623,180.942 631.79,181.942 630.5,182.5C 628.393,181.532 626.059,181.198 623.5,181.5C 619.555,180.175 615.222,179.508 610.5,179.5C 606.167,179.667 601.833,179.833 597.5,180C 594.7,181.232 591.7,181.899 588.5,182C 589.167,182.333 589.833,182.667 590.5,183C 588.39,184.458 586.39,185.958 584.5,187.5C 583.766,186.292 583.433,184.959 583.5,183.5C 581.408,183.561 579.908,184.561 579,186.5C 577.256,185.351 577.089,184.017 578.5,182.5C 577.675,181.614 576.675,181.281 575.5,181.5C 575.5,183.167 575.5,184.833 575.5,186.5C 572.298,186.23 569.298,185.396 566.5,184C 567.423,181.959 567.756,179.792 567.5,177.5C 565.396,177.201 563.396,177.534 561.5,178.5C 560.692,180.925 559.692,183.258 558.5,185.5C 558.167,184.5 557.833,183.5 557.5,182.5C 557.886,180.068 558.553,177.734 559.5,175.5C 559.5,175.167 559.5,174.833 559.5,174.5C 562.845,174.179 566.178,173.845 569.5,173.5 Z"/></g>
<g><path style="opacity:1" fill="#003f94" d="M 682.5,167.5 C 681.892,168.8 681.225,170.133 680.5,171.5C 680.539,173.587 681.539,174.921 683.5,175.5C 711.756,174.199 739.756,172.866 767.5,171.5C 770.518,171.665 773.518,171.498 776.5,171C 775.756,169.961 774.756,169.461 773.5,169.5C 773.5,168.833 773.5,168.167 773.5,167.5C 778.129,167.483 781.462,169.483 783.5,173.5C 781.201,174.138 779.034,175.138 777,176.5C 760.032,175.123 743.032,175.456 726,177.5C 719.492,176.763 712.992,176.097 706.5,175.5C 706.5,176.833 706.5,178.167 706.5,179.5C 716.167,179.5 725.833,179.5 735.5,179.5C 735.5,180.167 735.5,180.833 735.5,181.5C 727.833,181.5 720.167,181.5 712.5,181.5C 712.167,181.5 711.833,181.5 711.5,181.5C 708.072,182.353 704.739,182.353 701.5,181.5C 696.558,183.428 691.558,183.761 686.5,182.5C 685.516,185.428 685.183,188.428 685.5,191.5C 685.631,192.239 685.464,192.906 685,193.5C 684,192.167 683,192.167 682,193.5C 680.572,184.888 679.739,176.221 679.5,167.5C 680.5,167.5 681.5,167.5 682.5,167.5 Z"/></g>
<g><path style="opacity:1" fill="#002d99" d="M 773.5,169.5 C 774.756,169.461 775.756,169.961 776.5,171C 773.518,171.498 770.518,171.665 767.5,171.5C 740.825,171.833 714.158,171.5 687.5,170.5C 716.159,169.5 744.826,169.167 773.5,169.5 Z"/></g>
<g><path style="opacity:1" fill="#003188" d="M 682.5,167.5 C 712.5,167.5 742.5,167.5 772.5,167.5C 772.833,167.5 773.167,167.5 773.5,167.5C 773.5,168.167 773.5,168.833 773.5,169.5C 744.826,169.167 716.159,169.5 687.5,170.5C 714.158,171.5 740.825,171.833 767.5,171.5C 739.756,172.866 711.756,174.199 683.5,175.5C 681.539,174.921 680.539,173.587 680.5,171.5C 681.225,170.133 681.892,168.8 682.5,167.5 Z"/></g>
<g><path style="opacity:1" fill="#003e9b" d="M 783.5,173.5 C 783.843,175.483 783.176,176.817 781.5,177.5C 781.009,180.152 779.342,181.652 776.5,182C 777.167,182.333 777.833,182.667 778.5,183C 776.717,183.232 775.05,182.732 773.5,181.5C 768.557,182.462 763.724,183.795 759,185.5C 756.814,183.38 754.314,181.546 751.5,180C 746.177,179.501 740.844,179.334 735.5,179.5C 725.833,179.5 716.167,179.5 706.5,179.5C 706.5,178.167 706.5,176.833 706.5,175.5C 712.992,176.097 719.492,176.763 726,177.5C 743.032,175.456 760.032,175.123 777,176.5C 779.034,175.138 781.201,174.138 783.5,173.5 Z"/></g>
<g><path style="opacity:1" fill="#044889" d="M 623.5,181.5 C 614.827,181.334 606.16,181.5 597.5,182C 594.035,183.323 590.701,184.823 587.5,186.5C 586.912,189.063 585.912,191.396 584.5,193.5C 584.5,192.167 584.5,190.833 584.5,189.5C 584.5,188.833 584.5,188.167 584.5,187.5C 586.39,185.958 588.39,184.458 590.5,183C 589.833,182.667 589.167,182.333 588.5,182C 591.7,181.899 594.7,181.232 597.5,180C 601.833,179.833 606.167,179.667 610.5,179.5C 615.222,179.508 619.555,180.175 623.5,181.5 Z"/></g>
<g><path style="opacity:1" fill="#93acc0" d="M 447.5,165.5 C 447.833,165.5 448.167,165.5 448.5,165.5C 448.5,166.167 448.833,166.5 449.5,166.5C 449.5,166.833 449.5,167.167 449.5,167.5C 448.326,168.514 447.66,169.847 447.5,171.5C 445.608,174.276 443.941,177.276 442.5,180.5C 455.149,181.499 467.816,181.832 480.5,181.5C 480.5,181.833 480.5,182.167 480.5,182.5C 479.833,182.5 479.5,182.833 479.5,183.5C 466.5,183.5 453.5,183.5 440.5,183.5C 442.827,177.511 445.16,171.511 447.5,165.5 Z"/></g>
<g><path style="opacity:1" fill="#91b0cc" d="M 552.5,167.5 C 552.833,167.5 553.167,167.5 553.5,167.5C 550.862,172.483 548.195,177.483 545.5,182.5C 536.19,183.498 526.857,183.832 517.5,183.5C 517.5,192.167 517.5,200.833 517.5,209.5C 516.506,200.348 516.173,191.015 516.5,181.5C 525.857,181.832 535.19,181.498 544.5,180.5C 546.707,177.419 548.374,174.086 549.5,170.5C 550.728,169.694 551.728,168.694 552.5,167.5 Z"/></g>
<g><path style="opacity:1" fill="#85b2cd" d="M 623.5,181.5 C 630.003,184.004 634.003,188.671 635.5,195.5C 635.167,195.5 634.833,195.5 634.5,195.5C 633.164,189.497 629.497,185.83 623.5,184.5C 615.016,183.507 606.349,183.174 597.5,183.5C 587.332,187.835 583.499,195.502 586,206.5C 587.63,209.629 589.464,212.629 591.5,215.5C 588.909,214.746 587.076,213.079 586,210.5C 585.617,211.056 585.117,211.389 584.5,211.5C 584.795,209.265 584.461,207.265 583.5,205.5C 583.307,201.434 583.64,197.434 584.5,193.5C 585.912,191.396 586.912,189.063 587.5,186.5C 590.701,184.823 594.035,183.323 597.5,182C 606.16,181.5 614.827,181.334 623.5,181.5 Z"/></g>
<g><path style="opacity:1" fill="#8ca2b8" d="M 712.5,182.5 C 712.5,182.167 712.5,181.833 712.5,181.5C 720.167,181.5 727.833,181.5 735.5,181.5C 741.176,181.334 746.843,181.501 752.5,182C 755.712,185.302 756.379,189.135 754.5,193.5C 753.833,193.5 753.167,193.5 752.5,193.5C 743.167,193.5 733.833,193.5 724.5,193.5C 734.008,192.833 743.675,192.167 753.5,191.5C 755.04,188.709 754.706,186.209 752.5,184C 739.504,183.5 726.504,183.333 713.5,183.5C 713.5,182.833 713.167,182.5 712.5,182.5 Z"/></g>
<g><path style="opacity:1" fill="#8da8c5" d="M 106.5,166.5 C 104.202,171.771 101.869,177.104 99.5,182.5C 89.1881,183.499 78.8548,183.832 68.5,183.5C 68.5,182.833 68.1667,182.5 67.5,182.5C 67.5,182.167 67.5,181.833 67.5,181.5C 77.8548,181.832 88.1881,181.499 98.5,180.5C 100.563,176.638 102.23,172.638 103.5,168.5C 103.833,168.5 104.167,168.5 104.5,168.5C 105.167,167.833 105.833,167.167 106.5,166.5 Z"/></g>
<g><path style="opacity:1" fill="#004aa2" d="M 513.5,183.5 C 513.5,186.167 513.5,188.833 513.5,191.5C 512.181,190.103 510.514,189.437 508.5,189.5C 503.596,189.716 498.929,190.716 494.5,192.5C 491.61,190.944 488.61,189.61 485.5,188.5C 484.691,186.929 484.357,185.262 484.5,183.5C 484.369,182.761 484.536,182.094 485,181.5C 484.381,186.337 486.215,188.003 490.5,186.5C 493.707,182.607 492.707,180.94 487.5,181.5C 487.5,180.167 487.5,178.833 487.5,177.5C 495.528,177.169 503.528,177.502 511.5,178.5C 510.989,180.419 511.656,182.085 513.5,183.5 Z"/></g>
<g><path style="opacity:0.381" fill="#0d1015" d="M 597.5,183.5 C 606.349,183.174 615.016,183.507 623.5,184.5C 623.167,185.167 622.833,185.833 622.5,186.5C 614.586,185.533 606.586,185.199 598.5,185.5C 596.302,185.591 595.969,184.925 597.5,183.5 Z"/></g>
<g><path style="opacity:0.482" fill="#172933" d="M 806.5,163.5 C 829.908,163.177 853.242,163.511 876.5,164.5C 871.381,171.458 866.048,178.291 860.5,185C 852.841,185.5 845.174,185.666 837.5,185.5C 837.5,188.5 837.5,191.5 837.5,194.5C 836.883,194.389 836.383,194.056 836,193.5C 835.831,207.006 835.331,220.34 834.5,233.5C 834.5,216.833 834.5,200.167 834.5,183.5C 843.234,184.135 851.567,183.468 859.5,181.5C 864.21,177.087 868.21,172.087 871.5,166.5C 872.043,166.44 872.376,166.107 872.5,165.5C 851.337,164.172 830.337,164.172 809.5,165.5C 805.062,165.933 802.062,168.267 800.5,172.5C 798.552,174.32 797.552,176.654 797.5,179.5C 796.503,197.993 796.17,216.659 796.5,235.5C 797.5,235.5 798.5,235.5 799.5,235.5C 804.167,235.5 808.833,235.5 813.5,235.5C 808.265,237.45 802.598,238.117 796.5,237.5C 795.168,227.689 794.501,217.523 794.5,207C 794.667,196.833 794.833,186.667 795,176.5C 796.583,170.089 800.416,165.756 806.5,163.5 Z"/></g>
<g><path style="opacity:1" fill="#85a4be" d="M 833.5,182.5 C 833.5,182.167 833.5,181.833 833.5,181.5C 842.167,181.5 850.833,181.5 859.5,181.5C 851.567,183.468 843.234,184.135 834.5,183.5C 834.5,182.833 834.167,182.5 833.5,182.5 Z"/></g>
<g><path style="opacity:1" fill="#0a4277" d="M 807.5,167.5 C 827.996,166.337 848.663,166.171 869.5,167C 865.777,171.63 862.443,176.464 859.5,181.5C 850.833,181.5 842.167,181.5 833.5,181.5C 840.424,179.537 847.757,178.87 855.5,179.5C 856.386,180.776 857.386,180.776 858.5,179.5C 860.475,177.455 860.475,175.788 858.5,174.5C 859.612,173.735 860.279,172.735 860.5,171.5C 862.179,171.715 863.179,171.048 863.5,169.5C 864.043,169.44 864.376,169.107 864.5,168.5C 845.512,167.5 826.512,167.167 807.5,167.5 Z"/></g>
<g><path style="opacity:1" fill="#00409a" d="M 855.5,179.5 C 847.757,178.87 840.424,179.537 833.5,181.5C 832.167,181.5 831.5,182.167 831.5,183.5C 826.167,183.5 820.833,183.5 815.5,183.5C 815.5,185.5 815.5,187.5 815.5,189.5C 814.5,189.5 813.5,189.5 812.5,189.5C 812.946,186.99 812.28,184.99 810.5,183.5C 808.706,182.075 807.039,180.408 805.5,178.5C 806.167,177.833 806.833,177.167 807.5,176.5C 824.157,175.334 840.823,175.167 857.5,176C 856.359,176.741 856.359,177.575 857.5,178.5C 857.043,179.298 856.376,179.631 855.5,179.5 Z"/></g>
<g><path style="opacity:1" fill="#02388a" d="M 807.5,167.5 C 826.512,167.167 845.512,167.5 864.5,168.5C 864.376,169.107 864.043,169.44 863.5,169.5C 863.565,169.062 863.399,168.728 863,168.5C 847.23,169.16 831.397,169.826 815.5,170.5C 830.485,171.499 845.485,171.833 860.5,171.5C 860.279,172.735 859.612,173.735 858.5,174.5C 860.475,175.788 860.475,177.455 858.5,179.5C 857.386,180.776 856.386,180.776 855.5,179.5C 856.376,179.631 857.043,179.298 857.5,178.5C 856.359,177.575 856.359,176.741 857.5,176C 840.823,175.167 824.157,175.334 807.5,176.5C 806.833,177.167 806.167,177.833 805.5,178.5C 807.039,180.408 808.706,182.075 810.5,183.5C 807.534,183.11 804.868,183.777 802.5,185.5C 801.735,184.388 800.735,183.721 799.5,183.5C 799.5,181.5 799.5,179.5 799.5,177.5C 799.629,175.784 799.962,174.117 800.5,172.5C 802.573,170.42 804.907,168.754 807.5,167.5 Z"/></g>
<g><path style="opacity:1" fill="#bcdff0" d="M 809.5,165.5 C 830.34,165.169 851.007,165.503 871.5,166.5C 868.21,172.087 864.21,177.087 859.5,181.5C 862.443,176.464 865.777,171.63 869.5,167C 848.663,166.171 827.996,166.337 807.5,167.5C 804.907,168.754 802.573,170.42 800.5,172.5C 802.062,168.267 805.062,165.933 809.5,165.5 Z"/></g>
<g><path style="opacity:1" fill="#002e95" d="M 863.5,169.5 C 863.179,171.048 862.179,171.715 860.5,171.5C 845.485,171.833 830.485,171.499 815.5,170.5C 831.397,169.826 847.23,169.16 863,168.5C 863.399,168.728 863.565,169.062 863.5,169.5 Z"/></g>
<g><path style="opacity:1" fill="#738481" d="M 809.5,165.5 C 830.337,164.172 851.337,164.172 872.5,165.5C 872.376,166.107 872.043,166.44 871.5,166.5C 851.007,165.503 830.34,165.169 809.5,165.5 Z"/></g>
<g><path style="opacity:1" fill="#004da4" d="M 655.5,191.5 C 650.715,192.92 645.715,194.253 640.5,195.5C 637.38,190.888 634.047,186.554 630.5,182.5C 631.79,181.942 632.623,180.942 633,179.5C 633.333,180.5 633.667,181.5 634,182.5C 634.807,178.551 635.307,178.551 635.5,182.5C 640.805,183.442 646.139,183.609 651.5,183C 651.854,181.374 651.854,179.541 651.5,177.5C 653.5,177.5 655.5,177.5 657.5,177.5C 658.092,180.127 658.425,182.794 658.5,185.5C 657.5,185.5 656.5,185.5 655.5,185.5C 655.5,187.5 655.5,189.5 655.5,191.5 Z"/></g>
<g><path style="opacity:1" fill="#0050a5" d="M 711.5,181.5 C 711.825,189.352 711.492,197.018 710.5,204.5C 710.666,200.154 710.499,195.821 710,191.5C 709,192.833 708,194.167 707,195.5C 706.29,194.027 705.124,193.36 703.5,193.5C 703.5,194.833 703.5,196.167 703.5,197.5C 698.125,197.828 692.792,197.495 687.5,196.5C 686.972,194.664 686.306,192.997 685.5,191.5C 685.183,188.428 685.516,185.428 686.5,182.5C 691.558,183.761 696.558,183.428 701.5,181.5C 704.739,182.353 708.072,182.353 711.5,181.5 Z"/></g>
<g><path style="opacity:1" fill="#014ea5" d="M 559.5,175.5 C 558.553,177.734 557.886,180.068 557.5,182.5C 557.833,183.5 558.167,184.5 558.5,185.5C 559.692,183.258 560.692,180.925 561.5,178.5C 563.396,177.534 565.396,177.201 567.5,177.5C 567.756,179.792 567.423,181.959 566.5,184C 569.298,185.396 572.298,186.23 575.5,186.5C 575.5,184.833 575.5,183.167 575.5,181.5C 576.675,181.281 577.675,181.614 578.5,182.5C 577.089,184.017 577.256,185.351 579,186.5C 579.908,184.561 581.408,183.561 583.5,183.5C 583.433,184.959 583.766,186.292 584.5,187.5C 584.5,188.167 584.5,188.833 584.5,189.5C 583.783,191.953 582.616,194.287 581,196.5C 579.605,195.185 578.605,195.519 578,197.5C 576.743,195.254 574.91,193.921 572.5,193.5C 572.5,192.167 572.5,190.833 572.5,189.5C 569.05,188.756 567.384,190.09 567.5,193.5C 562.349,193.022 557.349,193.022 552.5,193.5C 552.5,191.167 552.5,188.833 552.5,186.5C 552.878,184.079 553.545,181.746 554.5,179.5C 556.167,178.167 557.833,176.833 559.5,175.5 Z"/></g>
<g><path style="opacity:1" fill="#0153a7" d="M 781.5,177.5 C 781.45,179.59 782.45,180.923 784.5,181.5C 785.961,187.696 785.628,193.696 783.5,199.5C 781.833,199.5 780.167,199.5 778.5,199.5C 778.5,197.833 778.5,196.167 778.5,194.5C 776.194,194.993 773.861,195.326 771.5,195.5C 771.5,196.833 771.5,198.167 771.5,199.5C 773.827,199.247 775.827,199.914 777.5,201.5C 775.295,201.358 773.795,202.025 773,203.5C 771.129,203.291 769.962,202.291 769.5,200.5C 765.217,199.508 760.884,199.174 756.5,199.5C 756.975,196.918 756.308,194.918 754.5,193.5C 756.379,189.135 755.712,185.302 752.5,182C 746.843,181.501 741.176,181.334 735.5,181.5C 735.5,180.833 735.5,180.167 735.5,179.5C 740.844,179.334 746.177,179.501 751.5,180C 754.314,181.546 756.814,183.38 759,185.5C 763.724,183.795 768.557,182.462 773.5,181.5C 775.05,182.732 776.717,183.232 778.5,183C 777.833,182.667 777.167,182.333 776.5,182C 779.342,181.652 781.009,180.152 781.5,177.5 Z"/></g>
<g><path style="opacity:1" fill="#191920" d="M 713.5,183.5 C 726.504,183.333 739.504,183.5 752.5,184C 754.706,186.209 755.04,188.709 753.5,191.5C 743.675,192.167 734.008,192.833 724.5,193.5C 721.3,197.879 717.633,201.879 713.5,205.5C 713.5,198.167 713.5,190.833 713.5,183.5 Z M 751.5,187.5 C 751.586,188.496 751.252,189.329 750.5,190C 741.167,190.333 731.833,190.667 722.5,191C 720.548,193.074 718.715,195.241 717,197.5C 716.501,193.848 716.335,190.182 716.5,186.5C 727.326,185.341 738.326,185.174 749.5,186C 750.044,186.717 750.711,187.217 751.5,187.5 Z"/></g>
<g><path style="opacity:1" fill="#88d1ef" d="M 724.5,193.5 C 733.833,193.5 743.167,193.5 752.5,193.5C 743.676,194.33 734.676,194.83 725.5,195C 723.21,196.777 721.543,198.944 720.5,201.5C 719.833,201.5 719.5,201.833 719.5,202.5C 717.457,203.579 716.124,205.246 715.5,207.5C 714.5,207.167 713.833,206.5 713.5,205.5C 717.633,201.879 721.3,197.879 724.5,193.5 Z"/></g>
<g><path style="opacity:1" fill="#005db2" d="M 799.5,183.5 C 800.735,183.721 801.735,184.388 802.5,185.5C 804.868,183.777 807.534,183.11 810.5,183.5C 812.28,184.99 812.946,186.99 812.5,189.5C 813.5,189.5 814.5,189.5 815.5,189.5C 815.5,187.5 815.5,185.5 815.5,183.5C 820.833,183.5 826.167,183.5 831.5,183.5C 832.182,193.819 832.515,204.153 832.5,214.5C 831.835,212.631 831.169,210.631 830.5,208.5C 820.456,208.82 810.622,209.82 801,211.5C 800.722,210.584 800.222,209.918 799.5,209.5C 799.5,200.833 799.5,192.167 799.5,183.5 Z"/></g>
<g><path style="opacity:0.118" fill="#425766" d="M 716.5,186.5 C 716.335,190.182 716.501,193.848 717,197.5C 718.715,195.241 720.548,193.074 722.5,191C 731.833,190.667 741.167,190.333 750.5,190C 751.252,189.329 751.586,188.496 751.5,187.5C 752.791,188.542 752.791,189.708 751.5,191C 742.167,191.333 732.833,191.667 723.5,192C 721.372,195.13 718.872,197.963 716,200.5C 715.185,195.648 715.352,190.981 716.5,186.5 Z"/></g>
<g><path style="opacity:0.078" fill="#0f2327" d="M 479.5,185.5 C 478.848,202.534 479.515,219.2 481.5,235.5C 481.833,235.5 482.167,235.5 482.5,235.5C 482.5,236.5 482.5,237.5 482.5,238.5C 480.278,238.822 478.444,238.155 477,236.5C 476.5,220.17 476.333,203.837 476.5,187.5C 477.222,186.449 478.222,185.782 479.5,185.5 Z"/></g>
<g><path style="opacity:1" fill="#0161ae" d="M 623.5,181.5 C 626.059,181.198 628.393,181.532 630.5,182.5C 634.047,186.554 637.38,190.888 640.5,195.5C 645.715,194.253 650.715,192.92 655.5,191.5C 656.675,191.719 657.675,191.386 658.5,190.5C 661.782,188.242 663.782,185.242 664.5,181.5C 668.52,190.378 669.52,199.711 667.5,209.5C 666.5,209.5 665.5,209.5 664.5,209.5C 664.946,212.01 664.28,214.01 662.5,215.5C 662.286,213.856 662.62,212.356 663.5,211C 661.939,210.812 661.272,211.645 661.5,213.5C 660.5,213.5 659.5,213.5 658.5,213.5C 658.5,212.167 658.5,210.833 658.5,209.5C 657.5,209.5 656.5,209.5 655.5,209.5C 655.5,208.167 655.5,206.833 655.5,205.5C 652.512,205.561 649.679,204.895 647,203.5C 645.893,203.585 644.893,203.919 644,204.5C 643.385,202.884 642.385,201.551 641,200.5C 638.913,203.723 636.747,206.723 634.5,209.5C 635.314,204.881 635.647,200.214 635.5,195.5C 634.003,188.671 630.003,184.004 623.5,181.5 Z"/></g>
<g><path style="opacity:1" fill="#85c0da" d="M 650.5,167.5 C 656.127,169.238 660.627,172.572 664,177.5C 673.164,193.484 672.331,208.817 661.5,223.5C 663.95,219.042 665.95,214.376 667.5,209.5C 669.52,199.711 668.52,190.378 664.5,181.5C 663.974,179.77 662.974,178.436 661.5,177.5C 660.883,175.771 659.883,174.271 658.5,173C 655.93,170.913 653.263,169.08 650.5,167.5 Z"/></g>
<g><path style="opacity:1" fill="#0065ba" d="M 584.5,189.5 C 584.5,190.833 584.5,192.167 584.5,193.5C 583.64,197.434 583.307,201.434 583.5,205.5C 583.762,206.978 583.429,208.311 582.5,209.5C 580.5,209.5 578.5,209.5 576.5,209.5C 574.907,216.049 573.907,216.049 573.5,209.5C 572.022,209.762 570.689,209.429 569.5,208.5C 570.025,207.808 570.692,207.308 571.5,207C 567.586,204.939 563.919,205.439 560.5,208.5C 558.931,207.286 558.098,205.619 558,203.5C 557.667,206.167 557.333,208.833 557,211.5C 553.648,206.093 552.148,200.093 552.5,193.5C 557.349,193.022 562.349,193.022 567.5,193.5C 567.384,190.09 569.05,188.756 572.5,189.5C 572.5,190.833 572.5,192.167 572.5,193.5C 574.91,193.921 576.743,195.254 578,197.5C 578.605,195.519 579.605,195.185 581,196.5C 582.616,194.287 583.783,191.953 584.5,189.5 Z"/></g>
<g><path style="opacity:1" fill="#0165be" d="M 753.5,205.5 C 742.167,205.5 730.833,205.5 719.5,205.5C 719.5,204.5 719.5,203.5 719.5,202.5C 719.5,201.833 719.833,201.5 720.5,201.5C 721.833,201.5 723.167,201.5 724.5,201.5C 724.5,200.167 724.5,198.833 724.5,197.5C 733.525,197.168 742.525,197.502 751.5,198.5C 746.208,199.495 740.875,199.828 735.5,199.5C 735.5,200.833 735.5,202.167 735.5,203.5C 741.926,202.88 747.926,203.547 753.5,205.5 Z"/></g>
<g><path style="opacity:0.769" fill="#2b3039" d="M 674.5,165.5 C 675.167,166.167 675.833,166.833 676.5,167.5C 676.5,167.833 676.5,168.167 676.5,168.5C 676.163,191.019 675.163,213.352 673.5,235.5C 673.226,212.379 673.559,189.045 674.5,165.5 Z"/></g>
<g><path style="opacity:1" fill="#026399" d="M 833.5,181.5 C 833.5,181.833 833.5,182.167 833.5,182.5C 833.5,195.5 833.5,208.5 833.5,221.5C 833.167,221.5 832.833,221.5 832.5,221.5C 832.5,219.167 832.5,216.833 832.5,214.5C 832.515,204.153 832.182,193.819 831.5,183.5C 831.5,182.167 832.167,181.5 833.5,181.5 Z"/></g>
<g><path style="opacity:1" fill="#035faa" d="M 678.5,166.5 C 710.004,166.168 741.338,166.502 772.5,167.5C 742.5,167.5 712.5,167.5 682.5,167.5C 681.5,167.5 680.5,167.5 679.5,167.5C 679.739,176.221 680.572,184.888 682,193.5C 683,192.167 684,192.167 685,193.5C 685.464,192.906 685.631,192.239 685.5,191.5C 686.306,192.997 686.972,194.664 687.5,196.5C 692.792,197.495 698.125,197.828 703.5,197.5C 703.5,196.167 703.5,194.833 703.5,193.5C 705.124,193.36 706.29,194.027 707,195.5C 708,194.167 709,192.833 710,191.5C 710.499,195.821 710.666,200.154 710.5,204.5C 709.549,205.919 709.216,207.585 709.5,209.5C 699.468,209.729 689.468,209.396 679.5,208.5C 679.672,207.508 679.338,206.842 678.5,206.5C 678.5,204.167 678.5,201.833 678.5,199.5C 678.5,188.5 678.5,177.5 678.5,166.5 Z"/></g>
<g><path style="opacity:0.996" fill="#1e313e" d="M 780.5,165.5 C 787.578,168.78 791.411,174.447 792,182.5C 794.036,197.462 787.869,206.796 773.5,210.5C 773.672,209.508 773.338,208.842 772.5,208.5C 772.5,208.167 772.5,207.833 772.5,207.5C 783.46,205.703 789.46,199.203 790.5,188C 790.327,177.039 785.327,169.539 775.5,165.5C 776.935,164.904 778.602,164.904 780.5,165.5 Z"/></g>
<g><path style="opacity:0.71" fill="#271e1e" d="M 413.5,165.5 C 404.318,166.276 394.985,166.942 385.5,167.5C 384.733,174.864 384.4,182.197 384.5,189.5C 385.521,190.901 386.521,192.235 387.5,193.5C 397.167,193.5 406.833,193.5 416.5,193.5C 416.389,194.117 416.056,194.617 415.5,195C 405.833,195.333 396.167,195.667 386.5,196C 384.711,199.249 384.378,202.582 385.5,206C 384.906,206.464 384.239,206.631 383.5,206.5C 382.34,193.34 382.173,180.006 383,166.5C 393.084,165.514 403.251,165.181 413.5,165.5 Z"/></g>
<g><path style="opacity:1" fill="#0261ad" d="M 783.5,173.5 C 785.746,175.649 787.246,178.316 788,181.5C 790.85,193.414 786.683,201.414 775.5,205.5C 768.167,205.5 760.833,205.5 753.5,205.5C 747.926,203.547 741.926,202.88 735.5,203.5C 735.5,202.167 735.5,200.833 735.5,199.5C 740.875,199.828 746.208,199.495 751.5,198.5C 742.525,197.502 733.525,197.168 724.5,197.5C 724.5,198.833 724.5,200.167 724.5,201.5C 723.167,201.5 721.833,201.5 720.5,201.5C 721.543,198.944 723.21,196.777 725.5,195C 734.676,194.83 743.676,194.33 752.5,193.5C 753.167,193.5 753.833,193.5 754.5,193.5C 756.308,194.918 756.975,196.918 756.5,199.5C 760.884,199.174 765.217,199.508 769.5,200.5C 769.962,202.291 771.129,203.291 773,203.5C 773.795,202.025 775.295,201.358 777.5,201.5C 775.827,199.914 773.827,199.247 771.5,199.5C 771.5,198.167 771.5,196.833 771.5,195.5C 773.861,195.326 776.194,194.993 778.5,194.5C 778.5,196.167 778.5,197.833 778.5,199.5C 780.167,199.5 781.833,199.5 783.5,199.5C 785.628,193.696 785.961,187.696 784.5,181.5C 782.45,180.923 781.45,179.59 781.5,177.5C 783.176,176.817 783.843,175.483 783.5,173.5 Z"/></g>
<g><path style="opacity:1" fill="#0064b7" d="M 481.5,183.5 C 482.5,183.5 483.5,183.5 484.5,183.5C 484.357,185.262 484.691,186.929 485.5,188.5C 488.61,189.61 491.61,190.944 494.5,192.5C 498.929,190.716 503.596,189.716 508.5,189.5C 510.514,189.437 512.181,190.103 513.5,191.5C 513.833,191.5 514.167,191.5 514.5,191.5C 514.5,197.167 514.5,202.833 514.5,208.5C 506.414,210.063 498.081,210.397 489.5,209.5C 489.785,211.288 489.452,212.955 488.5,214.5C 486.227,213.625 485.227,211.958 485.5,209.5C 484.5,209.5 483.5,209.5 482.5,209.5C 482.5,212.833 482.5,216.167 482.5,219.5C 481.505,207.678 481.172,195.678 481.5,183.5 Z"/></g>
<g><path style="opacity:1" fill="#016cab" d="M 719.5,202.5 C 719.5,203.5 719.5,204.5 719.5,205.5C 730.833,205.5 742.167,205.5 753.5,205.5C 760.833,205.5 768.167,205.5 775.5,205.5C 774.5,206.167 773.5,206.833 772.5,207.5C 753.5,207.5 734.5,207.5 715.5,207.5C 716.124,205.246 717.457,203.579 719.5,202.5 Z"/></g>
<g><path style="opacity:0.957" fill="#21333e" d="M 597.5,183.5 C 595.969,184.925 596.302,185.591 598.5,185.5C 589.925,189.314 586.759,195.981 589,205.5C 590.72,212.613 595.22,215.613 602.5,214.5C 601.391,215.29 600.058,215.79 598.5,216C 599.056,216.383 599.389,216.883 599.5,217.5C 596.673,217.416 594.006,216.75 591.5,215.5C 589.464,212.629 587.63,209.629 586,206.5C 583.499,195.502 587.332,187.835 597.5,183.5 Z"/></g>
<g><path style="opacity:1" fill="#aae5f7" d="M 712.5,182.5 C 713.167,182.5 713.5,182.833 713.5,183.5C 713.5,190.833 713.5,198.167 713.5,205.5C 713.833,206.5 714.5,207.167 715.5,207.5C 734.5,207.5 753.5,207.5 772.5,207.5C 772.5,207.833 772.5,208.167 772.5,208.5C 752.472,207.846 732.805,208.512 713.5,210.5C 713.5,218.5 713.5,226.5 713.5,234.5C 712.833,234.5 712.5,234.167 712.5,233.5C 712.5,216.5 712.5,199.5 712.5,182.5 Z"/></g>
<g><path style="opacity:0.746" fill="#102530" d="M 772.5,208.5 C 773.338,208.842 773.672,209.508 773.5,210.5C 754.576,211.487 735.576,211.82 716.5,211.5C 715.883,211.611 715.383,211.944 715,212.5C 714.722,211.584 714.222,210.918 713.5,210.5C 732.805,208.512 752.472,207.846 772.5,208.5 Z"/></g>
<g><path style="opacity:1" fill="#007ed2" d="M 514.5,208.5 C 514.507,216.999 514.174,225.333 513.5,233.5C 512.833,233.5 512.167,233.5 511.5,233.5C 502.56,231.528 493.227,230.861 483.5,231.5C 483.167,227.5 482.833,223.5 482.5,219.5C 482.5,216.167 482.5,212.833 482.5,209.5C 483.5,209.5 484.5,209.5 485.5,209.5C 485.227,211.958 486.227,213.625 488.5,214.5C 489.452,212.955 489.785,211.288 489.5,209.5C 498.081,210.397 506.414,210.063 514.5,208.5 Z"/></g>
<g><path style="opacity:1" fill="#7ea1b0" d="M 768.5,164.5 C 768.5,164.833 768.5,165.167 768.5,165.5C 737.76,165.167 707.76,165.501 678.5,166.5C 678.5,177.5 678.5,188.5 678.5,199.5C 677.505,211.322 677.172,223.322 677.5,235.5C 676.503,213.34 676.169,191.006 676.5,168.5C 676.5,168.167 676.5,167.833 676.5,167.5C 676.5,166.5 676.5,165.5 676.5,164.5C 707.167,164.5 737.833,164.5 768.5,164.5 Z"/></g>
<g><path style="opacity:0.907" fill="#142229" d="M 108.5,163.5 C 109.097,163.735 109.43,164.235 109.5,165C 106.766,171.8 103.766,178.467 100.5,185C 90.8391,185.5 81.1724,185.666 71.5,185.5C 71.5,202.833 71.5,220.167 71.5,237.5C 57.445,237.77 43.445,237.77 29.5,237.5C 28.1721,217.337 28.1721,197.337 29.5,177.5C 30.2216,177.082 30.7216,176.416 31,175.5C 31.3988,175.728 31.5654,176.062 31.5,176.5C 30.1974,196.307 30.1974,215.973 31.5,235.5C 43.8333,235.5 56.1667,235.5 68.5,235.5C 68.5,218.167 68.5,200.833 68.5,183.5C 78.8548,183.832 89.1881,183.499 99.5,182.5C 101.869,177.104 104.202,171.771 106.5,166.5C 106.5,166.167 106.5,165.833 106.5,165.5C 85.0039,164.668 63.3372,164.168 41.5,164C 63.8308,163.5 86.1642,163.333 108.5,163.5 Z"/></g>
<g><path style="opacity:1" fill="#00639f" d="M 67.5,181.5 C 67.5,181.833 67.5,182.167 67.5,182.5C 67.5,191.5 67.5,200.5 67.5,209.5C 66.5386,211.265 66.2053,213.265 66.5,215.5C 65.5386,213.735 65.2053,211.735 65.5,209.5C 65.5,206.833 65.5,204.167 65.5,201.5C 65.5,195.5 65.5,189.5 65.5,183.5C 65.5,182.167 66.1667,181.5 67.5,181.5 Z"/></g>
<g><path style="opacity:1" fill="#006bbf" d="M 34.5,188.5 C 34.5,190.167 34.5,191.833 34.5,193.5C 35.8333,193.5 37.1667,193.5 38.5,193.5C 39.1499,193.196 39.8165,192.863 40.5,192.5C 41.3236,195.785 41.8236,199.118 42,202.5C 47.7512,201.69 53.5845,201.19 59.5,201C 62.4085,198.169 64.4085,198.335 65.5,201.5C 65.5,204.167 65.5,206.833 65.5,209.5C 63.1667,209.5 60.8333,209.5 58.5,209.5C 58.5,210.833 58.5,212.167 58.5,213.5C 52.0404,212.903 45.8737,213.57 40,215.5C 38.6914,213.109 37.6914,213.109 37,215.5C 36.9977,212.949 36.1644,210.949 34.5,209.5C 33.5269,207.052 33.1936,204.385 33.5,201.5C 33.1818,196.968 33.5151,192.634 34.5,188.5 Z"/></g>
<g><path style="opacity:1" fill="#0059ad" d="M 45.5,182.5 C 52.109,183.423 58.7756,183.756 65.5,183.5C 65.5,189.5 65.5,195.5 65.5,201.5C 64.4085,198.335 62.4085,198.169 59.5,201C 53.5845,201.19 47.7512,201.69 42,202.5C 41.8236,199.118 41.3236,195.785 40.5,192.5C 39.8165,192.863 39.1499,193.196 38.5,193.5C 38.2601,190.421 38.5934,187.421 39.5,184.5C 41.6309,183.831 43.6309,183.165 45.5,182.5 Z"/></g>
<g><path style="opacity:1" fill="#003d9b" d="M 47.5,175.5 C 64.1667,175.5 80.8333,175.5 97.5,175.5C 97.6602,177.199 97.4935,178.866 97,180.5C 85.8945,179.843 74.7278,179.177 63.5,178.5C 57.7706,178.134 52.4373,177.134 47.5,175.5 Z"/></g>
<g><path style="opacity:1" fill="#3ab6d6" d="M 515.5,181.5 C 515.833,181.5 516.167,181.5 516.5,181.5C 516.173,191.015 516.506,200.348 517.5,209.5C 517.5,218.167 517.5,226.833 517.5,235.5C 506.833,235.5 496.167,235.5 485.5,235.5C 484.5,235.5 483.5,235.5 482.5,235.5C 482.167,235.5 481.833,235.5 481.5,235.5C 481.5,234.833 481.5,234.167 481.5,233.5C 491.5,233.5 501.5,233.5 511.5,233.5C 512.167,233.5 512.833,233.5 513.5,233.5C 515.486,216.532 516.153,199.199 515.5,181.5 Z"/></g>
<g><path style="opacity:1" fill="#59c1d9" d="M 554.5,179.5 C 553.545,181.746 552.878,184.079 552.5,186.5C 551.778,186.918 551.278,187.584 551,188.5C 550.333,195.5 550.333,202.5 551,209.5C 552.616,216.509 555.783,221.842 560.5,225.5C 560.5,226.833 561.167,227.5 562.5,227.5C 564.8,230.324 567.8,232.157 571.5,233C 596.833,233.667 622.167,233.667 647.5,233C 649.727,232.059 651.727,230.892 653.5,229.5C 654.5,229.167 655.167,228.5 655.5,227.5C 657.05,226.559 658.716,225.893 660.5,225.5C 658.208,228.305 655.541,230.638 652.5,232.5C 650.233,233.423 647.9,234.256 645.5,235C 621.169,235.5 596.836,235.667 572.5,235.5C 554.138,227.709 546.304,213.709 549,193.5C 549.193,188.071 551.026,183.404 554.5,179.5 Z"/></g>
<g><path style="opacity:1" fill="#14181f" d="M 676.5,168.5 C 676.169,191.006 676.503,213.34 677.5,235.5C 686.167,235.5 694.833,235.5 703.5,235.5C 694.021,236.698 684.354,237.364 674.5,237.5C 674.167,236.833 673.833,236.167 673.5,235.5C 675.163,213.352 676.163,191.019 676.5,168.5 Z"/></g>
<g><path style="opacity:1" fill="#007ed2" d="M 710.5,204.5 C 710.5,213.5 710.5,222.5 710.5,231.5C 700.5,231.5 690.5,231.5 680.5,231.5C 680.799,223.747 680.466,216.08 679.5,208.5C 689.468,209.396 699.468,209.729 709.5,209.5C 709.216,207.585 709.549,205.919 710.5,204.5 Z"/></g>
<g><path style="opacity:1" fill="#0273b1" d="M 552.5,186.5 C 552.5,188.833 552.5,191.167 552.5,193.5C 551.239,199.379 551.406,205.379 553,211.5C 553.667,212.833 554.333,212.833 555,211.5C 556.691,214.607 557.858,217.941 558.5,221.5C 558.489,220.559 558.989,219.892 560,219.5C 562.032,220.698 563.532,222.365 564.5,224.5C 563.311,225.429 561.978,225.762 560.5,225.5C 555.783,221.842 552.616,216.509 551,209.5C 550.333,202.5 550.333,195.5 551,188.5C 551.278,187.584 551.778,186.918 552.5,186.5 Z"/></g>
<g><path style="opacity:0.114" fill="#11303e" d="M 623.5,184.5 C 629.497,185.83 633.164,189.497 634.5,195.5C 636.354,208.286 631.021,215.619 618.5,217.5C 618.5,216.5 618.5,215.5 618.5,214.5C 624.962,214.84 629.129,211.84 631,205.5C 631.81,200.743 631.476,196.076 630,191.5C 628.143,188.8 625.643,187.134 622.5,186.5C 622.833,185.833 623.167,185.167 623.5,184.5 Z"/></g>
<g><path style="opacity:1" fill="#a4e5f8" d="M 480.5,182.5 C 480.17,199.675 480.503,216.675 481.5,233.5C 481.5,234.167 481.5,234.833 481.5,235.5C 479.515,219.2 478.848,202.534 479.5,185.5C 479.5,184.833 479.5,184.167 479.5,183.5C 479.5,182.833 479.833,182.5 480.5,182.5 Z"/></g>
<g><path style="opacity:1" fill="#0070ab" d="M 515.5,181.5 C 516.153,199.199 515.486,216.532 513.5,233.5C 514.174,225.333 514.507,216.999 514.5,208.5C 514.5,202.833 514.5,197.167 514.5,191.5C 514.187,187.958 514.521,184.625 515.5,181.5 Z"/></g>
<g><path style="opacity:1" fill="#57bedc" d="M 634.5,195.5 C 634.833,195.5 635.167,195.5 635.5,195.5C 635.647,200.214 635.314,204.881 634.5,209.5C 632.111,214.045 628.444,217.212 623.5,219C 613.455,219.831 603.455,219.498 593.5,218C 592.619,217.292 591.953,216.458 591.5,215.5C 594.006,216.75 596.673,217.416 599.5,217.5C 605.833,217.5 612.167,217.5 618.5,217.5C 631.021,215.619 636.354,208.286 634.5,195.5 Z"/></g>
<g><path style="opacity:1" fill="#16242e" d="M 473.5,162.5 C 501.502,162.333 529.502,162.5 557.5,163C 557.957,163.414 558.291,163.914 558.5,164.5C 556.902,166.698 555.569,169.031 554.5,171.5C 551.661,175.173 549.328,179.173 547.5,183.5C 547.5,183.833 547.5,184.167 547.5,184.5C 538.584,185.471 529.584,185.804 520.5,185.5C 520.667,202.837 520.5,220.17 520,237.5C 515.599,238.467 511.099,238.8 506.5,238.5C 499.274,238.151 492.274,237.151 485.5,235.5C 496.167,235.5 506.833,235.5 517.5,235.5C 517.5,226.833 517.5,218.167 517.5,209.5C 517.5,200.833 517.5,192.167 517.5,183.5C 526.857,183.832 536.19,183.498 545.5,182.5C 548.195,177.483 550.862,172.483 553.5,167.5C 553.804,166.85 554.137,166.183 554.5,165.5C 550.893,164.511 547.226,164.177 543.5,164.5C 520.167,163.833 496.833,163.167 473.5,162.5 Z"/></g>
<g><path style="opacity:1" fill="#578aa1" d="M 797.5,179.5 C 796.846,198.197 797.513,216.53 799.5,234.5C 799.5,234.833 799.5,235.167 799.5,235.5C 798.5,235.5 797.5,235.5 796.5,235.5C 796.17,216.659 796.503,197.993 797.5,179.5 Z"/></g>
<g><path style="opacity:0.682" fill="#13303d" d="M 555.5,176.5 C 554.89,177.391 554.557,178.391 554.5,179.5C 551.026,183.404 549.193,188.071 549,193.5C 546.304,213.709 554.138,227.709 572.5,235.5C 571.833,235.5 571.5,235.833 571.5,236.5C 558.452,232.614 550.285,223.947 547,210.5C 546.5,203.508 546.334,196.508 546.5,189.5C 548.737,185.35 550.903,181.016 553,176.5C 553.977,175.226 554.811,175.226 555.5,176.5 Z"/></g>
<g><path style="opacity:1" fill="#1484be" d="M 667.5,209.5 C 665.95,214.376 663.95,219.042 661.5,223.5C 661.672,224.492 661.338,225.158 660.5,225.5C 658.716,225.893 657.05,226.559 655.5,227.5C 655.555,223.818 656.555,220.485 658.5,217.5C 660.199,217.473 661.533,216.806 662.5,215.5C 664.28,214.01 664.946,212.01 664.5,209.5C 665.5,209.5 666.5,209.5 667.5,209.5 Z"/></g>
<g><path style="opacity:0.992" fill="#261e14" d="M 837.5,194.5 C 837.829,209.01 837.496,223.343 836.5,237.5C 834.821,237.715 833.821,237.048 833.5,235.5C 834.338,235.158 834.672,234.492 834.5,233.5C 835.331,220.34 835.831,207.006 836,193.5C 836.383,194.056 836.883,194.389 837.5,194.5 Z"/></g>
<g><path style="opacity:1" fill="#81ceed" d="M 800.5,172.5 C 799.962,174.117 799.629,175.784 799.5,177.5C 798.167,196.167 798.167,214.833 799.5,233.5C 799.5,233.833 799.5,234.167 799.5,234.5C 797.513,216.53 796.846,198.197 797.5,179.5C 797.552,176.654 798.552,174.32 800.5,172.5 Z"/></g>
<g><path style="opacity:1" fill="#140a06" d="M 107.5,208.5 C 104.666,213.168 102.666,218.168 101.5,223.5C 111.316,223.455 121.15,223.455 131,223.5C 132.205,222.929 133.372,222.262 134.5,221.5C 141.651,206.531 148.817,191.531 156,176.5C 156.689,175.643 157.522,174.977 158.5,174.5C 165.286,190.739 172.619,206.739 180.5,222.5C 191.135,223.81 201.802,223.81 212.5,222.5C 211.427,219.356 210.093,216.356 208.5,213.5C 210.371,213.859 211.871,214.859 213,216.5C 213.974,214.122 214.641,214.456 215,217.5C 215.305,215.443 215.305,213.443 215,211.5C 216.924,215.017 218.591,218.684 220,222.5C 220.483,221.552 220.649,220.552 220.5,219.5C 222.619,219.532 223.952,218.532 224.5,216.5C 226.071,218.635 227.404,220.968 228.5,223.5C 226.265,224.248 226.598,225.081 229.5,226C 235.5,226.333 241.5,226.667 247.5,227C 226.167,227.667 226.167,228.333 247.5,229C 241.309,229.272 235.143,229.772 229,230.5C 225.892,229.669 226.059,228.836 229.5,228C 217.14,224.701 204.474,224.034 191.5,226C 196.833,226.333 202.167,226.667 207.5,227C 186.167,227.667 186.167,228.333 207.5,229C 198.964,229.79 190.464,229.623 182,228.5C 180.743,228.85 180.409,229.517 181,230.5C 181.333,230.167 181.667,229.833 182,229.5C 185.076,230.288 188.242,230.788 191.5,231C 188.774,231.182 186.107,231.682 183.5,232.5C 211.816,233.907 240.149,234.574 268.5,234.5C 268.555,225.124 268.555,215.957 268.5,207C 275.114,206.185 281.614,205.018 288,203.5C 288.833,204.333 289.667,205.167 290.5,206C 289.584,206.278 288.918,206.778 288.5,207.5C 282.5,207.5 276.5,207.5 270.5,207.5C 270.5,217.167 270.5,226.833 270.5,236.5C 237.832,236.667 205.165,236.5 172.5,236C 167.407,225.56 162.407,215.06 157.5,204.5C 151.93,214.896 146.597,225.396 141.5,236C 121.5,236.667 101.5,236.667 81.5,236C 81.0426,235.586 80.7093,235.086 80.5,234.5C 83.321,228.674 86.321,223.007 89.5,217.5C 91.0443,217.297 92.3777,216.63 93.5,215.5C 94.086,215.709 94.586,216.043 95,216.5C 95.1177,213.629 95.7844,210.962 97,208.5C 97.805,210.901 98.6383,210.734 99.5,208C 98.4464,206.612 98.2797,205.112 99,203.5C 99.8928,204.711 100.726,204.711 101.5,203.5C 102.355,200.433 103.688,197.6 105.5,195C 105.389,193.278 104.889,193.112 104,194.5C 104.366,190.926 105.866,190.593 108.5,193.5C 107.572,194.768 107.405,196.101 108,197.5C 108.837,195.649 109.671,193.816 110.5,192C 109.833,191.667 109.167,191.333 108.5,191C 109.573,189.75 109.573,188.416 108.5,187C 108.667,186.5 108.833,186 109,185.5C 109.308,186.308 109.808,186.975 110.5,187.5C 110.883,182.872 112.05,178.538 114,174.5C 115.113,175.76 115.28,176.927 114.5,178C 115.483,178.591 116.15,178.257 116.5,177C 114.803,173.274 115.47,170.108 118.5,167.5C 117.833,167.167 117.167,166.833 116.5,166.5C 119.817,159.732 122.317,160.066 124,167.5C 124.654,166.304 125.154,166.304 125.5,167.5C 124.687,168.814 123.687,169.981 122.5,171C 122.957,171.414 123.291,171.914 123.5,172.5C 122.817,175.461 121.984,175.795 121,173.5C 120.333,176.167 119.667,178.833 119,181.5C 118.667,180.5 118.333,179.5 118,178.5C 117.451,184.05 115.951,189.05 113.5,193.5C 112.325,193.281 111.325,193.614 110.5,194.5C 110.694,196.403 110.694,198.237 110.5,200C 109.747,201.487 108.914,201.654 108,200.5C 107.627,202.698 107.127,204.865 106.5,207C 106.57,207.765 106.903,208.265 107.5,208.5 Z"/></g>
<g><path style="opacity:1" fill="#0080d4" d="M 552.5,193.5 C 552.148,200.093 553.648,206.093 557,211.5C 557.333,208.833 557.667,206.167 558,203.5C 558.098,205.619 558.931,207.286 560.5,208.5C 563.919,205.439 567.586,204.939 571.5,207C 570.692,207.308 570.025,207.808 569.5,208.5C 570.689,209.429 572.022,209.762 573.5,209.5C 573.907,216.049 574.907,216.049 576.5,209.5C 578.5,209.5 580.5,209.5 582.5,209.5C 583.429,208.311 583.762,206.978 583.5,205.5C 584.461,207.265 584.795,209.265 584.5,211.5C 585.446,213.132 586.446,214.799 587.5,216.5C 586.066,220.356 587.066,221.189 590.5,219C 589.304,218.346 589.304,217.846 590.5,217.5C 593.066,218.964 595.733,220.131 598.5,221C 607.215,221.804 615.882,221.637 624.5,220.5C 627.124,221.076 627.791,222.41 626.5,224.5C 614.833,225.167 603.167,225.833 591.5,226.5C 608.5,227.833 625.5,227.833 642.5,226.5C 642.709,225.914 643.043,225.414 643.5,225C 641.833,224.667 640.167,224.333 638.5,224C 639.576,222.274 639.743,220.441 639,218.5C 636.796,221.202 633.963,222.035 630.5,221C 631.744,217.1 633.077,213.267 634.5,209.5C 636.747,206.723 638.913,203.723 641,200.5C 642.385,201.551 643.385,202.884 644,204.5C 644.893,203.919 645.893,203.585 647,203.5C 649.679,204.895 652.512,205.561 655.5,205.5C 655.5,206.833 655.5,208.167 655.5,209.5C 656.5,209.5 657.5,209.5 658.5,209.5C 658.5,210.833 658.5,212.167 658.5,213.5C 659.5,213.5 660.5,213.5 661.5,213.5C 661.272,211.645 661.939,210.812 663.5,211C 662.62,212.356 662.286,213.856 662.5,215.5C 661.533,216.806 660.199,217.473 658.5,217.5C 656.555,220.485 655.555,223.818 655.5,227.5C 655.167,228.5 654.5,229.167 653.5,229.5C 626.218,231.687 598.885,232.021 571.5,230.5C 572.276,228.644 573.609,227.311 575.5,226.5C 574.5,226.167 573.5,225.833 572.5,225.5C 569.399,227.019 566.066,227.685 562.5,227.5C 561.167,227.5 560.5,226.833 560.5,225.5C 561.978,225.762 563.311,225.429 564.5,224.5C 563.532,222.365 562.032,220.698 560,219.5C 558.989,219.892 558.489,220.559 558.5,221.5C 557.858,217.941 556.691,214.607 555,211.5C 554.333,212.833 553.667,212.833 553,211.5C 551.406,205.379 551.239,199.379 552.5,193.5 Z"/></g>
<g><path style="opacity:1" fill="#0186cb" d="M 634.5,209.5 C 633.077,213.267 631.744,217.1 630.5,221C 633.963,222.035 636.796,221.202 639,218.5C 639.743,220.441 639.576,222.274 638.5,224C 640.167,224.333 641.833,224.667 643.5,225C 643.043,225.414 642.709,225.914 642.5,226.5C 625.5,227.833 608.5,227.833 591.5,226.5C 603.167,225.833 614.833,225.167 626.5,224.5C 627.791,222.41 627.124,221.076 624.5,220.5C 615.882,221.637 607.215,221.804 598.5,221C 595.733,220.131 593.066,218.964 590.5,217.5C 589.304,217.846 589.304,218.346 590.5,219C 587.066,221.189 586.066,220.356 587.5,216.5C 586.446,214.799 585.446,213.132 584.5,211.5C 585.117,211.389 585.617,211.056 586,210.5C 587.076,213.079 588.909,214.746 591.5,215.5C 591.953,216.458 592.619,217.292 593.5,218C 603.455,219.498 613.455,219.831 623.5,219C 628.444,217.212 632.111,214.045 634.5,209.5 Z"/></g>
<g><path style="opacity:0.74" fill="#352532" d="M 602.5,214.5 C 607.878,215.37 613.211,215.37 618.5,214.5C 618.5,215.5 618.5,216.5 618.5,217.5C 612.167,217.5 605.833,217.5 599.5,217.5C 599.389,216.883 599.056,216.383 598.5,216C 600.058,215.79 601.391,215.29 602.5,214.5 Z"/></g>
<g><path style="opacity:1" fill="#0082d5" d="M 832.5,214.5 C 832.5,216.833 832.5,219.167 832.5,221.5C 832.5,222.833 832.5,224.167 832.5,225.5C 820.5,226.167 820.5,226.833 832.5,227.5C 832.5,228.833 832.5,230.167 832.5,231.5C 821.5,231.5 810.5,231.5 799.5,231.5C 799.5,224.167 799.5,216.833 799.5,209.5C 800.222,209.918 800.722,210.584 801,211.5C 810.622,209.82 820.456,208.82 830.5,208.5C 831.169,210.631 831.835,212.631 832.5,214.5 Z"/></g>
<g><path style="opacity:1" fill="#018abf" d="M 32.5,201.5 C 32.8333,201.5 33.1667,201.5 33.5,201.5C 33.1936,204.385 33.5269,207.052 34.5,209.5C 34.5,216.833 34.5,224.167 34.5,231.5C 45.1667,231.5 55.8333,231.5 66.5,231.5C 66.5,226.167 66.5,220.833 66.5,215.5C 66.2053,213.265 66.5386,211.265 67.5,209.5C 67.5,217.5 67.5,225.5 67.5,233.5C 55.8333,233.5 44.1667,233.5 32.5,233.5C 32.5,223.5 32.5,213.5 32.5,203.5C 32.5,202.833 32.5,202.167 32.5,201.5 Z"/></g>
<g><path style="opacity:1" fill="#0190c5" d="M 480.5,181.5 C 481.338,181.842 481.672,182.508 481.5,183.5C 481.172,195.678 481.505,207.678 482.5,219.5C 482.833,223.5 483.167,227.5 483.5,231.5C 493.227,230.861 502.56,231.528 511.5,233.5C 501.5,233.5 491.5,233.5 481.5,233.5C 480.503,216.675 480.17,199.675 480.5,182.5C 480.5,182.167 480.5,181.833 480.5,181.5 Z"/></g>
<g><path style="opacity:1" fill="#0191ca" d="M 653.5,229.5 C 651.727,230.892 649.727,232.059 647.5,233C 622.167,233.667 596.833,233.667 571.5,233C 567.8,232.157 564.8,230.324 562.5,227.5C 566.066,227.685 569.399,227.019 572.5,225.5C 573.5,225.833 574.5,226.167 575.5,226.5C 573.609,227.311 572.276,228.644 571.5,230.5C 598.885,232.021 626.218,231.687 653.5,229.5 Z"/></g>
<g><path style="opacity:1" fill="#0286be" d="M 799.5,177.5 C 799.5,179.5 799.5,181.5 799.5,183.5C 799.5,192.167 799.5,200.833 799.5,209.5C 799.5,216.833 799.5,224.167 799.5,231.5C 810.5,231.5 821.5,231.5 832.5,231.5C 832.5,230.167 832.5,228.833 832.5,227.5C 820.5,226.833 820.5,226.167 832.5,225.5C 832.5,224.167 832.5,222.833 832.5,221.5C 832.833,221.5 833.167,221.5 833.5,221.5C 833.5,225.5 833.5,229.5 833.5,233.5C 822.167,233.5 810.833,233.5 799.5,233.5C 798.167,214.833 798.167,196.167 799.5,177.5 Z"/></g>
<g><path style="opacity:1" fill="#170c09" d="M 350.5,221.5 C 351.609,222.29 352.942,222.79 354.5,223C 369.333,223.167 384.167,223.333 399,223.5C 415.542,223.629 432.042,223.129 448.5,222C 456.982,217.879 460.982,211.046 460.5,201.5C 460.72,195.992 459.053,191.158 455.5,187C 449.167,186.667 442.833,186.333 436.5,186C 435.944,185.617 435.611,185.117 435.5,184.5C 437.415,184.784 439.081,184.451 440.5,183.5C 453.5,183.5 466.5,183.5 479.5,183.5C 479.5,184.167 479.5,184.833 479.5,185.5C 478.222,185.782 477.222,186.449 476.5,187.5C 476.631,186.761 476.464,186.094 476,185.5C 474.887,186.711 473.72,186.711 472.5,185.5C 472.167,186 471.833,186.5 471.5,187C 473.466,192.328 474.466,197.828 474.5,203.5C 473.467,200.014 472.633,196.347 472,192.5C 471.615,196.461 471.782,200.128 472.5,203.5C 471.976,205.383 471.309,207.216 470.5,209C 470.973,212.291 470.14,215.458 468,218.5C 467.667,217.833 467.333,217.167 467,216.5C 466.691,217.766 466.191,218.933 465.5,220C 466.34,221.666 465.84,221.833 464,220.5C 464.443,224.731 462.276,226.898 457.5,227C 459.946,228.483 459.612,229.649 456.5,230.5C 455.5,229.833 454.5,229.167 453.5,228.5C 451.808,230.359 450.308,232.359 449,234.5C 395.861,234.033 342.694,234.033 289.5,234.5C 289.5,233.167 289.5,231.833 289.5,230.5C 290.117,230.611 290.617,230.944 291,231.5C 291.172,225.319 291.672,219.319 292.5,213.5C 292.5,217.5 292.5,221.5 292.5,225.5C 296.782,225.757 300.116,227.757 302.5,231.5C 303.833,230.167 305.167,228.833 306.5,227.5C 315.973,229.438 325.64,230.105 335.5,229.5C 335.5,228.5 335.5,227.5 335.5,226.5C 337.527,226.338 339.527,226.505 341.5,227C 340.167,227.333 338.833,227.667 337.5,228C 339.81,228.497 342.143,228.663 344.5,228.5C 345.372,222.211 345.705,215.878 345.5,209.5C 346.5,209.5 347.5,209.5 348.5,209.5C 348.333,193.497 348.5,177.497 349,161.5C 349.168,181.671 349.668,201.671 350.5,221.5 Z"/></g>
<g><path style="opacity:1" fill="#140906" d="M 416.5,193.5 C 426.785,191.761 430.618,195.761 428,205.5C 427.097,206.701 425.931,207.535 424.5,208C 411.167,208.667 397.833,208.667 384.5,208C 383.944,207.617 383.611,207.117 383.5,206.5C 384.239,206.631 384.906,206.464 385.5,206C 384.378,202.582 384.711,199.249 386.5,196C 396.167,195.667 405.833,195.333 415.5,195C 416.056,194.617 416.389,194.117 416.5,193.5 Z"/></g>
<g><path style="opacity:1" fill="#0286bd" d="M 711.5,181.5 C 711.833,181.5 712.167,181.5 712.5,181.5C 712.5,181.833 712.5,182.167 712.5,182.5C 712.5,199.5 712.5,216.5 712.5,233.5C 701.167,233.5 689.833,233.5 678.5,233.5C 678.5,224.5 678.5,215.5 678.5,206.5C 679.338,206.842 679.672,207.508 679.5,208.5C 680.466,216.08 680.799,223.747 680.5,231.5C 690.5,231.5 700.5,231.5 710.5,231.5C 710.5,222.5 710.5,213.5 710.5,204.5C 711.492,197.018 711.825,189.352 711.5,181.5 Z"/></g>
<g><path style="opacity:1" fill="#55cfe8" d="M 67.5,182.5 C 68.1667,182.5 68.5,182.833 68.5,183.5C 68.5,200.833 68.5,218.167 68.5,235.5C 56.1667,235.5 43.8333,235.5 31.5,235.5C 31.1722,224.654 31.5056,213.987 32.5,203.5C 32.5,213.5 32.5,223.5 32.5,233.5C 44.1667,233.5 55.8333,233.5 67.5,233.5C 67.5,225.5 67.5,217.5 67.5,209.5C 67.5,200.5 67.5,191.5 67.5,182.5 Z"/></g>
<g><path style="opacity:1" fill="#0083d5" d="M 34.5,209.5 C 36.1644,210.949 36.9977,212.949 37,215.5C 37.6914,213.109 38.6914,213.109 40,215.5C 45.8737,213.57 52.0404,212.903 58.5,213.5C 58.5,212.167 58.5,210.833 58.5,209.5C 60.8333,209.5 63.1667,209.5 65.5,209.5C 65.2053,211.735 65.5386,213.735 66.5,215.5C 66.5,220.833 66.5,226.167 66.5,231.5C 55.8333,231.5 45.1667,231.5 34.5,231.5C 34.5,224.167 34.5,216.833 34.5,209.5 Z"/></g>
<g><path style="opacity:0.522" fill="#020000" d="M 474.5,203.5 C 472.589,219.895 463.923,230.728 448.5,236C 395.833,236.667 343.167,236.667 290.5,236C 289.944,235.617 289.611,235.117 289.5,234.5C 342.694,234.033 395.861,234.033 449,234.5C 450.308,232.359 451.808,230.359 453.5,228.5C 454.5,229.167 455.5,229.833 456.5,230.5C 459.612,229.649 459.946,228.483 457.5,227C 462.276,226.898 464.443,224.731 464,220.5C 465.84,221.833 466.34,221.666 465.5,220C 466.191,218.933 466.691,217.766 467,216.5C 467.333,217.167 467.667,217.833 468,218.5C 470.14,215.458 470.973,212.291 470.5,209C 471.309,207.216 471.976,205.383 472.5,203.5C 471.782,200.128 471.615,196.461 472,192.5C 472.633,196.347 473.467,200.014 474.5,203.5 Z"/></g>
<g><path style="opacity:1" fill="#2bbcd5" d="M 678.5,199.5 C 678.5,201.833 678.5,204.167 678.5,206.5C 678.5,215.5 678.5,224.5 678.5,233.5C 689.833,233.5 701.167,233.5 712.5,233.5C 712.5,234.167 712.833,234.5 713.5,234.5C 710.375,235.479 707.042,235.813 703.5,235.5C 694.833,235.5 686.167,235.5 677.5,235.5C 677.172,223.322 677.505,211.322 678.5,199.5 Z"/></g>
<g><path style="opacity:1" fill="#50cae1" d="M 833.5,182.5 C 834.167,182.5 834.5,182.833 834.5,183.5C 834.5,200.167 834.5,216.833 834.5,233.5C 834.672,234.492 834.338,235.158 833.5,235.5C 827.5,235.5 821.5,235.5 815.5,235.5C 814.833,235.5 814.167,235.5 813.5,235.5C 808.833,235.5 804.167,235.5 799.5,235.5C 799.5,235.167 799.5,234.833 799.5,234.5C 799.5,234.167 799.5,233.833 799.5,233.5C 810.833,233.5 822.167,233.5 833.5,233.5C 833.5,229.5 833.5,225.5 833.5,221.5C 833.5,208.5 833.5,195.5 833.5,182.5 Z"/></g>
<g><path style="opacity:0.493" fill="#192530" d="M 652.5,232.5 C 652.328,233.492 652.662,234.158 653.5,234.5C 651.723,235.6 649.723,236.434 647.5,237C 643.805,237.318 640.138,237.818 636.5,238.5C 618.496,238.446 600.496,238.446 582.5,238.5C 578.697,237.896 575.031,237.23 571.5,236.5C 571.5,235.833 571.833,235.5 572.5,235.5C 596.836,235.667 621.169,235.5 645.5,235C 647.9,234.256 650.233,233.423 652.5,232.5 Z"/></g>
<g><path style="opacity:0.647" fill="#14353e" d="M 713.5,210.5 C 714.222,210.918 714.722,211.584 715,212.5C 715.383,211.944 715.883,211.611 716.5,211.5C 716.817,220.418 716.484,229.251 715.5,238C 701.687,238.134 688.021,237.967 674.5,237.5C 684.354,237.364 694.021,236.698 703.5,235.5C 707.042,235.813 710.375,235.479 713.5,234.5C 713.5,226.5 713.5,218.5 713.5,210.5 Z"/></g>
<g><path style="opacity:0.552" fill="#232230" d="M 815.5,235.5 C 821.5,235.5 827.5,235.5 833.5,235.5C 833.821,237.048 834.821,237.715 836.5,237.5C 832.366,238.485 828.032,238.818 823.5,238.5C 820.523,238.098 817.857,237.098 815.5,235.5 Z"/></g>
<g><path style="opacity:0.012" fill="#004948" d="M 482.5,235.5 C 483.5,235.5 484.5,235.5 485.5,235.5C 492.274,237.151 499.274,238.151 506.5,238.5C 498.5,238.5 490.5,238.5 482.5,238.5C 482.5,237.5 482.5,236.5 482.5,235.5 Z"/></g>
<g><path style="opacity:0.016" fill="#004242" d="M 813.5,235.5 C 814.167,235.5 814.833,235.5 815.5,235.5C 817.857,237.098 820.523,238.098 823.5,238.5C 814.318,238.827 805.318,238.493 796.5,237.5C 802.598,238.117 808.265,237.45 813.5,235.5 Z"/></g>
<g><path style="opacity:0.597" fill="#010102" d="M 411.5,250.5 C 454.665,251.333 497.998,251.833 541.5,252C 387.5,252.333 233.5,252.667 79.5,253C 339.069,253.833 598.569,253.666 858,252.5C 858.464,253.094 858.631,253.761 858.5,254.5C 583.334,255.666 308,255.833 32.5,255C 31.1667,253.667 31.1667,252.333 32.5,251C 158.833,250.5 285.166,250.333 411.5,250.5 Z"/></g>
<g><path style="opacity:0.999" fill="#0a0b0c" d="M 411.5,250.5 C 560.5,250.333 709.5,250.5 858.5,251C 859.791,252.292 859.791,253.458 858.5,254.5C 858.631,253.761 858.464,253.094 858,252.5C 598.569,253.666 339.069,253.833 79.5,253C 233.5,252.667 387.5,252.333 541.5,252C 497.998,251.833 454.665,251.333 411.5,250.5 Z"/></g>
<g><path style="opacity:0.845" fill="#060809" d="M 90.5,272.5 C 104.054,271.885 110.221,278.218 109,291.5C 107.402,296.099 104.235,298.932 99.5,300C 85.2506,302.646 78.4173,296.813 79,282.5C 81.2099,277.112 85.0432,273.779 90.5,272.5 Z M 90.5,277.5 C 100.157,276.658 103.99,280.991 102,290.5C 98.5638,295.827 94.0638,296.827 88.5,293.5C 84.1725,287.476 84.8391,282.143 90.5,277.5 Z"/></g>
<g><path style="opacity:0.744" fill="#050606" d="M 278.5,273.5 C 285.615,273.075 292.615,273.575 299.5,275C 304.403,278.272 304.737,281.939 300.5,286C 305.951,290.754 305.617,295.087 299.5,299C 292.523,300.566 285.523,300.732 278.5,299.5C 277.169,290.803 277.169,282.137 278.5,273.5 Z M 283.5,278.5 C 287.514,278.334 291.514,278.501 295.5,279C 296.925,280.714 296.592,282.047 294.5,283C 290.848,283.499 287.182,283.665 283.5,283.5C 283.5,281.833 283.5,280.167 283.5,278.5 Z M 284.5,288.5 C 288.509,288.858 292.509,289.358 296.5,290C 297.972,293.552 296.638,295.218 292.5,295C 289.833,295.667 287.167,295.667 284.5,295C 283.232,292.837 283.232,290.67 284.5,288.5 Z"/></g>
<g><path style="opacity:0.744" fill="#050606" d="M 336.5,272.5 C 341.248,272.275 345.915,272.775 350.5,274C 351.333,274.833 352.167,275.667 353,276.5C 354.146,283.597 354.98,290.764 355.5,298C 354.591,300.319 352.925,300.986 350.5,300C 349.333,299.5 348.5,298.667 348,297.5C 342.845,300.305 337.345,301.138 331.5,300C 324.888,296.937 323.888,292.604 328.5,287C 333.907,284.708 339.574,283.374 345.5,283C 348.003,281.451 348.003,279.784 345.5,278C 342.5,277.333 339.5,277.333 336.5,278C 334.556,279.42 332.723,280.92 331,282.5C 325.736,280.901 325.57,278.401 330.5,275C 332.611,274.155 334.611,273.322 336.5,272.5 Z M 345.5,287.5 C 348.236,290.929 347.236,293.429 342.5,295C 339.833,295.667 337.167,295.667 334.5,295C 331.833,293.333 331.833,291.667 334.5,290C 338.347,289.367 342.014,288.533 345.5,287.5 Z"/></g>
<g><path style="opacity:0.808" fill="#050607" d="M 520.5,272.5 C 534.06,271.234 540.56,277.234 540,290.5C 538.924,294.146 536.757,296.98 533.5,299C 516.379,304.062 508.546,297.896 510,280.5C 512.806,276.853 516.306,274.186 520.5,272.5 Z M 521.5,277.5 C 530.306,276.805 534.139,280.805 533,289.5C 528.47,296.588 523.137,297.255 517,291.5C 515.309,285.61 516.809,280.944 521.5,277.5 Z"/></g>
<g><path style="opacity:0.709" fill="#020202" d="M 564.5,273.5 C 567.572,273.183 570.572,273.516 573.5,274.5C 576.276,280.385 578.776,286.385 581,292.5C 583.498,286.005 586.664,279.838 590.5,274C 593.146,273.503 595.813,273.336 598.5,273.5C 598.666,282.173 598.5,290.84 598,299.5C 596.333,300.833 594.667,300.833 593,299.5C 592.667,293.5 592.333,287.5 592,281.5C 589.349,287.803 586.516,293.97 583.5,300C 581.559,300.743 579.726,300.576 578,299.5C 575.39,293.947 573.057,288.281 571,282.5C 570.667,288.167 570.333,293.833 570,299.5C 568.274,300.576 566.441,300.743 564.5,300C 563.18,291.167 563.18,282.333 564.5,273.5 Z"/></g>
<g><path style="opacity:0.804" fill="#060708" d="M 684.5,272.5 C 690.224,271.832 695.557,272.832 700.5,275.5C 701.281,276.729 701.781,278.062 702,279.5C 702.227,285.704 702.727,291.871 703.5,298C 701.05,301.292 698.55,301.125 696,297.5C 688.685,301.798 681.685,301.465 675,296.5C 673.14,291.048 674.974,287.214 680.5,285C 684.819,284.24 689.152,283.573 693.5,283C 696.167,281.333 696.167,279.667 693.5,278C 690.5,277.333 687.5,277.333 684.5,278C 682.556,279.42 680.723,280.92 679,282.5C 675.251,281.541 674.585,279.541 677,276.5C 679.255,274.501 681.755,273.168 684.5,272.5 Z M 694.5,287.5 C 695.861,291.066 694.528,293.566 690.5,295C 686.57,296.138 683.236,295.305 680.5,292.5C 681.09,291.201 682.09,290.368 683.5,290C 687.347,289.367 691.014,288.533 694.5,287.5 Z"/></g>
<g><path style="opacity:0.802" fill="#040507" d="M 32.5,273.5 C 41.1731,273.334 49.8397,273.5 58.5,274C 59.3366,275.011 59.67,276.178 59.5,277.5C 56.1667,277.5 52.8333,277.5 49.5,277.5C 49.6663,284.841 49.4997,292.174 49,299.5C 46.9592,300.423 44.7925,300.756 42.5,300.5C 42.6663,293.159 42.4997,285.826 42,278.5C 38.9433,277.549 35.7766,277.216 32.5,277.5C 32.5,276.167 32.5,274.833 32.5,273.5 Z"/></g>
<g><path style="opacity:0.754" fill="#060708" d="M 144.5,272.5 C 159.68,272.84 164.847,280.174 160,294.5C 154.513,300.722 148.013,302.055 140.5,298.5C 139.511,302.107 139.177,305.774 139.5,309.5C 137.5,309.5 135.5,309.5 133.5,309.5C 133.5,297.5 133.5,285.5 133.5,273.5C 135.92,273.292 138.253,273.626 140.5,274.5C 142.026,274.006 143.359,273.339 144.5,272.5 Z M 144.5,277.5 C 150.326,276.489 153.826,278.822 155,284.5C 155.818,292.348 152.318,295.848 144.5,295C 142.333,294.167 140.833,292.667 140,290.5C 138.658,285.019 140.158,280.686 144.5,277.5 Z"/></g>
<g><path style="opacity:0.779" fill="#020203" d="M 186.5,273.5 C 192.833,273.5 199.167,273.5 205.5,273.5C 205.5,274.833 205.5,276.167 205.5,277.5C 201.167,277.5 196.833,277.5 192.5,277.5C 192.666,284.841 192.5,292.174 192,299.5C 190.274,300.576 188.441,300.743 186.5,300C 185.18,291.167 185.18,282.333 186.5,273.5 Z"/></g>
<g><path style="opacity:0.853" fill="#070808" d="M 384.5,273.5 C 391.755,273.187 398.921,273.52 406,274.5C 406.667,282.833 406.667,291.167 406,299.5C 404,300.833 402,300.833 400,299.5C 399.502,296.518 399.335,293.518 399.5,290.5C 396.351,290.211 393.351,290.711 390.5,292C 388.743,294.846 386.743,297.512 384.5,300C 377.833,301.689 376.333,299.856 380,294.5C 381.543,292.622 383.376,291.122 385.5,290C 376.652,284.839 376.319,279.339 384.5,273.5 Z M 386.5,278.5 C 390.833,278.5 395.167,278.5 399.5,278.5C 399.5,280.833 399.5,283.167 399.5,285.5C 395.51,285.001 391.51,284.501 387.5,284C 385.17,282.512 384.836,280.679 386.5,278.5 Z"/></g>
<g><path style="opacity:0.891" fill="#07090b" d="M 466.5,273.5 C 468.467,273.261 470.301,273.594 472,274.5C 472.179,277.553 472.679,280.553 473.5,283.5C 476.325,280.505 478.992,277.338 481.5,274C 483.81,273.503 486.143,273.337 488.5,273.5C 489.041,277.295 487.375,279.295 483.5,279.5C 482.408,282.094 480.741,284.261 478.5,286C 481.667,289.167 484.833,292.333 488,295.5C 489.009,297.025 489.509,298.692 489.5,300.5C 487.473,300.662 485.473,300.495 483.5,300C 480.511,295.846 477.177,292.012 473.5,288.5C 472.767,292.174 472.101,295.841 471.5,299.5C 469.647,300.76 467.814,300.76 466,299.5C 465.198,290.755 465.364,282.088 466.5,273.5 Z"/></g>
<g><path style="opacity:0.754" fill="#030304" d="M 624.5,273.5 C 633.167,273.5 641.833,273.5 650.5,273.5C 650.817,282.418 650.484,291.251 649.5,300C 647.559,300.743 645.726,300.576 644,299.5C 643.831,292.476 643.331,285.476 642.5,278.5C 638.558,277.81 634.558,277.81 630.5,278.5C 630.5,285.833 630.5,293.167 630.5,300.5C 628.5,300.5 626.5,300.5 624.5,300.5C 624.5,291.5 624.5,282.5 624.5,273.5 Z"/></g>
<g><path style="opacity:0.698" fill="#030406" d="M 728.5,273.5 C 730.5,273.5 732.5,273.5 734.5,273.5C 734.5,276.833 734.5,280.167 734.5,283.5C 739.167,283.5 743.833,283.5 748.5,283.5C 748.5,280.167 748.5,276.833 748.5,273.5C 750.5,273.5 752.5,273.5 754.5,273.5C 754.666,282.173 754.5,290.84 754,299.5C 752.333,300.833 750.667,300.833 749,299.5C 748.501,295.848 748.335,292.182 748.5,288.5C 743.833,288.5 739.167,288.5 734.5,288.5C 734.665,292.182 734.499,295.848 734,299.5C 731.67,301.032 729.67,300.698 728,298.5C 727.199,290.088 727.366,281.755 728.5,273.5 Z"/></g>
<g><path style="opacity:0.948" fill="#050608" d="M 780.5,273.5 C 782.5,273.5 784.5,273.5 786.5,273.5C 786.334,279.509 786.501,285.509 787,291.5C 790.735,285.096 795.235,279.263 800.5,274C 802.81,273.503 805.143,273.337 807.5,273.5C 807.666,282.173 807.5,290.84 807,299.5C 805.204,300.767 803.371,300.767 801.5,299.5C 800.67,293.862 800.17,288.196 800,282.5C 795.5,288.333 791,294.167 786.5,300C 784.559,300.743 782.726,300.576 781,299.5C 780.5,290.84 780.334,282.173 780.5,273.5 Z"/></g>
<g><path style="opacity:0.883" fill="#050709" d="M 837.5,273.5 C 844.5,273.5 851.5,273.5 858.5,273.5C 858.666,282.173 858.5,290.84 858,299.5C 856.333,300.833 854.667,300.833 853,299.5C 852.502,296.518 852.335,293.518 852.5,290.5C 849.813,290.336 847.146,290.503 844.5,291C 842.205,294.297 839.538,297.297 836.5,300C 834.559,300.743 832.726,300.576 831,299.5C 830.508,298.451 830.674,297.451 831.5,296.5C 834.061,294.36 836.395,292.027 838.5,289.5C 829.696,284.533 829.363,279.199 837.5,273.5 Z M 839.5,278.5 C 843.833,278.5 848.167,278.5 852.5,278.5C 852.662,280.527 852.495,282.527 852,284.5C 851.275,285.059 850.442,285.392 849.5,285.5C 846.525,284.861 843.525,284.361 840.5,284C 838.365,282.444 838.032,280.611 839.5,278.5 Z"/></g>
<g><path style="opacity:0.785" fill="#040404" d="M 234.5,272.5 C 249.236,271.399 255.403,278.066 253,292.5C 248.392,299.487 241.892,301.987 233.5,300C 223.81,296.284 220.643,289.451 224,279.5C 227.043,276.246 230.543,273.913 234.5,272.5 Z M 235.5,277.5 C 245.203,277.381 248.703,282.047 246,291.5C 242.178,295.721 237.678,296.554 232.5,294C 229.303,290.126 228.803,285.959 231,281.5C 232.196,279.714 233.696,278.381 235.5,277.5 Z"/></g>
</svg>
