<?xml version="1.0" encoding="UTF-8"?>
<!DOCTYPE svg PUBLIC "-//W3C//DTD SVG 1.1//EN" "http://www.w3.org/Graphics/SVG/1.1/DTD/svg11.dtd">
<svg xmlns="http://www.w3.org/2000/svg" version="1.1" width="1350px" height="675px" style="shape-rendering:geometricPrecision; text-rendering:geometricPrecision; image-rendering:optimizeQuality; fill-rule:evenodd; clip-rule:evenodd" xmlns:xlink="http://www.w3.org/1999/xlink">
<g><path style="opacity:1" fill="#fec301" d="M 264.5,227.5 C 261.911,228.419 259.911,230.086 258.5,232.5C 239.721,250.277 221.721,268.611 204.5,287.5C 203.761,287.369 203.094,287.536 202.5,288C 192.448,298.113 182.448,307.946 172.5,317.5C 168.169,316.451 166.003,318.118 166,322.5C 164.817,321.269 163.651,321.269 162.5,322.5C 160.833,324.833 158.833,326.833 156.5,328.5C 157.711,329.72 157.711,330.887 156.5,332C 154.557,331.695 152.557,331.695 150.5,332C 152.891,332.691 152.891,333.691 150.5,335C 150.957,335.414 151.291,335.914 151.5,336.5C 149.922,337.298 148.256,337.798 146.5,338C 145.874,338.75 145.374,339.584 145,340.5C 145.307,375.792 145.64,411.126 146,446.5C 146.17,436.325 146.67,426.325 147.5,416.5C 147.5,438.5 147.5,460.5 147.5,482.5C 147.5,482.833 147.5,483.167 147.5,483.5C 119.625,483.478 91.9586,483.478 64.5,483.5C 62.744,482.448 62.0773,480.781 62.5,478.5C 63.7079,479.234 65.0413,479.567 66.5,479.5C 66.5,422.5 66.5,365.5 66.5,308.5C 69.634,307.881 72.4673,306.548 75,304.5C 76.7106,304.439 78.044,305.106 79,306.5C 79.9201,303.692 79.0867,301.525 76.5,300C 80.128,299.21 82.128,297.043 82.5,293.5C 84.6056,293.321 86.2723,292.321 87.5,290.5C 87.0431,289.702 86.3764,289.369 85.5,289.5C 85.5,287.5 85.5,285.5 85.5,283.5C 91.1142,278.222 96.7808,272.889 102.5,267.5C 105.536,266.638 107.869,264.805 109.5,262C 110.448,261.517 111.448,261.351 112.5,261.5C 112.5,260.5 112.5,259.5 112.5,258.5C 114.199,258.66 115.866,258.494 117.5,258C 117.167,257.667 116.833,257.333 116.5,257C 117.833,256 119.167,255 120.5,254C 119.833,253.667 119.167,253.333 118.5,253C 120.5,252.667 122.5,252.333 124.5,252C 124.957,251.586 125.291,251.086 125.5,250.5C 122.82,247.853 123.487,246.52 127.5,246.5C 127.312,244.897 127.812,243.563 129,242.5C 129.875,244.513 131.209,244.513 133,242.5C 133.17,240.285 133.837,238.285 135,236.5C 138.692,237.324 140.525,235.658 140.5,231.5C 141.552,231.649 142.552,231.483 143.5,231C 142.316,229.855 142.316,228.688 143.5,227.5C 163.196,206.846 183.363,186.513 204,166.5C 223.98,186.98 244.147,207.313 264.5,227.5 Z"/></g>
<g><path style="opacity:1" fill="#686c6b" d="M 924.5,204.5 C 931.633,203.279 938.633,203.945 945.5,206.5C 939.167,205.833 932.833,205.167 926.5,204.5C 925.833,204.5 925.167,204.5 924.5,204.5 Z"/></g>
<g><path style="opacity:1" fill="#424848" d="M 924.5,204.5 C 925.167,204.5 925.833,204.5 926.5,204.5C 919.966,205.916 913.299,207.249 906.5,208.5C 912.078,205.782 918.078,204.449 924.5,204.5 Z"/></g>
<g><path style="opacity:1" fill="#444a4d" d="M 548.5,207.5 C 549.499,248.33 549.832,289.33 549.5,330.5C 535.167,330.5 520.833,330.5 506.5,330.5C 506.5,301.167 506.5,271.833 506.5,242.5C 506.5,242.167 506.5,241.833 506.5,241.5C 507.498,268.662 507.831,295.995 507.5,323.5C 507.5,325.5 507.5,327.5 507.5,329.5C 521,329.419 534.667,329.419 548.5,329.5C 548.5,288.833 548.5,248.167 548.5,207.5 Z"/></g>
<g><path style="opacity:1" fill="#1c242b" d="M 1048.5,207.5 C 1048.5,222.167 1048.5,236.833 1048.5,251.5C 1061.5,251.333 1074.5,251.5 1087.5,252C 1074.84,252.5 1062.17,252.667 1049.5,252.5C 1049.5,255.833 1049.5,259.167 1049.5,262.5C 1059.83,262.5 1070.17,262.5 1080.5,262.5C 1080.26,259.788 1080.26,257.288 1080.5,255C 1083.56,254.744 1086.56,254.244 1089.5,253.5C 1091.79,254.824 1093.79,254.324 1095.5,252C 1094.21,239.032 1094.21,225.865 1095.5,212.5C 1105.83,212.5 1116.17,212.5 1126.5,212.5C 1127.83,250.507 1127.83,288.507 1126.5,326.5C 1116.17,326.5 1105.83,326.5 1095.5,326.5C 1095.5,325.5 1095.5,324.5 1095.5,323.5C 1094.17,323.5 1092.83,323.5 1091.5,323.5C 1092.15,310.124 1091.48,297.124 1089.5,284.5C 1076.17,284.5 1062.83,284.5 1049.5,284.5C 1049.5,299.833 1049.5,315.167 1049.5,330.5C 1035.17,330.5 1020.83,330.5 1006.5,330.5C 1006.5,289.5 1006.5,248.5 1006.5,207.5C 1020.5,207.5 1034.5,207.5 1048.5,207.5 Z"/></g>
<g><path style="opacity:1" fill="#474b4d" d="M 1234.5,210.5 C 1229.34,209.627 1224.34,208.294 1219.5,206.5C 1212.02,205.508 1204.35,205.175 1196.5,205.5C 1205.72,202.948 1215.05,203.114 1224.5,206C 1228.26,206.852 1231.6,208.352 1234.5,210.5 Z"/></g>
<g><path style="opacity:1" fill="#142528" d="M 1196.5,205.5 C 1204.35,205.175 1212.02,205.508 1219.5,206.5C 1215.16,206.622 1214.83,206.955 1218.5,207.5C 1218.5,210.167 1218.5,212.833 1218.5,215.5C 1208.48,215.832 1198.48,215.499 1188.5,214.5C 1187.74,212.549 1187.41,210.716 1187.5,209C 1190.78,209.046 1193.78,207.879 1196.5,205.5 Z"/></g>
<g><path style="opacity:1" fill="#1b242a" d="M 926.5,204.5 C 932.833,205.167 939.167,205.833 945.5,206.5C 964.44,211.774 977.774,223.441 985.5,241.5C 985.69,244.855 986.69,247.855 988.5,250.5C 987.398,276.237 987.398,302.07 988.5,328C 978.331,329.474 967.998,329.974 957.5,329.5C 957.5,327.5 957.5,325.5 957.5,323.5C 956.167,323.5 954.833,323.5 953.5,323.5C 953.864,298.126 953.198,272.793 951.5,247.5C 947.854,246.717 944.188,246.55 940.5,247C 941.056,247.383 941.389,247.883 941.5,248.5C 934.821,245.359 927.821,244.692 920.5,246.5C 918.143,246.337 915.81,246.503 913.5,247C 915.645,247.743 915.811,248.576 914,249.5C 913.055,249.095 912.388,248.428 912,247.5C 911.605,250.207 911.105,252.873 910.5,255.5C 909.073,257.148 908.24,259.148 908,261.5C 907.176,271.009 907.342,280.343 908.5,289.5C 908.842,290.338 909.508,290.672 910.5,290.5C 910.611,291.117 910.944,291.617 911.5,292C 916.489,292.499 921.489,292.666 926.5,292.5C 926.677,297.984 926.677,303.317 926.5,308.5C 926.657,309.873 926.49,311.207 926,312.5C 924.16,311.167 923.66,311.334 924.5,313C 922.333,313.833 920.833,315.333 920,317.5C 919.586,317.043 919.086,316.709 918.5,316.5C 917.833,318.167 917.167,319.833 916.5,321.5C 915.833,321.167 915.167,320.833 914.5,320.5C 913.534,322.396 913.201,324.396 913.5,326.5C 912.188,327.145 911.188,328.145 910.5,329.5C 896.182,330.499 881.849,330.833 867.5,330.5C 867.333,306.164 867.5,281.831 868,257.5C 868.29,255.08 868.79,252.746 869.5,250.5C 871.642,247.2 872.975,243.533 873.5,239.5C 875.087,235.317 877.421,231.65 880.5,228.5C 882.587,227.415 883.92,225.749 884.5,223.5C 890.438,216.525 897.771,211.525 906.5,208.5C 913.299,207.249 919.966,205.916 926.5,204.5 Z"/></g>
<g><path style="opacity:1" fill="#1c242b" d="M 1196.5,205.5 C 1193.78,207.879 1190.78,209.046 1187.5,209C 1187.41,210.716 1187.74,212.549 1188.5,214.5C 1198.48,215.499 1208.48,215.832 1218.5,215.5C 1218.5,212.833 1218.5,210.167 1218.5,207.5C 1214.83,206.955 1215.16,206.622 1219.5,206.5C 1224.34,208.294 1229.34,209.627 1234.5,210.5C 1240.47,212.818 1245.8,216.151 1250.5,220.5C 1251.08,222.749 1252.41,224.415 1254.5,225.5C 1255.08,227.749 1256.41,229.415 1258.5,230.5C 1262.82,236.138 1265.82,242.471 1267.5,249.5C 1267.09,252.53 1266.43,255.53 1265.5,258.5C 1265.67,259.833 1265.83,261.167 1266,262.5C 1266.19,260.1 1266.69,257.766 1267.5,255.5C 1267.83,256 1268.17,256.5 1268.5,257C 1268.44,281.431 1268.44,305.931 1268.5,330.5C 1254.83,330.667 1241.16,330.5 1227.5,330C 1219.3,321.965 1211.3,313.798 1203.5,305.5C 1203.5,303.5 1202.5,302.5 1200.5,302.5C 1196.5,299.167 1192.83,295.5 1189.5,291.5C 1202.66,290.504 1215.99,290.171 1229.5,290.5C 1229.83,280.319 1229.49,270.319 1228.5,260.5C 1224.15,248.301 1215.48,243.468 1202.5,246C 1194.59,248.242 1189.76,253.409 1188,261.5C 1187.5,284.498 1187.33,307.498 1187.5,330.5C 1173.83,330.5 1160.17,330.5 1146.5,330.5C 1146.33,308.497 1146.5,286.497 1147,264.5C 1147.03,254.381 1149.53,245.048 1154.5,236.5C 1155.91,236.027 1156.57,235.027 1156.5,233.5C 1165.27,217.773 1178.6,208.439 1196.5,205.5 Z"/></g>
<g><path style="opacity:1" fill="#1a2329" d="M 507.5,323.5 C 507.831,295.995 507.498,268.662 506.5,241.5C 503.359,240.679 500.025,240.179 496.5,240C 501.598,239.086 506.265,238.753 510.5,239C 511.435,236.619 511.768,234.119 511.5,231.5C 501.5,231.5 491.5,231.5 481.5,231.5C 481.5,234.833 481.5,238.167 481.5,241.5C 480.509,247.979 480.176,254.646 480.5,261.5C 480.715,269.954 480.048,278.288 478.5,286.5C 477.097,289.909 476.43,293.575 476.5,297.5C 476.605,301.258 475.605,304.592 473.5,307.5C 471.287,307.848 469.287,308.681 467.5,310C 469.211,311.133 469.711,312.633 469,314.5C 468.667,313.833 468.333,313.167 468,312.5C 467.415,314.129 466.581,315.629 465.5,317C 466.148,318.44 466.481,319.94 466.5,321.5C 461.707,326.899 455.707,330.232 448.5,331.5C 439.395,331.828 430.395,331.161 421.5,329.5C 421.5,318.5 421.5,307.5 421.5,296.5C 426.214,296.827 430.88,296.493 435.5,295.5C 436.127,294.583 436.461,293.583 436.5,292.5C 437.167,292.5 437.833,292.5 438.5,292.5C 442.293,292.885 446.293,292.885 450.5,292.5C 450.5,287.5 450.5,282.5 450.5,277.5C 449.167,277.5 447.833,277.5 446.5,277.5C 446.009,260.139 446.009,242.973 446.5,226C 446.667,224.167 446.833,222.333 447,220.5C 447.333,223.833 447.667,227.167 448,230.5C 448.772,226.11 448.606,221.777 447.5,217.5C 448.325,216.614 449.325,216.281 450.5,216.5C 450.5,215.167 450.5,213.833 450.5,212.5C 481.167,212.5 511.833,212.5 542.5,212.5C 542.5,213.833 542.5,215.167 542.5,216.5C 543.833,216.5 545.167,216.5 546.5,216.5C 546.667,252.168 546.5,287.835 546,323.5C 545,324.833 544,324.833 543,323.5C 542.51,324.793 542.343,326.127 542.5,327.5C 532.494,327.666 522.494,327.5 512.5,327C 510.875,326.147 510.542,325.147 511.5,324C 510.207,323.51 508.873,323.343 507.5,323.5 Z"/></g>
<g><path style="opacity:1" fill="#1a2229" d="M 610.5,240.5 C 610.5,240.833 610.5,241.167 610.5,241.5C 610.5,245.167 610.5,248.833 610.5,252.5C 609.719,254.322 608.552,254.989 607,254.5C 606.751,253.376 606.251,252.376 605.5,251.5C 604.511,255.107 604.177,258.774 604.5,262.5C 609.5,262.5 614.5,262.5 619.5,262.5C 619.5,261.167 619.5,259.833 619.5,258.5C 634.833,258.5 650.167,258.5 665.5,258.5C 665.5,266.167 665.5,273.833 665.5,281.5C 646.803,280.846 628.47,281.513 610.5,283.5C 609.352,287.981 609.185,292.648 610,297.5C 613.057,298.451 616.223,298.784 619.5,298.5C 619.5,299.833 619.5,301.167 619.5,302.5C 619.5,304.5 619.5,306.5 619.5,308.5C 634.833,308.5 650.167,308.5 665.5,308.5C 665.5,313.5 665.5,318.5 665.5,323.5C 633.5,323.5 601.5,323.5 569.5,323.5C 569.5,287.833 569.5,252.167 569.5,216.5C 570.833,216.5 572.167,216.5 573.5,216.5C 573.5,215.167 573.5,213.833 573.5,212.5C 604.167,212.5 634.833,212.5 665.5,212.5C 665.5,213.833 665.5,215.167 665.5,216.5C 666.833,216.5 668.167,216.5 669.5,216.5C 669.5,221.5 669.5,226.5 669.5,231.5C 668.167,231.5 666.833,231.5 665.5,231.5C 665.5,232.833 665.5,234.167 665.5,235.5C 650.167,235.5 634.833,235.5 619.5,235.5C 619.5,234.167 619.5,232.833 619.5,231.5C 614.5,231.5 609.5,231.5 604.5,231.5C 604.177,235.226 604.511,238.893 605.5,242.5C 606.251,241.624 606.751,240.624 607,239.5C 607.667,242.167 608.333,242.167 609,239.5C 609.383,240.056 609.883,240.389 610.5,240.5 Z"/></g>
<g><path style="opacity:1" fill="#1c242b" d="M 763.5,239.5 C 764.08,241.749 765.413,243.415 767.5,244.5C 769.19,244.856 770.19,245.856 770.5,247.5C 771.251,248.573 772.251,248.74 773.5,248C 775,246.5 776.5,245 778,243.5C 778.333,243.833 778.667,244.167 779,244.5C 779.49,243.207 779.657,241.873 779.5,240.5C 784.473,233.56 790.14,227.227 796.5,221.5C 798.587,220.415 799.92,218.749 800.5,216.5C 802.926,213.86 805.259,211.027 807.5,208C 822.83,207.5 838.163,207.333 853.5,207.5C 853.832,248.67 853.499,289.67 852.5,330.5C 852.5,292.5 852.5,254.5 852.5,216.5C 851.5,216.5 850.5,216.5 849.5,216.5C 849.5,253.167 849.5,289.833 849.5,326.5C 839.494,326.666 829.494,326.5 819.5,326C 818.167,325.333 818.167,324.667 819.5,324C 816.854,323.503 814.187,323.336 811.5,323.5C 811.833,306.154 811.5,288.821 810.5,271.5C 809.893,271.624 809.56,271.957 809.5,272.5C 799.548,283.119 789.215,293.452 778.5,303.5C 777.797,302.193 777.797,300.693 778.5,299C 776.416,297.093 776.416,295.427 778.5,294C 773.246,292.729 767.913,292.229 762.5,292.5C 760.265,292.795 758.265,292.461 756.5,291.5C 757.078,287.186 757.411,282.519 757.5,277.5C 753.154,277.334 748.821,277.501 744.5,278C 744.167,278.333 743.833,278.667 743.5,279C 744.833,280 746.167,281 747.5,282C 746.584,282.278 745.918,282.778 745.5,283.5C 745.167,283.5 744.833,283.5 744.5,283.5C 740.853,280.189 737.187,276.855 733.5,273.5C 732.5,292.488 732.167,311.488 732.5,330.5C 718.167,330.5 703.833,330.5 689.5,330.5C 689.5,289.5 689.5,248.5 689.5,207.5C 704.837,207.333 720.17,207.5 735.5,208C 745.413,218.074 754.746,228.574 763.5,239.5 Z"/></g>
<g><path style="opacity:1" fill="#474d50" d="M 1131.5,207.5 C 1132.17,246.569 1132.84,285.736 1133.5,325C 1133.11,326.808 1133.11,328.475 1133.5,330C 1132.91,330.464 1132.24,330.631 1131.5,330.5C 1131.5,289.5 1131.5,248.5 1131.5,207.5 Z"/></g>
<g><path style="opacity:1" fill="#343b3f" d="M 568.5,207.5 C 568.173,248.572 568.506,289.572 569.5,330.5C 568.167,310.344 567.5,289.844 567.5,269C 567.5,248.331 567.833,227.831 568.5,207.5 Z"/></g>
<g><path style="opacity:1" fill="#182427" d="M 852.5,330.5 C 838.833,330.5 825.167,330.5 811.5,330.5C 811.5,328.167 811.5,325.833 811.5,323.5C 814.187,323.336 816.854,323.503 819.5,324C 818.167,324.667 818.167,325.333 819.5,326C 829.494,326.5 839.494,326.666 849.5,326.5C 849.5,289.833 849.5,253.167 849.5,216.5C 850.5,216.5 851.5,216.5 852.5,216.5C 852.5,254.5 852.5,292.5 852.5,330.5 Z"/></g>
<g><path style="opacity:1" fill="#192222" d="M 1009.5,215.5 C 1010.12,215.611 1010.62,215.944 1011,216.5C 1011.5,252.165 1011.67,287.832 1011.5,323.5C 1010.17,323.5 1008.83,323.5 1007.5,323.5C 1006.85,287.279 1007.52,251.279 1009.5,215.5 Z"/></g>
<g><path style="opacity:1" fill="#122529" d="M 1013.5,216.5 C 1015.17,216.5 1016.83,216.5 1018.5,216.5C 1018.5,252.167 1018.5,287.833 1018.5,323.5C 1016.83,323.5 1015.17,323.5 1013.5,323.5C 1013.5,287.833 1013.5,252.167 1013.5,216.5 Z"/></g>
<g><path style="opacity:1" fill="#1c252a" d="M 1048.5,207.5 C 1049.5,221.323 1049.83,235.323 1049.5,249.5C 1063.17,250.833 1076.83,250.833 1090.5,249.5C 1091.5,235.677 1091.83,221.677 1091.5,207.5C 1104.83,207.5 1118.17,207.5 1131.5,207.5C 1131.5,248.5 1131.5,289.5 1131.5,330.5C 1118.17,330.5 1104.83,330.5 1091.5,330.5C 1091.5,328.167 1091.5,325.833 1091.5,323.5C 1092.83,323.5 1094.17,323.5 1095.5,323.5C 1095.5,324.5 1095.5,325.5 1095.5,326.5C 1105.83,326.5 1116.17,326.5 1126.5,326.5C 1127.83,288.507 1127.83,250.507 1126.5,212.5C 1116.17,212.5 1105.83,212.5 1095.5,212.5C 1094.21,225.865 1094.21,239.032 1095.5,252C 1093.79,254.324 1091.79,254.824 1089.5,253.5C 1086.56,254.244 1083.56,254.744 1080.5,255C 1080.26,257.288 1080.26,259.788 1080.5,262.5C 1070.17,262.5 1059.83,262.5 1049.5,262.5C 1049.5,259.167 1049.5,255.833 1049.5,252.5C 1062.17,252.667 1074.84,252.5 1087.5,252C 1074.5,251.5 1061.5,251.333 1048.5,251.5C 1048.5,236.833 1048.5,222.167 1048.5,207.5 Z"/></g>
<g><path style="opacity:1" fill="#5f666a" d="M 1091.5,207.5 C 1091.83,221.677 1091.5,235.677 1090.5,249.5C 1090.5,248.833 1090.5,248.167 1090.5,247.5C 1089.35,234.575 1089.19,221.575 1090,208.5C 1090.38,207.944 1090.88,207.611 1091.5,207.5 Z"/></g>
<g><path style="opacity:1" fill="#6a6c71" d="M 800.5,216.5 C 799.92,218.749 798.587,220.415 796.5,221.5C 797.08,219.251 798.413,217.585 800.5,216.5 Z"/></g>
<g><path style="opacity:1" fill="#6b7572" d="M 1250.5,220.5 C 1252.59,221.585 1253.92,223.251 1254.5,225.5C 1252.41,224.415 1251.08,222.749 1250.5,220.5 Z"/></g>
<g><path style="opacity:1" fill="#5f6569" d="M 884.5,223.5 C 883.92,225.749 882.587,227.415 880.5,228.5C 881.08,226.251 882.413,224.585 884.5,223.5 Z"/></g>
<g><path style="opacity:1" fill="#616d6a" d="M 1254.5,225.5 C 1256.59,226.585 1257.92,228.251 1258.5,230.5C 1256.41,229.415 1255.08,227.749 1254.5,225.5 Z"/></g>
<g><path style="opacity:1" fill="#132527" d="M 972.5,231.5 C 974.924,231.192 977.257,231.526 979.5,232.5C 980.443,237.1 980.777,241.767 980.5,246.5C 977.833,246.5 975.167,246.5 972.5,246.5C 972.5,241.5 972.5,236.5 972.5,231.5 Z"/></g>
<g><path style="opacity:1" fill="#64716e" d="M 1156.5,233.5 C 1156.57,235.027 1155.91,236.027 1154.5,236.5C 1154.43,234.973 1155.09,233.973 1156.5,233.5 Z"/></g>
<g><path style="opacity:1" fill="#d38a00" d="M 264.5,227.5 C 275.22,237.888 285.887,248.222 296.5,258.5C 296.525,261.179 297.858,262.512 300.5,262.5C 300.557,266.035 302.223,268.368 305.5,269.5C 306.429,270.689 306.762,272.022 306.5,273.5C 307.833,273.5 309.167,273.5 310.5,273.5C 311.492,273.328 312.158,273.662 312.5,274.5C 312.5,275.5 312.5,276.5 312.5,277.5C 313.5,277.5 314.5,277.5 315.5,277.5C 319.833,281.167 323.833,285.167 327.5,289.5C 328.301,294.035 330.968,296.702 335.5,297.5C 338.5,299.833 341.167,302.5 343.5,305.5C 344.488,365.137 344.822,424.804 344.5,484.5C 344.167,484.5 343.833,484.5 343.5,484.5C 278.264,483.83 212.931,483.163 147.5,482.5C 147.5,460.5 147.5,438.5 147.5,416.5C 147.5,414.833 147.5,413.167 147.5,411.5C 147.833,411.5 148.167,411.5 148.5,411.5C 148.333,433.503 148.5,455.503 149,477.5C 153.758,456.221 158.591,434.888 163.5,413.5C 194.248,413.46 224.915,413.46 255.5,413.5C 256.298,413.043 256.631,412.376 256.5,411.5C 258.5,411.5 259.5,410.5 259.5,408.5C 260.473,406.052 260.806,403.385 260.5,400.5C 261.832,391.859 262.498,382.859 262.5,373.5C 262.498,364.141 261.832,355.141 260.5,346.5C 260.5,344.167 260.5,341.833 260.5,339.5C 259.5,339.5 258.5,339.5 257.5,339.5C 251.833,334.5 246.5,329.167 241.5,323.5C 241.548,320.708 240.215,318.875 237.5,318C 238.308,317.692 238.975,317.192 239.5,316.5C 238.311,315.571 236.978,315.238 235.5,315.5C 235.5,312.833 235.5,310.167 235.5,307.5C 233.801,307.66 232.134,307.494 230.5,307C 228.018,303.67 224.684,302.17 220.5,302.5C 218.091,301.299 216.091,299.633 214.5,297.5C 215.604,295.611 216.937,293.945 218.5,292.5C 221.412,293.237 224.245,294.237 227,295.5C 228.404,295.491 229.57,294.991 230.5,294C 227.432,294.048 225.098,292.881 223.5,290.5C 225.625,287.41 228.292,284.91 231.5,283C 230.376,282.751 229.376,282.251 228.5,281.5C 231.111,275.223 235.778,271.556 242.5,270.5C 246.783,266.698 246.449,263.532 241.5,261C 243.503,259.181 244.836,257.015 245.5,254.5C 247.328,250.158 250.161,246.491 254,243.5C 255.038,239.759 256.871,236.426 259.5,233.5C 259.376,232.893 259.043,232.56 258.5,232.5C 259.911,230.086 261.911,228.419 264.5,227.5 Z"/></g>
<g><path style="opacity:1" fill="#595d5f" d="M 673.5,207.5 C 674.829,212.624 675.495,218.124 675.5,224C 675.489,229.745 675.156,235.412 674.5,241C 653.169,241.5 631.836,241.667 610.5,241.5C 610.5,241.167 610.5,240.833 610.5,240.5C 631.327,239.503 652.327,239.169 673.5,239.5C 673.5,228.833 673.5,218.167 673.5,207.5 Z"/></g>
<g><path style="opacity:1" fill="#687073" d="M 763.5,239.5 C 765.587,240.585 766.92,242.251 767.5,244.5C 765.413,243.415 764.08,241.749 763.5,239.5 Z"/></g>
<g><path style="opacity:1" fill="#5d6162" d="M 873.5,239.5 C 872.975,243.533 871.642,247.2 869.5,250.5C 870.065,246.463 871.399,242.797 873.5,239.5 Z"/></g>
<g><path style="opacity:1" fill="#55575c" d="M 985.5,241.5 C 987.472,244.084 988.472,247.084 988.5,250.5C 986.69,247.855 985.69,244.855 985.5,241.5 Z"/></g>
<g><path style="opacity:1" fill="#51585a" d="M 779.5,240.5 C 779.657,241.873 779.49,243.207 779,244.5C 778.667,244.167 778.333,243.833 778,243.5C 776.5,245 775,246.5 773.5,248C 772.251,248.74 771.251,248.573 770.5,247.5C 773.767,245.573 776.767,243.239 779.5,240.5 Z"/></g>
<g><path style="opacity:1" fill="#112627" d="M 874.5,247.5 C 876.5,247.5 878.5,247.5 880.5,247.5C 880.5,272.833 880.5,298.167 880.5,323.5C 878.5,323.5 876.5,323.5 874.5,323.5C 874.5,298.167 874.5,272.833 874.5,247.5 Z"/></g>
<g><path style="opacity:1" fill="#434445" d="M 920.5,246.5 C 917.167,249.5 913.833,252.5 910.5,255.5C 911.105,252.873 911.605,250.207 912,247.5C 912.388,248.428 913.055,249.095 914,249.5C 915.811,248.576 915.645,247.743 913.5,247C 915.81,246.503 918.143,246.337 920.5,246.5 Z"/></g>
<g><path style="opacity:1" fill="#facc16" d="M 143.5,227.5 C 142.316,228.688 142.316,229.855 143.5,231C 142.552,231.483 141.552,231.649 140.5,231.5C 140.525,235.658 138.692,237.324 135,236.5C 133.837,238.285 133.17,240.285 133,242.5C 131.209,244.513 129.875,244.513 129,242.5C 127.812,243.563 127.312,244.897 127.5,246.5C 123.487,246.52 122.82,247.853 125.5,250.5C 125.291,251.086 124.957,251.586 124.5,252C 122.5,252.333 120.5,252.667 118.5,253C 119.167,253.333 119.833,253.667 120.5,254C 119.167,255 117.833,256 116.5,257C 116.833,257.333 117.167,257.667 117.5,258C 115.866,258.494 114.199,258.66 112.5,258.5C 112.5,259.5 112.5,260.5 112.5,261.5C 111.448,261.351 110.448,261.517 109.5,262C 107.869,264.805 105.536,266.638 102.5,267.5C 115.525,253.475 129.192,240.141 143.5,227.5 Z"/></g>
<g><path style="opacity:1" fill="#8a8c90" d="M 1090.5,247.5 C 1090.5,248.167 1090.5,248.833 1090.5,249.5C 1076.83,250.833 1063.17,250.833 1049.5,249.5C 1063.41,250.121 1077.08,249.454 1090.5,247.5 Z"/></g>
<g><path style="opacity:1" fill="#1d2528" d="M 548.5,207.5 C 548.5,248.167 548.5,288.833 548.5,329.5C 534.667,329.419 521,329.419 507.5,329.5C 507.5,327.5 507.5,325.5 507.5,323.5C 508.873,323.343 510.207,323.51 511.5,324C 510.542,325.147 510.875,326.147 512.5,327C 522.494,327.5 532.494,327.666 542.5,327.5C 542.343,326.127 542.51,324.793 543,323.5C 544,324.833 545,324.833 546,323.5C 546.5,287.835 546.667,252.168 546.5,216.5C 545.167,216.5 543.833,216.5 542.5,216.5C 542.5,215.167 542.5,213.833 542.5,212.5C 511.833,212.5 481.167,212.5 450.5,212.5C 450.5,213.833 450.5,215.167 450.5,216.5C 449.325,216.281 448.325,216.614 447.5,217.5C 448.606,221.777 448.772,226.11 448,230.5C 447.667,227.167 447.333,223.833 447,220.5C 446.833,222.333 446.667,224.167 446.5,226C 446.009,242.973 446.009,260.139 446.5,277.5C 447.833,277.5 449.167,277.5 450.5,277.5C 450.5,282.5 450.5,287.5 450.5,292.5C 446.293,292.885 442.293,292.885 438.5,292.5C 439.374,289.211 440.041,285.877 440.5,282.5C 441.748,279.058 442.581,275.392 443,271.5C 443.5,263.173 443.666,254.84 443.5,246.5C 443.313,233.48 443.646,220.48 444.5,207.5C 479.167,207.5 513.833,207.5 548.5,207.5 Z"/></g>
<g><path style="opacity:1" fill="#808588" d="M 481.5,241.5 C 489.833,241.5 498.167,241.5 506.5,241.5C 506.5,241.833 506.5,242.167 506.5,242.5C 498.167,242.5 489.833,242.5 481.5,242.5C 481.823,249.022 481.49,255.355 480.5,261.5C 480.176,254.646 480.509,247.979 481.5,241.5 Z"/></g>
<g><path style="opacity:1" fill="#152729" d="M 506.5,241.5 C 498.167,241.5 489.833,241.5 481.5,241.5C 481.5,238.167 481.5,234.833 481.5,231.5C 491.5,231.5 501.5,231.5 511.5,231.5C 511.768,234.119 511.435,236.619 510.5,239C 506.265,238.753 501.598,239.086 496.5,240C 500.025,240.179 503.359,240.679 506.5,241.5 Z"/></g>
<g><path style="opacity:1" fill="#30373a" d="M 610.5,252.5 C 629.503,252.333 648.503,252.5 667.5,253C 668.833,263 668.833,273 667.5,283C 648.503,283.5 629.503,283.667 610.5,283.5C 628.47,281.513 646.803,280.846 665.5,281.5C 665.5,273.833 665.5,266.167 665.5,258.5C 650.167,258.5 634.833,258.5 619.5,258.5C 619.5,259.833 619.5,261.167 619.5,262.5C 614.5,262.5 609.5,262.5 604.5,262.5C 604.177,258.774 604.511,255.107 605.5,251.5C 606.251,252.376 606.751,253.376 607,254.5C 608.552,254.989 609.719,254.322 610.5,252.5 Z"/></g>
<g><path style="opacity:1" fill="#926101" d="M 258.5,232.5 C 259.043,232.56 259.376,232.893 259.5,233.5C 256.871,236.426 255.038,239.759 254,243.5C 250.161,246.491 247.328,250.158 245.5,254.5C 243.45,256.237 241.617,258.237 240,260.5C 233.28,271.552 226.114,282.219 218.5,292.5C 216.937,293.945 215.604,295.611 214.5,297.5C 210.888,294.554 207.554,291.221 204.5,287.5C 221.721,268.611 239.721,250.277 258.5,232.5 Z"/></g>
<g><path style="opacity:1" fill="#cea265" d="M 296.5,258.5 C 298.167,259.5 299.5,260.833 300.5,262.5C 297.858,262.512 296.525,261.179 296.5,258.5 Z"/></g>
<g><path style="opacity:1" fill="#c3962b" d="M 300.5,262.5 C 304.352,265.745 307.685,269.411 310.5,273.5C 309.167,273.5 307.833,273.5 306.5,273.5C 306.762,272.022 306.429,270.689 305.5,269.5C 302.223,268.368 300.557,266.035 300.5,262.5 Z"/></g>
<g><path style="opacity:1" fill="#4e565a" d="M 1267.5,249.5 C 1268.83,253.264 1269.67,257.264 1270,261.5C 1270.17,273 1270.33,284.5 1270.5,296C 1270.5,307.853 1269.83,319.353 1268.5,330.5C 1268.44,305.931 1268.44,281.431 1268.5,257C 1268.17,256.5 1267.83,256 1267.5,255.5C 1266.69,257.766 1266.19,260.1 1266,262.5C 1265.83,261.167 1265.67,259.833 1265.5,258.5C 1266.43,255.53 1267.09,252.53 1267.5,249.5 Z"/></g>
<g><path style="opacity:1" fill="#c4975d" d="M 312.5,274.5 C 313.833,275.167 314.833,276.167 315.5,277.5C 314.5,277.5 313.5,277.5 312.5,277.5C 312.5,276.5 312.5,275.5 312.5,274.5 Z"/></g>
<g><path style="opacity:1" fill="#636769" d="M 443.5,246.5 C 443.666,254.84 443.5,263.173 443,271.5C 442.581,275.392 441.748,279.058 440.5,282.5C 441.743,270.374 442.743,258.374 443.5,246.5 Z"/></g>
<g><path style="opacity:1" fill="#3e4348" d="M 910.5,255.5 C 908.676,266.73 908.009,278.063 908.5,289.5C 907.342,280.343 907.176,271.009 908,261.5C 908.24,259.148 909.073,257.148 910.5,255.5 Z"/></g>
<g><path style="opacity:1" fill="#122425" d="M 756.5,291.5 C 754.466,289.061 752.299,286.728 750,284.5C 748.289,285.581 746.789,285.248 745.5,283.5C 745.918,282.778 746.584,282.278 747.5,282C 746.167,281 744.833,280 743.5,279C 743.833,278.667 744.167,278.333 744.5,278C 748.821,277.501 753.154,277.334 757.5,277.5C 757.411,282.519 757.078,287.186 756.5,291.5 Z"/></g>
<g><path style="opacity:1" fill="#2e3436" d="M 988.5,250.5 C 989.29,251.609 989.79,252.942 990,254.5C 990.5,279.831 990.667,305.164 990.5,330.5C 976.833,330.5 963.167,330.5 949.5,330.5C 949.667,306.831 949.5,283.164 949,259.5C 947.482,255.151 944.982,251.484 941.5,248.5C 941.389,247.883 941.056,247.383 940.5,247C 944.188,246.55 947.854,246.717 951.5,247.5C 953.198,272.793 953.864,298.126 953.5,323.5C 954.833,323.5 956.167,323.5 957.5,323.5C 957.5,325.5 957.5,327.5 957.5,329.5C 967.998,329.974 978.331,329.474 988.5,328C 987.398,302.07 987.398,276.237 988.5,250.5 Z"/></g>
<g><path style="opacity:1" fill="#606564" d="M 440.5,282.5 C 440.041,285.877 439.374,289.211 438.5,292.5C 437.833,292.5 437.167,292.5 436.5,292.5C 437.658,289.011 438.991,285.678 440.5,282.5 Z"/></g>
<g><path style="opacity:1" fill="#c88900" d="M 245.5,254.5 C 244.836,257.015 243.503,259.181 241.5,261C 246.449,263.532 246.783,266.698 242.5,270.5C 235.778,271.556 231.111,275.223 228.5,281.5C 229.376,282.251 230.376,282.751 231.5,283C 228.292,284.91 225.625,287.41 223.5,290.5C 225.098,292.881 227.432,294.048 230.5,294C 229.57,294.991 228.404,295.491 227,295.5C 224.245,294.237 221.412,293.237 218.5,292.5C 226.114,282.219 233.28,271.552 240,260.5C 241.617,258.237 243.45,256.237 245.5,254.5 Z"/></g>
<g><path style="opacity:1" fill="#747a79" d="M 908.5,289.5 C 921.85,289.167 935.183,289.501 948.5,290.5C 948.376,291.107 948.043,291.44 947.5,291.5C 935.345,290.505 923.011,290.171 910.5,290.5C 909.508,290.672 908.842,290.338 908.5,289.5 Z"/></g>
<g><path style="opacity:1" fill="#787e7f" d="M 1228.5,260.5 C 1229.49,270.319 1229.83,280.319 1229.5,290.5C 1215.99,290.171 1202.66,290.504 1189.5,291.5C 1188.96,291.44 1188.62,291.107 1188.5,290.5C 1201.82,289.501 1215.15,289.167 1228.5,289.5C 1228.5,279.833 1228.5,270.167 1228.5,260.5 Z"/></g>
<g><path style="opacity:1" fill="#717374" d="M 753.5,292.5 C 755.404,292.738 756.738,293.738 757.5,295.5C 755.596,295.262 754.262,294.262 753.5,292.5 Z"/></g>
<g><path style="opacity:1" fill="#2c3437" d="M 744.5,283.5 C 744.833,283.5 745.167,283.5 745.5,283.5C 746.789,285.248 748.289,285.581 750,284.5C 752.299,286.728 754.466,289.061 756.5,291.5C 758.265,292.461 760.265,292.795 762.5,292.5C 761.831,296.101 763.165,299.101 766.5,301.5C 767.325,302.386 768.325,302.719 769.5,302.5C 769.094,304.109 769.094,305.443 769.5,306.5C 772.465,306.179 775.465,305.179 778.5,303.5C 776.567,305.937 774.4,308.271 772,310.5C 767.686,305.856 763.02,301.522 758,297.5C 757.536,296.906 757.369,296.239 757.5,295.5C 756.738,293.738 755.404,292.738 753.5,292.5C 750.167,289.833 747.167,286.833 744.5,283.5 Z"/></g>
<g><path style="opacity:1" fill="#575a5b" d="M 478.5,286.5 C 478.57,290.425 477.903,294.091 476.5,297.5C 476.43,293.575 477.097,289.909 478.5,286.5 Z"/></g>
<g><path style="opacity:1" fill="#132526" d="M 762.5,292.5 C 767.913,292.229 773.246,292.729 778.5,294C 776.416,295.427 776.416,297.093 778.5,299C 777.797,300.693 777.797,302.193 778.5,303.5C 775.465,305.179 772.465,306.179 769.5,306.5C 769.094,305.443 769.094,304.109 769.5,302.5C 768.325,302.719 767.325,302.386 766.5,301.5C 763.165,299.101 761.831,296.101 762.5,292.5 Z"/></g>
<g><path style="opacity:1" fill="#62676b" d="M 1089.5,284.5 C 1091.48,297.124 1092.15,310.124 1091.5,323.5C 1091.5,325.833 1091.5,328.167 1091.5,330.5C 1090.5,330.53 1089.84,330.03 1089.5,329C 1089.6,314.609 1089.6,299.776 1089.5,284.5 Z"/></g>
<g><path style="opacity:1" fill="#c59430" d="M 327.5,289.5 C 330.5,291.833 333.167,294.5 335.5,297.5C 330.968,296.702 328.301,294.035 327.5,289.5 Z"/></g>
<g><path style="opacity:1" fill="#4e5354" d="M 610.5,283.5 C 610.2,288.099 610.533,292.599 611.5,297C 633.497,297.5 655.497,297.667 677.5,297.5C 677.828,308.679 677.495,319.679 676.5,330.5C 676.5,319.833 676.5,309.167 676.5,298.5C 657.5,298.5 638.5,298.5 619.5,298.5C 616.223,298.784 613.057,298.451 610,297.5C 609.185,292.648 609.352,287.981 610.5,283.5 Z"/></g>
<g><path style="opacity:1" fill="#7e8183" d="M 809.5,272.5 C 809.56,271.957 809.893,271.624 810.5,271.5C 811.5,288.821 811.833,306.154 811.5,323.5C 811.5,325.833 811.5,328.167 811.5,330.5C 810.833,311.167 810.167,291.833 809.5,272.5 Z"/></g>
<g><path style="opacity:1" fill="#70777b" d="M 1200.5,302.5 C 1202.5,302.5 1203.5,303.5 1203.5,305.5C 1202.17,304.833 1201.17,303.833 1200.5,302.5 Z"/></g>
<g><path style="opacity:1" fill="#1e2829" d="M 910.5,290.5 C 923.011,290.171 935.345,290.505 947.5,291.5C 941.833,297.833 935.833,303.833 929.5,309.5C 928.791,308.596 927.791,308.263 926.5,308.5C 926.677,303.317 926.677,297.984 926.5,292.5C 921.489,292.666 916.489,292.499 911.5,292C 910.944,291.617 910.611,291.117 910.5,290.5 Z"/></g>
<g><path style="opacity:1" fill="#ca9015" d="M 220.5,302.5 C 224.684,302.17 228.018,303.67 230.5,307C 232.134,307.494 233.801,307.66 235.5,307.5C 235.5,310.167 235.5,312.833 235.5,315.5C 236.978,315.238 238.311,315.571 239.5,316.5C 238.975,317.192 238.308,317.692 237.5,318C 240.215,318.875 241.548,320.708 241.5,323.5C 233.827,317.161 226.827,310.161 220.5,302.5 Z"/></g>
<g><path style="opacity:1" fill="#ebc960" d="M 62.5,308.5 C 62.5,364.833 62.5,421.167 62.5,477.5C 62.5,477.833 62.5,478.167 62.5,478.5C 62.0773,480.781 62.744,482.448 64.5,483.5C 64.5,483.833 64.5,484.167 64.5,484.5C 63.5,484.5 62.5,484.5 61.5,484.5C 61.1676,425.664 61.501,366.998 62.5,308.5 Z"/></g>
<g><path style="opacity:1" fill="#fdca07" d="M 85.5,283.5 C 85.5,285.5 85.5,287.5 85.5,289.5C 84.1667,289.5 82.8333,289.5 81.5,289.5C 81.5,290.5 81.5,291.5 81.5,292.5C 78.0791,292.238 77.0791,293.572 78.5,296.5C 75.5468,299.293 72.2135,301.46 68.5,303C 69.1667,303.333 69.8333,303.667 70.5,304C 68.6667,305.5 66.8333,307 65,308.5C 65.1636,365.176 64.3303,421.509 62.5,477.5C 62.5,421.167 62.5,364.833 62.5,308.5C 62.3505,307.448 62.5172,306.448 63,305.5C 70.714,298.257 78.214,290.924 85.5,283.5 Z"/></g>
<g><path style="opacity:1" fill="#febe00" d="M 85.5,289.5 C 86.3764,289.369 87.0431,289.702 87.5,290.5C 86.2723,292.321 84.6056,293.321 82.5,293.5C 82.128,297.043 80.128,299.21 76.5,300C 79.0867,301.525 79.9201,303.692 79,306.5C 78.044,305.106 76.7106,304.439 75,304.5C 72.4673,306.548 69.634,307.881 66.5,308.5C 66.5,365.5 66.5,422.5 66.5,479.5C 65.0413,479.567 63.7079,479.234 62.5,478.5C 62.5,478.167 62.5,477.833 62.5,477.5C 64.3303,421.509 65.1636,365.176 65,308.5C 66.8333,307 68.6667,305.5 70.5,304C 69.8333,303.667 69.1667,303.333 68.5,303C 72.2135,301.46 75.5468,299.293 78.5,296.5C 77.0791,293.572 78.0791,292.238 81.5,292.5C 81.5,291.5 81.5,290.5 81.5,289.5C 82.8333,289.5 84.1667,289.5 85.5,289.5 Z"/></g>
<g><path style="opacity:1" fill="#d3a14a" d="M 343.5,305.5 C 344.117,305.611 344.617,305.944 345,306.5C 345.832,366.001 345.665,425.335 344.5,484.5C 344.822,424.804 344.488,365.137 343.5,305.5 Z"/></g>
<g><path style="opacity:1" fill="#545a5e" d="M 436.5,292.5 C 436.461,293.583 436.127,294.583 435.5,295.5C 430.88,296.493 426.214,296.827 421.5,296.5C 421.5,307.5 421.5,318.5 421.5,329.5C 430.395,331.161 439.395,331.828 448.5,331.5C 441.679,332.655 434.679,332.821 427.5,332C 424.638,331.73 421.972,330.896 419.5,329.5C 419.389,318.342 419.555,307.008 420,295.5C 423.966,295.53 428.133,295.364 432.5,295C 433.984,294.338 435.317,293.504 436.5,292.5 Z"/></g>
<g><path style="opacity:1" fill="#1a2328" d="M 568.5,207.5 C 603.5,207.5 638.5,207.5 673.5,207.5C 673.5,218.167 673.5,228.833 673.5,239.5C 652.327,239.169 631.327,239.503 610.5,240.5C 609.883,240.389 609.383,240.056 609,239.5C 608.333,242.167 607.667,242.167 607,239.5C 606.751,240.624 606.251,241.624 605.5,242.5C 604.511,238.893 604.177,235.226 604.5,231.5C 609.5,231.5 614.5,231.5 619.5,231.5C 619.5,232.833 619.5,234.167 619.5,235.5C 634.833,235.5 650.167,235.5 665.5,235.5C 665.5,234.167 665.5,232.833 665.5,231.5C 666.833,231.5 668.167,231.5 669.5,231.5C 669.5,226.5 669.5,221.5 669.5,216.5C 668.167,216.5 666.833,216.5 665.5,216.5C 665.5,215.167 665.5,213.833 665.5,212.5C 634.833,212.5 604.167,212.5 573.5,212.5C 573.5,213.833 573.5,215.167 573.5,216.5C 572.167,216.5 570.833,216.5 569.5,216.5C 569.5,252.167 569.5,287.833 569.5,323.5C 601.5,323.5 633.5,323.5 665.5,323.5C 667.5,323.5 669.5,323.5 671.5,323.5C 670.954,317.933 671.621,312.6 673.5,307.5C 671.995,306.158 671.328,304.492 671.5,302.5C 654.267,302.409 636.934,302.409 619.5,302.5C 619.5,301.167 619.5,299.833 619.5,298.5C 638.5,298.5 657.5,298.5 676.5,298.5C 676.5,309.167 676.5,319.833 676.5,330.5C 640.833,330.5 605.167,330.5 569.5,330.5C 568.506,289.572 568.173,248.572 568.5,207.5 Z"/></g>
<g><path style="opacity:1" fill="#122629" d="M 665.5,323.5 C 665.5,318.5 665.5,313.5 665.5,308.5C 650.167,308.5 634.833,308.5 619.5,308.5C 619.5,306.5 619.5,304.5 619.5,302.5C 636.934,302.409 654.267,302.409 671.5,302.5C 671.328,304.492 671.995,306.158 673.5,307.5C 671.621,312.6 670.954,317.933 671.5,323.5C 669.5,323.5 667.5,323.5 665.5,323.5 Z"/></g>
<g><path style="opacity:1" fill="#2d3a37" d="M 473.5,307.5 C 472.207,312.753 469.874,317.419 466.5,321.5C 466.481,319.94 466.148,318.44 465.5,317C 466.581,315.629 467.415,314.129 468,312.5C 468.333,313.167 468.667,313.833 469,314.5C 469.711,312.633 469.211,311.133 467.5,310C 469.287,308.681 471.287,307.848 473.5,307.5 Z"/></g>
<g><path style="opacity:1" fill="#394043" d="M 926.5,308.5 C 927.791,308.263 928.791,308.596 929.5,309.5C 924.21,315.159 918.877,320.825 913.5,326.5C 913.201,324.396 913.534,322.396 914.5,320.5C 915.167,320.833 915.833,321.167 916.5,321.5C 917.167,319.833 917.833,318.167 918.5,316.5C 919.086,316.709 919.586,317.043 920,317.5C 920.833,315.333 922.333,313.833 924.5,313C 923.66,311.334 924.16,311.167 926,312.5C 926.49,311.207 926.657,309.873 926.5,308.5 Z"/></g>
<g><path style="opacity:1" fill="#fcca0d" d="M 172.5,317.5 C 164.78,324.889 157.114,332.222 149.5,339.5C 147.51,363.143 146.843,387.143 147.5,411.5C 147.5,413.167 147.5,414.833 147.5,416.5C 146.67,426.325 146.17,436.325 146,446.5C 145.64,411.126 145.307,375.792 145,340.5C 145.374,339.584 145.874,338.75 146.5,338C 148.256,337.798 149.922,337.298 151.5,336.5C 151.291,335.914 150.957,335.414 150.5,335C 152.891,333.691 152.891,332.691 150.5,332C 152.557,331.695 154.557,331.695 156.5,332C 157.711,330.887 157.711,329.72 156.5,328.5C 158.833,326.833 160.833,324.833 162.5,322.5C 163.651,321.269 164.817,321.269 166,322.5C 166.003,318.118 168.169,316.451 172.5,317.5 Z"/></g>
<g><path style="opacity:1" fill="#ead678" d="M 149.5,339.5 C 148.511,363.092 148.177,386.759 148.5,410.5C 182.671,410.168 216.671,410.502 250.5,411.5C 221.5,411.5 192.5,411.5 163.5,411.5C 158.5,411.5 153.5,411.5 148.5,411.5C 148.167,411.5 147.833,411.5 147.5,411.5C 146.843,387.143 147.51,363.143 149.5,339.5 Z"/></g>
<g><path style="opacity:1" fill="#d6ac74" d="M 257.5,339.5 C 258.5,339.5 259.5,339.5 260.5,339.5C 260.5,341.833 260.5,344.167 260.5,346.5C 260.5,364.5 260.5,382.5 260.5,400.5C 260.806,403.385 260.473,406.052 259.5,408.5C 259.667,386.164 259.5,363.831 259,341.5C 258.283,340.956 257.783,340.289 257.5,339.5 Z"/></g>
<g><path style="opacity:1" fill="#c48f00" d="M 260.5,346.5 C 261.832,355.141 262.498,364.141 262.5,373.5C 262.498,382.859 261.832,391.859 260.5,400.5C 260.5,382.5 260.5,364.5 260.5,346.5 Z"/></g>
<g><path style="opacity:1" fill="#fec304" d="M 774.5,363.5 C 795.291,368.971 810.291,381.305 819.5,400.5C 819.239,404.492 819.906,408.326 821.5,412C 821.768,420.711 821.434,429.544 820.5,438.5C 820.752,440.073 821.418,441.406 822.5,442.5C 822.579,445.271 822.079,447.937 821,450.5C 804.004,485.246 776.504,498.412 738.5,490C 704.761,475.223 690.261,449.39 695,412.5C 698.784,397.6 706.617,385.267 718.5,375.5C 721.606,373.048 724.939,371.048 728.5,369.5C 731.167,369.5 733.833,369.5 736.5,369.5C 736.5,368.5 736.5,367.5 736.5,366.5C 740.046,366.441 743.379,365.608 746.5,364C 755.827,363.5 765.161,363.334 774.5,363.5 Z M 752.5,402.5 C 773.44,400.943 783.94,410.609 784,431.5C 778.742,448.376 767.576,454.71 750.5,450.5C 737.448,444.21 732.282,433.876 735,419.5C 738.671,411.385 744.504,405.718 752.5,402.5 Z"/></g>
<g><path style="opacity:1" fill="#fec305" d="M 569.5,477.5 C 571.49,454.19 572.157,430.524 571.5,406.5C 583.989,405.505 596.656,405.171 609.5,405.5C 609.923,403.219 609.256,401.552 607.5,400.5C 594.437,389.661 582.103,377.828 570.5,365C 593.833,364.333 617.167,364.333 640.5,365C 644.211,365.844 647.877,366.844 651.5,368C 656.158,370.611 660.825,373.111 665.5,375.5C 669.54,380.538 673.374,385.872 677,391.5C 687.819,416.339 683.319,437.839 663.5,456C 656.909,460.868 649.576,464.201 641.5,466C 631.345,466.443 621.345,466.776 611.5,467C 610.321,471.44 610.321,475.94 611.5,480.5C 611.514,482.593 610.848,484.426 609.5,486C 596.833,486.667 584.167,486.667 571.5,486C 569.679,483.544 569.012,480.711 569.5,477.5 Z M 611.5,404.5 C 619.174,404.334 626.841,404.5 634.5,405C 645.148,411.949 645.148,418.949 634.5,426C 626.833,426.667 619.167,426.667 611.5,426C 610.216,418.864 610.216,411.697 611.5,404.5 Z"/></g>
<g><path style="opacity:1" fill="#fad032" d="M 774.5,363.5 C 765.161,363.334 755.827,363.5 746.5,364C 743.379,365.608 740.046,366.441 736.5,366.5C 736.5,367.5 736.5,368.5 736.5,369.5C 733.833,369.5 731.167,369.5 728.5,369.5C 743.051,361.631 758.384,359.631 774.5,363.5 Z"/></g>
<g><path style="opacity:1" fill="#fec303" d="M 544.5,364.5 C 545.832,365.83 546.665,367.497 547,369.5C 547.784,408.179 547.617,446.846 546.5,485.5C 533.784,485.795 521.117,485.462 508.5,484.5C 507.377,482.312 507.377,479.979 508.5,477.5C 508.5,451.167 508.5,424.833 508.5,398.5C 509.978,398.762 511.311,398.429 512.5,397.5C 511.008,395.834 509.175,394.834 507,394.5C 493.188,395.29 479.355,395.79 465.5,396C 466.252,396.671 466.586,397.504 466.5,398.5C 466.818,427.298 466.485,456.298 465.5,485.5C 452.513,486.666 439.513,486.833 426.5,486C 425.577,483.959 425.244,481.792 425.5,479.5C 426.833,461.512 427.5,443.179 427.5,424.5C 427.5,405.821 426.833,387.488 425.5,369.5C 425.5,367.833 425.5,366.167 425.5,364.5C 465.167,364.5 504.833,364.5 544.5,364.5 Z"/></g>
<g><path style="opacity:1" fill="#f7cd00" d="M 425.5,369.5 C 426.833,387.488 427.5,405.821 427.5,424.5C 427.5,443.179 426.833,461.512 425.5,479.5C 425.5,442.833 425.5,406.167 425.5,369.5 Z"/></g>
<g><path style="opacity:1" fill="#fcd32f" d="M 544.5,364.5 C 545.822,364.33 546.989,364.663 548,365.5C 548.167,385.5 548.333,405.5 548.5,425.5C 548.5,445.845 547.833,465.845 546.5,485.5C 547.617,446.846 547.784,408.179 547,369.5C 546.665,367.497 545.832,365.83 544.5,364.5 Z"/></g>
<g><path style="opacity:1" fill="#fcd133" d="M 508.5,477.5 C 507.502,451.339 507.169,425.005 507.5,398.5C 493.833,398.5 480.167,398.5 466.5,398.5C 466.586,397.504 466.252,396.671 465.5,396C 479.355,395.79 493.188,395.29 507,394.5C 509.175,394.834 511.008,395.834 512.5,397.5C 511.311,398.429 509.978,398.762 508.5,398.5C 508.5,424.833 508.5,451.167 508.5,477.5 Z"/></g>
<g><path style="opacity:1" fill="#fdde35" d="M 607.5,400.5 C 609.256,401.552 609.923,403.219 609.5,405.5C 596.656,405.171 583.989,405.505 571.5,406.5C 570.833,406.5 570.167,406.5 569.5,406.5C 569.611,405.883 569.944,405.383 570.5,405C 583.18,404.833 595.846,404.333 608.5,403.5C 607.873,402.583 607.539,401.583 607.5,400.5 Z"/></g>
<g><path style="opacity:1" fill="#c4940b" d="M 256.5,411.5 C 256.631,412.376 256.298,413.043 255.5,413.5C 224.915,413.46 194.248,413.46 163.5,413.5C 163.5,412.833 163.5,412.167 163.5,411.5C 192.5,411.5 221.5,411.5 250.5,411.5C 252.653,410.427 254.653,410.427 256.5,411.5 Z"/></g>
<g><path style="opacity:1" fill="#935d01" d="M 148.5,411.5 C 153.5,411.5 158.5,411.5 163.5,411.5C 163.5,412.167 163.5,412.833 163.5,413.5C 158.591,434.888 153.758,456.221 149,477.5C 148.5,455.503 148.333,433.503 148.5,411.5 Z"/></g>
<g><path style="opacity:1" fill="#fdd102" d="M 569.5,406.5 C 570.167,406.5 570.833,406.5 571.5,406.5C 572.157,430.524 571.49,454.19 569.5,477.5C 569.5,453.833 569.5,430.167 569.5,406.5 Z"/></g>
<g><path style="opacity:1" fill="#f8cf19" d="M 819.5,400.5 C 821.751,405.145 823.251,410.145 824,415.5C 824.667,423.5 824.667,431.5 824,439.5C 823.768,440.737 823.268,441.737 822.5,442.5C 821.418,441.406 820.752,440.073 820.5,438.5C 821.434,429.544 821.768,420.711 821.5,412C 819.906,408.326 819.239,404.492 819.5,400.5 Z"/></g>
<g><path style="opacity:1" fill="#896000" d="M 151.5,415.5 C 152.5,415.5 153.5,415.5 154.5,415.5C 154.088,425.205 154.088,434.871 154.5,444.5C 153.068,448.013 152.235,451.68 152,455.5C 150.431,454.286 149.598,452.619 149.5,450.5C 150.101,438.772 150.767,427.106 151.5,415.5 Z"/></g>
<g><path style="opacity:1" fill="#d58400" d="M 158.5,480.5 C 219.668,479.168 281.001,479.168 342.5,480.5C 281.099,481.829 219.766,481.829 158.5,480.5 Z"/></g>
<g><path style="opacity:1" fill="#fbd009" d="M 147.5,483.5 C 147.5,483.833 147.5,484.167 147.5,484.5C 119.587,484.523 91.9204,484.523 64.5,484.5C 64.5,484.167 64.5,483.833 64.5,483.5C 91.9586,483.478 119.625,483.478 147.5,483.5 Z"/></g>
<g><path style="opacity:1" fill="#c7980f" d="M 147.5,482.5 C 212.931,483.163 278.264,483.83 343.5,484.5C 278.082,484.544 212.749,484.544 147.5,484.5C 147.5,484.167 147.5,483.833 147.5,483.5C 147.5,483.167 147.5,482.833 147.5,482.5 Z"/></g>
<g><path style="opacity:1" fill="#f7de54" d="M 508.5,484.5 C 521.117,485.462 533.784,485.795 546.5,485.5C 534.34,486.66 522.007,486.827 509.5,486C 508.944,485.617 508.611,485.117 508.5,484.5 Z"/></g>
</svg>
