<?xml version="1.0" encoding="UTF-8"?>
<!DOCTYPE svg PUBLIC "-//W3C//DTD SVG 1.1//EN" "http://www.w3.org/Graphics/SVG/1.1/DTD/svg11.dtd">
<svg xmlns="http://www.w3.org/2000/svg" version="1.1" width="1280px" height="960px" style="shape-rendering:geometricPrecision; text-rendering:geometricPrecision; image-rendering:optimizeQuality; fill-rule:evenodd; clip-rule:evenodd" xmlns:xlink="http://www.w3.org/1999/xlink">
<g><path style="opacity:0.944" fill="#fdd423" d="M 129.5,449.5 C 150.503,449.333 171.503,449.5 192.5,450C 193.737,450.232 194.737,450.732 195.5,451.5C 194.737,452.268 193.737,452.768 192.5,453C 167.169,453.5 141.836,453.667 116.5,453.5C 116.5,452.5 116.5,451.5 116.5,450.5C 121.032,450.818 125.366,450.485 129.5,449.5 Z"/></g>
<g><path style="opacity:1" fill="#ab0404" d="M 919.5,449.5 C 936.251,449.025 950.751,454.358 963,465.5C 965.876,469.919 968.21,474.586 970,479.5C 970.77,487.548 970.603,495.548 969.5,503.5C 968.732,502.737 968.232,501.737 968,500.5C 965.207,504.423 963.207,508.756 962,513.5C 960.745,515.853 959.078,516.52 957,515.5C 954.4,515.918 952.233,517.084 950.5,519C 950.833,519.333 951.167,519.667 951.5,520C 946.955,521.546 942.622,523.546 938.5,526C 926.577,527.733 914.577,528.733 902.5,529C 903.737,529.232 904.737,529.732 905.5,530.5C 904.5,530.5 903.5,530.5 902.5,530.5C 902.5,543.5 902.5,556.5 902.5,569.5C 901.669,556.34 901.169,543.006 901,529.5C 900.5,542.496 900.333,555.496 900.5,568.5C 888.167,568.5 875.833,568.5 863.5,568.5C 863.667,555.829 863.5,543.162 863,530.5C 862.713,528.109 862.213,525.776 861.5,523.5C 862.754,520.024 863.421,516.358 863.5,512.5C 863.157,505.131 862.49,497.798 861.5,490.5C 861.91,484.656 863.076,478.989 865,473.5C 865.914,474.654 866.747,474.487 867.5,473C 867.167,472.667 866.833,472.333 866.5,472C 870.5,471.333 870.5,470.667 866.5,470C 867.667,469.5 868.5,468.667 869,467.5C 869.333,468.167 869.667,468.833 870,469.5C 870.419,468.328 871.085,467.328 872,466.5C 872.617,465.551 872.451,464.718 871.5,464C 872.167,463.667 872.833,463.333 873.5,463C 872.949,461.602 872.616,460.268 872.5,459C 874.883,458.935 875.55,458.102 874.5,456.5C 877.64,455.909 880.64,455.076 883.5,454C 898.844,453.833 914.178,453.333 929.5,452.5C 925.541,451.673 921.541,451.173 917.5,451C 918.416,450.722 919.082,450.222 919.5,449.5 Z M 922.5,499.5 C 916.165,502.196 909.498,503.196 902.5,502.5C 902.5,494.5 902.5,486.5 902.5,478.5C 906.311,477.355 910.311,477.188 914.5,478C 924.707,478.233 928.873,483.399 927,493.5C 926.208,496.106 924.708,498.106 922.5,499.5 Z"/></g>
<g><path style="opacity:1" fill="#a30404" d="M 1210.5,456.5 C 1213.24,455.612 1215.91,454.445 1218.5,453C 1220.5,452.333 1222.5,452.333 1224.5,453C 1220.88,452.621 1218.71,454.121 1218,457.5C 1216.44,459.359 1214.61,460.859 1212.5,462C 1214.21,463.133 1214.71,464.633 1214,466.5C 1213.67,466.167 1213.33,465.833 1213,465.5C 1206.84,472.306 1201.17,479.306 1196,486.5C 1195.59,486.043 1195.09,485.709 1194.5,485.5C 1191.67,487.571 1189.34,490.071 1187.5,493C 1187.83,494.667 1188.17,496.333 1188.5,498C 1185.6,498.943 1183.27,500.61 1181.5,503C 1181.83,503.333 1182.17,503.667 1182.5,504C 1180.51,505.368 1178.51,505.868 1176.5,505.5C 1174.64,504.724 1173.31,503.391 1172.5,501.5C 1171.5,494.532 1171.17,487.532 1171.5,480.5C 1170.5,480.5 1169.5,480.5 1168.5,480.5C 1168.36,478.876 1169.03,477.71 1170.5,477C 1169.74,475.488 1168.74,474.154 1167.5,473C 1169.64,470.432 1169.64,468.098 1167.5,466C 1168.17,464 1168.83,462 1169.5,460C 1166.39,459.457 1163.56,458.291 1161,456.5C 1158.56,456.546 1156.06,456.879 1153.5,457.5C 1154.68,459.198 1154.68,460.865 1153.5,462.5C 1151.09,464.409 1149.25,466.743 1148,469.5C 1146.48,469.057 1145.31,469.724 1144.5,471.5C 1146.6,473.127 1146.94,475.127 1145.5,477.5C 1145.78,480.131 1146.45,482.631 1147.5,485C 1146.24,486.705 1145.9,488.372 1146.5,490C 1144.91,489.383 1143.57,489.716 1142.5,491C 1144.17,491.333 1145.83,491.667 1147.5,492C 1145.64,492.684 1143.97,493.684 1142.5,495C 1144.88,495.974 1144.54,496.641 1141.5,497C 1145.62,500.39 1144.95,502.057 1139.5,502C 1139.85,499.862 1139.35,497.696 1138,495.5C 1137.11,502.044 1136.28,508.544 1135.5,515C 1136.4,525.266 1136.57,535.766 1136,546.5C 1134.06,552.259 1134.39,557.926 1137,563.5C 1141.54,563.265 1146.04,564.265 1150.5,566.5C 1152.57,565.462 1154.57,565.796 1156.5,567.5C 1157.94,566.019 1158.61,566.352 1158.5,568.5C 1149.5,568.5 1140.5,568.5 1131.5,568.5C 1131.02,533.438 1131.52,498.438 1133,463.5C 1136.12,457.354 1140.96,453.188 1147.5,451C 1156.83,450.5 1166.16,450.334 1175.5,450.5C 1175.33,466.17 1175.5,481.837 1176,497.5C 1187.62,484.035 1199.12,470.369 1210.5,456.5 Z"/></g>
<g><path style="opacity:1" fill="#fdbf03" d="M 129.5,449.5 C 125.366,450.485 121.032,450.818 116.5,450.5C 116.5,451.5 116.5,452.5 116.5,453.5C 141.836,453.667 167.169,453.5 192.5,453C 193.737,452.768 194.737,452.268 195.5,451.5C 197.262,452.262 198.262,453.596 198.5,455.5C 196.915,455.015 195.415,455.681 194,457.5C 193.501,463.157 193.334,468.824 193.5,474.5C 193.703,476.39 193.037,477.89 191.5,479C 187.812,479.45 184.146,479.283 180.5,478.5C 179.711,478.217 179.044,477.717 178.5,477C 179.337,475.989 179.67,474.822 179.5,473.5C 178.448,473.351 177.448,473.517 176.5,474C 177.696,474.654 177.696,475.154 176.5,475.5C 175.643,474.264 174.977,472.931 174.5,471.5C 175.365,470.417 176.365,470.251 177.5,471C 177.167,471.333 176.833,471.667 176.5,472C 177.825,471.852 178.992,472.018 180,472.5C 181.487,471.747 181.654,470.914 180.5,470C 181.938,469.781 183.271,469.281 184.5,468.5C 183.975,467.808 183.308,467.308 182.5,467C 183.833,466.667 185.167,466.333 186.5,466C 186.167,465.667 185.833,465.333 185.5,465C 186.931,461.93 188.597,458.93 190.5,456C 180.135,455.985 169.802,455.819 159.5,455.5C 159.167,459.5 158.833,459.5 158.5,455.5C 154.947,455.844 151.447,456.511 148,457.5C 139.491,453.893 130.991,453.726 122.5,457C 121.833,458 121.167,459 120.5,460C 122.398,463.202 124.731,466.035 127.5,468.5C 125.252,469.324 125.086,470.324 127,471.5C 128.487,470.259 129.32,470.759 129.5,473C 128.793,475.587 127.459,477.754 125.5,479.5C 121.5,479.5 117.5,479.5 113.5,479.5C 113.831,470.808 113.498,462.141 112.5,453.5C 111.583,454.127 110.583,454.461 109.5,454.5C 109.916,452.248 111.249,450.748 113.5,450C 118.823,449.501 124.156,449.334 129.5,449.5 Z"/></g>
<g><path style="opacity:1" fill="#feba01" d="M 180.5,478.5 C 162.194,479.274 143.861,479.607 125.5,479.5C 127.459,477.754 128.793,475.587 129.5,473C 129.32,470.759 128.487,470.259 127,471.5C 125.086,470.324 125.252,469.324 127.5,468.5C 124.731,466.035 122.398,463.202 120.5,460C 121.167,459 121.833,458 122.5,457C 130.991,453.726 139.491,453.893 148,457.5C 151.447,456.511 154.947,455.844 158.5,455.5C 158.833,459.5 159.167,459.5 159.5,455.5C 169.802,455.819 180.135,455.985 190.5,456C 188.597,458.93 186.931,461.93 185.5,465C 185.833,465.333 186.167,465.667 186.5,466C 185.167,466.333 183.833,466.667 182.5,467C 183.308,467.308 183.975,467.808 184.5,468.5C 183.271,469.281 181.938,469.781 180.5,470C 181.654,470.914 181.487,471.747 180,472.5C 178.992,472.018 177.825,471.852 176.5,472C 176.833,471.667 177.167,471.333 177.5,471C 176.365,470.251 175.365,470.417 174.5,471.5C 174.977,472.931 175.643,474.264 176.5,475.5C 177.696,475.154 177.696,474.654 176.5,474C 177.448,473.517 178.448,473.351 179.5,473.5C 179.67,474.822 179.337,475.989 178.5,477C 179.044,477.717 179.711,478.217 180.5,478.5 Z"/></g>
<g><path style="opacity:1" fill="#a40605" d="M 459.5,450.5 C 458.391,451.29 457.058,451.79 455.5,452C 463.5,452.333 471.5,452.667 479.5,453C 475.91,453.311 472.577,454.144 469.5,455.5C 466.455,455.704 463.621,455.704 461,455.5C 460.017,457.448 458.85,459.282 457.5,461C 455.613,460.577 453.613,460.744 451.5,461.5C 451.5,462.5 451.5,463.5 451.5,464.5C 449.339,464.826 447.506,465.826 446,467.5C 444.695,471.834 443.862,476 443.5,480C 444.167,480.333 444.833,480.667 445.5,481C 444.5,483.333 442.833,485 440.5,486C 440.833,487 441.167,488 441.5,489C 436.167,489.667 436.167,490.333 441.5,491C 439.833,491.333 438.167,491.667 436.5,492C 436.833,492.333 437.167,492.667 437.5,493C 436.692,493.308 436.025,493.808 435.5,494.5C 435.827,496.667 436.494,499.001 437.5,501.5C 435.173,501.247 433.173,501.914 431.5,503.5C 429.566,503.099 428.066,502.099 427,500.5C 425.392,503.621 424.559,506.954 424.5,510.5C 422.856,510.286 421.356,510.62 420,511.5C 419.667,510.5 419.333,509.5 419,508.5C 418.346,509.696 417.846,509.696 417.5,508.5C 418.005,507.081 419.005,506.415 420.5,506.5C 420.721,509.097 421.221,509.097 422,506.5C 427.353,489.437 433.687,472.77 441,456.5C 446.024,451.215 452.19,449.215 459.5,450.5 Z"/></g>
<g><path style="opacity:0.58" fill="#9e0304" d="M 919.5,449.5 C 919.082,450.222 918.416,450.722 917.5,451C 921.541,451.173 925.541,451.673 929.5,452.5C 914.178,453.333 898.844,453.833 883.5,454C 880.64,455.076 877.64,455.909 874.5,456.5C 875.55,458.102 874.883,458.935 872.5,459C 872.616,460.268 872.949,461.602 873.5,463C 872.833,463.333 872.167,463.667 871.5,464C 872.451,464.718 872.617,465.551 872,466.5C 871.085,467.328 870.419,468.328 870,469.5C 869.667,468.833 869.333,468.167 869,467.5C 868.5,468.667 867.667,469.5 866.5,470C 870.5,470.667 870.5,471.333 866.5,472C 866.833,472.333 867.167,472.667 867.5,473C 866.747,474.487 865.914,474.654 865,473.5C 863.076,478.989 861.91,484.656 861.5,490.5C 862.49,497.798 863.157,505.131 863.5,512.5C 863.421,516.358 862.754,520.024 861.5,523.5C 862.213,525.776 862.713,528.109 863,530.5C 863.5,543.162 863.667,555.829 863.5,568.5C 875.833,568.5 888.167,568.5 900.5,568.5C 900.333,555.496 900.5,542.496 901,529.5C 901.169,543.006 901.669,556.34 902.5,569.5C 888.01,570.496 873.343,570.829 858.5,570.5C 858.333,535.832 858.5,501.165 859,466.5C 861.5,458.667 866.667,453.5 874.5,451C 889.46,449.624 904.46,449.124 919.5,449.5 Z"/></g>
<g><path style="opacity:1" fill="#a40505" d="M 1113.5,504.5 C 1112.88,485.971 1112.21,469.304 1111.5,454.5C 1103.8,454.246 1096.46,455.079 1089.5,457C 1090.67,458.871 1090.17,460.371 1088,461.5C 1087.33,460.833 1086.67,460.167 1086,459.5C 1086.86,462.863 1085.36,464.697 1081.5,465C 1084.44,470.311 1083.94,471.144 1080,467.5C 1078.91,469.349 1077.57,471.016 1076,472.5C 1075.67,472.167 1075.33,471.833 1075,471.5C 1074.8,473.256 1074.3,474.922 1073.5,476.5C 1073.17,475.833 1072.83,475.167 1072.5,474.5C 1069.44,477.746 1067.77,481.579 1067.5,486C 1066.03,486.635 1064.7,487.469 1063.5,488.5C 1062.81,487.975 1062.31,487.308 1062,486.5C 1060.81,488.525 1059.31,488.859 1057.5,487.5C 1056.57,489.113 1055.74,490.779 1055,492.5C 1053.97,490.579 1052.47,490.579 1050.5,492.5C 1051.53,492.296 1052.53,492.796 1053.5,494C 1049.15,494.419 1048.81,495.086 1052.5,496C 1050.77,496.865 1049.11,497.531 1047.5,498C 1048.83,498.333 1050.17,498.667 1051.5,499C 1047.34,499.94 1045.01,502.107 1044.5,505.5C 1045.2,506.863 1045.2,508.029 1044.5,509C 1045.83,509.333 1047.17,509.667 1048.5,510C 1047.01,512.022 1047.34,513.688 1049.5,515C 1047.46,515.93 1045.62,516.43 1044,516.5C 1041.31,515.159 1039.65,513.493 1039,511.5C 1034.52,513.161 1030.35,515.494 1026.5,518.5C 1027.51,519.396 1027.51,520.062 1026.5,520.5C 1025.2,519.91 1024.37,518.91 1024,517.5C 1023.67,518.167 1023.33,518.833 1023,519.5C 1021.91,518.707 1020.75,518.04 1019.5,517.5C 1018.77,513.826 1018.1,510.159 1017.5,506.5C 1016.94,489.736 1017.6,472.236 1019.5,454C 1012.94,452.414 1006.28,452.08 999.5,453C 1005.45,454.032 1011.45,454.865 1017.5,455.5C 1018.34,457.284 1017.51,458.284 1015,458.5C 1013.17,457.99 1013.01,457.156 1014.5,456C 1012.5,455.333 1010.5,455.333 1008.5,456C 1009.33,456.915 1010.33,457.581 1011.5,458C 1009.11,458.187 1007.94,459.02 1008,460.5C 1002.83,458.794 1000.5,460.794 1001,466.5C 999.984,467.634 999.317,467.301 999,465.5C 998.667,467.167 998.333,468.833 998,470.5C 997,470.167 996,469.833 995,469.5C 994.5,471.333 993.333,472.5 991.5,473C 992.167,473.333 992.833,473.667 993.5,474C 992.322,474.967 990.989,475.467 989.5,475.5C 988.289,476.274 988.289,477.107 989.5,478C 988.552,478.483 987.552,478.649 986.5,478.5C 986.61,486.222 986.61,493.888 986.5,501.5C 986.864,503.733 987.864,505.566 989.5,507C 988.5,508 987.5,509 986.5,510C 986.833,510.333 987.167,510.667 987.5,511C 987.024,516.899 986.024,522.733 984.5,528.5C 985.537,531.789 987.204,534.622 989.5,537C 986.978,538.686 987.311,540.019 990.5,541C 989.833,541.333 989.167,541.667 988.5,542C 989.451,542.718 989.617,543.551 989,544.5C 985.89,543.327 985.723,543.827 988.5,546C 986.094,548.752 986.094,551.418 988.5,554C 987.287,556.641 988.287,557.808 991.5,557.5C 992.157,563.569 994.99,565.236 1000,562.5C 1000.25,563.624 1000.75,564.624 1001.5,565.5C 1003.12,563.561 1004.96,563.228 1007,564.5C 1007.67,563.833 1008.33,563.167 1009,562.5C 1010.84,563.833 1011.34,563.666 1010.5,562C 1012.83,561 1015.17,560 1017.5,559C 1018.7,558.097 1019.53,556.931 1020,555.5C 1021.82,555.351 1023.65,555.351 1025.5,555.5C 1025.25,557.17 1024.58,558.67 1023.5,560C 1020.11,561.74 1016.78,563.573 1013.5,565.5C 1004.85,566.665 996.186,566.832 987.5,566C 986.874,565.25 986.374,564.416 986,563.5C 985.492,559.482 984.992,555.316 984.5,551C 984.325,549.342 983.658,548.009 982.5,547C 983.576,545.274 983.743,543.441 983,541.5C 982.667,542.167 982.333,542.833 982,543.5C 981.333,518.5 981.333,493.5 982,468.5C 983.343,464.49 985.509,460.99 988.5,458C 987.906,457.536 987.239,457.369 986.5,457.5C 989.256,454.611 992.589,452.444 996.5,451C 1005.16,450.5 1013.83,450.334 1022.5,450.5C 1022.33,471.503 1022.5,492.503 1023,513.5C 1034.28,499.693 1045.61,485.693 1057,471.5C 1062.52,464.978 1068.36,458.812 1074.5,453C 1076.09,452.138 1077.75,451.471 1079.5,451C 1090.83,450.5 1102.16,450.333 1113.5,450.5C 1113.5,468.5 1113.5,486.5 1113.5,504.5 Z"/></g>
<g><path style="opacity:1" fill="#a50405" d="M 580.5,449.5 C 586.279,451.055 592.279,452.222 598.5,453C 590.54,453.115 582.54,453.782 574.5,455C 573.059,456.646 571.392,456.813 569.5,455.5C 568.833,455.833 568.167,456.167 567.5,456.5C 568.641,457.425 568.641,458.259 567.5,459C 565.212,459.822 562.878,460.489 560.5,461C 561.603,462.68 561.27,464.18 559.5,465.5C 557.922,466.072 556.422,466.406 555,466.5C 555,468.5 555,470.5 555,472.5C 553.333,473.5 551.667,474.5 550,475.5C 550.57,477.693 550.236,479.693 549,481.5C 548.667,481.167 548.333,480.833 548,480.5C 547.761,484.387 546.928,488.054 545.5,491.5C 544.325,491.281 543.325,491.614 542.5,492.5C 543.441,492.489 544.108,492.989 544.5,494C 543.516,495.657 542.516,497.323 541.5,499C 542.34,500.666 541.84,500.833 540,499.5C 539.682,501.061 538.849,502.228 537.5,503C 537.366,504.545 537.7,506.212 538.5,508C 535.949,514.492 533.282,520.492 530.5,526C 532.594,528.339 532.594,531.006 530.5,534C 530.62,535.798 530.953,537.631 531.5,539.5C 528.136,542.893 525.803,546.893 524.5,551.5C 522.692,551.491 521.025,551.991 519.5,553C 520.328,553.915 521.328,554.581 522.5,555C 521.783,557.003 521.45,559.169 521.5,561.5C 522.025,562.192 522.692,562.692 523.5,563C 525.521,563.14 527.355,563.307 529,563.5C 529.333,562.833 529.667,562.167 530,561.5C 532,562.167 533.333,563.5 534,565.5C 534.741,564.359 535.575,564.359 536.5,565.5C 537.503,563.458 538.837,563.125 540.5,564.5C 542.225,563.985 543.892,563.318 545.5,562.5C 546.61,560.8 547.943,559.466 549.5,558.5C 548.821,562.016 546.821,564.516 543.5,566C 533.875,567.294 524.208,567.294 514.5,566C 514.043,565.586 513.709,565.086 513.5,564.5C 514.497,560.521 514.997,556.521 515,552.5C 514.165,556.065 512.665,559.232 510.5,562C 511.537,563.851 510.87,565.017 508.5,565.5C 519.934,533.883 531.434,502.216 543,470.5C 544.811,465.546 547.144,460.879 550,456.5C 559.211,450.422 569.377,448.089 580.5,449.5 Z"/></g>
<g><path style="opacity:1" fill="#aa0403" d="M 419.5,503.5 C 419.557,504.609 419.89,505.609 420.5,506.5C 419.005,506.415 418.005,507.081 417.5,508.5C 417.846,509.696 418.346,509.696 419,508.5C 419.333,509.5 419.667,510.5 420,511.5C 421.356,510.62 422.856,510.286 424.5,510.5C 424.559,506.954 425.392,503.621 427,500.5C 428.066,502.099 429.566,503.099 431.5,503.5C 433.173,501.914 435.173,501.247 437.5,501.5C 436.494,499.001 435.827,496.667 435.5,494.5C 436.025,493.808 436.692,493.308 437.5,493C 437.167,492.667 436.833,492.333 436.5,492C 438.167,491.667 439.833,491.333 441.5,491C 436.167,490.333 436.167,489.667 441.5,489C 441.167,488 440.833,487 440.5,486C 442.833,485 444.5,483.333 445.5,481C 444.833,480.667 444.167,480.333 443.5,480C 443.862,476 444.695,471.834 446,467.5C 447.506,465.826 449.339,464.826 451.5,464.5C 451.5,463.5 451.5,462.5 451.5,461.5C 453.613,460.744 455.613,460.577 457.5,461C 458.85,459.282 460.017,457.448 461,455.5C 463.621,455.704 466.455,455.704 469.5,455.5C 469.047,456.458 468.381,457.292 467.5,458C 468.5,459 469.5,460 470.5,461C 469.265,463.179 467.931,464.513 466.5,465C 466.667,465.5 466.833,466 467,466.5C 468.268,466.384 469.602,466.051 471,465.5C 472.551,467.952 471.884,468.619 469,467.5C 467.779,468.272 466.779,469.272 466,470.5C 465.383,469.551 465.549,468.718 466.5,468C 465.551,467.383 464.718,467.549 464,468.5C 462.885,466.092 461.218,464.092 459,462.5C 457.937,463.438 456.77,464.438 455.5,465.5C 456.091,467.85 457.091,470.017 458.5,472C 457.833,473.333 457.167,474.667 456.5,476C 457.884,477.957 457.217,478.957 454.5,479C 455.641,479.741 455.641,480.575 454.5,481.5C 455.603,481.998 456.603,482.331 457.5,482.5C 456.833,483.167 456.167,483.833 455.5,484.5C 459.131,486.131 462.464,487.465 465.5,488.5C 464.066,489.23 462.9,490.23 462,491.5C 461.667,491.167 461.333,490.833 461,490.5C 460.5,491.5 460,492.5 459.5,493.5C 461.507,495.008 463.174,496.842 464.5,499C 462.658,498.932 460.991,499.099 459.5,499.5C 457.497,497.518 455.163,497.518 452.5,499.5C 452,500.5 451.5,501.5 451,502.5C 447.033,516.608 442.533,530.942 437.5,545.5C 437.942,546.739 438.609,547.739 439.5,548.5C 439.5,549.5 439.5,550.5 439.5,551.5C 438.833,550.833 438.167,550.167 437.5,549.5C 437.565,549.062 437.399,548.728 437,548.5C 435.417,550.055 433.584,551.222 431.5,552C 430.884,554.179 429.717,556.012 428,557.5C 425.966,554.58 423.132,552.747 419.5,552C 419.501,550.601 419.835,549.101 420.5,547.5C 418.355,546.318 418.355,544.818 420.5,543C 415.376,541.53 413.209,538.364 414,533.5C 412.984,534.634 412.317,534.301 412,532.5C 410.915,533.293 409.748,533.96 408.5,534.5C 406.97,531.813 404.803,529.813 402,528.5C 401.714,526.001 401.881,523.835 402.5,522C 399.833,521 399.833,520 402.5,519C 401.207,518.51 399.873,518.343 398.5,518.5C 398.773,516.549 398.107,515.049 396.5,514C 397.991,511.978 397.658,510.312 395.5,509C 396.665,507.132 396.332,505.298 394.5,503.5C 394.251,504.582 394.085,505.915 394,507.5C 392.401,505.585 390.235,503.585 387.5,501.5C 385.783,502.668 385.116,504.335 385.5,506.5C 384.102,513.782 382.936,521.115 382,528.5C 380.398,530.263 379.898,532.096 380.5,534C 379.523,540.664 377.856,547.164 375.5,553.5C 375.582,557.079 375.748,560.746 376,564.5C 375.25,565.126 374.416,565.626 373.5,566C 366.176,567.029 359.009,566.529 352,564.5C 349.994,566.002 348.328,565.669 347,563.5C 346.655,558.191 346.489,553.025 346.5,548C 347.289,545.635 348.456,543.468 350,541.5C 350.589,535.481 351.755,529.647 353.5,524C 352.663,522.989 352.33,521.822 352.5,520.5C 353.552,520.649 354.552,520.483 355.5,520C 353.627,517.887 352.627,515.387 352.5,512.5C 353.508,503.945 354.841,495.445 356.5,487C 356.458,485.033 355.958,483.199 355,481.5C 354.617,482.056 354.117,482.389 353.5,482.5C 353.232,480.901 353.566,479.568 354.5,478.5C 354.821,480.048 355.821,480.715 357.5,480.5C 357.592,476.5 358.259,472.667 359.5,469C 358.833,468.667 358.167,468.333 357.5,468C 360.416,462.497 364.749,458.497 370.5,456C 379.357,455.763 388.19,455.263 397,454.5C 400.063,454.935 400.23,455.768 397.5,457C 398.211,458.255 399.044,459.421 400,460.5C 402.008,470.35 405.341,479.35 410,487.5C 410.296,490.706 410.796,493.872 411.5,497C 413.599,499.374 415.266,502.041 416.5,505C 417.788,505.239 418.788,504.739 419.5,503.5 Z"/></g>
<g><path style="opacity:1" fill="#ab0504" d="M 1255.5,450.5 C 1254.63,454.029 1253.3,457.362 1251.5,460.5C 1243.6,466.226 1237.77,473.56 1234,482.5C 1229.58,487.254 1224.92,491.588 1220,495.5C 1217.43,499.743 1214.6,503.743 1211.5,507.5C 1213.02,509.286 1213.35,511.119 1212.5,513C 1214.66,515.322 1216.99,517.489 1219.5,519.5C 1220.3,521.078 1220.8,522.744 1221,524.5C 1226.77,528.306 1231.44,533.639 1235,540.5C 1235.33,540.167 1235.67,539.833 1236,539.5C 1237.29,541.792 1238.96,543.792 1241,545.5C 1242.19,544.437 1242.69,543.103 1242.5,541.5C 1244.26,542.262 1245.26,543.596 1245.5,545.5C 1244.5,545.5 1243.5,545.5 1242.5,545.5C 1242.92,547.91 1244.25,549.743 1246.5,551C 1246.17,551.333 1245.83,551.667 1245.5,552C 1247.52,552.513 1249.02,553.68 1250,555.5C 1250.62,556.449 1250.45,557.282 1249.5,558C 1250.36,558.689 1251.02,559.522 1251.5,560.5C 1250.2,562.142 1248.7,563.476 1247,564.5C 1245.85,563.576 1244.85,563.576 1244,564.5C 1242.54,562.534 1240.87,560.868 1239,559.5C 1237.99,559.892 1237.49,560.559 1237.5,561.5C 1235.83,561.5 1234.17,561.5 1232.5,561.5C 1231.12,562.976 1229.45,563.976 1227.5,564.5C 1222.89,562.606 1218.39,560.606 1214,558.5C 1212.4,554.125 1210.24,549.625 1207.5,545C 1208.17,544 1208.83,543 1209.5,542C 1207.11,540.048 1205.61,537.548 1205,534.5C 1203.64,535.38 1202.14,535.714 1200.5,535.5C 1200.65,534.448 1200.48,533.448 1200,532.5C 1198.99,533.337 1197.82,533.67 1196.5,533.5C 1196.5,532.5 1196.5,531.5 1196.5,530.5C 1192.6,530.44 1190.44,528.44 1190,524.5C 1188.16,525.833 1187.66,525.666 1188.5,524C 1187.07,523.535 1185.9,522.701 1185,521.5C 1184.06,519.058 1182.89,516.725 1181.5,514.5C 1180.57,513.359 1179.74,513.359 1179,514.5C 1178.51,513.207 1178.34,511.873 1178.5,510.5C 1177.02,510.238 1175.69,510.571 1174.5,511.5C 1175.17,511.833 1175.83,512.167 1176.5,512.5C 1175.68,513.386 1174.68,513.719 1173.5,513.5C 1172.28,531.155 1171.28,548.822 1170.5,566.5C 1167.3,565.964 1164.64,566.631 1162.5,568.5C 1161.17,568.5 1159.83,568.5 1158.5,568.5C 1158.61,566.352 1157.94,566.019 1156.5,567.5C 1154.57,565.796 1152.57,565.462 1150.5,566.5C 1146.04,564.265 1141.54,563.265 1137,563.5C 1134.39,557.926 1134.06,552.259 1136,546.5C 1136.57,535.766 1136.4,525.266 1135.5,515C 1136.28,508.544 1137.11,502.044 1138,495.5C 1139.35,497.696 1139.85,499.862 1139.5,502C 1144.95,502.057 1145.62,500.39 1141.5,497C 1144.54,496.641 1144.88,495.974 1142.5,495C 1143.97,493.684 1145.64,492.684 1147.5,492C 1145.83,491.667 1144.17,491.333 1142.5,491C 1143.57,489.716 1144.91,489.383 1146.5,490C 1145.9,488.372 1146.24,486.705 1147.5,485C 1146.45,482.631 1145.78,480.131 1145.5,477.5C 1146.94,475.127 1146.6,473.127 1144.5,471.5C 1145.31,469.724 1146.48,469.057 1148,469.5C 1149.25,466.743 1151.09,464.409 1153.5,462.5C 1154.68,460.865 1154.68,459.198 1153.5,457.5C 1156.06,456.879 1158.56,456.546 1161,456.5C 1163.56,458.291 1166.39,459.457 1169.5,460C 1168.83,462 1168.17,464 1167.5,466C 1169.64,468.098 1169.64,470.432 1167.5,473C 1168.74,474.154 1169.74,475.488 1170.5,477C 1169.03,477.71 1168.36,478.876 1168.5,480.5C 1169.5,480.5 1170.5,480.5 1171.5,480.5C 1171.17,487.532 1171.5,494.532 1172.5,501.5C 1173.31,503.391 1174.64,504.724 1176.5,505.5C 1178.51,505.868 1180.51,505.368 1182.5,504C 1182.17,503.667 1181.83,503.333 1181.5,503C 1183.27,500.61 1185.6,498.943 1188.5,498C 1188.17,496.333 1187.83,494.667 1187.5,493C 1189.34,490.071 1191.67,487.571 1194.5,485.5C 1195.09,485.709 1195.59,486.043 1196,486.5C 1201.17,479.306 1206.84,472.306 1213,465.5C 1213.33,465.833 1213.67,466.167 1214,466.5C 1214.71,464.633 1214.21,463.133 1212.5,462C 1214.61,460.859 1216.44,459.359 1218,457.5C 1218.71,454.121 1220.88,452.621 1224.5,453C 1222.5,452.333 1220.5,452.333 1218.5,453C 1215.91,454.445 1213.24,455.612 1210.5,456.5C 1212.4,454.204 1214.73,452.371 1217.5,451C 1230.19,449.847 1242.86,449.681 1255.5,450.5 Z"/></g>
<g><path style="opacity:0.926" fill="#fcb201" d="M 198.5,455.5 C 199.491,461.979 199.824,468.646 199.5,475.5C 198.5,475.5 197.5,475.5 196.5,475.5C 196.657,476.873 196.49,478.207 196,479.5C 195.667,476.833 195.333,474.167 195,471.5C 194.768,472.737 194.268,473.737 193.5,474.5C 193.334,468.824 193.501,463.157 194,457.5C 195.415,455.681 196.915,455.015 198.5,455.5 Z"/></g>
<g><path style="opacity:1" fill="#ab0504" d="M 1111.5,454.5 C 1111.77,492.512 1111.44,530.512 1110.5,568.5C 1102.17,568.5 1093.83,568.5 1085.5,568.5C 1083.44,567.224 1081.1,566.39 1078.5,566C 1078.83,565.667 1079.17,565.333 1079.5,565C 1077.29,562.718 1075.62,560.051 1074.5,557C 1075.29,554.976 1074.96,552.976 1073.5,551C 1074.44,543.024 1075.11,535.191 1075.5,527.5C 1074.26,520.153 1073.09,512.82 1072,505.5C 1070.16,505.512 1068.33,506.346 1066.5,508C 1064.75,512.088 1061.91,515.254 1058,517.5C 1052.29,526.231 1046.12,534.731 1039.5,543C 1039.73,543.399 1040.06,543.565 1040.5,543.5C 1040.67,544.492 1040.34,545.158 1039.5,545.5C 1037.31,544.922 1035.64,545.922 1034.5,548.5C 1033.31,549.429 1031.98,549.762 1030.5,549.5C 1030.5,550.5 1030.5,551.5 1030.5,552.5C 1029.5,552.5 1028.5,552.5 1027.5,552.5C 1027.71,554.179 1027.05,555.179 1025.5,555.5C 1023.65,555.351 1021.82,555.351 1020,555.5C 1019.53,556.931 1018.7,558.097 1017.5,559C 1015.17,560 1012.83,561 1010.5,562C 1011.34,563.666 1010.84,563.833 1009,562.5C 1008.33,563.167 1007.67,563.833 1007,564.5C 1004.96,563.228 1003.12,563.561 1001.5,565.5C 1000.75,564.624 1000.25,563.624 1000,562.5C 994.99,565.236 992.157,563.569 991.5,557.5C 988.287,557.808 987.287,556.641 988.5,554C 986.094,551.418 986.094,548.752 988.5,546C 985.723,543.827 985.89,543.327 989,544.5C 989.617,543.551 989.451,542.718 988.5,542C 989.167,541.667 989.833,541.333 990.5,541C 987.311,540.019 986.978,538.686 989.5,537C 987.204,534.622 985.537,531.789 984.5,528.5C 986.024,522.733 987.024,516.899 987.5,511C 987.167,510.667 986.833,510.333 986.5,510C 987.5,509 988.5,508 989.5,507C 987.864,505.566 986.864,503.733 986.5,501.5C 986.61,493.888 986.61,486.222 986.5,478.5C 987.552,478.649 988.552,478.483 989.5,478C 988.289,477.107 988.289,476.274 989.5,475.5C 990.989,475.467 992.322,474.967 993.5,474C 992.833,473.667 992.167,473.333 991.5,473C 993.333,472.5 994.5,471.333 995,469.5C 996,469.833 997,470.167 998,470.5C 998.333,468.833 998.667,467.167 999,465.5C 999.317,467.301 999.984,467.634 1001,466.5C 1000.5,460.794 1002.83,458.794 1008,460.5C 1007.94,459.02 1009.11,458.187 1011.5,458C 1010.33,457.581 1009.33,456.915 1008.5,456C 1010.5,455.333 1012.5,455.333 1014.5,456C 1013.01,457.156 1013.17,457.99 1015,458.5C 1017.51,458.284 1018.34,457.284 1017.5,455.5C 1011.45,454.865 1005.45,454.032 999.5,453C 1006.28,452.08 1012.94,452.414 1019.5,454C 1017.6,472.236 1016.94,489.736 1017.5,506.5C 1018.1,510.159 1018.77,513.826 1019.5,517.5C 1020.75,518.04 1021.91,518.707 1023,519.5C 1023.33,518.833 1023.67,518.167 1024,517.5C 1024.37,518.91 1025.2,519.91 1026.5,520.5C 1027.51,520.062 1027.51,519.396 1026.5,518.5C 1030.35,515.494 1034.52,513.161 1039,511.5C 1039.65,513.493 1041.31,515.159 1044,516.5C 1045.62,516.43 1047.46,515.93 1049.5,515C 1047.34,513.688 1047.01,512.022 1048.5,510C 1047.17,509.667 1045.83,509.333 1044.5,509C 1045.2,508.029 1045.2,506.863 1044.5,505.5C 1045.01,502.107 1047.34,499.94 1051.5,499C 1050.17,498.667 1048.83,498.333 1047.5,498C 1049.11,497.531 1050.77,496.865 1052.5,496C 1048.81,495.086 1049.15,494.419 1053.5,494C 1052.53,492.796 1051.53,492.296 1050.5,492.5C 1052.47,490.579 1053.97,490.579 1055,492.5C 1055.74,490.779 1056.57,489.113 1057.5,487.5C 1059.31,488.859 1060.81,488.525 1062,486.5C 1062.31,487.308 1062.81,487.975 1063.5,488.5C 1064.7,487.469 1066.03,486.635 1067.5,486C 1067.77,481.579 1069.44,477.746 1072.5,474.5C 1072.83,475.167 1073.17,475.833 1073.5,476.5C 1074.3,474.922 1074.8,473.256 1075,471.5C 1075.33,471.833 1075.67,472.167 1076,472.5C 1077.57,471.016 1078.91,469.349 1080,467.5C 1083.94,471.144 1084.44,470.311 1081.5,465C 1085.36,464.697 1086.86,462.863 1086,459.5C 1086.67,460.167 1087.33,460.833 1088,461.5C 1090.17,460.371 1090.67,458.871 1089.5,457C 1096.46,455.079 1103.8,454.246 1111.5,454.5 Z"/></g>
<g><path style="opacity:1" fill="#ac0504" d="M 740.5,479.5 C 730.917,479.182 721.417,479.515 712,480.5C 711.5,505.498 711.333,530.498 711.5,555.5C 709.947,558.017 708.947,560.85 708.5,564C 707.991,565.169 707.158,566.002 706,566.5C 702.034,566.53 697.867,566.364 693.5,566C 694.956,565.577 695.456,564.744 695,563.5C 692.803,565.731 690.47,565.731 688,563.5C 687.667,563.833 687.333,564.167 687,564.5C 685.846,563.257 684.512,562.257 683,561.5C 682.395,558.33 681.561,555.33 680.5,552.5C 683.102,549.513 685.435,546.347 687.5,543C 685.413,537.232 683.08,531.565 680.5,526C 680.944,524.467 681.277,522.967 681.5,521.5C 680.675,520.614 679.675,520.281 678.5,520.5C 678.413,517.402 678.913,517.068 680,519.5C 680.684,518.216 680.517,517.049 679.5,516C 682.521,511.879 681.521,509.046 676.5,507.5C 676.5,505.833 676.5,504.167 676.5,502.5C 678.39,501.576 679.89,500.243 681,498.5C 681.667,499.833 682.333,499.833 683,498.5C 683.58,495.839 684.414,493.339 685.5,491C 684.5,490.667 683.5,490.333 682.5,490C 682.833,489.667 683.167,489.333 683.5,489C 682.809,487.933 682.309,486.766 682,485.5C 681.586,485.957 681.086,486.291 680.5,486.5C 677.109,479.836 672.275,476.169 666,475.5C 661.668,475.994 657.668,476.327 654,476.5C 652.702,475.44 651.535,474.274 650.5,473C 651.127,468.976 653.293,465.476 657,462.5C 657.333,462.833 657.667,463.167 658,463.5C 660.378,461.291 662.545,458.958 664.5,456.5C 672.421,455.353 672.421,454.52 664.5,454C 689.831,453.5 715.164,453.333 740.5,453.5C 740.5,462.167 740.5,470.833 740.5,479.5 Z"/></g>
<g><path style="opacity:1" fill="#970204" d="M 1255.5,450.5 C 1257.53,450.338 1259.53,450.505 1261.5,451C 1262.45,451.718 1262.62,452.551 1262,453.5C 1246.69,472.313 1231.19,490.979 1215.5,509.5C 1224.49,520.161 1233.49,530.828 1242.5,541.5C 1242.69,543.103 1242.19,544.437 1241,545.5C 1238.96,543.792 1237.29,541.792 1236,539.5C 1235.67,539.833 1235.33,540.167 1235,540.5C 1231.44,533.639 1226.77,528.306 1221,524.5C 1220.8,522.744 1220.3,521.078 1219.5,519.5C 1216.99,517.489 1214.66,515.322 1212.5,513C 1213.35,511.119 1213.02,509.286 1211.5,507.5C 1214.6,503.743 1217.43,499.743 1220,495.5C 1224.92,491.588 1229.58,487.254 1234,482.5C 1237.77,473.56 1243.6,466.226 1251.5,460.5C 1253.3,457.362 1254.63,454.029 1255.5,450.5 Z"/></g>
<g><path style="opacity:1" fill="#ac0504" d="M 580.5,449.5 C 588.542,449.264 596.542,449.597 604.5,450.5C 604.963,453.221 605.629,455.888 606.5,458.5C 605.637,457.537 604.97,457.537 604.5,458.5C 606.544,461.162 606.877,463.995 605.5,467C 607.016,469.024 608.349,471.191 609.5,473.5C 607.978,475.156 608.311,476.323 610.5,477C 610.167,477.333 609.833,477.667 609.5,478C 611.155,479.444 611.822,481.278 611.5,483.5C 609.345,484.552 609.012,483.886 610.5,481.5C 610.154,480.304 609.654,480.304 609,481.5C 608.333,480.167 607.667,478.833 607,477.5C 605.383,478.536 605.216,479.703 606.5,481C 605.552,481.483 604.552,481.649 603.5,481.5C 603.67,482.822 603.337,483.989 602.5,485C 600.506,486.368 598.506,486.868 596.5,486.5C 595.289,485.726 595.289,484.893 596.5,484C 592.912,481.623 589.412,479.123 586,476.5C 585.439,477.022 584.772,477.355 584,477.5C 582.989,477.108 582.489,476.441 582.5,475.5C 581.833,476.5 581.167,477.5 580.5,478.5C 578.655,477.605 577.322,478.272 576.5,480.5C 575.298,482.886 574.298,485.386 573.5,488C 573.608,489.681 574.275,490.848 575.5,491.5C 574.89,492.391 574.557,493.391 574.5,494.5C 573.778,494.082 573.278,493.416 573,492.5C 568.898,501.619 565.065,510.952 561.5,520.5C 563.375,521.54 564.708,523.04 565.5,525C 565.45,527.279 565.117,529.612 564.5,532C 565.471,533.204 566.471,533.704 567.5,533.5C 566.478,534.354 565.645,535.354 565,536.5C 564.667,536.167 564.333,535.833 564,535.5C 563.517,536.448 563.351,537.448 563.5,538.5C 564.552,538.351 565.552,538.517 566.5,539C 567.833,539.667 567.833,540.333 566.5,541C 567.167,541.333 567.833,541.667 568.5,542C 564.117,541.004 559.784,541.337 555.5,543C 553.492,545.855 552.159,549.021 551.5,552.5C 551.029,554.579 550.363,556.579 549.5,558.5C 547.943,559.466 546.61,560.8 545.5,562.5C 543.892,563.318 542.225,563.985 540.5,564.5C 538.837,563.125 537.503,563.458 536.5,565.5C 535.575,564.359 534.741,564.359 534,565.5C 533.333,563.5 532,562.167 530,561.5C 529.667,562.167 529.333,562.833 529,563.5C 527.355,563.307 525.521,563.14 523.5,563C 522.692,562.692 522.025,562.192 521.5,561.5C 521.45,559.169 521.783,557.003 522.5,555C 521.328,554.581 520.328,553.915 519.5,553C 521.025,551.991 522.692,551.491 524.5,551.5C 525.803,546.893 528.136,542.893 531.5,539.5C 530.953,537.631 530.62,535.798 530.5,534C 532.594,531.006 532.594,528.339 530.5,526C 533.282,520.492 535.949,514.492 538.5,508C 537.7,506.212 537.366,504.545 537.5,503C 538.849,502.228 539.682,501.061 540,499.5C 541.84,500.833 542.34,500.666 541.5,499C 542.516,497.323 543.516,495.657 544.5,494C 544.108,492.989 543.441,492.489 542.5,492.5C 543.325,491.614 544.325,491.281 545.5,491.5C 546.928,488.054 547.761,484.387 548,480.5C 548.333,480.833 548.667,481.167 549,481.5C 550.236,479.693 550.57,477.693 550,475.5C 551.667,474.5 553.333,473.5 555,472.5C 555,470.5 555,468.5 555,466.5C 556.422,466.406 557.922,466.072 559.5,465.5C 561.27,464.18 561.603,462.68 560.5,461C 562.878,460.489 565.212,459.822 567.5,459C 568.641,458.259 568.641,457.425 567.5,456.5C 568.167,456.167 568.833,455.833 569.5,455.5C 571.392,456.813 573.059,456.646 574.5,455C 582.54,453.782 590.54,453.115 598.5,453C 592.279,452.222 586.279,451.055 580.5,449.5 Z"/></g>
<g><path style="opacity:1" fill="#9d0405" d="M 419.5,503.5 C 418.788,504.739 417.788,505.239 416.5,505C 415.266,502.041 413.599,499.374 411.5,497C 410.796,493.872 410.296,490.706 410,487.5C 405.341,479.35 402.008,470.35 400,460.5C 399.044,459.421 398.211,458.255 397.5,457C 400.23,455.768 400.063,454.935 397,454.5C 388.19,455.263 379.357,455.763 370.5,456C 364.749,458.497 360.416,462.497 357.5,468C 358.167,468.333 358.833,468.667 359.5,469C 358.259,472.667 357.592,476.5 357.5,480.5C 355.821,480.715 354.821,480.048 354.5,478.5C 353.726,467.433 357.726,458.767 366.5,452.5C 367.795,451.902 369.128,451.402 370.5,451C 380.5,450.333 390.5,450.333 400.5,451C 402.038,452.932 403.205,455.099 404,457.5C 408.68,473.041 413.847,488.374 419.5,503.5 Z"/></g>
<g><path style="opacity:1" fill="#a80505" d="M 742.5,480.5 C 742.158,479.662 741.492,479.328 740.5,479.5C 740.5,470.833 740.5,462.167 740.5,453.5C 715.164,453.333 689.831,453.5 664.5,454C 672.421,454.52 672.421,455.353 664.5,456.5C 662.545,458.958 660.378,461.291 658,463.5C 657.667,463.167 657.333,462.833 657,462.5C 653.293,465.476 651.127,468.976 650.5,473C 651.535,474.274 652.702,475.44 654,476.5C 657.668,476.327 661.668,475.994 666,475.5C 672.275,476.169 677.109,479.836 680.5,486.5C 681.086,486.291 681.586,485.957 682,485.5C 682.309,486.766 682.809,487.933 683.5,489C 683.167,489.333 682.833,489.667 682.5,490C 683.5,490.333 684.5,490.667 685.5,491C 684.414,493.339 683.58,495.839 683,498.5C 682.333,499.833 681.667,499.833 681,498.5C 679.89,500.243 678.39,501.576 676.5,502.5C 676.5,504.167 676.5,505.833 676.5,507.5C 681.521,509.046 682.521,511.879 679.5,516C 680.517,517.049 680.684,518.216 680,519.5C 678.913,517.068 678.413,517.402 678.5,520.5C 679.675,520.281 680.675,520.614 681.5,521.5C 681.277,522.967 680.944,524.467 680.5,526C 683.08,531.565 685.413,537.232 687.5,543C 685.435,546.347 683.102,549.513 680.5,552.5C 681.561,555.33 682.395,558.33 683,561.5C 684.512,562.257 685.846,563.257 687,564.5C 687.333,564.167 687.667,563.833 688,563.5C 690.47,565.731 692.803,565.731 695,563.5C 695.456,564.744 694.956,565.577 693.5,566C 697.867,566.364 702.034,566.53 706,566.5C 707.158,566.002 707.991,565.169 708.5,564C 708.947,560.85 709.947,558.017 711.5,555.5C 711.5,559.833 711.5,564.167 711.5,568.5C 705.833,568.5 700.167,568.5 694.5,568.5C 689.708,567.286 684.875,565.953 680,564.5C 678.657,565.214 677.324,564.88 676,563.5C 675.614,557.607 676.448,551.941 678.5,546.5C 678.333,545.167 678.167,543.833 678,542.5C 677.667,544.833 677.333,547.167 677,549.5C 676.258,546.64 675.758,543.64 675.5,540.5C 675.936,537.908 676.936,535.575 678.5,533.5C 677.5,532.667 676.5,531.833 675.5,531C 675.833,530.667 676.167,530.333 676.5,530C 675.801,522.711 675.134,515.377 674.5,508C 675.445,499.044 675.611,489.878 675,480.5C 673.989,479.663 672.822,479.33 671.5,479.5C 659.833,479.5 648.167,479.5 636.5,479.5C 635.997,474.5 635.664,474.833 635.5,480.5C 634.371,478.372 634.204,476.039 635,473.5C 636.669,463.168 642.169,455.668 651.5,451C 667.291,449.873 683.124,449.373 699,449.5C 713.543,449.508 728.043,449.841 742.5,450.5C 743.823,460.659 743.823,470.659 742.5,480.5 Z"/></g>
<g><path style="opacity:0.609" fill="#8d0202" d="M 841.5,478.5 C 841.082,479.222 840.416,479.722 839.5,480C 827.171,480.5 814.838,480.667 802.5,480.5C 800.302,479.835 797.969,479.168 795.5,478.5C 810.867,477.198 826.2,477.198 841.5,478.5 Z"/></g>
<g><path style="opacity:0.824" fill="#7c0000" d="M 671.5,479.5 C 664.833,480.167 658.167,480.833 651.5,481.5C 645.974,481.821 640.64,481.488 635.5,480.5C 635.664,474.833 635.997,474.5 636.5,479.5C 648.167,479.5 659.833,479.5 671.5,479.5 Z"/></g>
<g><path style="opacity:1" fill="#f7a500" d="M 125.5,479.5 C 143.861,479.607 162.194,479.274 180.5,478.5C 184.146,479.283 187.812,479.45 191.5,479C 193.037,477.89 193.703,476.39 193.5,474.5C 194.268,473.737 194.768,472.737 195,471.5C 195.333,474.167 195.667,476.833 196,479.5C 196.49,478.207 196.657,476.873 196.5,475.5C 197.5,475.5 198.5,475.5 199.5,475.5C 199.405,477.786 198.738,479.786 197.5,481.5C 196.883,481.389 196.383,481.056 196,480.5C 194.758,481.872 193.258,482.872 191.5,483.5C 165.174,483.672 138.841,483.338 112.5,482.5C 111.702,482.957 111.369,483.624 111.5,484.5C 110.21,483.942 109.377,482.942 109,481.5C 108.176,472.324 108.343,463.324 109.5,454.5C 110.583,454.461 111.583,454.127 112.5,453.5C 113.498,462.141 113.831,470.808 113.5,479.5C 117.5,479.5 121.5,479.5 125.5,479.5 Z"/></g>
<g><path style="opacity:1" fill="#ab0504" d="M 485.5,451.5 C 484.252,452.334 483.585,453.667 483.5,455.5C 484.268,461.864 484.268,468.031 483.5,474C 484.967,475.098 485.801,476.598 486,478.5C 487.354,488.213 489.02,497.879 491,507.5C 491.22,518.477 492.387,529.311 494.5,540C 494.518,543.633 493.852,547.133 492.5,550.5C 494.207,554.712 496.207,558.712 498.5,562.5C 499.461,564.265 499.795,566.265 499.5,568.5C 488.062,569.428 477.062,567.928 466.5,564C 465.396,557.002 464.063,550.002 462.5,543C 462.788,540.813 463.122,538.646 463.5,536.5C 463.318,534.409 463.652,532.409 464.5,530.5C 463.975,529.808 463.308,529.308 462.5,529C 463.428,528.612 464.095,527.945 464.5,527C 463.576,525.85 463.576,524.85 464.5,524C 462.787,522.622 461.453,520.955 460.5,519C 461.446,515.475 461.446,511.809 460.5,508C 461.167,507.667 461.833,507.333 462.5,507C 461.377,505.956 460.044,505.29 458.5,505C 459.833,504.667 461.167,504.333 462.5,504C 461.809,502.933 461.309,501.766 461,500.5C 460.195,502.901 459.362,502.734 458.5,500C 458.728,499.601 459.062,499.435 459.5,499.5C 460.991,499.099 462.658,498.932 464.5,499C 463.174,496.842 461.507,495.008 459.5,493.5C 460,492.5 460.5,491.5 461,490.5C 461.333,490.833 461.667,491.167 462,491.5C 462.9,490.23 464.066,489.23 465.5,488.5C 462.464,487.465 459.131,486.131 455.5,484.5C 456.167,483.833 456.833,483.167 457.5,482.5C 456.603,482.331 455.603,481.998 454.5,481.5C 455.641,480.575 455.641,479.741 454.5,479C 457.217,478.957 457.884,477.957 456.5,476C 457.167,474.667 457.833,473.333 458.5,472C 457.091,470.017 456.091,467.85 455.5,465.5C 456.77,464.438 457.937,463.438 459,462.5C 461.218,464.092 462.885,466.092 464,468.5C 464.718,467.549 465.551,467.383 466.5,468C 465.549,468.718 465.383,469.551 466,470.5C 466.779,469.272 467.779,468.272 469,467.5C 471.884,468.619 472.551,467.952 471,465.5C 469.602,466.051 468.268,466.384 467,466.5C 466.833,466 466.667,465.5 466.5,465C 467.931,464.513 469.265,463.179 470.5,461C 469.5,460 468.5,459 467.5,458C 468.381,457.292 469.047,456.458 469.5,455.5C 472.577,454.144 475.91,453.311 479.5,453C 471.5,452.667 463.5,452.333 455.5,452C 457.058,451.79 458.391,451.29 459.5,450.5C 466.775,450.486 474.109,450.153 481.5,449.5C 483.171,449.668 484.504,450.335 485.5,451.5 Z"/></g>
<g><path style="opacity:0.055" fill="#eb8f00" d="M 197.5,481.5 C 196.657,483.173 195.324,484.34 193.5,485C 166.095,485.824 138.761,485.657 111.5,484.5C 111.369,483.624 111.702,482.957 112.5,482.5C 138.841,483.338 165.174,483.672 191.5,483.5C 193.258,482.872 194.758,481.872 196,480.5C 196.383,481.056 196.883,481.389 197.5,481.5 Z"/></g>
<g><path style="opacity:1" fill="#a90504" d="M 611.5,483.5 C 611.52,485.143 610.853,486.476 609.5,487.5C 610.247,487.736 611.08,488.07 612,488.5C 613.095,490.932 614.595,493.098 616.5,495C 617.185,497.795 617.685,500.628 618,503.5C 623.534,508.373 626.034,514.373 625.5,521.5C 625.846,522.696 626.346,522.696 627,521.5C 632.073,534.64 637.406,547.64 643,560.5C 643.495,562.473 643.662,564.473 643.5,566.5C 637.046,566.136 630.712,566.136 624.5,566.5C 622.036,566.41 619.87,565.743 618,564.5C 617.586,564.957 617.086,565.291 616.5,565.5C 613.382,562.267 610.049,559.267 606.5,556.5C 604.705,552.859 602.705,549.192 600.5,545.5C 586.512,544.334 572.512,544.167 558.5,545C 557.376,545.249 556.376,545.749 555.5,546.5C 554.639,548.911 553.306,550.911 551.5,552.5C 552.159,549.021 553.492,545.855 555.5,543C 559.784,541.337 564.117,541.004 568.5,542C 567.833,541.667 567.167,541.333 566.5,541C 567.833,540.333 567.833,539.667 566.5,539C 565.552,538.517 564.552,538.351 563.5,538.5C 563.351,537.448 563.517,536.448 564,535.5C 564.333,535.833 564.667,536.167 565,536.5C 565.645,535.354 566.478,534.354 567.5,533.5C 566.471,533.704 565.471,533.204 564.5,532C 565.117,529.612 565.45,527.279 565.5,525C 564.708,523.04 563.375,521.54 561.5,520.5C 565.065,510.952 568.898,501.619 573,492.5C 573.278,493.416 573.778,494.082 574.5,494.5C 571.501,503.145 568.501,511.812 565.5,520.5C 573.684,520.826 581.684,520.492 589.5,519.5C 590.5,519.5 591.5,519.5 592.5,519.5C 592.453,516.432 591.953,513.432 591,510.5C 588.005,500.177 584.172,490.177 579.5,480.5C 578.5,480.5 577.5,480.5 576.5,480.5C 577.322,478.272 578.655,477.605 580.5,478.5C 581.167,477.5 581.833,476.5 582.5,475.5C 582.489,476.441 582.989,477.108 584,477.5C 584.772,477.355 585.439,477.022 586,476.5C 589.412,479.123 592.912,481.623 596.5,484C 595.289,484.893 595.289,485.726 596.5,486.5C 598.506,486.868 600.506,486.368 602.5,485C 603.337,483.989 603.67,482.822 603.5,481.5C 604.552,481.649 605.552,481.483 606.5,481C 605.216,479.703 605.383,478.536 607,477.5C 607.667,478.833 608.333,480.167 609,481.5C 609.654,480.304 610.154,480.304 610.5,481.5C 609.012,483.886 609.345,484.552 611.5,483.5 Z"/></g>
<g><path style="opacity:1" fill="#fdd526" d="M 167.5,491.5 C 191.836,491.333 216.169,491.5 240.5,492C 243.056,493.055 244.723,494.888 245.5,497.5C 243.024,498.935 240.69,498.435 238.5,496C 228.5,495.333 218.5,495.333 208.5,496C 207.182,497.63 205.849,497.797 204.5,496.5C 192.011,495.505 179.344,495.171 166.5,495.5C 166.433,494.041 166.766,492.708 167.5,491.5 Z"/></g>
<g><path style="opacity:1" fill="#c2362d" d="M 141.5,491.5 C 142.427,494.045 142.427,496.378 141.5,498.5C 132.519,497.193 123.519,497.193 114.5,498.5C 113.833,498.333 113.167,498.167 112.5,498C 114.044,497.71 115.377,497.044 116.5,496C 115.892,495.13 115.059,494.63 114,494.5C 111.039,496.032 107.872,496.866 104.5,497C 92.1712,497.5 79.8378,497.667 67.5,497.5C 66.828,496.733 65.9947,496.066 65,495.5C 64.2917,496.381 63.4584,497.047 62.5,497.5C 63.4785,494.029 65.8118,492.195 69.5,492C 93.4977,491.5 117.498,491.333 141.5,491.5 Z"/></g>
<g><path style="opacity:0.224" fill="#900102" d="M 922.5,499.5 C 924.708,498.106 926.208,496.106 927,493.5C 928.873,483.399 924.707,478.233 914.5,478C 910.311,477.188 906.311,477.355 902.5,478.5C 901.671,486.657 901.171,494.99 901,503.5C 900.183,494.255 900.35,485.089 901.5,476C 909.785,475.264 917.952,475.764 926,477.5C 928.979,480.876 930.146,484.876 929.5,489.5C 930.378,495.719 928.378,499.719 923.5,501.5C 922.702,501.043 922.369,500.376 922.5,499.5 Z"/></g>
<g><path style="opacity:1" fill="#fdb902" d="M 167.5,491.5 C 166.766,492.708 166.433,494.041 166.5,495.5C 179.344,495.171 192.011,495.505 204.5,496.5C 201.665,498.082 198.665,499.415 195.5,500.5C 194.614,499.675 194.281,498.675 194.5,497.5C 189.821,497.987 185.154,498.653 180.5,499.5C 182.791,499.877 184.958,499.877 187,499.5C 187.46,501.714 186.793,502.381 185,501.5C 184.51,502.793 184.343,504.127 184.5,505.5C 185.873,505.343 187.207,505.51 188.5,506C 187.167,506.667 187.167,507.333 188.5,508C 186.777,508.523 185.444,509.523 184.5,511C 185.707,512.3 186.374,513.8 186.5,515.5C 184.058,515.119 183.391,515.786 184.5,517.5C 182.833,518.167 181.167,518.833 179.5,519.5C 182.066,520.547 184.733,521.214 187.5,521.5C 189.374,521.61 190.874,520.944 192,519.5C 193.734,520.249 195.567,520.749 197.5,521C 211.167,521.667 224.833,521.667 238.5,521C 239.191,519.933 239.691,518.766 240,517.5C 240.333,511.5 240.667,505.5 241,499.5C 241.236,501.764 241.736,503.931 242.5,506C 242.167,506.333 241.833,506.667 241.5,507C 242.737,509.969 244.07,512.803 245.5,515.5C 245.795,517.735 245.461,519.735 244.5,521.5C 243.778,521.082 243.278,520.416 243,519.5C 242.641,522.544 241.974,522.878 241,520.5C 240.5,521 240,521.5 239.5,522C 214.493,522.833 189.493,522.666 164.5,521.5C 164.192,520.692 163.692,520.025 163,519.5C 162.667,512.167 162.333,504.833 162,497.5C 160.715,497.402 159.549,497.402 158.5,497.5C 159.63,492.98 162.63,490.98 167.5,491.5 Z"/></g>
<g><path style="opacity:1" fill="#fdbd03" d="M 245.5,497.5 C 245.5,503.5 245.5,509.5 245.5,515.5C 244.07,512.803 242.737,509.969 241.5,507C 241.833,506.667 242.167,506.333 242.5,506C 241.736,503.931 241.236,501.764 241,499.5C 240.667,505.5 240.333,511.5 240,517.5C 239.691,518.766 239.191,519.933 238.5,521C 224.833,521.667 211.167,521.667 197.5,521C 195.567,520.749 193.734,520.249 192,519.5C 190.874,520.944 189.374,521.61 187.5,521.5C 184.733,521.214 182.066,520.547 179.5,519.5C 181.167,518.833 182.833,518.167 184.5,517.5C 183.391,515.786 184.058,515.119 186.5,515.5C 186.374,513.8 185.707,512.3 184.5,511C 185.444,509.523 186.777,508.523 188.5,508C 187.167,507.333 187.167,506.667 188.5,506C 187.207,505.51 185.873,505.343 184.5,505.5C 184.343,504.127 184.51,502.793 185,501.5C 186.793,502.381 187.46,501.714 187,499.5C 184.958,499.877 182.791,499.877 180.5,499.5C 185.154,498.653 189.821,497.987 194.5,497.5C 194.281,498.675 194.614,499.675 195.5,500.5C 198.665,499.415 201.665,498.082 204.5,496.5C 205.849,497.797 207.182,497.63 208.5,496C 218.5,495.333 228.5,495.333 238.5,496C 240.69,498.435 243.024,498.935 245.5,497.5 Z"/></g>
<g><path style="opacity:0.943" fill="#800001" d="M 67.5,497.5 C 68.2953,504.087 68.7953,510.754 69,517.5C 70.049,519.107 71.549,519.773 73.5,519.5C 73.9175,520.222 74.5842,520.722 75.5,521C 99.1445,522.488 122.811,523.155 146.5,523C 147.474,520.335 148.141,520.169 148.5,522.5C 148.262,524.404 147.262,525.738 145.5,526.5C 144.262,526.19 144.262,525.69 145.5,525C 120.384,524.665 95.3844,523.998 70.5,523C 69.2964,520.723 67.6297,520.223 65.5,521.5C 66.3256,522.451 66.4922,523.451 66,524.5C 65.1841,523.177 64.0174,522.511 62.5,522.5C 62.5,514.167 62.5,505.833 62.5,497.5C 63.4584,497.047 64.2917,496.381 65,495.5C 65.9947,496.066 66.828,496.733 67.5,497.5 Z"/></g>
<g><path style="opacity:1" fill="#a90906" d="M 141.5,491.5 C 145.669,491.432 148.002,493.432 148.5,497.5C 147.673,502.985 147.173,508.652 147,514.5C 146.667,513.833 146.333,513.167 146,512.5C 144.498,515.018 142.998,517.518 141.5,520C 131.793,520.786 122.126,520.453 112.5,519C 114.595,518.444 114.762,517.944 113,517.5C 108.667,518.833 104.333,518.833 100,517.5C 96.2907,519.556 92.4574,519.889 88.5,518.5C 86.3603,519.254 84.1937,519.921 82,520.5C 79.1834,519.969 76.35,519.636 73.5,519.5C 71.549,519.773 70.049,519.107 69,517.5C 68.7953,510.754 68.2953,504.087 67.5,497.5C 79.8378,497.667 92.1712,497.5 104.5,497C 107.872,496.866 111.039,496.032 114,494.5C 115.059,494.63 115.892,495.13 116.5,496C 115.377,497.044 114.044,497.71 112.5,498C 113.167,498.167 113.833,498.333 114.5,498.5C 123.519,497.193 132.519,497.193 141.5,498.5C 142.427,496.378 142.427,494.045 141.5,491.5 Z"/></g>
<g><path style="opacity:1" fill="#a40303" d="M 437.5,549.5 C 435.404,555.613 432.571,561.28 429,566.5C 423.629,564.98 418.129,563.98 412.5,563.5C 409.645,558.926 406.978,554.259 404.5,549.5C 404.709,548.914 405.043,548.414 405.5,548C 399.533,535 394.699,521.5 391,507.5C 389.817,506.269 388.651,506.269 387.5,507.5C 388.127,508.417 388.461,509.417 388.5,510.5C 387.833,510.5 387.167,510.5 386.5,510.5C 386.768,508.901 386.434,507.568 385.5,506.5C 385.116,504.335 385.783,502.668 387.5,501.5C 390.235,503.585 392.401,505.585 394,507.5C 394.085,505.915 394.251,504.582 394.5,503.5C 396.332,505.298 396.665,507.132 395.5,509C 397.658,510.312 397.991,511.978 396.5,514C 398.107,515.049 398.773,516.549 398.5,518.5C 399.873,518.343 401.207,518.51 402.5,519C 399.833,520 399.833,521 402.5,522C 401.881,523.835 401.714,526.001 402,528.5C 404.803,529.813 406.97,531.813 408.5,534.5C 409.748,533.96 410.915,533.293 412,532.5C 412.317,534.301 412.984,534.634 414,533.5C 413.209,538.364 415.376,541.53 420.5,543C 418.355,544.818 418.355,546.318 420.5,547.5C 419.835,549.101 419.501,550.601 419.5,552C 423.132,552.747 425.966,554.58 428,557.5C 429.717,556.012 430.884,554.179 431.5,552C 433.584,551.222 435.417,550.055 437,548.5C 437.399,548.728 437.565,549.062 437.5,549.5 Z"/></g>
<g><path style="opacity:1" fill="#9e0205" d="M 671.5,479.5 C 672.822,479.33 673.989,479.663 675,480.5C 675.611,489.878 675.445,499.044 674.5,508C 675.134,515.377 675.801,522.711 676.5,530C 676.167,530.333 675.833,530.667 675.5,531C 676.5,531.833 677.5,532.667 678.5,533.5C 676.936,535.575 675.936,537.908 675.5,540.5C 675.758,543.64 676.258,546.64 677,549.5C 677.333,547.167 677.667,544.833 678,542.5C 678.167,543.833 678.333,545.167 678.5,546.5C 676.448,551.941 675.614,557.607 676,563.5C 677.324,564.88 678.657,565.214 680,564.5C 684.875,565.953 689.708,567.286 694.5,568.5C 686.648,568.175 678.982,568.508 671.5,569.5C 670.502,540.338 670.169,511.005 670.5,481.5C 664.167,481.5 657.833,481.5 651.5,481.5C 658.167,480.833 664.833,480.167 671.5,479.5 Z"/></g>
<g><path style="opacity:0.982" fill="#900001" d="M 576.5,480.5 C 577.5,480.5 578.5,480.5 579.5,480.5C 584.172,490.177 588.005,500.177 591,510.5C 591.953,513.432 592.453,516.432 592.5,519.5C 591.5,519.5 590.5,519.5 589.5,519.5C 585.968,508.761 582.135,498.094 578,487.5C 577.667,486.833 577.333,486.167 577,485.5C 576.495,487.518 575.995,489.518 575.5,491.5C 574.275,490.848 573.608,489.681 573.5,488C 574.298,485.386 575.298,482.886 576.5,480.5 Z"/></g>
<g><path style="opacity:1" fill="#a20203" d="M 459.5,499.5 C 459.062,499.435 458.728,499.601 458.5,500C 459.362,502.734 460.195,502.901 461,500.5C 461.309,501.766 461.809,502.933 462.5,504C 461.167,504.333 459.833,504.667 458.5,505C 460.044,505.29 461.377,505.956 462.5,507C 461.833,507.333 461.167,507.667 460.5,508C 461.446,511.809 461.446,515.475 460.5,519C 461.453,520.955 462.787,522.622 464.5,524C 463.576,524.85 463.576,525.85 464.5,527C 464.095,527.945 463.428,528.612 462.5,529C 463.308,529.308 463.975,529.808 464.5,530.5C 463.652,532.409 463.318,534.409 463.5,536.5C 461.407,530.797 459.907,524.797 459,518.5C 458.817,521.365 458.317,524.031 457.5,526.5C 457.001,520.507 456.501,514.507 456,508.5C 450.394,521.825 444.894,535.159 439.5,548.5C 438.609,547.739 437.942,546.739 437.5,545.5C 442.533,530.942 447.033,516.608 451,502.5C 451.5,501.5 452,500.5 452.5,499.5C 455.163,497.518 457.497,497.518 459.5,499.5 Z"/></g>
<g><path style="opacity:0.709" fill="#9a0001" d="M 1085.5,568.5 C 1080.06,568.178 1074.73,568.178 1069.5,568.5C 1069.67,548.831 1069.5,529.164 1069,509.5C 1060.45,521.559 1050.95,532.893 1040.5,543.5C 1040.06,543.565 1039.73,543.399 1039.5,543C 1046.12,534.731 1052.29,526.231 1058,517.5C 1061.91,515.254 1064.75,512.088 1066.5,508C 1068.33,506.346 1070.16,505.512 1072,505.5C 1073.09,512.82 1074.26,520.153 1075.5,527.5C 1075.11,535.191 1074.44,543.024 1073.5,551C 1074.96,552.976 1075.29,554.976 1074.5,557C 1075.62,560.051 1077.29,562.718 1079.5,565C 1079.17,565.333 1078.83,565.667 1078.5,566C 1081.1,566.39 1083.44,567.224 1085.5,568.5 Z"/></g>
<g><path style="opacity:1" fill="#900102" d="M 437.5,549.5 C 438.167,550.167 438.833,550.833 439.5,551.5C 436.954,557.423 434.287,563.256 431.5,569C 424.274,570.594 416.94,570.928 409.5,570C 403.002,552.89 396.502,535.723 390,518.5C 388.921,515.937 388.421,513.271 388.5,510.5C 388.461,509.417 388.127,508.417 387.5,507.5C 388.651,506.269 389.817,506.269 391,507.5C 394.699,521.5 399.533,535 405.5,548C 405.043,548.414 404.709,548.914 404.5,549.5C 406.978,554.259 409.645,558.926 412.5,563.5C 418.129,563.98 423.629,564.98 429,566.5C 432.571,561.28 435.404,555.613 437.5,549.5 Z"/></g>
<g><path style="opacity:1" fill="#930101" d="M 148.5,497.5 C 149.833,505.833 149.833,514.167 148.5,522.5C 148.141,520.169 147.474,520.335 146.5,523C 122.811,523.155 99.1445,522.488 75.5,521C 74.5842,520.722 73.9175,520.222 73.5,519.5C 76.35,519.636 79.1834,519.969 82,520.5C 84.1937,519.921 86.3603,519.254 88.5,518.5C 92.4574,519.889 96.2907,519.556 100,517.5C 104.333,518.833 108.667,518.833 113,517.5C 114.762,517.944 114.595,518.444 112.5,519C 122.126,520.453 131.793,520.786 141.5,520C 142.998,517.518 144.498,515.018 146,512.5C 146.333,513.167 146.667,513.833 147,514.5C 147.173,508.652 147.673,502.985 148.5,497.5 Z"/></g>
<g><path style="opacity:1" fill="#a60303" d="M 841.5,478.5 C 826.2,477.198 810.867,477.198 795.5,478.5C 797.969,479.168 800.302,479.835 802.5,480.5C 800.533,480.261 798.699,480.594 797,481.5C 797.291,485.774 797.457,490.107 797.5,494.5C 809.518,494.168 821.518,494.501 833.5,495.5C 834.465,502.776 834.799,510.109 834.5,517.5C 833.71,516.391 833.21,515.058 833,513.5C 832.814,516.036 832.314,518.369 831.5,520.5C 831.501,512.483 831.834,504.483 832.5,496.5C 819.478,496.711 806.478,496.378 793.5,495.5C 792.201,489.16 792.535,482.994 794.5,477C 796.5,476.5 798.5,476 800.5,475.5C 813.136,476.462 825.802,476.795 838.5,476.5C 839.391,469.235 839.057,461.902 837.5,454.5C 829.578,452.739 821.578,452.239 813.5,453C 802.202,454.25 790.868,455.584 779.5,457C 778.167,457.667 778.167,458.333 779.5,459C 778.529,460.204 777.529,460.704 776.5,460.5C 775.922,462.261 775.922,464.261 776.5,466.5C 775.726,467.711 774.893,467.711 774,466.5C 772.936,468.693 771.602,470.693 770,472.5C 768.636,471.742 767.469,472.242 766.5,474C 767.061,475.566 766.394,476.899 764.5,478C 764.835,479.503 764.835,480.836 764.5,482C 761.057,482.221 760.724,483.221 763.5,485C 762.886,486.13 762.886,487.463 763.5,489C 763.215,490.89 762.215,492.223 760.5,493C 761.139,496.475 760.472,499.808 758.5,503C 759.022,503.95 759.689,504.784 760.5,505.5C 758.525,506.749 758.191,508.249 759.5,510C 757.015,513.002 756.848,516.169 759,519.5C 759.333,518.833 759.667,518.167 760,517.5C 759.522,521.838 761.188,524.838 765,526.5C 765.466,529.686 765.299,532.519 764.5,535C 766.18,535.347 767.18,536.347 767.5,538C 767.163,544.509 767.163,550.342 767.5,555.5C 768.582,555.749 769.915,555.915 771.5,556C 769.5,556.667 768.167,558 767.5,560C 768.5,560.333 769.5,560.667 770.5,561C 769.167,562.84 769.334,563.34 771,562.5C 772.898,564.454 774.898,565.454 777,565.5C 777.667,562.833 778.333,562.833 779,565.5C 780.487,564.747 780.654,563.914 779.5,563C 780.833,562.333 782.167,562.333 783.5,563C 781.071,563.451 780.904,564.285 783,565.5C 784.587,564.273 785.921,564.606 787,566.5C 788.872,565.176 789.705,563.676 789.5,562C 786.853,561.685 786.187,560.518 787.5,558.5C 786.189,557.742 785.689,556.742 786,555.5C 786.667,556.833 787.333,556.833 788,555.5C 788.704,558.946 790.037,558.946 792,555.5C 792.49,556.793 792.657,558.127 792.5,559.5C 794.451,559.227 795.951,559.893 797,561.5C 800.145,560.12 802.812,560.786 805,563.5C 805.414,563.043 805.914,562.709 806.5,562.5C 809.316,563.993 812.15,565.326 815,566.5C 816.669,565.834 818.169,565.834 819.5,566.5C 820.5,565.833 821.5,565.167 822.5,564.5C 824.478,565.131 826.645,565.131 829,564.5C 829.333,565.167 829.667,565.833 830,566.5C 831.845,564.65 833.845,564.317 836,565.5C 837.464,558.007 837.964,550.34 837.5,542.5C 831.491,542.701 825.491,543.034 819.5,543.5C 819.439,545.592 818.439,547.092 816.5,548C 815.84,547.102 814.507,546.768 812.5,547C 811.929,548.205 811.262,549.372 810.5,550.5C 810.891,549.109 810.058,548.109 808,547.5C 807.32,549.513 805.987,550.846 804,551.5C 801.589,549.042 798.755,547.209 795.5,546C 795.957,545.586 796.291,545.086 796.5,544.5C 792.861,542.038 790.195,538.871 788.5,535C 790.618,531.417 792.118,527.584 793,523.5C 794.746,521.543 796.912,520.543 799.5,520.5C 798.737,521.268 797.737,521.768 796.5,522C 797.737,522.232 798.737,522.732 799.5,523.5C 797.554,528.396 796.887,533.729 797.5,539.5C 811.833,539.5 826.167,539.5 840.5,539.5C 840.5,540.5 840.5,541.5 840.5,542.5C 839.883,542.389 839.383,542.056 839,541.5C 838.5,550.494 838.334,559.494 838.5,568.5C 810.5,568.5 782.5,568.5 754.5,568.5C 754.333,534.165 754.5,499.832 755,465.5C 758.635,456.208 765.468,451.042 775.5,450C 797.531,449.199 819.531,449.366 841.5,450.5C 841.5,459.833 841.5,469.167 841.5,478.5 Z"/></g>
<g><path style="opacity:1" fill="#ab0504" d="M 831.5,520.5 C 820.833,520.5 810.167,520.5 799.5,520.5C 796.912,520.543 794.746,521.543 793,523.5C 792.118,527.584 790.618,531.417 788.5,535C 790.195,538.871 792.861,542.038 796.5,544.5C 796.291,545.086 795.957,545.586 795.5,546C 798.755,547.209 801.589,549.042 804,551.5C 805.987,550.846 807.32,549.513 808,547.5C 810.058,548.109 810.891,549.109 810.5,550.5C 811.262,549.372 811.929,548.205 812.5,547C 814.507,546.768 815.84,547.102 816.5,548C 818.439,547.092 819.439,545.592 819.5,543.5C 825.491,543.034 831.491,542.701 837.5,542.5C 837.964,550.34 837.464,558.007 836,565.5C 833.845,564.317 831.845,564.65 830,566.5C 829.667,565.833 829.333,565.167 829,564.5C 826.645,565.131 824.478,565.131 822.5,564.5C 821.5,565.167 820.5,565.833 819.5,566.5C 818.169,565.834 816.669,565.834 815,566.5C 812.15,565.326 809.316,563.993 806.5,562.5C 805.914,562.709 805.414,563.043 805,563.5C 802.812,560.786 800.145,560.12 797,561.5C 795.951,559.893 794.451,559.227 792.5,559.5C 792.657,558.127 792.49,556.793 792,555.5C 790.037,558.946 788.704,558.946 788,555.5C 787.333,556.833 786.667,556.833 786,555.5C 785.689,556.742 786.189,557.742 787.5,558.5C 786.187,560.518 786.853,561.685 789.5,562C 789.705,563.676 788.872,565.176 787,566.5C 785.921,564.606 784.587,564.273 783,565.5C 780.904,564.285 781.071,563.451 783.5,563C 782.167,562.333 780.833,562.333 779.5,563C 780.654,563.914 780.487,564.747 779,565.5C 778.333,562.833 777.667,562.833 777,565.5C 774.898,565.454 772.898,564.454 771,562.5C 769.334,563.34 769.167,562.84 770.5,561C 769.5,560.667 768.5,560.333 767.5,560C 768.167,558 769.5,556.667 771.5,556C 769.915,555.915 768.582,555.749 767.5,555.5C 767.163,550.342 767.163,544.509 767.5,538C 767.18,536.347 766.18,535.347 764.5,535C 765.299,532.519 765.466,529.686 765,526.5C 761.188,524.838 759.522,521.838 760,517.5C 759.667,518.167 759.333,518.833 759,519.5C 756.848,516.169 757.015,513.002 759.5,510C 758.191,508.249 758.525,506.749 760.5,505.5C 759.689,504.784 759.022,503.95 758.5,503C 760.472,499.808 761.139,496.475 760.5,493C 762.215,492.223 763.215,490.89 763.5,489C 762.886,487.463 762.886,486.13 763.5,485C 760.724,483.221 761.057,482.221 764.5,482C 764.835,480.836 764.835,479.503 764.5,478C 766.394,476.899 767.061,475.566 766.5,474C 767.469,472.242 768.636,471.742 770,472.5C 771.602,470.693 772.936,468.693 774,466.5C 774.893,467.711 775.726,467.711 776.5,466.5C 775.922,464.261 775.922,462.261 776.5,460.5C 777.529,460.704 778.529,460.204 779.5,459C 778.167,458.333 778.167,457.667 779.5,457C 790.868,455.584 802.202,454.25 813.5,453C 821.578,452.239 829.578,452.739 837.5,454.5C 839.057,461.902 839.391,469.235 838.5,476.5C 825.802,476.795 813.136,476.462 800.5,475.5C 798.5,476 796.5,476.5 794.5,477C 792.535,482.994 792.201,489.16 793.5,495.5C 806.478,496.378 819.478,496.711 832.5,496.5C 831.834,504.483 831.501,512.483 831.5,520.5 Z"/></g>
<g><path style="opacity:1" fill="#980102" d="M 969.5,503.5 C 967.101,510.475 963.101,516.308 957.5,521C 947.933,526.434 937.6,529.434 926.5,530C 919.508,530.5 912.508,530.666 905.5,530.5C 904.737,529.732 903.737,529.232 902.5,529C 914.577,528.733 926.577,527.733 938.5,526C 942.622,523.546 946.955,521.546 951.5,520C 951.167,519.667 950.833,519.333 950.5,519C 952.233,517.084 954.4,515.918 957,515.5C 959.078,516.52 960.745,515.853 962,513.5C 963.207,508.756 965.207,504.423 968,500.5C 968.232,501.737 968.732,502.737 969.5,503.5 Z"/></g>
<g><path style="opacity:1" fill="#a00405" d="M 485.5,451.5 C 490.081,487.983 495.415,524.316 501.5,560.5C 499.955,559.77 499.122,558.437 499,556.5C 498.505,558.473 498.338,560.473 498.5,562.5C 496.207,558.712 494.207,554.712 492.5,550.5C 493.852,547.133 494.518,543.633 494.5,540C 492.387,529.311 491.22,518.477 491,507.5C 489.02,497.879 487.354,488.213 486,478.5C 485.801,476.598 484.967,475.098 483.5,474C 484.268,468.031 484.268,461.864 483.5,455.5C 483.585,453.667 484.252,452.334 485.5,451.5 Z"/></g>
<g><path style="opacity:0.792" fill="#8f0302" d="M 834.5,517.5 C 834.739,519.467 834.406,521.301 833.5,523C 822.172,523.5 810.838,523.667 799.5,523.5C 798.737,522.732 797.737,522.232 796.5,522C 797.737,521.768 798.737,521.268 799.5,520.5C 810.167,520.5 820.833,520.5 831.5,520.5C 832.314,518.369 832.814,516.036 833,513.5C 833.21,515.058 833.71,516.391 834.5,517.5 Z"/></g>
<g><path style="opacity:1" fill="#a20203" d="M 1245.5,545.5 C 1252.95,553.053 1259.95,561.053 1266.5,569.5C 1265.31,570.429 1263.98,570.762 1262.5,570.5C 1262.08,569.778 1261.42,569.278 1260.5,569C 1249.5,568.667 1238.5,568.333 1227.5,568C 1221.39,566.883 1216.22,564.05 1212,559.5C 1210.17,555.851 1207.84,552.518 1205,549.5C 1204.54,545.706 1202.54,543.039 1199,541.5C 1194.63,535.302 1189.96,529.302 1185,523.5C 1182.49,519.997 1179.32,518.331 1175.5,518.5C 1175.86,519.183 1176.2,519.85 1176.5,520.5C 1175.5,536.658 1175.17,552.991 1175.5,569.5C 1171.26,568.564 1166.93,568.231 1162.5,568.5C 1164.64,566.631 1167.3,565.964 1170.5,566.5C 1171.28,548.822 1172.28,531.155 1173.5,513.5C 1174.68,513.719 1175.68,513.386 1176.5,512.5C 1175.83,512.167 1175.17,511.833 1174.5,511.5C 1175.69,510.571 1177.02,510.238 1178.5,510.5C 1178.34,511.873 1178.51,513.207 1179,514.5C 1179.74,513.359 1180.57,513.359 1181.5,514.5C 1182.89,516.725 1184.06,519.058 1185,521.5C 1185.9,522.701 1187.07,523.535 1188.5,524C 1187.66,525.666 1188.16,525.833 1190,524.5C 1190.44,528.44 1192.6,530.44 1196.5,530.5C 1196.5,531.5 1196.5,532.5 1196.5,533.5C 1197.82,533.67 1198.99,533.337 1200,532.5C 1200.48,533.448 1200.65,534.448 1200.5,535.5C 1202.14,535.714 1203.64,535.38 1205,534.5C 1205.61,537.548 1207.11,540.048 1209.5,542C 1208.83,543 1208.17,544 1207.5,545C 1210.24,549.625 1212.4,554.125 1214,558.5C 1218.39,560.606 1222.89,562.606 1227.5,564.5C 1229.45,563.976 1231.12,562.976 1232.5,561.5C 1234.17,561.5 1235.83,561.5 1237.5,561.5C 1237.49,560.559 1237.99,559.892 1239,559.5C 1240.87,560.868 1242.54,562.534 1244,564.5C 1244.85,563.576 1245.85,563.576 1247,564.5C 1248.7,563.476 1250.2,562.142 1251.5,560.5C 1251.02,559.522 1250.36,558.689 1249.5,558C 1250.45,557.282 1250.62,556.449 1250,555.5C 1249.02,553.68 1247.52,552.513 1245.5,552C 1245.83,551.667 1246.17,551.333 1246.5,551C 1244.25,549.743 1242.92,547.91 1242.5,545.5C 1243.5,545.5 1244.5,545.5 1245.5,545.5 Z"/></g>
<g><path style="opacity:1" fill="#f39b00" d="M 244.5,521.5 C 244.152,524.019 242.819,525.853 240.5,527C 216.836,527.5 193.169,527.667 169.5,527.5C 192.33,526.668 215.33,526.168 238.5,526C 212.833,525.667 187.167,525.333 161.5,525C 160.267,523.333 158.933,521.833 157.5,520.5C 157.175,512.648 157.508,504.982 158.5,497.5C 159.549,497.402 160.715,497.402 162,497.5C 162.333,504.833 162.667,512.167 163,519.5C 163.692,520.025 164.192,520.692 164.5,521.5C 189.493,522.666 214.493,522.833 239.5,522C 240,521.5 240.5,521 241,520.5C 241.974,522.878 242.641,522.544 243,519.5C 243.278,520.416 243.778,521.082 244.5,521.5 Z"/></g>
<g><path style="opacity:1" fill="#6b0000" d="M 145.5,526.5 C 120.005,527.498 94.3388,527.831 68.5,527.5C 92.6632,526.668 116.997,526.168 141.5,526C 129.167,525.833 116.833,525.667 104.5,525.5C 91.8148,525.501 79.4814,526.168 67.5,527.5C 64.8106,526.811 63.1439,525.144 62.5,522.5C 64.0174,522.511 65.1841,523.177 66,524.5C 66.4922,523.451 66.3256,522.451 65.5,521.5C 67.6297,520.223 69.2964,520.723 70.5,523C 95.3844,523.998 120.384,524.665 145.5,525C 144.262,525.69 144.262,526.19 145.5,526.5 Z"/></g>
<g><path style="opacity:0.781" fill="#410000" d="M 68.5,527.5 C 68.1667,527.5 67.8333,527.5 67.5,527.5C 79.4814,526.168 91.8148,525.501 104.5,525.5C 116.833,525.667 129.167,525.833 141.5,526C 116.997,526.168 92.6632,526.668 68.5,527.5 Z"/></g>
<g><path style="opacity:0.878" fill="#e27a00" d="M 157.5,520.5 C 158.933,521.833 160.267,523.333 161.5,525C 187.167,525.333 212.833,525.667 238.5,526C 215.33,526.168 192.33,526.668 169.5,527.5C 162.943,529.223 158.943,526.89 157.5,520.5 Z"/></g>
<g><path style="opacity:0.467" fill="#fdd41b" d="M 214.5,534.5 C 238.169,534.333 261.836,534.5 285.5,535C 287.32,535.2 288.653,536.034 289.5,537.5C 288.884,541.006 287.217,541.839 284.5,540C 265.322,539.038 246.155,538.872 227,539.5C 221.112,539.532 215.279,539.032 209.5,538C 211.59,537.331 213.257,536.164 214.5,534.5 Z"/></g>
<g><path style="opacity:1" fill="#c33229" d="M 144.5,534.5 C 160.17,534.333 175.837,534.5 191.5,535C 192.756,535.417 193.423,536.25 193.5,537.5C 192.262,536.588 190.928,536.421 189.5,537C 190.167,537.333 190.833,537.667 191.5,538C 190.167,538.333 188.833,538.667 187.5,539C 189.311,540.041 189.645,541.207 188.5,542.5C 180.165,541.694 171.665,541.027 163,540.5C 160.95,540.309 159.117,539.642 157.5,538.5C 155.132,540.223 152.466,540.89 149.5,540.5C 150.398,539.842 151.398,539.176 152.5,538.5C 141.181,537.668 129.848,537.168 118.5,537C 127.833,536.667 137.167,536.333 146.5,536C 145.584,535.722 144.918,535.222 144.5,534.5 Z"/></g>
<g><path style="opacity:1" fill="#fdbd02" d="M 214.5,534.5 C 213.257,536.164 211.59,537.331 209.5,538C 215.279,539.032 221.112,539.532 227,539.5C 246.155,538.872 265.322,539.038 284.5,540C 287.217,541.839 288.884,541.006 289.5,537.5C 290.458,539.302 291.125,541.302 291.5,543.5C 289.958,542.699 288.292,542.366 286.5,542.5C 286.5,548.833 286.5,555.167 286.5,561.5C 285.71,562.794 284.71,563.961 283.5,565C 258.827,565.833 234.16,565.666 209.5,564.5C 209.192,563.692 208.692,563.025 208,562.5C 207.831,556.141 207.331,549.807 206.5,543.5C 205.712,542.23 204.712,541.23 203.5,540.5C 205.597,535.893 209.264,533.893 214.5,534.5 Z"/></g>
<g><path style="opacity:1" fill="#950101" d="M 98.5,536.5 C 99.3149,537.429 100.148,538.429 101,539.5C 101.823,548.01 101.657,556.344 100.5,564.5C 100.666,557.159 100.5,549.826 100,542.5C 99.84,549.563 99.1733,556.563 98,563.5C 97.6667,562.167 97.3333,560.833 97,559.5C 96.6174,560.056 96.1174,560.389 95.5,560.5C 95.6185,555.637 95.2852,550.803 94.5,546C 94.5825,542.238 95.9159,539.071 98.5,536.5 Z"/></g>
<g><path style="opacity:1" fill="#920205" d="M 1262.5,570.5 C 1248.16,570.667 1233.83,570.5 1219.5,570C 1217.75,569.529 1216.09,568.862 1214.5,568C 1201.21,552.556 1188.54,536.723 1176.5,520.5C 1176.2,519.85 1175.86,519.183 1175.5,518.5C 1179.32,518.331 1182.49,519.997 1185,523.5C 1189.96,529.302 1194.63,535.302 1199,541.5C 1202.54,543.039 1204.54,545.706 1205,549.5C 1207.84,552.518 1210.17,555.851 1212,559.5C 1216.22,564.05 1221.39,566.883 1227.5,568C 1238.5,568.333 1249.5,568.667 1260.5,569C 1261.42,569.278 1262.08,569.778 1262.5,570.5 Z"/></g>
<g><path style="opacity:0.581" fill="#fdb300" d="M 291.5,543.5 C 291.5,549.167 291.5,554.833 291.5,560.5C 290.603,559.402 289.77,559.402 289,560.5C 288.667,559.833 288.333,559.167 288,558.5C 287.768,559.737 287.268,560.737 286.5,561.5C 286.5,555.167 286.5,548.833 286.5,542.5C 288.292,542.366 289.958,542.699 291.5,543.5 Z"/></g>
<g><path style="opacity:1" fill="#ab0906" d="M 28.5,534.5 C 26.4368,535.372 24.4368,536.538 22.5,538C 22.8333,538.333 23.1667,538.667 23.5,539C 47.209,539.064 70.8757,539.23 94.5,539.5C 94.5,538.5 94.5,537.5 94.5,536.5C 92.8008,536.66 91.1341,536.494 89.5,536C 90.056,535.617 90.3893,535.117 90.5,534.5C 93.4206,534.283 96.0872,534.949 98.5,536.5C 95.9159,539.071 94.5825,542.238 94.5,546C 95.2852,550.803 95.6185,555.637 95.5,560.5C 95.1961,561.15 94.8627,561.817 94.5,562.5C 70.5093,563.5 46.5093,563.833 22.5,563.5C 22.2012,556.109 22.5345,548.776 23.5,541.5C 21.5798,537.967 19.2465,537.633 16.5,540.5C 16.8588,538.629 17.8588,537.129 19.5,536C 22.3926,534.851 25.3926,534.351 28.5,534.5 Z"/></g>
<g><path style="opacity:0.599" fill="#c8413d" d="M 28.5,534.5 C 49.1667,534.5 69.8333,534.5 90.5,534.5C 90.3893,535.117 90.056,535.617 89.5,536C 91.1341,536.494 92.8008,536.66 94.5,536.5C 94.5,537.5 94.5,538.5 94.5,539.5C 70.8757,539.23 47.209,539.064 23.5,539C 23.1667,538.667 22.8333,538.333 22.5,538C 24.4368,536.538 26.4368,535.372 28.5,534.5 Z"/></g>
<g><path style="opacity:0.626" fill="#9f0306" d="M 606.5,458.5 C 620.838,495.184 635.172,531.851 649.5,568.5C 648.25,568.423 647.417,567.756 647,566.5C 636.423,568.463 625.59,569.13 614.5,568.5C 614.5,567.5 614.5,566.5 614.5,565.5C 612.278,565.822 610.444,565.155 609,563.5C 607.587,561.348 606.754,559.014 606.5,556.5C 610.049,559.267 613.382,562.267 616.5,565.5C 617.086,565.291 617.586,564.957 618,564.5C 619.87,565.743 622.036,566.41 624.5,566.5C 630.712,566.136 637.046,566.136 643.5,566.5C 643.662,564.473 643.495,562.473 643,560.5C 637.406,547.64 632.073,534.64 627,521.5C 626.346,522.696 625.846,522.696 625.5,521.5C 626.034,514.373 623.534,508.373 618,503.5C 617.685,500.628 617.185,497.795 616.5,495C 614.595,493.098 613.095,490.932 612,488.5C 611.08,488.07 610.247,487.736 609.5,487.5C 610.853,486.476 611.52,485.143 611.5,483.5C 611.822,481.278 611.155,479.444 609.5,478C 609.833,477.667 610.167,477.333 610.5,477C 608.311,476.323 607.978,475.156 609.5,473.5C 608.349,471.191 607.016,469.024 605.5,467C 606.877,463.995 606.544,461.162 604.5,458.5C 604.97,457.537 605.637,457.537 606.5,458.5 Z"/></g>
<g><path style="opacity:1" fill="#a60806" d="M 144.5,534.5 C 144.918,535.222 145.584,535.722 146.5,536C 137.167,536.333 127.833,536.667 118.5,537C 129.848,537.168 141.181,537.668 152.5,538.5C 151.398,539.176 150.398,539.842 149.5,540.5C 145.965,543.055 141.965,544.388 137.5,544.5C 137.5,543.5 137.5,542.5 137.5,541.5C 135.143,541.337 132.81,541.503 130.5,542C 131.289,545.097 132.456,545.264 134,542.5C 136.333,545.5 138.667,548.5 141,551.5C 143.159,549.044 143.992,549.71 143.5,553.5C 137.497,553.988 137.164,555.488 142.5,558C 138.473,559.993 138.64,561.16 143,561.5C 149.146,562.51 155.313,562.676 161.5,562C 163.716,560.356 166.049,558.856 168.5,557.5C 171.33,560.528 174.664,561.195 178.5,559.5C 179.386,560.325 179.719,561.325 179.5,562.5C 182.817,562.781 185.983,562.781 189,562.5C 189.667,557.5 189.667,552.5 189,547.5C 188.002,550.028 187.169,550.028 186.5,547.5C 186.801,545.578 187.467,543.912 188.5,542.5C 189.645,541.207 189.311,540.041 187.5,539C 188.833,538.667 190.167,538.333 191.5,538C 190.833,537.667 190.167,537.333 189.5,537C 190.928,536.421 192.262,536.588 193.5,537.5C 194.458,537.953 195.292,538.619 196,539.5C 196.823,547.677 196.656,555.677 195.5,563.5C 195.666,555.826 195.5,548.159 195,540.5C 194.831,547.191 194.331,553.858 193.5,560.5C 192.833,558.167 192.167,555.833 191.5,553.5C 190.511,557.107 190.177,560.774 190.5,564.5C 165.798,564.629 141.131,563.963 116.5,562.5C 116.831,554.804 116.497,547.138 115.5,539.5C 114.522,539.023 113.689,538.357 113,537.5C 112.184,538.823 111.017,539.489 109.5,539.5C 110.716,537.549 112.382,536.049 114.5,535C 124.494,534.5 134.494,534.334 144.5,534.5 Z"/></g>
<g><path style="opacity:1" fill="#ad0a07" d="M 188.5,542.5 C 187.467,543.912 186.801,545.578 186.5,547.5C 187.169,550.028 188.002,550.028 189,547.5C 189.667,552.5 189.667,557.5 189,562.5C 185.983,562.781 182.817,562.781 179.5,562.5C 179.719,561.325 179.386,560.325 178.5,559.5C 174.664,561.195 171.33,560.528 168.5,557.5C 166.049,558.856 163.716,560.356 161.5,562C 155.313,562.676 149.146,562.51 143,561.5C 138.64,561.16 138.473,559.993 142.5,558C 137.164,555.488 137.497,553.988 143.5,553.5C 143.992,549.71 143.159,549.044 141,551.5C 138.667,548.5 136.333,545.5 134,542.5C 132.456,545.264 131.289,545.097 130.5,542C 132.81,541.503 135.143,541.337 137.5,541.5C 137.5,542.5 137.5,543.5 137.5,544.5C 141.965,544.388 145.965,543.055 149.5,540.5C 152.466,540.89 155.132,540.223 157.5,538.5C 159.117,539.642 160.95,540.309 163,540.5C 171.665,541.027 180.165,541.694 188.5,542.5 Z"/></g>
<g><path style="opacity:1" fill="#930103" d="M 463.5,536.5 C 463.122,538.646 462.788,540.813 462.5,543C 464.063,550.002 465.396,557.002 466.5,564C 477.062,567.928 488.062,569.428 499.5,568.5C 499.795,566.265 499.461,564.265 498.5,562.5C 498.338,560.473 498.505,558.473 499,556.5C 499.122,558.437 499.955,559.77 501.5,560.5C 501.678,563.879 501.678,567.045 501.5,570C 488.504,570.5 475.504,570.667 462.5,570.5C 460.833,555.833 459.167,541.167 457.5,526.5C 458.317,524.031 458.817,521.365 459,518.5C 459.907,524.797 461.407,530.797 463.5,536.5 Z"/></g>
<g><path style="opacity:1" fill="#870001" d="M 95.5,560.5 C 96.1174,560.389 96.6174,560.056 97,559.5C 97.3333,560.833 97.6667,562.167 98,563.5C 99.1733,556.563 99.84,549.563 100,542.5C 100.5,549.826 100.666,557.159 100.5,564.5C 99.9202,566.749 98.5869,568.415 96.5,569.5C 96.1193,568.069 95.1193,567.236 93.5,567C 69.1689,566.5 44.8356,566.333 20.5,566.5C 19.0357,565.595 17.7024,565.595 16.5,566.5C 16.1407,557.888 16.1407,549.221 16.5,540.5C 19.2465,537.633 21.5798,537.967 23.5,541.5C 22.5345,548.776 22.2012,556.109 22.5,563.5C 46.5093,563.833 70.5093,563.5 94.5,562.5C 94.8627,561.817 95.1961,561.15 95.5,560.5 Z"/></g>
<g><path style="opacity:1" fill="#870001" d="M 195.5,563.5 C 195.155,566.198 193.822,568.198 191.5,569.5C 191.33,568.178 191.663,567.011 192.5,566C 168.172,566.34 143.839,566.34 119.5,566C 116.077,564.096 112.41,563.263 108.5,563.5C 108.199,555.414 108.533,547.414 109.5,539.5C 111.017,539.489 112.184,538.823 113,537.5C 113.689,538.357 114.522,539.023 115.5,539.5C 116.497,547.138 116.831,554.804 116.5,562.5C 141.131,563.963 165.798,564.629 190.5,564.5C 190.177,560.774 190.511,557.107 191.5,553.5C 192.167,555.833 192.833,558.167 193.5,560.5C 194.331,553.858 194.831,547.191 195,540.5C 195.5,548.159 195.666,555.826 195.5,563.5 Z"/></g>
<g><path style="opacity:1" fill="#900103" d="M 606.5,556.5 C 606.754,559.014 607.587,561.348 609,563.5C 610.444,565.155 612.278,565.822 614.5,565.5C 614.5,566.5 614.5,567.5 614.5,568.5C 625.59,569.13 636.423,568.463 647,566.5C 647.417,567.756 648.25,568.423 649.5,568.5C 642.699,569.831 635.533,570.497 628,570.5C 620.833,570.333 613.667,570.167 606.5,570C 604.121,562.573 601.454,555.239 598.5,548C 585.167,547.333 571.833,547.333 558.5,548C 555.354,553.46 553.188,559.294 552,565.5C 551.167,567.667 549.667,569.167 547.5,570C 534.5,570.667 521.5,570.667 508.5,570C 507.587,568.586 507.587,567.086 508.5,565.5C 510.87,565.017 511.537,563.851 510.5,562C 512.665,559.232 514.165,556.065 515,552.5C 514.997,556.521 514.497,560.521 513.5,564.5C 513.709,565.086 514.043,565.586 514.5,566C 524.208,567.294 533.875,567.294 543.5,566C 546.821,564.516 548.821,562.016 549.5,558.5C 550.363,556.579 551.029,554.579 551.5,552.5C 553.306,550.911 554.639,548.911 555.5,546.5C 556.376,545.749 557.376,545.249 558.5,545C 572.512,544.167 586.512,544.334 600.5,545.5C 602.705,549.192 604.705,552.859 606.5,556.5 Z"/></g>
<g><path style="opacity:1" fill="#f7a000" d="M 203.5,540.5 C 204.712,541.23 205.712,542.23 206.5,543.5C 207.331,549.807 207.831,556.141 208,562.5C 208.692,563.025 209.192,563.692 209.5,564.5C 234.16,565.666 258.827,565.833 283.5,565C 284.71,563.961 285.71,562.794 286.5,561.5C 287.268,560.737 287.768,559.737 288,558.5C 288.333,559.167 288.667,559.833 289,560.5C 289.77,559.402 290.603,559.402 291.5,560.5C 290.79,562.746 290.29,565.08 290,567.5C 289.617,568.056 289.117,568.389 288.5,568.5C 261.706,568.643 234.706,568.477 207.5,568C 206.667,567.167 205.833,566.333 205,565.5C 204.379,557.993 203.546,550.659 202.5,543.5C 202.557,542.391 202.89,541.391 203.5,540.5 Z"/></g>
<g><path style="opacity:1" fill="#9e0303" d="M 986.5,457.5 C 987.239,457.369 987.906,457.536 988.5,458C 985.509,460.99 983.343,464.49 982,468.5C 981.333,493.5 981.333,518.5 982,543.5C 982.333,542.833 982.667,542.167 983,541.5C 983.743,543.441 983.576,545.274 982.5,547C 983.658,548.009 984.325,549.342 984.5,551C 984.992,555.316 985.492,559.482 986,563.5C 986.374,564.416 986.874,565.25 987.5,566C 996.186,566.832 1004.85,566.665 1013.5,565.5C 1016.78,563.573 1020.11,561.74 1023.5,560C 1024.58,558.67 1025.25,557.17 1025.5,555.5C 1027.05,555.179 1027.71,554.179 1027.5,552.5C 1028.5,552.5 1029.5,552.5 1030.5,552.5C 1030.5,551.5 1030.5,550.5 1030.5,549.5C 1031.98,549.762 1033.31,549.429 1034.5,548.5C 1035.64,545.922 1037.31,544.922 1039.5,545.5C 1034.97,551.909 1029.97,557.909 1024.5,563.5C 1024.63,562.761 1024.46,562.094 1024,561.5C 1021.33,563.34 1018.83,565.34 1016.5,567.5C 1005.52,568.499 994.52,568.832 983.5,568.5C 983.663,566.143 983.497,563.81 983,561.5C 983.03,564.361 982.197,566.695 980.5,568.5C 980.564,537.512 980.231,506.845 979.5,476.5C 980.1,471.379 981.266,466.379 983,461.5C 983.66,459.676 984.827,458.343 986.5,457.5 Z"/></g>
<g><path style="opacity:1" fill="#6a0001" d="M 108.5,563.5 C 112.41,563.263 116.077,564.096 119.5,566C 143.839,566.34 168.172,566.34 192.5,566C 191.663,567.011 191.33,568.178 191.5,569.5C 165.165,569.667 138.831,569.5 112.5,569C 110.561,567.568 109.228,565.735 108.5,563.5 Z"/></g>
<g><path style="opacity:1" fill="#980203" d="M 385.5,506.5 C 386.434,507.568 386.768,508.901 386.5,510.5C 383.995,529.654 381.328,548.654 378.5,567.5C 378.664,564.813 378.497,562.146 378,559.5C 377.498,562.513 376.998,565.513 376.5,568.5C 364.655,568.172 352.988,568.505 341.5,569.5C 340.876,569.083 340.543,568.416 340.5,567.5C 345.742,539.292 350.075,510.959 353.5,482.5C 354.117,482.389 354.617,482.056 355,481.5C 355.958,483.199 356.458,485.033 356.5,487C 354.841,495.445 353.508,503.945 352.5,512.5C 352.627,515.387 353.627,517.887 355.5,520C 354.552,520.483 353.552,520.649 352.5,520.5C 352.33,521.822 352.663,522.989 353.5,524C 351.755,529.647 350.589,535.481 350,541.5C 348.456,543.468 347.289,545.635 346.5,548C 346.489,553.025 346.655,558.191 347,563.5C 348.328,565.669 349.994,566.002 352,564.5C 359.009,566.529 366.176,567.029 373.5,566C 374.416,565.626 375.25,565.126 376,564.5C 375.748,560.746 375.582,557.079 375.5,553.5C 377.856,547.164 379.523,540.664 380.5,534C 379.898,532.096 380.398,530.263 382,528.5C 382.936,521.115 384.102,513.782 385.5,506.5 Z"/></g>
<g><path style="opacity:1" fill="#680001" d="M 20.5,566.5 C 44.8356,566.333 69.1689,566.5 93.5,567C 95.1193,567.236 96.1193,568.069 96.5,569.5C 95.8333,569.5 95.1667,569.5 94.5,569.5C 71.3369,568.668 48.0036,568.168 24.5,568C 22.9419,567.79 21.6085,567.29 20.5,566.5 Z"/></g>
<g><path style="opacity:0.732" fill="#4d0000" d="M 20.5,566.5 C 21.6085,567.29 22.9419,567.79 24.5,568C 48.0036,568.168 71.3369,568.668 94.5,569.5C 71.9248,569.173 49.4248,569.506 27,570.5C 24.2595,569.718 21.4262,569.218 18.5,569C 17.6195,568.292 16.9528,567.458 16.5,566.5C 17.7024,565.595 19.0357,565.595 20.5,566.5 Z"/></g>
<g><path style="opacity:0.399" fill="#ed9400" d="M 202.5,543.5 C 203.546,550.659 204.379,557.993 205,565.5C 205.833,566.333 206.667,567.167 207.5,568C 234.706,568.477 261.706,568.643 288.5,568.5C 288.082,569.222 287.416,569.722 286.5,570C 260.167,570.667 233.833,570.667 207.5,570C 204.906,568.661 203.406,566.494 203,563.5C 202.5,556.842 202.334,550.175 202.5,543.5 Z"/></g>
<g><path style="opacity:0.46" fill="#810001" d="M 378.5,567.5 C 378.586,568.496 378.252,569.329 377.5,570C 365.326,570.826 353.326,570.66 341.5,569.5C 352.988,568.505 364.655,568.172 376.5,568.5C 376.998,565.513 377.498,562.513 378,559.5C 378.497,562.146 378.664,564.813 378.5,567.5 Z"/></g>
<g><path style="opacity:1" fill="#910407" d="M 840.5,542.5 C 840.5,551.833 840.5,561.167 840.5,570.5C 811.481,571.159 782.814,570.492 754.5,568.5C 782.5,568.5 810.5,568.5 838.5,568.5C 838.334,559.494 838.5,550.494 839,541.5C 839.383,542.056 839.883,542.389 840.5,542.5 Z"/></g>
<g><path style="opacity:1" fill="#8f0001" d="M 1113.5,504.5 C 1113.5,526.5 1113.5,548.5 1113.5,570.5C 1099.16,570.667 1084.83,570.5 1070.5,570C 1069.94,569.617 1069.61,569.117 1069.5,568.5C 1074.73,568.178 1080.06,568.178 1085.5,568.5C 1093.83,568.5 1102.17,568.5 1110.5,568.5C 1111.44,530.512 1111.77,492.512 1111.5,454.5C 1112.21,469.304 1112.88,485.971 1113.5,504.5 Z"/></g>
<g><path style="opacity:0.398" fill="#8d0001" d="M 740.5,479.5 C 741.492,479.328 742.158,479.662 742.5,480.5C 733.014,481.494 723.348,481.827 713.5,481.5C 713.833,510.841 713.5,540.174 712.5,569.5C 698.706,570.823 685.039,570.823 671.5,569.5C 678.982,568.508 686.648,568.175 694.5,568.5C 700.167,568.5 705.833,568.5 711.5,568.5C 711.5,564.167 711.5,559.833 711.5,555.5C 711.333,530.498 711.5,505.498 712,480.5C 721.417,479.515 730.917,479.182 740.5,479.5 Z"/></g>
<g><path style="opacity:0.437" fill="#870002" d="M 1024.5,563.5 C 1022.6,566.557 1019.94,568.723 1016.5,570C 1010.5,570.167 1004.5,570.333 998.5,570.5C 992.128,570.496 986.128,569.829 980.5,568.5C 982.197,566.695 983.03,564.361 983,561.5C 983.497,563.81 983.663,566.143 983.5,568.5C 994.52,568.832 1005.52,568.499 1016.5,567.5C 1018.83,565.34 1021.33,563.34 1024,561.5C 1024.46,562.094 1024.63,562.761 1024.5,563.5 Z"/></g>
<g><path style="opacity:0.408" fill="#850001" d="M 1131.5,568.5 C 1140.5,568.5 1149.5,568.5 1158.5,568.5C 1159.83,568.5 1161.17,568.5 1162.5,568.5C 1166.93,568.231 1171.26,568.564 1175.5,569.5C 1168.34,570.166 1161.01,570.5 1153.5,570.5C 1145.8,570.497 1138.47,569.831 1131.5,568.5 Z"/></g>
</svg>
