<?xml version="1.0" encoding="UTF-8"?>
<!DOCTYPE svg PUBLIC "-//W3C//DTD SVG 1.1//EN" "http://www.w3.org/Graphics/SVG/1.1/DTD/svg11.dtd">
<svg xmlns="http://www.w3.org/2000/svg" version="1.1" width="2164px" height="1081px" style="shape-rendering:geometricPrecision; text-rendering:geometricPrecision; image-rendering:optimizeQuality; fill-rule:evenodd; clip-rule:evenodd" xmlns:xlink="http://www.w3.org/1999/xlink">
<g><path style="opacity:0.997" fill="#264796" d="M 53.5,347.5 C 59.4337,346.889 65.1004,347.722 70.5,350C 111.964,379.14 153.798,407.64 196,435.5C 200.842,433.661 205.342,431.161 209.5,428C 248.226,400.943 287.226,374.276 326.5,348C 338.968,345.315 347.468,349.815 352,361.5C 352.667,412.167 352.667,462.833 352,513.5C 350.657,517.51 348.491,521.01 345.5,524C 299.003,550.414 252.67,577.081 206.5,604C 199.008,607.481 191.675,607.148 184.5,603C 138.833,576.667 93.1667,550.333 47.5,524C 44.4686,521.441 42.3019,518.274 41,514.5C 40.3333,463.167 40.3333,411.833 41,360.5C 43.3531,354.315 47.5198,349.982 53.5,347.5 Z"/></g>
<g><path style="opacity:1" fill="#fdfdfd" d="M 328.5,355.5 C 335.018,354.123 340.185,356.123 344,361.5C 344.667,411.833 344.667,462.167 344,512.5C 343.293,514.081 342.46,515.581 341.5,517C 333.833,521.5 326.167,526 318.5,530.5C 276.833,501.667 235.167,472.833 193.5,444C 197.435,443.916 201.102,442.916 204.5,441C 245.737,412.247 287.07,383.747 328.5,355.5 Z"/></g>
<g><path style="opacity:0.996" fill="#254695" d="M 489.5,410.5 C 494.715,409.702 499.215,411.036 503,414.5C 528.333,447.167 553.667,479.833 579,512.5C 581.439,515.612 584.439,517.945 588,519.5C 591.221,518.284 593.888,516.284 596,513.5C 622.138,479.395 648.638,445.561 675.5,412C 680.683,409.695 685.516,410.195 690,413.5C 690.667,482.5 690.667,551.5 690,620.5C 689.626,621.416 689.126,622.25 688.5,623C 682.103,624.128 675.603,624.628 669,624.5C 663.167,624.333 657.333,624.167 651.5,624C 650.584,623.626 649.75,623.126 649,622.5C 647.682,593.253 647.016,563.919 647,534.5C 646.679,530.179 644.345,527.845 640,527.5C 637.594,527.703 635.594,528.703 634,530.5C 621.546,546.623 608.712,562.456 595.5,578C 589.372,580.37 583.539,579.87 578,576.5C 565.5,560.667 553,544.833 540.5,529C 535.386,526.207 531.553,527.374 529,532.5C 528.667,561.833 528.333,591.167 528,620.5C 527.5,622.333 526.333,623.5 524.5,624C 512.5,624.667 500.5,624.667 488.5,624C 487.667,623.167 486.833,622.333 486,621.5C 484.347,553.211 484.013,484.878 485,416.5C 485.599,413.746 487.099,411.746 489.5,410.5 Z"/></g>
<g><path style="opacity:0.996" fill="#254695" d="M 796.5,463.5 C 833.973,459.976 860.806,474.976 877,508.5C 879.454,514.637 880.454,520.971 880,527.5C 878.833,528.667 877.667,529.833 876.5,531C 843.167,546 809.833,561 776.5,576C 786.191,586.401 798.191,591.234 812.5,590.5C 826.37,590.599 839.036,586.765 850.5,579C 853.634,578.21 856.634,578.543 859.5,580C 864.361,587.39 868.694,595.057 872.5,603C 872,604.5 871.5,606 871,607.5C 849.512,624.667 825.012,631.5 797.5,628C 766.884,623.38 744.718,607.214 731,579.5C 716.706,538.15 726.539,503.984 760.5,477C 771.608,469.802 783.608,465.302 796.5,463.5 Z M 796.5,499.5 C 810.88,497.195 823.047,501.195 833,511.5C 833.749,512.635 833.583,513.635 832.5,514.5C 813.875,523.097 795.209,531.597 776.5,540C 768.11,541.275 764.943,537.775 767,529.5C 771.015,513.652 780.848,503.652 796.5,499.5 Z"/></g>
<g><path style="opacity:0.997" fill="#254695" d="M 1112.5,463.5 C 1129.3,462.018 1145.3,464.852 1160.5,472C 1178.29,482.724 1188.12,498.557 1190,519.5C 1190.67,553.167 1190.67,586.833 1190,620.5C 1189.17,622 1188,623.167 1186.5,624C 1173.17,624.5 1159.84,624.667 1146.5,624.5C 1146.8,622.396 1146.47,620.396 1145.5,618.5C 1123.27,629.62 1100.27,631.453 1076.5,624C 1051.53,611.451 1043.03,591.618 1051,564.5C 1056.62,552.881 1065.45,544.715 1077.5,540C 1095.55,536.724 1113.38,532.557 1131,527.5C 1147.75,522.715 1148.92,515.215 1134.5,505C 1121.56,499.944 1108.89,500.611 1096.5,507C 1091.17,511 1085.83,515 1080.5,519C 1077.21,519.936 1074.21,519.436 1071.5,517.5C 1067.19,512.02 1062.69,506.687 1058,501.5C 1056.54,498.634 1056.21,495.634 1057,492.5C 1071.95,475.915 1090.45,466.249 1112.5,463.5 Z M 1137.5,557.5 C 1141.03,557.346 1143.86,558.679 1146,561.5C 1146.67,569.167 1146.67,576.833 1146,584.5C 1142.32,589.267 1137.49,592.434 1131.5,594C 1121.8,597.044 1112.13,597.044 1102.5,594C 1092.45,589.063 1089.95,581.563 1095,571.5C 1096.5,570 1098,568.5 1099.5,567C 1112.39,564.26 1125.06,561.094 1137.5,557.5 Z"/></g>
<g><path style="opacity:0.996" fill="#254695" d="M 1477.5,463.5 C 1519.2,460.422 1549.36,477.422 1568,514.5C 1582.62,561.677 1568.45,597.177 1525.5,621C 1493.58,633.711 1463.58,630.378 1435.5,611C 1406.21,585.357 1397.38,553.857 1409,516.5C 1422.39,486.414 1445.22,468.748 1477.5,463.5 Z M 1483.5,503.5 C 1506.92,502.956 1521.75,513.956 1528,536.5C 1531.49,558.351 1523.66,574.517 1504.5,585C 1479.34,592.837 1461.5,584.67 1451,560.5C 1445.43,540.239 1450.6,523.406 1466.5,510C 1471.89,506.752 1477.55,504.585 1483.5,503.5 Z"/></g>
<g><path style="opacity:0.996" fill="#254695" d="M 2042.5,463.5 C 2069.88,460.676 2093.04,469.01 2112,488.5C 2115.11,492.226 2117.28,496.393 2118.5,501C 2118.56,503.261 2117.89,505.261 2116.5,507C 2110.5,511.667 2104.5,516.333 2098.5,521C 2095.03,523.786 2091.37,524.12 2087.5,522C 2071.69,502.772 2052.69,498.772 2030.5,510C 2010.66,527.564 2007.16,548.064 2020,571.5C 2035.33,589.252 2053.5,592.752 2074.5,582C 2078.8,578.702 2082.8,575.035 2086.5,571C 2090.45,567.862 2094.45,567.862 2098.5,571C 2104.67,575.833 2110.83,580.667 2117,585.5C 2119,589.167 2119,592.833 2117,596.5C 2093.82,624.672 2064.32,634.505 2028.5,626C 1990.37,612.877 1970.04,586.21 1967.5,546C 1971.42,499.247 1996.42,471.747 2042.5,463.5 Z"/></g>
<g><path style="opacity:0.996" fill="#254695" d="M 1899.5,463.5 C 1909.51,463.334 1919.51,463.5 1929.5,464C 1931.67,464.833 1933.17,466.333 1934,468.5C 1934.99,519.583 1934.66,570.583 1933,621.5C 1932.17,622.333 1931.33,623.167 1930.5,624C 1918.5,624.667 1906.5,624.667 1894.5,624C 1893.67,623.167 1892.83,622.333 1892,621.5C 1890.69,600.922 1890.02,580.256 1890,559.5C 1886.75,554.191 1882.75,553.524 1878,557.5C 1860.55,581.284 1842.72,604.784 1824.5,628C 1813.4,628.954 1802.4,628.62 1791.5,627C 1790.87,626.25 1790.37,625.416 1790,624.5C 1789.83,599 1789.67,573.5 1789.5,548C 1789.34,521.748 1789.84,495.582 1791,469.5C 1792.65,468.283 1794.48,467.45 1796.5,467C 1806.17,466.333 1815.83,466.333 1825.5,467C 1828.46,467.392 1830.62,468.892 1832,471.5C 1832.33,491.833 1832.67,512.167 1833,532.5C 1837.57,539.137 1842.23,539.137 1847,532.5C 1864.01,509.007 1881.51,486.007 1899.5,463.5 Z"/></g>
<g><path style="opacity:0.995" fill="#254695" d="M 922.5,466.5 C 956.502,466.333 990.502,466.5 1024.5,467C 1027.46,467.392 1029.62,468.892 1031,471.5C 1031.67,480.833 1031.67,490.167 1031,499.5C 1029.62,502.108 1027.46,503.608 1024.5,504C 1003.83,504.333 983.167,504.667 962.5,505C 961.667,505.833 960.833,506.667 960,507.5C 958.679,545.082 958.012,582.749 958,620.5C 957.167,622 956,623.167 954.5,624C 942.833,624.667 931.167,624.667 919.5,624C 917.667,623.5 916.5,622.333 916,620.5C 915.333,570.833 915.333,521.167 916,471.5C 917.563,468.977 919.73,467.31 922.5,466.5 Z"/></g>
<g><path style="opacity:1" fill="#254695" d="M 1235.5,466.5 C 1278.17,466.333 1320.83,466.5 1363.5,467C 1365.52,467.45 1367.35,468.283 1369,469.5C 1370.66,519.75 1370.99,570.084 1370,620.5C 1369.17,621.5 1368.33,622.5 1367.5,623.5C 1355.21,624.646 1342.88,624.813 1330.5,624C 1329.67,623.167 1328.83,622.333 1328,621.5C 1326.68,583.893 1326.02,546.226 1326,508.5C 1325.5,506.667 1324.33,505.5 1322.5,505C 1307.17,504.333 1291.83,504.333 1276.5,505C 1275.07,505.465 1273.9,506.299 1273,507.5C 1272.01,545.871 1271.01,584.205 1270,622.5C 1269.25,623.126 1268.42,623.626 1267.5,624C 1255.83,624.667 1244.17,624.667 1232.5,624C 1231.67,623.167 1230.83,622.333 1230,621.5C 1228.34,571.916 1228.01,522.25 1229,472.5C 1230.44,469.558 1232.6,467.558 1235.5,466.5 Z"/></g>
<g><path style="opacity:0.995" fill="#254695" d="M 1627.5,466.5 C 1664.5,466.333 1701.5,466.5 1738.5,467C 1741.46,467.392 1743.62,468.892 1745,471.5C 1745.67,521.167 1745.67,570.833 1745,620.5C 1744.17,622 1743,623.167 1741.5,624C 1729.83,624.667 1718.17,624.667 1706.5,624C 1704.67,623.5 1703.5,622.333 1703,620.5C 1702.67,583.833 1702.33,547.167 1702,510.5C 1701.65,508.152 1700.49,506.319 1698.5,505C 1687.17,504.333 1675.83,504.333 1664.5,505C 1663.67,505.833 1662.83,506.667 1662,507.5C 1660.41,526.144 1658.74,544.811 1657,563.5C 1655.63,578.592 1651.63,592.925 1645,606.5C 1631.69,625.383 1613.85,631.55 1591.5,625C 1590,623.509 1589.16,621.676 1589,619.5C 1588.5,609.172 1588.33,598.839 1588.5,588.5C 1597.4,591.033 1604.24,588.367 1609,580.5C 1614.54,568.121 1617.54,555.121 1618,541.5C 1619.14,519.184 1619.81,496.851 1620,474.5C 1620.68,469.989 1623.18,467.323 1627.5,466.5 Z"/></g>
<g><path style="opacity:0.996" fill="#c92c21" d="M 51.5,618.5 C 147.834,618.333 244.167,618.5 340.5,619C 345.91,620.743 349.744,624.243 352,629.5C 352.667,643.833 352.667,658.167 352,672.5C 349.833,677.333 346.333,680.833 341.5,683C 244.833,683.667 148.167,683.667 51.5,683C 47.2541,681.802 44.0875,679.302 42,675.5C 40.8802,667.406 40.3802,659.24 40.5,651C 40.3802,642.76 40.8802,634.594 42,626.5C 44.7348,623.231 47.9014,620.564 51.5,618.5 Z"/></g>
</svg>
