<?xml version="1.0" encoding="UTF-8"?>
<!DOCTYPE svg PUBLIC "-//W3C//DTD SVG 1.1//EN" "http://www.w3.org/Graphics/SVG/1.1/DTD/svg11.dtd">
<svg xmlns="http://www.w3.org/2000/svg" version="1.1" width="1295px" height="502px" style="shape-rendering:geometricPrecision; text-rendering:geometricPrecision; image-rendering:optimizeQuality; fill-rule:evenodd; clip-rule:evenodd" xmlns:xlink="http://www.w3.org/1999/xlink">
<g><path style="opacity:0.996" fill="#141b86" d="M -0.5,-0.5 C 431.167,-0.5 862.833,-0.5 1294.5,-0.5C 1294.5,166.833 1294.5,334.167 1294.5,501.5C 862.833,501.5 431.167,501.5 -0.5,501.5C -0.5,334.167 -0.5,166.833 -0.5,-0.5 Z"/></g>
<g><path style="opacity:1" fill="#f6f6fa" d="M 1125.5,117.5 C 1089.83,118.833 1054.17,118.833 1018.5,117.5C 1019.91,114.242 1021.57,111.076 1023.5,108C 988.835,107.5 954.168,107.333 919.5,107.5C 919.5,103.167 919.5,98.8333 919.5,94.5C 983.834,94.3333 1048.17,94.5 1112.5,95C 1117.22,102.282 1121.56,109.782 1125.5,117.5 Z"/></g>
<g><path style="opacity:1" fill="#bcbedc" d="M 1018.5,117.5 C 1054.17,118.833 1089.83,118.833 1125.5,117.5C 1126.04,117.56 1126.38,117.893 1126.5,118.5C 1090.17,119.833 1053.83,119.833 1017.5,118.5C 1017.62,117.893 1017.96,117.56 1018.5,117.5 Z"/></g>
<g><path style="opacity:1" fill="#c4c6e1" d="M 1131.5,127.5 C 1061.17,127.5 990.833,127.5 920.5,127.5C 920.5,131.167 920.5,134.833 920.5,138.5C 920.167,138.5 919.833,138.5 919.5,138.5C 919.5,134.5 919.5,130.5 919.5,126.5C 990.335,126.167 1061,126.501 1131.5,127.5 Z"/></g>
<g><path style="opacity:1" fill="#fefefe" d="M 1131.5,127.5 C 1136.09,135.004 1140.42,142.671 1144.5,150.5C 1096,150.832 1047.66,150.499 999.5,149.5C 1001.42,146.661 1003.09,143.661 1004.5,140.5C 1005.04,140.44 1005.38,140.107 1005.5,139.5C 977.175,138.5 948.841,138.167 920.5,138.5C 920.5,134.833 920.5,131.167 920.5,127.5C 990.833,127.5 1061.17,127.5 1131.5,127.5 Z"/></g>
<g><path style="opacity:1" fill="#fdfdfe" d="M 278.5,246.5 C 234.33,246.832 190.33,246.499 146.5,245.5C 149.273,240.221 152.273,235.054 155.5,230C 180.164,229.5 204.831,229.333 229.5,229.5C 225.683,205.506 212.017,190.006 188.5,183C 160.009,175.055 136.176,182.222 117,204.5C 109.167,190.833 101.333,177.167 93.5,163.5C 110.421,148.906 130.088,140.406 152.5,138C 184.726,135.028 214.059,142.695 240.5,161C 265.794,183.765 278.461,212.265 278.5,246.5 Z"/></g>
<g><path style="opacity:1" fill="#7a7eba" d="M 919.5,138.5 C 919.833,138.5 920.167,138.5 920.5,138.5C 948.841,138.167 977.175,138.5 1005.5,139.5C 1005.38,140.107 1005.04,140.44 1004.5,140.5C 976.167,139.833 947.833,139.167 919.5,138.5 Z"/></g>
<g><path style="opacity:1" fill="#f9f9fc" d="M 491.5,155.5 C 424.669,156.499 357.669,156.832 290.5,156.5C 293.695,150.613 297.028,144.779 300.5,139C 361.169,138.167 421.836,138.333 482.5,139.5C 485.512,144.861 488.512,150.194 491.5,155.5 Z"/></g>
<g><path style="opacity:1" fill="#fefefe" d="M 687.5,139.5 C 710.167,139.5 732.833,139.5 755.5,139.5C 755.5,213.5 755.5,287.5 755.5,361.5C 739.167,361.5 722.833,361.5 706.5,361.5C 706.5,339.833 706.5,318.167 706.5,296.5C 706.667,272.164 706.5,247.831 706,223.5C 705.487,224.527 704.987,225.527 704.5,226.5C 691.768,262.362 679.435,298.362 667.5,334.5C 650.154,334.833 632.821,334.5 615.5,333.5C 602.765,296.796 589.932,260.129 577,223.5C 576.5,235.495 576.333,247.495 576.5,259.5C 576.5,293.5 576.5,327.5 576.5,361.5C 559.833,361.5 543.167,361.5 526.5,361.5C 526.5,287.167 526.5,212.833 526.5,138.5C 549.51,138.167 572.51,138.5 595.5,139.5C 611.372,188.282 626.539,237.282 641,286.5C 656.031,237.244 671.531,188.244 687.5,139.5 Z"/></g>
<g><path style="opacity:1" fill="#b8b9da" d="M 687.5,139.5 C 710.327,138.502 733.327,138.169 756.5,138.5C 756.5,213.167 756.5,287.833 756.5,362.5C 739.5,362.5 722.5,362.5 705.5,362.5C 705.5,340.5 705.5,318.5 705.5,296.5C 705.833,296.5 706.167,296.5 706.5,296.5C 706.5,318.167 706.5,339.833 706.5,361.5C 722.833,361.5 739.167,361.5 755.5,361.5C 755.5,287.5 755.5,213.5 755.5,139.5C 732.833,139.5 710.167,139.5 687.5,139.5 Z"/></g>
<g><path style="opacity:1" fill="#9396c7" d="M 999.5,149.5 C 1047.66,150.499 1096,150.832 1144.5,150.5C 1096,151.831 1047.33,151.831 998.5,150.5C 998.624,149.893 998.957,149.56 999.5,149.5 Z"/></g>
<g><path style="opacity:1" fill="#555aa7" d="M 491.5,155.5 C 492.043,155.56 492.376,155.893 492.5,156.5C 425.001,157.832 357.668,157.832 290.5,156.5C 357.669,156.832 424.669,156.499 491.5,155.5 Z"/></g>
<g><path style="opacity:1" fill="#d7d8eb" d="M 1149.5,159.5 C 1073.17,159.5 996.833,159.5 920.5,159.5C 920.5,163.167 920.5,166.833 920.5,170.5C 919.517,166.702 919.183,162.702 919.5,158.5C 996.335,158.167 1073,158.501 1149.5,159.5 Z"/></g>
<g><path style="opacity:1" fill="#fefefe" d="M 1149.5,159.5 C 1153.82,166.798 1158.15,174.131 1162.5,181.5C 1102.17,182.833 1041.83,182.833 981.5,181.5C 983.14,178.22 984.807,174.886 986.5,171.5C 964.51,170.5 942.51,170.167 920.5,170.5C 920.5,166.833 920.5,163.167 920.5,159.5C 996.833,159.5 1073.17,159.5 1149.5,159.5 Z"/></g>
<g><path style="opacity:1" fill="#393f99" d="M 290.5,164.5 C 357.668,163.168 425.001,163.168 492.5,164.5C 492.376,165.107 492.043,165.44 491.5,165.5C 424.669,164.501 357.669,164.168 290.5,164.5 Z"/></g>
<g><path style="opacity:1" fill="#fdfdfe" d="M 290.5,164.5 C 357.669,164.168 424.669,164.501 491.5,165.5C 488.512,170.806 485.512,176.139 482.5,181.5C 460.844,182.5 439.177,182.833 417.5,182.5C 417.5,242.167 417.5,301.833 417.5,361.5C 400.167,361.5 382.833,361.5 365.5,361.5C 365.832,301.664 365.499,241.998 364.5,182.5C 343.164,182.667 321.831,182.5 300.5,182C 297.028,176.221 293.695,170.387 290.5,164.5 Z"/></g>
<g><path style="opacity:1" fill="#8589c0" d="M 981.5,181.5 C 1041.83,182.833 1102.17,182.833 1162.5,181.5C 1163.04,181.56 1163.38,181.893 1163.5,182.5C 1102.5,183.833 1041.5,183.833 980.5,182.5C 980.624,181.893 980.957,181.56 981.5,181.5 Z"/></g>
<g><path style="opacity:1" fill="#efeff7" d="M 1167.5,191.5 C 1053.5,191.5 939.5,191.5 825.5,191.5C 825.5,195.167 825.5,198.833 825.5,202.5C 824.517,198.702 824.183,194.702 824.5,190.5C 939.001,190.167 1053.33,190.5 1167.5,191.5 Z"/></g>
<g><path style="opacity:1" fill="#fefefe" d="M 1167.5,191.5 C 1172.33,198.496 1176.67,205.829 1180.5,213.5C 1144.17,214.833 1107.83,214.833 1071.5,213.5C 1073.11,209.783 1075.11,206.283 1077.5,203C 993.501,202.5 909.501,202.333 825.5,202.5C 825.5,198.833 825.5,195.167 825.5,191.5C 939.5,191.5 1053.5,191.5 1167.5,191.5 Z"/></g>
<g><path style="opacity:1" fill="#6c71b4" d="M 1071.5,213.5 C 1107.83,214.833 1144.17,214.833 1180.5,213.5C 1181.04,213.56 1181.38,213.893 1181.5,214.5C 1144.5,215.833 1107.5,215.833 1070.5,214.5C 1070.62,213.893 1070.96,213.56 1071.5,213.5 Z"/></g>
<g><path style="opacity:1" fill="#fefefe" d="M 1057.5,236.5 C 1058.04,236.44 1058.38,236.107 1058.5,235.5C 980.503,234.5 902.503,234.167 824.5,234.5C 824.5,230.5 824.5,226.5 824.5,222.5C 945.169,222.167 1065.84,222.5 1186.5,223.5C 1190.83,230.833 1195.17,238.167 1199.5,245.5C 1150.5,246.667 1101.5,246.833 1052.5,246C 1054.32,242.859 1055.99,239.692 1057.5,236.5 Z"/></g>
<g><path style="opacity:1" fill="#2a3091" d="M 824.5,234.5 C 902.503,234.167 980.503,234.5 1058.5,235.5C 1058.38,236.107 1058.04,236.44 1057.5,236.5C 979.833,235.833 902.167,235.167 824.5,234.5 Z"/></g>
<g><path style="opacity:1" fill="#5258a6" d="M 146.5,245.5 C 190.33,246.499 234.33,246.832 278.5,246.5C 234.331,247.831 189.998,247.831 145.5,246.5C 145.624,245.893 145.957,245.56 146.5,245.5 Z"/></g>
<g><path style="opacity:1" fill="#fdfdfe" d="M 229.5,273.5 C 230.043,273.44 230.376,273.107 230.5,272.5C 205.509,271.5 180.509,271.167 155.5,271.5C 152.392,265.886 149.059,260.386 145.5,255C 189.832,254.5 234.165,254.333 278.5,254.5C 278.413,288.821 265.747,317.321 240.5,340C 213.82,358.662 184.153,366.328 151.5,363C 129.427,360.378 110.094,351.878 93.5,337.5C 101.333,323.833 109.167,310.167 117,296.5C 140.087,322.112 167.587,327.945 199.5,314C 216.533,305.789 226.533,292.289 229.5,273.5 Z"/></g>
<g><path style="opacity:1" fill="#fefefe" d="M 1052.5,255.5 C 1101.34,254.169 1150.34,254.169 1199.5,255.5C 1195.17,262.833 1190.83,270.167 1186.5,277.5C 1065.84,278.5 945.169,278.833 824.5,278.5C 824.5,274.5 824.5,270.5 824.5,266.5C 902.503,266.833 980.503,266.5 1058.5,265.5C 1056.47,262.103 1054.47,258.77 1052.5,255.5 Z"/></g>
<g><path style="opacity:1" fill="#999cca" d="M 155.5,271.5 C 180.509,271.167 205.509,271.5 230.5,272.5C 230.376,273.107 230.043,273.44 229.5,273.5C 204.833,272.833 180.167,272.167 155.5,271.5 Z"/></g>
<g><path style="opacity:1" fill="#4b50a3" d="M 1181.5,286.5 C 1144.66,286.168 1108,286.502 1071.5,287.5C 1070.96,287.44 1070.62,287.107 1070.5,286.5C 1107.66,285.17 1144.66,285.17 1181.5,286.5 Z"/></g>
<g><path style="opacity:1" fill="#fefefe" d="M 1181.5,286.5 C 1176.93,293.977 1172.59,301.644 1168.5,309.5C 1053.84,310.5 939.169,310.833 824.5,310.5C 824.5,306.5 824.5,302.5 824.5,298.5C 908.834,298.667 993.167,298.5 1077.5,298C 1075.11,294.717 1073.11,291.217 1071.5,287.5C 1108,286.502 1144.66,286.168 1181.5,286.5 Z"/></g>
<g><path style="opacity:1" fill="#8689c1" d="M 706.5,296.5 C 706.167,296.5 705.833,296.5 705.5,296.5C 705.831,272.994 705.498,249.661 704.5,226.5C 704.987,225.527 705.487,224.527 706,223.5C 706.5,247.831 706.667,272.164 706.5,296.5 Z"/></g>
<g><path style="opacity:1" fill="#686cb1" d="M 980.5,318.5 C 1041.33,317.168 1102.33,317.168 1163.5,318.5C 1163.38,319.107 1163.04,319.44 1162.5,319.5C 1102,318.501 1041.34,318.168 980.5,318.5 Z"/></g>
<g><path style="opacity:1" fill="#fefefe" d="M 980.5,318.5 C 1041.34,318.168 1102,318.501 1162.5,319.5C 1158.05,326.891 1153.72,334.391 1149.5,342C 1072.83,342.5 996.167,342.667 919.5,342.5C 919.5,338.5 919.5,334.5 919.5,330.5C 942.169,330.667 964.836,330.5 987.5,330C 985.03,326.222 982.697,322.389 980.5,318.5 Z"/></g>
<g><path style="opacity:1" fill="#fbfbfc" d="M 618.5,343.5 C 633.324,342.504 648.324,342.171 663.5,342.5C 661.698,349.237 659.698,355.904 657.5,362.5C 646.828,362.667 636.161,362.5 625.5,362C 623.241,355.712 620.908,349.546 618.5,343.5 Z"/></g>
<g><path style="opacity:1" fill="#7377b7" d="M 1144.5,350.5 C 1096,350.168 1047.66,350.501 999.5,351.5C 998.957,351.44 998.624,351.107 998.5,350.5C 1047.33,349.169 1096,349.169 1144.5,350.5 Z"/></g>
<g><path style="opacity:1" fill="#fefefe" d="M 1144.5,350.5 C 1140.42,358.329 1136.09,365.996 1131.5,373.5C 1061.17,373.5 990.833,373.5 920.5,373.5C 920.5,369.833 920.5,366.167 920.5,362.5C 948.841,362.833 977.175,362.5 1005.5,361.5C 1005.38,360.893 1005.04,360.56 1004.5,360.5C 1003.09,357.339 1001.42,354.339 999.5,351.5C 1047.66,350.501 1096,350.168 1144.5,350.5 Z"/></g>
<g><path style="opacity:1" fill="#a2a5cf" d="M 364.5,182.5 C 365.499,241.998 365.832,301.664 365.5,361.5C 382.833,361.5 400.167,361.5 417.5,361.5C 400.008,362.497 382.341,362.83 364.5,362.5C 364.5,302.5 364.5,242.5 364.5,182.5 Z"/></g>
<g><path style="opacity:1" fill="#9899ca" d="M 576.5,259.5 C 577.498,293.663 577.832,327.996 577.5,362.5C 560.325,362.83 543.325,362.497 526.5,361.5C 543.167,361.5 559.833,361.5 576.5,361.5C 576.5,327.5 576.5,293.5 576.5,259.5 Z"/></g>
<g><path style="opacity:1" fill="#5a5faa" d="M 1004.5,360.5 C 1005.04,360.56 1005.38,360.893 1005.5,361.5C 977.175,362.5 948.841,362.833 920.5,362.5C 920.167,362.5 919.833,362.5 919.5,362.5C 947.833,361.833 976.167,361.167 1004.5,360.5 Z"/></g>
<g><path style="opacity:1" fill="#e5e5f1" d="M 919.5,362.5 C 919.833,362.5 920.167,362.5 920.5,362.5C 920.5,366.167 920.5,369.833 920.5,373.5C 990.833,373.5 1061.17,373.5 1131.5,373.5C 1061,374.499 990.335,374.833 919.5,374.5C 919.5,370.5 919.5,366.5 919.5,362.5 Z"/></g>
<g><path style="opacity:1" fill="#9ea1cd" d="M 1017.5,382.5 C 1053.67,381.17 1090,381.17 1126.5,382.5C 1126.38,383.107 1126.04,383.44 1125.5,383.5C 1089.67,382.502 1053.67,382.168 1017.5,382.5 Z"/></g>
<g><path style="opacity:1" fill="#fefefe" d="M 1017.5,382.5 C 1053.67,382.168 1089.67,382.502 1125.5,383.5C 1121.66,391.199 1117.32,398.532 1112.5,405.5C 1048.5,405.5 984.5,405.5 920.5,405.5C 920.5,401.833 920.5,398.167 920.5,394.5C 955.004,394.832 989.337,394.498 1023.5,393.5C 1021.5,389.833 1019.5,386.167 1017.5,382.5 Z"/></g>
<g><path style="opacity:1" fill="#adaed5" d="M 1023.5,393.5 C 989.337,394.498 955.004,394.832 920.5,394.5C 920.5,398.167 920.5,401.833 920.5,405.5C 984.5,405.5 1048.5,405.5 1112.5,405.5C 1048.34,406.499 984.002,406.832 919.5,406.5C 919.5,402.167 919.5,397.833 919.5,393.5C 954.167,393.5 988.833,393.5 1023.5,393.5 Z"/></g>
</svg>
