<?xml version="1.0" encoding="utf-8"?>
<!-- Generator: Adobe Illustrator 28.0.0, SVG Export Plug-In . SVG Version: 6.00 Build 0)  -->
<svg version="1.1" id="Слой_1" xmlns="http://www.w3.org/2000/svg" xmlns:xlink="http://www.w3.org/1999/xlink" x="0px" y="0px"
	 viewBox="0 0 1000 250.085907" enable-background="new 0 0 1000 250.085907" xml:space="preserve">
<path fill="#FF9519" d="M599.0163574,0h62.1160889v218.9015503c0,12.5353851-7.6879883,23.8463593-19.0653076,28.7376556
	c-3.9986572,1.5305176-7.9962158,2.446701-11.9927368,2.446701c-7.9951782,0-15.3759155-3.9751129-22.1413574-9.1725006
	L400.3692627,91.7186508V250.085907h-62.1161194V31.1842575c0-12.5347443,7.6879883-24.1524963,19.0653076-28.7384224
	c11.6855774-4.8916564,23.6772461-0.6114643,33.8247986,6.7260399l207.565979,149.5016174V0H599.0163574z M976.9381714,116.7882462
	c-7.0736694-7.0318832-15.6842041-12.840416-24.9091797-16.8149872c-9.5321045-3.9744568-19.987915-6.1145325-30.442627-6.1145325
	H755.2281494c-8.9177856,0-15.991394-7.3374557-15.991394-15.8979568c0-8.5603867,7.3807983-15.8978462,15.991394-15.8978462
	h197.1091309c17.2200317,0,31.0568848-13.7577782,31.0568848-30.8786659C983.394165,14.0634785,969.557312,0,952.3372803,0
	H755.2281494c-10.4558105,0-20.9105225,2.1401134-30.4437256,6.1145754
	c-9.2249756,3.9744415-17.8355103,9.4775095-24.90802,16.8150787c-7.0715942,7.0316753-12.9154053,15.5921688-16.9119263,24.7639141
	c-3.9986572,9.4777451-6.151001,19.8724174-6.151001,30.2672005s2.1523438,20.789566,6.151001,30.2671967
	c3.996521,9.1714249,9.5332642,17.7327805,16.9119263,24.7636108c7.0725098,7.0318756,15.6830444,12.8404083,24.90802,16.815506
	c9.5332031,3.9740448,19.987915,6.1146545,30.4437256,6.1146545h166.3582153c8.9177856,0,15.991333,7.0318909,15.991333,15.8972015
	c0,8.866394-7.0735474,15.8982849-15.991333,15.8982849H707.87146c-17.2189331,0-31.0579834,13.7576752-31.0579834,30.8782349
	s13.8390503,30.8782349,31.0579834,30.8782349h213.7149048c10.4547119,0,20.9105225-2.1384583,30.442627-6.1135712
	c9.2249756-3.9750977,17.8355103-9.4785919,24.9091797-16.8144531c7.0714722-7.0318909,12.9142456-15.5921783,16.9118652-24.764679
	C997.8475952,192.3023987,1000,181.9086914,1000,171.5139008c0-10.3947754-2.1524048-20.789566-6.1499634-30.2670898
	C989.852417,132.3804321,984.3168335,123.8201447,976.9381714,116.7882462z M323.4936829,125.0434952
	c0,69.0934067-56.2733154,125.0424118-125.7702179,125.0424118H51.0455246H22.7551727H0V125.0434952V0h197.723465
	C267.2203674,0,323.4936829,55.948391,323.4936829,125.0434952z M260.7632446,125.0434952
	c0-16.8155289-6.4582367-32.407692-18.4499054-44.331192c-11.9927521-11.9233856-27.6758881-18.3435974-44.5898743-18.3435974
	H62.4230576v62.6747894v62.6737289h134.9932251c16.9129181,0,32.594986-6.4196777,44.5888214-18.3439178
	C254.3050079,157.450119,260.7632446,141.8579559,260.7632446,125.0434952z"/>
</svg>
