<?xml version="1.0" encoding="utf-8"?>
<!-- Generator: Adobe Illustrator 23.1.0, SVG Export Plug-In . SVG Version: 6.00 Build 0)  -->
<svg version="1.1" id="Слой_1" xmlns="http://www.w3.org/2000/svg" xmlns:xlink="http://www.w3.org/1999/xlink" x="0px" y="0px"
	 viewBox="0 0 154 35" style="enable-background:new 0 0 154 35;" xml:space="preserve">
<style type="text/css">
	.st0{fill-rule:evenodd;clip-rule:evenodd;fill:#EA4125;}
	.st1{fill-rule:evenodd;clip-rule:evenodd;fill:#034EA2;}
	.st2{fill:#034EA2;}
	.st3{fill:#EA4125;}
	.st4{fill-rule:evenodd;clip-rule:evenodd;fill:#FFC233;}
	.st5{fill:#FFC233;}
	.st6{fill-rule:evenodd;clip-rule:evenodd;fill:#FFFFFF;}
</style>
<g>
	<polygon class="st0" points="37.8279495,15.7249022 35.1021385,12.3289957 35.1021385,15.7249022 32.8344383,15.7249022 
		32.8344383,7.346652 35.1021385,7.346652 35.1021385,10.6867828 37.716259,7.346652 39.6375427,7.346652 39.6375427,8.2179089 
		37.1352272,11.3233061 39.9838409,14.8423519 39.9838409,15.7249022 	"/>
	<polygon class="st0" points="47.9142799,8.2178383 43.9484978,15.7248592 42.0382195,15.7248592 42.0382195,14.8534336 
		43.0324478,13.1331558 40.3737183,8.2290039 40.3737183,7.3466945 42.540905,7.3466945 44.3170853,10.753767 46.0040321,7.3466945 
		47.9142799,7.3466945 	"/>
	<path class="st0" d="M51.9523277,15.7249022h-3.1613007V7.346652h5.7752953v1.9548569h-3.5075989v1.061182h0.8936043
		c1.0426483,0,1.8562088,0.2512636,2.4409256,0.7542572c0.5845566,0.5026827,0.876915,1.118722,0.876915,1.8485708
		c0,0.8045263-0.2943192,1.4655848-0.8824348,1.9831181C53.7993736,15.466156,52.987381,15.7249022,51.9523277,15.7249022
		L51.9523277,15.7249022z M51.0141449,12.0720854v1.7537069h0.9270172c0.3351326,0,0.5957527-0.07623,0.7820663-0.2289734
		c0.1860733-0.1524601,0.2792282-0.3702669,0.2792282-0.6536179c0-0.2528305-0.0949898-0.4614763-0.284874-0.625371
		c-0.1899834-0.163867-0.4487724-0.2457447-0.7764206-0.2457447H51.0141449z"/>
	<path class="st0" d="M58.0295372,14.2503958l-0.4803925,1.4745064h-1.8767052v-0.7819538l2.6586151-7.5961833h2.5136108
		l2.6474533,7.4843783v0.8937588h-2.0778275l-0.4692268-1.4745064H58.0295372L58.0295372,14.2503958z M58.6104126,12.3960218
		h1.7650299l-0.8714256-2.8152847L58.6104126,12.3960218z"/>
	<polygon class="st0" points="66.6633682,15.7249022 64.3956757,15.7249022 64.3956757,7.346652 66.6633682,7.346652 
		66.6633682,10.4523182 69.4560852,10.4523182 69.4560852,7.346652 71.7239456,7.346652 71.7239456,15.7249022 
		69.4560852,15.7249022 69.4560852,12.395895 66.6633682,12.395895 	"/>
	<path class="st0" d="M76.2948074,15.7249022h-3.0384903V7.346652h2.2677002v2.5021906h0.7707901
		c1.064949,0,1.8991165,0.283308,2.5024796,0.8490925c0.6031952,0.5659542,0.9047165,1.2511797,0.9047165,2.0554237
		c0,0.8639441-0.3034821,1.5751448-0.9105148,2.1335745C78.1845932,15.445673,77.3524323,15.7249022,76.2948074,15.7249022
		L76.2948074,15.7249022z M75.4794083,11.7590895v2.0667028h0.8042297c0.35746,0,0.6386566-0.0910387,0.8435059-0.2735958
		c0.2048035-0.1825151,0.3071594-0.4412889,0.3071594-0.7762651c0-0.2978764-0.1044464-0.5420961-0.3128128-0.7320929
		c-0.2085114-0.1896019-0.4877472-0.284749-0.8378525-0.284749H75.4794083z"/>
	<polygon class="st0" points="35.1021767,27.5876675 32.8344383,27.5876675 32.8344383,19.209404 35.1021767,19.209404 
		35.1021767,24.1022339 38.0177078,19.209404 40.2855568,19.209404 40.2855568,27.5876675 38.0177078,27.5876675 
		38.0177078,22.716959 	"/>
	<polygon class="st0" points="44.0801926,27.5876675 41.8124962,27.5876675 41.8124962,19.209404 44.0801926,19.209404 
		44.0801926,22.3149281 46.8729019,22.3149281 46.8729019,19.209404 49.14077,19.209404 49.14077,27.5876675 46.8729019,27.5876675 
		46.8729019,24.2586613 44.0801926,24.2586613 	"/>
	<path class="st0" d="M54.385376,27.7887478c-1.2438126,0-2.2360916-0.394846-2.9770622-1.1841125
		c-0.7411423-0.7893925-1.1115685-1.8544998-1.1115685-3.1950378c0-1.3626595,0.3704262-2.4370842,1.1115685-3.222681
		c0.7409706-0.7855949,1.7332497-1.1786327,2.9770622-1.1786327c0.9679832,0,1.718441,0.1993275,2.2510529,0.5975609
		c0.5323257,0.3985157,0.8616982,0.8695908,0.9884682,1.413084v0.8714256h-1.8319283
		c-0.0522614-0.2828712-0.1994705-0.5100365-0.4412918-0.681385c-0.2420998-0.1711102-0.5604591-0.2569542-0.9551353-0.2569542
		c-0.5586281,0-1.0035591,0.2085323-1.3348923,0.6256542c-0.3314629,0.4171638-0.4972038,1.0240555-0.4972038,1.8208046
		c0,0.7821922,0.165741,1.383707,0.4972038,1.8042431c0.3313332,0.4208069,0.7762642,0.6311741,1.3348923,0.6311741
		c0.3871918,0,0.7075157-0.0931988,0.9607849-0.2795105c0.2530975-0.1859188,0.4168358-0.4205379,0.4913864-0.7037334h1.8322105
		v0.871439c-0.1417313,0.5958672-0.5026817,1.0892334-1.0835838,1.4799843
		C56.0164223,27.5932312,55.2790909,27.7887478,54.385376,27.7887478z"/>
	<polygon class="st0" points="62.8308067,27.5876675 60.5631104,27.5876675 60.5631104,21.1642609 58.3511429,21.1642609 
		58.3511429,19.209404 65.0426178,19.209404 65.0426178,21.1642609 62.8308067,21.1642609 	"/>
	<path class="st0" d="M68.2564545,27.5876675h-2.2677078V19.209404h3.0049973c1.0500183,0,1.8803482,0.2607079,2.491066,0.7819118
		c0.6106949,0.5211754,0.9161606,1.2250481,0.9161606,2.1112843c0,0.8194885-0.2979889,1.5210896-0.8938675,2.1059608
		c-0.5957108,0.5847149-1.4336929,0.8766212-2.5133591,0.8766212h-0.7372894V27.5876675L68.2564545,27.5876675z
		 M68.2118378,21.1085281v2.0663776h0.7707825c0.3499374,0,0.6291733-0.0985203,0.8376846-0.2958736
		c0.2084961-0.1972103,0.312973-0.45611,0.312973-0.776432c0-0.3052044-0.1026459-0.5471363-0.3073196-0.7260113
		c-0.2048492-0.1788712-0.4859161-0.2680607-0.843338-0.2680607H68.2118378z"/>
	<polygon class="st0" points="80.3189316,20.0805893 76.3531036,27.587738 74.4428329,27.587738 74.4428329,26.7161579 
		75.4370728,24.9959068 72.7783279,20.0917568 72.7783279,19.209446 74.9455109,19.209446 76.7216949,22.6165199 
		78.4086456,19.209446 80.3189316,19.209446 	"/>
	<polygon class="st0" points="86.3344345,26.0685387 84.8263626,26.0685387 83.3516998,22.6388931 83.3516998,27.5876255 
		81.1957932,27.5876255 81.1957932,19.209362 83.966217,19.209362 85.6417313,23.1860294 87.3062363,19.209362 90.076767,19.209362 
		90.076767,27.5876255 87.8090744,27.5876255 87.8090744,22.6388931 	"/>
	<polygon class="st0" points="97.1836395,27.5876675 91.6092224,27.5876675 91.6092224,19.209404 97.1836395,19.209404 
		97.1836395,21.1642609 93.8769226,21.1642609 93.8769226,22.404274 96.7479782,22.404274 96.7479782,24.1694584 
		93.8769226,24.1694584 93.8769226,25.6327705 97.1836395,25.6327705 	"/>
	<polygon class="st0" points="100.7795486,27.5876675 98.5118484,27.5876675 98.5118484,19.209404 100.7795486,19.209404 
		100.7795486,22.3149281 103.572258,22.3149281 103.572258,19.209404 105.840126,19.209404 105.840126,27.5876675 
		103.572258,27.5876675 103.572258,24.2586613 100.7795486,24.2586613 	"/>
	<polygon class="st0" points="111.2713242,27.5876675 109.0035858,27.5876675 109.0035858,21.1642609 106.7916641,21.1642609 
		106.7916641,19.209404 113.4831238,19.209404 113.4831238,21.1642609 111.2713242,21.1642609 	"/>
</g>
<g>
	<g>
		<path class="st1" d="M138.1159821,25.2526226v4.8022385h-6.1508331v-4.8022385h-11.2820816v-4.7694263l11.5123062-15.4264545
			h5.9206085v15.031765h3.0261383v5.1641159H138.1159821z M131.9651489,13.8060799l-4.6378479,6.2824268h4.6378479V13.8060799z"/>
	</g>
	<g>
		<path class="st2" d="M138.1159821,25.2526226v4.8022385h-6.1508331v-4.8022385h-11.2820816v-4.7694263l11.5123062-15.4264545
			h5.9206085v15.031765h3.0261383v5.1641159H138.1159821z M131.9651489,13.8060799l-4.6378479,6.2824268h4.6378479V13.8060799z"/>
	</g>
</g>
<g>
	<path class="st3" d="M135.7705994,24.0662804v-2.5656185h5.4272156c0.1974182,1.2828426,0.9210358,2.9603081,3.2563629,2.9603081
		c1.8748779,0,2.8287201-1.5129986,2.8287201-3.0918255c0-1.545948-1.085495-2.993187-3.0261383-2.993187
		c-1.8748779,0-2.730011,0.8880844-2.730011,0.8880844l-4.5391388-1.8091183l1.1183167-12.4661465h14.1765594v5.5259271h-8.9138031
		l-0.2631836,2.9274292c0.5591583-0.1315861,1.381485-0.296052,2.3682861-0.296052
		c5.1312256,0,8.4861603,3.1576529,8.4861603,8.1901846c0,5.2627544-3.5523376,8.9137344-9.4729614,8.9137344
		C139.618927,30.25,136.3955078,27.3226395,135.7705994,24.0662804z"/>
</g>
<g>
	<g>
		<path class="st4" d="M144.1172485,21.9615231h0.0572052c0.3239746-0.0063419,0.4255829-0.2540741,0.4319153-0.7050781
			l0.0317078-1.5245094h2.7251892v3.2269268h-1.1752472V20.66572h-0.5590057l-0.0063477,0.7431965
			c-0.0126801,0.8829842-0.222229,1.5499458-1.1687622,1.5499458h-0.3366547V21.9615231z"/>
		<path class="st4" d="M147.5983124,21.3644562c0-0.959219,0.6479492-1.7532177,1.765976-1.7532177
			c1.1370544,0,1.6325226,0.6923962,1.6325226,1.5944061c0,0.2350483-0.0635529,0.4446621-0.0635529,0.4446621h-2.1470032
			c0.0698853,0.3048744,0.2730865,0.5081482,0.6225586,0.5081482c0.4764404,0,0.552536-0.2286396,0.552536-0.2286396h0.9719086
			v0.4382534c0,0-0.3048096,0.7051468-1.549942,0.7051468C148.1828461,23.0732155,147.5983124,22.3109264,147.5983124,21.3644562z
			 M149.8787842,21.0023708c0-0.2287064-0.1778412-0.4764385-0.5271759-0.4764385
			c-0.317627,0-0.4891205,0.1969299-0.559021,0.4764385H149.8787842z"/>
		<path class="st4" d="M151.8036957,20.6720619h-0.8511353v-0.9401264h2.8838654v0.9401264h-0.8576202v2.2868004h-1.1751099
			V20.6720619z"/>
	</g>
	<g>
		<path class="st5" d="M144.1172485,21.9615231h0.0572052c0.3239746-0.0063419,0.4255829-0.2540741,0.4319153-0.7050781
			l0.0317078-1.5245094h2.7251892v3.2269268h-1.1752472V20.66572h-0.5590057l-0.0063477,0.7431965
			c-0.0126801,0.8829842-0.222229,1.5499458-1.1687622,1.5499458h-0.3366547V21.9615231z"/>
		<path class="st5" d="M147.5983124,21.3644562c0-0.959219,0.6479492-1.7532177,1.765976-1.7532177
			c1.1370544,0,1.6325226,0.6923962,1.6325226,1.5944061c0,0.2350483-0.0635529,0.4446621-0.0635529,0.4446621h-2.1470032
			c0.0698853,0.3048744,0.2730865,0.5081482,0.6225586,0.5081482c0.4764404,0,0.552536-0.2286396,0.552536-0.2286396h0.9719086
			v0.4382534c0,0-0.3048096,0.7051468-1.549942,0.7051468C148.1828461,23.0732155,147.5983124,22.3109264,147.5983124,21.3644562z
			 M149.8787842,21.0023708c0-0.2287064-0.1778412-0.4764385-0.5271759-0.4764385
			c-0.317627,0-0.4891205,0.1969299-0.559021,0.4764385H149.8787842z"/>
		<path class="st5" d="M151.8036957,20.6720619h-0.8511353v-0.9401264h2.8838654v0.9401264h-0.8576202v2.2868004h-1.1751099
			V20.6720619z"/>
	</g>
</g>
<g>
	<ellipse class="st6" cx="13.008666" cy="17.5666027" rx="12.5984163" ry="12.6050148"/>
	<path class="st1" d="M13.0151758,4.9615383c-6.4345393,0-11.7391253,4.8232775-12.5058737,11.0514145h2.7218583
		c-0.0165381,0.0604897-0.0377207,0.1191368-0.0377207,0.185276c0,0.0659828,0.0211825,0.1265144,0.0377207,0.1850796H0.4674464
		c-0.036319,0.3902912-0.05719,0.7850704-0.05719,1.1848774c0,6.4778385,4.8867545,11.8124561,11.1739931,12.5236855
		l-1.3168154-3.8871098c-0.274581-0.8139858,0.0433846-1.7073479,0.7716331-2.1639061l3.6997814-2.3178749L14.328126,20.573204
		l1.609746,0.0281773c0.6954842,0,1.3320217-0.5854359,1.7327499-1.1542225
		c0.0474052-0.0665054,0.0742931-0.1398659,0.1113071-0.2090645l1.0576115,2.9503078
		c0.0174599,0.1045532,0.0302601,0.2078323,0.0302601,0.3105869c0,0.6175079-0.3078136,1.2201633-0.8699303,1.5710773
		c0,0-2.3595028,1.4574623-3.7545347,2.3331242c0.468791,1.3887463,1.1360693,3.355381,1.1360693,3.355381
		c0.0202341,0.0608444,0.0315475,0.1220131,0.0455942,0.1832657c0.704093-0.136425,1.3873854-0.3314857,2.044385-0.5801411
		l-1.2213669-3.4152184c0.9061337-0.5683041,1.8489552-1.1374855,1.8489552-1.1374855
		c0.5969925-0.3755665,0.9555798-1.020401,0.9555798-1.7276955c0-0.1396408-0.0201054-0.2743397-0.048893-0.4091644
		l0.0050278-0.0007229l1.7359638,4.849968c2.9645214-2.3069572,4.873642-5.906292,4.873642-9.9531918
		C25.6202927,10.6059799,19.9767437,4.9615383,13.0151758,4.9615383L13.0151758,4.9615383z M12.2601938,12.0342588
		l3.5314531,0.0487223c-0.028616,0.1967459-0.1520014,0.7659702-0.2191458,0.9483585
		c-1.3164186-0.601409-3.1294804,0.1312857-3.4826174,1.5106716c-1.0053501-0.2608452-1.5250874-1.1109505-1.7286577-2.1370153
		C10.9455023,12.4024754,11.5171337,12.4186449,12.2601938,12.0342588L12.2601938,12.0342588z M5.0027776,16.6614132
		L5.0027776,16.6614132h-0.974369c-0.2557199,0-0.4655912-0.2078323-0.4655912-0.4631844
		c0-0.2555065,0.2098713-0.4618101,0.4655912-0.4618101h0.974369c0.1594214-0.2755432,0.4542212-0.4639063,0.7953081-0.4639063
		h4.7156663c0.4698391,0,0.8527107,0.3503895,0.9143181,0.8041859c-0.9184532,0-1.9110022,0-1.9110022,0
		c-0.7793083,0-1.6747952,0.4214706-2.0478401,1.0468941H5.7980857C5.4569988,17.1235924,5.162199,16.9377918,5.0027776,16.6614132
		L5.0027776,16.6614132z M17.0011044,19.3849564L17.0011044,19.3849564
		c-0.3467083,0.4920425-0.9101124,0.7836266-1.5123701,0.7836266H9.3873386c-1.0226955,0-1.8518023-0.8284683-1.8518023-1.8514328
		c0-1.0215778,0.8291068-1.8510799,1.8518023-1.8510799c0,0,1.769083,0,3.4706106,0
		c-0.0902243-0.2543468-0.2597694-0.7264519-0.2597694-0.7264519c-0.0715618-0.2059345-0.108079-0.4161749-0.108079-0.6236811
		c0-0.7611275,0.4725294-1.4718332,1.226903-1.7432699c0.964613-0.3453779,2.0239096,0.1567307,2.3689756,1.1195736
		l1.1455421,3.2013683C17.4337749,18.2602291,17.3483238,18.8919945,17.0011044,19.3849564z"/>
	<path class="st4" d="M16.0235233,10.6891804c0-1.664444-1.3484488-3.0126934-3.013133-3.0126934
		c-1.4668922,0-2.6636496,1.0582218-2.9279499,2.4474764c-1.0459023,0.2004976-1.7932529,0.6344995-1.7576132,1.0834675
		c0.0441208,0.5387535,1.200099,0.8859005,2.581665,0.773078c0.4887848-0.0391359,0.9365492-0.1315689,1.3133183-0.2577162
		h3.8037128V10.6891804z"/>
</g>
</svg>
