<?xml version="1.0" encoding="UTF-8"?>
<!DOCTYPE svg PUBLIC "-//W3C//DTD SVG 1.1//EN" "http://www.w3.org/Graphics/SVG/1.1/DTD/svg11.dtd">
<svg xmlns="http://www.w3.org/2000/svg" version="1.1" width="1025px" height="512px" style="shape-rendering:geometricPrecision; text-rendering:geometricPrecision; image-rendering:optimizeQuality; fill-rule:evenodd; clip-rule:evenodd" xmlns:xlink="http://www.w3.org/1999/xlink">
<g><path style="opacity:0.982" fill="#fa1025" d="M 331.5,65.5 C 368.835,65.3333 406.168,65.5 443.5,66C 464,86.5 484.5,107 505,127.5C 525.5,107 546,86.5 566.5,66C 604.167,65.3333 641.833,65.3333 679.5,66C 699.167,85.6667 718.833,105.333 738.5,125C 716.333,147.167 694.167,169.333 672,191.5C 672.72,194.265 674.387,196.599 677,198.5C 699.347,175.986 721.847,153.653 744.5,131.5C 766.167,152.5 787.5,173.833 808.5,195.5C 786.347,218.153 764.014,240.653 741.5,263C 723.5,263.667 705.5,263.667 687.5,263C 666,241.5 644.5,220 623,198.5C 601.5,220 580,241.5 558.5,263C 522.833,263.667 487.167,263.667 451.5,263C 430.32,241.653 408.986,220.486 387.5,199.5C 366.014,220.486 344.68,241.653 323.5,263C 305.5,263.667 287.5,263.667 269.5,263C 246.986,240.653 224.653,218.153 202.5,195.5C 245.521,152.146 288.521,108.812 331.5,65.5 Z M 335.5,72.5 C 349.504,72.3334 363.504,72.5001 377.5,73C 358.862,90.6379 340.528,108.638 322.5,127C 308.833,127.667 295.167,127.667 281.5,127C 299.702,108.965 317.702,90.7986 335.5,72.5 Z M 387.5,72.5 C 401.504,72.3334 415.504,72.5001 429.5,73C 411.5,91 393.5,109 375.5,127C 361.5,127.667 347.5,127.667 333.5,127C 351.702,108.965 369.702,90.7986 387.5,72.5 Z M 570.5,72.5 C 584.171,72.3334 597.837,72.5001 611.5,73C 593.804,90.3617 576.471,108.028 559.5,126C 545.5,126.667 531.5,126.667 517.5,126C 535.368,108.299 553.035,90.4652 570.5,72.5 Z M 623.5,72.5 C 637.171,72.3334 650.837,72.5001 664.5,73C 646.471,90.695 628.804,108.695 611.5,127C 597.5,127.667 583.5,127.667 569.5,127C 587.702,108.965 605.702,90.7986 623.5,72.5 Z M 273.5,134.5 C 287.171,134.333 300.837,134.5 314.5,135C 296.529,153.972 278.195,172.638 259.5,191C 245.5,191.667 231.5,191.667 217.5,191C 236.368,172.299 255.035,153.465 273.5,134.5 Z M 334.5,135.5 C 348.327,134.339 362.327,134.173 376.5,135C 395.167,153.667 413.833,172.333 432.5,191C 418.5,191.667 404.5,191.667 390.5,191C 371.965,172.298 353.299,153.798 334.5,135.5 Z M 508.5,134.5 C 522.171,134.333 535.837,134.5 549.5,135C 530.805,153.362 512.471,172.028 494.5,191C 480.5,191.667 466.5,191.667 452.5,191C 471.368,172.299 490.035,153.465 508.5,134.5 Z M 570.5,135.5 C 583.994,134.339 597.66,134.173 611.5,135C 630.167,153.667 648.833,172.333 667.5,191C 653.833,191.667 640.167,191.667 626.5,191C 607.965,172.298 589.299,153.798 570.5,135.5 Z M 217.5,200.5 C 230.994,199.339 244.66,199.173 258.5,200C 277.167,218.667 295.833,237.333 314.5,256C 300.833,256.667 287.167,256.667 273.5,256C 254.965,237.298 236.299,218.798 217.5,200.5 Z M 399.5,200.5 C 413.327,199.339 427.327,199.173 441.5,200C 460.167,218.667 478.833,237.333 497.5,256C 483.5,256.667 469.5,256.667 455.5,256C 436.965,237.298 418.299,218.798 399.5,200.5 Z M 452.5,200.5 C 465.994,199.339 479.66,199.173 493.5,200C 512.167,218.667 530.833,237.333 549.5,256C 535.5,256.667 521.5,256.667 507.5,256C 488.938,237.605 470.604,219.105 452.5,200.5 Z M 635.5,200.5 C 649.327,199.339 663.327,199.173 677.5,200C 696.167,218.667 714.833,237.333 733.5,256C 719.5,256.667 705.5,256.667 691.5,256C 672.965,237.298 654.299,218.798 635.5,200.5 Z"/></g>
<g><path style="opacity:0.984" fill="#fa1025" d="M 3.5,254.5 C 26.8333,254.5 50.1667,254.5 73.5,254.5C 78.1945,278.277 83.3611,301.944 89,325.5C 93.9001,301.833 98.7334,278.166 103.5,254.5C 126.5,254.5 149.5,254.5 172.5,254.5C 172.5,299.5 172.5,344.5 172.5,389.5C 158.5,389.5 144.5,389.5 130.5,389.5C 130.667,355.165 130.5,320.832 130,286.5C 122.333,320.167 114.667,353.833 107,387.5C 100.572,388.812 93.9058,389.479 87,389.5C 80.0942,389.479 73.4276,388.812 67,387.5C 59.7944,353.805 52.461,320.138 45,286.5C 44.5,320.832 44.3333,355.165 44.5,389.5C 30.8333,389.5 17.1667,389.5 3.5,389.5C 3.5,344.5 3.5,299.5 3.5,254.5 Z"/></g>
<g><path style="opacity:0.979" fill="#fa1026" d="M 851.5,254.5 C 874.51,254.167 897.51,254.5 920.5,255.5C 925.856,278.78 931.023,302.113 936,325.5C 941.288,302.064 946.455,278.564 951.5,255C 974.498,254.5 997.498,254.333 1020.5,254.5C 1020.5,299.5 1020.5,344.5 1020.5,389.5C 1006.5,389.5 992.5,389.5 978.5,389.5C 978.667,354.498 978.5,319.498 978,284.5C 969.972,319.473 962.139,354.473 954.5,389.5C 941.167,389.5 927.833,389.5 914.5,389.5C 907.322,354.446 899.822,319.446 892,284.5C 891.5,319.498 891.333,354.498 891.5,389.5C 878.167,389.5 864.833,389.5 851.5,389.5C 851.5,344.5 851.5,299.5 851.5,254.5 Z"/></g>
<g><path style="opacity:0.984" fill="#f91126" d="M 221.5,285.5 C 237.965,284.181 253.631,287.014 268.5,294C 276.75,299.657 281.584,307.49 283,317.5C 283.5,341.498 283.667,365.498 283.5,389.5C 269.833,389.5 256.167,389.5 242.5,389.5C 242.665,385.818 242.499,382.152 242,378.5C 228.29,391.642 212.457,394.809 194.5,388C 184.177,381.861 179.177,372.694 179.5,360.5C 180.665,340.497 191.332,329.33 211.5,327C 221.797,325.774 232.13,325.274 242.5,325.5C 243.16,320.653 241.493,316.819 237.5,314C 227.655,309.755 217.655,309.422 207.5,313C 201.7,314.545 196.033,316.378 190.5,318.5C 190.168,309.475 190.502,300.475 191.5,291.5C 201.465,288.655 211.465,286.655 221.5,285.5 Z M 231.5,345.5 C 235.167,345.5 238.833,345.5 242.5,345.5C 243.01,351.072 242.177,356.405 240,361.5C 231.382,368.905 225.216,367.239 221.5,356.5C 222.783,350.887 226.116,347.221 231.5,345.5 Z"/></g>
<g><path style="opacity:0.988" fill="#f91025" d="M 449.5,285.5 C 462.741,284.947 475.741,286.447 488.5,290C 489.486,299.75 489.819,309.584 489.5,319.5C 480.444,315.571 471.11,314.737 461.5,317C 452.451,321.258 448.117,328.424 448.5,338.5C 449.928,355.756 459.261,363.256 476.5,361C 480.871,359.599 485.204,358.099 489.5,356.5C 490.499,366.478 490.832,376.478 490.5,386.5C 471.956,392.307 453.289,392.807 434.5,388C 411.875,378.953 400.542,362.12 400.5,337.5C 400.638,311.669 412.972,295.169 437.5,288C 441.665,287.295 445.665,286.461 449.5,285.5 Z"/></g>
<g><path style="opacity:0.989" fill="#fa1025" d="M 780.5,285.5 C 802.154,283.107 820.321,289.774 835,305.5C 843.364,318.65 846.364,332.983 844,348.5C 840.251,369.582 828.085,383.082 807.5,389C 787.673,393.977 769.007,391.311 751.5,381C 741.646,373.134 735.479,362.968 733,350.5C 728.112,313.271 743.945,291.605 780.5,285.5 Z M 785.5,315.5 C 791.447,314.946 794.947,317.613 796,323.5C 798.185,334.58 797.851,345.58 795,356.5C 792.051,361.69 788.051,362.69 783,359.5C 781.725,357.283 780.725,354.949 780,352.5C 779.333,343.167 779.333,333.833 780,324.5C 780.858,320.763 782.691,317.763 785.5,315.5 Z"/></g>
<g><path style="opacity:0.977" fill="#fa1125" d="M 292.5,287.5 C 307.167,287.5 321.833,287.5 336.5,287.5C 336.333,301.837 336.5,316.171 337,330.5C 345.087,316.662 352.92,302.662 360.5,288.5C 376.833,287.167 393.167,287.167 409.5,288.5C 399.5,304.833 389.5,321.167 379.5,337.5C 389.999,354.637 399.999,371.97 409.5,389.5C 393.497,389.667 377.497,389.5 361.5,389C 352.953,374.743 344.787,360.243 337,345.5C 336.5,360.163 336.333,374.83 336.5,389.5C 321.833,389.5 307.167,389.5 292.5,389.5C 292.5,355.5 292.5,321.5 292.5,287.5 Z"/></g>
<g><path style="opacity:0.982" fill="#fa1026" d="M 498.5,287.5 C 511.833,287.5 525.167,287.5 538.5,287.5C 538.333,303.17 538.5,318.837 539,334.5C 545.224,319.051 551.724,303.718 558.5,288.5C 573.152,287.501 587.818,287.167 602.5,287.5C 602.5,321.5 602.5,355.5 602.5,389.5C 588.833,389.5 575.167,389.5 561.5,389.5C 561.667,374.496 561.5,359.496 561,344.5C 554.629,359.407 548.129,374.24 541.5,389C 527.171,389.5 512.837,389.667 498.5,389.5C 498.5,355.5 498.5,321.5 498.5,287.5 Z"/></g>
<g><path style="opacity:0.984" fill="#fa1026" d="M 629.5,287.5 C 659.167,287.5 688.833,287.5 718.5,287.5C 718.5,311.5 718.5,335.5 718.5,359.5C 722.5,359.5 726.5,359.5 730.5,359.5C 730.5,375.167 730.5,390.833 730.5,406.5C 717.167,406.5 703.833,406.5 690.5,406.5C 690.5,400.833 690.5,395.167 690.5,389.5C 676.5,389.5 662.5,389.5 648.5,389.5C 648.5,395.167 648.5,400.833 648.5,406.5C 635.167,406.5 621.833,406.5 608.5,406.5C 608.5,390.833 608.5,375.167 608.5,359.5C 612.182,359.665 615.848,359.499 619.5,359C 622.929,354.307 625.429,349.141 627,343.5C 630.668,324.974 631.501,306.308 629.5,287.5 Z M 664.5,317.5 C 669.167,317.5 673.833,317.5 678.5,317.5C 678.5,331.5 678.5,345.5 678.5,359.5C 671.8,359.83 665.134,359.497 658.5,358.5C 663.959,345.386 665.959,331.719 664.5,317.5 Z"/></g>
</svg>
