<?xml version="1.0" encoding="UTF-8"?>
<!DOCTYPE svg PUBLIC "-//W3C//DTD SVG 1.1//EN" "http://www.w3.org/Graphics/SVG/1.1/DTD/svg11.dtd">
<svg xmlns="http://www.w3.org/2000/svg" version="1.1" width="717px" height="359px" style="shape-rendering:geometricPrecision; text-rendering:geometricPrecision; image-rendering:optimizeQuality; fill-rule:evenodd; clip-rule:evenodd" xmlns:xlink="http://www.w3.org/1999/xlink">
<g><path style="opacity:1" fill="#005dda" d="M -0.5,-0.5 C 238.5,-0.5 477.5,-0.5 716.5,-0.5C 716.5,119.167 716.5,238.833 716.5,358.5C 477.5,358.5 238.5,358.5 -0.5,358.5C -0.5,238.833 -0.5,119.167 -0.5,-0.5 Z"/></g>
<g><path style="opacity:1" fill="#fdfefe" d="M 262.5,105.5 C 265.937,106.945 269.603,107.945 273.5,108.5C 289.692,113.371 302.025,123.037 310.5,137.5C 302.657,153.428 294.99,169.428 287.5,185.5C 286.094,185.973 285.427,186.973 285.5,188.5C 276.513,206.473 267.513,224.473 258.5,242.5C 255.5,242.833 252.5,243.167 249.5,243.5C 244.893,243.684 240.56,243.017 236.5,241.5C 234.485,240.076 232.152,239.41 229.5,239.5C 207.552,232.551 192.885,218.218 185.5,196.5C 185.59,193.848 184.924,191.515 183.5,189.5C 182.834,181.517 182.501,173.517 182.5,165.5C 183.15,163.565 183.483,161.565 183.5,159.5C 184.924,157.485 185.59,155.152 185.5,152.5C 192.284,132.717 205.284,118.717 224.5,110.5C 229.767,109.411 234.767,107.744 239.5,105.5C 247.068,104.188 254.735,104.188 262.5,105.5 Z"/></g>
<g><path style="opacity:1" fill="#8fc0f1" d="M 262.5,105.5 C 266.57,105.432 270.237,106.432 273.5,108.5C 269.603,107.945 265.937,106.945 262.5,105.5 Z"/></g>
<g><path style="opacity:1" fill="#b3d2f5" d="M 239.5,105.5 C 234.767,107.744 229.767,109.411 224.5,110.5C 229.085,107.86 234.085,106.194 239.5,105.5 Z"/></g>
<g><path style="opacity:1" fill="#fcfdfe" d="M 415.5,196.5 C 414.094,196.973 413.427,197.973 413.5,199.5C 406.134,214.232 398.801,228.899 391.5,243.5C 371.5,243.5 351.5,243.5 331.5,243.5C 331.5,242.5 331.5,241.5 331.5,240.5C 338.35,226.634 345.35,212.801 352.5,199C 352.164,197.97 351.497,197.47 350.5,197.5C 347.983,194.926 346.316,195.592 345.5,199.5C 341.23,207.707 337.23,216.04 333.5,224.5C 332.094,224.973 331.427,225.973 331.5,227.5C 329.426,232.647 327.093,237.647 324.5,242.5C 305.164,242.667 285.83,242.5 266.5,242C 267.252,241.329 267.586,240.496 267.5,239.5C 269.896,233.708 272.563,228.041 275.5,222.5C 276.906,222.027 277.573,221.027 277.5,219.5C 279.896,213.708 282.563,208.041 285.5,202.5C 286.906,202.027 287.573,201.027 287.5,199.5C 288.11,198.609 288.443,197.609 288.5,196.5C 289.906,196.027 290.573,195.027 290.5,193.5C 292.896,187.708 295.563,182.041 298.5,176.5C 299.906,176.027 300.573,175.027 300.5,173.5C 302.896,167.708 305.563,162.041 308.5,156.5C 309.906,156.027 310.573,155.027 310.5,153.5C 311.11,152.609 311.443,151.609 311.5,150.5C 312.906,150.027 313.573,149.027 313.5,147.5C 315.896,141.708 318.563,136.041 321.5,130.5C 322.906,130.027 323.573,129.027 323.5,127.5C 325.548,122.401 327.882,117.401 330.5,112.5C 331.274,111.289 332.107,111.289 333,112.5C 343.313,133.127 353.647,153.793 364,174.5C 368.766,165.968 373.266,157.302 377.5,148.5C 378.906,148.027 379.573,147.027 379.5,145.5C 382.91,137.681 386.577,130.014 390.5,122.5C 391.906,122.027 392.573,121.027 392.5,119.5C 393.38,116.738 394.546,114.071 396,111.5C 396.667,110.167 397.333,110.167 398,111.5C 407.918,130.335 417.584,149.335 427,168.5C 427.667,169.833 427.667,171.167 427,172.5C 422.883,180.4 419.049,188.4 415.5,196.5 Z"/></g>
<g><path style="opacity:1" fill="#fbfcfe" d="M 481.5,193.5 C 482.906,193.027 483.573,192.027 483.5,190.5C 486.502,184.495 489.502,178.495 492.5,172.5C 493.833,171.167 495.167,171.167 496.5,172.5C 507.833,195.167 519.167,217.833 530.5,240.5C 530.5,241.5 530.5,242.5 530.5,243.5C 506.491,243.833 482.491,243.5 458.5,242.5C 459.127,241.583 459.461,240.583 459.5,239.5C 463.702,230.264 468.035,221.097 472.5,212C 471.362,209.955 469.695,209.288 467.5,210C 465.104,213.96 463.104,218.126 461.5,222.5C 460.094,222.973 459.427,223.973 459.5,225.5C 456.91,230.349 454.576,235.349 452.5,240.5C 451.662,240.842 451.328,241.508 451.5,242.5C 434.134,243.152 417.134,242.486 400.5,240.5C 400.5,240.167 400.5,239.833 400.5,239.5C 401.906,239.027 402.573,238.027 402.5,236.5C 404.894,230.713 407.56,225.046 410.5,219.5C 411.906,219.027 412.573,218.027 412.5,216.5C 412.557,215.391 412.89,214.391 413.5,213.5C 414.906,213.027 415.573,212.027 415.5,210.5C 417.896,204.708 420.563,199.041 423.5,193.5C 424.906,193.027 425.573,192.027 425.5,190.5C 427.894,184.713 430.56,179.046 433.5,173.5C 434.906,173.027 435.573,172.027 435.5,170.5C 438.894,162.712 442.561,155.045 446.5,147.5C 447.906,147.027 448.573,146.027 448.5,144.5C 450.894,138.713 453.56,133.046 456.5,127.5C 457.906,127.027 458.573,126.027 458.5,124.5C 460.128,119.91 462.295,115.577 465,111.5C 473.843,127.185 482.177,143.185 490,159.5C 490.667,161.167 490.667,162.833 490,164.5C 484.412,174.511 479.245,184.678 474.5,195C 475.377,196.867 476.877,198.034 479,198.5C 479.847,196.807 480.68,195.14 481.5,193.5 Z"/></g>
<g><path style="opacity:1" fill="#65a9eb" d="M 392.5,119.5 C 392.573,121.027 391.906,122.027 390.5,122.5C 390.427,120.973 391.094,119.973 392.5,119.5 Z"/></g>
<g><path style="opacity:1" fill="#64a7eb" d="M 458.5,124.5 C 458.573,126.027 457.906,127.027 456.5,127.5C 456.427,125.973 457.094,124.973 458.5,124.5 Z"/></g>
<g><path style="opacity:1" fill="#76b2ee" d="M 323.5,127.5 C 323.573,129.027 322.906,130.027 321.5,130.5C 321.427,128.973 322.094,127.973 323.5,127.5 Z"/></g>
<g><path style="opacity:1" fill="#65a9ec" d="M 448.5,144.5 C 448.573,146.027 447.906,147.027 446.5,147.5C 446.427,145.973 447.094,144.973 448.5,144.5 Z"/></g>
<g><path style="opacity:1" fill="#6eaeed" d="M 379.5,145.5 C 379.573,147.027 378.906,148.027 377.5,148.5C 377.427,146.973 378.094,145.973 379.5,145.5 Z"/></g>
<g><path style="opacity:1" fill="#7cb5ee" d="M 313.5,147.5 C 313.573,149.027 312.906,150.027 311.5,150.5C 311.427,148.973 312.094,147.973 313.5,147.5 Z"/></g>
<g><path style="opacity:1" fill="#61a6eb" d="M 185.5,152.5 C 185.59,155.152 184.924,157.485 183.5,159.5C 183.41,156.848 184.076,154.515 185.5,152.5 Z"/></g>
<g><path style="opacity:1" fill="#74b0ee" d="M 310.5,153.5 C 310.573,155.027 309.906,156.027 308.5,156.5C 308.427,154.973 309.094,153.973 310.5,153.5 Z"/></g>
<g><path style="opacity:1" fill="#96c3f2" d="M 496.5,172.5 C 495.167,171.167 493.833,171.167 492.5,172.5C 493.833,168.5 495.167,168.5 496.5,172.5 Z"/></g>
<g><path style="opacity:1" fill="#2286e3" d="M 182.5,165.5 C 182.501,173.517 182.834,181.517 183.5,189.5C 182.058,184.745 181.392,179.745 181.5,174.5C 181.502,171.314 181.835,168.314 182.5,165.5 Z"/></g>
<g><path style="opacity:1" fill="#64a7eb" d="M 435.5,170.5 C 435.573,172.027 434.906,173.027 433.5,173.5C 433.427,171.973 434.094,170.973 435.5,170.5 Z"/></g>
<g><path style="opacity:1" fill="#76b2ee" d="M 300.5,173.5 C 300.573,175.027 299.906,176.027 298.5,176.5C 298.427,174.973 299.094,173.973 300.5,173.5 Z"/></g>
<g><path style="opacity:1" fill="#5ea3eb" d="M 287.5,185.5 C 287.573,187.027 286.906,188.027 285.5,188.5C 285.427,186.973 286.094,185.973 287.5,185.5 Z"/></g>
<g><path style="opacity:1" fill="#57a2ea" d="M 183.5,189.5 C 184.924,191.515 185.59,193.848 185.5,196.5C 184.076,194.485 183.41,192.152 183.5,189.5 Z"/></g>
<g><path style="opacity:1" fill="#65a9ec" d="M 425.5,190.5 C 425.573,192.027 424.906,193.027 423.5,193.5C 423.427,191.973 424.094,190.973 425.5,190.5 Z"/></g>
<g><path style="opacity:1" fill="#5ea3ea" d="M 483.5,190.5 C 483.573,192.027 482.906,193.027 481.5,193.5C 481.427,191.973 482.094,190.973 483.5,190.5 Z"/></g>
<g><path style="opacity:1" fill="#7cb5ee" d="M 290.5,193.5 C 290.573,195.027 289.906,196.027 288.5,196.5C 288.427,194.973 289.094,193.973 290.5,193.5 Z"/></g>
<g><path style="opacity:1" fill="#498be5" d="M 350.5,197.5 C 348.486,197.392 346.82,198.058 345.5,199.5C 346.316,195.592 347.983,194.926 350.5,197.5 Z"/></g>
<g><path style="opacity:1" fill="#68aaec" d="M 415.5,196.5 C 415.573,198.027 414.906,199.027 413.5,199.5C 413.427,197.973 414.094,196.973 415.5,196.5 Z"/></g>
<g><path style="opacity:1" fill="#74b0ee" d="M 287.5,199.5 C 287.573,201.027 286.906,202.027 285.5,202.5C 285.427,200.973 286.094,199.973 287.5,199.5 Z"/></g>
<g><path style="opacity:1" fill="#73b0ed" d="M 415.5,210.5 C 415.573,212.027 414.906,213.027 413.5,213.5C 413.427,211.973 414.094,210.973 415.5,210.5 Z"/></g>
<g><path style="opacity:1" fill="#70adec" d="M 412.5,216.5 C 412.573,218.027 411.906,219.027 410.5,219.5C 410.427,217.973 411.094,216.973 412.5,216.5 Z"/></g>
<g><path style="opacity:1" fill="#76b2ee" d="M 277.5,219.5 C 277.573,221.027 276.906,222.027 275.5,222.5C 275.427,220.973 276.094,219.973 277.5,219.5 Z"/></g>
<g><path style="opacity:1" fill="#6fafee" d="M 461.5,222.5 C 461.573,224.027 460.906,225.027 459.5,225.5C 459.427,223.973 460.094,222.973 461.5,222.5 Z"/></g>
<g><path style="opacity:1" fill="#7ab4ef" d="M 333.5,224.5 C 333.573,226.027 332.906,227.027 331.5,227.5C 331.427,225.973 332.094,224.973 333.5,224.5 Z"/></g>
<g><path style="opacity:1" fill="#6fafed" d="M 402.5,236.5 C 402.573,238.027 401.906,239.027 400.5,239.5C 400.427,237.973 401.094,236.973 402.5,236.5 Z"/></g>
<g><path style="opacity:1" fill="#88bbf0" d="M 229.5,239.5 C 232.152,239.41 234.485,240.076 236.5,241.5C 233.848,241.59 231.515,240.924 229.5,239.5 Z"/></g>
<g><path style="opacity:1" fill="#b1d3f4" d="M 267.5,239.5 C 267.586,240.496 267.252,241.329 266.5,242C 285.83,242.5 305.164,242.667 324.5,242.5C 305.007,243.497 285.34,243.83 265.5,243.5C 265.229,241.62 265.896,240.287 267.5,239.5 Z"/></g>
<g><path style="opacity:1" fill="#b3d5f4" d="M 400.5,240.5 C 417.134,242.486 434.134,243.152 451.5,242.5C 434.341,243.497 417.008,243.83 399.5,243.5C 399.263,242.209 399.596,241.209 400.5,240.5 Z"/></g>
<g><path style="opacity:1" fill="#0a7de2" d="M 331.5,240.5 C 331.5,241.5 331.5,242.5 331.5,243.5C 351.5,243.5 371.5,243.5 391.5,243.5C 371.34,244.497 351.007,244.83 330.5,244.5C 330.232,242.901 330.566,241.568 331.5,240.5 Z"/></g>
<g><path style="opacity:1" fill="#027ae1" d="M 452.5,240.5 C 452.5,241.833 452.5,243.167 452.5,244.5C 434.659,244.83 416.992,244.497 399.5,243.5C 417.008,243.83 434.341,243.497 451.5,242.5C 451.328,241.508 451.662,240.842 452.5,240.5 Z"/></g>
<g><path style="opacity:1" fill="#187fe2" d="M 459.5,239.5 C 459.461,240.583 459.127,241.583 458.5,242.5C 482.491,243.5 506.491,243.833 530.5,243.5C 530.5,242.5 530.5,241.5 530.5,240.5C 531.434,241.568 531.768,242.901 531.5,244.5C 506.833,244.5 482.167,244.5 457.5,244.5C 457.12,242.302 457.787,240.635 459.5,239.5 Z"/></g>
</svg>
