<?xml version="1.0" encoding="UTF-8"?>
<!DOCTYPE svg PUBLIC "-//W3C//DTD SVG 1.1//EN" "http://www.w3.org/Graphics/SVG/1.1/DTD/svg11.dtd">
<svg xmlns="http://www.w3.org/2000/svg" version="1.1" width="5000px" height="2500px" style="shape-rendering:geometricPrecision; text-rendering:geometricPrecision; image-rendering:optimizeQuality; fill-rule:evenodd; clip-rule:evenodd" xmlns:xlink="http://www.w3.org/1999/xlink">
<g><path style="opacity:1" fill="#1b4e9b" d="M 1249.5,-0.5 C 2082.83,-0.5 2916.17,-0.5 3749.5,-0.5C 3749.5,832.833 3749.5,1666.17 3749.5,2499.5C 2916.17,2499.5 2082.83,2499.5 1249.5,2499.5C 1249.5,1666.17 1249.5,832.833 1249.5,-0.5 Z"/></g>
<g><path style="opacity:1" fill="#fdfdfd" d="M 3004.5,1240.5 C 2972.66,1240.83 2941,1240.5 2909.5,1239.5C 2967.87,1119.85 2975.03,997.184 2931,871.5C 2872.96,728.127 2769.79,634.294 2621.5,590C 2499.79,559.035 2383.79,573.369 2273.5,633C 2253.79,644.569 2234.79,657.069 2216.5,670.5C 2174.66,670.832 2133,670.499 2091.5,669.5C 2199.81,551.698 2334.48,490.698 2495.5,486.5C 2652.08,488.155 2785.25,544.155 2895,654.5C 3014.88,783.901 3063.55,936.568 3041,1112.5C 3033.97,1156.73 3021.81,1199.4 3004.5,1240.5 Z"/></g>
<g><path style="opacity:1" fill="#dde5ef" d="M 2091.5,669.5 C 2133,670.499 2174.66,670.832 2216.5,670.5C 2174.66,671.831 2132.66,671.831 2090.5,670.5C 2090.62,669.893 2090.96,669.56 2091.5,669.5 Z"/></g>
<g><path style="opacity:1" fill="#fdfdfd" d="M 1909.5,709.5 C 2163.83,709.333 2418.17,709.5 2672.5,710C 2750.05,792.262 2827.72,874.429 2905.5,956.5C 2844.38,1039.24 2783.38,1122.08 2722.5,1205C 2664.83,1205.67 2607.17,1205.67 2549.5,1205C 2505.5,1174.33 2461.5,1143.67 2417.5,1113C 2427.22,1100.28 2436.55,1087.28 2445.5,1074C 2503.5,1073.67 2561.5,1073.33 2619.5,1073C 2644.21,1035.09 2668.54,996.921 2692.5,958.5C 2638.68,900.183 2584.68,842.016 2530.5,784C 2318.17,783.5 2105.83,783.333 1893.5,783.5C 1899.46,758.965 1904.79,734.298 1909.5,709.5 Z"/></g>
<g><path style="opacity:1" fill="#fdfdfd" d="M 1993.5,824.5 C 2025.51,824.167 2057.51,824.5 2089.5,825.5C 2043.69,916.833 2029.86,1012.83 2048,1113.5C 2074.25,1244.32 2143.08,1345.82 2254.5,1418C 2369.08,1487.45 2491.41,1505.45 2621.5,1472C 2678.89,1456.14 2731.22,1430.47 2778.5,1395C 2821.17,1394.33 2863.83,1394.33 2906.5,1395C 2804,1505.74 2677,1565.74 2525.5,1575C 2355.86,1579.4 2212.7,1520.57 2096,1398.5C 1984.35,1271.84 1938.35,1124.17 1958,955.5C 1964.97,910.484 1976.8,866.817 1993.5,824.5 Z"/></g>
<g><path style="opacity:1" fill="#fdfdfd" d="M 2275.5,856.5 C 2333.5,856.333 2391.5,856.5 2449.5,857C 2494.01,887.42 2538.34,918.087 2582.5,949C 2573.17,962 2563.83,975 2554.5,988C 2496.5,988.333 2438.5,988.667 2380.5,989C 2356.62,1026.58 2333.12,1064.41 2310,1102.5C 2309.33,1103.5 2309.33,1104.5 2310,1105.5C 2364.17,1163 2418.33,1220.5 2472.5,1278C 2682.83,1278.5 2893.17,1278.67 3103.5,1278.5C 3098.63,1303.54 3093.63,1328.54 3088.5,1353.5C 2836.17,1353.83 2583.83,1353.5 2331.5,1352.5C 2252.31,1270.47 2173.31,1188.31 2094.5,1106C 2154.97,1022.88 2215.3,939.714 2275.5,856.5 Z"/></g>
<g><path style="opacity:1" fill="#6d8ebf" d="M 2909.5,1239.5 C 2941,1240.5 2972.66,1240.83 3004.5,1240.5C 2972.66,1241.83 2940.66,1241.83 2908.5,1240.5C 2908.62,1239.89 2908.96,1239.56 2909.5,1239.5 Z"/></g>
<g><path style="opacity:1" fill="#829ec8" d="M 3299.5,1752.5 C 3333,1751.5 3366.66,1751.17 3400.5,1751.5C 3400.74,1752.79 3400.4,1753.79 3399.5,1754.5C 3366.52,1752.51 3333.18,1751.84 3299.5,1752.5 Z"/></g>
<g><path style="opacity:1" fill="#fdfdfd" d="M 1408.5,1752.5 C 1518.86,1752.01 1629.2,1752.51 1739.5,1754C 1756.94,1758.1 1768.77,1768.6 1775,1785.5C 1776.96,1791.69 1778.13,1798.02 1778.5,1804.5C 1777.22,1823.82 1772.39,1842.15 1764,1859.5C 1759.86,1865.3 1755.36,1870.8 1750.5,1876C 1757.21,1886.54 1759.37,1898.04 1757,1910.5C 1754.02,1927.11 1750.02,1943.44 1745,1959.5C 1731.41,1987.87 1709.24,2005.03 1678.5,2011C 1570.17,2011.5 1461.83,2011.67 1353.5,2011.5C 1364.26,1958.51 1375.6,1905.67 1387.5,1853C 1480.17,1852.5 1572.83,1852.33 1665.5,1852.5C 1667.85,1839.76 1670.52,1827.09 1673.5,1814.5C 1580.83,1814.5 1488.17,1814.5 1395.5,1814.5C 1399.83,1793.83 1404.17,1773.16 1408.5,1752.5 Z"/></g>
<g><path style="opacity:1" fill="#fdfdfd" d="M 1821.5,1752.5 C 1853.83,1752.5 1886.17,1752.5 1918.5,1752.5C 1906.79,1805.77 1895.62,1859.11 1885,1912.5C 1952.17,1859.33 2019.33,1806.17 2086.5,1753C 2126.17,1752.17 2165.84,1752.33 2205.5,1753.5C 2186.75,1839.42 2168.41,1925.42 2150.5,2011.5C 2118.16,2011.67 2085.83,2011.5 2053.5,2011C 2066.85,1950.24 2079.69,1889.41 2092,1828.5C 2016.21,1888.62 1940.71,1949.12 1865.5,2010C 1832.59,2011.65 1799.59,2011.99 1766.5,2011C 1785.42,1924.98 1803.75,1838.81 1821.5,1752.5 Z"/></g>
<g><path style="opacity:1" fill="#fdfdfd" d="M 2238.5,1752.5 C 2345.17,1752.33 2451.83,1752.5 2558.5,1753C 2586.9,1755.6 2605.4,1770.44 2614,1797.5C 2614.67,1802.83 2614.67,1808.17 2614,1813.5C 2610.03,1835.74 2605.03,1857.74 2599,1879.5C 2585.85,1903.98 2566.01,1920.48 2539.5,1929C 2533.57,1930.66 2527.57,1931.99 2521.5,1933C 2457.83,1933.5 2394.17,1933.67 2330.5,1933.5C 2334.18,1914.45 2338.18,1895.45 2342.5,1876.5C 2392.16,1875.5 2441.83,1875.17 2491.5,1875.5C 2495.03,1855.06 2499.03,1834.73 2503.5,1814.5C 2447.5,1814.33 2391.5,1814.5 2335.5,1815C 2320.7,1880.31 2306.7,1945.81 2293.5,2011.5C 2256.83,2011.5 2220.17,2011.5 2183.5,2011.5C 2201.71,1925.14 2220.04,1838.81 2238.5,1752.5 Z"/></g>
<g><path style="opacity:1" fill="#fdfdfd" d="M 2981.5,2011.5 C 2948.66,2011.83 2916,2011.5 2883.5,2010.5C 2888.91,1983.11 2894.58,1955.78 2900.5,1928.5C 2839.5,1928.33 2778.5,1928.5 2717.5,1929C 2711.36,1956.57 2705.36,1984.07 2699.5,2011.5C 2666.83,2011.5 2634.17,2011.5 2601.5,2011.5C 2601.5,2010.5 2601.5,2009.5 2601.5,2008.5C 2615.01,1943.78 2628.84,1879.11 2643,1814.5C 2655.65,1781.51 2679.15,1761.01 2713.5,1753C 2801.83,1752.33 2890.17,1752.33 2978.5,1753C 3006.79,1758.95 3021.79,1776.28 3023.5,1805C 3023.58,1812.27 3022.75,1819.44 3021,1826.5C 3007.4,1888.09 2994.24,1949.76 2981.5,2011.5 Z"/></g>
<g><path style="opacity:1" fill="#fdfdfd" d="M 3130.5,2011.5 C 3088,2011.83 3045.66,2011.5 3003.5,2010.5C 3061.81,1957.19 3120.15,1903.86 3178.5,1850.5C 3137,1817.84 3095.33,1785.34 3053.5,1753C 3104.5,1752.33 3155.5,1752.33 3206.5,1753C 3226.67,1769.83 3246.83,1786.67 3267,1803.5C 3261.4,1836.65 3254.74,1869.65 3247,1902.5C 3208,1938.67 3169.16,1975.01 3130.5,2011.5 Z"/></g>
<g><path style="opacity:1" fill="#fdfdfd" d="M 3299.5,1752.5 C 3333.18,1751.84 3366.52,1752.51 3399.5,1754.5C 3381.27,1840.31 3362.94,1925.98 3344.5,2011.5C 3311,2011.83 3277.66,2011.5 3244.5,2010.5C 3262.62,1924.45 3280.95,1838.45 3299.5,1752.5 Z"/></g>
<g><path style="opacity:1" fill="#fcfdfd" d="M 3491.5,1752.5 C 3542.5,1752.33 3593.5,1752.5 3644.5,1753C 3588.83,1785.5 3533.17,1818 3477.5,1850.5C 3513.41,1903.99 3549.08,1957.66 3584.5,2011.5C 3541.83,2012.83 3499.17,2012.83 3456.5,2011.5C 3433.53,1975.37 3410.36,1939.37 3387,1903.5C 3393.22,1870.39 3400.22,1837.39 3408,1804.5C 3436.15,1787.52 3463.98,1770.18 3491.5,1752.5 Z"/></g>
<g><path style="opacity:1" fill="#1e4f9b" d="M 2913.5,1872.5 C 2852.24,1873.5 2790.9,1873.83 2729.5,1873.5C 2733.29,1854.79 2737.29,1836.12 2741.5,1817.5C 2802.5,1816.5 2863.5,1816.17 2924.5,1816.5C 2920.32,1835.07 2916.65,1853.74 2913.5,1872.5 Z"/></g>
<g><path style="opacity:1" fill="#c5d2e6" d="M 2913.5,1872.5 C 2883.17,1873.83 2852.51,1874.5 2821.5,1874.5C 2790.66,1874.5 2760,1874.17 2729.5,1873.5C 2790.9,1873.83 2852.24,1873.5 2913.5,1872.5 Z"/></g>
<g><path style="opacity:1" fill="#577db6" d="M 1453.5,1906.5 C 1520.66,1905.5 1588,1905.17 1655.5,1905.5C 1655.74,1906.79 1655.4,1907.79 1654.5,1908.5C 1587.84,1906.5 1520.84,1905.84 1453.5,1906.5 Z"/></g>
<g><path style="opacity:1" fill="#1d4f9b" d="M 1453.5,1906.5 C 1520.84,1905.84 1587.84,1906.5 1654.5,1908.5C 1651.58,1922.12 1648.91,1935.79 1646.5,1949.5C 1579.17,1949.5 1511.83,1949.5 1444.5,1949.5C 1446.86,1935.02 1449.86,1920.69 1453.5,1906.5 Z"/></g>
<g><path style="opacity:1" fill="#446dac" d="M 2601.5,2008.5 C 2601.5,2009.5 2601.5,2010.5 2601.5,2011.5C 2634.17,2011.5 2666.83,2011.5 2699.5,2011.5C 2666.67,2012.5 2633.67,2012.83 2600.5,2012.5C 2600.23,2010.9 2600.57,2009.57 2601.5,2008.5 Z"/></g>
<g><path style="opacity:1" fill="#416bab" d="M 2883.5,2010.5 C 2916,2011.5 2948.66,2011.83 2981.5,2011.5C 2948.66,2012.83 2915.66,2012.83 2882.5,2011.5C 2882.62,2010.89 2882.96,2010.56 2883.5,2010.5 Z"/></g>
<g><path style="opacity:1" fill="#99b0d2" d="M 3003.5,2010.5 C 3045.66,2011.5 3088,2011.83 3130.5,2011.5C 3088,2012.83 3045.33,2012.83 3002.5,2011.5C 3002.62,2010.89 3002.96,2010.56 3003.5,2010.5 Z"/></g>
<g><path style="opacity:1" fill="#416bab" d="M 3244.5,2010.5 C 3277.66,2011.5 3311,2011.83 3344.5,2011.5C 3311,2012.83 3277.33,2012.83 3243.5,2011.5C 3243.62,2010.89 3243.96,2010.56 3244.5,2010.5 Z"/></g>
</svg>
