<?xml version="1.0" encoding="UTF-8"?>
<!DOCTYPE svg PUBLIC "-//W3C//DTD SVG 1.1//EN" "http://www.w3.org/Graphics/SVG/1.1/DTD/svg11.dtd">
<svg xmlns="http://www.w3.org/2000/svg" version="1.1" width="2128px" height="1063px" style="shape-rendering:geometricPrecision; text-rendering:geometricPrecision; image-rendering:optimizeQuality; fill-rule:evenodd; clip-rule:evenodd" xmlns:xlink="http://www.w3.org/1999/xlink">
<g><path style="opacity:0.988" fill="#008b67" d="M 40.5,318.5 C 161.833,318.5 283.167,318.5 404.5,318.5C 404.667,401.834 404.5,485.167 404,568.5C 398.248,642.549 362.082,695.716 295.5,728C 236.347,751.523 179.347,747.19 124.5,715C 74.8228,681.848 46.9895,635.348 41,575.5C 40.5,489.834 40.3333,404.167 40.5,318.5 Z M 115.5,391.5 C 186.5,391.5 257.5,391.5 328.5,391.5C 328.5,412.167 328.5,432.833 328.5,453.5C 278.167,453.5 227.833,453.5 177.5,453.5C 177.333,490.835 177.5,528.168 178,565.5C 182.9,589.394 197.566,602.394 222,604.5C 249.345,602.321 264.178,587.654 266.5,560.5C 251.5,560.5 236.5,560.5 221.5,560.5C 221.5,539.833 221.5,519.167 221.5,498.5C 257.167,498.5 292.833,498.5 328.5,498.5C 328.937,525.533 328.437,552.533 327,579.5C 315.415,627.085 285.582,655.585 237.5,665C 184.848,669.265 147.015,647.765 124,600.5C 119.607,589.926 116.94,578.926 116,567.5C 115.5,508.834 115.333,450.168 115.5,391.5 Z"/></g>
<g><path style="opacity:0.984" fill="#008b67" d="M 512.5,390.5 C 576.167,390.5 639.833,390.5 703.5,390.5C 703.5,411.833 703.5,433.167 703.5,454.5C 664.833,454.5 626.167,454.5 587.5,454.5C 587.5,525.5 587.5,596.5 587.5,667.5C 562.5,667.5 537.5,667.5 512.5,667.5C 512.5,575.167 512.5,482.833 512.5,390.5 Z"/></g>
<g><path style="opacity:0.986" fill="#008b67" d="M 785.5,390.5 C 823.167,390.5 860.833,390.5 898.5,390.5C 926.371,482.78 954.038,575.113 981.5,667.5C 956.167,667.5 930.833,667.5 905.5,667.5C 901.243,651.727 896.576,636.06 891.5,620.5C 858.833,619.167 826.167,619.167 793.5,620.5C 788.959,636.122 784.625,651.789 780.5,667.5C 754.5,667.5 728.5,667.5 702.5,667.5C 729.704,575.014 757.371,482.68 785.5,390.5 Z M 842.5,449.5 C 853.966,487.676 865.299,526.009 876.5,564.5C 854.167,565.833 831.833,565.833 809.5,564.5C 820.662,526.183 831.662,487.849 842.5,449.5 Z"/></g>
<g><path style="opacity:0.988" fill="#008b67" d="M 1000.5,390.5 C 1052.83,390.333 1105.17,390.5 1157.5,391C 1181.74,391.372 1201.91,400.539 1218,418.5C 1225.75,430.34 1230.41,443.34 1232,457.5C 1234.83,480.463 1235.16,503.463 1233,526.5C 1232.08,563.072 1213.92,585.572 1178.5,594C 1168.88,595.158 1159.21,595.824 1149.5,596C 1124.84,596.5 1100.17,596.667 1075.5,596.5C 1075.5,620.167 1075.5,643.833 1075.5,667.5C 1050.5,667.5 1025.5,667.5 1000.5,667.5C 1000.5,575.167 1000.5,482.833 1000.5,390.5 Z M 1075.5,452.5 C 1095.84,452.333 1116.17,452.5 1136.5,453C 1147.07,454.358 1153.57,460.191 1156,470.5C 1158.27,486.904 1157.94,503.238 1155,519.5C 1152.77,524.731 1148.94,528.231 1143.5,530C 1120.88,531.447 1098.21,531.947 1075.5,531.5C 1075.5,505.167 1075.5,478.833 1075.5,452.5 Z"/></g>
<g><path style="opacity:0.986" fill="#008b67" d="M 1262.5,390.5 C 1317.17,390.333 1371.83,390.5 1426.5,391C 1444.29,390.862 1460.63,395.529 1475.5,405C 1485.45,414.403 1491.62,425.903 1494,439.5C 1497.29,456.173 1497.29,472.84 1494,489.5C 1491.1,504.736 1482.6,515.569 1468.5,522C 1462.68,524.288 1456.68,525.954 1450.5,527C 1466.05,527.066 1479.22,532.566 1490,543.5C 1494.03,549.24 1496.69,555.574 1498,562.5C 1501.33,582.5 1501.33,602.5 1498,622.5C 1493.79,643.044 1481.62,656.211 1461.5,662C 1449.7,665.067 1437.7,666.734 1425.5,667C 1371.17,667.5 1316.83,667.667 1262.5,667.5C 1262.5,575.167 1262.5,482.833 1262.5,390.5 Z M 1337.5,452.5 C 1362.21,452.049 1386.88,452.549 1411.5,454C 1414.56,455.061 1417.06,456.894 1419,459.5C 1423.47,470.125 1423.47,480.791 1419,491.5C 1416.54,496.149 1412.71,498.983 1407.5,500C 1384.17,500.5 1360.84,500.667 1337.5,500.5C 1337.5,484.5 1337.5,468.5 1337.5,452.5 Z M 1337.5,552.5 C 1362.52,552.181 1387.52,552.681 1412.5,554C 1419.33,555.5 1423.5,559.667 1425,566.5C 1427.44,576.409 1426.78,586.075 1423,595.5C 1416.58,601.976 1408.75,605.143 1399.5,605C 1378.84,605.5 1358.17,605.667 1337.5,605.5C 1337.5,587.833 1337.5,570.167 1337.5,552.5 Z"/></g>
<g><path style="opacity:0.988" fill="#008b67" d="M 1533.5,390.5 C 1558.17,390.5 1582.83,390.5 1607.5,390.5C 1607.67,431.168 1607.5,471.835 1607,512.5C 1605.88,536.225 1604.05,559.891 1601.5,583.5C 1627.36,521.338 1653.69,457.338 1680.5,391.5C 1712.83,390.5 1745.16,390.167 1777.5,390.5C 1777.5,482.833 1777.5,575.167 1777.5,667.5C 1752.83,667.5 1728.17,667.5 1703.5,667.5C 1703.33,625.165 1703.5,582.832 1704,540.5C 1704.9,518.084 1706.73,495.75 1709.5,473.5C 1709.17,472.833 1708.83,472.167 1708.5,471.5C 1683.29,536.785 1657.29,601.785 1630.5,666.5C 1598.17,667.5 1565.84,667.833 1533.5,667.5C 1533.5,575.167 1533.5,482.833 1533.5,390.5 Z"/></g>
<g><path style="opacity:0.987" fill="#008b67" d="M 1821.5,390.5 C 1846.5,390.5 1871.5,390.5 1896.5,390.5C 1896.5,425.167 1896.5,459.833 1896.5,494.5C 1928.17,494.5 1959.83,494.5 1991.5,494.5C 1991.5,459.833 1991.5,425.167 1991.5,390.5C 2016.5,390.5 2041.5,390.5 2066.5,390.5C 2066.5,482.833 2066.5,575.167 2066.5,667.5C 2041.5,667.5 2016.5,667.5 1991.5,667.5C 1991.5,631.167 1991.5,594.833 1991.5,558.5C 1959.83,558.5 1928.17,558.5 1896.5,558.5C 1896.5,594.833 1896.5,631.167 1896.5,667.5C 1871.5,667.5 1846.5,667.5 1821.5,667.5C 1821.5,575.167 1821.5,482.833 1821.5,390.5 Z"/></g>
</svg>
