<?xml version="1.0" encoding="UTF-8"?>
<!DOCTYPE svg PUBLIC "-//W3C//DTD SVG 1.1//EN" "http://www.w3.org/Graphics/SVG/1.1/DTD/svg11.dtd">
<svg xmlns="http://www.w3.org/2000/svg" version="1.1" width="1280px" height="640px" style="shape-rendering:geometricPrecision; text-rendering:geometricPrecision; image-rendering:optimizeQuality; fill-rule:evenodd; clip-rule:evenodd" xmlns:xlink="http://www.w3.org/1999/xlink">
<g><path style="opacity:1" fill="#f31e09" d="M 295.5,140.5 C 293.076,140.192 290.743,140.526 288.5,141.5C 289.333,141.833 290.167,142.167 291,142.5C 294.35,142.054 297.517,141.388 300.5,140.5C 328.666,148.476 341.833,167.143 340,196.5C 338.94,202.679 337.273,208.679 335,214.5C 333.386,217.94 331.22,220.94 328.5,223.5C 328.565,223.062 328.399,222.728 328,222.5C 318.822,232.676 307.488,239.009 294,241.5C 292.97,241.836 292.47,242.503 292.5,243.5C 290.833,243.5 289.167,243.5 287.5,243.5C 287.53,242.503 287.03,241.836 286,241.5C 276.297,239.796 267.963,235.462 261,228.5C 260.536,229.094 260.369,229.761 260.5,230.5C 251.667,223.173 246.167,213.839 244,202.5C 223.122,228.451 202.622,254.618 182.5,281C 211.116,320.36 242.45,357.527 276.5,392.5C 292.84,378.658 309.006,364.658 325,350.5C 310.355,300.575 321.855,257.741 359.5,222C 376.146,208.347 395.146,199.514 416.5,195.5C 417.492,197.026 418.992,197.693 421,197.5C 428.169,196.189 435.336,196.189 442.5,197.5C 444.976,197.767 445.643,197.101 444.5,195.5C 467.408,198.345 487.408,207.345 504.5,222.5C 499.862,225.504 495.528,229.004 491.5,233C 492.056,233.383 492.389,233.883 492.5,234.5C 491.833,234.5 491.5,234.833 491.5,235.5C 490.883,235.389 490.383,235.056 490,234.5C 447.782,272.057 405.616,309.557 363.5,347C 364.056,347.383 364.389,347.883 364.5,348.5C 335.086,375.586 305.086,401.92 274.5,427.5C 271.808,425.845 269.308,423.845 267,421.5C 242.549,393.895 218.049,366.562 193.5,339.5C 193.611,338.883 193.944,338.383 194.5,338C 189,331.833 183.5,325.667 178,319.5C 177.17,347.336 177.336,375.003 178.5,402.5C 178.489,404.017 177.823,405.184 176.5,406C 161.25,413.435 145.917,420.602 130.5,427.5C 129.735,427.077 128.902,426.743 128,426.5C 116.406,432.372 104.573,437.872 92.5,443C 93.4158,443.278 94.0825,443.778 94.5,444.5C 93.609,445.11 92.609,445.443 91.5,445.5C 91.2648,444.903 90.7648,444.57 90,444.5C 82.997,447.28 76.1637,450.446 69.5,454C 68.1772,454.816 67.5106,455.983 67.5,457.5C 58.6077,461.187 49.9411,465.354 41.5,470C 39.8659,470.494 38.1992,470.66 36.5,470.5C 36.5,469.167 36.5,467.833 36.5,466.5C 37.2216,466.918 37.7216,467.584 38,468.5C 38.6667,384.5 38.6667,300.5 38,216.5C 37.79,218.058 37.29,219.391 36.5,220.5C 35.9607,217.305 36.9607,214.805 39.5,213C 84.7398,193.207 129.74,173.207 174.5,153C 176.945,152.09 178.278,152.924 178.5,155.5C 177.336,184.664 177.17,213.997 178,243.5C 178.717,242.956 179.217,242.289 179.5,241.5C 201.498,212.32 224.498,183.82 248.5,156C 261.993,143.891 277.66,138.724 295.5,140.5 Z"/></g>
<g><path style="opacity:0.2" fill="#f42c16" d="M 295.5,140.5 C 297.167,140.5 298.833,140.5 300.5,140.5C 297.517,141.388 294.35,142.054 291,142.5C 290.167,142.167 289.333,141.833 288.5,141.5C 290.743,140.526 293.076,140.192 295.5,140.5 Z"/></g>
<g><path style="opacity:0.01" fill="#ff0200" d="M 178.5,155.5 C 178.169,184.338 178.502,213.005 179.5,241.5C 179.217,242.289 178.717,242.956 178,243.5C 177.17,213.997 177.336,184.664 178.5,155.5 Z"/></g>
<g><path style="opacity:0.112" fill="#f53921" d="M 1132.5,193.5 C 1138.36,193.178 1144.02,193.511 1149.5,194.5C 1143.68,195.653 1137.68,195.819 1131.5,195C 1132.06,194.617 1132.39,194.117 1132.5,193.5 Z"/></g>
<g><path style="opacity:1" fill="#f31e09" d="M 1132.5,193.5 C 1132.39,194.117 1132.06,194.617 1131.5,195C 1137.68,195.819 1143.68,195.653 1149.5,194.5C 1151.17,194.5 1152.83,194.5 1154.5,194.5C 1154.39,195.117 1154.06,195.617 1153.5,196C 1159.31,197.742 1164.97,198.576 1170.5,198.5C 1194.89,206.094 1213.06,221.094 1225,243.5C 1234.26,264.731 1233.26,285.398 1222,305.5C 1220.3,307.696 1218.47,309.696 1216.5,311.5C 1215.88,311.389 1215.38,311.056 1215,310.5C 1204.71,320.259 1192.55,323.759 1178.5,321C 1171.19,319.345 1164.52,316.345 1158.5,312C 1155.3,309.102 1152.97,305.602 1151.5,301.5C 1150.68,300.614 1149.68,300.281 1148.5,300.5C 1148.5,299.833 1148.5,299.167 1148.5,298.5C 1149.65,292.347 1149.82,286.014 1149,279.5C 1148.77,280.737 1148.27,281.737 1147.5,282.5C 1147.31,278.434 1147.64,274.434 1148.5,270.5C 1151.71,269.206 1151.88,267.872 1149,266.5C 1138.53,277.64 1128.03,288.807 1117.5,300C 1118.09,300.464 1118.76,300.631 1119.5,300.5C 1119.17,301.5 1118.5,302.167 1117.5,302.5C 1117.44,301.957 1117.11,301.624 1116.5,301.5C 1112.68,305.818 1108.68,309.985 1104.5,314C 1105.06,314.383 1105.39,314.883 1105.5,315.5C 1104.83,316.833 1103.83,317.833 1102.5,318.5C 1102.63,317.761 1102.46,317.094 1102,316.5C 1090.98,328.604 1079.81,340.604 1068.5,352.5C 1068.62,353.107 1068.96,353.44 1069.5,353.5C 1087.73,387.611 1116.06,401.444 1154.5,395C 1177.75,388.425 1197.42,376.092 1213.5,358C 1222.83,357.5 1232.16,357.334 1241.5,357.5C 1241.54,360.425 1240.71,363.091 1239,365.5C 1221.43,395.725 1195.6,414.891 1161.5,423C 1158.52,423.498 1155.52,423.665 1152.5,423.5C 1153.26,422.732 1154.26,422.232 1155.5,422C 1154.83,421.833 1154.17,421.667 1153.5,421.5C 1144.17,422.833 1134.83,422.833 1125.5,421.5C 1124.83,421.667 1124.17,421.833 1123.5,422C 1124.74,422.232 1125.74,422.732 1126.5,423.5C 1115.72,422.983 1105.39,420.65 1095.5,416.5C 1096.6,415.603 1096.6,414.77 1095.5,414C 1085.53,409.928 1076.36,404.428 1068,397.5C 1067.62,398.056 1067.12,398.389 1066.5,398.5C 1041.08,376.99 1027.24,349.323 1025,315.5C 1001.36,340.978 977.523,366.312 953.5,391.5C 953.103,390.475 952.437,390.308 951.5,391C 940.342,404.505 926.342,413.505 909.5,418C 901.424,418.268 893.424,418.434 885.5,418.5C 885.167,418.5 884.833,418.5 884.5,418.5C 884.918,417.778 885.584,417.278 886.5,417C 879.805,414.981 874.139,411.314 869.5,406C 868.552,405.517 867.552,405.351 866.5,405.5C 859.773,396.335 855.773,386.001 854.5,374.5C 855.65,369.684 855.816,364.684 855,359.5C 854.692,358.692 854.192,358.025 853.5,357.5C 848.318,362.515 843.318,367.681 838.5,373C 838.728,373.399 839.062,373.565 839.5,373.5C 837.833,375.833 835.833,377.833 833.5,379.5C 833.565,379.062 833.399,378.728 833,378.5C 824.306,387.194 815.64,395.86 807,404.5C 806.308,405.437 806.475,406.103 807.5,406.5C 806.833,407.5 806.167,408.5 805.5,409.5C 804.85,409.196 804.183,408.863 803.5,408.5C 800.083,412.588 796.083,415.921 791.5,418.5C 777.144,395.819 762.811,373.152 748.5,350.5C 748.804,349.85 749.137,349.183 749.5,348.5C 743.355,340.208 737.855,331.541 733,322.5C 732.23,321.402 731.397,321.402 730.5,322.5C 730.44,321.957 730.107,321.624 729.5,321.5C 727.485,323.576 725.485,325.576 723.5,327.5C 723.103,326.475 722.437,326.308 721.5,327C 714.264,334.813 707.264,342.813 700.5,351C 701.056,351.383 701.389,351.883 701.5,352.5C 695.536,360.132 688.869,367.132 681.5,373.5C 681.565,373.062 681.399,372.728 681,372.5C 674.695,379.474 668.362,386.474 662,393.5C 661.308,394.437 661.475,395.103 662.5,395.5C 655.403,403.77 648.069,411.937 640.5,420C 639.552,420.483 638.552,420.649 637.5,420.5C 637.649,419.448 637.483,418.448 637,417.5C 616.556,385.989 596.39,354.322 576.5,322.5C 575.998,321.479 575.332,321.312 574.5,322C 571.302,326.026 567.968,329.859 564.5,333.5C 564.103,332.475 563.437,332.308 562.5,333C 553.698,344.301 544.365,355.134 534.5,365.5C 534.624,366.107 534.957,366.44 535.5,366.5C 525.464,381.706 513.131,394.873 498.5,406C 484.32,415.893 468.653,421.726 451.5,423.5C 451.918,422.778 452.584,422.278 453.5,422C 444.552,422.248 435.552,422.581 426.5,423C 427.416,423.278 428.082,423.778 428.5,424.5C 397.767,423.376 371.6,412.043 350,390.5C 349.333,389.5 349.333,388.5 350,387.5C 406.031,337.134 462.364,287.134 519,237.5C 528.513,247.835 535.513,259.835 540,273.5C 541.666,280.495 543.333,287.495 545,294.5C 545.253,301.876 545.919,309.209 547,316.5C 577.616,279.568 608.449,242.902 639.5,206.5C 660.804,239.48 682.137,272.48 703.5,305.5C 733.589,272.484 763.589,239.484 793.5,206.5C 821.505,247.346 849.338,288.346 877,329.5C 885.734,324.108 895.234,321.775 905.5,322.5C 905.586,323.496 905.252,324.329 904.5,325C 909.623,325.06 914.289,326.56 918.5,329.5C 919.298,329.043 919.631,328.376 919.5,327.5C 933.953,334.836 942.786,346.503 946,362.5C 949.549,359.287 952.716,355.787 955.5,352C 939.764,326.397 923.431,301.23 906.5,276.5C 907.303,275.577 907.47,274.577 907,273.5C 897.224,259.248 887.724,244.914 878.5,230.5C 877.5,230.5 876.5,230.5 875.5,230.5C 870.393,223.135 865.393,215.635 860.5,208C 860.836,206.97 861.503,206.47 862.5,206.5C 862.611,207.117 862.944,207.617 863.5,208C 884.667,208.167 905.833,208.333 927,208.5C 948.511,208.5 969.677,207.833 990.5,206.5C 991.978,206.238 993.311,206.571 994.5,207.5C 1007.18,226.186 1020.34,244.519 1034,262.5C 1055.14,222.844 1087.97,199.844 1132.5,193.5 Z M 459.5,316.5 C 461.833,316.5 464.167,316.5 466.5,316.5C 482.09,318.453 493.09,326.453 499.5,340.5C 506.929,368.242 496.929,386.408 469.5,395C 442.175,396.001 426.842,383.001 423.5,356C 424,349.166 425.667,342.666 428.5,336.5C 435.695,324.972 446.028,318.306 459.5,316.5 Z"/></g>
<g><path style="opacity:0.227" fill="#f62d17" d="M 1154.5,194.5 C 1160.04,195.025 1165.37,196.359 1170.5,198.5C 1164.97,198.576 1159.31,197.742 1153.5,196C 1154.06,195.617 1154.39,195.117 1154.5,194.5 Z"/></g>
<g><path style="opacity:0.89" fill="#f4311a" d="M 416.5,195.5 C 425.833,195.5 435.167,195.5 444.5,195.5C 445.643,197.101 444.976,197.767 442.5,197.5C 435.336,196.189 428.169,196.189 421,197.5C 418.992,197.693 417.492,197.026 416.5,195.5 Z"/></g>
<g><path style="opacity:0.862" fill="#f5351e" d="M 862.5,206.5 C 905.167,206.5 947.833,206.5 990.5,206.5C 969.677,207.833 948.511,208.5 927,208.5C 905.833,208.333 884.667,208.167 863.5,208C 862.944,207.617 862.611,207.117 862.5,206.5 Z"/></g>
<g><path style="opacity:0.07" fill="#f22412" d="M 36.5,466.5 C 36.5,384.5 36.5,302.5 36.5,220.5C 37.29,219.391 37.79,218.058 38,216.5C 38.6667,300.5 38.6667,384.5 38,468.5C 37.7216,467.584 37.2216,466.918 36.5,466.5 Z"/></g>
<g><path style="opacity:0.412" fill="#f41501" d="M 504.5,222.5 C 501.215,227.118 497.215,231.118 492.5,234.5C 492.389,233.883 492.056,233.383 491.5,233C 495.528,229.004 499.862,225.504 504.5,222.5 Z"/></g>
<g><path style="opacity:0.761" fill="#f41400" d="M 328.5,223.5 C 327.457,226.056 325.79,228.223 323.5,230C 314.615,237.649 304.282,242.149 292.5,243.5C 292.47,242.503 292.97,241.836 294,241.5C 307.488,239.009 318.822,232.676 328,222.5C 328.399,222.728 328.565,223.062 328.5,223.5 Z"/></g>
<g><path style="opacity:0.601" fill="#f51701" d="M 287.5,243.5 C 276.83,242.401 267.83,238.067 260.5,230.5C 260.369,229.761 260.536,229.094 261,228.5C 267.963,235.462 276.297,239.796 286,241.5C 287.03,241.836 287.53,242.503 287.5,243.5 Z"/></g>
<g><path style="opacity:0.518" fill="#f41b02" d="M 875.5,230.5 C 876.5,230.5 877.5,230.5 878.5,230.5C 887.724,244.914 897.224,259.248 907,273.5C 907.47,274.577 907.303,275.577 906.5,276.5C 896.183,261.213 885.85,245.88 875.5,230.5 Z"/></g>
<g><path style="opacity:0.247" fill="#f41300" d="M 491.5,235.5 C 449.436,273.382 407.103,311.049 364.5,348.5C 364.389,347.883 364.056,347.383 363.5,347C 405.616,309.557 447.782,272.057 490,234.5C 490.383,235.056 490.883,235.389 491.5,235.5 Z"/></g>
<g><path style="opacity:0.647" fill="#f51701" d="M 1148.5,270.5 C 1138.83,280.5 1129.17,290.5 1119.5,300.5C 1118.76,300.631 1118.09,300.464 1117.5,300C 1128.03,288.807 1138.53,277.64 1149,266.5C 1151.88,267.872 1151.71,269.206 1148.5,270.5 Z"/></g>
<g><path style="opacity:0.928" fill="#f31400" d="M 1148.5,298.5 C 1147.51,293.36 1147.18,288.026 1147.5,282.5C 1148.27,281.737 1148.77,280.737 1149,279.5C 1149.82,286.014 1149.65,292.347 1148.5,298.5 Z"/></g>
<g><path style="opacity:0.706" fill="#f51702" d="M 1117.5,302.5 C 1114.18,307.486 1110.18,311.82 1105.5,315.5C 1105.39,314.883 1105.06,314.383 1104.5,314C 1108.68,309.985 1112.68,305.818 1116.5,301.5C 1117.11,301.624 1117.44,301.957 1117.5,302.5 Z"/></g>
<g><path style="opacity:0.624" fill="#f41801" d="M 459.5,316.5 C 446.028,318.306 435.695,324.972 428.5,336.5C 427.761,336.631 427.094,336.464 426.5,336C 433.856,323.655 444.69,316.488 459,314.5C 460.684,314.683 460.85,315.35 459.5,316.5 Z"/></g>
<g><path style="opacity:0.333" fill="#f41601" d="M 1148.5,300.5 C 1149.68,300.281 1150.68,300.614 1151.5,301.5C 1152.97,305.602 1155.3,309.102 1158.5,312C 1164.52,316.345 1171.19,319.345 1178.5,321C 1192.55,323.759 1204.71,320.259 1215,310.5C 1215.38,311.056 1215.88,311.389 1216.5,311.5C 1205.71,322.196 1192.71,326.029 1177.5,323C 1163.8,320.447 1154.14,312.947 1148.5,300.5 Z"/></g>
<g><path style="opacity:0.733" fill="#f91201" d="M 193.5,339.5 C 188.532,334.362 183.699,329.029 179,323.5C 178.5,349.831 178.333,376.165 178.5,402.5C 177.336,375.003 177.17,347.336 178,319.5C 183.5,325.667 189,331.833 194.5,338C 193.944,338.383 193.611,338.883 193.5,339.5 Z"/></g>
<g><path style="opacity:0.533" fill="#f51801" d="M 905.5,322.5 C 910.558,323.406 915.225,325.072 919.5,327.5C 919.631,328.376 919.298,329.043 918.5,329.5C 914.289,326.56 909.623,325.06 904.5,325C 905.252,324.329 905.586,323.496 905.5,322.5 Z"/></g>
<g><path style="opacity:0.608" fill="#f41902" d="M 748.5,350.5 C 742.14,341.458 736.14,332.125 730.5,322.5C 731.397,321.402 732.23,321.402 733,322.5C 737.855,331.541 743.355,340.208 749.5,348.5C 749.137,349.183 748.804,349.85 748.5,350.5 Z"/></g>
<g><path style="opacity:0.929" fill="#f41500" d="M 499.5,340.5 C 493.09,326.453 482.09,318.453 466.5,316.5C 466.369,315.624 466.702,314.957 467.5,314.5C 481.711,316.883 492.544,324.216 500,336.5C 500.579,337.928 500.412,339.262 499.5,340.5 Z"/></g>
<g><path style="opacity:0.608" fill="#f41802" d="M 1102.5,318.5 C 1092.19,330.781 1081.19,342.448 1069.5,353.5C 1068.96,353.44 1068.62,353.107 1068.5,352.5C 1079.81,340.604 1090.98,328.604 1102,316.5C 1102.46,317.094 1102.63,317.761 1102.5,318.5 Z"/></g>
<g><path style="opacity:0.698" fill="#f51802" d="M 723.5,327.5 C 716.51,336.155 709.177,344.489 701.5,352.5C 701.389,351.883 701.056,351.383 700.5,351C 707.264,342.813 714.264,334.813 721.5,327C 722.437,326.308 723.103,326.475 723.5,327.5 Z"/></g>
<g><path style="opacity:0.157" fill="#f41b03" d="M 564.5,333.5 C 555.501,344.002 546.668,354.668 538,365.5C 537.329,366.252 536.496,366.586 535.5,366.5C 534.957,366.44 534.624,366.107 534.5,365.5C 544.365,355.134 553.698,344.301 562.5,333C 563.437,332.308 564.103,332.475 564.5,333.5 Z"/></g>
<g><path style="opacity:0.824" fill="#f31602" d="M 854.5,374.5 C 853.674,370.018 853.174,365.351 853,360.5C 848.928,365.345 844.428,369.678 839.5,373.5C 839.062,373.565 838.728,373.399 838.5,373C 843.318,367.681 848.318,362.515 853.5,357.5C 854.192,358.025 854.692,358.692 855,359.5C 855.816,364.684 855.65,369.684 854.5,374.5 Z"/></g>
<g><path style="opacity:0.325" fill="#f41802" d="M 681.5,373.5 C 675.637,381.216 669.304,388.549 662.5,395.5C 661.475,395.103 661.308,394.437 662,393.5C 668.362,386.474 674.695,379.474 681,372.5C 681.399,372.728 681.565,373.062 681.5,373.5 Z"/></g>
<g><path style="opacity:0.726" fill="#f41902" d="M 833.5,379.5 C 833.013,380.473 832.513,381.473 832,382.5C 824.019,390.648 815.852,398.648 807.5,406.5C 806.475,406.103 806.308,405.437 807,404.5C 815.64,395.86 824.306,387.194 833,378.5C 833.399,378.728 833.565,379.062 833.5,379.5 Z"/></g>
<g><path style="opacity:0.451" fill="#f51802" d="M 1095.5,416.5 C 1084.8,411.96 1075.14,405.96 1066.5,398.5C 1067.12,398.389 1067.62,398.056 1068,397.5C 1076.36,404.428 1085.53,409.928 1095.5,414C 1096.6,414.77 1096.6,415.603 1095.5,416.5 Z"/></g>
<g><path style="opacity:0.495" fill="#f51902" d="M 866.5,405.5 C 867.552,405.351 868.552,405.517 869.5,406C 874.139,411.314 879.805,414.981 886.5,417C 885.584,417.278 884.918,417.778 884.5,418.5C 877.38,415.713 871.38,411.38 866.5,405.5 Z"/></g>
<g><path style="opacity:0.376" fill="#f61702" d="M 805.5,409.5 C 802.367,412.469 799.367,415.635 796.5,419C 794.443,421.081 792.777,420.914 791.5,418.5C 796.083,415.921 800.083,412.588 803.5,408.5C 804.183,408.863 804.85,409.196 805.5,409.5 Z"/></g>
<g><path style="opacity:0.811" fill="#f41500" d="M 953.5,391.5 C 940.217,408.982 922.55,418.982 900.5,421.5C 895.294,420.859 890.294,419.859 885.5,418.5C 893.424,418.434 901.424,418.268 909.5,418C 926.342,413.505 940.342,404.505 951.5,391C 952.437,390.308 953.103,390.475 953.5,391.5 Z"/></g>
<g><path style="opacity:0.799" fill="#f20900" d="M 451.5,423.5 C 443.876,424.398 436.209,424.731 428.5,424.5C 428.082,423.778 427.416,423.278 426.5,423C 435.552,422.581 444.552,422.248 453.5,422C 452.584,422.278 451.918,422.778 451.5,423.5 Z"/></g>
<g><path style="opacity:0.839" fill="#f20e00" d="M 1152.5,423.5 C 1143.82,424.803 1135.15,424.803 1126.5,423.5C 1125.74,422.732 1124.74,422.232 1123.5,422C 1124.17,421.833 1124.83,421.667 1125.5,421.5C 1134.83,422.833 1144.17,422.833 1153.5,421.5C 1154.17,421.667 1154.83,421.833 1155.5,422C 1154.26,422.232 1153.26,422.732 1152.5,423.5 Z"/></g>
<g><path style="opacity:0.535" fill="#f51a02" d="M 130.5,427.5 C 118.482,433.198 106.482,438.865 94.5,444.5C 94.0825,443.778 93.4158,443.278 92.5,443C 104.573,437.872 116.406,432.372 128,426.5C 128.902,426.743 129.735,427.077 130.5,427.5 Z"/></g>
<g><path style="opacity:0.335" fill="#f41701" d="M 91.5,445.5 C 83.7864,449.832 75.7864,453.832 67.5,457.5C 67.5106,455.983 68.1772,454.816 69.5,454C 76.1637,450.446 82.997,447.28 90,444.5C 90.7648,444.57 91.2648,444.903 91.5,445.5 Z"/></g>
</svg>
