<?xml version="1.0" encoding="UTF-8"?>
<!DOCTYPE svg PUBLIC "-//W3C//DTD SVG 1.1//EN" "http://www.w3.org/Graphics/SVG/1.1/DTD/svg11.dtd">
<svg xmlns="http://www.w3.org/2000/svg" version="1.1" width="2654px" height="1327px" style="shape-rendering:geometricPrecision; text-rendering:geometricPrecision; image-rendering:optimizeQuality; fill-rule:evenodd; clip-rule:evenodd" xmlns:xlink="http://www.w3.org/1999/xlink">
<g><path style="opacity:0.997" fill="#003e96" d="M 151.5,313.5 C 285.521,313.015 419.521,313.515 553.5,315C 603.962,324.462 639.462,352.628 660,399.5C 664.888,411.72 667.888,424.386 669,437.5C 669.667,569.167 669.667,700.833 669,832.5C 662.239,884.908 635.072,922.408 587.5,945C 571.532,951.825 554.865,955.492 537.5,956C 411.167,956.667 284.833,956.667 158.5,956C 101.425,951.4 60.9254,923.234 37,871.5C 32.5897,860.192 29.5897,848.525 28,836.5C 27.0116,699.808 27.345,563.141 29,426.5C 40.3317,372.499 72.1651,336.666 124.5,319C 133.551,316.719 142.551,314.885 151.5,313.5 Z"/></g>
<g><path style="opacity:0.985" fill="#fe020a" d="M 1284.5,445.5 C 1307.01,444.545 1329.34,446.045 1351.5,450C 1399.12,459.953 1427.62,488.786 1437,536.5C 1438.63,544.422 1439.47,552.422 1439.5,560.5C 1424.16,560.667 1408.83,560.5 1393.5,560C 1383.11,559.057 1374.61,554.557 1368,546.5C 1356.24,522.852 1337.07,510.019 1310.5,508C 1291.57,505.703 1273.57,508.703 1256.5,517C 1239.16,530.008 1234.66,546.508 1243,566.5C 1248.64,574.479 1255.81,580.645 1264.5,585C 1271.61,588.553 1278.94,591.553 1286.5,594C 1325.41,602.978 1363.75,613.978 1401.5,627C 1432.02,638.879 1449.52,661.046 1454,693.5C 1458.12,725.334 1451.12,754.334 1433,780.5C 1415.76,800.025 1394.26,812.525 1368.5,818C 1332.29,825.601 1295.96,826.267 1259.5,820C 1194.45,807.788 1161.45,768.621 1160.5,702.5C 1184.84,702.333 1209.17,702.5 1233.5,703C 1237.08,737.243 1256.08,756.243 1290.5,760C 1309,762.167 1327.33,761.167 1345.5,757C 1372.24,749.254 1382.74,731.754 1377,704.5C 1370.67,691.857 1360.51,684.024 1346.5,681C 1313.08,671.978 1279.74,662.644 1246.5,653C 1167.68,624.167 1146.18,571.667 1182,495.5C 1198.21,471.992 1220.37,457.158 1248.5,451C 1260.55,448.498 1272.55,446.665 1284.5,445.5 Z"/></g>
<g><path style="opacity:0.986" fill="#fe020a" d="M 1608.5,445.5 C 1638.94,443.157 1668.27,447.657 1696.5,459C 1726.84,474.704 1745,499.538 1751,533.5C 1760.29,577.857 1748.79,615.691 1716.5,647C 1681.63,677.097 1644.96,704.764 1606.5,730C 1599.19,736.308 1593.86,743.975 1590.5,753C 1643.83,753.5 1697.17,753.667 1750.5,753.5C 1750.5,775.167 1750.5,796.833 1750.5,818.5C 1662.17,818.5 1573.83,818.5 1485.5,818.5C 1487.17,758.653 1511.51,710.486 1558.5,674C 1592.28,652.219 1624.95,628.885 1656.5,604C 1673.38,587.334 1679.88,567.167 1676,543.5C 1671.76,522.929 1659.26,510.762 1638.5,507C 1620.13,502.809 1603.13,505.809 1587.5,516C 1576.97,525.556 1570.47,537.39 1568,551.5C 1565.99,561.734 1565.15,572.067 1565.5,582.5C 1549.83,582.667 1534.16,582.5 1518.5,582C 1505.81,581.31 1497.98,574.81 1495,562.5C 1493.99,525.163 1507.49,494.33 1535.5,470C 1557.64,455.119 1581.98,446.952 1608.5,445.5 Z"/></g>
<g><path style="opacity:0.99" fill="#fe020a" d="M 849.5,451.5 C 904.168,451.333 958.834,451.5 1013.5,452C 1039.79,452.651 1063.45,460.651 1084.5,476C 1101.88,493.102 1111.38,513.935 1113,538.5C 1115.42,560.069 1113.08,581.069 1106,601.5C 1097.26,621.909 1082.43,635.742 1061.5,643C 1083.39,650.636 1096.56,665.803 1101,688.5C 1102.32,694.782 1103.32,701.115 1104,707.5C 1105.82,737.823 1107.48,768.156 1109,798.5C 1110.29,806.464 1114.12,812.964 1120.5,818C 1092.49,818.833 1064.49,818.667 1036.5,817.5C 1032.77,809.25 1030.6,800.584 1030,791.5C 1028.75,769.514 1027.75,747.514 1027,725.5C 1026.5,713.482 1023.5,702.149 1018,691.5C 1009.4,681.848 998.565,677.015 985.5,677C 955.168,676.5 924.835,676.333 894.5,676.5C 894.5,723.833 894.5,771.167 894.5,818.5C 869.167,818.5 843.833,818.5 818.5,818.5C 818.333,706.5 818.5,594.5 819,482.5C 823.349,466.319 833.516,455.985 849.5,451.5 Z M 894.5,515.5 C 925.835,515.333 957.168,515.5 988.5,516C 1025.72,517.866 1041.55,537.366 1036,574.5C 1034.25,589.199 1026.75,599.699 1013.5,606C 1006.43,608.814 999.096,610.481 991.5,611C 959.168,611.5 926.835,611.667 894.5,611.5C 894.5,579.5 894.5,547.5 894.5,515.5 Z"/></g>
<g><path style="opacity:0.986" fill="#fe020a" d="M 1926.5,451.5 C 1948.17,451.333 1969.84,451.5 1991.5,452C 2008.78,454.283 2018.28,464.116 2020,481.5C 2020.5,546.166 2020.67,610.832 2020.5,675.5C 2035.17,675.5 2049.83,675.5 2064.5,675.5C 2064.5,696.167 2064.5,716.833 2064.5,737.5C 2049.83,737.5 2035.17,737.5 2020.5,737.5C 2020.5,764.5 2020.5,791.5 2020.5,818.5C 1995.83,818.5 1971.17,818.5 1946.5,818.5C 1946.5,791.5 1946.5,764.5 1946.5,737.5C 1893.5,737.5 1840.5,737.5 1787.5,737.5C 1787.33,715.164 1787.5,692.831 1788,670.5C 1834.18,597.472 1880.34,524.472 1926.5,451.5 Z M 1946.5,520.5 C 1947.5,572.664 1947.83,624.997 1947.5,677.5C 1914.49,677.833 1881.49,677.5 1848.5,676.5C 1881.18,624.472 1913.84,572.472 1946.5,520.5 Z"/></g>
<g><path style="opacity:1" fill="#fe0e17" d="M 379.5,484.5 C 419.282,483.181 458.282,488.014 496.5,499C 525.771,508.042 550.937,523.542 572,545.5C 599.84,582.625 601.84,621.292 578,661.5C 558.216,691.287 532.716,714.787 501.5,732C 414.149,779.669 321.483,794.669 223.5,777C 193.851,770.67 166.851,758.67 142.5,741C 99.2851,703.867 91.1184,660.034 118,609.5C 133.078,585.755 152.245,565.921 175.5,550C 237.607,509.97 305.607,488.137 379.5,484.5 Z"/></g>
<g><path style="opacity:1" fill="#fefefe" d="M 356.5,499.5 C 402.744,495.98 446.411,504.813 487.5,526C 545.558,562.508 559.058,611.342 528,672.5C 503.386,707.909 470.886,733.409 430.5,749C 372.07,772.341 312.403,776.341 251.5,761C 220.379,752.539 194.213,736.372 173,712.5C 146.279,675.701 144.612,637.701 168,598.5C 180.745,578.421 196.912,561.588 216.5,548C 258.988,519.782 305.654,503.615 356.5,499.5 Z"/></g>
<g><path style="opacity:0.984" fill="#003e97" d="M 2330.5,532.5 C 2338.17,532.5 2345.83,532.5 2353.5,532.5C 2353.5,557.833 2353.5,583.167 2353.5,608.5C 2340.83,608.333 2328.16,608.5 2315.5,609C 2288.37,613.8 2273.2,629.967 2270,657.5C 2269.5,711.166 2269.33,764.832 2269.5,818.5C 2244.83,818.5 2220.17,818.5 2195.5,818.5C 2195.33,765.832 2195.5,713.166 2196,660.5C 2199.44,588.406 2236.61,546.573 2307.5,535C 2315.33,534.256 2322.99,533.423 2330.5,532.5 Z"/></g>
<g><path style="opacity:0.985" fill="#003e97" d="M 2385.5,532.5 C 2409.83,532.5 2434.17,532.5 2458.5,532.5C 2458.02,599.865 2458.52,667.198 2460,734.5C 2463.72,749.891 2473.22,759.724 2488.5,764C 2500.17,766 2511.83,766 2523.5,764C 2539.74,760.089 2549.58,749.922 2553,733.5C 2554.31,674.861 2554.97,616.194 2555,557.5C 2557.31,545.19 2564.48,537.356 2576.5,534C 2593.13,532.609 2609.79,532.109 2626.5,532.5C 2626.67,595.168 2626.5,657.834 2626,720.5C 2625.74,746.952 2617.74,770.619 2602,791.5C 2588.16,803.507 2572.32,812.007 2554.5,817C 2513.16,829.153 2473.16,825.82 2434.5,807C 2417.33,799.167 2404.83,786.667 2397,769.5C 2390.14,752.859 2386.47,735.526 2386,717.5C 2385.5,655.834 2385.33,594.168 2385.5,532.5 Z"/></g>
<g><path style="opacity:1" fill="#ff1118" d="M 395.5,538.5 C 423.626,539.647 446.46,551.314 464,573.5C 473.336,590.794 472.336,607.46 461,623.5C 442.426,643.035 419.593,653.868 392.5,656C 382.5,656.667 372.5,656.667 362.5,656C 366.019,655.605 369.352,654.605 372.5,653C 377.167,646 381.833,639 386.5,632C 394.66,626.086 402.993,620.419 411.5,615C 429.068,599.562 434.234,580.729 427,558.5C 419.526,547.174 409.026,540.507 395.5,538.5 Z"/></g>
<g><path style="opacity:1" fill="#044295" d="M 345.5,546.5 C 346.552,546.351 347.552,546.517 348.5,547C 342.555,554.484 338.722,562.984 337,572.5C 337.063,585.832 337.063,599.165 337,612.5C 335.303,620.483 333.803,628.483 332.5,636.5C 332.759,643.78 335.092,650.28 339.5,656C 332.138,673.753 324.971,691.587 318,709.5C 294.575,710.494 271.075,710.827 247.5,710.5C 263.09,666.647 279.257,622.98 296,579.5C 303.371,568.127 313.205,559.627 325.5,554C 332.16,551.173 338.827,548.673 345.5,546.5 Z"/></g>
<g><path style="opacity:0.984" fill="#003e97" d="M 2111.5,761.5 C 2127.17,761.5 2142.83,761.5 2158.5,761.5C 2158.5,780.5 2158.5,799.5 2158.5,818.5C 2137.83,818.5 2117.17,818.5 2096.5,818.5C 2096.13,803.793 2096.63,789.127 2098,774.5C 2100.42,767.915 2104.92,763.582 2111.5,761.5 Z"/></g>
<g><path style="opacity:0.904" fill="#003e97" d="M 904.5,879.5 C 910.842,879.334 917.175,879.5 923.5,880C 933.78,882.446 939.113,888.946 939.5,899.5C 939.698,905.047 938.198,910.047 935,914.5C 925.625,922.877 915.958,930.877 906,938.5C 901.565,943.703 899.065,949.703 898.5,956.5C 912.833,956.5 927.167,956.5 941.5,956.5C 941.5,959.167 941.5,961.833 941.5,964.5C 923.5,964.5 905.5,964.5 887.5,964.5C 886.099,949.134 891.433,936.634 903.5,927C 912.955,921.212 920.788,913.712 927,904.5C 929.166,897.001 926.666,891.834 919.5,889C 915.167,888.333 910.833,888.333 906.5,889C 902.677,890.641 900.677,893.474 900.5,897.5C 896.833,897.5 893.167,897.5 889.5,897.5C 889.278,891.995 891.278,887.495 895.5,884C 898.592,882.454 901.592,880.954 904.5,879.5 Z"/></g>
<g><path style="opacity:0.903" fill="#003e97" d="M 815.5,881.5 C 828.504,881.333 841.504,881.5 854.5,882C 866.458,885.337 870.958,893.17 868,905.5C 865.987,912.181 861.82,917.014 855.5,920C 871.973,927.415 876.139,939.248 868,955.5C 864.361,959.734 859.861,962.568 854.5,964C 841.504,964.5 828.504,964.667 815.5,964.5C 815.5,936.833 815.5,909.167 815.5,881.5 Z M 827.5,890.5 C 835.585,890.099 843.585,890.599 851.5,892C 857.626,896.391 858.792,901.891 855,908.5C 853.5,911.333 851.333,913.5 848.5,915C 841.603,916.6 834.603,917.433 827.5,917.5C 827.5,908.5 827.5,899.5 827.5,890.5 Z M 827.5,926.5 C 835.685,925.897 843.685,926.731 851.5,929C 862.043,936.753 862.71,945.087 853.5,954C 844.954,955.92 836.287,956.754 827.5,956.5C 827.5,946.5 827.5,936.5 827.5,926.5 Z"/></g>
<g><path style="opacity:0.903" fill="#003e97" d="M 958.5,881.5 C 971.504,881.333 984.504,881.5 997.5,882C 1009.46,885.337 1013.96,893.17 1011,905.5C 1008.99,912.181 1004.82,917.014 998.5,920C 1014.97,927.415 1019.14,939.248 1011,955.5C 1007.36,959.734 1002.86,962.568 997.5,964C 984.504,964.5 971.504,964.667 958.5,964.5C 958.5,936.833 958.5,909.167 958.5,881.5 Z M 970.5,890.5 C 978.585,890.099 986.585,890.599 994.5,892C 1000.63,896.391 1001.79,901.891 998,908.5C 996.5,911.333 994.333,913.5 991.5,915C 984.603,916.6 977.603,917.433 970.5,917.5C 970.5,908.5 970.5,899.5 970.5,890.5 Z M 970.5,926.5 C 978.685,925.897 986.685,926.731 994.5,929C 1005.04,936.753 1005.71,945.087 996.5,954C 987.954,955.92 979.287,956.754 970.5,956.5C 970.5,946.5 970.5,936.5 970.5,926.5 Z"/></g>
<g><path style="opacity:0.892" fill="#003e97" d="M 1226.5,903.5 C 1250.36,900.534 1262.7,911.034 1263.5,935C 1263.84,954.651 1254.34,965.484 1235,967.5C 1220.89,966.386 1211.89,959.052 1208,945.5C 1205.05,932.453 1207.55,920.62 1215.5,910C 1218.93,907.289 1222.6,905.123 1226.5,903.5 Z M 1229.5,912.5 C 1242.58,910.746 1250.08,916.413 1252,929.5C 1253.33,937.848 1251.66,945.515 1247,952.5C 1233.26,961.842 1223.93,958.509 1219,942.5C 1216.29,930.108 1219.79,920.108 1229.5,912.5 Z"/></g>
<g><path style="opacity:0.886" fill="#003e97" d="M 1298.5,903.5 C 1314.94,900.795 1325.11,907.462 1329,923.5C 1332.42,937.812 1329.59,950.646 1320.5,962C 1310.74,968.438 1301.08,968.605 1291.5,962.5C 1289.81,960.641 1288.31,958.641 1287,956.5C 1286.5,966.828 1286.33,977.161 1286.5,987.5C 1282.83,987.5 1279.17,987.5 1275.5,987.5C 1275.5,959.833 1275.5,932.167 1275.5,904.5C 1279.17,904.5 1282.83,904.5 1286.5,904.5C 1286.34,907.518 1286.5,910.518 1287,913.5C 1289.82,908.839 1293.65,905.505 1298.5,903.5 Z M 1298.5,912.5 C 1308.87,911.038 1315.37,915.371 1318,925.5C 1320.09,934.515 1319.09,943.181 1315,951.5C 1309.66,957.632 1303.16,959.132 1295.5,956C 1287.52,947.639 1285.02,937.805 1288,926.5C 1289.36,920.07 1292.86,915.403 1298.5,912.5 Z"/></g>
<g><path style="opacity:0.884" fill="#003e97" d="M 1411.5,903.5 C 1420.02,902.885 1428.35,903.718 1436.5,906C 1439.87,908.365 1442.04,911.532 1443,915.5C 1443.33,928.833 1443.67,942.167 1444,955.5C 1444.5,958.513 1445,961.513 1445.5,964.5C 1441.82,964.665 1438.15,964.499 1434.5,964C 1433.75,961.825 1432.91,959.659 1432,957.5C 1420.64,968.246 1409.31,968.579 1398,958.5C 1393.77,949.242 1395.61,941.408 1403.5,935C 1412.46,930.927 1421.79,928.094 1431.5,926.5C 1434.07,920.003 1432.4,915.17 1426.5,912C 1419.72,910.296 1413.88,911.796 1409,916.5C 1408.51,918.134 1408.34,919.801 1408.5,921.5C 1404.5,921.5 1400.5,921.5 1396.5,921.5C 1397.85,912.479 1402.85,906.479 1411.5,903.5 Z M 1429.5,935.5 C 1430.5,935.5 1431.5,935.5 1432.5,935.5C 1433.78,950.383 1427.11,957.549 1412.5,957C 1407.57,954.335 1406.4,950.502 1409,945.5C 1411.56,942.469 1414.73,940.302 1418.5,939C 1422.37,938.096 1426.04,936.93 1429.5,935.5 Z"/></g>
<g><path style="opacity:0.879" fill="#003e97" d="M 1571.5,903.5 C 1595.31,900.477 1607.65,910.977 1608.5,935C 1605.92,963.615 1591.25,972.948 1564.5,963C 1560.16,959.506 1557.83,955.006 1557.5,949.5C 1561.17,949.5 1564.83,949.5 1568.5,949.5C 1568.54,953.09 1570.21,955.59 1573.5,957C 1587.67,959.654 1595.34,953.82 1596.5,939.5C 1588.83,939.5 1581.17,939.5 1573.5,939.5C 1573.5,936.5 1573.5,933.5 1573.5,930.5C 1581.17,930.5 1588.83,930.5 1596.5,930.5C 1595.31,916.146 1587.65,910.313 1573.5,913C 1569.51,914.484 1567.85,917.317 1568.5,921.5C 1564.83,921.5 1561.17,921.5 1557.5,921.5C 1558.04,912.29 1562.71,906.29 1571.5,903.5 Z"/></g>
<g><path style="opacity:0.888" fill="#003e97" d="M 1702.5,903.5 C 1707.84,903.334 1713.18,903.501 1718.5,904C 1726.41,906.242 1731.24,911.409 1733,919.5C 1734.24,925.435 1734.74,931.435 1734.5,937.5C 1720.5,937.5 1706.5,937.5 1692.5,937.5C 1693.75,953.12 1702.08,959.62 1717.5,957C 1720.36,955.636 1722.36,953.47 1723.5,950.5C 1727.11,949.511 1730.77,949.177 1734.5,949.5C 1734.03,955.27 1731.36,959.77 1726.5,963C 1714.01,968.985 1702.01,967.985 1690.5,960C 1679.23,944.537 1678.73,928.704 1689,912.5C 1692.86,908.335 1697.36,905.335 1702.5,903.5 Z M 1704.5,912.5 C 1717.3,910.962 1723.96,916.629 1724.5,929.5C 1714.17,929.5 1703.83,929.5 1693.5,929.5C 1694.42,921.992 1698.08,916.325 1704.5,912.5 Z"/></g>
<g><path style="opacity:0.886" fill="#003e97" d="M 1884.5,903.5 C 1900.94,900.795 1911.11,907.462 1915,923.5C 1918.42,937.812 1915.59,950.646 1906.5,962C 1896.74,968.438 1887.08,968.605 1877.5,962.5C 1875.81,960.641 1874.31,958.641 1873,956.5C 1872.5,966.828 1872.33,977.161 1872.5,987.5C 1868.83,987.5 1865.17,987.5 1861.5,987.5C 1861.5,959.833 1861.5,932.167 1861.5,904.5C 1865.17,904.5 1868.83,904.5 1872.5,904.5C 1872.34,907.518 1872.5,910.518 1873,913.5C 1875.82,908.839 1879.65,905.505 1884.5,903.5 Z M 1884.5,912.5 C 1894.87,911.038 1901.37,915.371 1904,925.5C 1906.09,934.515 1905.09,943.181 1901,951.5C 1895.66,957.632 1889.16,959.132 1881.5,956C 1873.52,947.639 1871.02,937.805 1874,926.5C 1875.36,920.07 1878.86,915.403 1884.5,912.5 Z"/></g>
<g><path style="opacity:0.892" fill="#003e97" d="M 1946.5,903.5 C 1970.36,900.534 1982.7,911.034 1983.5,935C 1983.84,954.651 1974.34,965.484 1955,967.5C 1940.89,966.386 1931.89,959.052 1928,945.5C 1925.05,932.453 1927.55,920.62 1935.5,910C 1938.93,907.289 1942.6,905.123 1946.5,903.5 Z M 1949.5,912.5 C 1962.58,910.746 1970.08,916.413 1972,929.5C 1973.33,937.848 1971.66,945.515 1967,952.5C 1953.26,961.842 1943.93,958.509 1939,942.5C 1936.29,930.108 1939.79,920.108 1949.5,912.5 Z"/></g>
<g><path style="opacity:0.888" fill="#003e97" d="M 2069.5,903.5 C 2074.84,903.334 2080.18,903.501 2085.5,904C 2093.41,906.242 2098.24,911.409 2100,919.5C 2101.24,925.435 2101.74,931.435 2101.5,937.5C 2087.5,937.5 2073.5,937.5 2059.5,937.5C 2060.75,953.12 2069.08,959.62 2084.5,957C 2087.36,955.636 2089.36,953.47 2090.5,950.5C 2094.11,949.511 2097.77,949.177 2101.5,949.5C 2099.86,957.974 2094.86,963.474 2086.5,966C 2062.91,969.378 2050.24,959.212 2048.5,935.5C 2048.57,919.959 2055.57,909.292 2069.5,903.5 Z M 2071.5,912.5 C 2084.3,910.962 2090.96,916.629 2091.5,929.5C 2081.17,929.5 2070.83,929.5 2060.5,929.5C 2061.42,921.992 2065.08,916.325 2071.5,912.5 Z"/></g>
<g><path style="opacity:0.899" fill="#003e97" d="M 1145.5,905.5 C 1161.83,905.5 1178.17,905.5 1194.5,905.5C 1194.5,925.5 1194.5,945.5 1194.5,965.5C 1190.83,965.5 1187.17,965.5 1183.5,965.5C 1183.5,948.5 1183.5,931.5 1183.5,914.5C 1174.5,914.5 1165.5,914.5 1156.5,914.5C 1156.5,931.5 1156.5,948.5 1156.5,965.5C 1152.83,965.5 1149.17,965.5 1145.5,965.5C 1145.5,945.5 1145.5,925.5 1145.5,905.5 Z"/></g>
<g><path style="opacity:0.893" fill="#003e97" d="M 1336.5,905.5 C 1354.17,905.5 1371.83,905.5 1389.5,905.5C 1389.5,908.5 1389.5,911.5 1389.5,914.5C 1382.5,914.5 1375.5,914.5 1368.5,914.5C 1368.5,931.5 1368.5,948.5 1368.5,965.5C 1364.83,965.5 1361.17,965.5 1357.5,965.5C 1357.5,948.5 1357.5,931.5 1357.5,914.5C 1350.5,914.5 1343.5,914.5 1336.5,914.5C 1336.5,911.5 1336.5,908.5 1336.5,905.5 Z"/></g>
<g><path style="opacity:0.918" fill="#003e97" d="M 1466.5,905.5 C 1480.17,905.5 1493.83,905.5 1507.5,905.5C 1507.5,925.167 1507.5,944.833 1507.5,964.5C 1503.83,964.5 1500.17,964.5 1496.5,964.5C 1496.5,947.833 1496.5,931.167 1496.5,914.5C 1489.83,914.5 1483.17,914.5 1476.5,914.5C 1476.92,927.894 1476.42,941.227 1475,954.5C 1472.13,962.438 1466.46,966.438 1458,966.5C 1455.96,965.577 1453.79,965.244 1451.5,965.5C 1451.5,962.5 1451.5,959.5 1451.5,956.5C 1454.85,956.665 1458.18,956.498 1461.5,956C 1463.05,954.786 1464.22,953.286 1465,951.5C 1466.36,936.203 1466.86,920.869 1466.5,905.5 Z"/></g>
<g><path style="opacity:0.918" fill="#003e97" d="M 1628.5,905.5 C 1642.17,905.5 1655.83,905.5 1669.5,905.5C 1669.5,925.167 1669.5,944.833 1669.5,964.5C 1665.83,964.5 1662.17,964.5 1658.5,964.5C 1658.5,947.833 1658.5,931.167 1658.5,914.5C 1651.83,914.5 1645.17,914.5 1638.5,914.5C 1638.92,927.894 1638.42,941.227 1637,954.5C 1634.13,962.438 1628.46,966.438 1620,966.5C 1617.96,965.577 1615.79,965.244 1613.5,965.5C 1613.5,962.5 1613.5,959.5 1613.5,956.5C 1616.85,956.665 1620.18,956.498 1623.5,956C 1625.05,954.786 1626.22,953.286 1627,951.5C 1628.36,936.203 1628.86,920.869 1628.5,905.5 Z"/></g>
<g><path style="opacity:0.872" fill="#003e97" d="M 1748.5,905.5 C 1752.17,905.5 1755.83,905.5 1759.5,905.5C 1759.33,914.506 1759.5,923.506 1760,932.5C 1768.17,923.667 1776.33,914.833 1784.5,906C 1788.83,905.333 1793.17,905.333 1797.5,906C 1788.98,915.017 1780.65,924.184 1772.5,933.5C 1781.26,944.02 1790.26,954.354 1799.5,964.5C 1794.83,965.833 1790.17,965.833 1785.5,964.5C 1777.18,955.017 1768.68,945.684 1760,936.5C 1759.5,946.161 1759.33,955.828 1759.5,965.5C 1755.83,965.5 1752.17,965.5 1748.5,965.5C 1748.5,945.5 1748.5,925.5 1748.5,905.5 Z"/></g>
<g><path style="opacity:0.893" fill="#003e97" d="M 1801.5,905.5 C 1819.17,905.5 1836.83,905.5 1854.5,905.5C 1854.5,908.5 1854.5,911.5 1854.5,914.5C 1847.5,914.5 1840.5,914.5 1833.5,914.5C 1833.5,931.5 1833.5,948.5 1833.5,965.5C 1829.83,965.5 1826.17,965.5 1822.5,965.5C 1822.5,948.5 1822.5,931.5 1822.5,914.5C 1815.5,914.5 1808.5,914.5 1801.5,914.5C 1801.5,911.5 1801.5,908.5 1801.5,905.5 Z"/></g>
<g><path style="opacity:0.893" fill="#003e97" d="M 1989.5,905.5 C 2007.17,905.5 2024.83,905.5 2042.5,905.5C 2042.5,908.5 2042.5,911.5 2042.5,914.5C 2035.5,914.5 2028.5,914.5 2021.5,914.5C 2021.5,931.5 2021.5,948.5 2021.5,965.5C 2017.83,965.5 2014.17,965.5 2010.5,965.5C 2010.5,948.5 2010.5,931.5 2010.5,914.5C 2003.5,914.5 1996.5,914.5 1989.5,914.5C 1989.5,911.5 1989.5,908.5 1989.5,905.5 Z"/></g>
<g><path style="opacity:0.869" fill="#003e97" d="M 2111.5,905.5 C 2115.88,905.174 2120.22,905.508 2124.5,906.5C 2128.5,912.5 2132.5,918.5 2136.5,924.5C 2140.82,918.538 2145.15,912.538 2149.5,906.5C 2153.46,905.34 2157.46,905.173 2161.5,906C 2154.92,915.16 2148.59,924.494 2142.5,934C 2149.36,944.031 2156.03,954.198 2162.5,964.5C 2158.54,965.66 2154.54,965.827 2150.5,965C 2145.3,958.092 2140.46,950.926 2136,943.5C 2130.97,950.362 2126.14,957.362 2121.5,964.5C 2117.5,965.833 2113.5,965.833 2109.5,964.5C 2116.38,954.793 2123.04,944.96 2129.5,935C 2123.66,925.01 2117.66,915.177 2111.5,905.5 Z"/></g>
<g><path style="opacity:0.899" fill="#003e97" d="M 2173.5,905.5 C 2177.17,905.5 2180.83,905.5 2184.5,905.5C 2184.5,913.833 2184.5,922.167 2184.5,930.5C 2193.5,930.5 2202.5,930.5 2211.5,930.5C 2211.5,922.167 2211.5,913.833 2211.5,905.5C 2215.17,905.5 2218.83,905.5 2222.5,905.5C 2222.5,925.5 2222.5,945.5 2222.5,965.5C 2218.83,965.5 2215.17,965.5 2211.5,965.5C 2211.5,956.833 2211.5,948.167 2211.5,939.5C 2202.5,939.5 2193.5,939.5 2184.5,939.5C 2184.5,948.167 2184.5,956.833 2184.5,965.5C 2180.83,965.5 2177.17,965.5 2173.5,965.5C 2173.5,945.5 2173.5,925.5 2173.5,905.5 Z"/></g>
<g><path style="opacity:0.897" fill="#003e97" d="M 2237.5,905.5 C 2241.17,905.5 2244.83,905.5 2248.5,905.5C 2248.33,919.504 2248.5,933.504 2249,947.5C 2258,933.833 2267,920.167 2276,906.5C 2279.73,905.54 2283.56,905.207 2287.5,905.5C 2287.5,925.5 2287.5,945.5 2287.5,965.5C 2283.83,965.5 2280.17,965.5 2276.5,965.5C 2276.67,951.496 2276.5,937.496 2276,923.5C 2266.83,937.167 2257.67,950.833 2248.5,964.5C 2244.89,965.489 2241.23,965.823 2237.5,965.5C 2237.5,945.5 2237.5,925.5 2237.5,905.5 Z"/></g>
<g><path style="opacity:0.872" fill="#003e97" d="M 2302.5,905.5 C 2306.17,905.5 2309.83,905.5 2313.5,905.5C 2313.33,914.506 2313.5,923.506 2314,932.5C 2322.17,923.667 2330.33,914.833 2338.5,906C 2342.83,905.333 2347.17,905.333 2351.5,906C 2342.98,915.017 2334.65,924.184 2326.5,933.5C 2335.26,944.02 2344.26,954.354 2353.5,964.5C 2348.83,965.833 2344.17,965.833 2339.5,964.5C 2331.18,955.017 2322.68,945.684 2314,936.5C 2313.5,946.161 2313.33,955.828 2313.5,965.5C 2309.83,965.5 2306.17,965.5 2302.5,965.5C 2302.5,945.5 2302.5,925.5 2302.5,905.5 Z"/></g>
<g><path style="opacity:0.897" fill="#003e97" d="M 2362.5,905.5 C 2366.17,905.5 2369.83,905.5 2373.5,905.5C 2373.33,919.504 2373.5,933.504 2374,947.5C 2383,933.833 2392,920.167 2401,906.5C 2404.73,905.54 2408.56,905.207 2412.5,905.5C 2412.5,925.5 2412.5,945.5 2412.5,965.5C 2408.83,965.5 2405.17,965.5 2401.5,965.5C 2401.67,951.496 2401.5,937.496 2401,923.5C 2391.83,937.167 2382.67,950.833 2373.5,964.5C 2369.89,965.489 2366.23,965.823 2362.5,965.5C 2362.5,945.5 2362.5,925.5 2362.5,905.5 Z"/></g>
<g><path style="opacity:0.911" fill="#003e97" d="M 1062.5,925.5 C 1073.5,925.5 1084.5,925.5 1095.5,925.5C 1095.5,929.167 1095.5,932.833 1095.5,936.5C 1084.5,936.5 1073.5,936.5 1062.5,936.5C 1062.5,932.833 1062.5,929.167 1062.5,925.5 Z"/></g>
</svg>
