<?xml version="1.0" encoding="UTF-8"?>
<!DOCTYPE svg PUBLIC "-//W3C//DTD SVG 1.1//EN" "http://www.w3.org/Graphics/SVG/1.1/DTD/svg11.dtd">
<svg xmlns="http://www.w3.org/2000/svg" version="1.1" width="1330px" height="665px" style="shape-rendering:geometricPrecision; text-rendering:geometricPrecision; image-rendering:optimizeQuality; fill-rule:evenodd; clip-rule:evenodd" xmlns:xlink="http://www.w3.org/1999/xlink">
<g><path style="opacity:0.973" fill="#2c2b29" d="M 104.5,219.5 C 130.502,220.196 156.502,221.029 182.5,222C 199.878,220.103 212.378,226.936 220,242.5C 233,267.167 246,291.833 259,316.5C 264.882,325.388 271.882,333.388 280,340.5C 282,343.5 282,346.5 280,349.5C 277.441,352.531 274.274,354.698 270.5,356C 261.432,358.484 252.265,360.318 243,361.5C 239.231,384.133 235.731,406.8 232.5,429.5C 232.977,430.478 233.643,431.311 234.5,432C 236.871,432.735 239.205,433.568 241.5,434.5C 242.833,435.833 242.833,437.167 241.5,438.5C 225.555,445.806 209.888,453.639 194.5,462C 186.47,465.848 178.137,468.848 169.5,471C 166.5,471.667 163.5,471.667 160.5,471C 152.414,467.581 144.08,465.081 135.5,463.5C 135.941,472.276 135.441,480.942 134,489.5C 133.167,490.333 132.333,491.167 131.5,492C 124.086,492.89 116.753,492.557 109.5,491C 107.622,489.457 106.122,487.624 105,485.5C 105.915,473.72 104.915,462.053 102,450.5C 98.7025,447.433 94.8692,445.267 90.5,444C 79.2484,440.687 67.9151,437.687 56.5,435C 54.7139,434.804 53.3805,433.971 52.5,432.5C 54.8611,427.972 58.3611,424.639 63,422.5C 64.8821,410.266 65.7154,397.933 65.5,385.5C 70.9359,364.138 62.9359,352.305 41.5,350C 33.1667,349.667 24.8333,349.333 16.5,349C 14.354,348.521 13.354,347.188 13.5,345C 14.0783,341.094 15.5783,337.594 18,334.5C 26.3333,325.5 34.6667,316.5 43,307.5C 62.5749,280.692 80.9082,253.025 98,224.5C 99.8049,222.174 101.972,220.508 104.5,219.5 Z"/></g>
<g><path style="opacity:1" fill="#f4a508" d="M 108.5,227.5 C 122.503,228.389 136.503,229.389 150.5,230.5C 163.822,229.451 177.155,229.285 190.5,230C 194.287,230.16 197.954,230.826 201.5,232C 206.055,237.555 210.221,243.388 214,249.5C 226,272.167 238,294.833 250,317.5C 254.253,325.679 259.253,333.346 265,340.5C 265.711,342.367 265.211,343.867 263.5,345C 260.661,346.92 257.661,348.587 254.5,350C 251.525,350.044 248.525,349.877 245.5,349.5C 246.088,345.369 246.921,341.369 248,337.5C 231.234,306.97 215.234,275.97 200,244.5C 195.733,238.245 191.067,237.912 186,243.5C 181.279,249.221 176.946,255.221 173,261.5C 159.902,284.695 147.568,308.361 136,332.5C 133.227,337.604 130.06,342.437 126.5,347C 120.243,350.356 113.576,351.356 106.5,350C 84.5377,345.426 62.8711,339.76 41.5,333C 40.8333,332.333 40.1667,331.667 39.5,331C 58.6667,303.167 77.8333,275.333 97,247.5C 100.143,242.034 102.81,236.367 105,230.5C 106.145,229.364 107.312,228.364 108.5,227.5 Z"/></g>
<g><path style="opacity:0.898" fill="#2a2928" d="M 1259.5,230.5 C 1263.51,230.334 1267.51,230.501 1271.5,231C 1273.5,235.17 1276.84,237.003 1281.5,236.5C 1286.26,236.788 1289.92,234.954 1292.5,231C 1306.45,229.468 1307.78,233.802 1296.5,244C 1285.99,250.122 1275.66,249.788 1265.5,243C 1262.02,239.548 1260.02,235.381 1259.5,230.5 Z"/></g>
<g><path style="opacity:0.936" fill="#2a2928" d="M 426.5,254.5 C 447.626,253.059 462.626,261.892 471.5,281C 466.136,281.829 460.802,281.663 455.5,280.5C 445.216,267.016 432.549,264.183 417.5,272C 407.465,278.914 403.632,288.414 406,300.5C 411.753,316.964 423.253,323.464 440.5,320C 446.991,317.504 452.324,313.504 456.5,308C 461.533,307.171 466.533,307.338 471.5,308.5C 461.369,328.899 445.035,337.066 422.5,333C 400.516,326.338 390.349,311.504 392,288.5C 396.119,269.547 407.619,258.214 426.5,254.5 Z"/></g>
<g><path style="opacity:0.945" fill="#2a2928" d="M 568.5,254.5 C 591.937,253.128 607.437,263.461 615,285.5C 617.4,314.936 603.9,331.269 574.5,334.5C 564.488,334.242 555.988,330.575 549,323.5C 548.5,334.828 548.333,346.162 548.5,357.5C 544.167,357.5 539.833,357.5 535.5,357.5C 535.5,323.833 535.5,290.167 535.5,256.5C 539.833,256.5 544.167,256.5 548.5,256.5C 548.336,259.187 548.503,261.854 549,264.5C 554.681,259.41 561.181,256.077 568.5,254.5 Z M 570.5,267.5 C 589.124,267.127 599.791,276.127 602.5,294.5C 600.342,311.156 590.842,320.156 574,321.5C 553.687,317.215 545.687,304.882 550,284.5C 554.014,275.311 560.847,269.644 570.5,267.5 Z"/></g>
<g><path style="opacity:0.942" fill="#2a2928" d="M 659.5,254.5 C 683.807,253.332 699.307,264.332 706,287.5C 707.365,315.111 694.365,330.778 667,334.5C 642.386,332.386 628.886,319.052 626.5,294.5C 628.57,273.643 639.57,260.31 659.5,254.5 Z M 663.5,267.5 C 675.065,267.032 683.898,271.699 690,281.5C 696.002,296.487 692.502,308.654 679.5,318C 662.631,324.598 650.131,319.764 642,303.5C 638.2,284.745 645.367,272.745 663.5,267.5 Z"/></g>
<g><path style="opacity:0.948" fill="#2a2928" d="M 883.5,254.5 C 913.822,254.155 929.488,269.155 930.5,299.5C 908.497,299.333 886.497,299.5 864.5,300C 868.342,313.187 877.176,320.354 891,321.5C 902.046,320.735 910.212,315.568 915.5,306C 920.202,305.172 924.869,305.338 929.5,306.5C 920.076,327.882 903.742,336.715 880.5,333C 857.649,324.791 848.149,308.624 852,284.5C 856.888,268.442 867.388,258.442 883.5,254.5 Z M 886.5,267.5 C 900.276,266.953 909.943,272.953 915.5,285.5C 898.833,286.833 882.167,286.833 865.5,285.5C 869.506,275.816 876.506,269.816 886.5,267.5 Z"/></g>
<g><path style="opacity:0.937" fill="#2a2928" d="M 962.5,254.5 C 967.167,254.5 971.833,254.5 976.5,254.5C 985.51,280.515 994.51,306.515 1003.5,332.5C 998.786,332.827 994.12,332.493 989.5,331.5C 982.926,313.36 976.092,295.36 969,277.5C 962.598,295.538 956.098,313.538 949.5,331.5C 944.5,332.833 939.5,332.833 934.5,331.5C 944.238,305.951 953.571,280.284 962.5,254.5 Z"/></g>
<g><path style="opacity:0.908" fill="#2a2928" d="M 477.5,256.5 C 493.5,256.5 509.5,256.5 525.5,256.5C 525.5,260.5 525.5,264.5 525.5,268.5C 519.833,268.5 514.167,268.5 508.5,268.5C 508.5,289.833 508.5,311.167 508.5,332.5C 503.833,332.5 499.167,332.5 494.5,332.5C 494.5,311.167 494.5,289.833 494.5,268.5C 488.833,268.5 483.167,268.5 477.5,268.5C 477.5,264.5 477.5,260.5 477.5,256.5 Z"/></g>
<g><path style="opacity:0.952" fill="#2a2928" d="M 720.5,256.5 C 724.833,256.5 729.167,256.5 733.5,256.5C 733.333,274.836 733.5,293.17 734,311.5C 746.833,293.333 759.667,275.167 772.5,257C 776.821,256.501 781.154,256.334 785.5,256.5C 785.5,281.833 785.5,307.167 785.5,332.5C 781.167,332.5 776.833,332.5 772.5,332.5C 772.667,313.83 772.5,295.164 772,276.5C 759.58,295.007 746.913,313.341 734,331.5C 729.599,332.467 725.099,332.8 720.5,332.5C 720.5,307.167 720.5,281.833 720.5,256.5 Z"/></g>
<g><path style="opacity:0.956" fill="#2a2928" d="M 795.5,256.5 C 811.5,256.5 827.5,256.5 843.5,256.5C 843.5,260.5 843.5,264.5 843.5,268.5C 837.833,268.5 832.167,268.5 826.5,268.5C 826.5,289.833 826.5,311.167 826.5,332.5C 822.167,332.5 817.833,332.5 813.5,332.5C 813.5,311.167 813.5,289.833 813.5,268.5C 807.5,268.5 801.5,268.5 795.5,268.5C 795.5,264.5 795.5,260.5 795.5,256.5 Z"/></g>
<g><path style="opacity:0.924" fill="#2a2928" d="M 1010.5,256.5 C 1015.17,256.5 1019.83,256.5 1024.5,256.5C 1024.5,265.5 1024.5,274.5 1024.5,283.5C 1033.98,282.94 1043.32,283.773 1052.5,286C 1058.83,288.799 1062.66,293.632 1064,300.5C 1065.85,309.609 1064.18,317.942 1059,325.5C 1056.33,328.164 1053.16,329.998 1049.5,331C 1036.55,332.377 1023.55,332.877 1010.5,332.5C 1010.5,307.167 1010.5,281.833 1010.5,256.5 Z M 1024.5,295.5 C 1031.2,295.548 1037.86,296.048 1044.5,297C 1052.88,303.228 1053.54,310.228 1046.5,318C 1039.25,319.391 1031.92,319.891 1024.5,319.5C 1024.5,311.5 1024.5,303.5 1024.5,295.5 Z"/></g>
<g><path style="opacity:0.962" fill="#2a2928" d="M 1076.5,256.5 C 1080.83,256.5 1085.17,256.5 1089.5,256.5C 1089.5,266.833 1089.5,277.167 1089.5,287.5C 1102.5,287.5 1115.5,287.5 1128.5,287.5C 1128.5,277.167 1128.5,266.833 1128.5,256.5C 1132.83,256.5 1137.17,256.5 1141.5,256.5C 1141.5,281.833 1141.5,307.167 1141.5,332.5C 1137.17,332.5 1132.83,332.5 1128.5,332.5C 1128.5,321.5 1128.5,310.5 1128.5,299.5C 1115.5,299.5 1102.5,299.5 1089.5,299.5C 1089.5,310.5 1089.5,321.5 1089.5,332.5C 1085.17,332.5 1080.83,332.5 1076.5,332.5C 1076.5,307.167 1076.5,281.833 1076.5,256.5 Z"/></g>
<g><path style="opacity:0.946" fill="#2a2928" d="M 1157.5,256.5 C 1161.83,256.5 1166.17,256.5 1170.5,256.5C 1170.5,265.5 1170.5,274.5 1170.5,283.5C 1177.51,283.334 1184.51,283.5 1191.5,284C 1207.65,287.757 1214.15,297.923 1211,314.5C 1208.18,324.984 1201.35,330.818 1190.5,332C 1179.51,332.5 1168.51,332.667 1157.5,332.5C 1157.5,307.167 1157.5,281.833 1157.5,256.5 Z M 1170.5,295.5 C 1177.21,295.448 1183.87,295.948 1190.5,297C 1195.7,298.572 1198.04,302.072 1197.5,307.5C 1197.82,313.039 1195.49,316.872 1190.5,319C 1183.84,319.5 1177.17,319.666 1170.5,319.5C 1170.5,311.5 1170.5,303.5 1170.5,295.5 Z"/></g>
<g><path style="opacity:0.955" fill="#282726" d="M 1217.5,256.5 C 1222.17,256.5 1226.83,256.5 1231.5,256.5C 1231.5,281.833 1231.5,307.167 1231.5,332.5C 1226.83,332.5 1222.17,332.5 1217.5,332.5C 1217.5,307.167 1217.5,281.833 1217.5,256.5 Z"/></g>
<g><path style="opacity:0.952" fill="#2a2928" d="M 1248.5,256.5 C 1252.83,256.5 1257.17,256.5 1261.5,256.5C 1261.33,274.836 1261.5,293.17 1262,311.5C 1274.71,293.246 1287.54,275.079 1300.5,257C 1304.82,256.501 1309.15,256.334 1313.5,256.5C 1313.5,281.833 1313.5,307.167 1313.5,332.5C 1309.17,332.5 1304.83,332.5 1300.5,332.5C 1300.67,313.83 1300.5,295.164 1300,276.5C 1287.09,294.659 1274.42,312.993 1262,331.5C 1257.6,332.467 1253.1,332.8 1248.5,332.5C 1248.5,307.167 1248.5,281.833 1248.5,256.5 Z"/></g>
<g><path style="opacity:1" fill="#fcfcfc" d="M 187.5,258.5 C 188.822,258.33 189.989,258.663 191,259.5C 195.508,272.183 200.841,284.516 207,296.5C 215.75,311.002 224.75,325.335 234,339.5C 232.183,358.477 230.183,377.477 228,396.5C 227.067,405.444 225.067,414.11 222,422.5C 207.676,434.416 191.843,443.916 174.5,451C 169.051,451.896 163.718,451.563 158.5,450C 155.671,443.517 152.837,437.017 150,430.5C 147.833,428.536 145.499,428.202 143,429.5C 142.667,434.5 142.333,439.5 142,444.5C 141.196,445.804 140.029,446.471 138.5,446.5C 119.545,443.794 101.878,437.627 85.5,428C 82.5665,425.736 80.3999,422.902 79,419.5C 78.7622,402.155 78.2622,384.822 77.5,367.5C 77.1119,364.139 78.1119,361.306 80.5,359C 85.8333,358.333 91.1667,358.333 96.5,359C 104.577,360.686 112.577,362.686 120.5,365C 126.732,367.006 131.232,365.172 134,359.5C 147.168,323.155 165.001,289.488 187.5,258.5 Z"/></g>
<g><path style="opacity:0.959" fill="#2a2928" d="M 342.5,327.5 C 347.675,326.507 349.509,328.507 348,333.5C 345.653,340.366 342.153,346.532 337.5,352C 342.167,352.333 346.833,352.667 351.5,353C 352.661,355.721 351.994,358.054 349.5,360C 343.5,364.333 337.5,368.667 331.5,373C 334.196,373.765 336.696,374.932 339,376.5C 339.624,378.464 339.124,380.131 337.5,381.5C 331.874,382.848 326.207,384.014 320.5,385C 318.667,385.5 317.5,386.667 317,388.5C 314.218,403.959 318.218,417.292 329,428.5C 330.401,430.146 330.568,431.813 329.5,433.5C 323.375,430.535 317.375,427.368 311.5,424C 297.187,420.261 284.354,413.761 273,404.5C 270.707,400.748 268.54,396.914 266.5,393C 261.602,389.384 256.268,386.55 250.5,384.5C 256.342,381.079 262.342,377.912 268.5,375C 274.5,374.333 280.5,374.333 286.5,375C 290.399,376.184 294.066,377.517 297.5,379C 299.377,376.749 300.877,374.249 302,371.5C 303.728,364.567 306.062,357.9 309,351.5C 318.77,341.382 329.937,333.382 342.5,327.5 Z"/></g>
<g><path style="opacity:1" fill="#2c2b2a" d="M 187.5,363.5 C 201.997,360.556 210.33,366.223 212.5,380.5C 211.766,391.135 207.432,399.968 199.5,407C 191.764,412.143 184.597,411.643 178,405.5C 174.817,396.067 173.817,386.401 175,376.5C 176.718,369.618 180.885,365.285 187.5,363.5 Z"/></g>
<g><path style="opacity:0.94" fill="#2a2928" d="M 576.5,376.5 C 593.861,376.428 607.028,383.761 616,398.5C 624.355,419.093 619.855,436.26 602.5,450C 580.136,461.533 561.303,457.366 546,437.5C 535.773,414.938 540.607,396.438 560.5,382C 565.639,379.226 570.972,377.393 576.5,376.5 Z M 579.5,389.5 C 600.257,392.764 608.757,404.764 605,425.5C 598.87,440.149 588.037,445.649 572.5,442C 555.933,434.352 550.766,421.852 557,404.5C 562.311,396.102 569.811,391.102 579.5,389.5 Z"/></g>
<g><path style="opacity:0.949" fill="#2a2928" d="M 670.5,376.5 C 700.48,377.976 714.98,393.643 714,423.5C 707.177,447.301 691.344,458.134 666.5,456C 659.42,454.544 653.253,451.377 648,446.5C 647.5,457.828 647.333,469.162 647.5,480.5C 643.167,480.5 638.833,480.5 634.5,480.5C 634.5,446.5 634.5,412.5 634.5,378.5C 638.833,378.5 643.167,378.5 647.5,378.5C 647.336,381.187 647.503,383.854 648,386.5C 654.652,381.087 662.152,377.754 670.5,376.5 Z M 672.5,389.5 C 695.893,393.278 704.393,406.611 698,429.5C 687.418,443.437 674.251,446.604 658.5,439C 645.906,427.935 643.739,415.101 652,400.5C 657.587,394.293 664.421,390.626 672.5,389.5 Z"/></g>
<g><path style="opacity:0.936" fill="#2a2928" d="M 420.5,378.5 C 424.226,378.177 427.893,378.511 431.5,379.5C 439.833,400.167 448.167,420.833 456.5,441.5C 459.086,442.48 461.753,442.813 464.5,442.5C 464.5,452.167 464.5,461.833 464.5,471.5C 460.167,471.5 455.833,471.5 451.5,471.5C 451.5,465.833 451.5,460.167 451.5,454.5C 434.5,454.5 417.5,454.5 400.5,454.5C 400.5,460.167 400.5,465.833 400.5,471.5C 396.167,471.5 391.833,471.5 387.5,471.5C 387.5,461.833 387.5,452.167 387.5,442.5C 390.247,442.813 392.914,442.48 395.5,441.5C 404.037,420.551 412.37,399.551 420.5,378.5 Z M 425.5,400.5 C 431.404,414.202 436.737,428.202 441.5,442.5C 431.167,442.5 420.833,442.5 410.5,442.5C 415.102,428.36 420.102,414.36 425.5,400.5 Z"/></g>
<g><path style="opacity:0.946" fill="#2a2928" d="M 474.5,378.5 C 485.172,378.333 495.839,378.5 506.5,379C 521.801,382.643 527.635,392.143 524,407.5C 522.623,409.754 521.123,411.92 519.5,414C 530.056,422.25 532.222,432.417 526,444.5C 523.129,448.031 519.629,450.864 515.5,453C 501.893,454.427 488.226,454.927 474.5,454.5C 474.5,429.167 474.5,403.833 474.5,378.5 Z M 487.5,391.5 C 493.842,391.334 500.175,391.5 506.5,392C 511.069,394.541 512.569,398.375 511,403.5C 510.215,405.286 509.049,406.786 507.5,408C 500.897,409.274 494.23,409.774 487.5,409.5C 487.5,403.5 487.5,397.5 487.5,391.5 Z M 487.5,421.5 C 494.574,421.161 501.574,421.661 508.5,423C 517,428.629 517.334,434.629 509.5,441C 502.229,442.3 494.896,442.8 487.5,442.5C 487.5,435.5 487.5,428.5 487.5,421.5 Z"/></g>
</svg>
