<?xml version="1.0" encoding="UTF-8" standalone="no"?>
<svg
   xmlns:dc="http://purl.org/dc/elements/1.1/"
   xmlns:cc="http://creativecommons.org/ns#"
   xmlns:rdf="http://www.w3.org/1999/02/22-rdf-syntax-ns#"
   xmlns:svg="http://www.w3.org/2000/svg"
   xmlns="http://www.w3.org/2000/svg"
   viewBox="0 0 260.44666 132.4724"
   height="132.4724"
   width="260.44666"
   xml:space="preserve"
   id="svg2"
   version="1.1"><metadata
     id="metadata8"><rdf:RDF><cc:Work
         rdf:about=""><dc:format>image/svg+xml</dc:format><dc:type
           rdf:resource="http://purl.org/dc/dcmitype/StillImage" /></cc:Work></rdf:RDF></metadata><defs
     id="defs6"><clipPath
       id="clipPath26"
       clipPathUnits="userSpaceOnUse"><path
         id="path24"
         d="M 0,99.354 H 195.335 V 0 H 0 Z" /></clipPath></defs><g
     transform="matrix(1.3333333,0,0,-1.3333333,0,132.4724)"
     id="g10"><g
       transform="translate(34.729,52.8397)"
       id="g12"><path
         id="path14"
         style="fill:#b71c27;fill-opacity:1;fill-rule:evenodd;stroke:none"
         d="m 0,0 1.434,-5.223 4.14,4.098 -1.556,3.872 z" /></g><g
       transform="translate(35.1849,44.6791)"
       id="g16"><path
         id="path18"
         style="fill:#b71c27;fill-opacity:1;fill-rule:evenodd;stroke:none"
         d="M 0,0 -2.265,8.846 36.071,33.098 Z M -21.017,13.811 -5.393,6.805 -2.128,-5.09 9.76,-8.352 16.765,-23.989 43.472,40.497 Z" /></g><g
       id="g20"><g
         clip-path="url(#clipPath26)"
         id="g22"><g
           transform="translate(156.2497,20.6852)"
           id="g28"><path
             id="path30"
             style="fill:#b71c27;fill-opacity:1;fill-rule:evenodd;stroke:none"
             d="m 0,0 8.902,21.591 5.51,-0.021 -2.286,-5.518 9.524,0.769 2.769,6.687 c 1.651,3.888 -1.053,4.589 -4.353,4.589 H 9.01 c -3.663,0 -7.002,-0.971 -8.558,-4.64 l -10.459,-25.33 c -0.662,-1.559 -0.748,-2.687 -0.089,-3.43 0.713,-0.802 2.192,-1.204 4.437,-1.204 H 5.397 c 3.664,0 6.967,0.974 8.523,4.644 L 16.416,4.179 7.499,4.89 5.483,0 Z" /></g><g
           transform="translate(137.4402,31.9233)"
           id="g32"><path
             id="path34"
             style="fill:#b71c27;fill-opacity:1;fill-rule:evenodd;stroke:none"
             d="m 0,0 h -5.536 l 4.288,10.353 H 4.288 Z M 9.726,16.859 H -7.739 L -22.09,-17.745 h 9.203 l 4.796,11.238 h 7.912 c 3.665,0 7.059,0.989 8.616,4.658 l 5.813,14.026 c 1.649,3.888 -1.224,4.682 -4.524,4.682" /></g><g
           transform="translate(124.7074,48.7807)"
           id="g36"><path
             id="path38"
             style="fill:#b71c27;fill-opacity:1;fill-rule:evenodd;stroke:none"
             d="m 0,0 h -9.227 l -6.005,-14.524 h -5.546 L -14.763,0 h -9.187 l -6.865,-16.368 c -1.633,-3.858 1.301,-4.662 4.511,-4.662 h 8.367 l -2.824,-6.908 h -5.579 l 0.938,2.238 -9.504,-0.719 c -0.745,-1.759 -2.779,-5.469 -1.428,-6.995 0.713,-0.802 2.193,-1.203 4.437,-1.203 h 10.941 c 3.663,0 7.027,1.115 8.581,4.785 C -8.191,-19.963 -4.184,-9.868 0,0" /></g><g
           transform="translate(71.8146,48.782)"
           id="g40"><path
             id="path42"
             style="fill:#b71c27;fill-opacity:1;fill-rule:evenodd;stroke:none"
             d="m 0,0 -14.33,-34.604 h 9.182 l 5.823,14.049 H 6.211 L 0.393,-34.604 h 9.202 l 5.396,13.022 c 1.099,2.602 -1.959,3.514 -3.793,4.287 2.32,0.284 5.638,0.246 7.392,4.403 L 23.948,0 H 14.725 L 8.915,-14.049 H 3.37 L 9.207,0 Z" /></g></g></g></g></svg>